<?xml version="1.0" encoding="UTF-8" standalone="no"?>
<!DOCTYPE svg PUBLIC "-//W3C//DTD SVG 1.1//EN"
 "http://www.w3.org/Graphics/SVG/1.1/DTD/svg11.dtd">
<!-- Generated by graphviz version 2.44.0 (20200518.1210)
 -->
<!-- Title: std_deps Pages: 1 -->
<svg width="2389pt" height="710pt"
 viewBox="0.00 0.00 2389.33 710.00" xmlns="http://www.w3.org/2000/svg" xmlns:xlink="http://www.w3.org/1999/xlink">
<g id="graph0" class="graph" transform="scale(1 1) rotate(0) translate(4 706)">
<title>std_deps</title>
<polygon fill="white" stroke="transparent" points="-4,4 -4,-706 2385.33,-706 2385.33,4 -4,4"/>
<!-- archive -->
<g id="node1" class="node">
<title>archive</title>
<polygon fill="pink" stroke="black" points="530.03,-430.5 472.64,-430.5 472.64,-394.5 530.03,-394.5 530.03,-430.5"/>
<text text-anchor="middle" x="501.33" y="-408.3" font-family="Times,serif" font-size="14.00">archive</text>
</g>
<!-- io -->
<g id="node2" class="node">
<title>io</title>
<polygon fill="pink" stroke="black" points="420.33,-307.5 366.33,-307.5 366.33,-271.5 420.33,-271.5 420.33,-307.5"/>
<text text-anchor="middle" x="393.33" y="-285.3" font-family="Times,serif" font-size="14.00">io</text>
</g>
<!-- archive&#45;&gt;io -->
<g id="edge1" class="edge">
<title>archive&#45;&gt;io</title>
<path fill="none" stroke="black" d="M486.09,-394.42C467.7,-373.82 436.64,-339.02 415.57,-315.42"/>
<polygon fill="black" stroke="black" points="418.12,-313.01 408.85,-307.88 412.9,-317.68 418.12,-313.01"/>
</g>
<!-- assert -->
<g id="node3" class="node">
<title>assert</title>
<ellipse fill="none" stroke="black" cx="691.33" cy="-166.5" rx="39.5" ry="39.5"/>
<ellipse fill="none" stroke="black" cx="691.33" cy="-166.5" rx="43.5" ry="43.5"/>
<text text-anchor="middle" x="691.33" y="-162.3" font-family="Times,serif" font-size="14.00">assert</text>
</g>
<!-- archive&#45;&gt;assert -->
<g id="edge2" class="edge">
<title>archive&#45;&gt;assert</title>
<path fill="none" stroke="black" d="M513.6,-394.2C520.2,-385.8 528.92,-376.02 538.33,-369 569.26,-345.93 590.26,-360.5 617.33,-333 646.93,-302.93 638.09,-284.51 655.33,-246 659.79,-236.05 664.62,-225.41 669.25,-215.29"/>
<polygon fill="black" stroke="black" points="672.44,-216.72 673.43,-206.17 666.08,-213.8 672.44,-216.72"/>
</g>
<!-- io&#45;&gt;assert -->
<g id="edge24" class="edge">
<title>io&#45;&gt;assert</title>
<path fill="none" stroke="black" d="M406.51,-271.13C413.86,-262.5 423.67,-252.54 434.33,-246 498.42,-206.72 583.63,-185.79 638,-175.67"/>
<polygon fill="black" stroke="black" points="638.89,-179.06 648.11,-173.85 637.65,-172.18 638.89,-179.06"/>
</g>
<!-- bytes -->
<g id="node6" class="node">
<title>bytes</title>
<ellipse fill="none" stroke="black" cx="94.33" cy="-166.5" rx="39.5" ry="39.5"/>
<ellipse fill="none" stroke="black" cx="94.33" cy="-166.5" rx="43.5" ry="43.5"/>
<text text-anchor="middle" x="94.33" y="-162.3" font-family="Times,serif" font-size="14.00">bytes</text>
</g>
<!-- io&#45;&gt;bytes -->
<g id="edge25" class="edge">
<title>io&#45;&gt;bytes</title>
<path fill="none" stroke="black" d="M366.28,-281.73C321.97,-270.13 231.68,-244.34 160.33,-210 152.99,-206.47 145.48,-202.27 138.28,-197.91"/>
<polygon fill="black" stroke="black" points="139.7,-194.66 129.36,-192.33 135.99,-200.6 139.7,-194.66"/>
</g>
<!-- internal -->
<g id="node4" class="node">
<title>internal</title>
<ellipse fill="none" stroke="black" cx="867.33" cy="-43.5" rx="39.5" ry="39.5"/>
<ellipse fill="none" stroke="black" cx="867.33" cy="-43.5" rx="43.5" ry="43.5"/>
<text text-anchor="middle" x="867.33" y="-39.3" font-family="Times,serif" font-size="14.00">internal</text>
</g>
<!-- assert&#45;&gt;internal -->
<g id="edge3" class="edge">
<title>assert&#45;&gt;internal</title>
<path fill="none" stroke="black" d="M726.95,-141.01C754.74,-121.91 793.49,-95.27 823.24,-74.81"/>
<polygon fill="black" stroke="black" points="825.51,-77.5 831.77,-68.95 821.54,-71.73 825.51,-77.5"/>
</g>
<!-- async -->
<g id="node5" class="node">
<title>async</title>
<ellipse fill="none" stroke="black" cx="805.33" cy="-412.5" rx="39.5" ry="39.5"/>
<ellipse fill="none" stroke="black" cx="805.33" cy="-412.5" rx="43.5" ry="43.5"/>
<text text-anchor="middle" x="805.33" y="-408.3" font-family="Times,serif" font-size="14.00">async</text>
</g>
<!-- async&#45;&gt;assert -->
<g id="edge4" class="edge">
<title>async&#45;&gt;assert</title>
<path fill="none" stroke="black" d="M799.33,-369.41C793.14,-334.73 781.34,-285.08 760.33,-246 752.29,-231.04 740.91,-216.53 729.7,-204.14"/>
<polygon fill="black" stroke="black" points="732.16,-201.64 722.78,-196.71 727.04,-206.41 732.16,-201.64"/>
</g>
<!-- cli -->
<g id="node7" class="node">
<title>cli</title>
<polygon fill="pink" stroke="black" points="718.33,-307.5 664.33,-307.5 664.33,-271.5 718.33,-271.5 718.33,-307.5"/>
<text text-anchor="middle" x="691.33" y="-285.3" font-family="Times,serif" font-size="14.00">cli</text>
</g>
<!-- cli&#45;&gt;assert -->
<g id="edge5" class="edge">
<title>cli&#45;&gt;assert</title>
<path fill="none" stroke="black" d="M691.33,-271.42C691.33,-258.01 691.33,-238.58 691.33,-220.14"/>
<polygon fill="black" stroke="black" points="694.83,-220.05 691.33,-210.05 687.83,-220.05 694.83,-220.05"/>
</g>
<!-- collections -->
<g id="node8" class="node">
<title>collections</title>
<ellipse fill="none" stroke="black" cx="1503.33" cy="-412.5" rx="39.5" ry="39.5"/>
<ellipse fill="none" stroke="black" cx="1503.33" cy="-412.5" rx="43.5" ry="43.5"/>
<text text-anchor="middle" x="1503.33" y="-408.3" font-family="Times,serif" font-size="14.00">collections</text>
</g>
<!-- crypto -->
<g id="node9" class="node">
<title>crypto</title>
<ellipse fill="none" stroke="black" cx="190.33" cy="-289.5" rx="39.5" ry="39.5"/>
<ellipse fill="none" stroke="black" cx="190.33" cy="-289.5" rx="43.5" ry="43.5"/>
<text text-anchor="middle" x="190.33" y="-285.3" font-family="Times,serif" font-size="14.00">crypto</text>
</g>
<!-- crypto&#45;&gt;assert -->
<g id="edge6" class="edge">
<title>crypto&#45;&gt;assert</title>
<path fill="none" stroke="black" d="M223.09,-260.54C230.95,-254.99 239.61,-249.73 248.33,-246 380.67,-189.44 552.01,-173.63 637.64,-169.21"/>
<polygon fill="black" stroke="black" points="637.83,-172.71 647.65,-168.73 637.49,-165.72 637.83,-172.71"/>
</g>
<!-- encoding -->
<g id="node10" class="node">
<title>encoding</title>
<ellipse fill="none" stroke="black" cx="213.33" cy="-166.5" rx="39.5" ry="39.5"/>
<ellipse fill="none" stroke="black" cx="213.33" cy="-166.5" rx="43.5" ry="43.5"/>
<text text-anchor="middle" x="213.33" y="-162.3" font-family="Times,serif" font-size="14.00">encoding</text>
</g>
<!-- crypto&#45;&gt;encoding -->
<g id="edge7" class="edge">
<title>crypto&#45;&gt;encoding</title>
<path fill="none" stroke="black" d="M198.31,-246.52C199.97,-237.79 201.74,-228.49 203.45,-219.46"/>
<polygon fill="black" stroke="black" points="206.94,-219.88 205.37,-209.41 200.06,-218.58 206.94,-219.88"/>
</g>
<!-- csv -->
<g id="node11" class="node">
<title>csv</title>
<ellipse fill="none" stroke="black" cx="296.33" cy="-535.5" rx="39.5" ry="39.5"/>
<ellipse fill="none" stroke="black" cx="296.33" cy="-535.5" rx="43.5" ry="43.5"/>
<text text-anchor="middle" x="296.33" y="-531.3" font-family="Times,serif" font-size="14.00">csv</text>
</g>
<!-- csv&#45;&gt;assert -->
<g id="edge8" class="edge">
<title>csv&#45;&gt;assert</title>
<path fill="none" stroke="black" d="M303.97,-492.59C318.33,-414.74 348.69,-254.84 357.33,-246 395.91,-206.55 553.59,-183.08 637.77,-173.13"/>
<polygon fill="black" stroke="black" points="638.37,-176.58 647.9,-171.96 637.57,-169.63 638.37,-176.58"/>
</g>
<!-- streams -->
<g id="node12" class="node">
<title>streams</title>
<ellipse fill="none" stroke="black" cx="258.33" cy="-412.5" rx="39.5" ry="39.5"/>
<ellipse fill="none" stroke="black" cx="258.33" cy="-412.5" rx="43.5" ry="43.5"/>
<text text-anchor="middle" x="258.33" y="-408.3" font-family="Times,serif" font-size="14.00">streams</text>
</g>
<!-- csv&#45;&gt;streams -->
<g id="edge9" class="edge">
<title>csv&#45;&gt;streams</title>
<path fill="none" stroke="black" d="M283.57,-493.87C280.56,-484.29 277.32,-473.97 274.2,-464.02"/>
<polygon fill="black" stroke="black" points="277.46,-462.72 271.12,-454.23 270.78,-464.82 277.46,-462.72"/>
</g>
<!-- streams&#45;&gt;io -->
<g id="edge37" class="edge">
<title>streams&#45;&gt;io</title>
<path fill="none" stroke="black" d="M290.32,-382.82C313.52,-362.04 344.53,-334.24 366.45,-314.59"/>
<polygon fill="black" stroke="black" points="368.97,-317.03 374.08,-307.75 364.3,-311.82 368.97,-317.03"/>
</g>
<!-- streams&#45;&gt;assert -->
<g id="edge35" class="edge">
<title>streams&#45;&gt;assert</title>
<path fill="none" stroke="black" d="M263.86,-369.35C271.12,-331.42 287.57,-277.03 324.33,-246 371.26,-206.39 548.03,-182.55 638.01,-172.74"/>
<polygon fill="black" stroke="black" points="638.44,-176.21 648.01,-171.66 637.7,-169.25 638.44,-176.21"/>
</g>
<!-- streams&#45;&gt;bytes -->
<g id="edge36" class="edge">
<title>streams&#45;&gt;bytes</title>
<path fill="none" stroke="black" d="M223.25,-386.27C213.03,-379.85 201.58,-373.5 190.33,-369 116.61,-339.49 65.5,-394.55 15.33,-333 -9.1,-303.03 0.48,-281.7 15.33,-246 22.85,-227.93 36.78,-211.87 50.87,-199.06"/>
<polygon fill="black" stroke="black" points="53.42,-201.48 58.68,-192.29 48.83,-196.2 53.42,-201.48"/>
</g>
<!-- data_\nstructures -->
<g id="node13" class="node">
<title>data_\nstructures</title>
<polygon fill="pink" stroke="black" points="1687.75,-679.1 1616.91,-679.1 1616.91,-637.9 1687.75,-637.9 1687.75,-679.1"/>
<text text-anchor="middle" x="1652.33" y="-662.7" font-family="Times,serif" font-size="14.00">data_</text>
<text text-anchor="middle" x="1652.33" y="-645.9" font-family="Times,serif" font-size="14.00">structures</text>
</g>
<!-- datetime -->
<g id="node14" class="node">
<title>datetime</title>
<polygon fill="pink" stroke="black" points="1769.54,-676.5 1705.12,-676.5 1705.12,-640.5 1769.54,-640.5 1769.54,-676.5"/>
<text text-anchor="middle" x="1737.33" y="-654.3" font-family="Times,serif" font-size="14.00">datetime</text>
</g>
<!-- dotenv -->
<g id="node15" class="node">
<title>dotenv</title>
<polygon fill="pink" stroke="black" points="1841.44,-676.5 1787.23,-676.5 1787.23,-640.5 1841.44,-640.5 1841.44,-676.5"/>
<text text-anchor="middle" x="1814.33" y="-654.3" font-family="Times,serif" font-size="14.00">dotenv</text>
</g>
<!-- expect -->
<g id="node16" class="node">
<title>expect</title>
<polygon fill="pink" stroke="black" points="1357.33,-307.5 1303.33,-307.5 1303.33,-271.5 1357.33,-271.5 1357.33,-307.5"/>
<text text-anchor="middle" x="1330.33" y="-285.3" font-family="Times,serif" font-size="14.00">expect</text>
</g>
<!-- expect&#45;&gt;assert -->
<g id="edge10" class="edge">
<title>expect&#45;&gt;assert</title>
<path fill="none" stroke="black" d="M1318.27,-271.25C1310.98,-262.2 1300.87,-251.82 1289.33,-246 1283.24,-242.93 890.41,-192.79 744.83,-174.29"/>
<polygon fill="black" stroke="black" points="745.15,-170.8 734.79,-173.01 744.27,-177.74 745.15,-170.8"/>
</g>
<!-- expect&#45;&gt;internal -->
<g id="edge11" class="edge">
<title>expect&#45;&gt;internal</title>
<path fill="none" stroke="black" d="M1316.36,-271.35C1308.94,-262.98 1299.31,-253.19 1289.33,-246 1167.17,-157.97 1000.53,-91.73 917.97,-61.91"/>
<polygon fill="black" stroke="black" points="918.92,-58.54 908.33,-58.46 916.56,-65.13 918.92,-58.54"/>
</g>
<!-- fmt -->
<g id="node17" class="node">
<title>fmt</title>
<ellipse fill="none" stroke="black" cx="949.33" cy="-412.5" rx="39.5" ry="39.5"/>
<ellipse fill="none" stroke="black" cx="949.33" cy="-412.5" rx="43.5" ry="43.5"/>
<text text-anchor="middle" x="949.33" y="-408.3" font-family="Times,serif" font-size="14.00">fmt</text>
</g>
<!-- front_\nmatter -->
<g id="node18" class="node">
<title>front_\nmatter</title>
<ellipse fill="none" stroke="black" cx="1555.33" cy="-658.5" rx="39.5" ry="39.5"/>
<ellipse fill="none" stroke="black" cx="1555.33" cy="-658.5" rx="43.5" ry="43.5"/>
<text text-anchor="middle" x="1555.33" y="-662.7" font-family="Times,serif" font-size="14.00">front_</text>
<text text-anchor="middle" x="1555.33" y="-645.9" font-family="Times,serif" font-size="14.00">matter</text>
</g>
<!-- toml -->
<g id="node19" class="node">
<title>toml</title>
<ellipse fill="none" stroke="black" cx="1503.33" cy="-535.5" rx="39.5" ry="39.5"/>
<ellipse fill="none" stroke="black" cx="1503.33" cy="-535.5" rx="43.5" ry="43.5"/>
<text text-anchor="middle" x="1503.33" y="-531.3" font-family="Times,serif" font-size="14.00">toml</text>
</g>
<!-- front_\nmatter&#45;&gt;toml -->
<g id="edge12" class="edge">
<title>front_\nmatter&#45;&gt;toml</title>
<path fill="none" stroke="black" d="M1538.45,-618.21C1533.95,-607.75 1529.04,-596.32 1524.35,-585.42"/>
<polygon fill="black" stroke="black" points="1527.47,-583.81 1520.31,-576 1521.04,-586.57 1527.47,-583.81"/>
</g>
<!-- yaml -->
<g id="node20" class="node">
<title>yaml</title>
<ellipse fill="none" stroke="black" cx="1608.33" cy="-535.5" rx="39.5" ry="39.5"/>
<ellipse fill="none" stroke="black" cx="1608.33" cy="-535.5" rx="43.5" ry="43.5"/>
<text text-anchor="middle" x="1608.33" y="-531.3" font-family="Times,serif" font-size="14.00">yaml</text>
</g>
<!-- front_\nmatter&#45;&gt;yaml -->
<g id="edge13" class="edge">
<title>front_\nmatter&#45;&gt;yaml</title>
<path fill="none" stroke="black" d="M1572.54,-618.21C1577.21,-607.54 1582.33,-595.86 1587.2,-584.75"/>
<polygon fill="black" stroke="black" points="1590.4,-586.15 1591.21,-575.59 1583.99,-583.34 1590.4,-586.15"/>
</g>
<!-- toml&#45;&gt;collections -->
<g id="edge45" class="edge">
<title>toml&#45;&gt;collections</title>
<path fill="none" stroke="black" d="M1503.33,-491.84C1503.33,-483.62 1503.33,-474.91 1503.33,-466.41"/>
<polygon fill="black" stroke="black" points="1506.83,-466.18 1503.33,-456.18 1499.83,-466.18 1506.83,-466.18"/>
</g>
<!-- fs -->
<g id="node21" class="node">
<title>fs</title>
<ellipse fill="none" stroke="black" cx="1093.33" cy="-412.5" rx="39.5" ry="39.5"/>
<ellipse fill="none" stroke="black" cx="1093.33" cy="-412.5" rx="43.5" ry="43.5"/>
<text text-anchor="middle" x="1093.33" y="-408.3" font-family="Times,serif" font-size="14.00">fs</text>
</g>
<!-- fs&#45;&gt;assert -->
<g id="edge15" class="edge">
<title>fs&#45;&gt;assert</title>
<path fill="none" stroke="black" d="M1083.66,-369.97C1072.74,-326.65 1054.06,-262.73 1035.33,-246 992.8,-208.01 830.18,-183.76 744.64,-173.36"/>
<polygon fill="black" stroke="black" points="744.95,-169.87 734.61,-172.16 744.12,-176.82 744.95,-169.87"/>
</g>
<!-- path -->
<g id="node22" class="node">
<title>path</title>
<ellipse fill="none" stroke="black" cx="1131.33" cy="-289.5" rx="39.5" ry="39.5"/>
<ellipse fill="none" stroke="black" cx="1131.33" cy="-289.5" rx="43.5" ry="43.5"/>
<text text-anchor="middle" x="1131.33" y="-285.3" font-family="Times,serif" font-size="14.00">path</text>
</g>
<!-- fs&#45;&gt;path -->
<g id="edge14" class="edge">
<title>fs&#45;&gt;path</title>
<path fill="none" stroke="black" d="M1106.09,-370.87C1109.1,-361.29 1112.34,-350.97 1115.47,-341.02"/>
<polygon fill="black" stroke="black" points="1118.88,-341.82 1118.54,-331.23 1112.21,-339.72 1118.88,-341.82"/>
</g>
<!-- path&#45;&gt;assert -->
<g id="edge34" class="edge">
<title>path&#45;&gt;assert</title>
<path fill="none" stroke="black" d="M1098.49,-260.72C1090.64,-255.16 1082,-249.85 1073.33,-246 962.94,-197.03 820.94,-178.19 744.97,-171.27"/>
<polygon fill="black" stroke="black" points="744.96,-167.76 734.69,-170.37 744.35,-174.73 744.96,-167.76"/>
</g>
<!-- html -->
<g id="node23" class="node">
<title>html</title>
<polygon fill="pink" stroke="black" points="1913.33,-676.5 1859.33,-676.5 1859.33,-640.5 1913.33,-640.5 1913.33,-676.5"/>
<text text-anchor="middle" x="1886.33" y="-654.3" font-family="Times,serif" font-size="14.00">html</text>
</g>
<!-- http -->
<g id="node24" class="node">
<title>http</title>
<polygon fill="pink" stroke="black" points="741.33,-553.5 687.33,-553.5 687.33,-517.5 741.33,-517.5 741.33,-553.5"/>
<text text-anchor="middle" x="714.33" y="-531.3" font-family="Times,serif" font-size="14.00">http</text>
</g>
<!-- http&#45;&gt;assert -->
<g id="edge16" class="edge">
<title>http&#45;&gt;assert</title>
<path fill="none" stroke="black" d="M718.15,-517.33C727.52,-472.23 749.37,-346.91 727.33,-246 724.98,-235.23 721.01,-224.18 716.55,-213.89"/>
<polygon fill="black" stroke="black" points="719.68,-212.32 712.34,-204.68 713.31,-215.23 719.68,-212.32"/>
</g>
<!-- http&#45;&gt;async -->
<g id="edge18" class="edge">
<title>http&#45;&gt;async</title>
<path fill="none" stroke="black" d="M727.18,-517.42C739.11,-501.55 757.39,-477.25 773.27,-456.14"/>
<polygon fill="black" stroke="black" points="776.23,-458.02 779.44,-447.92 770.63,-453.81 776.23,-458.02"/>
</g>
<!-- http&#45;&gt;cli -->
<g id="edge22" class="edge">
<title>http&#45;&gt;cli</title>
<path fill="none" stroke="black" d="M712.71,-517.34C708.78,-475.6 698.68,-368.49 693.91,-317.83"/>
<polygon fill="black" stroke="black" points="697.37,-317.27 692.95,-307.64 690.4,-317.92 697.37,-317.27"/>
</g>
<!-- http&#45;&gt;encoding -->
<g id="edge17" class="edge">
<title>http&#45;&gt;encoding</title>
<path fill="none" stroke="black" d="M687.07,-533.26C631.95,-529.53 505.3,-514.71 420.33,-456 330.78,-394.12 266.29,-280.36 234.89,-215.72"/>
<polygon fill="black" stroke="black" points="237.97,-214.06 230.5,-206.55 231.66,-217.08 237.97,-214.06"/>
</g>
<!-- http&#45;&gt;streams -->
<g id="edge21" class="edge">
<title>http&#45;&gt;streams</title>
<path fill="none" stroke="black" d="M687.03,-528.5C631.32,-516.12 500.65,-486.34 392.33,-456 364.63,-448.24 334.04,-438.62 309.08,-430.49"/>
<polygon fill="black" stroke="black" points="310.06,-427.13 299.46,-427.34 307.88,-433.78 310.06,-427.13"/>
</g>
<!-- http&#45;&gt;fmt -->
<g id="edge23" class="edge">
<title>http&#45;&gt;fmt</title>
<path fill="none" stroke="black" d="M741.6,-524.52C777.13,-511.04 840.71,-485.31 891.33,-456 896.52,-452.99 901.81,-449.62 906.97,-446.12"/>
<polygon fill="black" stroke="black" points="909.31,-448.76 915.5,-440.16 905.3,-443.02 909.31,-448.76"/>
</g>
<!-- http&#45;&gt;path -->
<g id="edge19" class="edge">
<title>http&#45;&gt;path</title>
<path fill="none" stroke="black" d="M741.41,-525.65C772.95,-514.12 824.88,-491.18 857.33,-456 886.06,-424.85 864.92,-397.44 896.33,-369 947.15,-322.98 1025.77,-303.84 1077.89,-295.94"/>
<polygon fill="black" stroke="black" points="1078.53,-299.38 1087.94,-294.51 1077.54,-292.45 1078.53,-299.38"/>
</g>
<!-- media_types -->
<g id="node25" class="node">
<title>media_types</title>
<ellipse fill="none" stroke="black" cx="607.33" cy="-412.5" rx="59.69" ry="18"/>
<text text-anchor="middle" x="607.33" y="-408.3" font-family="Times,serif" font-size="14.00">media_types</text>
</g>
<!-- http&#45;&gt;media_types -->
<g id="edge20" class="edge">
<title>http&#45;&gt;media_types</title>
<path fill="none" stroke="black" d="M699.23,-517.42C680.8,-496.58 649.54,-461.23 628.66,-437.62"/>
<polygon fill="black" stroke="black" points="631.26,-435.28 622.01,-430.1 626.02,-439.91 631.26,-435.28"/>
</g>
<!-- ini -->
<g id="node26" class="node">
<title>ini</title>
<polygon fill="pink" stroke="black" points="1985.33,-676.5 1931.33,-676.5 1931.33,-640.5 1985.33,-640.5 1985.33,-676.5"/>
<text text-anchor="middle" x="1958.33" y="-654.3" font-family="Times,serif" font-size="14.00">ini</text>
</g>
<!-- json -->
<g id="node27" class="node">
<title>json</title>
<ellipse fill="none" stroke="black" cx="191.33" cy="-535.5" rx="39.5" ry="39.5"/>
<ellipse fill="none" stroke="black" cx="191.33" cy="-535.5" rx="43.5" ry="43.5"/>
<text text-anchor="middle" x="191.33" y="-531.3" font-family="Times,serif" font-size="14.00">json</text>
</g>
<!-- json&#45;&gt;streams -->
<g id="edge26" class="edge">
<title>json&#45;&gt;streams</title>
<path fill="none" stroke="black" d="M211.98,-497.21C218.54,-485.36 225.87,-472.12 232.74,-459.72"/>
<polygon fill="black" stroke="black" points="235.85,-461.32 237.63,-450.88 229.73,-457.93 235.85,-461.32"/>
</g>
<!-- jsonc -->
<g id="node28" class="node">
<title>jsonc</title>
<ellipse fill="none" stroke="black" cx="280.33" cy="-658.5" rx="39.5" ry="39.5"/>
<ellipse fill="none" stroke="black" cx="280.33" cy="-658.5" rx="43.5" ry="43.5"/>
<text text-anchor="middle" x="280.33" y="-654.3" font-family="Times,serif" font-size="14.00">jsonc</text>
</g>
<!-- jsonc&#45;&gt;assert -->
<g id="edge27" class="edge">
<title>jsonc&#45;&gt;assert</title>
<path fill="none" stroke="black" d="M311.01,-627.48C323.86,-613.64 338.15,-596.44 348.33,-579 368.14,-545.07 439.46,-273.7 467.33,-246 513.41,-200.21 587.67,-181.05 637.94,-173.08"/>
<polygon fill="black" stroke="black" points="638.6,-176.52 647.97,-171.59 637.57,-169.6 638.6,-176.52"/>
</g>
<!-- jsonc&#45;&gt;json -->
<g id="edge28" class="edge">
<title>jsonc&#45;&gt;json</title>
<path fill="none" stroke="black" d="M254.83,-622.83C244.87,-609.28 233.34,-593.61 222.86,-579.37"/>
<polygon fill="black" stroke="black" points="225.58,-577.16 216.84,-571.18 219.94,-581.31 225.58,-577.16"/>
</g>
<!-- log -->
<g id="node29" class="node">
<title>log</title>
<polygon fill="pink" stroke="black" points="1003.33,-553.5 949.33,-553.5 949.33,-517.5 1003.33,-517.5 1003.33,-553.5"/>
<text text-anchor="middle" x="976.33" y="-531.3" font-family="Times,serif" font-size="14.00">log</text>
</g>
<!-- log&#45;&gt;io -->
<g id="edge30" class="edge">
<title>log&#45;&gt;io</title>
<path fill="none" stroke="black" d="M949.29,-528.86C906.98,-520.16 822.51,-503.3 750.33,-492 686.83,-482.06 514.59,-494.78 463.33,-456 451.62,-447.14 419.25,-361.75 402.96,-317.22"/>
<polygon fill="black" stroke="black" points="406.18,-315.81 399.47,-307.62 399.6,-318.21 406.18,-315.81"/>
</g>
<!-- log&#45;&gt;assert -->
<g id="edge32" class="edge">
<title>log&#45;&gt;assert</title>
<path fill="none" stroke="black" d="M985.47,-517.34C1000.86,-485.9 1027.8,-417.78 1001.33,-369 946.28,-267.57 815.65,-209.22 742.75,-183.47"/>
<polygon fill="black" stroke="black" points="743.46,-180.01 732.86,-180.05 741.17,-186.63 743.46,-180.01"/>
</g>
<!-- log&#45;&gt;fmt -->
<g id="edge29" class="edge">
<title>log&#45;&gt;fmt</title>
<path fill="none" stroke="black" d="M972.52,-517.42C969.46,-503.73 965.01,-483.76 960.82,-464.98"/>
<polygon fill="black" stroke="black" points="964.19,-464.01 958.59,-455.01 957.36,-465.53 964.19,-464.01"/>
</g>
<!-- log&#45;&gt;fs -->
<g id="edge31" class="edge">
<title>log&#45;&gt;fs</title>
<path fill="none" stroke="black" d="M992.85,-517.42C1009.26,-500.45 1034.99,-473.84 1056.3,-451.79"/>
<polygon fill="black" stroke="black" points="1058.91,-454.14 1063.34,-444.51 1053.87,-449.27 1058.91,-454.14"/>
</g>
<!-- media_\ntypes -->
<g id="node30" class="node">
<title>media_\ntypes</title>
<ellipse fill="none" stroke="black" cx="2047.33" cy="-658.5" rx="39.5" ry="39.5"/>
<ellipse fill="none" stroke="black" cx="2047.33" cy="-658.5" rx="43.5" ry="43.5"/>
<text text-anchor="middle" x="2047.33" y="-662.7" font-family="Times,serif" font-size="14.00">media_</text>
<text text-anchor="middle" x="2047.33" y="-645.9" font-family="Times,serif" font-size="14.00">types</text>
</g>
<!-- msgpack -->
<g id="node31" class="node">
<title>msgpack</title>
<polygon fill="pink" stroke="black" points="90.1,-307.5 24.57,-307.5 24.57,-271.5 90.1,-271.5 90.1,-307.5"/>
<text text-anchor="middle" x="57.33" y="-285.3" font-family="Times,serif" font-size="14.00">msgpack</text>
</g>
<!-- msgpack&#45;&gt;bytes -->
<g id="edge33" class="edge">
<title>msgpack&#45;&gt;bytes</title>
<path fill="none" stroke="black" d="M62.55,-271.42C66.81,-257.5 73.05,-237.09 78.88,-218.03"/>
<polygon fill="black" stroke="black" points="82.3,-218.82 81.87,-208.24 75.6,-216.77 82.3,-218.82"/>
</g>
<!-- net -->
<g id="node32" class="node">
<title>net</title>
<polygon fill="pink" stroke="black" points="2163.33,-676.5 2109.33,-676.5 2109.33,-640.5 2163.33,-640.5 2163.33,-676.5"/>
<text text-anchor="middle" x="2136.33" y="-654.3" font-family="Times,serif" font-size="14.00">net</text>
</g>
<!-- regexp -->
<g id="node33" class="node">
<title>regexp</title>
<polygon fill="pink" stroke="black" points="2235.42,-676.5 2181.24,-676.5 2181.24,-640.5 2235.42,-640.5 2235.42,-676.5"/>
<text text-anchor="middle" x="2208.33" y="-654.3" font-family="Times,serif" font-size="14.00">regexp</text>
</g>
<!-- semver -->
<g id="node34" class="node">
<title>semver</title>
<polygon fill="pink" stroke="black" points="2309.76,-676.5 2252.9,-676.5 2252.9,-640.5 2309.76,-640.5 2309.76,-676.5"/>
<text text-anchor="middle" x="2281.33" y="-654.3" font-family="Times,serif" font-size="14.00">semver</text>
</g>
<!-- testing -->
<g id="node35" class="node">
<title>testing</title>
<ellipse fill="none" stroke="black" cx="1165.33" cy="-535.5" rx="39.5" ry="39.5"/>
<ellipse fill="none" stroke="black" cx="1165.33" cy="-535.5" rx="43.5" ry="43.5"/>
<text text-anchor="middle" x="1165.33" y="-531.3" font-family="Times,serif" font-size="14.00">testing</text>
</g>
<!-- testing&#45;&gt;assert -->
<g id="edge38" class="edge">
<title>testing&#45;&gt;assert</title>
<path fill="none" stroke="black" d="M1199.48,-508.13C1214.43,-494.4 1230.36,-476.26 1238.33,-456 1273.63,-366.21 1259.89,-304.72 1183.33,-246 1148.82,-219.53 864.82,-186.2 744.68,-173.12"/>
<polygon fill="black" stroke="black" points="744.92,-169.63 734.6,-172.03 744.17,-176.59 744.92,-169.63"/>
</g>
<!-- testing&#45;&gt;async -->
<g id="edge43" class="edge">
<title>testing&#45;&gt;async</title>
<path fill="none" stroke="black" d="M1123.56,-522.69C1053.49,-502.82 917.78,-464.09 896.33,-456 882.01,-450.6 866.82,-443.91 853.03,-437.45"/>
<polygon fill="black" stroke="black" points="854.27,-434.16 843.74,-433.03 851.27,-440.49 854.27,-434.16"/>
</g>
<!-- testing&#45;&gt;fmt -->
<g id="edge41" class="edge">
<title>testing&#45;&gt;fmt</title>
<path fill="none" stroke="black" d="M1127.71,-513.42C1091.12,-492.93 1035.43,-461.73 996.03,-439.66"/>
<polygon fill="black" stroke="black" points="997.32,-436.37 986.89,-434.54 993.9,-442.48 997.32,-436.37"/>
</g>
<!-- testing&#45;&gt;fs -->
<g id="edge40" class="edge">
<title>testing&#45;&gt;fs</title>
<path fill="none" stroke="black" d="M1143.34,-497.54C1136.08,-485.34 1127.92,-471.63 1120.33,-458.88"/>
<polygon fill="black" stroke="black" points="1123.31,-457.04 1115.19,-450.24 1117.3,-460.62 1123.31,-457.04"/>
</g>
<!-- testing&#45;&gt;path -->
<g id="edge39" class="edge">
<title>testing&#45;&gt;path</title>
<path fill="none" stroke="black" d="M1193.62,-502.02C1203.46,-488.68 1213.28,-472.51 1218.33,-456 1229.64,-419.03 1234.04,-404.33 1218.33,-369 1209.45,-349.03 1192.71,-332 1176.26,-318.95"/>
<polygon fill="black" stroke="black" points="1178.33,-316.13 1168.24,-312.88 1174.1,-321.71 1178.33,-316.13"/>
</g>
<!-- data_structures -->
<g id="node36" class="node">
<title>data_structures</title>
<ellipse fill="none" stroke="black" cx="1372.33" cy="-412.5" rx="69.48" ry="18"/>
<text text-anchor="middle" x="1372.33" y="-408.3" font-family="Times,serif" font-size="14.00">data_structures</text>
</g>
<!-- testing&#45;&gt;data_structures -->
<g id="edge42" class="edge">
<title>testing&#45;&gt;data_structures</title>
<path fill="none" stroke="black" d="M1202.82,-512.59C1240.73,-490.43 1298.93,-456.41 1336.31,-434.56"/>
<polygon fill="black" stroke="black" points="1338.47,-437.35 1345.34,-429.28 1334.94,-431.3 1338.47,-437.35"/>
</g>
<!-- text -->
<g id="node37" class="node">
<title>text</title>
<polygon fill="pink" stroke="black" points="530.33,-307.5 476.33,-307.5 476.33,-271.5 530.33,-271.5 530.33,-307.5"/>
<text text-anchor="middle" x="503.33" y="-285.3" font-family="Times,serif" font-size="14.00">text</text>
</g>
<!-- text&#45;&gt;assert -->
<g id="edge44" class="edge">
<title>text&#45;&gt;assert</title>
<path fill="none" stroke="black" d="M515.33,-271.38C521.78,-263.02 530.25,-253.23 539.33,-246 570.39,-221.27 610.46,-200.97 641.66,-187.2"/>
<polygon fill="black" stroke="black" points="643.25,-190.33 651.03,-183.15 640.47,-183.91 643.25,-190.33"/>
</g>
<!-- ulid -->
<g id="node38" class="node">
<title>ulid</title>
<polygon fill="pink" stroke="black" points="2381.33,-676.5 2327.33,-676.5 2327.33,-640.5 2381.33,-640.5 2381.33,-676.5"/>
<text text-anchor="middle" x="2354.33" y="-654.3" font-family="Times,serif" font-size="14.00">ulid</text>
</g>
<!-- url -->
<g id="node39" class="node">
<title>url</title>
<polygon fill="pink" stroke="black" points="1209.33,-430.5 1155.33,-430.5 1155.33,-394.5 1209.33,-394.5 1209.33,-430.5"/>
<text text-anchor="middle" x="1182.33" y="-408.3" font-family="Times,serif" font-size="14.00">url</text>
</g>
<!-- url&#45;&gt;path -->
<g id="edge46" class="edge">
<title>url&#45;&gt;path</title>
<path fill="none" stroke="black" d="M1175.13,-394.42C1169.09,-380.09 1160.15,-358.89 1151.93,-339.36"/>
<polygon fill="black" stroke="black" points="1155.07,-337.81 1147.96,-329.95 1148.62,-340.53 1155.07,-337.81"/>
</g>
<!-- uuid -->
<g id="node40" class="node">
<title>uuid</title>
<ellipse fill="none" stroke="black" cx="138.33" cy="-412.5" rx="39.5" ry="39.5"/>
<ellipse fill="none" stroke="black" cx="138.33" cy="-412.5" rx="43.5" ry="43.5"/>
<text text-anchor="middle" x="138.33" y="-408.3" font-family="Times,serif" font-size="14.00">uuid</text>
</g>
<!-- uuid&#45;&gt;bytes -->
<g id="edge47" class="edge">
<title>uuid&#45;&gt;bytes</title>
<path fill="none" stroke="black" d="M130.77,-369.55C123.29,-328.09 111.83,-264.54 103.76,-219.81"/>
<polygon fill="black" stroke="black" points="107.16,-218.93 101.94,-209.71 100.27,-220.18 107.16,-218.93"/>
</g>
<!-- uuid&#45;&gt;crypto -->
<g id="edge48" class="edge">
<title>uuid&#45;&gt;crypto</title>
<path fill="none" stroke="black" d="M155.21,-372.21C159.71,-361.75 164.62,-350.32 169.31,-339.42"/>
<polygon fill="black" stroke="black" points="172.62,-340.57 173.35,-330 166.19,-337.81 172.62,-340.57"/>
</g>
<!-- webgpu -->
<g id="node41" class="node">
<title>webgpu</title>
<polygon fill="pink" stroke="black" points="608.65,-307.5 548.01,-307.5 548.01,-271.5 608.65,-271.5 608.65,-307.5"/>
<text text-anchor="middle" x="578.33" y="-285.3" font-family="Times,serif" font-size="14.00">webgpu</text>
</g>
<!-- webgpu&#45;&gt;assert -->
<g id="edge49" class="edge">
<title>webgpu&#45;&gt;assert</title>
<path fill="none" stroke="black" d="M594.28,-271.42C609.95,-254.64 634.43,-228.43 654.87,-206.54"/>
<polygon fill="black" stroke="black" points="657.65,-208.69 661.92,-199 652.53,-203.91 657.65,-208.69"/>
</g>
</g>
</svg>
