<?xml version="1.0" encoding="UTF-8" standalone="no"?>
<!DOCTYPE svg PUBLIC "-//W3C//DTD SVG 1.1//EN"
 "http://www.w3.org/Graphics/SVG/1.1/DTD/svg11.dtd">
<!-- Generated by graphviz version 2.44.0 (20200518.1210)
 -->
<!-- Title: std_deps Pages: 1 -->
<svg width="2641pt" height="404pt"
 viewBox="0.00 0.00 2641.00 404.00" xmlns="http://www.w3.org/2000/svg" xmlns:xlink="http://www.w3.org/1999/xlink">
<g id="graph0" class="graph" transform="scale(1 1) rotate(0) translate(4 400)">
<title>std_deps</title>
<polygon fill="white" stroke="transparent" points="-4,4 -4,-400 2637,-400 2637,4 -4,4"/>
<!-- archive -->
<g id="node1" class="node">
<title>archive</title>
<ellipse fill="none" stroke="black" cx="690" cy="-252" rx="36" ry="36"/>
<text text-anchor="middle" x="690" y="-247.8" font-family="Times,serif" font-size="14.00">archive</text>
</g>
<!-- io -->
<g id="node2" class="node">
<title>io</title>
<ellipse fill="none" stroke="black" cx="662" cy="-144" rx="36" ry="36"/>
<text text-anchor="middle" x="662" y="-139.8" font-family="Times,serif" font-size="14.00">io</text>
</g>
<!-- archive&#45;&gt;io -->
<g id="edge1" class="edge">
<title>archive&#45;&gt;io</title>
<path fill="none" stroke="black" d="M680.99,-216.88C678.64,-207.99 676.08,-198.28 673.61,-188.96"/>
<polygon fill="black" stroke="black" points="676.93,-187.83 671,-179.06 670.17,-189.62 676.93,-187.83"/>
</g>
<!-- bytes -->
<g id="node6" class="node">
<title>bytes</title>
<ellipse fill="lightgreen" stroke="black" cx="617" cy="-36" rx="36" ry="36"/>
<text text-anchor="middle" x="617" y="-31.8" font-family="Times,serif" font-size="14.00">bytes</text>
</g>
<!-- io&#45;&gt;bytes -->
<g id="edge17" class="edge">
<title>io&#45;&gt;bytes</title>
<path fill="none" stroke="black" d="M648.25,-110.62C644.02,-100.65 639.29,-89.51 634.83,-78.99"/>
<polygon fill="black" stroke="black" points="637.95,-77.38 630.82,-69.55 631.5,-80.12 637.95,-77.38"/>
</g>
<!-- assert -->
<g id="node3" class="node">
<title>assert</title>
<ellipse fill="lightgreen" stroke="black" cx="1434" cy="-144" rx="36" ry="36"/>
<text text-anchor="middle" x="1434" y="-139.8" font-family="Times,serif" font-size="14.00">assert</text>
</g>
<!-- internal -->
<g id="node4" class="node">
<title>internal</title>
<ellipse fill="lightgreen" stroke="black" cx="1434" cy="-36" rx="36" ry="36"/>
<text text-anchor="middle" x="1434" y="-31.8" font-family="Times,serif" font-size="14.00">internal</text>
</g>
<!-- assert&#45;&gt;internal -->
<g id="edge2" class="edge">
<title>assert&#45;&gt;internal</title>
<path fill="none" stroke="black" d="M1434,-108C1434,-99.85 1434,-91.06 1434,-82.54"/>
<polygon fill="black" stroke="black" points="1437.5,-82.33 1434,-72.33 1430.5,-82.33 1437.5,-82.33"/>
</g>
<!-- async -->
<g id="node5" class="node">
<title>async</title>
<ellipse fill="lightgreen" stroke="black" cx="842" cy="-144" rx="36" ry="36"/>
<text text-anchor="middle" x="842" y="-139.8" font-family="Times,serif" font-size="14.00">async</text>
</g>
<!-- cli -->
<g id="node7" class="node">
<title>cli</title>
<ellipse fill="none" stroke="black" cx="126" cy="-144" rx="36" ry="36"/>
<text text-anchor="middle" x="126" y="-139.8" font-family="Times,serif" font-size="14.00">cli</text>
</g>
<!-- collections -->
<g id="node8" class="node">
<title>collections</title>
<ellipse fill="lightgreen" stroke="black" cx="1562" cy="-144" rx="36" ry="36"/>
<text text-anchor="middle" x="1562" y="-139.8" font-family="Times,serif" font-size="14.00">collections</text>
</g>
<!-- crypto -->
<g id="node9" class="node">
<title>crypto</title>
<ellipse fill="lightgreen" stroke="black" cx="752" cy="-36" rx="36" ry="36"/>
<text text-anchor="middle" x="752" y="-31.8" font-family="Times,serif" font-size="14.00">crypto</text>
</g>
<!-- csv -->
<g id="node10" class="node">
<title>csv</title>
<ellipse fill="none" stroke="black" cx="510" cy="-252" rx="36" ry="36"/>
<text text-anchor="middle" x="510" y="-247.8" font-family="Times,serif" font-size="14.00">csv</text>
</g>
<!-- streams -->
<g id="node11" class="node">
<title>streams</title>
<ellipse fill="none" stroke="black" cx="572" cy="-144" rx="36" ry="36"/>
<text text-anchor="middle" x="572" y="-139.8" font-family="Times,serif" font-size="14.00">streams</text>
</g>
<!-- csv&#45;&gt;streams -->
<g id="edge3" class="edge">
<title>csv&#45;&gt;streams</title>
<path fill="none" stroke="black" d="M527.77,-220.62C534.38,-209.31 541.99,-196.31 549,-184.31"/>
<polygon fill="black" stroke="black" points="552.2,-185.78 554.23,-175.38 546.16,-182.24 552.2,-185.78"/>
</g>
<!-- streams&#45;&gt;bytes -->
<g id="edge24" class="edge">
<title>streams&#45;&gt;bytes</title>
<path fill="none" stroke="black" d="M585.75,-110.62C589.98,-100.65 594.71,-89.51 599.17,-78.99"/>
<polygon fill="black" stroke="black" points="602.5,-80.12 603.18,-69.55 596.05,-77.38 602.5,-80.12"/>
</g>
<!-- data_\nstructures -->
<g id="node12" class="node">
<title>data_\nstructures</title>
<ellipse fill="lightgreen" stroke="black" cx="1697" cy="-360" rx="36" ry="36"/>
<text text-anchor="middle" x="1697" y="-364.2" font-family="Times,serif" font-size="14.00">data_</text>
<text text-anchor="middle" x="1697" y="-347.4" font-family="Times,serif" font-size="14.00">structures</text>
</g>
<!-- datetime -->
<g id="node13" class="node">
<title>datetime</title>
<ellipse fill="none" stroke="black" cx="1787" cy="-360" rx="36" ry="36"/>
<text text-anchor="middle" x="1787" y="-355.8" font-family="Times,serif" font-size="14.00">datetime</text>
</g>
<!-- dotenv -->
<g id="node14" class="node">
<title>dotenv</title>
<ellipse fill="none" stroke="black" cx="1877" cy="-360" rx="36" ry="36"/>
<text text-anchor="middle" x="1877" y="-355.8" font-family="Times,serif" font-size="14.00">dotenv</text>
</g>
<!-- encoding -->
<g id="node15" class="node">
<title>encoding</title>
<ellipse fill="lightgreen" stroke="black" cx="216" cy="-144" rx="36" ry="36"/>
<text text-anchor="middle" x="216" y="-139.8" font-family="Times,serif" font-size="14.00">encoding</text>
</g>
<!-- expect -->
<g id="node16" class="node">
<title>expect</title>
<ellipse fill="none" stroke="black" cx="1453" cy="-252" rx="36" ry="36"/>
<text text-anchor="middle" x="1453" y="-247.8" font-family="Times,serif" font-size="14.00">expect</text>
</g>
<!-- expect&#45;&gt;assert -->
<g id="edge4" class="edge">
<title>expect&#45;&gt;assert</title>
<path fill="none" stroke="black" d="M1446.78,-216.29C1445.25,-207.78 1443.6,-198.55 1442,-189.65"/>
<polygon fill="black" stroke="black" points="1445.44,-189.01 1440.24,-179.79 1438.55,-190.25 1445.44,-189.01"/>
</g>
<!-- expect&#45;&gt;internal -->
<g id="edge5" class="edge">
<title>expect&#45;&gt;internal</title>
<path fill="none" stroke="black" d="M1467.51,-218.79C1472.15,-206.86 1476.68,-193.05 1479,-180 1484.59,-148.49 1487.92,-138.73 1479,-108 1475.41,-95.61 1468.93,-83.32 1461.99,-72.53"/>
<polygon fill="black" stroke="black" points="1464.87,-70.54 1456.37,-64.22 1459.08,-74.47 1464.87,-70.54"/>
</g>
<!-- fmt -->
<g id="node17" class="node">
<title>fmt</title>
<ellipse fill="none" stroke="black" cx="932" cy="-144" rx="36" ry="36"/>
<text text-anchor="middle" x="932" y="-139.8" font-family="Times,serif" font-size="14.00">fmt</text>
</g>
<!-- front_\nmatter -->
<g id="node18" class="node">
<title>front_\nmatter</title>
<ellipse fill="none" stroke="black" cx="1607" cy="-360" rx="36" ry="36"/>
<text text-anchor="middle" x="1607" y="-364.2" font-family="Times,serif" font-size="14.00">front_</text>
<text text-anchor="middle" x="1607" y="-347.4" font-family="Times,serif" font-size="14.00">matter</text>
</g>
<!-- toml -->
<g id="node19" class="node">
<title>toml</title>
<ellipse fill="lightgreen" stroke="black" cx="1562" cy="-252" rx="36" ry="36"/>
<text text-anchor="middle" x="1562" y="-247.8" font-family="Times,serif" font-size="14.00">toml</text>
</g>
<!-- front_\nmatter&#45;&gt;toml -->
<g id="edge6" class="edge">
<title>front_\nmatter&#45;&gt;toml</title>
<path fill="none" stroke="black" d="M1593.25,-326.62C1589.02,-316.65 1584.29,-305.51 1579.83,-294.99"/>
<polygon fill="black" stroke="black" points="1582.95,-293.38 1575.82,-285.55 1576.5,-296.12 1582.95,-293.38"/>
</g>
<!-- yaml -->
<g id="node20" class="node">
<title>yaml</title>
<ellipse fill="none" stroke="black" cx="1652" cy="-252" rx="36" ry="36"/>
<text text-anchor="middle" x="1652" y="-247.8" font-family="Times,serif" font-size="14.00">yaml</text>
</g>
<!-- front_\nmatter&#45;&gt;yaml -->
<g id="edge7" class="edge">
<title>front_\nmatter&#45;&gt;yaml</title>
<path fill="none" stroke="black" d="M1620.75,-326.62C1624.98,-316.65 1629.71,-305.51 1634.17,-294.99"/>
<polygon fill="black" stroke="black" points="1637.5,-296.12 1638.18,-285.55 1631.05,-293.38 1637.5,-296.12"/>
</g>
<!-- toml&#45;&gt;collections -->
<g id="edge32" class="edge">
<title>toml&#45;&gt;collections</title>
<path fill="none" stroke="black" d="M1562,-216C1562,-207.85 1562,-199.06 1562,-190.54"/>
<polygon fill="black" stroke="black" points="1565.5,-190.33 1562,-180.33 1558.5,-190.33 1565.5,-190.33"/>
</g>
<!-- fs -->
<g id="node21" class="node">
<title>fs</title>
<ellipse fill="none" stroke="black" cx="1022" cy="-144" rx="36" ry="36"/>
<text text-anchor="middle" x="1022" y="-139.8" font-family="Times,serif" font-size="14.00">fs</text>
</g>
<!-- path -->
<g id="node22" class="node">
<title>path</title>
<ellipse fill="lightgreen" stroke="black" cx="1054" cy="-36" rx="36" ry="36"/>
<text text-anchor="middle" x="1054" y="-31.8" font-family="Times,serif" font-size="14.00">path</text>
</g>
<!-- fs&#45;&gt;path -->
<g id="edge8" class="edge">
<title>fs&#45;&gt;path</title>
<path fill="none" stroke="black" d="M1032.21,-109.17C1034.96,-100.09 1037.96,-90.13 1040.84,-80.6"/>
<polygon fill="black" stroke="black" points="1044.23,-81.46 1043.77,-70.87 1037.53,-79.43 1044.23,-81.46"/>
</g>
<!-- html -->
<g id="node23" class="node">
<title>html</title>
<ellipse fill="lightgreen" stroke="black" cx="1967" cy="-360" rx="36" ry="36"/>
<text text-anchor="middle" x="1967" y="-355.8" font-family="Times,serif" font-size="14.00">html</text>
</g>
<!-- http -->
<g id="node24" class="node">
<title>http</title>
<ellipse fill="none" stroke="black" cx="420" cy="-252" rx="36" ry="36"/>
<text text-anchor="middle" x="420" y="-247.8" font-family="Times,serif" font-size="14.00">http</text>
</g>
<!-- http&#45;&gt;async -->
<g id="edge10" class="edge">
<title>http&#45;&gt;async</title>
<path fill="none" stroke="black" d="M446.09,-226.89C451.94,-222.61 458.39,-218.67 465,-216 602.58,-160.32 659.42,-235.68 797,-180 800.51,-178.58 803.97,-176.8 807.33,-174.81"/>
<polygon fill="black" stroke="black" points="809.52,-177.56 815.91,-169.11 805.65,-171.72 809.52,-177.56"/>
</g>
<!-- http&#45;&gt;cli -->
<g id="edge14" class="edge">
<title>http&#45;&gt;cli</title>
<path fill="none" stroke="black" d="M384.61,-245.32C334.87,-236.38 242.36,-216.2 171,-180 167.72,-178.34 164.44,-176.42 161.23,-174.35"/>
<polygon fill="black" stroke="black" points="163.17,-171.44 152.96,-168.62 159.19,-177.19 163.17,-171.44"/>
</g>
<!-- http&#45;&gt;streams -->
<g id="edge13" class="edge">
<title>http&#45;&gt;streams</title>
<path fill="none" stroke="black" d="M447.77,-228.72C453.4,-224.4 459.33,-219.98 465,-216 489.52,-198.78 497.05,-196.6 522,-180 526.09,-177.28 530.33,-174.4 534.54,-171.51"/>
<polygon fill="black" stroke="black" points="536.85,-174.16 543.08,-165.59 532.86,-168.41 536.85,-174.16"/>
</g>
<!-- http&#45;&gt;encoding -->
<g id="edge9" class="edge">
<title>http&#45;&gt;encoding</title>
<path fill="none" stroke="black" d="M386.26,-238.68C353.25,-226 302.09,-204.66 261,-180 257.84,-178.11 254.66,-176.02 251.51,-173.85"/>
<polygon fill="black" stroke="black" points="253.49,-170.96 243.34,-167.93 249.39,-176.63 253.49,-170.96"/>
</g>
<!-- http&#45;&gt;fmt -->
<g id="edge15" class="edge">
<title>http&#45;&gt;fmt</title>
<path fill="none" stroke="black" d="M446.04,-226.77C451.9,-222.5 458.36,-218.6 465,-216 640.29,-147.39 711.71,-248.61 887,-180 890.53,-178.62 894,-176.87 897.37,-174.89"/>
<polygon fill="black" stroke="black" points="899.54,-177.65 905.96,-169.23 895.69,-171.81 899.54,-177.65"/>
</g>
<!-- http&#45;&gt;path -->
<g id="edge11" class="edge">
<title>http&#45;&gt;path</title>
<path fill="none" stroke="black" d="M446.46,-227.27C460.16,-214.16 476.57,-197.1 489,-180 510.27,-150.73 497.32,-128.69 527,-108 576.65,-73.38 737.01,-80.08 797,-72 870.9,-62.04 956.73,-50.32 1008.13,-43.29"/>
<polygon fill="black" stroke="black" points="1008.82,-46.73 1018.25,-41.9 1007.87,-39.79 1008.82,-46.73"/>
</g>
<!-- media_types -->
<g id="node25" class="node">
<title>media_types</title>
<ellipse fill="none" stroke="black" cx="420" cy="-144" rx="59.69" ry="18"/>
<text text-anchor="middle" x="420" y="-139.8" font-family="Times,serif" font-size="14.00">media_types</text>
</g>
<!-- http&#45;&gt;media_types -->
<g id="edge12" class="edge">
<title>http&#45;&gt;media_types</title>
<path fill="none" stroke="black" d="M420,-216C420,-201.86 420,-185.79 420,-172.52"/>
<polygon fill="black" stroke="black" points="423.5,-172.13 420,-162.13 416.5,-172.13 423.5,-172.13"/>
</g>
<!-- net -->
<g id="node26" class="node">
<title>net</title>
<ellipse fill="none" stroke="black" cx="36" cy="-144" rx="36" ry="36"/>
<text text-anchor="middle" x="36" y="-139.8" font-family="Times,serif" font-size="14.00">net</text>
</g>
<!-- http&#45;&gt;net -->
<g id="edge16" class="edge">
<title>http&#45;&gt;net</title>
<path fill="none" stroke="black" d="M383.94,-248.79C320.11,-243.74 184.26,-227.83 81,-180 77.56,-178.41 74.15,-176.51 70.83,-174.44"/>
<polygon fill="black" stroke="black" points="72.53,-171.36 62.3,-168.61 68.59,-177.14 72.53,-171.36"/>
</g>
<!-- ini -->
<g id="node27" class="node">
<title>ini</title>
<ellipse fill="none" stroke="black" cx="2057" cy="-360" rx="36" ry="36"/>
<text text-anchor="middle" x="2057" y="-355.8" font-family="Times,serif" font-size="14.00">ini</text>
</g>
<!-- json -->
<g id="node28" class="node">
<title>json</title>
<ellipse fill="none" stroke="black" cx="600" cy="-252" rx="36" ry="36"/>
<text text-anchor="middle" x="600" y="-247.8" font-family="Times,serif" font-size="14.00">json</text>
</g>
<!-- json&#45;&gt;streams -->
<g id="edge18" class="edge">
<title>json&#45;&gt;streams</title>
<path fill="none" stroke="black" d="M590.99,-216.88C588.64,-207.99 586.08,-198.28 583.61,-188.96"/>
<polygon fill="black" stroke="black" points="586.93,-187.83 581,-179.06 580.17,-189.62 586.93,-187.83"/>
</g>
<!-- jsonc -->
<g id="node29" class="node">
<title>jsonc</title>
<ellipse fill="none" stroke="black" cx="600" cy="-360" rx="36" ry="36"/>
<text text-anchor="middle" x="600" y="-355.8" font-family="Times,serif" font-size="14.00">jsonc</text>
</g>
<!-- jsonc&#45;&gt;json -->
<g id="edge19" class="edge">
<title>jsonc&#45;&gt;json</title>
<path fill="none" stroke="black" d="M600,-324C600,-315.85 600,-307.06 600,-298.54"/>
<polygon fill="black" stroke="black" points="603.5,-298.33 600,-288.33 596.5,-298.33 603.5,-298.33"/>
</g>
<!-- log -->
<g id="node30" class="node">
<title>log</title>
<ellipse fill="none" stroke="black" cx="932" cy="-252" rx="36" ry="36"/>
<text text-anchor="middle" x="932" y="-247.8" font-family="Times,serif" font-size="14.00">log</text>
</g>
<!-- log&#45;&gt;io -->
<g id="edge21" class="edge">
<title>log&#45;&gt;io</title>
<path fill="none" stroke="black" d="M896.56,-243.92C850.91,-233.9 769.93,-213.03 707,-180 703.74,-178.29 700.48,-176.34 697.28,-174.25"/>
<polygon fill="black" stroke="black" points="699.23,-171.34 689.03,-168.48 695.22,-177.08 699.23,-171.34"/>
</g>
<!-- log&#45;&gt;fmt -->
<g id="edge20" class="edge">
<title>log&#45;&gt;fmt</title>
<path fill="none" stroke="black" d="M932,-216C932,-207.85 932,-199.06 932,-190.54"/>
<polygon fill="black" stroke="black" points="935.5,-190.33 932,-180.33 928.5,-190.33 935.5,-190.33"/>
</g>
<!-- log&#45;&gt;fs -->
<g id="edge22" class="edge">
<title>log&#45;&gt;fs</title>
<path fill="none" stroke="black" d="M954.94,-223.98C966.37,-210.52 980.31,-194.1 992.52,-179.72"/>
<polygon fill="black" stroke="black" points="995.29,-181.86 999.1,-171.97 989.96,-177.33 995.29,-181.86"/>
</g>
<!-- media_\ntypes -->
<g id="node31" class="node">
<title>media_\ntypes</title>
<ellipse fill="lightgreen" stroke="black" cx="2147" cy="-360" rx="36" ry="36"/>
<text text-anchor="middle" x="2147" y="-364.2" font-family="Times,serif" font-size="14.00">media_</text>
<text text-anchor="middle" x="2147" y="-347.4" font-family="Times,serif" font-size="14.00">types</text>
</g>
<!-- msgpack -->
<g id="node32" class="node">
<title>msgpack</title>
<ellipse fill="lightgreen" stroke="black" cx="306" cy="-144" rx="36" ry="36"/>
<text text-anchor="middle" x="306" y="-139.8" font-family="Times,serif" font-size="14.00">msgpack</text>
</g>
<!-- msgpack&#45;&gt;bytes -->
<g id="edge23" class="edge">
<title>msgpack&#45;&gt;bytes</title>
<path fill="none" stroke="black" d="M332.92,-119.3C338.62,-115.09 344.79,-111.08 351,-108 423.59,-71.95 516.73,-52.51 571.34,-43.49"/>
<polygon fill="black" stroke="black" points="572.08,-46.91 581.4,-41.87 570.97,-40 572.08,-46.91"/>
</g>
<!-- regexp -->
<g id="node33" class="node">
<title>regexp</title>
<ellipse fill="lightgreen" stroke="black" cx="2237" cy="-360" rx="36" ry="36"/>
<text text-anchor="middle" x="2237" y="-355.8" font-family="Times,serif" font-size="14.00">regexp</text>
</g>
<!-- semver -->
<g id="node34" class="node">
<title>semver</title>
<ellipse fill="none" stroke="black" cx="2327" cy="-360" rx="36" ry="36"/>
<text text-anchor="middle" x="2327" y="-355.8" font-family="Times,serif" font-size="14.00">semver</text>
</g>
<!-- testing -->
<g id="node35" class="node">
<title>testing</title>
<ellipse fill="none" stroke="black" cx="1086" cy="-252" rx="36" ry="36"/>
<text text-anchor="middle" x="1086" y="-247.8" font-family="Times,serif" font-size="14.00">testing</text>
</g>
<!-- testing&#45;&gt;assert -->
<g id="edge25" class="edge">
<title>testing&#45;&gt;assert</title>
<path fill="none" stroke="black" d="M1121.81,-246.89C1179.22,-239.34 1294.5,-220.22 1384,-180 1388.65,-177.91 1393.32,-175.37 1397.84,-172.62"/>
<polygon fill="black" stroke="black" points="1399.81,-175.51 1406.3,-167.14 1396,-169.64 1399.81,-175.51"/>
</g>
<!-- testing&#45;&gt;internal -->
<g id="edge29" class="edge">
<title>testing&#45;&gt;internal</title>
<path fill="none" stroke="black" d="M1122.19,-250.21C1177.31,-247.21 1283.06,-234.22 1351,-180 1379.28,-157.43 1370.86,-139.31 1389,-108 1395.29,-97.15 1402.43,-85.58 1409.13,-75"/>
<polygon fill="black" stroke="black" points="1412.21,-76.7 1414.64,-66.39 1406.31,-72.93 1412.21,-76.7"/>
</g>
<!-- testing&#45;&gt;async -->
<g id="edge31" class="edge">
<title>testing&#45;&gt;async</title>
<path fill="none" stroke="black" d="M1051.86,-240.27C1003.05,-224.69 916.02,-195.93 887,-180 883.77,-178.23 880.53,-176.23 877.36,-174.12"/>
<polygon fill="black" stroke="black" points="879.31,-171.22 869.13,-168.3 875.27,-176.93 879.31,-171.22"/>
</g>
<!-- testing&#45;&gt;fmt -->
<g id="edge28" class="edge">
<title>testing&#45;&gt;fmt</title>
<path fill="none" stroke="black" d="M1055.47,-232.08C1033.36,-218.14 1002.93,-198.48 977,-180 974,-177.86 970.93,-175.61 967.86,-173.32"/>
<polygon fill="black" stroke="black" points="969.89,-170.47 959.81,-167.21 965.66,-176.04 969.89,-170.47"/>
</g>
<!-- testing&#45;&gt;fs -->
<g id="edge27" class="edge">
<title>testing&#45;&gt;fs</title>
<path fill="none" stroke="black" d="M1067.83,-220.91C1060.87,-209.38 1052.83,-196.07 1045.45,-183.84"/>
<polygon fill="black" stroke="black" points="1048.38,-181.92 1040.21,-175.17 1042.39,-185.54 1048.38,-181.92"/>
</g>
<!-- testing&#45;&gt;path -->
<g id="edge26" class="edge">
<title>testing&#45;&gt;path</title>
<path fill="none" stroke="black" d="M1081.83,-215.96C1078.26,-186.97 1072.8,-144.74 1067,-108 1065.65,-99.46 1064.09,-90.36 1062.52,-81.63"/>
<polygon fill="black" stroke="black" points="1065.93,-80.82 1060.69,-71.61 1059.04,-82.08 1065.93,-80.82"/>
</g>
<!-- data_structures -->
<g id="node36" class="node">
<title>data_structures</title>
<ellipse fill="none" stroke="black" cx="1273" cy="-144" rx="69.48" ry="18"/>
<text text-anchor="middle" x="1273" y="-139.8" font-family="Times,serif" font-size="14.00">data_structures</text>
</g>
<!-- testing&#45;&gt;data_structures -->
<g id="edge30" class="edge">
<title>testing&#45;&gt;data_structures</title>
<path fill="none" stroke="black" d="M1117.3,-233.26C1150.23,-214.59 1201.99,-185.25 1236.69,-165.58"/>
<polygon fill="black" stroke="black" points="1238.59,-168.53 1245.56,-160.55 1235.13,-162.44 1238.59,-168.53"/>
</g>
<!-- text -->
<g id="node37" class="node">
<title>text</title>
<ellipse fill="lightgreen" stroke="black" cx="2417" cy="-360" rx="36" ry="36"/>
<text text-anchor="middle" x="2417" y="-355.8" font-family="Times,serif" font-size="14.00">text</text>
</g>
<!-- ulid -->
<g id="node38" class="node">
<title>ulid</title>
<ellipse fill="lightgreen" stroke="black" cx="2507" cy="-360" rx="36" ry="36"/>
<text text-anchor="middle" x="2507" y="-355.8" font-family="Times,serif" font-size="14.00">ulid</text>
</g>
<!-- url -->
<g id="node39" class="node">
<title>url</title>
<ellipse fill="lightgreen" stroke="black" cx="1150" cy="-144" rx="36" ry="36"/>
<text text-anchor="middle" x="1150" y="-139.8" font-family="Times,serif" font-size="14.00">url</text>
</g>
<!-- url&#45;&gt;path -->
<g id="edge33" class="edge">
<title>url&#45;&gt;path</title>
<path fill="none" stroke="black" d="M1126.27,-116.8C1113.69,-102.91 1098.1,-85.69 1084.62,-70.81"/>
<polygon fill="black" stroke="black" points="1087.1,-68.33 1077.79,-63.27 1081.91,-73.03 1087.1,-68.33"/>
</g>
<!-- uuid -->
<g id="node40" class="node">
<title>uuid</title>
<ellipse fill="lightgreen" stroke="black" cx="752" cy="-144" rx="36" ry="36"/>
<text text-anchor="middle" x="752" y="-139.8" font-family="Times,serif" font-size="14.00">uuid</text>
</g>
<!-- uuid&#45;&gt;bytes -->
<g id="edge34" class="edge">
<title>uuid&#45;&gt;bytes</title>
<path fill="none" stroke="black" d="M724.03,-121.04C703.39,-104.83 675.15,-82.66 652.85,-65.15"/>
<polygon fill="black" stroke="black" points="654.96,-62.36 644.94,-58.94 650.64,-67.86 654.96,-62.36"/>
</g>
<!-- uuid&#45;&gt;crypto -->
<g id="edge35" class="edge">
<title>uuid&#45;&gt;crypto</title>
<path fill="none" stroke="black" d="M752,-108C752,-99.85 752,-91.06 752,-82.54"/>
<polygon fill="black" stroke="black" points="755.5,-82.33 752,-72.33 748.5,-82.33 755.5,-82.33"/>
</g>
<!-- webgpu -->
<g id="node41" class="node">
<title>webgpu</title>
<ellipse fill="none" stroke="black" cx="2597" cy="-360" rx="36" ry="36"/>
<text text-anchor="middle" x="2597" y="-355.8" font-family="Times,serif" font-size="14.00">webgpu</text>
</g>
</g>
</svg>
