<?xml version="1.0" encoding="UTF-8" standalone="no"?>
<!DOCTYPE svg PUBLIC "-//W3C//DTD SVG 1.1//EN"
 "http://www.w3.org/Graphics/SVG/1.1/DTD/svg11.dtd">
<!-- Generated by graphviz version 2.44.0 (20200518.1210)
 -->
<!-- Title: std_deps Pages: 1 -->
<svg width="2277pt" height="710pt"
 viewBox="0.00 0.00 2276.50 710.00" xmlns="http://www.w3.org/2000/svg" xmlns:xlink="http://www.w3.org/1999/xlink">
<g id="graph0" class="graph" transform="scale(1 1) rotate(0) translate(4 706)">
<title>std_deps</title>
<polygon fill="white" stroke="transparent" points="-4,4 -4,-706 2272.5,-706 2272.5,4 -4,4"/>
<!-- archive -->
<g id="node1" class="node">
<title>archive</title>
<polygon fill="pink" stroke="black" points="552.2,-430.5 494.8,-430.5 494.8,-394.5 552.2,-394.5 552.2,-430.5"/>
<text text-anchor="middle" x="523.5" y="-408.3" font-family="Times,serif" font-size="14.00">archive</text>
</g>
<!-- io -->
<g id="node2" class="node">
<title>io</title>
<polygon fill="pink" stroke="black" points="436.5,-307.5 382.5,-307.5 382.5,-271.5 436.5,-271.5 436.5,-307.5"/>
<text text-anchor="middle" x="409.5" y="-285.3" font-family="Times,serif" font-size="14.00">io</text>
</g>
<!-- archive&#45;&gt;io -->
<g id="edge1" class="edge">
<title>archive&#45;&gt;io</title>
<path fill="none" stroke="black" d="M508.75,-394.15C501.87,-386.29 493.47,-376.99 485.5,-369 468.62,-352.06 462.16,-350.16 445.5,-333 440.13,-327.47 434.61,-321.26 429.56,-315.33"/>
<polygon fill="black" stroke="black" points="432.12,-312.93 423.02,-307.51 426.75,-317.42 432.12,-312.93"/>
</g>
<!-- assert -->
<g id="node3" class="node">
<title>assert</title>
<ellipse fill="none" stroke="black" cx="759.5" cy="-166.5" rx="39.5" ry="39.5"/>
<ellipse fill="none" stroke="black" cx="759.5" cy="-166.5" rx="43.5" ry="43.5"/>
<text text-anchor="middle" x="759.5" y="-162.3" font-family="Times,serif" font-size="14.00">assert</text>
</g>
<!-- archive&#45;&gt;assert -->
<g id="edge2" class="edge">
<title>archive&#45;&gt;assert</title>
<path fill="none" stroke="black" d="M523.17,-394.45C523.45,-361.65 528.65,-289.21 566.5,-246 602.43,-204.98 662.97,-185.05 706.68,-175.59"/>
<polygon fill="black" stroke="black" points="707.47,-179 716.57,-173.57 706.07,-172.15 707.47,-179"/>
</g>
<!-- io&#45;&gt;assert -->
<g id="edge24" class="edge">
<title>io&#45;&gt;assert</title>
<path fill="none" stroke="black" d="M420.22,-271.31C426.55,-262.5 435.32,-252.33 445.5,-246 527.14,-195.22 639.91,-177.25 705.73,-170.92"/>
<polygon fill="black" stroke="black" points="706.24,-174.39 715.88,-170 705.61,-167.42 706.24,-174.39"/>
</g>
<!-- bytes -->
<g id="node6" class="node">
<title>bytes</title>
<ellipse fill="none" stroke="black" cx="140.5" cy="-166.5" rx="39.5" ry="39.5"/>
<ellipse fill="none" stroke="black" cx="140.5" cy="-166.5" rx="43.5" ry="43.5"/>
<text text-anchor="middle" x="140.5" y="-162.3" font-family="Times,serif" font-size="14.00">bytes</text>
</g>
<!-- io&#45;&gt;bytes -->
<g id="edge25" class="edge">
<title>io&#45;&gt;bytes</title>
<path fill="none" stroke="black" d="M382.48,-276.34C337.39,-256.06 246.19,-215.04 189.53,-189.55"/>
<polygon fill="black" stroke="black" points="190.62,-186.2 180.06,-185.29 187.74,-192.59 190.62,-186.2"/>
</g>
<!-- internal -->
<g id="node4" class="node">
<title>internal</title>
<ellipse fill="none" stroke="black" cx="973.5" cy="-43.5" rx="39.5" ry="39.5"/>
<ellipse fill="none" stroke="black" cx="973.5" cy="-43.5" rx="43.5" ry="43.5"/>
<text text-anchor="middle" x="973.5" y="-39.3" font-family="Times,serif" font-size="14.00">internal</text>
</g>
<!-- assert&#45;&gt;internal -->
<g id="edge3" class="edge">
<title>assert&#45;&gt;internal</title>
<path fill="none" stroke="black" d="M797.27,-144.15C833.37,-123.73 887.9,-92.9 926.73,-70.94"/>
<polygon fill="black" stroke="black" points="928.77,-73.81 935.75,-65.84 925.32,-67.72 928.77,-73.81"/>
</g>
<!-- async -->
<g id="node5" class="node">
<title>async</title>
<ellipse fill="none" stroke="black" cx="804.5" cy="-412.5" rx="39.5" ry="39.5"/>
<ellipse fill="none" stroke="black" cx="804.5" cy="-412.5" rx="43.5" ry="43.5"/>
<text text-anchor="middle" x="804.5" y="-408.3" font-family="Times,serif" font-size="14.00">async</text>
</g>
<!-- async&#45;&gt;assert -->
<g id="edge4" class="edge">
<title>async&#45;&gt;assert</title>
<path fill="none" stroke="black" d="M796.76,-369.55C789.12,-328.09 777.4,-264.54 769.15,-219.81"/>
<polygon fill="black" stroke="black" points="772.54,-218.91 767.29,-209.71 765.66,-220.18 772.54,-218.91"/>
</g>
<!-- cli -->
<g id="node7" class="node">
<title>cli</title>
<polygon fill="pink" stroke="black" points="683.5,-307.5 629.5,-307.5 629.5,-271.5 683.5,-271.5 683.5,-307.5"/>
<text text-anchor="middle" x="656.5" y="-285.3" font-family="Times,serif" font-size="14.00">cli</text>
</g>
<!-- cli&#45;&gt;assert -->
<g id="edge5" class="edge">
<title>cli&#45;&gt;assert</title>
<path fill="none" stroke="black" d="M671.04,-271.42C684.97,-255.06 706.52,-229.74 724.86,-208.19"/>
<polygon fill="black" stroke="black" points="727.63,-210.33 731.45,-200.45 722.3,-205.8 727.63,-210.33"/>
</g>
<!-- collections -->
<g id="node8" class="node">
<title>collections</title>
<ellipse fill="none" stroke="black" cx="1462.5" cy="-412.5" rx="39.5" ry="39.5"/>
<ellipse fill="none" stroke="black" cx="1462.5" cy="-412.5" rx="43.5" ry="43.5"/>
<text text-anchor="middle" x="1462.5" y="-408.3" font-family="Times,serif" font-size="14.00">collections</text>
</g>
<!-- crypto -->
<g id="node9" class="node">
<title>crypto</title>
<ellipse fill="none" stroke="black" cx="79.5" cy="-535.5" rx="39.5" ry="39.5"/>
<ellipse fill="none" stroke="black" cx="79.5" cy="-535.5" rx="43.5" ry="43.5"/>
<text text-anchor="middle" x="79.5" y="-531.3" font-family="Times,serif" font-size="14.00">crypto</text>
</g>
<!-- encoding -->
<g id="node10" class="node">
<title>encoding</title>
<ellipse fill="none" stroke="black" cx="79.5" cy="-412.5" rx="39.5" ry="39.5"/>
<ellipse fill="none" stroke="black" cx="79.5" cy="-412.5" rx="43.5" ry="43.5"/>
<text text-anchor="middle" x="79.5" y="-408.3" font-family="Times,serif" font-size="14.00">encoding</text>
</g>
<!-- crypto&#45;&gt;encoding -->
<g id="edge6" class="edge">
<title>crypto&#45;&gt;encoding</title>
<path fill="none" stroke="black" d="M79.5,-491.84C79.5,-483.62 79.5,-474.91 79.5,-466.41"/>
<polygon fill="black" stroke="black" points="83,-466.18 79.5,-456.18 76,-466.18 83,-466.18"/>
</g>
<!-- csv -->
<g id="node11" class="node">
<title>csv</title>
<ellipse fill="none" stroke="black" cx="203.5" cy="-535.5" rx="39.5" ry="39.5"/>
<ellipse fill="none" stroke="black" cx="203.5" cy="-535.5" rx="43.5" ry="43.5"/>
<text text-anchor="middle" x="203.5" y="-531.3" font-family="Times,serif" font-size="14.00">csv</text>
</g>
<!-- csv&#45;&gt;assert -->
<g id="edge7" class="edge">
<title>csv&#45;&gt;assert</title>
<path fill="none" stroke="black" d="M184.33,-496.43C169.82,-462.26 154.84,-411.16 170.5,-369 195.63,-301.35 213.53,-281.25 276.5,-246 349.48,-205.15 595.92,-180.7 705.83,-171.59"/>
<polygon fill="black" stroke="black" points="706.34,-175.06 716.02,-170.75 705.77,-168.08 706.34,-175.06"/>
</g>
<!-- streams -->
<g id="node12" class="node">
<title>streams</title>
<ellipse fill="none" stroke="black" cx="223.5" cy="-412.5" rx="39.5" ry="39.5"/>
<ellipse fill="none" stroke="black" cx="223.5" cy="-412.5" rx="43.5" ry="43.5"/>
<text text-anchor="middle" x="223.5" y="-408.3" font-family="Times,serif" font-size="14.00">streams</text>
</g>
<!-- csv&#45;&gt;streams -->
<g id="edge8" class="edge">
<title>csv&#45;&gt;streams</title>
<path fill="none" stroke="black" d="M210.44,-492.52C211.87,-483.89 213.38,-474.7 214.86,-465.76"/>
<polygon fill="black" stroke="black" points="218.33,-466.25 216.51,-455.82 211.42,-465.11 218.33,-466.25"/>
</g>
<!-- streams&#45;&gt;io -->
<g id="edge37" class="edge">
<title>streams&#45;&gt;io</title>
<path fill="none" stroke="black" d="M256.19,-383.5C262.47,-378.5 269.09,-373.46 275.5,-369 307.42,-346.81 345.9,-324.71 373.42,-309.64"/>
<polygon fill="black" stroke="black" points="375.19,-312.66 382.3,-304.81 371.85,-306.51 375.19,-312.66"/>
</g>
<!-- streams&#45;&gt;assert -->
<g id="edge35" class="edge">
<title>streams&#45;&gt;assert</title>
<path fill="none" stroke="black" d="M246.04,-375.28C271.94,-336.9 318.06,-277.56 373.5,-246 480.43,-185.12 627.72,-171.04 705.82,-168.05"/>
<polygon fill="black" stroke="black" points="706.04,-171.54 715.91,-167.71 705.8,-164.55 706.04,-171.54"/>
</g>
<!-- streams&#45;&gt;bytes -->
<g id="edge36" class="edge">
<title>streams&#45;&gt;bytes</title>
<path fill="none" stroke="black" d="M209.79,-371.21C195.47,-329.09 172.96,-262.92 157.51,-217.5"/>
<polygon fill="black" stroke="black" points="160.76,-216.19 154.23,-207.85 154.13,-218.45 160.76,-216.19"/>
</g>
<!-- data_\nstructures -->
<g id="node13" class="node">
<title>data_\nstructures</title>
<polygon fill="pink" stroke="black" points="1646.92,-679.1 1576.08,-679.1 1576.08,-637.9 1646.92,-637.9 1646.92,-679.1"/>
<text text-anchor="middle" x="1611.5" y="-662.7" font-family="Times,serif" font-size="14.00">data_</text>
<text text-anchor="middle" x="1611.5" y="-645.9" font-family="Times,serif" font-size="14.00">structures</text>
</g>
<!-- datetime -->
<g id="node14" class="node">
<title>datetime</title>
<polygon fill="pink" stroke="black" points="1728.71,-676.5 1664.29,-676.5 1664.29,-640.5 1728.71,-640.5 1728.71,-676.5"/>
<text text-anchor="middle" x="1696.5" y="-654.3" font-family="Times,serif" font-size="14.00">datetime</text>
</g>
<!-- dotenv -->
<g id="node15" class="node">
<title>dotenv</title>
<polygon fill="pink" stroke="black" points="1800.61,-676.5 1746.39,-676.5 1746.39,-640.5 1800.61,-640.5 1800.61,-676.5"/>
<text text-anchor="middle" x="1773.5" y="-654.3" font-family="Times,serif" font-size="14.00">dotenv</text>
</g>
<!-- expect -->
<g id="node16" class="node">
<title>expect</title>
<polygon fill="pink" stroke="black" points="1544.5,-307.5 1490.5,-307.5 1490.5,-271.5 1544.5,-271.5 1544.5,-307.5"/>
<text text-anchor="middle" x="1517.5" y="-285.3" font-family="Times,serif" font-size="14.00">expect</text>
</g>
<!-- expect&#45;&gt;assert -->
<g id="edge9" class="edge">
<title>expect&#45;&gt;assert</title>
<path fill="none" stroke="black" d="M1507.4,-271.17C1501.15,-262.1 1492.26,-251.71 1481.5,-246 1474.08,-242.06 978.43,-190.26 812.76,-173.03"/>
<polygon fill="black" stroke="black" points="813.11,-169.54 802.8,-171.99 812.38,-176.51 813.11,-169.54"/>
</g>
<!-- expect&#45;&gt;internal -->
<g id="edge10" class="edge">
<title>expect&#45;&gt;internal</title>
<path fill="none" stroke="black" d="M1506.11,-271.41C1499.71,-262.86 1491.08,-252.88 1481.5,-246 1333.94,-140.03 1122.93,-79.86 1025.93,-56.25"/>
<polygon fill="black" stroke="black" points="1026.61,-52.82 1016.07,-53.89 1024.97,-59.62 1026.61,-52.82"/>
</g>
<!-- fmt -->
<g id="node17" class="node">
<title>fmt</title>
<ellipse fill="none" stroke="black" cx="909.5" cy="-412.5" rx="39.5" ry="39.5"/>
<ellipse fill="none" stroke="black" cx="909.5" cy="-412.5" rx="43.5" ry="43.5"/>
<text text-anchor="middle" x="909.5" y="-408.3" font-family="Times,serif" font-size="14.00">fmt</text>
</g>
<!-- front_\nmatter -->
<g id="node18" class="node">
<title>front_\nmatter</title>
<ellipse fill="none" stroke="black" cx="1514.5" cy="-658.5" rx="39.5" ry="39.5"/>
<ellipse fill="none" stroke="black" cx="1514.5" cy="-658.5" rx="43.5" ry="43.5"/>
<text text-anchor="middle" x="1514.5" y="-662.7" font-family="Times,serif" font-size="14.00">front_</text>
<text text-anchor="middle" x="1514.5" y="-645.9" font-family="Times,serif" font-size="14.00">matter</text>
</g>
<!-- toml -->
<g id="node19" class="node">
<title>toml</title>
<ellipse fill="none" stroke="black" cx="1462.5" cy="-535.5" rx="39.5" ry="39.5"/>
<ellipse fill="none" stroke="black" cx="1462.5" cy="-535.5" rx="43.5" ry="43.5"/>
<text text-anchor="middle" x="1462.5" y="-531.3" font-family="Times,serif" font-size="14.00">toml</text>
</g>
<!-- front_\nmatter&#45;&gt;toml -->
<g id="edge11" class="edge">
<title>front_\nmatter&#45;&gt;toml</title>
<path fill="none" stroke="black" d="M1497.62,-618.21C1493.12,-607.75 1488.21,-596.32 1483.52,-585.42"/>
<polygon fill="black" stroke="black" points="1486.64,-583.81 1479.48,-576 1480.21,-586.57 1486.64,-583.81"/>
</g>
<!-- yaml -->
<g id="node20" class="node">
<title>yaml</title>
<ellipse fill="none" stroke="black" cx="1567.5" cy="-535.5" rx="39.5" ry="39.5"/>
<ellipse fill="none" stroke="black" cx="1567.5" cy="-535.5" rx="43.5" ry="43.5"/>
<text text-anchor="middle" x="1567.5" y="-531.3" font-family="Times,serif" font-size="14.00">yaml</text>
</g>
<!-- front_\nmatter&#45;&gt;yaml -->
<g id="edge12" class="edge">
<title>front_\nmatter&#45;&gt;yaml</title>
<path fill="none" stroke="black" d="M1531.71,-618.21C1536.38,-607.54 1541.5,-595.86 1546.37,-584.75"/>
<polygon fill="black" stroke="black" points="1549.57,-586.15 1550.38,-575.59 1543.16,-583.34 1549.57,-586.15"/>
</g>
<!-- toml&#45;&gt;collections -->
<g id="edge45" class="edge">
<title>toml&#45;&gt;collections</title>
<path fill="none" stroke="black" d="M1462.5,-491.84C1462.5,-483.62 1462.5,-474.91 1462.5,-466.41"/>
<polygon fill="black" stroke="black" points="1466,-466.18 1462.5,-456.18 1459,-466.18 1466,-466.18"/>
</g>
<!-- fs -->
<g id="node21" class="node">
<title>fs</title>
<ellipse fill="none" stroke="black" cx="1014.5" cy="-412.5" rx="39.5" ry="39.5"/>
<ellipse fill="none" stroke="black" cx="1014.5" cy="-412.5" rx="43.5" ry="43.5"/>
<text text-anchor="middle" x="1014.5" y="-408.3" font-family="Times,serif" font-size="14.00">fs</text>
</g>
<!-- fs&#45;&gt;assert -->
<g id="edge14" class="edge">
<title>fs&#45;&gt;assert</title>
<path fill="none" stroke="black" d="M983.49,-381.82C936.9,-337.25 848.93,-253.07 798.2,-204.53"/>
<polygon fill="black" stroke="black" points="800.34,-201.73 790.7,-197.35 795.5,-206.79 800.34,-201.73"/>
</g>
<!-- path -->
<g id="node22" class="node">
<title>path</title>
<ellipse fill="none" stroke="black" cx="1014.5" cy="-289.5" rx="39.5" ry="39.5"/>
<ellipse fill="none" stroke="black" cx="1014.5" cy="-289.5" rx="43.5" ry="43.5"/>
<text text-anchor="middle" x="1014.5" y="-285.3" font-family="Times,serif" font-size="14.00">path</text>
</g>
<!-- fs&#45;&gt;path -->
<g id="edge13" class="edge">
<title>fs&#45;&gt;path</title>
<path fill="none" stroke="black" d="M1014.5,-368.84C1014.5,-360.62 1014.5,-351.91 1014.5,-343.41"/>
<polygon fill="black" stroke="black" points="1018,-343.18 1014.5,-333.18 1011,-343.18 1018,-343.18"/>
</g>
<!-- path&#45;&gt;assert -->
<g id="edge34" class="edge">
<title>path&#45;&gt;assert</title>
<path fill="none" stroke="black" d="M975.49,-269.99C930.41,-248.6 856.18,-213.38 807.57,-190.31"/>
<polygon fill="black" stroke="black" points="809.04,-187.13 798.5,-186.01 806.04,-193.46 809.04,-187.13"/>
</g>
<!-- html -->
<g id="node23" class="node">
<title>html</title>
<polygon fill="pink" stroke="black" points="1872.5,-676.5 1818.5,-676.5 1818.5,-640.5 1872.5,-640.5 1872.5,-676.5"/>
<text text-anchor="middle" x="1845.5" y="-654.3" font-family="Times,serif" font-size="14.00">html</text>
</g>
<!-- http -->
<g id="node24" class="node">
<title>http</title>
<polygon fill="pink" stroke="black" points="607.5,-553.5 553.5,-553.5 553.5,-517.5 607.5,-517.5 607.5,-553.5"/>
<text text-anchor="middle" x="580.5" y="-531.3" font-family="Times,serif" font-size="14.00">http</text>
</g>
<!-- http&#45;&gt;assert -->
<g id="edge15" class="edge">
<title>http&#45;&gt;assert</title>
<path fill="none" stroke="black" d="M577.93,-517.35C571.71,-469.55 560.54,-332.72 620.5,-246 641.41,-215.76 677.97,-195.79 708.34,-183.55"/>
<polygon fill="black" stroke="black" points="709.89,-186.71 717.96,-179.85 707.37,-180.18 709.89,-186.71"/>
</g>
<!-- http&#45;&gt;async -->
<g id="edge17" class="edge">
<title>http&#45;&gt;async</title>
<path fill="none" stroke="black" d="M607.52,-519.9C644.64,-499.85 711.98,-463.48 757.47,-438.91"/>
<polygon fill="black" stroke="black" points="759.4,-441.84 766.54,-434.01 756.08,-435.68 759.4,-441.84"/>
</g>
<!-- http&#45;&gt;cli -->
<g id="edge21" class="edge">
<title>http&#45;&gt;cli</title>
<path fill="none" stroke="black" d="M585.84,-517.34C598.9,-475.43 632.49,-367.59 648.18,-317.2"/>
<polygon fill="black" stroke="black" points="651.53,-318.23 651.16,-307.64 644.85,-316.15 651.53,-318.23"/>
</g>
<!-- http&#45;&gt;encoding -->
<g id="edge16" class="edge">
<title>http&#45;&gt;encoding</title>
<path fill="none" stroke="black" d="M553.25,-523.83C527.43,-514.13 487.38,-500.13 451.5,-492 328.7,-464.17 291.43,-491.06 170.5,-456 155.8,-451.74 140.49,-445.41 126.71,-438.92"/>
<polygon fill="black" stroke="black" points="127.97,-435.64 117.44,-434.43 124.92,-441.94 127.97,-435.64"/>
</g>
<!-- http&#45;&gt;streams -->
<g id="edge20" class="edge">
<title>http&#45;&gt;streams</title>
<path fill="none" stroke="black" d="M553.1,-524.44C527.17,-515.17 487.05,-501.46 451.5,-492 374.34,-471.47 347.62,-490.26 275.5,-456 271.36,-454.03 267.26,-451.67 263.3,-449.07"/>
<polygon fill="black" stroke="black" points="265.04,-446.02 254.86,-443.09 260.99,-451.73 265.04,-446.02"/>
</g>
<!-- http&#45;&gt;fmt -->
<g id="edge22" class="edge">
<title>http&#45;&gt;fmt</title>
<path fill="none" stroke="black" d="M607.69,-530.46C658.75,-522.09 771.51,-499.87 856.5,-456 860.79,-453.78 865.07,-451.19 869.23,-448.39"/>
<polygon fill="black" stroke="black" points="871.46,-451.1 877.55,-442.43 867.38,-445.41 871.46,-451.1"/>
</g>
<!-- http&#45;&gt;path -->
<g id="edge18" class="edge">
<title>http&#45;&gt;path</title>
<path fill="none" stroke="black" d="M593.36,-517.46C619.47,-484.04 682.15,-409.59 751.5,-369 818.28,-329.91 906.17,-308.83 961.51,-298.63"/>
<polygon fill="black" stroke="black" points="962.23,-302.06 971.45,-296.85 960.99,-295.17 962.23,-302.06"/>
</g>
<!-- media_types -->
<g id="node25" class="node">
<title>media_types</title>
<ellipse fill="none" stroke="black" cx="344.5" cy="-412.5" rx="59.69" ry="18"/>
<text text-anchor="middle" x="344.5" y="-408.3" font-family="Times,serif" font-size="14.00">media_types</text>
</g>
<!-- http&#45;&gt;media_types -->
<g id="edge19" class="edge">
<title>http&#45;&gt;media_types</title>
<path fill="none" stroke="black" d="M553.43,-522.9C520.01,-508.33 461.69,-482.06 413.5,-456 401.39,-449.45 388.46,-441.7 377.1,-434.62"/>
<polygon fill="black" stroke="black" points="378.7,-431.5 368.38,-429.13 374.97,-437.42 378.7,-431.5"/>
</g>
<!-- net -->
<g id="node26" class="node">
<title>net</title>
<polygon fill="pink" stroke="black" points="476.5,-430.5 422.5,-430.5 422.5,-394.5 476.5,-394.5 476.5,-430.5"/>
<text text-anchor="middle" x="449.5" y="-408.3" font-family="Times,serif" font-size="14.00">net</text>
</g>
<!-- http&#45;&gt;net -->
<g id="edge23" class="edge">
<title>http&#45;&gt;net</title>
<path fill="none" stroke="black" d="M557.66,-517.48C537.79,-502.24 508.64,-478.85 485.5,-456 480.01,-450.58 474.45,-444.41 469.39,-438.49"/>
<polygon fill="black" stroke="black" points="471.96,-436.1 462.86,-430.66 466.58,-440.58 471.96,-436.1"/>
</g>
<!-- ini -->
<g id="node27" class="node">
<title>ini</title>
<polygon fill="pink" stroke="black" points="1944.5,-676.5 1890.5,-676.5 1890.5,-640.5 1944.5,-640.5 1944.5,-676.5"/>
<text text-anchor="middle" x="1917.5" y="-654.3" font-family="Times,serif" font-size="14.00">ini</text>
</g>
<!-- json -->
<g id="node28" class="node">
<title>json</title>
<ellipse fill="none" stroke="black" cx="399.5" cy="-535.5" rx="39.5" ry="39.5"/>
<ellipse fill="none" stroke="black" cx="399.5" cy="-535.5" rx="43.5" ry="43.5"/>
<text text-anchor="middle" x="399.5" y="-531.3" font-family="Times,serif" font-size="14.00">json</text>
</g>
<!-- json&#45;&gt;streams -->
<g id="edge26" class="edge">
<title>json&#45;&gt;streams</title>
<path fill="none" stroke="black" d="M362.38,-512.62C337.33,-497.46 303.81,-476.42 275.5,-456 271.84,-453.36 268.09,-450.54 264.37,-447.67"/>
<polygon fill="black" stroke="black" points="266.34,-444.76 256.32,-441.32 262.01,-450.26 266.34,-444.76"/>
</g>
<!-- jsonc -->
<g id="node29" class="node">
<title>jsonc</title>
<ellipse fill="none" stroke="black" cx="878.5" cy="-658.5" rx="39.5" ry="39.5"/>
<ellipse fill="none" stroke="black" cx="878.5" cy="-658.5" rx="43.5" ry="43.5"/>
<text text-anchor="middle" x="878.5" y="-654.3" font-family="Times,serif" font-size="14.00">jsonc</text>
</g>
<!-- jsonc&#45;&gt;assert -->
<g id="edge27" class="edge">
<title>jsonc&#45;&gt;assert</title>
<path fill="none" stroke="black" d="M921.79,-650.66C979.8,-640.42 1085.01,-618 1167.5,-579 1252.79,-538.68 1297.24,-539.84 1340.5,-456 1358.23,-421.64 1352.11,-405.88 1340.5,-369 1320.46,-305.38 1311.05,-281.37 1254.5,-246 1181.53,-200.36 925.75,-178.38 813.27,-170.75"/>
<polygon fill="black" stroke="black" points="813.37,-167.25 803.16,-170.08 812.91,-174.23 813.37,-167.25"/>
</g>
<!-- jsonc&#45;&gt;json -->
<g id="edge28" class="edge">
<title>jsonc&#45;&gt;json</title>
<path fill="none" stroke="black" d="M836.14,-648.32C772.55,-634.36 648.75,-606.51 544.5,-579 513.21,-570.74 478.41,-560.58 450.75,-552.26"/>
<polygon fill="black" stroke="black" points="451.48,-548.82 440.9,-549.28 449.46,-555.52 451.48,-548.82"/>
</g>
<!-- log -->
<g id="node30" class="node">
<title>log</title>
<polygon fill="pink" stroke="black" points="847.5,-553.5 793.5,-553.5 793.5,-517.5 847.5,-517.5 847.5,-553.5"/>
<text text-anchor="middle" x="820.5" y="-531.3" font-family="Times,serif" font-size="14.00">log</text>
</g>
<!-- log&#45;&gt;io -->
<g id="edge30" class="edge">
<title>log&#45;&gt;io</title>
<path fill="none" stroke="black" d="M798.47,-517.5C755.2,-484.79 655.15,-412.49 561.5,-369 512.54,-346.26 490.52,-362.78 445.5,-333 438.58,-328.42 432.26,-322.14 426.91,-315.81"/>
<polygon fill="black" stroke="black" points="429.61,-313.59 420.68,-307.89 424.11,-317.92 429.61,-313.59"/>
</g>
<!-- log&#45;&gt;assert -->
<g id="edge32" class="edge">
<title>log&#45;&gt;assert</title>
<path fill="none" stroke="black" d="M798.74,-517.5C782.26,-503.14 760.91,-480.96 751.5,-456 721.84,-377.33 734.5,-277.85 746.74,-218.63"/>
<polygon fill="black" stroke="black" points="750.18,-219.28 748.85,-208.77 743.34,-217.81 750.18,-219.28"/>
</g>
<!-- log&#45;&gt;fmt -->
<g id="edge29" class="edge">
<title>log&#45;&gt;fmt</title>
<path fill="none" stroke="black" d="M833.06,-517.42C844.74,-501.55 862.61,-477.25 878.14,-456.14"/>
<polygon fill="black" stroke="black" points="881.07,-458.05 884.18,-447.92 875.44,-453.91 881.07,-458.05"/>
</g>
<!-- log&#45;&gt;fs -->
<g id="edge31" class="edge">
<title>log&#45;&gt;fs</title>
<path fill="none" stroke="black" d="M847.53,-521.17C876.51,-506.49 923.49,-481.56 961.5,-456 965.45,-453.34 969.48,-450.47 973.45,-447.51"/>
<polygon fill="black" stroke="black" points="975.68,-450.21 981.5,-441.36 971.43,-444.65 975.68,-450.21"/>
</g>
<!-- media_\ntypes -->
<g id="node31" class="node">
<title>media_\ntypes</title>
<ellipse fill="none" stroke="black" cx="2006.5" cy="-658.5" rx="39.5" ry="39.5"/>
<ellipse fill="none" stroke="black" cx="2006.5" cy="-658.5" rx="43.5" ry="43.5"/>
<text text-anchor="middle" x="2006.5" y="-662.7" font-family="Times,serif" font-size="14.00">media_</text>
<text text-anchor="middle" x="2006.5" y="-645.9" font-family="Times,serif" font-size="14.00">types</text>
</g>
<!-- msgpack -->
<g id="node32" class="node">
<title>msgpack</title>
<polygon fill="pink" stroke="black" points="123.26,-307.5 57.74,-307.5 57.74,-271.5 123.26,-271.5 123.26,-307.5"/>
<text text-anchor="middle" x="90.5" y="-285.3" font-family="Times,serif" font-size="14.00">msgpack</text>
</g>
<!-- msgpack&#45;&gt;bytes -->
<g id="edge33" class="edge">
<title>msgpack&#45;&gt;bytes</title>
<path fill="none" stroke="black" d="M97.56,-271.42C103.48,-257.09 112.24,-235.89 120.31,-216.36"/>
<polygon fill="black" stroke="black" points="123.61,-217.53 124.2,-206.95 117.14,-214.86 123.61,-217.53"/>
</g>
<!-- regexp -->
<g id="node33" class="node">
<title>regexp</title>
<polygon fill="pink" stroke="black" points="2122.59,-676.5 2068.41,-676.5 2068.41,-640.5 2122.59,-640.5 2122.59,-676.5"/>
<text text-anchor="middle" x="2095.5" y="-654.3" font-family="Times,serif" font-size="14.00">regexp</text>
</g>
<!-- semver -->
<g id="node34" class="node">
<title>semver</title>
<polygon fill="pink" stroke="black" points="2196.93,-676.5 2140.07,-676.5 2140.07,-640.5 2196.93,-640.5 2196.93,-676.5"/>
<text text-anchor="middle" x="2168.5" y="-654.3" font-family="Times,serif" font-size="14.00">semver</text>
</g>
<!-- testing -->
<g id="node35" class="node">
<title>testing</title>
<ellipse fill="none" stroke="black" cx="1115.5" cy="-535.5" rx="39.5" ry="39.5"/>
<ellipse fill="none" stroke="black" cx="1115.5" cy="-535.5" rx="43.5" ry="43.5"/>
<text text-anchor="middle" x="1115.5" y="-531.3" font-family="Times,serif" font-size="14.00">testing</text>
</g>
<!-- testing&#45;&gt;assert -->
<g id="edge38" class="edge">
<title>testing&#45;&gt;assert</title>
<path fill="none" stroke="black" d="M1159.11,-531.51C1207.31,-525.6 1282.82,-508.05 1318.5,-456 1340.36,-424.11 1338.99,-401.79 1318.5,-369 1209.48,-194.47 930.95,-169.59 813.27,-167.11"/>
<polygon fill="black" stroke="black" points="813.12,-163.6 803.06,-166.94 813.01,-170.6 813.12,-163.6"/>
</g>
<!-- testing&#45;&gt;async -->
<g id="edge43" class="edge">
<title>testing&#45;&gt;async</title>
<path fill="none" stroke="black" d="M1072.72,-526.88C1019.68,-516.25 927.61,-493.9 856.5,-456 852.46,-453.84 848.43,-451.35 844.5,-448.67"/>
<polygon fill="black" stroke="black" points="846.27,-445.62 836.12,-442.56 842.15,-451.28 846.27,-445.62"/>
</g>
<!-- testing&#45;&gt;fmt -->
<g id="edge41" class="edge">
<title>testing&#45;&gt;fmt</title>
<path fill="none" stroke="black" d="M1075.93,-517.19C1044.04,-502.57 998.57,-480.19 961.5,-456 957.72,-453.53 953.89,-450.84 950.12,-448.04"/>
<polygon fill="black" stroke="black" points="952.05,-445.11 941.98,-441.81 947.79,-450.67 952.05,-445.11"/>
</g>
<!-- testing&#45;&gt;fs -->
<g id="edge40" class="edge">
<title>testing&#45;&gt;fs</title>
<path fill="none" stroke="black" d="M1087.9,-501.44C1075.77,-486.9 1061.39,-469.68 1048.59,-454.34"/>
<polygon fill="black" stroke="black" points="1051.16,-451.96 1042.07,-446.52 1045.79,-456.44 1051.16,-451.96"/>
</g>
<!-- testing&#45;&gt;path -->
<g id="edge39" class="edge">
<title>testing&#45;&gt;path</title>
<path fill="none" stroke="black" d="M1158.64,-529.14C1201.59,-521.25 1265.34,-502.06 1295.5,-456 1316.68,-423.65 1318.88,-399.8 1295.5,-369 1268.05,-332.82 1141.18,-308.81 1067.65,-297.67"/>
<polygon fill="black" stroke="black" points="1068.04,-294.19 1057.64,-296.19 1067.02,-301.12 1068.04,-294.19"/>
</g>
<!-- data_structures -->
<g id="node36" class="node">
<title>data_structures</title>
<ellipse fill="none" stroke="black" cx="1217.5" cy="-412.5" rx="69.48" ry="18"/>
<text text-anchor="middle" x="1217.5" y="-408.3" font-family="Times,serif" font-size="14.00">data_structures</text>
</g>
<!-- testing&#45;&gt;data_structures -->
<g id="edge42" class="edge">
<title>testing&#45;&gt;data_structures</title>
<path fill="none" stroke="black" d="M1143.1,-501.76C1159.99,-481.73 1181.24,-456.52 1196.7,-438.17"/>
<polygon fill="black" stroke="black" points="1199.59,-440.17 1203.36,-430.27 1194.24,-435.66 1199.59,-440.17"/>
</g>
<!-- text -->
<g id="node37" class="node">
<title>text</title>
<polygon fill="pink" stroke="black" points="1472.5,-307.5 1418.5,-307.5 1418.5,-271.5 1472.5,-271.5 1472.5,-307.5"/>
<text text-anchor="middle" x="1445.5" y="-285.3" font-family="Times,serif" font-size="14.00">text</text>
</g>
<!-- text&#45;&gt;assert -->
<g id="edge44" class="edge">
<title>text&#45;&gt;assert</title>
<path fill="none" stroke="black" d="M1433.46,-271.21C1426.18,-262.15 1416.06,-251.76 1404.5,-246 1378.06,-232.83 963.04,-188.65 813.05,-173.03"/>
<polygon fill="black" stroke="black" points="813.03,-169.51 802.72,-171.96 812.31,-176.47 813.03,-169.51"/>
</g>
<!-- ulid -->
<g id="node38" class="node">
<title>ulid</title>
<polygon fill="pink" stroke="black" points="2268.5,-676.5 2214.5,-676.5 2214.5,-640.5 2268.5,-640.5 2268.5,-676.5"/>
<text text-anchor="middle" x="2241.5" y="-654.3" font-family="Times,serif" font-size="14.00">ulid</text>
</g>
<!-- url -->
<g id="node39" class="node">
<title>url</title>
<polygon fill="pink" stroke="black" points="1130.5,-430.5 1076.5,-430.5 1076.5,-394.5 1130.5,-394.5 1130.5,-430.5"/>
<text text-anchor="middle" x="1103.5" y="-408.3" font-family="Times,serif" font-size="14.00">url</text>
</g>
<!-- url&#45;&gt;path -->
<g id="edge46" class="edge">
<title>url&#45;&gt;path</title>
<path fill="none" stroke="black" d="M1090.94,-394.42C1079.26,-378.55 1061.39,-354.25 1045.86,-333.14"/>
<polygon fill="black" stroke="black" points="1048.56,-330.91 1039.82,-324.92 1042.93,-335.05 1048.56,-330.91"/>
</g>
<!-- uuid -->
<g id="node40" class="node">
<title>uuid</title>
<ellipse fill="none" stroke="black" cx="43.5" cy="-658.5" rx="39.5" ry="39.5"/>
<ellipse fill="none" stroke="black" cx="43.5" cy="-658.5" rx="43.5" ry="43.5"/>
<text text-anchor="middle" x="43.5" y="-654.3" font-family="Times,serif" font-size="14.00">uuid</text>
</g>
<!-- uuid&#45;&gt;bytes -->
<g id="edge47" class="edge">
<title>uuid&#45;&gt;bytes</title>
<path fill="none" stroke="black" d="M31.72,-616.43C11.81,-538.31 -20.01,-365.46 48.5,-246 59.81,-226.28 78.01,-209.2 95.25,-196.05"/>
<polygon fill="black" stroke="black" points="97.61,-198.66 103.6,-189.92 93.47,-193.01 97.61,-198.66"/>
</g>
<!-- uuid&#45;&gt;crypto -->
<g id="edge48" class="edge">
<title>uuid&#45;&gt;crypto</title>
<path fill="none" stroke="black" d="M55.69,-616.53C58.5,-607.07 61.53,-596.9 64.45,-587.08"/>
<polygon fill="black" stroke="black" points="67.83,-588.01 67.32,-577.42 61.12,-586.01 67.83,-588.01"/>
</g>
<!-- webgpu -->
<g id="node41" class="node">
<title>webgpu</title>
<polygon fill="pink" stroke="black" points="514.82,-307.5 454.18,-307.5 454.18,-271.5 514.82,-271.5 514.82,-307.5"/>
<text text-anchor="middle" x="484.5" y="-285.3" font-family="Times,serif" font-size="14.00">webgpu</text>
</g>
<!-- webgpu&#45;&gt;assert -->
<g id="edge49" class="edge">
<title>webgpu&#45;&gt;assert</title>
<path fill="none" stroke="black" d="M498.95,-271.3C506.93,-262.72 517.44,-252.75 528.5,-246 584.87,-211.61 658.26,-189.99 707.03,-178.34"/>
<polygon fill="black" stroke="black" points="708.1,-181.69 717.05,-176.01 706.52,-174.87 708.1,-181.69"/>
</g>
</g>
</svg>
