<?xml version="1.0" encoding="UTF-8" standalone="no"?>
<!DOCTYPE svg PUBLIC "-//W3C//DTD SVG 1.1//EN"
 "http://www.w3.org/Graphics/SVG/1.1/DTD/svg11.dtd">
<!-- Generated by graphviz version 2.44.0 (20200518.1210)
 -->
<!-- Title: std_deps Pages: 1 -->
<svg width="2437pt" height="404pt"
 viewBox="0.00 0.00 2437.00 404.00" xmlns="http://www.w3.org/2000/svg" xmlns:xlink="http://www.w3.org/1999/xlink">
<g id="graph0" class="graph" transform="scale(1 1) rotate(0) translate(4 400)">
<title>std_deps</title>
<polygon fill="white" stroke="transparent" points="-4,4 -4,-400 2433,-400 2433,4 -4,4"/>
<!-- archive -->
<g id="node1" class="node">
<title>archive</title>
<ellipse fill="none" stroke="black" cx="306" cy="-252" rx="36" ry="36"/>
<text text-anchor="middle" x="306" y="-247.8" font-family="Times,serif" font-size="14.00">archive</text>
</g>
<!-- io -->
<g id="node2" class="node">
<title>io</title>
<ellipse fill="none" stroke="black" cx="306" cy="-144" rx="36" ry="36"/>
<text text-anchor="middle" x="306" y="-139.8" font-family="Times,serif" font-size="14.00">io</text>
</g>
<!-- archive&#45;&gt;io -->
<g id="edge1" class="edge">
<title>archive&#45;&gt;io</title>
<path fill="none" stroke="black" d="M306,-216C306,-207.85 306,-199.06 306,-190.54"/>
<polygon fill="black" stroke="black" points="309.5,-190.33 306,-180.33 302.5,-190.33 309.5,-190.33"/>
</g>
<!-- bytes -->
<g id="node6" class="node">
<title>bytes</title>
<ellipse fill="lightgreen" stroke="black" cx="261" cy="-36" rx="36" ry="36"/>
<text text-anchor="middle" x="261" y="-31.8" font-family="Times,serif" font-size="14.00">bytes</text>
</g>
<!-- io&#45;&gt;bytes -->
<g id="edge16" class="edge">
<title>io&#45;&gt;bytes</title>
<path fill="none" stroke="black" d="M292.25,-110.62C288.02,-100.65 283.29,-89.51 278.83,-78.99"/>
<polygon fill="black" stroke="black" points="281.95,-77.38 274.82,-69.55 275.5,-80.12 281.95,-77.38"/>
</g>
<!-- assert -->
<g id="node3" class="node">
<title>assert</title>
<ellipse fill="lightgreen" stroke="black" cx="1320" cy="-144" rx="36" ry="36"/>
<text text-anchor="middle" x="1320" y="-139.8" font-family="Times,serif" font-size="14.00">assert</text>
</g>
<!-- internal -->
<g id="node4" class="node">
<title>internal</title>
<ellipse fill="lightgreen" stroke="black" cx="1320" cy="-36" rx="36" ry="36"/>
<text text-anchor="middle" x="1320" y="-31.8" font-family="Times,serif" font-size="14.00">internal</text>
</g>
<!-- assert&#45;&gt;internal -->
<g id="edge2" class="edge">
<title>assert&#45;&gt;internal</title>
<path fill="none" stroke="black" d="M1320,-108C1320,-99.85 1320,-91.06 1320,-82.54"/>
<polygon fill="black" stroke="black" points="1323.5,-82.33 1320,-72.33 1316.5,-82.33 1323.5,-82.33"/>
</g>
<!-- async -->
<g id="node5" class="node">
<title>async</title>
<ellipse fill="lightgreen" stroke="black" cx="1064" cy="-144" rx="36" ry="36"/>
<text text-anchor="middle" x="1064" y="-139.8" font-family="Times,serif" font-size="14.00">async</text>
</g>
<!-- cache -->
<g id="node7" class="node">
<title>cache</title>
<ellipse fill="none" stroke="black" cx="787" cy="-360" rx="36" ry="36"/>
<text text-anchor="middle" x="787" y="-355.8" font-family="Times,serif" font-size="14.00">cache</text>
</g>
<!-- cli -->
<g id="node8" class="node">
<title>cli</title>
<ellipse fill="lightgreen" stroke="black" cx="704" cy="-144" rx="36" ry="36"/>
<text text-anchor="middle" x="704" y="-139.8" font-family="Times,serif" font-size="14.00">cli</text>
</g>
<!-- collections -->
<g id="node9" class="node">
<title>collections</title>
<ellipse fill="lightgreen" stroke="black" cx="1448" cy="-144" rx="36" ry="36"/>
<text text-anchor="middle" x="1448" y="-139.8" font-family="Times,serif" font-size="14.00">collections</text>
</g>
<!-- crypto -->
<g id="node10" class="node">
<title>crypto</title>
<ellipse fill="lightgreen" stroke="black" cx="396" cy="-36" rx="36" ry="36"/>
<text text-anchor="middle" x="396" y="-31.8" font-family="Times,serif" font-size="14.00">crypto</text>
</g>
<!-- csv -->
<g id="node11" class="node">
<title>csv</title>
<ellipse fill="lightgreen" stroke="black" cx="36" cy="-252" rx="36" ry="36"/>
<text text-anchor="middle" x="36" y="-247.8" font-family="Times,serif" font-size="14.00">csv</text>
</g>
<!-- streams -->
<g id="node12" class="node">
<title>streams</title>
<ellipse fill="lightgreen" stroke="black" cx="126" cy="-144" rx="36" ry="36"/>
<text text-anchor="middle" x="126" y="-139.8" font-family="Times,serif" font-size="14.00">streams</text>
</g>
<!-- csv&#45;&gt;streams -->
<g id="edge3" class="edge">
<title>csv&#45;&gt;streams</title>
<path fill="none" stroke="black" d="M58.94,-223.98C70.37,-210.52 84.31,-194.1 96.52,-179.72"/>
<polygon fill="black" stroke="black" points="99.29,-181.86 103.1,-171.97 93.96,-177.33 99.29,-181.86"/>
</g>
<!-- streams&#45;&gt;bytes -->
<g id="edge23" class="edge">
<title>streams&#45;&gt;bytes</title>
<path fill="none" stroke="black" d="M153.97,-121.04C174.61,-104.83 202.85,-82.66 225.15,-65.15"/>
<polygon fill="black" stroke="black" points="227.36,-67.86 233.06,-58.94 223.04,-62.36 227.36,-67.86"/>
</g>
<!-- data&#45;\nstructures -->
<g id="node13" class="node">
<title>data&#45;\nstructures</title>
<ellipse fill="lightgreen" stroke="black" cx="1154" cy="-144" rx="36" ry="36"/>
<text text-anchor="middle" x="1154" y="-148.2" font-family="Times,serif" font-size="14.00">data&#45;</text>
<text text-anchor="middle" x="1154" y="-131.4" font-family="Times,serif" font-size="14.00">structures</text>
</g>
<!-- datetime -->
<g id="node14" class="node">
<title>datetime</title>
<ellipse fill="none" stroke="black" cx="1583" cy="-360" rx="36" ry="36"/>
<text text-anchor="middle" x="1583" y="-355.8" font-family="Times,serif" font-size="14.00">datetime</text>
</g>
<!-- dotenv -->
<g id="node15" class="node">
<title>dotenv</title>
<ellipse fill="none" stroke="black" cx="1673" cy="-360" rx="36" ry="36"/>
<text text-anchor="middle" x="1673" y="-355.8" font-family="Times,serif" font-size="14.00">dotenv</text>
</g>
<!-- encoding -->
<g id="node16" class="node">
<title>encoding</title>
<ellipse fill="lightgreen" stroke="black" cx="576" cy="-144" rx="36" ry="36"/>
<text text-anchor="middle" x="576" y="-139.8" font-family="Times,serif" font-size="14.00">encoding</text>
</g>
<!-- expect -->
<g id="node17" class="node">
<title>expect</title>
<ellipse fill="lightgreen" stroke="black" cx="1339" cy="-252" rx="36" ry="36"/>
<text text-anchor="middle" x="1339" y="-247.8" font-family="Times,serif" font-size="14.00">expect</text>
</g>
<!-- expect&#45;&gt;assert -->
<g id="edge4" class="edge">
<title>expect&#45;&gt;assert</title>
<path fill="none" stroke="black" d="M1332.78,-216.29C1331.25,-207.78 1329.6,-198.55 1328,-189.65"/>
<polygon fill="black" stroke="black" points="1331.44,-189.01 1326.24,-179.79 1324.55,-190.25 1331.44,-189.01"/>
</g>
<!-- expect&#45;&gt;internal -->
<g id="edge5" class="edge">
<title>expect&#45;&gt;internal</title>
<path fill="none" stroke="black" d="M1353.51,-218.79C1358.15,-206.86 1362.68,-193.05 1365,-180 1370.59,-148.49 1373.92,-138.73 1365,-108 1361.41,-95.61 1354.93,-83.32 1347.99,-72.53"/>
<polygon fill="black" stroke="black" points="1350.87,-70.54 1342.37,-64.22 1345.08,-74.47 1350.87,-70.54"/>
</g>
<!-- fmt -->
<g id="node18" class="node">
<title>fmt</title>
<ellipse fill="lightgreen" stroke="black" cx="486" cy="-144" rx="36" ry="36"/>
<text text-anchor="middle" x="486" y="-139.8" font-family="Times,serif" font-size="14.00">fmt</text>
</g>
<!-- front&#45;\nmatter -->
<g id="node19" class="node">
<title>front&#45;\nmatter</title>
<ellipse fill="lightgreen" stroke="black" cx="1493" cy="-360" rx="36" ry="36"/>
<text text-anchor="middle" x="1493" y="-364.2" font-family="Times,serif" font-size="14.00">front&#45;</text>
<text text-anchor="middle" x="1493" y="-347.4" font-family="Times,serif" font-size="14.00">matter</text>
</g>
<!-- toml -->
<g id="node20" class="node">
<title>toml</title>
<ellipse fill="lightgreen" stroke="black" cx="1448" cy="-252" rx="36" ry="36"/>
<text text-anchor="middle" x="1448" y="-247.8" font-family="Times,serif" font-size="14.00">toml</text>
</g>
<!-- front&#45;\nmatter&#45;&gt;toml -->
<g id="edge6" class="edge">
<title>front&#45;\nmatter&#45;&gt;toml</title>
<path fill="none" stroke="black" d="M1479.25,-326.62C1475.02,-316.65 1470.29,-305.51 1465.83,-294.99"/>
<polygon fill="black" stroke="black" points="1468.95,-293.38 1461.82,-285.55 1462.5,-296.12 1468.95,-293.38"/>
</g>
<!-- yaml -->
<g id="node21" class="node">
<title>yaml</title>
<ellipse fill="lightgreen" stroke="black" cx="1538" cy="-252" rx="36" ry="36"/>
<text text-anchor="middle" x="1538" y="-247.8" font-family="Times,serif" font-size="14.00">yaml</text>
</g>
<!-- front&#45;\nmatter&#45;&gt;yaml -->
<g id="edge7" class="edge">
<title>front&#45;\nmatter&#45;&gt;yaml</title>
<path fill="none" stroke="black" d="M1506.75,-326.62C1510.98,-316.65 1515.71,-305.51 1520.17,-294.99"/>
<polygon fill="black" stroke="black" points="1523.5,-296.12 1524.18,-285.55 1517.05,-293.38 1523.5,-296.12"/>
</g>
<!-- toml&#45;&gt;collections -->
<g id="edge31" class="edge">
<title>toml&#45;&gt;collections</title>
<path fill="none" stroke="black" d="M1448,-216C1448,-207.85 1448,-199.06 1448,-190.54"/>
<polygon fill="black" stroke="black" points="1451.5,-190.33 1448,-180.33 1444.5,-190.33 1451.5,-190.33"/>
</g>
<!-- fs -->
<g id="node22" class="node">
<title>fs</title>
<ellipse fill="lightgreen" stroke="black" cx="884" cy="-144" rx="36" ry="36"/>
<text text-anchor="middle" x="884" y="-139.8" font-family="Times,serif" font-size="14.00">fs</text>
</g>
<!-- path -->
<g id="node23" class="node">
<title>path</title>
<ellipse fill="lightgreen" stroke="black" cx="884" cy="-36" rx="36" ry="36"/>
<text text-anchor="middle" x="884" y="-31.8" font-family="Times,serif" font-size="14.00">path</text>
</g>
<!-- fs&#45;&gt;path -->
<g id="edge8" class="edge">
<title>fs&#45;&gt;path</title>
<path fill="none" stroke="black" d="M884,-108C884,-99.85 884,-91.06 884,-82.54"/>
<polygon fill="black" stroke="black" points="887.5,-82.33 884,-72.33 880.5,-82.33 887.5,-82.33"/>
</g>
<!-- html -->
<g id="node24" class="node">
<title>html</title>
<ellipse fill="lightgreen" stroke="black" cx="1763" cy="-360" rx="36" ry="36"/>
<text text-anchor="middle" x="1763" y="-355.8" font-family="Times,serif" font-size="14.00">html</text>
</g>
<!-- http -->
<g id="node25" class="node">
<title>http</title>
<ellipse fill="lightgreen" stroke="black" cx="640" cy="-252" rx="36" ry="36"/>
<text text-anchor="middle" x="640" y="-247.8" font-family="Times,serif" font-size="14.00">http</text>
</g>
<!-- http&#45;&gt;cli -->
<g id="edge13" class="edge">
<title>http&#45;&gt;cli</title>
<path fill="none" stroke="black" d="M658.17,-220.91C665.13,-209.38 673.17,-196.07 680.55,-183.84"/>
<polygon fill="black" stroke="black" points="683.61,-185.54 685.79,-175.17 677.62,-181.92 683.61,-185.54"/>
</g>
<!-- http&#45;&gt;streams -->
<g id="edge12" class="edge">
<title>http&#45;&gt;streams</title>
<path fill="none" stroke="black" d="M606.61,-238.25C585.29,-230.62 556.88,-221.39 531,-216 373.57,-183.24 320.31,-239.7 171,-180 167.48,-178.59 164.02,-176.83 160.66,-174.84"/>
<polygon fill="black" stroke="black" points="162.34,-171.75 152.07,-169.15 158.47,-177.59 162.34,-171.75"/>
</g>
<!-- http&#45;&gt;encoding -->
<g id="edge9" class="edge">
<title>http&#45;&gt;encoding</title>
<path fill="none" stroke="black" d="M621.83,-220.91C614.87,-209.38 606.83,-196.07 599.45,-183.84"/>
<polygon fill="black" stroke="black" points="602.38,-181.92 594.21,-175.17 596.39,-185.54 602.38,-181.92"/>
</g>
<!-- http&#45;&gt;fmt -->
<g id="edge14" class="edge">
<title>http&#45;&gt;fmt</title>
<path fill="none" stroke="black" d="M609.47,-232.08C587.36,-218.14 556.93,-198.48 531,-180 528,-177.86 524.93,-175.61 521.86,-173.32"/>
<polygon fill="black" stroke="black" points="523.89,-170.47 513.81,-167.21 519.66,-176.04 523.89,-170.47"/>
</g>
<!-- http&#45;&gt;path -->
<g id="edge10" class="edge">
<title>http&#45;&gt;path</title>
<path fill="none" stroke="black" d="M634.93,-216.28C632.31,-184.47 633.87,-137.92 659,-108 703.12,-55.47 785.8,-41.29 837.71,-37.76"/>
<polygon fill="black" stroke="black" points="838.19,-41.23 847.98,-37.17 837.79,-34.24 838.19,-41.23"/>
</g>
<!-- media&#45;\ntypes -->
<g id="node26" class="node">
<title>media&#45;\ntypes</title>
<ellipse fill="lightgreen" stroke="black" cx="794" cy="-144" rx="36" ry="36"/>
<text text-anchor="middle" x="794" y="-148.2" font-family="Times,serif" font-size="14.00">media&#45;</text>
<text text-anchor="middle" x="794" y="-131.4" font-family="Times,serif" font-size="14.00">types</text>
</g>
<!-- http&#45;&gt;media&#45;\ntypes -->
<g id="edge11" class="edge">
<title>http&#45;&gt;media&#45;\ntypes</title>
<path fill="none" stroke="black" d="M670.53,-232.08C692.64,-218.14 723.07,-198.48 749,-180 752,-177.86 755.07,-175.61 758.14,-173.32"/>
<polygon fill="black" stroke="black" points="760.34,-176.04 766.19,-167.21 756.11,-170.47 760.34,-176.04"/>
</g>
<!-- net -->
<g id="node27" class="node">
<title>net</title>
<ellipse fill="lightgreen" stroke="black" cx="974" cy="-144" rx="36" ry="36"/>
<text text-anchor="middle" x="974" y="-139.8" font-family="Times,serif" font-size="14.00">net</text>
</g>
<!-- http&#45;&gt;net -->
<g id="edge15" class="edge">
<title>http&#45;&gt;net</title>
<path fill="none" stroke="black" d="M675.88,-247.08C732.18,-239.88 843.67,-221.32 929,-180 932.31,-178.4 935.61,-176.52 938.83,-174.48"/>
<polygon fill="black" stroke="black" points="940.86,-177.34 947.13,-168.8 936.9,-171.56 940.86,-177.34"/>
</g>
<!-- ini -->
<g id="node28" class="node">
<title>ini</title>
<ellipse fill="lightgreen" stroke="black" cx="1853" cy="-360" rx="36" ry="36"/>
<text text-anchor="middle" x="1853" y="-355.8" font-family="Times,serif" font-size="14.00">ini</text>
</g>
<!-- json -->
<g id="node29" class="node">
<title>json</title>
<ellipse fill="lightgreen" stroke="black" cx="126" cy="-252" rx="36" ry="36"/>
<text text-anchor="middle" x="126" y="-247.8" font-family="Times,serif" font-size="14.00">json</text>
</g>
<!-- json&#45;&gt;streams -->
<g id="edge17" class="edge">
<title>json&#45;&gt;streams</title>
<path fill="none" stroke="black" d="M126,-216C126,-207.85 126,-199.06 126,-190.54"/>
<polygon fill="black" stroke="black" points="129.5,-190.33 126,-180.33 122.5,-190.33 129.5,-190.33"/>
</g>
<!-- jsonc -->
<g id="node30" class="node">
<title>jsonc</title>
<ellipse fill="lightgreen" stroke="black" cx="126" cy="-360" rx="36" ry="36"/>
<text text-anchor="middle" x="126" y="-355.8" font-family="Times,serif" font-size="14.00">jsonc</text>
</g>
<!-- jsonc&#45;&gt;json -->
<g id="edge18" class="edge">
<title>jsonc&#45;&gt;json</title>
<path fill="none" stroke="black" d="M126,-324C126,-315.85 126,-307.06 126,-298.54"/>
<polygon fill="black" stroke="black" points="129.5,-298.33 126,-288.33 122.5,-298.33 129.5,-298.33"/>
</g>
<!-- log -->
<g id="node31" class="node">
<title>log</title>
<ellipse fill="none" stroke="black" cx="486" cy="-252" rx="36" ry="36"/>
<text text-anchor="middle" x="486" y="-247.8" font-family="Times,serif" font-size="14.00">log</text>
</g>
<!-- log&#45;&gt;io -->
<g id="edge20" class="edge">
<title>log&#45;&gt;io</title>
<path fill="none" stroke="black" d="M453.46,-235.9C425.54,-222.47 384.61,-201.67 351,-180 347.91,-178.01 344.76,-175.85 341.65,-173.63"/>
<polygon fill="black" stroke="black" points="343.65,-170.76 333.52,-167.64 339.49,-176.39 343.65,-170.76"/>
</g>
<!-- log&#45;&gt;fmt -->
<g id="edge19" class="edge">
<title>log&#45;&gt;fmt</title>
<path fill="none" stroke="black" d="M486,-216C486,-207.85 486,-199.06 486,-190.54"/>
<polygon fill="black" stroke="black" points="489.5,-190.33 486,-180.33 482.5,-190.33 489.5,-190.33"/>
</g>
<!-- log&#45;&gt;fs -->
<g id="edge21" class="edge">
<title>log&#45;&gt;fs</title>
<path fill="none" stroke="black" d="M519.48,-238.67C540.84,-231.2 569.25,-221.99 595,-216 701.77,-191.16 738.2,-223.07 839,-180 842.48,-178.51 845.93,-176.69 849.27,-174.66"/>
<polygon fill="black" stroke="black" points="851.48,-177.39 857.83,-168.91 847.58,-171.58 851.48,-177.39"/>
</g>
<!-- msgpack -->
<g id="node32" class="node">
<title>msgpack</title>
<ellipse fill="lightgreen" stroke="black" cx="216" cy="-144" rx="36" ry="36"/>
<text text-anchor="middle" x="216" y="-139.8" font-family="Times,serif" font-size="14.00">msgpack</text>
</g>
<!-- msgpack&#45;&gt;bytes -->
<g id="edge22" class="edge">
<title>msgpack&#45;&gt;bytes</title>
<path fill="none" stroke="black" d="M229.75,-110.62C233.98,-100.65 238.71,-89.51 243.17,-78.99"/>
<polygon fill="black" stroke="black" points="246.5,-80.12 247.18,-69.55 240.05,-77.38 246.5,-80.12"/>
</g>
<!-- random -->
<g id="node33" class="node">
<title>random</title>
<ellipse fill="none" stroke="black" cx="1943" cy="-360" rx="36" ry="36"/>
<text text-anchor="middle" x="1943" y="-355.8" font-family="Times,serif" font-size="14.00">random</text>
</g>
<!-- regexp -->
<g id="node34" class="node">
<title>regexp</title>
<ellipse fill="lightgreen" stroke="black" cx="2033" cy="-360" rx="36" ry="36"/>
<text text-anchor="middle" x="2033" y="-355.8" font-family="Times,serif" font-size="14.00">regexp</text>
</g>
<!-- semver -->
<g id="node35" class="node">
<title>semver</title>
<ellipse fill="lightgreen" stroke="black" cx="2123" cy="-360" rx="36" ry="36"/>
<text text-anchor="middle" x="2123" y="-355.8" font-family="Times,serif" font-size="14.00">semver</text>
</g>
<!-- tar -->
<g id="node36" class="node">
<title>tar</title>
<ellipse fill="none" stroke="black" cx="216" cy="-252" rx="36" ry="36"/>
<text text-anchor="middle" x="216" y="-247.8" font-family="Times,serif" font-size="14.00">tar</text>
</g>
<!-- tar&#45;&gt;streams -->
<g id="edge24" class="edge">
<title>tar&#45;&gt;streams</title>
<path fill="none" stroke="black" d="M193.06,-223.98C181.63,-210.52 167.69,-194.1 155.48,-179.72"/>
<polygon fill="black" stroke="black" points="158.04,-177.33 148.9,-171.97 152.71,-181.86 158.04,-177.33"/>
</g>
<!-- testing -->
<g id="node37" class="node">
<title>testing</title>
<ellipse fill="lightgreen" stroke="black" cx="1186" cy="-252" rx="36" ry="36"/>
<text text-anchor="middle" x="1186" y="-247.8" font-family="Times,serif" font-size="14.00">testing</text>
</g>
<!-- testing&#45;&gt;assert -->
<g id="edge25" class="edge">
<title>testing&#45;&gt;assert</title>
<path fill="none" stroke="black" d="M1213.76,-229.04C1234.02,-213.01 1261.67,-191.15 1283.68,-173.73"/>
<polygon fill="black" stroke="black" points="1286.14,-176.25 1291.81,-167.3 1281.8,-170.76 1286.14,-176.25"/>
</g>
<!-- testing&#45;&gt;internal -->
<g id="edge28" class="edge">
<title>testing&#45;&gt;internal</title>
<path fill="none" stroke="black" d="M1205.49,-221.45C1213.77,-208.75 1223.46,-193.72 1232,-180 1251.69,-148.35 1255.47,-139.74 1275,-108 1281.57,-97.32 1288.8,-85.81 1295.51,-75.23"/>
<polygon fill="black" stroke="black" points="1298.58,-76.92 1300.99,-66.6 1292.68,-73.16 1298.58,-76.92"/>
</g>
<!-- testing&#45;&gt;async -->
<g id="edge30" class="edge">
<title>testing&#45;&gt;async</title>
<path fill="none" stroke="black" d="M1159.23,-227.74C1141.35,-212.2 1117.67,-191.63 1098.4,-174.89"/>
<polygon fill="black" stroke="black" points="1100.56,-172.12 1090.71,-168.21 1095.96,-177.41 1100.56,-172.12"/>
</g>
<!-- testing&#45;&gt;data&#45;\nstructures -->
<g id="edge29" class="edge">
<title>testing&#45;&gt;data&#45;\nstructures</title>
<path fill="none" stroke="black" d="M1175.79,-217.17C1173.04,-208.09 1170.04,-198.13 1167.16,-188.6"/>
<polygon fill="black" stroke="black" points="1170.47,-187.43 1164.23,-178.87 1163.77,-189.46 1170.47,-187.43"/>
</g>
<!-- testing&#45;&gt;fs -->
<g id="edge27" class="edge">
<title>testing&#45;&gt;fs</title>
<path fill="none" stroke="black" d="M1150.33,-245.68C1099.19,-237.08 1003.05,-217.18 929,-180 925.71,-178.35 922.43,-176.44 919.22,-174.38"/>
<polygon fill="black" stroke="black" points="921.16,-171.46 910.94,-168.66 917.18,-177.22 921.16,-171.46"/>
</g>
<!-- testing&#45;&gt;path -->
<g id="edge26" class="edge">
<title>testing&#45;&gt;path</title>
<path fill="none" stroke="black" d="M1200.62,-218.9C1212.6,-187.22 1223.91,-139.15 1199,-108 1165.83,-66.52 1009.17,-47.55 930.02,-40.49"/>
<polygon fill="black" stroke="black" points="930.11,-36.98 919.84,-39.61 929.5,-43.96 930.11,-36.98"/>
</g>
<!-- text -->
<g id="node38" class="node">
<title>text</title>
<ellipse fill="lightgreen" stroke="black" cx="2213" cy="-360" rx="36" ry="36"/>
<text text-anchor="middle" x="2213" y="-355.8" font-family="Times,serif" font-size="14.00">text</text>
</g>
<!-- ulid -->
<g id="node39" class="node">
<title>ulid</title>
<ellipse fill="lightgreen" stroke="black" cx="2303" cy="-360" rx="36" ry="36"/>
<text text-anchor="middle" x="2303" y="-355.8" font-family="Times,serif" font-size="14.00">ulid</text>
</g>
<!-- uuid -->
<g id="node40" class="node">
<title>uuid</title>
<ellipse fill="lightgreen" stroke="black" cx="396" cy="-144" rx="36" ry="36"/>
<text text-anchor="middle" x="396" y="-139.8" font-family="Times,serif" font-size="14.00">uuid</text>
</g>
<!-- uuid&#45;&gt;bytes -->
<g id="edge32" class="edge">
<title>uuid&#45;&gt;bytes</title>
<path fill="none" stroke="black" d="M368.03,-121.04C347.39,-104.83 319.15,-82.66 296.85,-65.15"/>
<polygon fill="black" stroke="black" points="298.96,-62.36 288.94,-58.94 294.64,-67.86 298.96,-62.36"/>
</g>
<!-- uuid&#45;&gt;crypto -->
<g id="edge33" class="edge">
<title>uuid&#45;&gt;crypto</title>
<path fill="none" stroke="black" d="M396,-108C396,-99.85 396,-91.06 396,-82.54"/>
<polygon fill="black" stroke="black" points="399.5,-82.33 396,-72.33 392.5,-82.33 399.5,-82.33"/>
</g>
<!-- webgpu -->
<g id="node41" class="node">
<title>webgpu</title>
<ellipse fill="none" stroke="black" cx="2393" cy="-360" rx="36" ry="36"/>
<text text-anchor="middle" x="2393" y="-355.8" font-family="Times,serif" font-size="14.00">webgpu</text>
</g>
</g>
</svg>
