<?xml version="1.0" encoding="UTF-8" standalone="no"?>
<!DOCTYPE svg PUBLIC "-//W3C//DTD SVG 1.1//EN"
 "http://www.w3.org/Graphics/SVG/1.1/DTD/svg11.dtd">
<!-- Generated by graphviz version 2.44.0 (20200518.1210)
 -->
<!-- Title: std_deps Pages: 1 -->
<svg width="2012pt" height="710pt"
 viewBox="0.00 0.00 2011.82 710.00" xmlns="http://www.w3.org/2000/svg" xmlns:xlink="http://www.w3.org/1999/xlink">
<g id="graph0" class="graph" transform="scale(1 1) rotate(0) translate(4 706)">
<title>std_deps</title>
<polygon fill="white" stroke="transparent" points="-4,4 -4,-706 2007.82,-706 2007.82,4 -4,4"/>
<!-- archive -->
<g id="node1" class="node">
<title>archive</title>
<polygon fill="pink" stroke="black" points="1007.51,-430.5 950.12,-430.5 950.12,-394.5 1007.51,-394.5 1007.51,-430.5"/>
<text text-anchor="middle" x="978.82" y="-408.3" font-family="Times,serif" font-size="14.00">archive</text>
</g>
<!-- io -->
<g id="node2" class="node">
<title>io</title>
<polygon fill="pink" stroke="black" points="1143.82,-307.5 1089.82,-307.5 1089.82,-271.5 1143.82,-271.5 1143.82,-307.5"/>
<text text-anchor="middle" x="1116.82" y="-285.3" font-family="Times,serif" font-size="14.00">io</text>
</g>
<!-- archive&#45;&gt;io -->
<g id="edge1" class="edge">
<title>archive&#45;&gt;io</title>
<path fill="none" stroke="black" d="M1003.9,-394.47C1025.31,-379.42 1056.41,-356.29 1080.82,-333 1086.4,-327.68 1091.99,-321.54 1097.06,-315.63"/>
<polygon fill="black" stroke="black" points="1099.88,-317.71 1103.58,-307.78 1094.49,-313.24 1099.88,-317.71"/>
</g>
<!-- assert -->
<g id="node3" class="node">
<title>assert</title>
<ellipse fill="none" stroke="black" cx="854.82" cy="-166.5" rx="39.5" ry="39.5"/>
<ellipse fill="none" stroke="black" cx="854.82" cy="-166.5" rx="43.5" ry="43.5"/>
<text text-anchor="middle" x="854.82" y="-162.3" font-family="Times,serif" font-size="14.00">assert</text>
</g>
<!-- archive&#45;&gt;assert -->
<g id="edge2" class="edge">
<title>archive&#45;&gt;assert</title>
<path fill="none" stroke="black" d="M967.54,-394.38C957.41,-378.71 942.39,-354.71 930.82,-333 910.38,-294.65 889.98,-249.78 875.47,-216.44"/>
<polygon fill="black" stroke="black" points="878.54,-214.71 871.35,-206.92 872.11,-217.49 878.54,-214.71"/>
</g>
<!-- io&#45;&gt;assert -->
<g id="edge20" class="edge">
<title>io&#45;&gt;assert</title>
<path fill="none" stroke="black" d="M1105.55,-271.24C1099.18,-262.64 1090.55,-252.67 1080.82,-246 1027.57,-209.48 955.66,-188.37 907.39,-177.42"/>
<polygon fill="black" stroke="black" points="907.98,-173.96 897.46,-175.23 906.48,-180.8 907.98,-173.96"/>
</g>
<!-- bytes -->
<g id="node6" class="node">
<title>bytes</title>
<ellipse fill="none" stroke="black" cx="1246.82" cy="-166.5" rx="39.5" ry="39.5"/>
<ellipse fill="none" stroke="black" cx="1246.82" cy="-166.5" rx="43.5" ry="43.5"/>
<text text-anchor="middle" x="1246.82" y="-162.3" font-family="Times,serif" font-size="14.00">bytes</text>
</g>
<!-- io&#45;&gt;bytes -->
<g id="edge21" class="edge">
<title>io&#45;&gt;bytes</title>
<path fill="none" stroke="black" d="M1135.17,-271.42C1153.93,-253.96 1183.64,-226.31 1207.69,-203.92"/>
<polygon fill="black" stroke="black" points="1210.35,-206.22 1215.29,-196.85 1205.58,-201.1 1210.35,-206.22"/>
</g>
<!-- internal -->
<g id="node4" class="node">
<title>internal</title>
<ellipse fill="none" stroke="black" cx="455.82" cy="-43.5" rx="39.5" ry="39.5"/>
<ellipse fill="none" stroke="black" cx="455.82" cy="-43.5" rx="43.5" ry="43.5"/>
<text text-anchor="middle" x="455.82" y="-39.3" font-family="Times,serif" font-size="14.00">internal</text>
</g>
<!-- assert&#45;&gt;internal -->
<g id="edge3" class="edge">
<title>assert&#45;&gt;internal</title>
<path fill="none" stroke="black" d="M813.25,-152.89C739.75,-130.6 587.08,-84.3 507.14,-60.06"/>
<polygon fill="black" stroke="black" points="507.88,-56.63 497.3,-57.08 505.85,-63.33 507.88,-56.63"/>
</g>
<!-- async -->
<g id="node5" class="node">
<title>async</title>
<ellipse fill="none" stroke="black" cx="582.82" cy="-289.5" rx="39.5" ry="39.5"/>
<ellipse fill="none" stroke="black" cx="582.82" cy="-289.5" rx="43.5" ry="43.5"/>
<text text-anchor="middle" x="582.82" y="-285.3" font-family="Times,serif" font-size="14.00">async</text>
</g>
<!-- cli -->
<g id="node7" class="node">
<title>cli</title>
<polygon fill="pink" stroke="black" points="591.82,-430.5 537.82,-430.5 537.82,-394.5 591.82,-394.5 591.82,-430.5"/>
<text text-anchor="middle" x="564.82" y="-408.3" font-family="Times,serif" font-size="14.00">cli</text>
</g>
<!-- collections -->
<g id="node8" class="node">
<title>collections</title>
<ellipse fill="none" stroke="black" cx="1197.82" cy="-412.5" rx="39.5" ry="39.5"/>
<ellipse fill="none" stroke="black" cx="1197.82" cy="-412.5" rx="43.5" ry="43.5"/>
<text text-anchor="middle" x="1197.82" y="-408.3" font-family="Times,serif" font-size="14.00">collections</text>
</g>
<!-- crypto -->
<g id="node9" class="node">
<title>crypto</title>
<ellipse fill="none" stroke="black" cx="1365.82" cy="-166.5" rx="39.5" ry="39.5"/>
<ellipse fill="none" stroke="black" cx="1365.82" cy="-166.5" rx="43.5" ry="43.5"/>
<text text-anchor="middle" x="1365.82" y="-162.3" font-family="Times,serif" font-size="14.00">crypto</text>
</g>
<!-- csv -->
<g id="node10" class="node">
<title>csv</title>
<ellipse fill="none" stroke="black" cx="981.82" cy="-535.5" rx="39.5" ry="39.5"/>
<ellipse fill="none" stroke="black" cx="981.82" cy="-535.5" rx="43.5" ry="43.5"/>
<text text-anchor="middle" x="981.82" y="-531.3" font-family="Times,serif" font-size="14.00">csv</text>
</g>
<!-- csv&#45;&gt;assert -->
<g id="edge4" class="edge">
<title>csv&#45;&gt;assert</title>
<path fill="none" stroke="black" d="M961.43,-496.86C954.66,-484 947.23,-469.47 940.82,-456 915.24,-402.25 905.51,-389.83 887.82,-333 876.31,-296.02 867.88,-253.1 862.43,-220.24"/>
<polygon fill="black" stroke="black" points="865.82,-219.25 860.76,-209.94 858.91,-220.37 865.82,-219.25"/>
</g>
<!-- streams -->
<g id="node11" class="node">
<title>streams</title>
<ellipse fill="none" stroke="black" cx="1092.82" cy="-412.5" rx="39.5" ry="39.5"/>
<ellipse fill="none" stroke="black" cx="1092.82" cy="-412.5" rx="43.5" ry="43.5"/>
<text text-anchor="middle" x="1092.82" y="-408.3" font-family="Times,serif" font-size="14.00">streams</text>
</g>
<!-- csv&#45;&gt;streams -->
<g id="edge5" class="edge">
<title>csv&#45;&gt;streams</title>
<path fill="none" stroke="black" d="M1010.98,-502.71C1025,-487.42 1041.94,-468.96 1056.77,-452.8"/>
<polygon fill="black" stroke="black" points="1059.67,-454.81 1063.85,-445.08 1054.51,-450.08 1059.67,-454.81"/>
</g>
<!-- streams&#45;&gt;io -->
<g id="edge32" class="edge">
<title>streams&#45;&gt;io</title>
<path fill="none" stroke="black" d="M1101.15,-369.52C1104.58,-352.22 1108.45,-332.68 1111.49,-317.36"/>
<polygon fill="black" stroke="black" points="1114.93,-317.99 1113.45,-307.5 1108.07,-316.63 1114.93,-317.99"/>
</g>
<!-- streams&#45;&gt;assert -->
<g id="edge30" class="edge">
<title>streams&#45;&gt;assert</title>
<path fill="none" stroke="black" d="M1123.52,-381.09C1135.06,-367.57 1146.83,-350.71 1152.82,-333 1165.21,-296.37 1176.42,-276.63 1152.82,-246 1123.16,-207.52 985.63,-184.13 908.19,-173.79"/>
<polygon fill="black" stroke="black" points="908.51,-170.3 898.14,-172.47 907.6,-177.24 908.51,-170.3"/>
</g>
<!-- streams&#45;&gt;bytes -->
<g id="edge31" class="edge">
<title>streams&#45;&gt;bytes</title>
<path fill="none" stroke="black" d="M1124.37,-382.3C1130.81,-377.35 1137.78,-372.64 1144.82,-369 1198.06,-341.44 1238.52,-380.72 1274.82,-333 1300.57,-299.15 1287.86,-250.1 1272.17,-214.19"/>
<polygon fill="black" stroke="black" points="1275.26,-212.53 1267.91,-204.89 1268.89,-215.44 1275.26,-212.53"/>
</g>
<!-- data_\nstructures -->
<g id="node12" class="node">
<title>data_\nstructures</title>
<polygon fill="pink" stroke="black" points="1382.24,-679.1 1311.4,-679.1 1311.4,-637.9 1382.24,-637.9 1382.24,-679.1"/>
<text text-anchor="middle" x="1346.82" y="-662.7" font-family="Times,serif" font-size="14.00">data_</text>
<text text-anchor="middle" x="1346.82" y="-645.9" font-family="Times,serif" font-size="14.00">structures</text>
</g>
<!-- datetime -->
<g id="node13" class="node">
<title>datetime</title>
<polygon fill="pink" stroke="black" points="1464.03,-676.5 1399.61,-676.5 1399.61,-640.5 1464.03,-640.5 1464.03,-676.5"/>
<text text-anchor="middle" x="1431.82" y="-654.3" font-family="Times,serif" font-size="14.00">datetime</text>
</g>
<!-- dotenv -->
<g id="node14" class="node">
<title>dotenv</title>
<polygon fill="pink" stroke="black" points="1535.92,-676.5 1481.71,-676.5 1481.71,-640.5 1535.92,-640.5 1535.92,-676.5"/>
<text text-anchor="middle" x="1508.82" y="-654.3" font-family="Times,serif" font-size="14.00">dotenv</text>
</g>
<!-- encoding -->
<g id="node15" class="node">
<title>encoding</title>
<ellipse fill="none" stroke="black" cx="653.82" cy="-412.5" rx="39.5" ry="39.5"/>
<ellipse fill="none" stroke="black" cx="653.82" cy="-412.5" rx="43.5" ry="43.5"/>
<text text-anchor="middle" x="653.82" y="-408.3" font-family="Times,serif" font-size="14.00">encoding</text>
</g>
<!-- expect -->
<g id="node16" class="node">
<title>expect</title>
<polygon fill="pink" stroke="black" points="482.82,-307.5 428.82,-307.5 428.82,-271.5 482.82,-271.5 482.82,-307.5"/>
<text text-anchor="middle" x="455.82" y="-285.3" font-family="Times,serif" font-size="14.00">expect</text>
</g>
<!-- expect&#45;&gt;assert -->
<g id="edge6" class="edge">
<title>expect&#45;&gt;assert</title>
<path fill="none" stroke="black" d="M468.43,-271.2C475.75,-262.37 485.72,-252.2 496.82,-246 594.76,-191.27 727.62,-174.69 800.84,-169.67"/>
<polygon fill="black" stroke="black" points="801.44,-173.14 811.19,-169.01 800.99,-166.16 801.44,-173.14"/>
</g>
<!-- expect&#45;&gt;internal -->
<g id="edge7" class="edge">
<title>expect&#45;&gt;internal</title>
<path fill="none" stroke="black" d="M455.82,-271.34C455.82,-235.78 455.82,-152.74 455.82,-97.61"/>
<polygon fill="black" stroke="black" points="459.32,-97.32 455.82,-87.32 452.32,-97.32 459.32,-97.32"/>
</g>
<!-- fmt -->
<g id="node17" class="node">
<title>fmt</title>
<ellipse fill="none" stroke="black" cx="687.82" cy="-289.5" rx="39.5" ry="39.5"/>
<ellipse fill="none" stroke="black" cx="687.82" cy="-289.5" rx="43.5" ry="43.5"/>
<text text-anchor="middle" x="687.82" y="-285.3" font-family="Times,serif" font-size="14.00">fmt</text>
</g>
<!-- front_\nmatter -->
<g id="node18" class="node">
<title>front_\nmatter</title>
<ellipse fill="none" stroke="black" cx="1249.82" cy="-658.5" rx="39.5" ry="39.5"/>
<ellipse fill="none" stroke="black" cx="1249.82" cy="-658.5" rx="43.5" ry="43.5"/>
<text text-anchor="middle" x="1249.82" y="-662.7" font-family="Times,serif" font-size="14.00">front_</text>
<text text-anchor="middle" x="1249.82" y="-645.9" font-family="Times,serif" font-size="14.00">matter</text>
</g>
<!-- toml -->
<g id="node19" class="node">
<title>toml</title>
<ellipse fill="none" stroke="black" cx="1197.82" cy="-535.5" rx="39.5" ry="39.5"/>
<ellipse fill="none" stroke="black" cx="1197.82" cy="-535.5" rx="43.5" ry="43.5"/>
<text text-anchor="middle" x="1197.82" y="-531.3" font-family="Times,serif" font-size="14.00">toml</text>
</g>
<!-- front_\nmatter&#45;&gt;toml -->
<g id="edge8" class="edge">
<title>front_\nmatter&#45;&gt;toml</title>
<path fill="none" stroke="black" d="M1232.94,-618.21C1228.44,-607.75 1223.53,-596.32 1218.84,-585.42"/>
<polygon fill="black" stroke="black" points="1221.96,-583.81 1214.79,-576 1215.53,-586.57 1221.96,-583.81"/>
</g>
<!-- yaml -->
<g id="node20" class="node">
<title>yaml</title>
<ellipse fill="none" stroke="black" cx="1302.82" cy="-535.5" rx="39.5" ry="39.5"/>
<ellipse fill="none" stroke="black" cx="1302.82" cy="-535.5" rx="43.5" ry="43.5"/>
<text text-anchor="middle" x="1302.82" y="-531.3" font-family="Times,serif" font-size="14.00">yaml</text>
</g>
<!-- front_\nmatter&#45;&gt;yaml -->
<g id="edge9" class="edge">
<title>front_\nmatter&#45;&gt;yaml</title>
<path fill="none" stroke="black" d="M1267.03,-618.21C1271.7,-607.54 1276.82,-595.86 1281.68,-584.75"/>
<polygon fill="black" stroke="black" points="1284.89,-586.15 1285.7,-575.59 1278.48,-583.34 1284.89,-586.15"/>
</g>
<!-- toml&#45;&gt;collections -->
<g id="edge41" class="edge">
<title>toml&#45;&gt;collections</title>
<path fill="none" stroke="black" d="M1197.82,-491.84C1197.82,-483.62 1197.82,-474.91 1197.82,-466.41"/>
<polygon fill="black" stroke="black" points="1201.32,-466.18 1197.82,-456.18 1194.32,-466.18 1201.32,-466.18"/>
</g>
<!-- fs -->
<g id="node21" class="node">
<title>fs</title>
<ellipse fill="none" stroke="black" cx="366.82" cy="-289.5" rx="39.5" ry="39.5"/>
<ellipse fill="none" stroke="black" cx="366.82" cy="-289.5" rx="43.5" ry="43.5"/>
<text text-anchor="middle" x="366.82" y="-285.3" font-family="Times,serif" font-size="14.00">fs</text>
</g>
<!-- path -->
<g id="node22" class="node">
<title>path</title>
<ellipse fill="none" stroke="black" cx="56.82" cy="-166.5" rx="39.5" ry="39.5"/>
<ellipse fill="none" stroke="black" cx="56.82" cy="-166.5" rx="43.5" ry="43.5"/>
<text text-anchor="middle" x="56.82" y="-162.3" font-family="Times,serif" font-size="14.00">path</text>
</g>
<!-- fs&#45;&gt;path -->
<g id="edge10" class="edge">
<title>fs&#45;&gt;path</title>
<path fill="none" stroke="black" d="M334.81,-259.68C328.18,-254.64 321.01,-249.8 313.82,-246 247.56,-210.98 163.25,-189 109.64,-177.48"/>
<polygon fill="black" stroke="black" points="110.18,-174.02 99.67,-175.39 108.74,-180.87 110.18,-174.02"/>
</g>
<!-- html -->
<g id="node23" class="node">
<title>html</title>
<polygon fill="pink" stroke="black" points="1607.82,-676.5 1553.82,-676.5 1553.82,-640.5 1607.82,-640.5 1607.82,-676.5"/>
<text text-anchor="middle" x="1580.82" y="-654.3" font-family="Times,serif" font-size="14.00">html</text>
</g>
<!-- http -->
<g id="node24" class="node">
<title>http</title>
<polygon fill="pink" stroke="black" points="536.82,-553.5 482.82,-553.5 482.82,-517.5 536.82,-517.5 536.82,-553.5"/>
<text text-anchor="middle" x="509.82" y="-531.3" font-family="Times,serif" font-size="14.00">http</text>
</g>
<!-- http&#45;&gt;assert -->
<g id="edge11" class="edge">
<title>http&#45;&gt;assert</title>
<path fill="none" stroke="black" d="M536.99,-535.14C591.48,-534.84 714.38,-525.95 778.82,-456 843.37,-385.93 793.67,-337.02 821.82,-246 824.9,-236.05 828.78,-225.62 832.8,-215.74"/>
<polygon fill="black" stroke="black" points="836.04,-217.05 836.66,-206.47 829.58,-214.36 836.04,-217.05"/>
</g>
<!-- http&#45;&gt;async -->
<g id="edge13" class="edge">
<title>http&#45;&gt;async</title>
<path fill="none" stroke="black" d="M482.44,-534.53C432.53,-532.93 327.6,-521.49 280.82,-456 258.34,-424.54 255.55,-398.27 280.82,-369 316.63,-327.51 474.11,-353.81 524.82,-333 530.58,-330.64 536.3,-327.58 541.77,-324.19"/>
<polygon fill="black" stroke="black" points="543.74,-327.09 550.14,-318.64 539.87,-321.25 543.74,-327.09"/>
</g>
<!-- http&#45;&gt;cli -->
<g id="edge17" class="edge">
<title>http&#45;&gt;cli</title>
<path fill="none" stroke="black" d="M517.58,-517.42C526.7,-497.36 541.94,-463.83 552.64,-440.29"/>
<polygon fill="black" stroke="black" points="555.96,-441.44 556.92,-430.88 549.59,-438.54 555.96,-441.44"/>
</g>
<!-- http&#45;&gt;streams -->
<g id="edge16" class="edge">
<title>http&#45;&gt;streams</title>
<path fill="none" stroke="black" d="M537.01,-533.66C614.27,-530.58 840.81,-516.63 1016.82,-456 1027.21,-452.42 1037.84,-447.44 1047.72,-442.15"/>
<polygon fill="black" stroke="black" points="1049.52,-445.15 1056.56,-437.24 1046.12,-439.04 1049.52,-445.15"/>
</g>
<!-- http&#45;&gt;encoding -->
<g id="edge12" class="edge">
<title>http&#45;&gt;encoding</title>
<path fill="none" stroke="black" d="M530.14,-517.42C551.6,-499.4 585.98,-470.5 613.05,-447.75"/>
<polygon fill="black" stroke="black" points="615.43,-450.33 620.84,-441.21 610.93,-444.97 615.43,-450.33"/>
</g>
<!-- http&#45;&gt;fmt -->
<g id="edge18" class="edge">
<title>http&#45;&gt;fmt</title>
<path fill="none" stroke="black" d="M506.34,-517.26C500.77,-484.45 493.77,-412.44 528.82,-369 560.06,-330.28 591.19,-356.93 634.82,-333 639.06,-330.68 643.29,-328.01 647.42,-325.16"/>
<polygon fill="black" stroke="black" points="649.68,-327.85 655.72,-319.14 645.57,-322.19 649.68,-327.85"/>
</g>
<!-- http&#45;&gt;path -->
<g id="edge14" class="edge">
<title>http&#45;&gt;path</title>
<path fill="none" stroke="black" d="M482.79,-533.87C418.86,-531.34 254.86,-518.72 136.82,-456 67.43,-419.13 40.47,-405.35 9.82,-333 -5.26,-297.4 -0.49,-283.27 9.82,-246 13.23,-233.68 19.14,-221.34 25.64,-210.22"/>
<polygon fill="black" stroke="black" points="28.69,-211.94 30.94,-201.59 22.73,-208.28 28.69,-211.94"/>
</g>
<!-- media_types -->
<g id="node25" class="node">
<title>media_types</title>
<ellipse fill="none" stroke="black" cx="349.82" cy="-412.5" rx="59.69" ry="18"/>
<text text-anchor="middle" x="349.82" y="-408.3" font-family="Times,serif" font-size="14.00">media_types</text>
</g>
<!-- http&#45;&gt;media_types -->
<g id="edge15" class="edge">
<title>http&#45;&gt;media_types</title>
<path fill="none" stroke="black" d="M487.23,-517.42C458.97,-496.04 410.49,-459.38 379.31,-435.81"/>
<polygon fill="black" stroke="black" points="381.1,-432.77 371.01,-429.53 376.88,-438.35 381.1,-432.77"/>
</g>
<!-- net -->
<g id="node26" class="node">
<title>net</title>
<polygon fill="pink" stroke="black" points="481.82,-430.5 427.82,-430.5 427.82,-394.5 481.82,-394.5 481.82,-430.5"/>
<text text-anchor="middle" x="454.82" y="-408.3" font-family="Times,serif" font-size="14.00">net</text>
</g>
<!-- http&#45;&gt;net -->
<g id="edge19" class="edge">
<title>http&#45;&gt;net</title>
<path fill="none" stroke="black" d="M502.06,-517.42C492.93,-497.36 477.69,-463.83 467,-440.29"/>
<polygon fill="black" stroke="black" points="470.05,-438.54 462.72,-430.88 463.67,-441.44 470.05,-438.54"/>
</g>
<!-- ini -->
<g id="node27" class="node">
<title>ini</title>
<polygon fill="pink" stroke="black" points="1679.82,-676.5 1625.82,-676.5 1625.82,-640.5 1679.82,-640.5 1679.82,-676.5"/>
<text text-anchor="middle" x="1652.82" y="-654.3" font-family="Times,serif" font-size="14.00">ini</text>
</g>
<!-- json -->
<g id="node28" class="node">
<title>json</title>
<ellipse fill="none" stroke="black" cx="1088.82" cy="-535.5" rx="39.5" ry="39.5"/>
<ellipse fill="none" stroke="black" cx="1088.82" cy="-535.5" rx="43.5" ry="43.5"/>
<text text-anchor="middle" x="1088.82" y="-531.3" font-family="Times,serif" font-size="14.00">json</text>
</g>
<!-- json&#45;&gt;streams -->
<g id="edge22" class="edge">
<title>json&#45;&gt;streams</title>
<path fill="none" stroke="black" d="M1090.23,-491.84C1090.5,-483.62 1090.79,-474.91 1091.07,-466.41"/>
<polygon fill="black" stroke="black" points="1094.58,-466.29 1091.41,-456.18 1087.58,-466.06 1094.58,-466.29"/>
</g>
<!-- jsonc -->
<g id="node29" class="node">
<title>jsonc</title>
<ellipse fill="none" stroke="black" cx="962.82" cy="-658.5" rx="39.5" ry="39.5"/>
<ellipse fill="none" stroke="black" cx="962.82" cy="-658.5" rx="43.5" ry="43.5"/>
<text text-anchor="middle" x="962.82" y="-654.3" font-family="Times,serif" font-size="14.00">jsonc</text>
</g>
<!-- jsonc&#45;&gt;assert -->
<g id="edge23" class="edge">
<title>jsonc&#45;&gt;assert</title>
<path fill="none" stroke="black" d="M944.7,-618.83C939.19,-606.28 933.39,-592.19 928.82,-579 891.8,-472.15 881.42,-444.71 863.82,-333 857.94,-295.68 855.72,-253.11 854.96,-220.49"/>
<polygon fill="black" stroke="black" points="858.45,-220.2 854.76,-210.27 851.45,-220.34 858.45,-220.2"/>
</g>
<!-- jsonc&#45;&gt;json -->
<g id="edge24" class="edge">
<title>jsonc&#45;&gt;json</title>
<path fill="none" stroke="black" d="M993.96,-627.59C1010.93,-611.3 1032.07,-591 1050.09,-573.7"/>
<polygon fill="black" stroke="black" points="1052.81,-575.94 1057.59,-566.49 1047.96,-570.89 1052.81,-575.94"/>
</g>
<!-- log -->
<g id="node30" class="node">
<title>log</title>
<polygon fill="pink" stroke="black" points="769.82,-430.5 715.82,-430.5 715.82,-394.5 769.82,-394.5 769.82,-430.5"/>
<text text-anchor="middle" x="742.82" y="-408.3" font-family="Times,serif" font-size="14.00">log</text>
</g>
<!-- log&#45;&gt;io -->
<g id="edge26" class="edge">
<title>log&#45;&gt;io</title>
<path fill="none" stroke="black" d="M770.05,-405.67C848,-388.9 1067.31,-341.25 1080.82,-333 1088.01,-328.61 1094.48,-322.28 1099.89,-315.84"/>
<polygon fill="black" stroke="black" points="1102.79,-317.81 1106.14,-307.76 1097.25,-313.53 1102.79,-317.81"/>
</g>
<!-- log&#45;&gt;assert -->
<g id="edge28" class="edge">
<title>log&#45;&gt;assert</title>
<path fill="none" stroke="black" d="M744.32,-394.07C747.61,-362.76 757.4,-295.65 783.82,-246 791.97,-230.69 803.76,-215.99 815.41,-203.54"/>
<polygon fill="black" stroke="black" points="818.17,-205.72 822.6,-196.09 813.14,-200.85 818.17,-205.72"/>
</g>
<!-- log&#45;&gt;fmt -->
<g id="edge25" class="edge">
<title>log&#45;&gt;fmt</title>
<path fill="none" stroke="black" d="M735.06,-394.42C728.46,-379.91 718.66,-358.36 709.7,-338.64"/>
<polygon fill="black" stroke="black" points="712.84,-337.1 705.52,-329.44 706.47,-339.99 712.84,-337.1"/>
</g>
<!-- log&#45;&gt;fs -->
<g id="edge27" class="edge">
<title>log&#45;&gt;fs</title>
<path fill="none" stroke="black" d="M732.3,-394.24C725.83,-385.19 716.7,-374.8 705.82,-369 592.77,-308.72 537.79,-382.96 419.82,-333 415.3,-331.09 410.86,-328.68 406.58,-325.98"/>
<polygon fill="black" stroke="black" points="408.28,-322.9 398.06,-320.11 404.31,-328.66 408.28,-322.9"/>
</g>
<!-- media_\ntypes -->
<g id="node31" class="node">
<title>media_\ntypes</title>
<ellipse fill="none" stroke="black" cx="1741.82" cy="-658.5" rx="39.5" ry="39.5"/>
<ellipse fill="none" stroke="black" cx="1741.82" cy="-658.5" rx="43.5" ry="43.5"/>
<text text-anchor="middle" x="1741.82" y="-662.7" font-family="Times,serif" font-size="14.00">media_</text>
<text text-anchor="middle" x="1741.82" y="-645.9" font-family="Times,serif" font-size="14.00">types</text>
</g>
<!-- msgpack -->
<g id="node32" class="node">
<title>msgpack</title>
<polygon fill="pink" stroke="black" points="1265.58,-307.5 1200.05,-307.5 1200.05,-271.5 1265.58,-271.5 1265.58,-307.5"/>
<text text-anchor="middle" x="1232.82" y="-285.3" font-family="Times,serif" font-size="14.00">msgpack</text>
</g>
<!-- msgpack&#45;&gt;bytes -->
<g id="edge29" class="edge">
<title>msgpack&#45;&gt;bytes</title>
<path fill="none" stroke="black" d="M1234.79,-271.42C1236.35,-257.95 1238.61,-238.42 1240.75,-219.92"/>
<polygon fill="black" stroke="black" points="1244.25,-220.12 1241.93,-209.79 1237.3,-219.32 1244.25,-220.12"/>
</g>
<!-- regexp -->
<g id="node33" class="node">
<title>regexp</title>
<polygon fill="pink" stroke="black" points="1857.91,-676.5 1803.73,-676.5 1803.73,-640.5 1857.91,-640.5 1857.91,-676.5"/>
<text text-anchor="middle" x="1830.82" y="-654.3" font-family="Times,serif" font-size="14.00">regexp</text>
</g>
<!-- semver -->
<g id="node34" class="node">
<title>semver</title>
<polygon fill="pink" stroke="black" points="1932.25,-676.5 1875.39,-676.5 1875.39,-640.5 1932.25,-640.5 1932.25,-676.5"/>
<text text-anchor="middle" x="1903.82" y="-654.3" font-family="Times,serif" font-size="14.00">semver</text>
</g>
<!-- testing -->
<g id="node35" class="node">
<title>testing</title>
<ellipse fill="none" stroke="black" cx="189.82" cy="-412.5" rx="39.5" ry="39.5"/>
<ellipse fill="none" stroke="black" cx="189.82" cy="-412.5" rx="43.5" ry="43.5"/>
<text text-anchor="middle" x="189.82" y="-408.3" font-family="Times,serif" font-size="14.00">testing</text>
</g>
<!-- testing&#45;&gt;assert -->
<g id="edge33" class="edge">
<title>testing&#45;&gt;assert</title>
<path fill="none" stroke="black" d="M224.78,-386.6C235.58,-379.94 247.8,-373.39 259.82,-369 357.84,-333.24 409.16,-396.68 491.82,-333 525.24,-307.25 497.49,-273.12 529.82,-246 570.71,-211.7 720.54,-186.17 801.71,-174.51"/>
<polygon fill="black" stroke="black" points="802.33,-177.96 811.74,-173.09 801.34,-171.03 802.33,-177.96"/>
</g>
<!-- testing&#45;&gt;internal -->
<g id="edge37" class="edge">
<title>testing&#45;&gt;internal</title>
<path fill="none" stroke="black" d="M169.18,-373.93C152.97,-338.96 136.41,-286.32 157.82,-246 210.2,-147.35 334.83,-88.2 405.2,-61.5"/>
<polygon fill="black" stroke="black" points="406.6,-64.71 414.75,-57.94 404.16,-58.15 406.6,-64.71"/>
</g>
<!-- testing&#45;&gt;async -->
<g id="edge39" class="edge">
<title>testing&#45;&gt;async</title>
<path fill="none" stroke="black" d="M222.45,-383.24C230.32,-377.7 239.01,-372.53 247.82,-369 363.07,-322.86 409.57,-379.14 524.82,-333 530.6,-330.69 536.33,-327.66 541.81,-324.29"/>
<polygon fill="black" stroke="black" points="543.77,-327.19 550.18,-318.76 539.91,-321.35 543.77,-327.19"/>
</g>
<!-- testing&#45;&gt;fmt -->
<g id="edge36" class="edge">
<title>testing&#45;&gt;fmt</title>
<path fill="none" stroke="black" d="M227.69,-390.33C243.63,-382.35 262.66,-374.01 280.82,-369 433.27,-326.95 488.47,-392.92 634.82,-333 639.36,-331.14 643.82,-328.77 648.11,-326.09"/>
<polygon fill="black" stroke="black" points="650.37,-328.79 656.64,-320.25 646.41,-323.01 650.37,-328.79"/>
</g>
<!-- testing&#45;&gt;fs -->
<g id="edge35" class="edge">
<title>testing&#45;&gt;fs</title>
<path fill="none" stroke="black" d="M223.95,-385.33C231.66,-379.75 239.92,-374.02 247.82,-369 276.02,-351.09 286.01,-351.52 313.82,-333 317.78,-330.36 321.81,-327.5 325.79,-324.54"/>
<polygon fill="black" stroke="black" points="328.02,-327.25 333.85,-318.4 323.77,-321.68 328.02,-327.25"/>
</g>
<!-- testing&#45;&gt;path -->
<g id="edge34" class="edge">
<title>testing&#45;&gt;path</title>
<path fill="none" stroke="black" d="M160.28,-380.31C148.25,-366.53 134.84,-349.69 124.82,-333 102.92,-296.52 84.98,-251.7 73.04,-217.9"/>
<polygon fill="black" stroke="black" points="76.27,-216.53 69.68,-208.23 69.66,-218.83 76.27,-216.53"/>
</g>
<!-- data_structures -->
<g id="node36" class="node">
<title>data_structures</title>
<ellipse fill="none" stroke="black" cx="235.82" cy="-289.5" rx="69.48" ry="18"/>
<text text-anchor="middle" x="235.82" y="-285.3" font-family="Times,serif" font-size="14.00">data_structures</text>
</g>
<!-- testing&#45;&gt;data_structures -->
<g id="edge38" class="edge">
<title>testing&#45;&gt;data_structures</title>
<path fill="none" stroke="black" d="M205.01,-371.54C211.79,-353.7 219.6,-333.15 225.66,-317.21"/>
<polygon fill="black" stroke="black" points="229.08,-318.06 229.37,-307.47 222.54,-315.58 229.08,-318.06"/>
</g>
<!-- text -->
<g id="node37" class="node">
<title>text</title>
<polygon fill="pink" stroke="black" points="993.82,-307.5 939.82,-307.5 939.82,-271.5 993.82,-271.5 993.82,-307.5"/>
<text text-anchor="middle" x="966.82" y="-285.3" font-family="Times,serif" font-size="14.00">text</text>
</g>
<!-- text&#45;&gt;assert -->
<g id="edge40" class="edge">
<title>text&#45;&gt;assert</title>
<path fill="none" stroke="black" d="M951.01,-271.42C935.47,-254.64 911.22,-228.43 890.95,-206.54"/>
<polygon fill="black" stroke="black" points="893.33,-203.96 883.97,-199 888.2,-208.71 893.33,-203.96"/>
</g>
<!-- ulid -->
<g id="node38" class="node">
<title>ulid</title>
<polygon fill="pink" stroke="black" points="2003.82,-676.5 1949.82,-676.5 1949.82,-640.5 2003.82,-640.5 2003.82,-676.5"/>
<text text-anchor="middle" x="1976.82" y="-654.3" font-family="Times,serif" font-size="14.00">ulid</text>
</g>
<!-- url -->
<g id="node39" class="node">
<title>url</title>
<polygon fill="pink" stroke="black" points="72.82,-307.5 18.82,-307.5 18.82,-271.5 72.82,-271.5 72.82,-307.5"/>
<text text-anchor="middle" x="45.82" y="-285.3" font-family="Times,serif" font-size="14.00">url</text>
</g>
<!-- url&#45;&gt;path -->
<g id="edge42" class="edge">
<title>url&#45;&gt;path</title>
<path fill="none" stroke="black" d="M47.37,-271.42C48.59,-258.01 50.36,-238.58 52.03,-220.14"/>
<polygon fill="black" stroke="black" points="55.53,-220.32 52.95,-210.05 48.56,-219.69 55.53,-220.32"/>
</g>
<!-- uuid -->
<g id="node40" class="node">
<title>uuid</title>
<ellipse fill="none" stroke="black" cx="1365.82" cy="-289.5" rx="39.5" ry="39.5"/>
<ellipse fill="none" stroke="black" cx="1365.82" cy="-289.5" rx="43.5" ry="43.5"/>
<text text-anchor="middle" x="1365.82" y="-285.3" font-family="Times,serif" font-size="14.00">uuid</text>
</g>
<!-- uuid&#45;&gt;bytes -->
<g id="edge43" class="edge">
<title>uuid&#45;&gt;bytes</title>
<path fill="none" stroke="black" d="M1335.79,-257.97C1320.15,-242.06 1300.87,-222.46 1284.26,-205.57"/>
<polygon fill="black" stroke="black" points="1286.34,-202.7 1276.84,-198.02 1281.35,-207.61 1286.34,-202.7"/>
</g>
<!-- uuid&#45;&gt;crypto -->
<g id="edge44" class="edge">
<title>uuid&#45;&gt;crypto</title>
<path fill="none" stroke="black" d="M1365.82,-245.84C1365.82,-237.62 1365.82,-228.91 1365.82,-220.41"/>
<polygon fill="black" stroke="black" points="1369.32,-220.18 1365.82,-210.18 1362.32,-220.18 1369.32,-220.18"/>
</g>
<!-- webgpu -->
<g id="node41" class="node">
<title>webgpu</title>
<polygon fill="pink" stroke="black" points="1072.14,-307.5 1011.5,-307.5 1011.5,-271.5 1072.14,-271.5 1072.14,-307.5"/>
<text text-anchor="middle" x="1041.82" y="-285.3" font-family="Times,serif" font-size="14.00">webgpu</text>
</g>
<!-- webgpu&#45;&gt;assert -->
<g id="edge45" class="edge">
<title>webgpu&#45;&gt;assert</title>
<path fill="none" stroke="black" d="M1028.54,-271.48C1021.49,-263.15 1012.33,-253.35 1002.82,-246 972.5,-222.57 934.19,-202.46 904.15,-188.47"/>
<polygon fill="black" stroke="black" points="905.25,-185.12 894.7,-184.14 902.34,-191.49 905.25,-185.12"/>
</g>
</g>
</svg>