<?xml version="1.0" encoding="UTF-8" standalone="no"?>
<!DOCTYPE svg PUBLIC "-//W3C//DTD SVG 1.1//EN"
 "http://www.w3.org/Graphics/SVG/1.1/DTD/svg11.dtd">
<!-- Generated by graphviz version 2.44.0 (20200518.1210)
 -->
<!-- Title: std_deps Pages: 1 -->
<svg width="2063pt" height="710pt"
 viewBox="0.00 0.00 2062.68 710.00" xmlns="http://www.w3.org/2000/svg" xmlns:xlink="http://www.w3.org/1999/xlink">
<g id="graph0" class="graph" transform="scale(1 1) rotate(0) translate(4 706)">
<title>std_deps</title>
<polygon fill="white" stroke="transparent" points="-4,4 -4,-706 2058.68,-706 2058.68,4 -4,4"/>
<!-- archive -->
<g id="node1" class="node">
<title>archive</title>
<polygon fill="pink" stroke="black" points="1082.38,-430.5 1024.99,-430.5 1024.99,-394.5 1082.38,-394.5 1082.38,-430.5"/>
<text text-anchor="middle" x="1053.68" y="-408.3" font-family="Times,serif" font-size="14.00">archive</text>
</g>
<!-- io -->
<g id="node2" class="node">
<title>io</title>
<polygon fill="pink" stroke="black" points="1170.68,-307.5 1116.68,-307.5 1116.68,-271.5 1170.68,-271.5 1170.68,-307.5"/>
<text text-anchor="middle" x="1143.68" y="-285.3" font-family="Times,serif" font-size="14.00">io</text>
</g>
<!-- archive&#45;&gt;io -->
<g id="edge1" class="edge">
<title>archive&#45;&gt;io</title>
<path fill="none" stroke="black" d="M1066.39,-394.42C1081.58,-374 1107.14,-339.62 1124.69,-316.04"/>
<polygon fill="black" stroke="black" points="1127.59,-318 1130.75,-307.88 1121.98,-313.82 1127.59,-318"/>
</g>
<!-- assert -->
<g id="node3" class="node">
<title>assert</title>
<ellipse fill="none" stroke="black" cx="881.68" cy="-166.5" rx="39.5" ry="39.5"/>
<ellipse fill="none" stroke="black" cx="881.68" cy="-166.5" rx="43.5" ry="43.5"/>
<text text-anchor="middle" x="881.68" y="-162.3" font-family="Times,serif" font-size="14.00">assert</text>
</g>
<!-- io&#45;&gt;assert -->
<g id="edge20" class="edge">
<title>io&#45;&gt;assert</title>
<path fill="none" stroke="black" d="M1132.41,-271.24C1126.04,-262.64 1117.41,-252.67 1107.68,-246 1054.44,-209.48 982.53,-188.37 934.25,-177.42"/>
<polygon fill="black" stroke="black" points="934.84,-173.96 924.33,-175.23 933.34,-180.8 934.84,-173.96"/>
</g>
<!-- bytes -->
<g id="node6" class="node">
<title>bytes</title>
<ellipse fill="none" stroke="black" cx="1273.68" cy="-166.5" rx="39.5" ry="39.5"/>
<ellipse fill="none" stroke="black" cx="1273.68" cy="-166.5" rx="43.5" ry="43.5"/>
<text text-anchor="middle" x="1273.68" y="-162.3" font-family="Times,serif" font-size="14.00">bytes</text>
</g>
<!-- io&#45;&gt;bytes -->
<g id="edge21" class="edge">
<title>io&#45;&gt;bytes</title>
<path fill="none" stroke="black" d="M1162.03,-271.42C1180.79,-253.96 1210.5,-226.31 1234.56,-203.92"/>
<polygon fill="black" stroke="black" points="1237.22,-206.22 1242.15,-196.85 1232.45,-201.1 1237.22,-206.22"/>
</g>
<!-- internal -->
<g id="node4" class="node">
<title>internal</title>
<ellipse fill="none" stroke="black" cx="211.68" cy="-43.5" rx="39.5" ry="39.5"/>
<ellipse fill="none" stroke="black" cx="211.68" cy="-43.5" rx="43.5" ry="43.5"/>
<text text-anchor="middle" x="211.68" y="-39.3" font-family="Times,serif" font-size="14.00">internal</text>
</g>
<!-- assert&#45;&gt;internal -->
<g id="edge2" class="edge">
<title>assert&#45;&gt;internal</title>
<path fill="none" stroke="black" d="M839.01,-157.79C721.56,-136.58 393.74,-77.38 264.77,-54.09"/>
<polygon fill="black" stroke="black" points="265.2,-50.61 254.74,-52.28 263.95,-57.5 265.2,-50.61"/>
</g>
<!-- async -->
<g id="node5" class="node">
<title>async</title>
<ellipse fill="none" stroke="black" cx="300.68" cy="-289.5" rx="39.5" ry="39.5"/>
<ellipse fill="none" stroke="black" cx="300.68" cy="-289.5" rx="43.5" ry="43.5"/>
<text text-anchor="middle" x="300.68" y="-285.3" font-family="Times,serif" font-size="14.00">async</text>
</g>
<!-- cli -->
<g id="node7" class="node">
<title>cli</title>
<polygon fill="pink" stroke="black" points="898.68,-430.5 844.68,-430.5 844.68,-394.5 898.68,-394.5 898.68,-430.5"/>
<text text-anchor="middle" x="871.68" y="-408.3" font-family="Times,serif" font-size="14.00">cli</text>
</g>
<!-- cli&#45;&gt;assert -->
<g id="edge3" class="edge">
<title>cli&#45;&gt;assert</title>
<path fill="none" stroke="black" d="M872.39,-394.34C873.84,-358.78 877.25,-275.74 879.51,-220.61"/>
<polygon fill="black" stroke="black" points="883.02,-220.46 879.93,-210.32 876.02,-220.17 883.02,-220.46"/>
</g>
<!-- collections -->
<g id="node8" class="node">
<title>collections</title>
<ellipse fill="none" stroke="black" cx="1248.68" cy="-412.5" rx="39.5" ry="39.5"/>
<ellipse fill="none" stroke="black" cx="1248.68" cy="-412.5" rx="43.5" ry="43.5"/>
<text text-anchor="middle" x="1248.68" y="-408.3" font-family="Times,serif" font-size="14.00">collections</text>
</g>
<!-- crypto -->
<g id="node9" class="node">
<title>crypto</title>
<ellipse fill="none" stroke="black" cx="1392.68" cy="-166.5" rx="39.5" ry="39.5"/>
<ellipse fill="none" stroke="black" cx="1392.68" cy="-166.5" rx="43.5" ry="43.5"/>
<text text-anchor="middle" x="1392.68" y="-162.3" font-family="Times,serif" font-size="14.00">crypto</text>
</g>
<!-- csv -->
<g id="node10" class="node">
<title>csv</title>
<ellipse fill="none" stroke="black" cx="1014.68" cy="-535.5" rx="39.5" ry="39.5"/>
<ellipse fill="none" stroke="black" cx="1014.68" cy="-535.5" rx="43.5" ry="43.5"/>
<text text-anchor="middle" x="1014.68" y="-531.3" font-family="Times,serif" font-size="14.00">csv</text>
</g>
<!-- csv&#45;&gt;assert -->
<g id="edge4" class="edge">
<title>csv&#45;&gt;assert</title>
<path fill="none" stroke="black" d="M1001.42,-493.59C983,-437.4 948.15,-333.37 914.68,-246 910.96,-236.27 906.78,-225.95 902.68,-216.1"/>
<polygon fill="black" stroke="black" points="905.89,-214.7 898.8,-206.83 899.44,-217.41 905.89,-214.7"/>
</g>
<!-- streams -->
<g id="node11" class="node">
<title>streams</title>
<ellipse fill="none" stroke="black" cx="1143.68" cy="-412.5" rx="39.5" ry="39.5"/>
<ellipse fill="none" stroke="black" cx="1143.68" cy="-412.5" rx="43.5" ry="43.5"/>
<text text-anchor="middle" x="1143.68" y="-408.3" font-family="Times,serif" font-size="14.00">streams</text>
</g>
<!-- csv&#45;&gt;streams -->
<g id="edge5" class="edge">
<title>csv&#45;&gt;streams</title>
<path fill="none" stroke="black" d="M1045.91,-505.21C1063.68,-488.54 1086.1,-467.51 1104.98,-449.8"/>
<polygon fill="black" stroke="black" points="1107.4,-452.33 1112.3,-442.94 1102.61,-447.23 1107.4,-452.33"/>
</g>
<!-- streams&#45;&gt;io -->
<g id="edge32" class="edge">
<title>streams&#45;&gt;io</title>
<path fill="none" stroke="black" d="M1143.68,-368.84C1143.68,-351.87 1143.68,-332.84 1143.68,-317.78"/>
<polygon fill="black" stroke="black" points="1147.18,-317.61 1143.68,-307.61 1140.18,-317.61 1147.18,-317.61"/>
</g>
<!-- streams&#45;&gt;assert -->
<g id="edge30" class="edge">
<title>streams&#45;&gt;assert</title>
<path fill="none" stroke="black" d="M1166.82,-375.53C1186.89,-339.29 1208.58,-283.5 1179.68,-246 1150.03,-207.52 1012.49,-184.13 935.05,-173.79"/>
<polygon fill="black" stroke="black" points="935.37,-170.3 925,-172.47 934.46,-177.24 935.37,-170.3"/>
</g>
<!-- streams&#45;&gt;bytes -->
<g id="edge31" class="edge">
<title>streams&#45;&gt;bytes</title>
<path fill="none" stroke="black" d="M1175.41,-382.62C1181.83,-377.65 1188.75,-372.84 1195.68,-369 1239.19,-344.87 1272.71,-373.44 1301.68,-333 1326.38,-298.53 1313.96,-249.79 1298.63,-214.12"/>
<polygon fill="black" stroke="black" points="1301.78,-212.58 1294.48,-204.89 1295.39,-215.45 1301.78,-212.58"/>
</g>
<!-- data_\nstructures -->
<g id="node12" class="node">
<title>data_\nstructures</title>
<polygon fill="pink" stroke="black" points="1433.11,-679.1 1362.26,-679.1 1362.26,-637.9 1433.11,-637.9 1433.11,-679.1"/>
<text text-anchor="middle" x="1397.68" y="-662.7" font-family="Times,serif" font-size="14.00">data_</text>
<text text-anchor="middle" x="1397.68" y="-645.9" font-family="Times,serif" font-size="14.00">structures</text>
</g>
<!-- datetime -->
<g id="node13" class="node">
<title>datetime</title>
<polygon fill="pink" stroke="black" points="1514.89,-676.5 1450.48,-676.5 1450.48,-640.5 1514.89,-640.5 1514.89,-676.5"/>
<text text-anchor="middle" x="1482.68" y="-654.3" font-family="Times,serif" font-size="14.00">datetime</text>
</g>
<!-- dotenv -->
<g id="node14" class="node">
<title>dotenv</title>
<polygon fill="pink" stroke="black" points="1586.79,-676.5 1532.58,-676.5 1532.58,-640.5 1586.79,-640.5 1586.79,-676.5"/>
<text text-anchor="middle" x="1559.68" y="-654.3" font-family="Times,serif" font-size="14.00">dotenv</text>
</g>
<!-- encoding -->
<g id="node15" class="node">
<title>encoding</title>
<ellipse fill="none" stroke="black" cx="744.68" cy="-412.5" rx="39.5" ry="39.5"/>
<ellipse fill="none" stroke="black" cx="744.68" cy="-412.5" rx="43.5" ry="43.5"/>
<text text-anchor="middle" x="744.68" y="-408.3" font-family="Times,serif" font-size="14.00">encoding</text>
</g>
<!-- expect -->
<g id="node16" class="node">
<title>expect</title>
<polygon fill="pink" stroke="black" points="238.68,-307.5 184.68,-307.5 184.68,-271.5 238.68,-271.5 238.68,-307.5"/>
<text text-anchor="middle" x="211.68" y="-285.3" font-family="Times,serif" font-size="14.00">expect</text>
</g>
<!-- expect&#45;&gt;assert -->
<g id="edge6" class="edge">
<title>expect&#45;&gt;assert</title>
<path fill="none" stroke="black" d="M221.81,-271.23C228.08,-262.18 236.96,-251.79 247.68,-246 347.64,-191.96 693.78,-174.14 827.96,-169.17"/>
<polygon fill="black" stroke="black" points="828.13,-172.67 838,-168.81 827.88,-165.68 828.13,-172.67"/>
</g>
<!-- expect&#45;&gt;internal -->
<g id="edge7" class="edge">
<title>expect&#45;&gt;internal</title>
<path fill="none" stroke="black" d="M211.68,-271.34C211.68,-235.78 211.68,-152.74 211.68,-97.61"/>
<polygon fill="black" stroke="black" points="215.18,-97.32 211.68,-87.32 208.18,-97.32 215.18,-97.32"/>
</g>
<!-- fmt -->
<g id="node17" class="node">
<title>fmt</title>
<ellipse fill="none" stroke="black" cx="706.68" cy="-289.5" rx="39.5" ry="39.5"/>
<ellipse fill="none" stroke="black" cx="706.68" cy="-289.5" rx="43.5" ry="43.5"/>
<text text-anchor="middle" x="706.68" y="-285.3" font-family="Times,serif" font-size="14.00">fmt</text>
</g>
<!-- front_\nmatter -->
<g id="node18" class="node">
<title>front_\nmatter</title>
<ellipse fill="none" stroke="black" cx="1300.68" cy="-658.5" rx="39.5" ry="39.5"/>
<ellipse fill="none" stroke="black" cx="1300.68" cy="-658.5" rx="43.5" ry="43.5"/>
<text text-anchor="middle" x="1300.68" y="-662.7" font-family="Times,serif" font-size="14.00">front_</text>
<text text-anchor="middle" x="1300.68" y="-645.9" font-family="Times,serif" font-size="14.00">matter</text>
</g>
<!-- toml -->
<g id="node19" class="node">
<title>toml</title>
<ellipse fill="none" stroke="black" cx="1248.68" cy="-535.5" rx="39.5" ry="39.5"/>
<ellipse fill="none" stroke="black" cx="1248.68" cy="-535.5" rx="43.5" ry="43.5"/>
<text text-anchor="middle" x="1248.68" y="-531.3" font-family="Times,serif" font-size="14.00">toml</text>
</g>
<!-- front_\nmatter&#45;&gt;toml -->
<g id="edge8" class="edge">
<title>front_\nmatter&#45;&gt;toml</title>
<path fill="none" stroke="black" d="M1283.8,-618.21C1279.3,-607.75 1274.39,-596.32 1269.7,-585.42"/>
<polygon fill="black" stroke="black" points="1272.82,-583.81 1265.66,-576 1266.39,-586.57 1272.82,-583.81"/>
</g>
<!-- yaml -->
<g id="node20" class="node">
<title>yaml</title>
<ellipse fill="none" stroke="black" cx="1353.68" cy="-535.5" rx="39.5" ry="39.5"/>
<ellipse fill="none" stroke="black" cx="1353.68" cy="-535.5" rx="43.5" ry="43.5"/>
<text text-anchor="middle" x="1353.68" y="-531.3" font-family="Times,serif" font-size="14.00">yaml</text>
</g>
<!-- front_\nmatter&#45;&gt;yaml -->
<g id="edge9" class="edge">
<title>front_\nmatter&#45;&gt;yaml</title>
<path fill="none" stroke="black" d="M1317.89,-618.21C1322.57,-607.54 1327.68,-595.86 1332.55,-584.75"/>
<polygon fill="black" stroke="black" points="1335.76,-586.15 1336.56,-575.59 1329.34,-583.34 1335.76,-586.15"/>
</g>
<!-- toml&#45;&gt;collections -->
<g id="edge41" class="edge">
<title>toml&#45;&gt;collections</title>
<path fill="none" stroke="black" d="M1248.68,-491.84C1248.68,-483.62 1248.68,-474.91 1248.68,-466.41"/>
<polygon fill="black" stroke="black" points="1252.18,-466.18 1248.68,-456.18 1245.18,-466.18 1252.18,-466.18"/>
</g>
<!-- fs -->
<g id="node21" class="node">
<title>fs</title>
<ellipse fill="none" stroke="black" cx="562.68" cy="-289.5" rx="39.5" ry="39.5"/>
<ellipse fill="none" stroke="black" cx="562.68" cy="-289.5" rx="43.5" ry="43.5"/>
<text text-anchor="middle" x="562.68" y="-285.3" font-family="Times,serif" font-size="14.00">fs</text>
</g>
<!-- path -->
<g id="node22" class="node">
<title>path</title>
<ellipse fill="none" stroke="black" cx="128.68" cy="-166.5" rx="39.5" ry="39.5"/>
<ellipse fill="none" stroke="black" cx="128.68" cy="-166.5" rx="43.5" ry="43.5"/>
<text text-anchor="middle" x="128.68" y="-162.3" font-family="Times,serif" font-size="14.00">path</text>
</g>
<!-- fs&#45;&gt;path -->
<g id="edge10" class="edge">
<title>fs&#45;&gt;path</title>
<path fill="none" stroke="black" d="M531.24,-259.36C524.5,-254.28 517.15,-249.51 509.68,-246 400.68,-194.74 258.62,-176.8 182.48,-170.64"/>
<polygon fill="black" stroke="black" points="182.42,-167.12 172.18,-169.84 181.88,-174.1 182.42,-167.12"/>
</g>
<!-- html -->
<g id="node23" class="node">
<title>html</title>
<polygon fill="pink" stroke="black" points="1658.68,-676.5 1604.68,-676.5 1604.68,-640.5 1658.68,-640.5 1658.68,-676.5"/>
<text text-anchor="middle" x="1631.68" y="-654.3" font-family="Times,serif" font-size="14.00">html</text>
</g>
<!-- http -->
<g id="node24" class="node">
<title>http</title>
<polygon fill="pink" stroke="black" points="627.68,-553.5 573.68,-553.5 573.68,-517.5 627.68,-517.5 627.68,-553.5"/>
<text text-anchor="middle" x="600.68" y="-531.3" font-family="Times,serif" font-size="14.00">http</text>
</g>
<!-- http&#45;&gt;assert -->
<g id="edge11" class="edge">
<title>http&#45;&gt;assert</title>
<path fill="none" stroke="black" d="M627.7,-531.2C669.9,-524.62 751.3,-505.89 796.68,-456 812.82,-438.26 849.59,-297.35 869.05,-219.23"/>
<polygon fill="black" stroke="black" points="872.55,-219.65 871.56,-209.1 865.76,-217.96 872.55,-219.65"/>
</g>
<!-- http&#45;&gt;async -->
<g id="edge13" class="edge">
<title>http&#45;&gt;async</title>
<path fill="none" stroke="black" d="M573.66,-532.35C501.13,-525.98 305.1,-504.5 266.68,-456 239.76,-422.02 255.26,-372.11 273.17,-336"/>
<polygon fill="black" stroke="black" points="276.51,-337.15 278,-326.67 270.29,-333.94 276.51,-337.15"/>
</g>
<!-- http&#45;&gt;cli -->
<g id="edge17" class="edge">
<title>http&#45;&gt;cli</title>
<path fill="none" stroke="black" d="M628.01,-529.54C673.05,-520.46 764.45,-498.09 830.68,-456 838.27,-451.18 845.47,-444.67 851.66,-438.2"/>
<polygon fill="black" stroke="black" points="854.31,-440.49 858.42,-430.73 849.12,-435.8 854.31,-440.49"/>
</g>
<!-- http&#45;&gt;streams -->
<g id="edge16" class="edge">
<title>http&#45;&gt;streams</title>
<path fill="none" stroke="black" d="M627.92,-532.03C718.24,-523.54 1007.02,-494 1091.68,-456 1096.04,-454.04 1100.34,-451.63 1104.48,-448.94"/>
<polygon fill="black" stroke="black" points="1106.57,-451.75 1112.73,-443.13 1102.54,-446.03 1106.57,-451.75"/>
</g>
<!-- http&#45;&gt;encoding -->
<g id="edge12" class="edge">
<title>http&#45;&gt;encoding</title>
<path fill="none" stroke="black" d="M621.01,-517.42C642.46,-499.4 676.84,-470.5 703.92,-447.75"/>
<polygon fill="black" stroke="black" points="706.3,-450.33 711.7,-441.21 701.8,-444.97 706.3,-450.33"/>
</g>
<!-- http&#45;&gt;fmt -->
<g id="edge18" class="edge">
<title>http&#45;&gt;fmt</title>
<path fill="none" stroke="black" d="M598.84,-517.41C596.26,-486.07 594.39,-418.11 619.68,-369 625.37,-357.95 645.44,-339.57 664.88,-323.37"/>
<polygon fill="black" stroke="black" points="667.33,-325.88 672.83,-316.83 662.89,-320.48 667.33,-325.88"/>
</g>
<!-- http&#45;&gt;path -->
<g id="edge14" class="edge">
<title>http&#45;&gt;path</title>
<path fill="none" stroke="black" d="M573.57,-533.85C511.8,-531.26 357.54,-518.53 248.68,-456 184.05,-418.88 163.15,-401.89 134.68,-333 119.91,-297.24 119.01,-253.34 121.48,-219.74"/>
<polygon fill="black" stroke="black" points="124.98,-219.93 122.34,-209.67 118,-219.33 124.98,-219.93"/>
</g>
<!-- media_types -->
<g id="node25" class="node">
<title>media_types</title>
<ellipse fill="none" stroke="black" cx="440.68" cy="-412.5" rx="59.69" ry="18"/>
<text text-anchor="middle" x="440.68" y="-408.3" font-family="Times,serif" font-size="14.00">media_types</text>
</g>
<!-- http&#45;&gt;media_types -->
<g id="edge15" class="edge">
<title>http&#45;&gt;media_types</title>
<path fill="none" stroke="black" d="M578.1,-517.42C549.83,-496.04 501.35,-459.38 470.18,-435.81"/>
<polygon fill="black" stroke="black" points="471.96,-432.77 461.88,-429.53 467.74,-438.35 471.96,-432.77"/>
</g>
<!-- net -->
<g id="node26" class="node">
<title>net</title>
<polygon fill="pink" stroke="black" points="572.68,-430.5 518.68,-430.5 518.68,-394.5 572.68,-394.5 572.68,-430.5"/>
<text text-anchor="middle" x="545.68" y="-408.3" font-family="Times,serif" font-size="14.00">net</text>
</g>
<!-- http&#45;&gt;net -->
<g id="edge19" class="edge">
<title>http&#45;&gt;net</title>
<path fill="none" stroke="black" d="M592.92,-517.42C583.8,-497.36 568.56,-463.83 557.86,-440.29"/>
<polygon fill="black" stroke="black" points="560.91,-438.54 553.59,-430.88 554.54,-441.44 560.91,-438.54"/>
</g>
<!-- ini -->
<g id="node27" class="node">
<title>ini</title>
<polygon fill="pink" stroke="black" points="1730.68,-676.5 1676.68,-676.5 1676.68,-640.5 1730.68,-640.5 1730.68,-676.5"/>
<text text-anchor="middle" x="1703.68" y="-654.3" font-family="Times,serif" font-size="14.00">ini</text>
</g>
<!-- json -->
<g id="node28" class="node">
<title>json</title>
<ellipse fill="none" stroke="black" cx="1127.68" cy="-535.5" rx="39.5" ry="39.5"/>
<ellipse fill="none" stroke="black" cx="1127.68" cy="-535.5" rx="43.5" ry="43.5"/>
<text text-anchor="middle" x="1127.68" y="-531.3" font-family="Times,serif" font-size="14.00">json</text>
</g>
<!-- json&#45;&gt;streams -->
<g id="edge22" class="edge">
<title>json&#45;&gt;streams</title>
<path fill="none" stroke="black" d="M1133.28,-492.18C1134.39,-483.76 1135.58,-474.81 1136.73,-466.09"/>
<polygon fill="black" stroke="black" points="1140.22,-466.37 1138.06,-456 1133.28,-465.46 1140.22,-466.37"/>
</g>
<!-- jsonc -->
<g id="node29" class="node">
<title>jsonc</title>
<ellipse fill="none" stroke="black" cx="1031.68" cy="-658.5" rx="39.5" ry="39.5"/>
<ellipse fill="none" stroke="black" cx="1031.68" cy="-658.5" rx="43.5" ry="43.5"/>
<text text-anchor="middle" x="1031.68" y="-654.3" font-family="Times,serif" font-size="14.00">jsonc</text>
</g>
<!-- jsonc&#45;&gt;assert -->
<g id="edge23" class="edge">
<title>jsonc&#45;&gt;assert</title>
<path fill="none" stroke="black" d="M999.5,-629.05C985.82,-615.26 970.93,-597.65 961.68,-579 930.66,-516.4 901.17,-316.22 888.36,-220.05"/>
<polygon fill="black" stroke="black" points="891.81,-219.42 887.03,-209.97 884.87,-220.34 891.81,-219.42"/>
</g>
<!-- jsonc&#45;&gt;json -->
<g id="edge24" class="edge">
<title>jsonc&#45;&gt;json</title>
<path fill="none" stroke="black" d="M1058.42,-623.79C1069.66,-609.63 1082.84,-593.02 1094.67,-578.11"/>
<polygon fill="black" stroke="black" points="1097.61,-580.03 1101.08,-570.02 1092.13,-575.68 1097.61,-580.03"/>
</g>
<!-- log -->
<g id="node30" class="node">
<title>log</title>
<polygon fill="pink" stroke="black" points="682.68,-430.5 628.68,-430.5 628.68,-394.5 682.68,-394.5 682.68,-430.5"/>
<text text-anchor="middle" x="655.68" y="-408.3" font-family="Times,serif" font-size="14.00">log</text>
</g>
<!-- log&#45;&gt;io -->
<g id="edge26" class="edge">
<title>log&#45;&gt;io</title>
<path fill="none" stroke="black" d="M665.73,-394.08C671.97,-384.98 680.86,-374.6 691.68,-369 856.53,-283.77 942.83,-418.23 1107.68,-333 1115.29,-329.07 1121.95,-322.76 1127.4,-316.21"/>
<polygon fill="black" stroke="black" points="1130.42,-318.01 1133.63,-307.92 1124.82,-313.8 1130.42,-318.01"/>
</g>
<!-- log&#45;&gt;assert -->
<g id="edge28" class="edge">
<title>log&#45;&gt;assert</title>
<path fill="none" stroke="black" d="M667.73,-394.44C674.19,-386.1 682.66,-376.3 691.68,-369 717.96,-347.73 735.08,-357.2 758.68,-333 788.94,-301.98 777.21,-281.05 802.68,-246 813.9,-230.56 828.22,-215.35 841.57,-202.5"/>
<polygon fill="black" stroke="black" points="844,-205.02 848.87,-195.61 839.19,-199.93 844,-205.02"/>
</g>
<!-- log&#45;&gt;fmt -->
<g id="edge25" class="edge">
<title>log&#45;&gt;fmt</title>
<path fill="none" stroke="black" d="M662.88,-394.42C668.92,-380.09 677.86,-358.89 686.09,-339.36"/>
<polygon fill="black" stroke="black" points="689.4,-340.53 690.05,-329.95 682.94,-337.81 689.4,-340.53"/>
</g>
<!-- log&#45;&gt;fs -->
<g id="edge27" class="edge">
<title>log&#45;&gt;fs</title>
<path fill="none" stroke="black" d="M642.56,-394.42C630.21,-378.36 611.24,-353.68 594.88,-332.4"/>
<polygon fill="black" stroke="black" points="597.63,-330.23 588.76,-324.43 592.08,-334.49 597.63,-330.23"/>
</g>
<!-- media_\ntypes -->
<g id="node31" class="node">
<title>media_\ntypes</title>
<ellipse fill="none" stroke="black" cx="1792.68" cy="-658.5" rx="39.5" ry="39.5"/>
<ellipse fill="none" stroke="black" cx="1792.68" cy="-658.5" rx="43.5" ry="43.5"/>
<text text-anchor="middle" x="1792.68" y="-662.7" font-family="Times,serif" font-size="14.00">media_</text>
<text text-anchor="middle" x="1792.68" y="-645.9" font-family="Times,serif" font-size="14.00">types</text>
</g>
<!-- msgpack -->
<g id="node32" class="node">
<title>msgpack</title>
<polygon fill="pink" stroke="black" points="1292.45,-307.5 1226.92,-307.5 1226.92,-271.5 1292.45,-271.5 1292.45,-307.5"/>
<text text-anchor="middle" x="1259.68" y="-285.3" font-family="Times,serif" font-size="14.00">msgpack</text>
</g>
<!-- msgpack&#45;&gt;bytes -->
<g id="edge29" class="edge">
<title>msgpack&#45;&gt;bytes</title>
<path fill="none" stroke="black" d="M1261.66,-271.42C1263.22,-257.95 1265.48,-238.42 1267.62,-219.92"/>
<polygon fill="black" stroke="black" points="1271.12,-220.12 1268.79,-209.79 1264.16,-219.32 1271.12,-220.12"/>
</g>
<!-- regexp -->
<g id="node33" class="node">
<title>regexp</title>
<polygon fill="pink" stroke="black" points="1908.77,-676.5 1854.59,-676.5 1854.59,-640.5 1908.77,-640.5 1908.77,-676.5"/>
<text text-anchor="middle" x="1881.68" y="-654.3" font-family="Times,serif" font-size="14.00">regexp</text>
</g>
<!-- semver -->
<g id="node34" class="node">
<title>semver</title>
<polygon fill="pink" stroke="black" points="1983.11,-676.5 1926.26,-676.5 1926.26,-640.5 1983.11,-640.5 1983.11,-676.5"/>
<text text-anchor="middle" x="1954.68" y="-654.3" font-family="Times,serif" font-size="14.00">semver</text>
</g>
<!-- testing -->
<g id="node35" class="node">
<title>testing</title>
<ellipse fill="none" stroke="black" cx="319.68" cy="-412.5" rx="39.5" ry="39.5"/>
<ellipse fill="none" stroke="black" cx="319.68" cy="-412.5" rx="43.5" ry="43.5"/>
<text text-anchor="middle" x="319.68" y="-408.3" font-family="Times,serif" font-size="14.00">testing</text>
</g>
<!-- testing&#45;&gt;assert -->
<g id="edge33" class="edge">
<title>testing&#45;&gt;assert</title>
<path fill="none" stroke="black" d="M350.61,-381.8C357.16,-376.84 364.32,-372.25 371.68,-369 471.54,-324.87 527.65,-398.92 614.68,-333 648.46,-307.42 622.4,-274.59 653.68,-246 702.4,-201.48 777.57,-182.02 828.15,-173.64"/>
<polygon fill="black" stroke="black" points="828.89,-177.07 838.23,-172.06 827.81,-170.15 828.89,-177.07"/>
</g>
<!-- testing&#45;&gt;internal -->
<g id="edge37" class="edge">
<title>testing&#45;&gt;internal</title>
<path fill="none" stroke="black" d="M276.35,-406.27C202.64,-396.39 57.87,-372.37 27.68,-333 -30.57,-257.02 13.3,-195.63 75.68,-123 98.66,-96.25 133.15,-76.48 161.65,-63.48"/>
<polygon fill="black" stroke="black" points="163.32,-66.57 171.06,-59.33 160.49,-60.16 163.32,-66.57"/>
</g>
<!-- testing&#45;&gt;async -->
<g id="edge39" class="edge">
<title>testing&#45;&gt;async</title>
<path fill="none" stroke="black" d="M313.04,-369.18C311.68,-360.56 310.25,-351.41 308.85,-342.5"/>
<polygon fill="black" stroke="black" points="312.3,-341.93 307.29,-332.59 305.39,-343.01 312.3,-341.93"/>
</g>
<!-- testing&#45;&gt;fmt -->
<g id="edge36" class="edge">
<title>testing&#45;&gt;fmt</title>
<path fill="none" stroke="black" d="M350.56,-381.7C357.11,-376.74 364.3,-372.19 371.68,-369 485.68,-319.83 533.43,-379.14 648.68,-333 654.46,-330.69 660.19,-327.66 665.67,-324.29"/>
<polygon fill="black" stroke="black" points="667.63,-327.19 674.05,-318.76 663.77,-321.35 667.63,-327.19"/>
</g>
<!-- testing&#45;&gt;fs -->
<g id="edge35" class="edge">
<title>testing&#45;&gt;fs</title>
<path fill="none" stroke="black" d="M351.19,-382.21C357.63,-377.27 364.61,-372.59 371.68,-369 428.19,-340.28 453.04,-361.45 509.68,-333 514,-330.83 518.29,-328.27 522.46,-325.49"/>
<polygon fill="black" stroke="black" points="524.68,-328.21 530.8,-319.55 520.62,-322.5 524.68,-328.21"/>
</g>
<!-- testing&#45;&gt;path -->
<g id="edge34" class="edge">
<title>testing&#45;&gt;path</title>
<path fill="none" stroke="black" d="M278.14,-398.83C245.71,-386.87 201.9,-365.81 175.68,-333 149.97,-300.83 138.32,-255.3 133.05,-220.13"/>
<polygon fill="black" stroke="black" points="136.49,-219.48 131.66,-210.05 129.55,-220.43 136.49,-219.48"/>
</g>
<!-- data_structures -->
<g id="node36" class="node">
<title>data_structures</title>
<ellipse fill="none" stroke="black" cx="431.68" cy="-289.5" rx="69.48" ry="18"/>
<text text-anchor="middle" x="431.68" y="-285.3" font-family="Times,serif" font-size="14.00">data_structures</text>
</g>
<!-- testing&#45;&gt;data_structures -->
<g id="edge38" class="edge">
<title>testing&#45;&gt;data_structures</title>
<path fill="none" stroke="black" d="M348.82,-380.02C367.65,-359.68 391.78,-333.6 409.15,-314.85"/>
<polygon fill="black" stroke="black" points="411.91,-317.01 416.14,-307.29 406.78,-312.26 411.91,-317.01"/>
</g>
<!-- text -->
<g id="node37" class="node">
<title>text</title>
<polygon fill="pink" stroke="black" points="1020.68,-307.5 966.68,-307.5 966.68,-271.5 1020.68,-271.5 1020.68,-307.5"/>
<text text-anchor="middle" x="993.68" y="-285.3" font-family="Times,serif" font-size="14.00">text</text>
</g>
<!-- text&#45;&gt;assert -->
<g id="edge40" class="edge">
<title>text&#45;&gt;assert</title>
<path fill="none" stroke="black" d="M977.87,-271.42C962.34,-254.64 938.08,-228.43 917.82,-206.54"/>
<polygon fill="black" stroke="black" points="920.2,-203.96 910.84,-199 915.06,-208.71 920.2,-203.96"/>
</g>
<!-- ulid -->
<g id="node38" class="node">
<title>ulid</title>
<polygon fill="pink" stroke="black" points="2054.68,-676.5 2000.68,-676.5 2000.68,-640.5 2054.68,-640.5 2054.68,-676.5"/>
<text text-anchor="middle" x="2027.68" y="-654.3" font-family="Times,serif" font-size="14.00">ulid</text>
</g>
<!-- url -->
<g id="node39" class="node">
<title>url</title>
<polygon fill="pink" stroke="black" points="90.68,-307.5 36.68,-307.5 36.68,-271.5 90.68,-271.5 90.68,-307.5"/>
<text text-anchor="middle" x="63.68" y="-285.3" font-family="Times,serif" font-size="14.00">url</text>
</g>
<!-- url&#45;&gt;path -->
<g id="edge42" class="edge">
<title>url&#45;&gt;path</title>
<path fill="none" stroke="black" d="M72.86,-271.42C80.84,-256.56 92.79,-234.32 103.58,-214.22"/>
<polygon fill="black" stroke="black" points="106.8,-215.64 108.45,-205.17 100.63,-212.33 106.8,-215.64"/>
</g>
<!-- uuid -->
<g id="node40" class="node">
<title>uuid</title>
<ellipse fill="none" stroke="black" cx="1392.68" cy="-289.5" rx="39.5" ry="39.5"/>
<ellipse fill="none" stroke="black" cx="1392.68" cy="-289.5" rx="43.5" ry="43.5"/>
<text text-anchor="middle" x="1392.68" y="-285.3" font-family="Times,serif" font-size="14.00">uuid</text>
</g>
<!-- uuid&#45;&gt;bytes -->
<g id="edge43" class="edge">
<title>uuid&#45;&gt;bytes</title>
<path fill="none" stroke="black" d="M1362.65,-257.97C1347.01,-242.06 1327.73,-222.46 1311.12,-205.57"/>
<polygon fill="black" stroke="black" points="1313.21,-202.7 1303.7,-198.02 1308.22,-207.61 1313.21,-202.7"/>
</g>
<!-- uuid&#45;&gt;crypto -->
<g id="edge44" class="edge">
<title>uuid&#45;&gt;crypto</title>
<path fill="none" stroke="black" d="M1392.68,-245.84C1392.68,-237.62 1392.68,-228.91 1392.68,-220.41"/>
<polygon fill="black" stroke="black" points="1396.18,-220.18 1392.68,-210.18 1389.18,-220.18 1396.18,-220.18"/>
</g>
<!-- webgpu -->
<g id="node41" class="node">
<title>webgpu</title>
<polygon fill="pink" stroke="black" points="1099,-307.5 1038.36,-307.5 1038.36,-271.5 1099,-271.5 1099,-307.5"/>
<text text-anchor="middle" x="1068.68" y="-285.3" font-family="Times,serif" font-size="14.00">webgpu</text>
</g>
<!-- webgpu&#45;&gt;assert -->
<g id="edge45" class="edge">
<title>webgpu&#45;&gt;assert</title>
<path fill="none" stroke="black" d="M1055.41,-271.48C1048.35,-263.15 1039.19,-253.35 1029.68,-246 999.37,-222.57 961.06,-202.46 931.01,-188.47"/>
<polygon fill="black" stroke="black" points="932.12,-185.12 921.57,-184.14 929.2,-191.49 932.12,-185.12"/>
</g>
</g>
</svg>
