<?xml version="1.0" encoding="UTF-8" standalone="no"?>
<!DOCTYPE svg PUBLIC "-//W3C//DTD SVG 1.1//EN"
 "http://www.w3.org/Graphics/SVG/1.1/DTD/svg11.dtd">
<!-- Generated by graphviz version 2.44.0 (20200518.1210)
 -->
<!-- Title: std_deps Pages: 1 -->
<svg width="2112pt" height="710pt"
 viewBox="0.00 0.00 2111.71 710.00" xmlns="http://www.w3.org/2000/svg" xmlns:xlink="http://www.w3.org/1999/xlink">
<g id="graph0" class="graph" transform="scale(1 1) rotate(0) translate(4 706)">
<title>std_deps</title>
<polygon fill="white" stroke="transparent" points="-4,4 -4,-706 2107.71,-706 2107.71,4 -4,4"/>
<!-- archive -->
<g id="node1" class="node">
<title>archive</title>
<polygon fill="pink" stroke="black" points="1089.4,-430.5 1032.01,-430.5 1032.01,-394.5 1089.4,-394.5 1089.4,-430.5"/>
<text text-anchor="middle" x="1060.71" y="-408.3" font-family="Times,serif" font-size="14.00">archive</text>
</g>
<!-- io -->
<g id="node2" class="node">
<title>io</title>
<polygon fill="pink" stroke="black" points="1111.71,-307.5 1057.71,-307.5 1057.71,-271.5 1111.71,-271.5 1111.71,-307.5"/>
<text text-anchor="middle" x="1084.71" y="-285.3" font-family="Times,serif" font-size="14.00">io</text>
</g>
<!-- archive&#45;&gt;io -->
<g id="edge1" class="edge">
<title>archive&#45;&gt;io</title>
<path fill="none" stroke="black" d="M1064.1,-394.42C1068.04,-374.54 1074.61,-341.42 1079.27,-317.92"/>
<polygon fill="black" stroke="black" points="1082.75,-318.37 1081.26,-307.88 1075.88,-317.01 1082.75,-318.37"/>
</g>
<!-- assert -->
<g id="node3" class="node">
<title>assert</title>
<ellipse fill="none" stroke="black" cx="860.71" cy="-166.5" rx="39.5" ry="39.5"/>
<ellipse fill="none" stroke="black" cx="860.71" cy="-166.5" rx="43.5" ry="43.5"/>
<text text-anchor="middle" x="860.71" y="-162.3" font-family="Times,serif" font-size="14.00">assert</text>
</g>
<!-- archive&#45;&gt;assert -->
<g id="edge2" class="edge">
<title>archive&#45;&gt;assert</title>
<path fill="none" stroke="black" d="M1039.69,-394.43C1028.58,-385.99 1014.42,-376.1 1000.71,-369 958.02,-346.89 930.72,-368.87 898.71,-333 883.93,-316.44 873.39,-262.1 867.21,-220.15"/>
<polygon fill="black" stroke="black" points="870.65,-219.46 865.78,-210.06 863.72,-220.45 870.65,-219.46"/>
</g>
<!-- io&#45;&gt;assert -->
<g id="edge21" class="edge">
<title>io&#45;&gt;assert</title>
<path fill="none" stroke="black" d="M1073.27,-271.48C1066.85,-262.95 1058.23,-252.97 1048.71,-246 1007.26,-215.67 952.36,-194.49 912.59,-181.84"/>
<polygon fill="black" stroke="black" points="913.41,-178.43 902.82,-178.81 911.33,-185.12 913.41,-178.43"/>
</g>
<!-- bytes -->
<g id="node6" class="node">
<title>bytes</title>
<ellipse fill="none" stroke="black" cx="1252.71" cy="-166.5" rx="39.5" ry="39.5"/>
<ellipse fill="none" stroke="black" cx="1252.71" cy="-166.5" rx="43.5" ry="43.5"/>
<text text-anchor="middle" x="1252.71" y="-162.3" font-family="Times,serif" font-size="14.00">bytes</text>
</g>
<!-- io&#45;&gt;bytes -->
<g id="edge22" class="edge">
<title>io&#45;&gt;bytes</title>
<path fill="none" stroke="black" d="M1108.42,-271.42C1134.58,-252.58 1177.21,-221.88 1209.37,-198.72"/>
<polygon fill="black" stroke="black" points="1211.65,-201.39 1217.72,-192.7 1207.56,-195.71 1211.65,-201.39"/>
</g>
<!-- internal -->
<g id="node4" class="node">
<title>internal</title>
<ellipse fill="none" stroke="black" cx="566.71" cy="-43.5" rx="39.5" ry="39.5"/>
<ellipse fill="none" stroke="black" cx="566.71" cy="-43.5" rx="43.5" ry="43.5"/>
<text text-anchor="middle" x="566.71" y="-39.3" font-family="Times,serif" font-size="14.00">internal</text>
</g>
<!-- assert&#45;&gt;internal -->
<g id="edge3" class="edge">
<title>assert&#45;&gt;internal</title>
<path fill="none" stroke="black" d="M820.75,-149.06C767.51,-127.14 673.35,-88.39 615.83,-64.72"/>
<polygon fill="black" stroke="black" points="617.16,-61.48 606.58,-60.91 614.49,-67.95 617.16,-61.48"/>
</g>
<!-- async -->
<g id="node5" class="node">
<title>async</title>
<ellipse fill="none" stroke="black" cx="67.71" cy="-289.5" rx="39.5" ry="39.5"/>
<ellipse fill="none" stroke="black" cx="67.71" cy="-289.5" rx="43.5" ry="43.5"/>
<text text-anchor="middle" x="67.71" y="-285.3" font-family="Times,serif" font-size="14.00">async</text>
</g>
<!-- cli -->
<g id="node7" class="node">
<title>cli</title>
<polygon fill="pink" stroke="black" points="991.71,-430.5 937.71,-430.5 937.71,-394.5 991.71,-394.5 991.71,-430.5"/>
<text text-anchor="middle" x="964.71" y="-408.3" font-family="Times,serif" font-size="14.00">cli</text>
</g>
<!-- cli&#45;&gt;assert -->
<g id="edge4" class="edge">
<title>cli&#45;&gt;assert</title>
<path fill="none" stroke="black" d="M951.8,-394.17C945.17,-385.95 936.61,-376.35 927.71,-369 903.14,-348.71 882.02,-360.37 865.71,-333 845.41,-298.95 845.53,-253.57 849.96,-218.94"/>
<polygon fill="black" stroke="black" points="853.43,-219.41 851.38,-209.02 846.5,-218.42 853.43,-219.41"/>
</g>
<!-- collections -->
<g id="node8" class="node">
<title>collections</title>
<ellipse fill="none" stroke="black" cx="1349.71" cy="-412.5" rx="39.5" ry="39.5"/>
<ellipse fill="none" stroke="black" cx="1349.71" cy="-412.5" rx="43.5" ry="43.5"/>
<text text-anchor="middle" x="1349.71" y="-408.3" font-family="Times,serif" font-size="14.00">collections</text>
</g>
<!-- crypto -->
<g id="node9" class="node">
<title>crypto</title>
<ellipse fill="none" stroke="black" cx="1371.71" cy="-166.5" rx="39.5" ry="39.5"/>
<ellipse fill="none" stroke="black" cx="1371.71" cy="-166.5" rx="43.5" ry="43.5"/>
<text text-anchor="middle" x="1371.71" y="-162.3" font-family="Times,serif" font-size="14.00">crypto</text>
</g>
<!-- csv -->
<g id="node10" class="node">
<title>csv</title>
<ellipse fill="none" stroke="black" cx="1139.71" cy="-535.5" rx="39.5" ry="39.5"/>
<ellipse fill="none" stroke="black" cx="1139.71" cy="-535.5" rx="43.5" ry="43.5"/>
<text text-anchor="middle" x="1139.71" y="-531.3" font-family="Times,serif" font-size="14.00">csv</text>
</g>
<!-- csv&#45;&gt;assert -->
<g id="edge5" class="edge">
<title>csv&#45;&gt;assert</title>
<path fill="none" stroke="black" d="M1142.61,-492.07C1146.55,-421.21 1150.07,-282.93 1120.71,-246 1094.93,-213.57 982.03,-188.67 913.76,-176.25"/>
<polygon fill="black" stroke="black" points="914.08,-172.75 903.62,-174.43 912.85,-179.64 914.08,-172.75"/>
</g>
<!-- streams -->
<g id="node11" class="node">
<title>streams</title>
<ellipse fill="none" stroke="black" cx="1211.71" cy="-412.5" rx="39.5" ry="39.5"/>
<ellipse fill="none" stroke="black" cx="1211.71" cy="-412.5" rx="43.5" ry="43.5"/>
<text text-anchor="middle" x="1211.71" y="-408.3" font-family="Times,serif" font-size="14.00">streams</text>
</g>
<!-- csv&#45;&gt;streams -->
<g id="edge6" class="edge">
<title>csv&#45;&gt;streams</title>
<path fill="none" stroke="black" d="M1161.7,-497.54C1168.96,-485.34 1177.12,-471.63 1184.7,-458.88"/>
<polygon fill="black" stroke="black" points="1187.74,-460.62 1189.85,-450.24 1181.73,-457.04 1187.74,-460.62"/>
</g>
<!-- streams&#45;&gt;io -->
<g id="edge32" class="edge">
<title>streams&#45;&gt;io</title>
<path fill="none" stroke="black" d="M1180.64,-381.9C1159.02,-361.3 1130.55,-334.17 1110.25,-314.84"/>
<polygon fill="black" stroke="black" points="1112.56,-312.2 1102.9,-307.83 1107.73,-317.27 1112.56,-312.2"/>
</g>
<!-- streams&#45;&gt;assert -->
<g id="edge30" class="edge">
<title>streams&#45;&gt;assert</title>
<path fill="none" stroke="black" d="M1201.91,-370.11C1190.9,-326.89 1172.12,-263.08 1153.71,-246 1087.64,-184.73 979.01,-170.3 914.21,-167.46"/>
<polygon fill="black" stroke="black" points="914.33,-163.96 904.21,-167.1 914.07,-170.96 914.33,-163.96"/>
</g>
<!-- streams&#45;&gt;bytes -->
<g id="edge31" class="edge">
<title>streams&#45;&gt;bytes</title>
<path fill="none" stroke="black" d="M1244.75,-384.06C1258.67,-370.35 1273.35,-352.52 1280.71,-333 1294.98,-295.15 1285.54,-249.7 1273.91,-216.01"/>
<polygon fill="black" stroke="black" points="1277.13,-214.6 1270.42,-206.39 1270.54,-216.99 1277.13,-214.6"/>
</g>
<!-- data_\nstructures -->
<g id="node12" class="node">
<title>data_\nstructures</title>
<polygon fill="pink" stroke="black" points="1482.13,-679.1 1411.29,-679.1 1411.29,-637.9 1482.13,-637.9 1482.13,-679.1"/>
<text text-anchor="middle" x="1446.71" y="-662.7" font-family="Times,serif" font-size="14.00">data_</text>
<text text-anchor="middle" x="1446.71" y="-645.9" font-family="Times,serif" font-size="14.00">structures</text>
</g>
<!-- datetime -->
<g id="node13" class="node">
<title>datetime</title>
<polygon fill="pink" stroke="black" points="1563.91,-676.5 1499.5,-676.5 1499.5,-640.5 1563.91,-640.5 1563.91,-676.5"/>
<text text-anchor="middle" x="1531.71" y="-654.3" font-family="Times,serif" font-size="14.00">datetime</text>
</g>
<!-- dotenv -->
<g id="node14" class="node">
<title>dotenv</title>
<polygon fill="pink" stroke="black" points="1635.81,-676.5 1581.6,-676.5 1581.6,-640.5 1635.81,-640.5 1635.81,-676.5"/>
<text text-anchor="middle" x="1608.71" y="-654.3" font-family="Times,serif" font-size="14.00">dotenv</text>
</g>
<!-- encoding -->
<g id="node15" class="node">
<title>encoding</title>
<ellipse fill="none" stroke="black" cx="875.71" cy="-412.5" rx="39.5" ry="39.5"/>
<ellipse fill="none" stroke="black" cx="875.71" cy="-412.5" rx="43.5" ry="43.5"/>
<text text-anchor="middle" x="875.71" y="-408.3" font-family="Times,serif" font-size="14.00">encoding</text>
</g>
<!-- expect -->
<g id="node16" class="node">
<title>expect</title>
<polygon fill="pink" stroke="black" points="593.71,-307.5 539.71,-307.5 539.71,-271.5 593.71,-271.5 593.71,-307.5"/>
<text text-anchor="middle" x="566.71" y="-285.3" font-family="Times,serif" font-size="14.00">expect</text>
</g>
<!-- expect&#45;&gt;assert -->
<g id="edge7" class="edge">
<title>expect&#45;&gt;assert</title>
<path fill="none" stroke="black" d="M579.89,-271.15C587.25,-262.52 597.06,-252.56 607.71,-246 670.61,-207.25 754.2,-186.22 807.74,-175.93"/>
<polygon fill="black" stroke="black" points="808.51,-179.35 817.7,-174.07 807.23,-172.47 808.51,-179.35"/>
</g>
<!-- expect&#45;&gt;internal -->
<g id="edge8" class="edge">
<title>expect&#45;&gt;internal</title>
<path fill="none" stroke="black" d="M566.71,-271.34C566.71,-235.78 566.71,-152.74 566.71,-97.61"/>
<polygon fill="black" stroke="black" points="570.21,-97.32 566.71,-87.32 563.21,-97.32 570.21,-97.32"/>
</g>
<!-- fmt -->
<g id="node17" class="node">
<title>fmt</title>
<ellipse fill="none" stroke="black" cx="731.71" cy="-289.5" rx="39.5" ry="39.5"/>
<ellipse fill="none" stroke="black" cx="731.71" cy="-289.5" rx="43.5" ry="43.5"/>
<text text-anchor="middle" x="731.71" y="-285.3" font-family="Times,serif" font-size="14.00">fmt</text>
</g>
<!-- front_\nmatter -->
<g id="node18" class="node">
<title>front_\nmatter</title>
<ellipse fill="none" stroke="black" cx="1349.71" cy="-658.5" rx="39.5" ry="39.5"/>
<ellipse fill="none" stroke="black" cx="1349.71" cy="-658.5" rx="43.5" ry="43.5"/>
<text text-anchor="middle" x="1349.71" y="-662.7" font-family="Times,serif" font-size="14.00">front_</text>
<text text-anchor="middle" x="1349.71" y="-645.9" font-family="Times,serif" font-size="14.00">matter</text>
</g>
<!-- toml -->
<g id="node19" class="node">
<title>toml</title>
<ellipse fill="none" stroke="black" cx="1349.71" cy="-535.5" rx="39.5" ry="39.5"/>
<ellipse fill="none" stroke="black" cx="1349.71" cy="-535.5" rx="43.5" ry="43.5"/>
<text text-anchor="middle" x="1349.71" y="-531.3" font-family="Times,serif" font-size="14.00">toml</text>
</g>
<!-- front_\nmatter&#45;&gt;toml -->
<g id="edge9" class="edge">
<title>front_\nmatter&#45;&gt;toml</title>
<path fill="none" stroke="black" d="M1349.71,-614.84C1349.71,-606.62 1349.71,-597.91 1349.71,-589.41"/>
<polygon fill="black" stroke="black" points="1353.21,-589.18 1349.71,-579.18 1346.21,-589.18 1353.21,-589.18"/>
</g>
<!-- yaml -->
<g id="node20" class="node">
<title>yaml</title>
<ellipse fill="none" stroke="black" cx="1454.71" cy="-535.5" rx="39.5" ry="39.5"/>
<ellipse fill="none" stroke="black" cx="1454.71" cy="-535.5" rx="43.5" ry="43.5"/>
<text text-anchor="middle" x="1454.71" y="-531.3" font-family="Times,serif" font-size="14.00">yaml</text>
</g>
<!-- front_\nmatter&#45;&gt;yaml -->
<g id="edge10" class="edge">
<title>front_\nmatter&#45;&gt;yaml</title>
<path fill="none" stroke="black" d="M1377.85,-625.07C1390.67,-610.29 1406,-592.63 1419.57,-576.99"/>
<polygon fill="black" stroke="black" points="1422.58,-578.86 1426.49,-569.02 1417.29,-574.27 1422.58,-578.86"/>
</g>
<!-- toml&#45;&gt;collections -->
<g id="edge41" class="edge">
<title>toml&#45;&gt;collections</title>
<path fill="none" stroke="black" d="M1349.71,-491.84C1349.71,-483.62 1349.71,-474.91 1349.71,-466.41"/>
<polygon fill="black" stroke="black" points="1353.21,-466.18 1349.71,-456.18 1346.21,-466.18 1353.21,-466.18"/>
</g>
<!-- fs -->
<g id="node21" class="node">
<title>fs</title>
<ellipse fill="none" stroke="black" cx="477.71" cy="-289.5" rx="39.5" ry="39.5"/>
<ellipse fill="none" stroke="black" cx="477.71" cy="-289.5" rx="43.5" ry="43.5"/>
<text text-anchor="middle" x="477.71" y="-285.3" font-family="Times,serif" font-size="14.00">fs</text>
</g>
<!-- path -->
<g id="node22" class="node">
<title>path</title>
<ellipse fill="none" stroke="black" cx="230.71" cy="-166.5" rx="39.5" ry="39.5"/>
<ellipse fill="none" stroke="black" cx="230.71" cy="-166.5" rx="43.5" ry="43.5"/>
<text text-anchor="middle" x="230.71" y="-162.3" font-family="Times,serif" font-size="14.00">path</text>
</g>
<!-- fs&#45;&gt;path -->
<g id="edge11" class="edge">
<title>fs&#45;&gt;path</title>
<path fill="none" stroke="black" d="M445.42,-260.19C438.81,-255.1 431.73,-250.12 424.71,-246 378.81,-219.1 321.95,-197.29 281.68,-183.55"/>
<polygon fill="black" stroke="black" points="282.67,-180.19 272.07,-180.31 280.44,-186.82 282.67,-180.19"/>
</g>
<!-- html -->
<g id="node23" class="node">
<title>html</title>
<polygon fill="pink" stroke="black" points="1707.71,-676.5 1653.71,-676.5 1653.71,-640.5 1707.71,-640.5 1707.71,-676.5"/>
<text text-anchor="middle" x="1680.71" y="-654.3" font-family="Times,serif" font-size="14.00">html</text>
</g>
<!-- http -->
<g id="node24" class="node">
<title>http</title>
<polygon fill="pink" stroke="black" points="792.71,-553.5 738.71,-553.5 738.71,-517.5 792.71,-517.5 792.71,-553.5"/>
<text text-anchor="middle" x="765.71" y="-531.3" font-family="Times,serif" font-size="14.00">http</text>
</g>
<!-- http&#45;&gt;assert -->
<g id="edge12" class="edge">
<title>http&#45;&gt;assert</title>
<path fill="none" stroke="black" d="M770.16,-517.29C783.87,-464.32 825.83,-302.25 847.48,-218.62"/>
<polygon fill="black" stroke="black" points="850.89,-219.38 850.01,-208.82 844.12,-217.62 850.89,-219.38"/>
</g>
<!-- http&#45;&gt;async -->
<g id="edge14" class="edge">
<title>http&#45;&gt;async</title>
<path fill="none" stroke="black" d="M738.68,-534.32C664.51,-532.93 452.77,-522.95 293.71,-456 220.29,-425.1 148.29,-365.98 105.96,-327.41"/>
<polygon fill="black" stroke="black" points="108.14,-324.66 98.41,-320.46 103.4,-329.81 108.14,-324.66"/>
</g>
<!-- http&#45;&gt;cli -->
<g id="edge18" class="edge">
<title>http&#45;&gt;cli</title>
<path fill="none" stroke="black" d="M792.79,-525.24C826.56,-512.87 885.01,-488.65 927.71,-456 934.26,-450.99 940.52,-444.66 945.96,-438.43"/>
<polygon fill="black" stroke="black" points="948.68,-440.63 952.37,-430.7 943.29,-436.16 948.68,-440.63"/>
</g>
<!-- http&#45;&gt;streams -->
<g id="edge17" class="edge">
<title>http&#45;&gt;streams</title>
<path fill="none" stroke="black" d="M792.78,-529.35C849.92,-518.2 986.77,-490.09 1098.71,-456 1119.82,-449.57 1142.67,-441.24 1162.27,-433.66"/>
<polygon fill="black" stroke="black" points="1163.57,-436.92 1171.61,-430.02 1161.02,-430.4 1163.57,-436.92"/>
</g>
<!-- http&#45;&gt;encoding -->
<g id="edge13" class="edge">
<title>http&#45;&gt;encoding</title>
<path fill="none" stroke="black" d="M781.23,-517.42C796.39,-500.75 819.98,-474.8 839.8,-452.99"/>
<polygon fill="black" stroke="black" points="842.5,-455.23 846.64,-445.48 837.32,-450.52 842.5,-455.23"/>
</g>
<!-- http&#45;&gt;fmt -->
<g id="edge19" class="edge">
<title>http&#45;&gt;fmt</title>
<path fill="none" stroke="black" d="M764.14,-517.05C761.32,-486.81 754.92,-422.75 746.71,-369 745.38,-360.33 743.8,-351.16 742.16,-342.25"/>
<polygon fill="black" stroke="black" points="745.59,-341.54 740.31,-332.36 738.71,-342.84 745.59,-341.54"/>
</g>
<!-- http&#45;&gt;path -->
<g id="edge15" class="edge">
<title>http&#45;&gt;path</title>
<path fill="none" stroke="black" d="M738.56,-533.1C634.64,-527.42 262.58,-504.07 155.71,-456 79.87,-421.89 49.13,-408.7 14.71,-333 -1.3,-297.8 -7.48,-277.67 14.71,-246 51.12,-194.03 125.66,-176.33 176.89,-170.39"/>
<polygon fill="black" stroke="black" points="177.55,-173.84 187.13,-169.32 176.82,-166.87 177.55,-173.84"/>
</g>
<!-- media_types -->
<g id="node25" class="node">
<title>media_types</title>
<ellipse fill="none" stroke="black" cx="605.71" cy="-412.5" rx="59.69" ry="18"/>
<text text-anchor="middle" x="605.71" y="-408.3" font-family="Times,serif" font-size="14.00">media_types</text>
</g>
<!-- http&#45;&gt;media_types -->
<g id="edge16" class="edge">
<title>http&#45;&gt;media_types</title>
<path fill="none" stroke="black" d="M743.12,-517.42C714.86,-496.04 666.38,-459.38 635.2,-435.81"/>
<polygon fill="black" stroke="black" points="636.99,-432.77 626.9,-429.53 632.77,-438.35 636.99,-432.77"/>
</g>
<!-- net -->
<g id="node26" class="node">
<title>net</title>
<polygon fill="pink" stroke="black" points="737.71,-430.5 683.71,-430.5 683.71,-394.5 737.71,-394.5 737.71,-430.5"/>
<text text-anchor="middle" x="710.71" y="-408.3" font-family="Times,serif" font-size="14.00">net</text>
</g>
<!-- http&#45;&gt;net -->
<g id="edge20" class="edge">
<title>http&#45;&gt;net</title>
<path fill="none" stroke="black" d="M757.94,-517.42C748.82,-497.36 733.58,-463.83 722.89,-440.29"/>
<polygon fill="black" stroke="black" points="725.93,-438.54 718.61,-430.88 719.56,-441.44 725.93,-438.54"/>
</g>
<!-- ini -->
<g id="node27" class="node">
<title>ini</title>
<polygon fill="pink" stroke="black" points="1779.71,-676.5 1725.71,-676.5 1725.71,-640.5 1779.71,-640.5 1779.71,-676.5"/>
<text text-anchor="middle" x="1752.71" y="-654.3" font-family="Times,serif" font-size="14.00">ini</text>
</g>
<!-- json -->
<g id="node28" class="node">
<title>json</title>
<ellipse fill="none" stroke="black" cx="1244.71" cy="-535.5" rx="39.5" ry="39.5"/>
<ellipse fill="none" stroke="black" cx="1244.71" cy="-535.5" rx="43.5" ry="43.5"/>
<text text-anchor="middle" x="1244.71" y="-531.3" font-family="Times,serif" font-size="14.00">json</text>
</g>
<!-- json&#45;&gt;streams -->
<g id="edge23" class="edge">
<title>json&#45;&gt;streams</title>
<path fill="none" stroke="black" d="M1233.44,-493.2C1230.92,-483.95 1228.22,-474.03 1225.6,-464.45"/>
<polygon fill="black" stroke="black" points="1228.93,-463.34 1222.92,-454.62 1222.18,-465.19 1228.93,-463.34"/>
</g>
<!-- jsonc -->
<g id="node29" class="node">
<title>jsonc</title>
<ellipse fill="none" stroke="black" cx="1244.71" cy="-658.5" rx="39.5" ry="39.5"/>
<ellipse fill="none" stroke="black" cx="1244.71" cy="-658.5" rx="43.5" ry="43.5"/>
<text text-anchor="middle" x="1244.71" y="-654.3" font-family="Times,serif" font-size="14.00">jsonc</text>
</g>
<!-- jsonc&#45;&gt;json -->
<g id="edge24" class="edge">
<title>jsonc&#45;&gt;json</title>
<path fill="none" stroke="black" d="M1244.71,-614.84C1244.71,-606.62 1244.71,-597.91 1244.71,-589.41"/>
<polygon fill="black" stroke="black" points="1248.21,-589.18 1244.71,-579.18 1241.21,-589.18 1248.21,-589.18"/>
</g>
<!-- log -->
<g id="node30" class="node">
<title>log</title>
<polygon fill="pink" stroke="black" points="527.71,-430.5 473.71,-430.5 473.71,-394.5 527.71,-394.5 527.71,-430.5"/>
<text text-anchor="middle" x="500.71" y="-408.3" font-family="Times,serif" font-size="14.00">log</text>
</g>
<!-- log&#45;&gt;io -->
<g id="edge26" class="edge">
<title>log&#45;&gt;io</title>
<path fill="none" stroke="black" d="M510.43,-394.45C516.67,-385.22 525.67,-374.6 536.71,-369 740.18,-265.87 845.23,-436.13 1048.71,-333 1056.47,-329.07 1063.22,-322.64 1068.72,-315.97"/>
<polygon fill="black" stroke="black" points="1071.82,-317.66 1074.99,-307.55 1066.21,-313.48 1071.82,-317.66"/>
</g>
<!-- log&#45;&gt;assert -->
<g id="edge28" class="edge">
<title>log&#45;&gt;assert</title>
<path fill="none" stroke="black" d="M512.02,-394.3C518.4,-385.71 527.03,-375.74 536.71,-369 575.13,-342.24 600.83,-364.23 635.71,-333 667.84,-304.23 647.43,-275.7 678.71,-246 714.94,-211.6 768.62,-190.97 808.3,-179.55"/>
<polygon fill="black" stroke="black" points="809.36,-182.89 818.07,-176.85 807.49,-176.14 809.36,-182.89"/>
</g>
<!-- log&#45;&gt;fmt -->
<g id="edge25" class="edge">
<title>log&#45;&gt;fmt</title>
<path fill="none" stroke="black" d="M511.46,-394.35C517.8,-385.57 526.56,-375.39 536.71,-369 589.96,-335.43 616.87,-360.08 673.71,-333 679.33,-330.32 684.96,-327.07 690.39,-323.58"/>
<polygon fill="black" stroke="black" points="692.4,-326.44 698.71,-317.93 688.47,-320.65 692.4,-326.44"/>
</g>
<!-- log&#45;&gt;fs -->
<g id="edge27" class="edge">
<title>log&#45;&gt;fs</title>
<path fill="none" stroke="black" d="M497.46,-394.42C494.88,-380.84 491.12,-361.08 487.58,-342.43"/>
<polygon fill="black" stroke="black" points="491,-341.7 485.7,-332.53 484.13,-343 491,-341.7"/>
</g>
<!-- media_\ntypes -->
<g id="node31" class="node">
<title>media_\ntypes</title>
<ellipse fill="none" stroke="black" cx="1841.71" cy="-658.5" rx="39.5" ry="39.5"/>
<ellipse fill="none" stroke="black" cx="1841.71" cy="-658.5" rx="43.5" ry="43.5"/>
<text text-anchor="middle" x="1841.71" y="-662.7" font-family="Times,serif" font-size="14.00">media_</text>
<text text-anchor="middle" x="1841.71" y="-645.9" font-family="Times,serif" font-size="14.00">types</text>
</g>
<!-- msgpack -->
<g id="node32" class="node">
<title>msgpack</title>
<polygon fill="pink" stroke="black" points="1271.47,-307.5 1205.94,-307.5 1205.94,-271.5 1271.47,-271.5 1271.47,-307.5"/>
<text text-anchor="middle" x="1238.71" y="-285.3" font-family="Times,serif" font-size="14.00">msgpack</text>
</g>
<!-- msgpack&#45;&gt;bytes -->
<g id="edge29" class="edge">
<title>msgpack&#45;&gt;bytes</title>
<path fill="none" stroke="black" d="M1240.68,-271.42C1242.24,-257.95 1244.5,-238.42 1246.64,-219.92"/>
<polygon fill="black" stroke="black" points="1250.14,-220.12 1247.82,-209.79 1243.19,-219.32 1250.14,-220.12"/>
</g>
<!-- regexp -->
<g id="node33" class="node">
<title>regexp</title>
<polygon fill="pink" stroke="black" points="1957.8,-676.5 1903.62,-676.5 1903.62,-640.5 1957.8,-640.5 1957.8,-676.5"/>
<text text-anchor="middle" x="1930.71" y="-654.3" font-family="Times,serif" font-size="14.00">regexp</text>
</g>
<!-- semver -->
<g id="node34" class="node">
<title>semver</title>
<polygon fill="pink" stroke="black" points="2032.13,-676.5 1975.28,-676.5 1975.28,-640.5 2032.13,-640.5 2032.13,-676.5"/>
<text text-anchor="middle" x="2003.71" y="-654.3" font-family="Times,serif" font-size="14.00">semver</text>
</g>
<!-- testing -->
<g id="node35" class="node">
<title>testing</title>
<ellipse fill="none" stroke="black" cx="346.71" cy="-412.5" rx="39.5" ry="39.5"/>
<ellipse fill="none" stroke="black" cx="346.71" cy="-412.5" rx="43.5" ry="43.5"/>
<text text-anchor="middle" x="346.71" y="-408.3" font-family="Times,serif" font-size="14.00">testing</text>
</g>
<!-- testing&#45;&gt;assert -->
<g id="edge33" class="edge">
<title>testing&#45;&gt;assert</title>
<path fill="none" stroke="black" d="M387.09,-395.93C409.74,-387.46 438.6,-377.09 464.71,-369 525.25,-350.24 555.55,-375.35 602.71,-333 633.48,-305.37 606.08,-274.85 635.71,-246 682.44,-200.51 756.93,-181.28 807.28,-173.21"/>
<polygon fill="black" stroke="black" points="807.96,-176.65 817.33,-171.7 806.92,-169.73 807.96,-176.65"/>
</g>
<!-- testing&#45;&gt;internal -->
<g id="edge37" class="edge">
<title>testing&#45;&gt;internal</title>
<path fill="none" stroke="black" d="M306.51,-395.36C251.94,-373.36 160.9,-336.29 158.71,-333 106.75,-255.01 112.98,-190.77 177.71,-123 223.16,-75.41 417.4,-55.13 513.06,-47.91"/>
<polygon fill="black" stroke="black" points="513.39,-51.39 523.11,-47.17 512.88,-44.41 513.39,-51.39"/>
</g>
<!-- testing&#45;&gt;async -->
<g id="edge39" class="edge">
<title>testing&#45;&gt;async</title>
<path fill="none" stroke="black" d="M304.46,-400.48C258.82,-387.67 184.72,-364.24 125.71,-333 120.41,-330.19 115.05,-326.94 109.85,-323.52"/>
<polygon fill="black" stroke="black" points="111.5,-320.4 101.28,-317.63 107.54,-326.17 111.5,-320.4"/>
</g>
<!-- testing&#45;&gt;fmt -->
<g id="edge36" class="edge">
<title>testing&#45;&gt;fmt</title>
<path fill="none" stroke="black" d="M386.94,-395.45C409.55,-386.82 438.42,-376.46 464.71,-369 539.42,-347.79 561.79,-356.85 635.71,-333 651.8,-327.81 668.83,-320.8 684.01,-313.97"/>
<polygon fill="black" stroke="black" points="685.56,-317.11 693.2,-309.76 682.65,-310.75 685.56,-317.11"/>
</g>
<!-- testing&#45;&gt;fs -->
<g id="edge35" class="edge">
<title>testing&#45;&gt;fs</title>
<path fill="none" stroke="black" d="M378.42,-382.21C396.47,-365.54 419.23,-344.51 438.41,-326.8"/>
<polygon fill="black" stroke="black" points="440.86,-329.3 445.83,-319.94 436.11,-324.15 440.86,-329.3"/>
</g>
<!-- testing&#45;&gt;path -->
<g id="edge34" class="edge">
<title>testing&#45;&gt;path</title>
<path fill="none" stroke="black" d="M312.69,-384.97C297.08,-371.08 279.65,-352.85 268.71,-333 249.49,-298.14 239.97,-254.01 235.27,-220.09"/>
<polygon fill="black" stroke="black" points="238.71,-219.38 233.96,-209.91 231.76,-220.27 238.71,-219.38"/>
</g>
<!-- data_structures -->
<g id="node36" class="node">
<title>data_structures</title>
<ellipse fill="none" stroke="black" cx="346.71" cy="-289.5" rx="69.48" ry="18"/>
<text text-anchor="middle" x="346.71" y="-285.3" font-family="Times,serif" font-size="14.00">data_structures</text>
</g>
<!-- testing&#45;&gt;data_structures -->
<g id="edge38" class="edge">
<title>testing&#45;&gt;data_structures</title>
<path fill="none" stroke="black" d="M346.71,-368.84C346.71,-351.87 346.71,-332.84 346.71,-317.78"/>
<polygon fill="black" stroke="black" points="350.21,-317.61 346.71,-307.61 343.21,-317.61 350.21,-317.61"/>
</g>
<!-- text -->
<g id="node37" class="node">
<title>text</title>
<polygon fill="pink" stroke="black" points="961.71,-307.5 907.71,-307.5 907.71,-271.5 961.71,-271.5 961.71,-307.5"/>
<text text-anchor="middle" x="934.71" y="-285.3" font-family="Times,serif" font-size="14.00">text</text>
</g>
<!-- text&#45;&gt;assert -->
<g id="edge40" class="edge">
<title>text&#45;&gt;assert</title>
<path fill="none" stroke="black" d="M924.26,-271.42C914.92,-256.14 900.8,-233.06 888.25,-212.53"/>
<polygon fill="black" stroke="black" points="891.18,-210.62 882.98,-203.91 885.21,-214.27 891.18,-210.62"/>
</g>
<!-- ulid -->
<g id="node38" class="node">
<title>ulid</title>
<polygon fill="pink" stroke="black" points="2103.71,-676.5 2049.71,-676.5 2049.71,-640.5 2103.71,-640.5 2103.71,-676.5"/>
<text text-anchor="middle" x="2076.71" y="-654.3" font-family="Times,serif" font-size="14.00">ulid</text>
</g>
<!-- url -->
<g id="node39" class="node">
<title>url</title>
<polygon fill="pink" stroke="black" points="221.71,-307.5 167.71,-307.5 167.71,-271.5 221.71,-271.5 221.71,-307.5"/>
<text text-anchor="middle" x="194.71" y="-285.3" font-family="Times,serif" font-size="14.00">url</text>
</g>
<!-- url&#45;&gt;path -->
<g id="edge42" class="edge">
<title>url&#45;&gt;path</title>
<path fill="none" stroke="black" d="M199.79,-271.42C203.92,-257.55 209.96,-237.25 215.61,-218.26"/>
<polygon fill="black" stroke="black" points="219.01,-219.08 218.51,-208.49 212.31,-217.08 219.01,-219.08"/>
</g>
<!-- uuid -->
<g id="node40" class="node">
<title>uuid</title>
<ellipse fill="none" stroke="black" cx="1371.71" cy="-289.5" rx="39.5" ry="39.5"/>
<ellipse fill="none" stroke="black" cx="1371.71" cy="-289.5" rx="43.5" ry="43.5"/>
<text text-anchor="middle" x="1371.71" y="-285.3" font-family="Times,serif" font-size="14.00">uuid</text>
</g>
<!-- uuid&#45;&gt;bytes -->
<g id="edge43" class="edge">
<title>uuid&#45;&gt;bytes</title>
<path fill="none" stroke="black" d="M1341.68,-257.97C1326.04,-242.06 1306.76,-222.46 1290.15,-205.57"/>
<polygon fill="black" stroke="black" points="1292.23,-202.7 1282.73,-198.02 1287.24,-207.61 1292.23,-202.7"/>
</g>
<!-- uuid&#45;&gt;crypto -->
<g id="edge44" class="edge">
<title>uuid&#45;&gt;crypto</title>
<path fill="none" stroke="black" d="M1371.71,-245.84C1371.71,-237.62 1371.71,-228.91 1371.71,-220.41"/>
<polygon fill="black" stroke="black" points="1375.21,-220.18 1371.71,-210.18 1368.21,-220.18 1375.21,-220.18"/>
</g>
<!-- webgpu -->
<g id="node41" class="node">
<title>webgpu</title>
<polygon fill="pink" stroke="black" points="1040.03,-307.5 979.39,-307.5 979.39,-271.5 1040.03,-271.5 1040.03,-307.5"/>
<text text-anchor="middle" x="1009.71" y="-285.3" font-family="Times,serif" font-size="14.00">webgpu</text>
</g>
<!-- webgpu&#45;&gt;assert -->
<g id="edge45" class="edge">
<title>webgpu&#45;&gt;assert</title>
<path fill="none" stroke="black" d="M995.28,-271.17C988.23,-263.14 979.41,-253.7 970.71,-246 950.39,-228.04 926,-210.29 905.35,-196.23"/>
<polygon fill="black" stroke="black" points="907.3,-193.32 897.05,-190.64 903.39,-199.13 907.3,-193.32"/>
</g>
</g>
</svg>
