<?xml version="1.0" encoding="UTF-8" standalone="no"?>
<!DOCTYPE svg PUBLIC "-//W3C//DTD SVG 1.1//EN"
 "http://www.w3.org/Graphics/SVG/1.1/DTD/svg11.dtd">
<!-- Generated by graphviz version 2.44.0 (20200518.1210)
 -->
<!-- Title: std_deps Pages: 1 -->
<svg width="2193pt" height="620pt"
 viewBox="0.00 0.00 2193.26 620.00" xmlns="http://www.w3.org/2000/svg" xmlns:xlink="http://www.w3.org/1999/xlink">
<g id="graph0" class="graph" transform="scale(1 1) rotate(0) translate(4 616)">
<title>std_deps</title>
<polygon fill="white" stroke="transparent" points="-4,4 -4,-616 2189.26,-616 2189.26,4 -4,4"/>
<!-- archive -->
<g id="node1" class="node">
<title>archive</title>
<ellipse fill="none" stroke="black" cx="999.26" cy="-360" rx="36" ry="36"/>
<text text-anchor="middle" x="999.26" y="-355.8" font-family="Times,serif" font-size="14.00">archive</text>
</g>
<!-- io -->
<g id="node2" class="node">
<title>io</title>
<ellipse fill="none" stroke="black" cx="1191.26" cy="-252" rx="36" ry="36"/>
<text text-anchor="middle" x="1191.26" y="-247.8" font-family="Times,serif" font-size="14.00">io</text>
</g>
<!-- archive&#45;&gt;io -->
<g id="edge1" class="edge">
<title>archive&#45;&gt;io</title>
<path fill="none" stroke="black" d="M1030.54,-341.73C1063.45,-323.56 1115.37,-294.9 1151.25,-275.09"/>
<polygon fill="black" stroke="black" points="1152.94,-278.16 1160,-270.26 1149.56,-272.03 1152.94,-278.16"/>
</g>
<!-- assert -->
<g id="node3" class="node">
<title>assert</title>
<ellipse fill="lightgreen" stroke="black" cx="871.26" cy="-144" rx="36" ry="36"/>
<text text-anchor="middle" x="871.26" y="-139.8" font-family="Times,serif" font-size="14.00">assert</text>
</g>
<!-- archive&#45;&gt;assert -->
<g id="edge2" class="edge">
<title>archive&#45;&gt;assert</title>
<path fill="none" stroke="black" d="M971.93,-336.55C957.46,-323.55 940.25,-306.2 928.26,-288 907.99,-257.22 893.02,-218.1 883.52,-188.56"/>
<polygon fill="black" stroke="black" points="886.84,-187.44 880.51,-178.94 880.16,-189.53 886.84,-187.44"/>
</g>
<!-- io&#45;&gt;assert -->
<g id="edge21" class="edge">
<title>io&#45;&gt;assert</title>
<path fill="none" stroke="black" d="M1163.5,-228.99C1156.53,-224.2 1148.86,-219.52 1141.26,-216 1066.69,-181.44 972.45,-161.52 917.31,-152"/>
<polygon fill="black" stroke="black" points="917.6,-148.5 907.15,-150.29 916.43,-155.4 917.6,-148.5"/>
</g>
<!-- bytes -->
<g id="node6" class="node">
<title>bytes</title>
<ellipse fill="lightgreen" stroke="black" cx="1338.26" cy="-144" rx="36" ry="36"/>
<text text-anchor="middle" x="1338.26" y="-139.8" font-family="Times,serif" font-size="14.00">bytes</text>
</g>
<!-- io&#45;&gt;bytes -->
<g id="edge22" class="edge">
<title>io&#45;&gt;bytes</title>
<path fill="none" stroke="black" d="M1220.31,-230.06C1243.54,-213.31 1276.25,-189.71 1301.34,-171.62"/>
<polygon fill="black" stroke="black" points="1303.47,-174.41 1309.53,-165.72 1299.37,-168.73 1303.47,-174.41"/>
</g>
<!-- internal -->
<g id="node4" class="node">
<title>internal</title>
<ellipse fill="lightgreen" stroke="black" cx="229.26" cy="-36" rx="36" ry="36"/>
<text text-anchor="middle" x="229.26" y="-31.8" font-family="Times,serif" font-size="14.00">internal</text>
</g>
<!-- assert&#45;&gt;internal -->
<g id="edge3" class="edge">
<title>assert&#45;&gt;internal</title>
<path fill="none" stroke="black" d="M835.83,-137.15C726.9,-119.16 396.91,-64.68 275.09,-44.57"/>
<polygon fill="black" stroke="black" points="275.42,-41.07 264.98,-42.9 274.28,-47.98 275.42,-41.07"/>
</g>
<!-- async -->
<g id="node5" class="node">
<title>async</title>
<ellipse fill="none" stroke="black" cx="319.26" cy="-252" rx="36" ry="36"/>
<text text-anchor="middle" x="319.26" y="-247.8" font-family="Times,serif" font-size="14.00">async</text>
</g>
<!-- cli -->
<g id="node7" class="node">
<title>cli</title>
<ellipse fill="none" stroke="black" cx="551.26" cy="-360" rx="36" ry="36"/>
<text text-anchor="middle" x="551.26" y="-355.8" font-family="Times,serif" font-size="14.00">cli</text>
</g>
<!-- cli&#45;&gt;assert -->
<g id="edge4" class="edge">
<title>cli&#45;&gt;assert</title>
<path fill="none" stroke="black" d="M579.17,-336.91C584.78,-332.57 590.68,-328.1 596.26,-324 618.92,-307.36 629.62,-309.03 648.26,-288 672.27,-260.93 659.2,-240.02 686.26,-216 726,-180.74 785.11,-162.19 825.76,-153.01"/>
<polygon fill="black" stroke="black" points="826.64,-156.4 835.68,-150.88 825.16,-149.56 826.64,-156.4"/>
</g>
<!-- collections -->
<g id="node8" class="node">
<title>collections</title>
<ellipse fill="lightgreen" stroke="black" cx="1294.26" cy="-360" rx="36" ry="36"/>
<text text-anchor="middle" x="1294.26" y="-355.8" font-family="Times,serif" font-size="14.00">collections</text>
</g>
<!-- crypto -->
<g id="node9" class="node">
<title>crypto</title>
<ellipse fill="lightgreen" stroke="black" cx="1447.26" cy="-144" rx="36" ry="36"/>
<text text-anchor="middle" x="1447.26" y="-139.8" font-family="Times,serif" font-size="14.00">crypto</text>
</g>
<!-- csv -->
<g id="node10" class="node">
<title>csv</title>
<ellipse fill="none" stroke="black" cx="1114.26" cy="-468" rx="36" ry="36"/>
<text text-anchor="middle" x="1114.26" y="-463.8" font-family="Times,serif" font-size="14.00">csv</text>
</g>
<!-- csv&#45;&gt;assert -->
<g id="edge5" class="edge">
<title>csv&#45;&gt;assert</title>
<path fill="none" stroke="black" d="M1124.77,-433.31C1138.83,-380.98 1156.79,-279.59 1108.26,-216 1085,-185.51 978.89,-163.01 916.82,-152.19"/>
<polygon fill="black" stroke="black" points="917.33,-148.73 906.88,-150.49 916.15,-155.63 917.33,-148.73"/>
</g>
<!-- streams -->
<g id="node11" class="node">
<title>streams</title>
<ellipse fill="none" stroke="black" cx="1204.26" cy="-360" rx="36" ry="36"/>
<text text-anchor="middle" x="1204.26" y="-355.8" font-family="Times,serif" font-size="14.00">streams</text>
</g>
<!-- csv&#45;&gt;streams -->
<g id="edge6" class="edge">
<title>csv&#45;&gt;streams</title>
<path fill="none" stroke="black" d="M1137.21,-439.98C1148.63,-426.52 1162.58,-410.1 1174.79,-395.72"/>
<polygon fill="black" stroke="black" points="1177.56,-397.86 1181.36,-387.97 1172.22,-393.33 1177.56,-397.86"/>
</g>
<!-- streams&#45;&gt;io -->
<g id="edge33" class="edge">
<title>streams&#45;&gt;io</title>
<path fill="none" stroke="black" d="M1199.97,-324C1198.95,-315.68 1197.85,-306.68 1196.78,-297.98"/>
<polygon fill="black" stroke="black" points="1200.24,-297.46 1195.55,-287.97 1193.3,-298.32 1200.24,-297.46"/>
</g>
<!-- streams&#45;&gt;assert -->
<g id="edge31" class="edge">
<title>streams&#45;&gt;assert</title>
<path fill="none" stroke="black" d="M1223.81,-329.63C1242.08,-298.13 1262.88,-248.29 1236.26,-216 1196.32,-167.54 1006.29,-151.73 917.36,-146.93"/>
<polygon fill="black" stroke="black" points="917.46,-143.43 907.29,-146.41 917.09,-150.42 917.46,-143.43"/>
</g>
<!-- streams&#45;&gt;bytes -->
<g id="edge32" class="edge">
<title>streams&#45;&gt;bytes</title>
<path fill="none" stroke="black" d="M1231.29,-335.51C1236.98,-331.29 1243.13,-327.21 1249.26,-324 1296.71,-299.16 1332.55,-331.16 1364.26,-288 1386.2,-258.15 1374.43,-215.5 1360.39,-184.56"/>
<polygon fill="black" stroke="black" points="1363.46,-182.87 1356,-175.36 1357.15,-185.89 1363.46,-182.87"/>
</g>
<!-- data_\nstructures -->
<g id="node12" class="node">
<title>data_\nstructures</title>
<ellipse fill="none" stroke="black" cx="1429.26" cy="-576" rx="36" ry="36"/>
<text text-anchor="middle" x="1429.26" y="-580.2" font-family="Times,serif" font-size="14.00">data_</text>
<text text-anchor="middle" x="1429.26" y="-563.4" font-family="Times,serif" font-size="14.00">structures</text>
</g>
<!-- datetime -->
<g id="node13" class="node">
<title>datetime</title>
<ellipse fill="none" stroke="black" cx="1519.26" cy="-576" rx="36" ry="36"/>
<text text-anchor="middle" x="1519.26" y="-571.8" font-family="Times,serif" font-size="14.00">datetime</text>
</g>
<!-- dotenv -->
<g id="node14" class="node">
<title>dotenv</title>
<ellipse fill="none" stroke="black" cx="1609.26" cy="-576" rx="36" ry="36"/>
<text text-anchor="middle" x="1609.26" y="-571.8" font-family="Times,serif" font-size="14.00">dotenv</text>
</g>
<!-- encoding -->
<g id="node15" class="node">
<title>encoding</title>
<ellipse fill="lightgreen" stroke="black" cx="731.26" cy="-360" rx="36" ry="36"/>
<text text-anchor="middle" x="731.26" y="-355.8" font-family="Times,serif" font-size="14.00">encoding</text>
</g>
<!-- expect -->
<g id="node16" class="node">
<title>expect</title>
<ellipse fill="none" stroke="black" cx="229.26" cy="-252" rx="36" ry="36"/>
<text text-anchor="middle" x="229.26" y="-247.8" font-family="Times,serif" font-size="14.00">expect</text>
</g>
<!-- expect&#45;&gt;assert -->
<g id="edge7" class="edge">
<title>expect&#45;&gt;assert</title>
<path fill="none" stroke="black" d="M255.37,-226.94C261.23,-222.66 267.67,-218.71 274.26,-216 374.18,-174.96 702.75,-153.87 824.95,-147.3"/>
<polygon fill="black" stroke="black" points="825.3,-150.79 835.1,-146.76 824.92,-143.8 825.3,-150.79"/>
</g>
<!-- expect&#45;&gt;internal -->
<g id="edge8" class="edge">
<title>expect&#45;&gt;internal</title>
<path fill="none" stroke="black" d="M229.26,-215.66C229.26,-179.16 229.26,-122.05 229.26,-82.26"/>
<polygon fill="black" stroke="black" points="232.76,-82.03 229.26,-72.03 225.76,-82.03 232.76,-82.03"/>
</g>
<!-- fmt -->
<g id="node17" class="node">
<title>fmt</title>
<ellipse fill="none" stroke="black" cx="731.26" cy="-252" rx="36" ry="36"/>
<text text-anchor="middle" x="731.26" y="-247.8" font-family="Times,serif" font-size="14.00">fmt</text>
</g>
<!-- front_\nmatter -->
<g id="node18" class="node">
<title>front_\nmatter</title>
<ellipse fill="none" stroke="black" cx="1339.26" cy="-576" rx="36" ry="36"/>
<text text-anchor="middle" x="1339.26" y="-580.2" font-family="Times,serif" font-size="14.00">front_</text>
<text text-anchor="middle" x="1339.26" y="-563.4" font-family="Times,serif" font-size="14.00">matter</text>
</g>
<!-- toml -->
<g id="node19" class="node">
<title>toml</title>
<ellipse fill="none" stroke="black" cx="1294.26" cy="-468" rx="36" ry="36"/>
<text text-anchor="middle" x="1294.26" y="-463.8" font-family="Times,serif" font-size="14.00">toml</text>
</g>
<!-- front_\nmatter&#45;&gt;toml -->
<g id="edge9" class="edge">
<title>front_\nmatter&#45;&gt;toml</title>
<path fill="none" stroke="black" d="M1325.52,-542.62C1321.28,-532.65 1316.56,-521.51 1312.09,-510.99"/>
<polygon fill="black" stroke="black" points="1315.21,-509.38 1308.08,-501.55 1308.77,-512.12 1315.21,-509.38"/>
</g>
<!-- yaml -->
<g id="node20" class="node">
<title>yaml</title>
<ellipse fill="none" stroke="black" cx="1384.26" cy="-468" rx="36" ry="36"/>
<text text-anchor="middle" x="1384.26" y="-463.8" font-family="Times,serif" font-size="14.00">yaml</text>
</g>
<!-- front_\nmatter&#45;&gt;yaml -->
<g id="edge10" class="edge">
<title>front_\nmatter&#45;&gt;yaml</title>
<path fill="none" stroke="black" d="M1353.01,-542.62C1357.25,-532.65 1361.97,-521.51 1366.44,-510.99"/>
<polygon fill="black" stroke="black" points="1369.76,-512.12 1370.45,-501.55 1363.32,-509.38 1369.76,-512.12"/>
</g>
<!-- toml&#45;&gt;collections -->
<g id="edge42" class="edge">
<title>toml&#45;&gt;collections</title>
<path fill="none" stroke="black" d="M1294.26,-432C1294.26,-423.85 1294.26,-415.06 1294.26,-406.54"/>
<polygon fill="black" stroke="black" points="1297.76,-406.33 1294.26,-396.33 1290.76,-406.33 1297.76,-406.33"/>
</g>
<!-- fs -->
<g id="node21" class="node">
<title>fs</title>
<ellipse fill="none" stroke="black" cx="603.26" cy="-252" rx="36" ry="36"/>
<text text-anchor="middle" x="603.26" y="-247.8" font-family="Times,serif" font-size="14.00">fs</text>
</g>
<!-- path -->
<g id="node22" class="node">
<title>path</title>
<ellipse fill="lightgreen" stroke="black" cx="146.26" cy="-144" rx="36" ry="36"/>
<text text-anchor="middle" x="146.26" y="-139.8" font-family="Times,serif" font-size="14.00">path</text>
</g>
<!-- fs&#45;&gt;path -->
<g id="edge11" class="edge">
<title>fs&#45;&gt;path</title>
<path fill="none" stroke="black" d="M571.13,-235.58C555.98,-228.79 537.48,-221.2 520.26,-216 404.49,-181.03 263.12,-159.77 191.91,-150.5"/>
<polygon fill="black" stroke="black" points="192.29,-147.02 181.93,-149.21 191.4,-153.96 192.29,-147.02"/>
</g>
<!-- html -->
<g id="node23" class="node">
<title>html</title>
<ellipse fill="none" stroke="black" cx="1699.26" cy="-576" rx="36" ry="36"/>
<text text-anchor="middle" x="1699.26" y="-571.8" font-family="Times,serif" font-size="14.00">html</text>
</g>
<!-- http -->
<g id="node24" class="node">
<title>http</title>
<ellipse fill="none" stroke="black" cx="551.26" cy="-468" rx="36" ry="36"/>
<text text-anchor="middle" x="551.26" y="-463.8" font-family="Times,serif" font-size="14.00">http</text>
</g>
<!-- http&#45;&gt;assert -->
<g id="edge12" class="edge">
<title>http&#45;&gt;assert</title>
<path fill="none" stroke="black" d="M587.37,-466.82C640.44,-464.56 739.35,-452.44 796.26,-396 811.16,-381.23 843.55,-257.34 860.47,-189.31"/>
<polygon fill="black" stroke="black" points="863.95,-189.85 862.95,-179.3 857.15,-188.17 863.95,-189.85"/>
</g>
<!-- http&#45;&gt;async -->
<g id="edge14" class="edge">
<title>http&#45;&gt;async</title>
<path fill="none" stroke="black" d="M515.13,-465.54C431.67,-461.33 229.49,-446.07 188.26,-396 167.92,-371.3 170.54,-350.64 188.26,-324 211.22,-289.5 238.49,-308.9 274.26,-288 277.44,-286.14 280.65,-284.09 283.8,-281.93"/>
<polygon fill="black" stroke="black" points="285.91,-284.72 291.99,-276.05 281.83,-279.04 285.91,-284.72"/>
</g>
<!-- http&#45;&gt;cli -->
<g id="edge18" class="edge">
<title>http&#45;&gt;cli</title>
<path fill="none" stroke="black" d="M551.26,-432C551.26,-423.85 551.26,-415.06 551.26,-406.54"/>
<polygon fill="black" stroke="black" points="554.76,-406.33 551.26,-396.33 547.76,-406.33 554.76,-406.33"/>
</g>
<!-- http&#45;&gt;streams -->
<g id="edge17" class="edge">
<title>http&#45;&gt;streams</title>
<path fill="none" stroke="black" d="M586.98,-462.76C668.4,-452.89 873.87,-426.86 1044.26,-396 1083.4,-388.91 1127.53,-379.12 1159.52,-371.7"/>
<polygon fill="black" stroke="black" points="1160.51,-375.06 1169.45,-369.38 1158.92,-368.24 1160.51,-375.06"/>
</g>
<!-- http&#45;&gt;encoding -->
<g id="edge13" class="edge">
<title>http&#45;&gt;encoding</title>
<path fill="none" stroke="black" d="M583.81,-451.9C611.73,-438.47 652.66,-417.67 686.26,-396 689.36,-394.01 692.5,-391.85 695.62,-389.63"/>
<polygon fill="black" stroke="black" points="697.77,-392.39 703.74,-383.64 693.62,-386.76 697.77,-392.39"/>
</g>
<!-- http&#45;&gt;fmt -->
<g id="edge19" class="edge">
<title>http&#45;&gt;fmt</title>
<path fill="none" stroke="black" d="M587.46,-467.67C639.15,-466.41 732.67,-455.46 776.26,-396 799.61,-364.15 779.47,-319.82 759.2,-288.99"/>
<polygon fill="black" stroke="black" points="762.04,-286.95 753.51,-280.68 756.27,-290.91 762.04,-286.95"/>
</g>
<!-- http&#45;&gt;path -->
<g id="edge15" class="edge">
<title>http&#45;&gt;path</title>
<path fill="none" stroke="black" d="M515.04,-465.54C429.18,-461.27 216.97,-445.82 170.26,-396 118.4,-340.68 125.74,-245.31 135.9,-189.41"/>
<polygon fill="black" stroke="black" points="139.37,-189.93 137.82,-179.45 132.49,-188.61 139.37,-189.93"/>
</g>
<!-- media_types -->
<g id="node25" class="node">
<title>media_types</title>
<ellipse fill="none" stroke="black" cx="347.26" cy="-360" rx="59.69" ry="18"/>
<text text-anchor="middle" x="347.26" y="-355.8" font-family="Times,serif" font-size="14.00">media_types</text>
</g>
<!-- http&#45;&gt;media_types -->
<g id="edge16" class="edge">
<title>http&#45;&gt;media_types</title>
<path fill="none" stroke="black" d="M519.39,-450.44C483.13,-431.6 423.95,-400.85 385.31,-380.77"/>
<polygon fill="black" stroke="black" points="386.44,-377.41 375.95,-375.91 383.21,-383.62 386.44,-377.41"/>
</g>
<!-- net -->
<g id="node26" class="node">
<title>net</title>
<ellipse fill="none" stroke="black" cx="461.26" cy="-360" rx="36" ry="36"/>
<text text-anchor="middle" x="461.26" y="-355.8" font-family="Times,serif" font-size="14.00">net</text>
</g>
<!-- http&#45;&gt;net -->
<g id="edge20" class="edge">
<title>http&#45;&gt;net</title>
<path fill="none" stroke="black" d="M528.32,-439.98C516.9,-426.52 502.95,-410.1 490.74,-395.72"/>
<polygon fill="black" stroke="black" points="493.31,-393.33 484.17,-387.97 487.97,-397.86 493.31,-393.33"/>
</g>
<!-- ini -->
<g id="node27" class="node">
<title>ini</title>
<ellipse fill="none" stroke="black" cx="1789.26" cy="-576" rx="36" ry="36"/>
<text text-anchor="middle" x="1789.26" y="-571.8" font-family="Times,serif" font-size="14.00">ini</text>
</g>
<!-- json -->
<g id="node28" class="node">
<title>json</title>
<ellipse fill="none" stroke="black" cx="1204.26" cy="-468" rx="36" ry="36"/>
<text text-anchor="middle" x="1204.26" y="-463.8" font-family="Times,serif" font-size="14.00">json</text>
</g>
<!-- json&#45;&gt;streams -->
<g id="edge23" class="edge">
<title>json&#45;&gt;streams</title>
<path fill="none" stroke="black" d="M1204.26,-432C1204.26,-423.85 1204.26,-415.06 1204.26,-406.54"/>
<polygon fill="black" stroke="black" points="1207.76,-406.33 1204.26,-396.33 1200.76,-406.33 1207.76,-406.33"/>
</g>
<!-- jsonc -->
<g id="node29" class="node">
<title>jsonc</title>
<ellipse fill="none" stroke="black" cx="1044.26" cy="-576" rx="36" ry="36"/>
<text text-anchor="middle" x="1044.26" y="-571.8" font-family="Times,serif" font-size="14.00">jsonc</text>
</g>
<!-- jsonc&#45;&gt;assert -->
<g id="edge24" class="edge">
<title>jsonc&#45;&gt;assert</title>
<path fill="none" stroke="black" d="M1024.08,-546.02C990.31,-495.95 922.84,-388.9 890.26,-288 880.02,-256.27 875.29,-218.86 873.11,-190.26"/>
<polygon fill="black" stroke="black" points="876.6,-189.89 872.42,-180.16 869.61,-190.37 876.6,-189.89"/>
</g>
<!-- jsonc&#45;&gt;json -->
<g id="edge25" class="edge">
<title>jsonc&#45;&gt;json</title>
<path fill="none" stroke="black" d="M1075.1,-557.19C1098.6,-543.33 1131.51,-523.27 1159.26,-504 1162.29,-501.9 1165.38,-499.67 1168.46,-497.4"/>
<polygon fill="black" stroke="black" points="1170.65,-500.13 1176.53,-491.32 1166.44,-494.54 1170.65,-500.13"/>
</g>
<!-- log -->
<g id="node30" class="node">
<title>log</title>
<ellipse fill="none" stroke="black" cx="641.26" cy="-360" rx="36" ry="36"/>
<text text-anchor="middle" x="641.26" y="-355.8" font-family="Times,serif" font-size="14.00">log</text>
</g>
<!-- log&#45;&gt;io -->
<g id="edge27" class="edge">
<title>log&#45;&gt;io</title>
<path fill="none" stroke="black" d="M667.3,-334.77C673.17,-330.5 679.63,-326.6 686.26,-324 861.55,-255.39 925.52,-333.12 1108.26,-288 1122.31,-284.53 1137.05,-279 1150.14,-273.34"/>
<polygon fill="black" stroke="black" points="1151.65,-276.5 1159.35,-269.23 1148.8,-270.11 1151.65,-276.5"/>
</g>
<!-- log&#45;&gt;assert -->
<g id="edge29" class="edge">
<title>log&#45;&gt;assert</title>
<path fill="none" stroke="black" d="M668.49,-335.88C674.17,-331.63 680.25,-327.45 686.26,-324 723.63,-302.56 743.49,-315.97 776.26,-288 804.62,-263.8 798.67,-247.07 819.26,-216 826.86,-204.53 835.55,-192.35 843.62,-181.37"/>
<polygon fill="black" stroke="black" points="846.5,-183.36 849.64,-173.24 840.88,-179.19 846.5,-183.36"/>
</g>
<!-- log&#45;&gt;fmt -->
<g id="edge26" class="edge">
<title>log&#45;&gt;fmt</title>
<path fill="none" stroke="black" d="M664.21,-331.98C675.63,-318.52 689.58,-302.1 701.79,-287.72"/>
<polygon fill="black" stroke="black" points="704.56,-289.86 708.36,-279.97 699.22,-285.33 704.56,-289.86"/>
</g>
<!-- log&#45;&gt;fs -->
<g id="edge28" class="edge">
<title>log&#45;&gt;fs</title>
<path fill="none" stroke="black" d="M629.35,-325.75C625.91,-316.18 622.12,-305.61 618.52,-295.56"/>
<polygon fill="black" stroke="black" points="621.81,-294.36 615.14,-286.13 615.22,-296.72 621.81,-294.36"/>
</g>
<!-- media_\ntypes -->
<g id="node31" class="node">
<title>media_\ntypes</title>
<ellipse fill="lightgreen" stroke="black" cx="1879.26" cy="-576" rx="36" ry="36"/>
<text text-anchor="middle" x="1879.26" y="-580.2" font-family="Times,serif" font-size="14.00">media_</text>
<text text-anchor="middle" x="1879.26" y="-563.4" font-family="Times,serif" font-size="14.00">types</text>
</g>
<!-- msgpack -->
<g id="node32" class="node">
<title>msgpack</title>
<ellipse fill="none" stroke="black" cx="1319.26" cy="-252" rx="36" ry="36"/>
<text text-anchor="middle" x="1319.26" y="-247.8" font-family="Times,serif" font-size="14.00">msgpack</text>
</g>
<!-- msgpack&#45;&gt;bytes -->
<g id="edge30" class="edge">
<title>msgpack&#45;&gt;bytes</title>
<path fill="none" stroke="black" d="M1325.49,-216.29C1327.01,-207.78 1328.67,-198.55 1330.26,-189.65"/>
<polygon fill="black" stroke="black" points="1333.71,-190.25 1332.03,-179.79 1326.82,-189.01 1333.71,-190.25"/>
</g>
<!-- regexp -->
<g id="node33" class="node">
<title>regexp</title>
<ellipse fill="none" stroke="black" cx="1969.26" cy="-576" rx="36" ry="36"/>
<text text-anchor="middle" x="1969.26" y="-571.8" font-family="Times,serif" font-size="14.00">regexp</text>
</g>
<!-- semver -->
<g id="node34" class="node">
<title>semver</title>
<ellipse fill="none" stroke="black" cx="2059.26" cy="-576" rx="36" ry="36"/>
<text text-anchor="middle" x="2059.26" y="-571.8" font-family="Times,serif" font-size="14.00">semver</text>
</g>
<!-- testing -->
<g id="node35" class="node">
<title>testing</title>
<ellipse fill="none" stroke="black" cx="233.26" cy="-360" rx="36" ry="36"/>
<text text-anchor="middle" x="233.26" y="-355.8" font-family="Times,serif" font-size="14.00">testing</text>
</g>
<!-- testing&#45;&gt;assert -->
<g id="edge34" class="edge">
<title>testing&#45;&gt;assert</title>
<path fill="none" stroke="black" d="M259.43,-335.09C265.29,-330.8 271.71,-326.8 278.26,-324 378.23,-281.22 431.54,-350.86 520.26,-288 549.79,-267.08 529.55,-238.02 558.26,-216 599.76,-184.19 748.63,-160.86 825.14,-150.67"/>
<polygon fill="black" stroke="black" points="825.98,-154.09 835.44,-149.33 825.07,-147.15 825.98,-154.09"/>
</g>
<!-- testing&#45;&gt;internal -->
<g id="edge38" class="edge">
<title>testing&#45;&gt;internal</title>
<path fill="none" stroke="black" d="M196.97,-359.04C147.19,-356.88 59.26,-344.71 18.26,-288 -33.35,-216.61 34.51,-165.49 101.26,-108 126.9,-85.92 160.5,-67.6 186.84,-55.1"/>
<polygon fill="black" stroke="black" points="188.59,-58.15 196.18,-50.77 185.64,-51.8 188.59,-58.15"/>
</g>
<!-- testing&#45;&gt;async -->
<g id="edge40" class="edge">
<title>testing&#45;&gt;async</title>
<path fill="none" stroke="black" d="M255.64,-331.43C266.29,-318.3 279.15,-302.44 290.51,-288.44"/>
<polygon fill="black" stroke="black" points="293.42,-290.41 297.01,-280.44 287.99,-286 293.42,-290.41"/>
</g>
<!-- testing&#45;&gt;fmt -->
<g id="edge37" class="edge">
<title>testing&#45;&gt;fmt</title>
<path fill="none" stroke="black" d="M259.33,-334.83C265.19,-330.56 271.64,-326.64 278.26,-324 431.76,-262.87 488.1,-328.56 648.26,-288 662.29,-284.45 677.03,-278.89 690.12,-273.24"/>
<polygon fill="black" stroke="black" points="691.62,-276.4 699.33,-269.14 688.77,-270.01 691.62,-276.4"/>
</g>
<!-- testing&#45;&gt;fs -->
<g id="edge36" class="edge">
<title>testing&#45;&gt;fs</title>
<path fill="none" stroke="black" d="M259.4,-335C265.25,-330.72 271.69,-326.75 278.26,-324 392.01,-276.5 438.36,-332.63 553.26,-288 558.02,-286.15 562.75,-283.76 567.31,-281.1"/>
<polygon fill="black" stroke="black" points="569.23,-284.02 575.8,-275.71 565.48,-278.11 569.23,-284.02"/>
</g>
<!-- testing&#45;&gt;path -->
<g id="edge35" class="edge">
<title>testing&#45;&gt;path</title>
<path fill="none" stroke="black" d="M210.86,-331.34C201.54,-318.73 191.29,-303.23 184.26,-288 169.74,-256.49 159.96,-218.42 153.97,-189.49"/>
<polygon fill="black" stroke="black" points="157.4,-188.78 152,-179.66 150.53,-190.15 157.4,-188.78"/>
</g>
<!-- data_structures -->
<g id="node36" class="node">
<title>data_structures</title>
<ellipse fill="none" stroke="black" cx="442.26" cy="-252" rx="69.48" ry="18"/>
<text text-anchor="middle" x="442.26" y="-247.8" font-family="Times,serif" font-size="14.00">data_structures</text>
</g>
<!-- testing&#45;&gt;data_structures -->
<g id="edge39" class="edge">
<title>testing&#45;&gt;data_structures</title>
<path fill="none" stroke="black" d="M260.54,-335.95C266.21,-331.7 272.28,-327.49 278.26,-324 314.04,-303.1 326.25,-304.48 364.26,-288 375.86,-282.97 388.37,-277.42 399.91,-272.24"/>
<polygon fill="black" stroke="black" points="401.64,-275.3 409.33,-268 398.77,-268.91 401.64,-275.3"/>
</g>
<!-- text -->
<g id="node37" class="node">
<title>text</title>
<ellipse fill="none" stroke="black" cx="973.26" cy="-252" rx="36" ry="36"/>
<text text-anchor="middle" x="973.26" y="-247.8" font-family="Times,serif" font-size="14.00">text</text>
</g>
<!-- text&#45;&gt;assert -->
<g id="edge41" class="edge">
<title>text&#45;&gt;assert</title>
<path fill="none" stroke="black" d="M948.57,-225.34C934.79,-211.02 917.48,-193.03 902.73,-177.7"/>
<polygon fill="black" stroke="black" points="905.18,-175.2 895.73,-170.42 900.14,-180.06 905.18,-175.2"/>
</g>
<!-- ulid -->
<g id="node38" class="node">
<title>ulid</title>
<ellipse fill="none" stroke="black" cx="2149.26" cy="-576" rx="36" ry="36"/>
<text text-anchor="middle" x="2149.26" y="-571.8" font-family="Times,serif" font-size="14.00">ulid</text>
</g>
<!-- url -->
<g id="node39" class="node">
<title>url</title>
<ellipse fill="none" stroke="black" cx="63.26" cy="-252" rx="36" ry="36"/>
<text text-anchor="middle" x="63.26" y="-247.8" font-family="Times,serif" font-size="14.00">url</text>
</g>
<!-- url&#45;&gt;path -->
<g id="edge43" class="edge">
<title>url&#45;&gt;path</title>
<path fill="none" stroke="black" d="M85.07,-223.15C95.19,-210.23 107.34,-194.71 118.14,-180.92"/>
<polygon fill="black" stroke="black" points="120.91,-183.06 124.31,-173.03 115.39,-178.75 120.91,-183.06"/>
</g>
<!-- uuid -->
<g id="node40" class="node">
<title>uuid</title>
<ellipse fill="lightgreen" stroke="black" cx="1447.26" cy="-252" rx="36" ry="36"/>
<text text-anchor="middle" x="1447.26" y="-247.8" font-family="Times,serif" font-size="14.00">uuid</text>
</g>
<!-- uuid&#45;&gt;bytes -->
<g id="edge44" class="edge">
<title>uuid&#45;&gt;bytes</title>
<path fill="none" stroke="black" d="M1421.71,-226.15C1406.54,-211.4 1387.16,-192.54 1370.89,-176.73"/>
<polygon fill="black" stroke="black" points="1373.27,-174.16 1363.66,-169.7 1368.39,-179.18 1373.27,-174.16"/>
</g>
<!-- uuid&#45;&gt;crypto -->
<g id="edge45" class="edge">
<title>uuid&#45;&gt;crypto</title>
<path fill="none" stroke="black" d="M1447.26,-216C1447.26,-207.85 1447.26,-199.06 1447.26,-190.54"/>
<polygon fill="black" stroke="black" points="1450.76,-190.33 1447.26,-180.33 1443.76,-190.33 1450.76,-190.33"/>
</g>
<!-- webgpu -->
<g id="node41" class="node">
<title>webgpu</title>
<ellipse fill="none" stroke="black" cx="1063.26" cy="-252" rx="36" ry="36"/>
<text text-anchor="middle" x="1063.26" y="-247.8" font-family="Times,serif" font-size="14.00">webgpu</text>
</g>
<!-- webgpu&#45;&gt;assert -->
<g id="edge46" class="edge">
<title>webgpu&#45;&gt;assert</title>
<path fill="none" stroke="black" d="M1035.84,-228.21C1030.18,-223.93 1024.15,-219.65 1018.26,-216 984.59,-195.1 943.83,-175.84 913.78,-162.67"/>
<polygon fill="black" stroke="black" points="914.99,-159.38 904.42,-158.62 912.21,-165.8 914.99,-159.38"/>
</g>
</g>
</svg>
