<?xml version="1.0" encoding="UTF-8" standalone="no"?>
<!DOCTYPE svg PUBLIC "-//W3C//DTD SVG 1.1//EN"
 "http://www.w3.org/Graphics/SVG/1.1/DTD/svg11.dtd">
<!-- Generated by graphviz version 2.44.0 (20200518.1210)
 -->
<!-- Title: std_deps Pages: 1 -->
<svg width="2314pt" height="710pt"
 viewBox="0.00 0.00 2314.00 710.00" xmlns="http://www.w3.org/2000/svg" xmlns:xlink="http://www.w3.org/1999/xlink">
<g id="graph0" class="graph" transform="scale(1 1) rotate(0) translate(4 706)">
<title>std_deps</title>
<polygon fill="white" stroke="transparent" points="-4,4 -4,-706 2310,-706 2310,4 -4,4"/>
<!-- archive -->
<g id="node1" class="node">
<title>archive</title>
<polygon fill="pink" stroke="black" points="1333.7,-430.5 1276.3,-430.5 1276.3,-394.5 1333.7,-394.5 1333.7,-430.5"/>
<text text-anchor="middle" x="1305" y="-408.3" font-family="Times,serif" font-size="14.00">archive</text>
</g>
<!-- io -->
<g id="node2" class="node">
<title>io</title>
<polygon fill="pink" stroke="black" points="1368,-307.5 1314,-307.5 1314,-271.5 1368,-271.5 1368,-307.5"/>
<text text-anchor="middle" x="1341" y="-285.3" font-family="Times,serif" font-size="14.00">io</text>
</g>
<!-- archive&#45;&gt;io -->
<g id="edge1" class="edge">
<title>archive&#45;&gt;io</title>
<path fill="none" stroke="black" d="M1310.08,-394.42C1316.02,-374.45 1325.94,-341.12 1332.94,-317.61"/>
<polygon fill="black" stroke="black" points="1336.33,-318.47 1335.83,-307.88 1329.62,-316.47 1336.33,-318.47"/>
</g>
<!-- assert -->
<g id="node3" class="node">
<title>assert</title>
<ellipse fill="none" stroke="black" cx="541" cy="-166.5" rx="39.5" ry="39.5"/>
<ellipse fill="none" stroke="black" cx="541" cy="-166.5" rx="43.5" ry="43.5"/>
<text text-anchor="middle" x="541" y="-162.3" font-family="Times,serif" font-size="14.00">assert</text>
</g>
<!-- archive&#45;&gt;assert -->
<g id="edge2" class="edge">
<title>archive&#45;&gt;assert</title>
<path fill="none" stroke="black" d="M1306.29,-394.5C1307.84,-360.45 1305.92,-283.94 1262,-246 1211.65,-202.5 752.97,-177.32 594.53,-169.86"/>
<polygon fill="black" stroke="black" points="594.69,-166.36 584.54,-169.39 594.36,-173.36 594.69,-166.36"/>
</g>
<!-- io&#45;&gt;assert -->
<g id="edge22" class="edge">
<title>io&#45;&gt;assert</title>
<path fill="none" stroke="black" d="M1329,-271.13C1321.73,-262.04 1311.61,-251.66 1300,-246 1175.28,-185.26 746.62,-171.36 594.82,-168.32"/>
<polygon fill="black" stroke="black" points="594.86,-164.82 584.8,-168.12 594.73,-171.82 594.86,-164.82"/>
</g>
<!-- bytes -->
<g id="node6" class="node">
<title>bytes</title>
<ellipse fill="none" stroke="black" cx="1459" cy="-166.5" rx="39.5" ry="39.5"/>
<ellipse fill="none" stroke="black" cx="1459" cy="-166.5" rx="43.5" ry="43.5"/>
<text text-anchor="middle" x="1459" y="-162.3" font-family="Times,serif" font-size="14.00">bytes</text>
</g>
<!-- io&#45;&gt;bytes -->
<g id="edge23" class="edge">
<title>io&#45;&gt;bytes</title>
<path fill="none" stroke="black" d="M1357.66,-271.42C1374.21,-254.45 1400.16,-227.84 1421.66,-205.79"/>
<polygon fill="black" stroke="black" points="1424.28,-208.12 1428.75,-198.51 1419.27,-203.23 1424.28,-208.12"/>
</g>
<!-- internal -->
<g id="node4" class="node">
<title>internal</title>
<ellipse fill="none" stroke="black" cx="82" cy="-43.5" rx="39.5" ry="39.5"/>
<ellipse fill="none" stroke="black" cx="82" cy="-43.5" rx="43.5" ry="43.5"/>
<text text-anchor="middle" x="82" y="-39.3" font-family="Times,serif" font-size="14.00">internal</text>
</g>
<!-- assert&#45;&gt;internal -->
<g id="edge3" class="edge">
<title>assert&#45;&gt;internal</title>
<path fill="none" stroke="black" d="M499.05,-154.44C414.9,-132.26 225.71,-82.39 133.92,-58.19"/>
<polygon fill="black" stroke="black" points="134.58,-54.74 124.02,-55.58 132.8,-61.51 134.58,-54.74"/>
</g>
<!-- async -->
<g id="node5" class="node">
<title>async</title>
<ellipse fill="none" stroke="black" cx="492" cy="-412.5" rx="39.5" ry="39.5"/>
<ellipse fill="none" stroke="black" cx="492" cy="-412.5" rx="43.5" ry="43.5"/>
<text text-anchor="middle" x="492" y="-408.3" font-family="Times,serif" font-size="14.00">async</text>
</g>
<!-- cli -->
<g id="node7" class="node">
<title>cli</title>
<polygon fill="pink" stroke="black" points="1220,-307.5 1166,-307.5 1166,-271.5 1220,-271.5 1220,-307.5"/>
<text text-anchor="middle" x="1193" y="-285.3" font-family="Times,serif" font-size="14.00">cli</text>
</g>
<!-- cli&#45;&gt;assert -->
<g id="edge4" class="edge">
<title>cli&#45;&gt;assert</title>
<path fill="none" stroke="black" d="M1180.95,-271.24C1173.66,-262.19 1163.54,-251.8 1152,-246 1054.65,-197.09 725.27,-176.31 594.83,-169.86"/>
<polygon fill="black" stroke="black" points="594.84,-166.36 584.68,-169.37 594.5,-173.35 594.84,-166.36"/>
</g>
<!-- collections -->
<g id="node8" class="node">
<title>collections</title>
<ellipse fill="none" stroke="black" cx="1500" cy="-412.5" rx="39.5" ry="39.5"/>
<ellipse fill="none" stroke="black" cx="1500" cy="-412.5" rx="43.5" ry="43.5"/>
<text text-anchor="middle" x="1500" y="-408.3" font-family="Times,serif" font-size="14.00">collections</text>
</g>
<!-- crypto -->
<g id="node9" class="node">
<title>crypto</title>
<ellipse fill="none" stroke="black" cx="1589" cy="-166.5" rx="39.5" ry="39.5"/>
<ellipse fill="none" stroke="black" cx="1589" cy="-166.5" rx="43.5" ry="43.5"/>
<text text-anchor="middle" x="1589" y="-162.3" font-family="Times,serif" font-size="14.00">crypto</text>
</g>
<!-- csv -->
<g id="node10" class="node">
<title>csv</title>
<ellipse fill="none" stroke="black" cx="1258" cy="-535.5" rx="39.5" ry="39.5"/>
<ellipse fill="none" stroke="black" cx="1258" cy="-535.5" rx="43.5" ry="43.5"/>
<text text-anchor="middle" x="1258" y="-531.3" font-family="Times,serif" font-size="14.00">csv</text>
</g>
<!-- csv&#45;&gt;assert -->
<g id="edge5" class="edge">
<title>csv&#45;&gt;assert</title>
<path fill="none" stroke="black" d="M1259.96,-491.95C1262.3,-420.23 1262.32,-279.77 1229,-246 1184.64,-201.04 749.4,-176.99 594.99,-169.82"/>
<polygon fill="black" stroke="black" points="594.95,-166.32 584.8,-169.36 594.63,-173.31 594.95,-166.32"/>
</g>
<!-- streams -->
<g id="node11" class="node">
<title>streams</title>
<ellipse fill="none" stroke="black" cx="1395" cy="-412.5" rx="39.5" ry="39.5"/>
<ellipse fill="none" stroke="black" cx="1395" cy="-412.5" rx="43.5" ry="43.5"/>
<text text-anchor="middle" x="1395" y="-408.3" font-family="Times,serif" font-size="14.00">streams</text>
</g>
<!-- csv&#45;&gt;streams -->
<g id="edge6" class="edge">
<title>csv&#45;&gt;streams</title>
<path fill="none" stroke="black" d="M1290.12,-506.13C1309.48,-489.04 1334.29,-467.12 1354.92,-448.9"/>
<polygon fill="black" stroke="black" points="1357.43,-451.35 1362.61,-442.11 1352.79,-446.11 1357.43,-451.35"/>
</g>
<!-- streams&#45;&gt;io -->
<g id="edge35" class="edge">
<title>streams&#45;&gt;io</title>
<path fill="none" stroke="black" d="M1377.62,-372.55C1369.55,-354.47 1360.16,-333.44 1352.91,-317.19"/>
<polygon fill="black" stroke="black" points="1355.98,-315.47 1348.71,-307.77 1349.59,-318.33 1355.98,-315.47"/>
</g>
<!-- streams&#45;&gt;assert -->
<g id="edge33" class="edge">
<title>streams&#45;&gt;assert</title>
<path fill="none" stroke="black" d="M1403.66,-369.59C1408.78,-331.83 1409.01,-277.54 1377,-246 1321.23,-191.04 770.25,-173.04 594.55,-168.67"/>
<polygon fill="black" stroke="black" points="594.58,-165.17 584.5,-168.43 594.41,-172.17 594.58,-165.17"/>
</g>
<!-- streams&#45;&gt;bytes -->
<g id="edge34" class="edge">
<title>streams&#45;&gt;bytes</title>
<path fill="none" stroke="black" d="M1405.86,-370.11C1416.83,-328.27 1433.81,-263.53 1445.61,-218.54"/>
<polygon fill="black" stroke="black" points="1449.05,-219.25 1448.2,-208.69 1442.27,-217.47 1449.05,-219.25"/>
</g>
<!-- data_\nstructures -->
<g id="node12" class="node">
<title>data_\nstructures</title>
<polygon fill="pink" stroke="black" points="1684.42,-679.1 1613.58,-679.1 1613.58,-637.9 1684.42,-637.9 1684.42,-679.1"/>
<text text-anchor="middle" x="1649" y="-662.7" font-family="Times,serif" font-size="14.00">data_</text>
<text text-anchor="middle" x="1649" y="-645.9" font-family="Times,serif" font-size="14.00">structures</text>
</g>
<!-- datetime -->
<g id="node13" class="node">
<title>datetime</title>
<polygon fill="pink" stroke="black" points="1766.21,-676.5 1701.79,-676.5 1701.79,-640.5 1766.21,-640.5 1766.21,-676.5"/>
<text text-anchor="middle" x="1734" y="-654.3" font-family="Times,serif" font-size="14.00">datetime</text>
</g>
<!-- dotenv -->
<g id="node14" class="node">
<title>dotenv</title>
<polygon fill="pink" stroke="black" points="1838.11,-676.5 1783.89,-676.5 1783.89,-640.5 1838.11,-640.5 1838.11,-676.5"/>
<text text-anchor="middle" x="1811" y="-654.3" font-family="Times,serif" font-size="14.00">dotenv</text>
</g>
<!-- encoding -->
<g id="node15" class="node">
<title>encoding</title>
<ellipse fill="none" stroke="black" cx="1100" cy="-412.5" rx="39.5" ry="39.5"/>
<ellipse fill="none" stroke="black" cx="1100" cy="-412.5" rx="43.5" ry="43.5"/>
<text text-anchor="middle" x="1100" y="-408.3" font-family="Times,serif" font-size="14.00">encoding</text>
</g>
<!-- expect -->
<g id="node16" class="node">
<title>expect</title>
<polygon fill="pink" stroke="black" points="54,-307.5 0,-307.5 0,-271.5 54,-271.5 54,-307.5"/>
<text text-anchor="middle" x="27" y="-285.3" font-family="Times,serif" font-size="14.00">expect</text>
</g>
<!-- expect&#45;&gt;assert -->
<g id="edge7" class="edge">
<title>expect&#45;&gt;assert</title>
<path fill="none" stroke="black" d="M53.81,-271.33C68.66,-262.54 87.77,-252.37 106,-246 238.66,-199.66 404.1,-179.45 487.55,-171.7"/>
<polygon fill="black" stroke="black" points="487.92,-175.18 497.56,-170.79 487.28,-168.21 487.92,-175.18"/>
</g>
<!-- expect&#45;&gt;internal -->
<g id="edge8" class="edge">
<title>expect&#45;&gt;internal</title>
<path fill="none" stroke="black" d="M30.87,-271.34C38.95,-235.5 57.9,-151.44 70.32,-96.33"/>
<polygon fill="black" stroke="black" points="73.77,-96.91 72.56,-86.39 66.94,-95.38 73.77,-96.91"/>
</g>
<!-- fmt -->
<g id="node17" class="node">
<title>fmt</title>
<ellipse fill="none" stroke="black" cx="670" cy="-412.5" rx="39.5" ry="39.5"/>
<ellipse fill="none" stroke="black" cx="670" cy="-412.5" rx="43.5" ry="43.5"/>
<text text-anchor="middle" x="670" y="-408.3" font-family="Times,serif" font-size="14.00">fmt</text>
</g>
<!-- front_\nmatter -->
<g id="node18" class="node">
<title>front_\nmatter</title>
<ellipse fill="none" stroke="black" cx="1552" cy="-658.5" rx="39.5" ry="39.5"/>
<ellipse fill="none" stroke="black" cx="1552" cy="-658.5" rx="43.5" ry="43.5"/>
<text text-anchor="middle" x="1552" y="-662.7" font-family="Times,serif" font-size="14.00">front_</text>
<text text-anchor="middle" x="1552" y="-645.9" font-family="Times,serif" font-size="14.00">matter</text>
</g>
<!-- toml -->
<g id="node19" class="node">
<title>toml</title>
<ellipse fill="none" stroke="black" cx="1500" cy="-535.5" rx="39.5" ry="39.5"/>
<ellipse fill="none" stroke="black" cx="1500" cy="-535.5" rx="43.5" ry="43.5"/>
<text text-anchor="middle" x="1500" y="-531.3" font-family="Times,serif" font-size="14.00">toml</text>
</g>
<!-- front_\nmatter&#45;&gt;toml -->
<g id="edge9" class="edge">
<title>front_\nmatter&#45;&gt;toml</title>
<path fill="none" stroke="black" d="M1535.12,-618.21C1530.62,-607.75 1525.71,-596.32 1521.02,-585.42"/>
<polygon fill="black" stroke="black" points="1524.14,-583.81 1516.98,-576 1517.71,-586.57 1524.14,-583.81"/>
</g>
<!-- yaml -->
<g id="node20" class="node">
<title>yaml</title>
<ellipse fill="none" stroke="black" cx="1605" cy="-535.5" rx="39.5" ry="39.5"/>
<ellipse fill="none" stroke="black" cx="1605" cy="-535.5" rx="43.5" ry="43.5"/>
<text text-anchor="middle" x="1605" y="-531.3" font-family="Times,serif" font-size="14.00">yaml</text>
</g>
<!-- front_\nmatter&#45;&gt;yaml -->
<g id="edge10" class="edge">
<title>front_\nmatter&#45;&gt;yaml</title>
<path fill="none" stroke="black" d="M1569.21,-618.21C1573.88,-607.54 1579,-595.86 1583.87,-584.75"/>
<polygon fill="black" stroke="black" points="1587.07,-586.15 1587.88,-575.59 1580.66,-583.34 1587.07,-586.15"/>
</g>
<!-- toml&#45;&gt;collections -->
<g id="edge44" class="edge">
<title>toml&#45;&gt;collections</title>
<path fill="none" stroke="black" d="M1500,-491.84C1500,-483.62 1500,-474.91 1500,-466.41"/>
<polygon fill="black" stroke="black" points="1503.5,-466.18 1500,-456.18 1496.5,-466.18 1503.5,-466.18"/>
</g>
<!-- fs -->
<g id="node21" class="node">
<title>fs</title>
<ellipse fill="none" stroke="black" cx="348" cy="-412.5" rx="39.5" ry="39.5"/>
<ellipse fill="none" stroke="black" cx="348" cy="-412.5" rx="43.5" ry="43.5"/>
<text text-anchor="middle" x="348" y="-408.3" font-family="Times,serif" font-size="14.00">fs</text>
</g>
<!-- fs&#45;&gt;assert -->
<g id="edge12" class="edge">
<title>fs&#45;&gt;assert</title>
<path fill="none" stroke="black" d="M374.63,-377.83C409.43,-333.83 470.36,-256.81 508.04,-209.18"/>
<polygon fill="black" stroke="black" points="510.87,-211.23 514.33,-201.22 505.38,-206.89 510.87,-211.23"/>
</g>
<!-- path -->
<g id="node22" class="node">
<title>path</title>
<ellipse fill="none" stroke="black" cx="541" cy="-289.5" rx="39.5" ry="39.5"/>
<ellipse fill="none" stroke="black" cx="541" cy="-289.5" rx="43.5" ry="43.5"/>
<text text-anchor="middle" x="541" y="-285.3" font-family="Times,serif" font-size="14.00">path</text>
</g>
<!-- fs&#45;&gt;path -->
<g id="edge11" class="edge">
<title>fs&#45;&gt;path</title>
<path fill="none" stroke="black" d="M382.23,-385.5C389.94,-379.9 398.17,-374.13 406,-369 434.61,-350.27 467.8,-330.94 494.11,-316.15"/>
<polygon fill="black" stroke="black" points="496.09,-319.05 503.11,-311.12 492.68,-312.94 496.09,-319.05"/>
</g>
<!-- path&#45;&gt;assert -->
<g id="edge32" class="edge">
<title>path&#45;&gt;assert</title>
<path fill="none" stroke="black" d="M541,-245.84C541,-237.62 541,-228.91 541,-220.41"/>
<polygon fill="black" stroke="black" points="544.5,-220.18 541,-210.18 537.5,-220.18 544.5,-220.18"/>
</g>
<!-- html -->
<g id="node23" class="node">
<title>html</title>
<polygon fill="pink" stroke="black" points="1910,-676.5 1856,-676.5 1856,-640.5 1910,-640.5 1910,-676.5"/>
<text text-anchor="middle" x="1883" y="-654.3" font-family="Times,serif" font-size="14.00">html</text>
</g>
<!-- http -->
<g id="node24" class="node">
<title>http</title>
<polygon fill="pink" stroke="black" points="1038,-553.5 984,-553.5 984,-517.5 1038,-517.5 1038,-553.5"/>
<text text-anchor="middle" x="1011" y="-531.3" font-family="Times,serif" font-size="14.00">http</text>
</g>
<!-- http&#45;&gt;assert -->
<g id="edge13" class="edge">
<title>http&#45;&gt;assert</title>
<path fill="none" stroke="black" d="M1038.11,-528.27C1071.68,-518.94 1127.44,-497.79 1152,-456 1171.59,-422.67 1174.66,-400.33 1152,-369 1084.54,-275.72 729.58,-202.02 593.85,-176.84"/>
<polygon fill="black" stroke="black" points="594.16,-173.34 583.69,-174.97 592.89,-180.22 594.16,-173.34"/>
</g>
<!-- http&#45;&gt;async -->
<g id="edge15" class="edge">
<title>http&#45;&gt;async</title>
<path fill="none" stroke="black" d="M983.93,-530.33C887.5,-515.41 565.35,-465.12 545,-456 540.53,-453.99 536.11,-451.52 531.85,-448.78"/>
<polygon fill="black" stroke="black" points="533.55,-445.71 523.35,-442.86 529.55,-451.45 533.55,-445.71"/>
</g>
<!-- http&#45;&gt;cli -->
<g id="edge19" class="edge">
<title>http&#45;&gt;cli</title>
<path fill="none" stroke="black" d="M1038.22,-531.14C1078.3,-524.58 1152.09,-506.03 1186,-456 1214.08,-414.58 1207.22,-353.01 1199.95,-317.81"/>
<polygon fill="black" stroke="black" points="1203.31,-316.79 1197.72,-307.79 1196.47,-318.31 1203.31,-316.79"/>
</g>
<!-- http&#45;&gt;streams -->
<g id="edge18" class="edge">
<title>http&#45;&gt;streams</title>
<path fill="none" stroke="black" d="M1038.23,-528.41C1115.09,-511.18 1329.08,-462.88 1343,-456 1347.11,-453.97 1351.18,-451.56 1355.14,-448.94"/>
<polygon fill="black" stroke="black" points="1357.46,-451.58 1363.56,-442.92 1353.39,-445.89 1357.46,-451.58"/>
</g>
<!-- http&#45;&gt;encoding -->
<g id="edge14" class="edge">
<title>http&#45;&gt;encoding</title>
<path fill="none" stroke="black" d="M1023.56,-517.42C1035.24,-501.55 1053.11,-477.25 1068.64,-456.14"/>
<polygon fill="black" stroke="black" points="1071.57,-458.05 1074.68,-447.92 1065.94,-453.91 1071.57,-458.05"/>
</g>
<!-- http&#45;&gt;fmt -->
<g id="edge20" class="edge">
<title>http&#45;&gt;fmt</title>
<path fill="none" stroke="black" d="M983.85,-526.83C938.31,-513.74 843.86,-485.61 766,-456 750.34,-450.04 733.55,-442.89 718.46,-436.16"/>
<polygon fill="black" stroke="black" points="719.86,-432.95 709.31,-432.04 716.99,-439.33 719.86,-432.95"/>
</g>
<!-- http&#45;&gt;path -->
<g id="edge16" class="edge">
<title>http&#45;&gt;path</title>
<path fill="none" stroke="black" d="M983.84,-524.44C948.79,-510.97 886.44,-485.35 837,-456 781.89,-423.28 777.35,-401.31 722,-369 679.91,-344.43 628.7,-322.92 591.5,-308.66"/>
<polygon fill="black" stroke="black" points="592.47,-305.29 581.88,-305.02 589.99,-311.83 592.47,-305.29"/>
</g>
<!-- media_types -->
<g id="node25" class="node">
<title>media_types</title>
<ellipse fill="none" stroke="black" cx="906" cy="-412.5" rx="59.69" ry="18"/>
<text text-anchor="middle" x="906" y="-408.3" font-family="Times,serif" font-size="14.00">media_types</text>
</g>
<!-- http&#45;&gt;media_types -->
<g id="edge17" class="edge">
<title>http&#45;&gt;media_types</title>
<path fill="none" stroke="black" d="M996.18,-517.42C978.18,-496.67 947.68,-461.53 927.2,-437.93"/>
<polygon fill="black" stroke="black" points="929.61,-435.36 920.41,-430.1 924.32,-439.95 929.61,-435.36"/>
</g>
<!-- net -->
<g id="node26" class="node">
<title>net</title>
<polygon fill="pink" stroke="black" points="1038,-430.5 984,-430.5 984,-394.5 1038,-394.5 1038,-430.5"/>
<text text-anchor="middle" x="1011" y="-408.3" font-family="Times,serif" font-size="14.00">net</text>
</g>
<!-- http&#45;&gt;net -->
<g id="edge21" class="edge">
<title>http&#45;&gt;net</title>
<path fill="none" stroke="black" d="M1011,-517.42C1011,-497.54 1011,-464.42 1011,-440.92"/>
<polygon fill="black" stroke="black" points="1014.5,-440.88 1011,-430.88 1007.5,-440.88 1014.5,-440.88"/>
</g>
<!-- ini -->
<g id="node27" class="node">
<title>ini</title>
<polygon fill="pink" stroke="black" points="1982,-676.5 1928,-676.5 1928,-640.5 1982,-640.5 1982,-676.5"/>
<text text-anchor="middle" x="1955" y="-654.3" font-family="Times,serif" font-size="14.00">ini</text>
</g>
<!-- json -->
<g id="node28" class="node">
<title>json</title>
<ellipse fill="none" stroke="black" cx="1374" cy="-535.5" rx="39.5" ry="39.5"/>
<ellipse fill="none" stroke="black" cx="1374" cy="-535.5" rx="43.5" ry="43.5"/>
<text text-anchor="middle" x="1374" y="-531.3" font-family="Times,serif" font-size="14.00">json</text>
</g>
<!-- json&#45;&gt;streams -->
<g id="edge24" class="edge">
<title>json&#45;&gt;streams</title>
<path fill="none" stroke="black" d="M1381.29,-492.52C1382.8,-483.79 1384.41,-474.49 1385.98,-465.46"/>
<polygon fill="black" stroke="black" points="1389.47,-465.86 1387.73,-455.41 1382.57,-464.66 1389.47,-465.86"/>
</g>
<!-- jsonc -->
<g id="node29" class="node">
<title>jsonc</title>
<ellipse fill="none" stroke="black" cx="699" cy="-658.5" rx="39.5" ry="39.5"/>
<ellipse fill="none" stroke="black" cx="699" cy="-658.5" rx="43.5" ry="43.5"/>
<text text-anchor="middle" x="699" y="-654.3" font-family="Times,serif" font-size="14.00">jsonc</text>
</g>
<!-- jsonc&#45;&gt;assert -->
<g id="edge25" class="edge">
<title>jsonc&#45;&gt;assert</title>
<path fill="none" stroke="black" d="M655.43,-654.93C579.47,-649.19 419.07,-631.4 295,-579 206.75,-541.73 162.38,-540.89 118,-456 74.54,-372.88 73.47,-313.11 139,-246 186.74,-197.11 389.39,-177.38 487.43,-170.59"/>
<polygon fill="black" stroke="black" points="487.7,-174.08 497.44,-169.91 487.23,-167.09 487.7,-174.08"/>
</g>
<!-- jsonc&#45;&gt;json -->
<g id="edge26" class="edge">
<title>jsonc&#45;&gt;json</title>
<path fill="none" stroke="black" d="M742.63,-654.48C864.31,-645.66 1205.29,-618.06 1310,-579 1317.29,-576.28 1324.59,-572.59 1331.5,-568.52"/>
<polygon fill="black" stroke="black" points="1333.4,-571.46 1340.03,-563.19 1329.69,-565.52 1333.4,-571.46"/>
</g>
<!-- log -->
<g id="node30" class="node">
<title>log</title>
<polygon fill="pink" stroke="black" points="733,-553.5 679,-553.5 679,-517.5 733,-517.5 733,-553.5"/>
<text text-anchor="middle" x="706" y="-531.3" font-family="Times,serif" font-size="14.00">log</text>
</g>
<!-- log&#45;&gt;io -->
<g id="edge28" class="edge">
<title>log&#45;&gt;io</title>
<path fill="none" stroke="black" d="M717.06,-517.29C742.33,-478.56 804.62,-386.54 837,-369 913.92,-327.34 1143.77,-352.7 1229,-333 1254.83,-327.03 1282.71,-316.47 1304.19,-307.37"/>
<polygon fill="black" stroke="black" points="1305.79,-310.49 1313.58,-303.31 1303.01,-304.06 1305.79,-310.49"/>
</g>
<!-- log&#45;&gt;assert -->
<g id="edge30" class="edge">
<title>log&#45;&gt;assert</title>
<path fill="none" stroke="black" d="M712.56,-517.38C723.31,-486.57 741.62,-420.22 722,-369 694.44,-297.07 628.04,-234.69 583.79,-199.09"/>
<polygon fill="black" stroke="black" points="585.81,-196.23 575.8,-192.76 581.47,-201.71 585.81,-196.23"/>
</g>
<!-- log&#45;&gt;fmt -->
<g id="edge27" class="edge">
<title>log&#45;&gt;fmt</title>
<path fill="none" stroke="black" d="M700.92,-517.42C696.79,-503.55 690.75,-483.25 685.1,-464.26"/>
<polygon fill="black" stroke="black" points="688.4,-463.08 682.2,-454.49 681.69,-465.08 688.4,-463.08"/>
</g>
<!-- log&#45;&gt;fs -->
<g id="edge29" class="edge">
<title>log&#45;&gt;fs</title>
<path fill="none" stroke="black" d="M678.65,-527.92C629.8,-515.83 524.64,-488.38 439,-456 424.69,-450.59 409.5,-443.89 395.71,-437.43"/>
<polygon fill="black" stroke="black" points="396.95,-434.15 386.42,-433.01 393.94,-440.47 396.95,-434.15"/>
</g>
<!-- media_\ntypes -->
<g id="node31" class="node">
<title>media_\ntypes</title>
<ellipse fill="none" stroke="black" cx="2044" cy="-658.5" rx="39.5" ry="39.5"/>
<ellipse fill="none" stroke="black" cx="2044" cy="-658.5" rx="43.5" ry="43.5"/>
<text text-anchor="middle" x="2044" y="-662.7" font-family="Times,serif" font-size="14.00">media_</text>
<text text-anchor="middle" x="2044" y="-645.9" font-family="Times,serif" font-size="14.00">types</text>
</g>
<!-- msgpack -->
<g id="node32" class="node">
<title>msgpack</title>
<polygon fill="pink" stroke="black" points="1527.76,-307.5 1462.24,-307.5 1462.24,-271.5 1527.76,-271.5 1527.76,-307.5"/>
<text text-anchor="middle" x="1495" y="-285.3" font-family="Times,serif" font-size="14.00">msgpack</text>
</g>
<!-- msgpack&#45;&gt;bytes -->
<g id="edge31" class="edge">
<title>msgpack&#45;&gt;bytes</title>
<path fill="none" stroke="black" d="M1489.92,-271.42C1485.79,-257.55 1479.75,-237.25 1474.1,-218.26"/>
<polygon fill="black" stroke="black" points="1477.4,-217.08 1471.2,-208.49 1470.69,-219.08 1477.4,-217.08"/>
</g>
<!-- regexp -->
<g id="node33" class="node">
<title>regexp</title>
<polygon fill="pink" stroke="black" points="2160.09,-676.5 2105.91,-676.5 2105.91,-640.5 2160.09,-640.5 2160.09,-676.5"/>
<text text-anchor="middle" x="2133" y="-654.3" font-family="Times,serif" font-size="14.00">regexp</text>
</g>
<!-- semver -->
<g id="node34" class="node">
<title>semver</title>
<polygon fill="pink" stroke="black" points="2234.43,-676.5 2177.57,-676.5 2177.57,-640.5 2234.43,-640.5 2234.43,-676.5"/>
<text text-anchor="middle" x="2206" y="-654.3" font-family="Times,serif" font-size="14.00">semver</text>
</g>
<!-- testing -->
<g id="node35" class="node">
<title>testing</title>
<ellipse fill="none" stroke="black" cx="348" cy="-535.5" rx="39.5" ry="39.5"/>
<ellipse fill="none" stroke="black" cx="348" cy="-535.5" rx="43.5" ry="43.5"/>
<text text-anchor="middle" x="348" y="-531.3" font-family="Times,serif" font-size="14.00">testing</text>
</g>
<!-- testing&#45;&gt;assert -->
<g id="edge36" class="edge">
<title>testing&#45;&gt;assert</title>
<path fill="none" stroke="black" d="M304.47,-532.07C254.97,-526.71 176.19,-509.69 139,-456 116.98,-424.21 115.06,-399.36 139,-369 181.45,-315.16 226.84,-361.92 289,-333 348.08,-305.52 352.59,-281.85 407,-246 435.3,-227.36 468.11,-208.1 494.18,-193.32"/>
<polygon fill="black" stroke="black" points="496.11,-196.25 503.1,-188.29 492.67,-190.15 496.11,-196.25"/>
</g>
<!-- testing&#45;&gt;internal -->
<g id="edge40" class="edge">
<title>testing&#45;&gt;internal</title>
<path fill="none" stroke="black" d="M304.42,-533.14C251.2,-528.93 162.76,-513.13 118,-456 75.34,-401.55 76.53,-195.47 79.71,-97.22"/>
<polygon fill="black" stroke="black" points="83.21,-97.32 80.05,-87.2 76.21,-97.08 83.21,-97.32"/>
</g>
<!-- testing&#45;&gt;async -->
<g id="edge42" class="edge">
<title>testing&#45;&gt;async</title>
<path fill="none" stroke="black" d="M381.04,-506.74C401.89,-489.22 428.99,-466.45 451.18,-447.8"/>
<polygon fill="black" stroke="black" points="453.71,-450.24 459.12,-441.13 449.21,-444.88 453.71,-450.24"/>
</g>
<!-- testing&#45;&gt;fmt -->
<g id="edge39" class="edge">
<title>testing&#45;&gt;fmt</title>
<path fill="none" stroke="black" d="M390.95,-527.35C445.74,-517.05 542.34,-494.86 617,-456 621.29,-453.77 625.56,-451.16 629.71,-448.36"/>
<polygon fill="black" stroke="black" points="631.95,-451.06 638.03,-442.39 627.87,-445.38 631.95,-451.06"/>
</g>
<!-- testing&#45;&gt;fs -->
<g id="edge38" class="edge">
<title>testing&#45;&gt;fs</title>
<path fill="none" stroke="black" d="M348,-491.84C348,-483.62 348,-474.91 348,-466.41"/>
<polygon fill="black" stroke="black" points="351.5,-466.18 348,-456.18 344.5,-466.18 351.5,-466.18"/>
</g>
<!-- testing&#45;&gt;path -->
<g id="edge37" class="edge">
<title>testing&#45;&gt;path</title>
<path fill="none" stroke="black" d="M372.82,-499.7C381.88,-486.34 391.88,-470.75 400,-456 420.44,-418.88 412.75,-402.26 439,-369 454.56,-349.29 476.11,-331.76 495.4,-318.29"/>
<polygon fill="black" stroke="black" points="497.48,-321.1 503.78,-312.58 493.55,-315.31 497.48,-321.1"/>
</g>
<!-- data_structures -->
<g id="node36" class="node">
<title>data_structures</title>
<ellipse fill="none" stroke="black" cx="217" cy="-412.5" rx="69.48" ry="18"/>
<text text-anchor="middle" x="217" y="-408.3" font-family="Times,serif" font-size="14.00">data_structures</text>
</g>
<!-- testing&#45;&gt;data_structures -->
<g id="edge41" class="edge">
<title>testing&#45;&gt;data_structures</title>
<path fill="none" stroke="black" d="M316.29,-505.21C293.73,-484.37 263.8,-456.73 242.72,-437.26"/>
<polygon fill="black" stroke="black" points="244.83,-434.44 235.11,-430.23 240.08,-439.59 244.83,-434.44"/>
</g>
<!-- text -->
<g id="node37" class="node">
<title>text</title>
<polygon fill="pink" stroke="black" points="202,-307.5 148,-307.5 148,-271.5 202,-271.5 202,-307.5"/>
<text text-anchor="middle" x="175" y="-285.3" font-family="Times,serif" font-size="14.00">text</text>
</g>
<!-- text&#45;&gt;assert -->
<g id="edge43" class="edge">
<title>text&#45;&gt;assert</title>
<path fill="none" stroke="black" d="M185.69,-271.26C192.02,-262.44 200.78,-252.28 211,-246 297.99,-192.57 418.49,-175.51 487.22,-170.06"/>
<polygon fill="black" stroke="black" points="487.67,-173.53 497.39,-169.31 487.16,-166.55 487.67,-173.53"/>
</g>
<!-- ulid -->
<g id="node38" class="node">
<title>ulid</title>
<polygon fill="pink" stroke="black" points="2306,-676.5 2252,-676.5 2252,-640.5 2306,-640.5 2306,-676.5"/>
<text text-anchor="middle" x="2279" y="-654.3" font-family="Times,serif" font-size="14.00">ulid</text>
</g>
<!-- url -->
<g id="node39" class="node">
<title>url</title>
<polygon fill="pink" stroke="black" points="608,-430.5 554,-430.5 554,-394.5 608,-394.5 608,-430.5"/>
<text text-anchor="middle" x="581" y="-408.3" font-family="Times,serif" font-size="14.00">url</text>
</g>
<!-- url&#45;&gt;path -->
<g id="edge45" class="edge">
<title>url&#45;&gt;path</title>
<path fill="none" stroke="black" d="M575.35,-394.42C570.71,-380.38 563.89,-359.74 557.54,-340.54"/>
<polygon fill="black" stroke="black" points="560.84,-339.37 554.38,-330.98 554.2,-341.57 560.84,-339.37"/>
</g>
<!-- uuid -->
<g id="node40" class="node">
<title>uuid</title>
<ellipse fill="none" stroke="black" cx="1589" cy="-289.5" rx="39.5" ry="39.5"/>
<ellipse fill="none" stroke="black" cx="1589" cy="-289.5" rx="43.5" ry="43.5"/>
<text text-anchor="middle" x="1589" y="-285.3" font-family="Times,serif" font-size="14.00">uuid</text>
</g>
<!-- uuid&#45;&gt;bytes -->
<g id="edge46" class="edge">
<title>uuid&#45;&gt;bytes</title>
<path fill="none" stroke="black" d="M1557.53,-259.21C1539.62,-242.54 1517.03,-221.51 1498,-203.8"/>
<polygon fill="black" stroke="black" points="1500.33,-201.19 1490.63,-196.94 1495.57,-206.32 1500.33,-201.19"/>
</g>
<!-- uuid&#45;&gt;crypto -->
<g id="edge47" class="edge">
<title>uuid&#45;&gt;crypto</title>
<path fill="none" stroke="black" d="M1589,-245.84C1589,-237.62 1589,-228.91 1589,-220.41"/>
<polygon fill="black" stroke="black" points="1592.5,-220.18 1589,-210.18 1585.5,-220.18 1592.5,-220.18"/>
</g>
<!-- webgpu -->
<g id="node41" class="node">
<title>webgpu</title>
<polygon fill="pink" stroke="black" points="280.32,-307.5 219.68,-307.5 219.68,-271.5 280.32,-271.5 280.32,-307.5"/>
<text text-anchor="middle" x="250" y="-285.3" font-family="Times,serif" font-size="14.00">webgpu</text>
</g>
<!-- webgpu&#45;&gt;assert -->
<g id="edge48" class="edge">
<title>webgpu&#45;&gt;assert</title>
<path fill="none" stroke="black" d="M264.4,-271.21C272.36,-262.6 282.87,-252.64 294,-246 355.4,-209.37 435.75,-187.97 487.86,-177"/>
<polygon fill="black" stroke="black" points="488.8,-180.38 497.89,-174.95 487.39,-173.53 488.8,-180.38"/>
</g>
</g>
</svg>
