<?xml version="1.0" encoding="UTF-8" standalone="no"?>
<!DOCTYPE svg PUBLIC "-//W3C//DTD SVG 1.1//EN"
 "http://www.w3.org/Graphics/SVG/1.1/DTD/svg11.dtd">
<!-- Generated by graphviz version 2.44.0 (20200518.1210)
 -->
<!-- Title: std_deps Pages: 1 -->
<svg width="2544pt" height="512pt"
 viewBox="0.00 0.00 2544.00 512.00" xmlns="http://www.w3.org/2000/svg" xmlns:xlink="http://www.w3.org/1999/xlink">
<g id="graph0" class="graph" transform="scale(1 1) rotate(0) translate(4 508)">
<title>std_deps</title>
<polygon fill="white" stroke="transparent" points="-4,4 -4,-508 2540,-508 2540,4 -4,4"/>
<!-- archive -->
<g id="node1" class="node">
<title>archive</title>
<ellipse fill="none" stroke="black" cx="171" cy="-252" rx="36" ry="36"/>
<text text-anchor="middle" x="171" y="-247.8" font-family="Times,serif" font-size="14.00">archive</text>
</g>
<!-- io -->
<g id="node2" class="node">
<title>io</title>
<ellipse fill="none" stroke="black" cx="547" cy="-144" rx="36" ry="36"/>
<text text-anchor="middle" x="547" y="-139.8" font-family="Times,serif" font-size="14.00">io</text>
</g>
<!-- archive&#45;&gt;io -->
<g id="edge1" class="edge">
<title>archive&#45;&gt;io</title>
<path fill="none" stroke="black" d="M197.31,-227.41C203.16,-223.1 209.54,-219.01 216,-216 311.31,-171.57 435.09,-154.56 500.98,-148.35"/>
<polygon fill="black" stroke="black" points="501.4,-151.83 511.04,-147.44 500.77,-144.86 501.4,-151.83"/>
</g>
<!-- bytes -->
<g id="node6" class="node">
<title>bytes</title>
<ellipse fill="lightgreen" stroke="black" cx="944" cy="-36" rx="36" ry="36"/>
<text text-anchor="middle" x="944" y="-31.8" font-family="Times,serif" font-size="14.00">bytes</text>
</g>
<!-- io&#45;&gt;bytes -->
<g id="edge17" class="edge">
<title>io&#45;&gt;bytes</title>
<path fill="none" stroke="black" d="M581.54,-133.78C653.54,-114.55 819.62,-70.21 899.5,-48.88"/>
<polygon fill="black" stroke="black" points="900.5,-52.24 909.26,-46.28 898.7,-45.47 900.5,-52.24"/>
</g>
<!-- assert -->
<g id="node3" class="node">
<title>assert</title>
<ellipse fill="lightgreen" stroke="black" cx="1337" cy="-252" rx="36" ry="36"/>
<text text-anchor="middle" x="1337" y="-247.8" font-family="Times,serif" font-size="14.00">assert</text>
</g>
<!-- internal -->
<g id="node4" class="node">
<title>internal</title>
<ellipse fill="lightgreen" stroke="black" cx="1117" cy="-144" rx="36" ry="36"/>
<text text-anchor="middle" x="1117" y="-139.8" font-family="Times,serif" font-size="14.00">internal</text>
</g>
<!-- assert&#45;&gt;internal -->
<g id="edge2" class="edge">
<title>assert&#45;&gt;internal</title>
<path fill="none" stroke="black" d="M1310.06,-227.35C1304.36,-223.14 1298.19,-219.11 1292,-216 1238.43,-189.08 1215.57,-206.92 1162,-180 1158.71,-178.35 1155.43,-176.44 1152.22,-174.38"/>
<polygon fill="black" stroke="black" points="1154.16,-171.46 1143.94,-168.65 1150.18,-177.22 1154.16,-171.46"/>
</g>
<!-- async -->
<g id="node5" class="node">
<title>async</title>
<ellipse fill="none" stroke="black" cx="745" cy="-252" rx="36" ry="36"/>
<text text-anchor="middle" x="745" y="-247.8" font-family="Times,serif" font-size="14.00">async</text>
</g>
<!-- cli -->
<g id="node7" class="node">
<title>cli</title>
<ellipse fill="none" stroke="black" cx="261" cy="-252" rx="36" ry="36"/>
<text text-anchor="middle" x="261" y="-247.8" font-family="Times,serif" font-size="14.00">cli</text>
</g>
<!-- collections -->
<g id="node8" class="node">
<title>collections</title>
<ellipse fill="lightgreen" stroke="black" cx="1465" cy="-252" rx="36" ry="36"/>
<text text-anchor="middle" x="1465" y="-247.8" font-family="Times,serif" font-size="14.00">collections</text>
</g>
<!-- crypto -->
<g id="node9" class="node">
<title>crypto</title>
<ellipse fill="lightgreen" stroke="black" cx="1297" cy="-36" rx="36" ry="36"/>
<text text-anchor="middle" x="1297" y="-31.8" font-family="Times,serif" font-size="14.00">crypto</text>
</g>
<!-- csv -->
<g id="node10" class="node">
<title>csv</title>
<ellipse fill="none" stroke="black" cx="36" cy="-360" rx="36" ry="36"/>
<text text-anchor="middle" x="36" y="-355.8" font-family="Times,serif" font-size="14.00">csv</text>
</g>
<!-- streams -->
<g id="node11" class="node">
<title>streams</title>
<ellipse fill="none" stroke="black" cx="81" cy="-252" rx="36" ry="36"/>
<text text-anchor="middle" x="81" y="-247.8" font-family="Times,serif" font-size="14.00">streams</text>
</g>
<!-- csv&#45;&gt;streams -->
<g id="edge3" class="edge">
<title>csv&#45;&gt;streams</title>
<path fill="none" stroke="black" d="M49.75,-326.62C53.98,-316.65 58.71,-305.51 63.17,-294.99"/>
<polygon fill="black" stroke="black" points="66.5,-296.12 67.18,-285.55 60.05,-293.38 66.5,-296.12"/>
</g>
<!-- streams&#45;&gt;io -->
<g id="edge25" class="edge">
<title>streams&#45;&gt;io</title>
<path fill="none" stroke="black" d="M107.21,-227.19C113.06,-222.89 119.48,-218.87 126,-216 253.61,-159.92 420.92,-147.92 500.74,-145.5"/>
<polygon fill="black" stroke="black" points="501.05,-148.99 510.95,-145.23 500.86,-141.99 501.05,-148.99"/>
</g>
<!-- streams&#45;&gt;bytes -->
<g id="edge24" class="edge">
<title>streams&#45;&gt;bytes</title>
<path fill="none" stroke="black" d="M107.97,-227.39C113.66,-223.18 119.82,-219.14 126,-216 396.05,-78.7 768.48,-46.32 897.67,-39.02"/>
<polygon fill="black" stroke="black" points="898.18,-42.5 907.98,-38.47 897.81,-35.51 898.18,-42.5"/>
</g>
<!-- data_\nstructures -->
<g id="node12" class="node">
<title>data_\nstructures</title>
<ellipse fill="none" stroke="black" cx="1600" cy="-468" rx="36" ry="36"/>
<text text-anchor="middle" x="1600" y="-472.2" font-family="Times,serif" font-size="14.00">data_</text>
<text text-anchor="middle" x="1600" y="-455.4" font-family="Times,serif" font-size="14.00">structures</text>
</g>
<!-- datetime -->
<g id="node13" class="node">
<title>datetime</title>
<ellipse fill="none" stroke="black" cx="1690" cy="-468" rx="36" ry="36"/>
<text text-anchor="middle" x="1690" y="-463.8" font-family="Times,serif" font-size="14.00">datetime</text>
</g>
<!-- dotenv -->
<g id="node14" class="node">
<title>dotenv</title>
<ellipse fill="none" stroke="black" cx="1780" cy="-468" rx="36" ry="36"/>
<text text-anchor="middle" x="1780" y="-463.8" font-family="Times,serif" font-size="14.00">dotenv</text>
</g>
<!-- encoding -->
<g id="node15" class="node">
<title>encoding</title>
<ellipse fill="lightgreen" stroke="black" cx="351" cy="-252" rx="36" ry="36"/>
<text text-anchor="middle" x="351" y="-247.8" font-family="Times,serif" font-size="14.00">encoding</text>
</g>
<!-- expect -->
<g id="node16" class="node">
<title>expect</title>
<ellipse fill="none" stroke="black" cx="1356" cy="-360" rx="36" ry="36"/>
<text text-anchor="middle" x="1356" y="-355.8" font-family="Times,serif" font-size="14.00">expect</text>
</g>
<!-- expect&#45;&gt;assert -->
<g id="edge4" class="edge">
<title>expect&#45;&gt;assert</title>
<path fill="none" stroke="black" d="M1349.78,-324.29C1348.25,-315.78 1346.6,-306.55 1345,-297.65"/>
<polygon fill="black" stroke="black" points="1348.44,-297.01 1343.24,-287.79 1341.55,-298.25 1348.44,-297.01"/>
</g>
<!-- expect&#45;&gt;internal -->
<g id="edge5" class="edge">
<title>expect&#45;&gt;internal</title>
<path fill="none" stroke="black" d="M1374.19,-328.8C1390.7,-297.05 1408.71,-247.44 1382,-216 1317.85,-140.5 1252.8,-219.64 1162,-180 1158.53,-178.49 1155.09,-176.64 1151.76,-174.6"/>
<polygon fill="black" stroke="black" points="1153.45,-171.52 1143.2,-168.83 1149.54,-177.33 1153.45,-171.52"/>
</g>
<!-- fmt -->
<g id="node17" class="node">
<title>fmt</title>
<ellipse fill="none" stroke="black" cx="835" cy="-252" rx="36" ry="36"/>
<text text-anchor="middle" x="835" y="-247.8" font-family="Times,serif" font-size="14.00">fmt</text>
</g>
<!-- front_\nmatter -->
<g id="node18" class="node">
<title>front_\nmatter</title>
<ellipse fill="none" stroke="black" cx="1510" cy="-468" rx="36" ry="36"/>
<text text-anchor="middle" x="1510" y="-472.2" font-family="Times,serif" font-size="14.00">front_</text>
<text text-anchor="middle" x="1510" y="-455.4" font-family="Times,serif" font-size="14.00">matter</text>
</g>
<!-- toml -->
<g id="node19" class="node">
<title>toml</title>
<ellipse fill="lightgreen" stroke="black" cx="1465" cy="-360" rx="36" ry="36"/>
<text text-anchor="middle" x="1465" y="-355.8" font-family="Times,serif" font-size="14.00">toml</text>
</g>
<!-- front_\nmatter&#45;&gt;toml -->
<g id="edge6" class="edge">
<title>front_\nmatter&#45;&gt;toml</title>
<path fill="none" stroke="black" d="M1496.25,-434.62C1492.02,-424.65 1487.29,-413.51 1482.83,-402.99"/>
<polygon fill="black" stroke="black" points="1485.95,-401.38 1478.82,-393.55 1479.5,-404.12 1485.95,-401.38"/>
</g>
<!-- yaml -->
<g id="node20" class="node">
<title>yaml</title>
<ellipse fill="none" stroke="black" cx="1555" cy="-360" rx="36" ry="36"/>
<text text-anchor="middle" x="1555" y="-355.8" font-family="Times,serif" font-size="14.00">yaml</text>
</g>
<!-- front_\nmatter&#45;&gt;yaml -->
<g id="edge7" class="edge">
<title>front_\nmatter&#45;&gt;yaml</title>
<path fill="none" stroke="black" d="M1523.75,-434.62C1527.98,-424.65 1532.71,-413.51 1537.17,-402.99"/>
<polygon fill="black" stroke="black" points="1540.5,-404.12 1541.18,-393.55 1534.05,-401.38 1540.5,-404.12"/>
</g>
<!-- toml&#45;&gt;collections -->
<g id="edge33" class="edge">
<title>toml&#45;&gt;collections</title>
<path fill="none" stroke="black" d="M1465,-324C1465,-315.85 1465,-307.06 1465,-298.54"/>
<polygon fill="black" stroke="black" points="1468.5,-298.33 1465,-288.33 1461.5,-298.33 1468.5,-298.33"/>
</g>
<!-- fs -->
<g id="node21" class="node">
<title>fs</title>
<ellipse fill="none" stroke="black" cx="1015" cy="-252" rx="36" ry="36"/>
<text text-anchor="middle" x="1015" y="-247.8" font-family="Times,serif" font-size="14.00">fs</text>
</g>
<!-- path -->
<g id="node22" class="node">
<title>path</title>
<ellipse fill="lightgreen" stroke="black" cx="970" cy="-144" rx="36" ry="36"/>
<text text-anchor="middle" x="970" y="-139.8" font-family="Times,serif" font-size="14.00">path</text>
</g>
<!-- fs&#45;&gt;path -->
<g id="edge8" class="edge">
<title>fs&#45;&gt;path</title>
<path fill="none" stroke="black" d="M1001.25,-218.62C997.02,-208.65 992.29,-197.51 987.83,-186.99"/>
<polygon fill="black" stroke="black" points="990.95,-185.38 983.82,-177.55 984.5,-188.12 990.95,-185.38"/>
</g>
<!-- html -->
<g id="node23" class="node">
<title>html</title>
<ellipse fill="lightgreen" stroke="black" cx="1870" cy="-468" rx="36" ry="36"/>
<text text-anchor="middle" x="1870" y="-463.8" font-family="Times,serif" font-size="14.00">html</text>
</g>
<!-- http -->
<g id="node24" class="node">
<title>http</title>
<ellipse fill="none" stroke="black" cx="459" cy="-360" rx="36" ry="36"/>
<text text-anchor="middle" x="459" y="-355.8" font-family="Times,serif" font-size="14.00">http</text>
</g>
<!-- http&#45;&gt;async -->
<g id="edge10" class="edge">
<title>http&#45;&gt;async</title>
<path fill="none" stroke="black" d="M493,-347.83C533.51,-334.36 603.12,-310.69 662,-288 675.39,-282.84 689.84,-276.89 702.87,-271.37"/>
<polygon fill="black" stroke="black" points="704.25,-274.58 712.07,-267.44 701.5,-268.15 704.25,-274.58"/>
</g>
<!-- http&#45;&gt;cli -->
<g id="edge14" class="edge">
<title>http&#45;&gt;cli</title>
<path fill="none" stroke="black" d="M425.66,-346.1C393.9,-333.22 345.25,-311.94 306,-288 302.86,-286.08 299.68,-283.98 296.54,-281.8"/>
<polygon fill="black" stroke="black" points="298.53,-278.91 288.38,-275.87 294.41,-284.58 298.53,-278.91"/>
</g>
<!-- http&#45;&gt;streams -->
<g id="edge13" class="edge">
<title>http&#45;&gt;streams</title>
<path fill="none" stroke="black" d="M422.83,-356.6C359.82,-351.29 227.02,-335.01 126,-288 122.57,-286.4 119.16,-284.5 115.84,-282.42"/>
<polygon fill="black" stroke="black" points="117.54,-279.35 107.31,-276.59 113.59,-285.13 117.54,-279.35"/>
</g>
<!-- http&#45;&gt;encoding -->
<g id="edge9" class="edge">
<title>http&#45;&gt;encoding</title>
<path fill="none" stroke="black" d="M433.68,-334.15C418.89,-319.63 400.06,-301.15 384.11,-285.49"/>
<polygon fill="black" stroke="black" points="386.13,-282.57 376.54,-278.06 381.22,-287.57 386.13,-282.57"/>
</g>
<!-- http&#45;&gt;fmt -->
<g id="edge15" class="edge">
<title>http&#45;&gt;fmt</title>
<path fill="none" stroke="black" d="M494.96,-356.56C557.59,-351.18 689.59,-334.8 790,-288 793.43,-286.4 796.84,-284.5 800.16,-282.42"/>
<polygon fill="black" stroke="black" points="802.41,-285.12 808.69,-276.59 798.46,-279.34 802.41,-285.12"/>
</g>
<!-- http&#45;&gt;path -->
<g id="edge11" class="edge">
<title>http&#45;&gt;path</title>
<path fill="none" stroke="black" d="M440.93,-328.62C424.57,-296.73 406.84,-246.99 434,-216 450.15,-197.57 796.78,-161.95 923.85,-149.46"/>
<polygon fill="black" stroke="black" points="924.42,-152.92 934.03,-148.46 923.73,-145.95 924.42,-152.92"/>
</g>
<!-- media_types -->
<g id="node25" class="node">
<title>media_types</title>
<ellipse fill="none" stroke="black" cx="503" cy="-252" rx="59.69" ry="18"/>
<text text-anchor="middle" x="503" y="-247.8" font-family="Times,serif" font-size="14.00">media_types</text>
</g>
<!-- http&#45;&gt;media_types -->
<g id="edge12" class="edge">
<title>http&#45;&gt;media_types</title>
<path fill="none" stroke="black" d="M472.56,-326.33C478.78,-311.35 486.06,-293.82 491.94,-279.66"/>
<polygon fill="black" stroke="black" points="495.33,-280.6 495.93,-270.02 488.87,-277.91 495.33,-280.6"/>
</g>
<!-- net -->
<g id="node26" class="node">
<title>net</title>
<ellipse fill="none" stroke="black" cx="617" cy="-252" rx="36" ry="36"/>
<text text-anchor="middle" x="617" y="-247.8" font-family="Times,serif" font-size="14.00">net</text>
</g>
<!-- http&#45;&gt;net -->
<g id="edge16" class="edge">
<title>http&#45;&gt;net</title>
<path fill="none" stroke="black" d="M489.75,-340.82C512.78,-326.93 544.86,-307.01 572,-288 575.01,-285.89 578.1,-283.65 581.18,-281.37"/>
<polygon fill="black" stroke="black" points="583.37,-284.1 589.24,-275.29 579.15,-278.52 583.37,-284.1"/>
</g>
<!-- ini -->
<g id="node27" class="node">
<title>ini</title>
<ellipse fill="none" stroke="black" cx="1960" cy="-468" rx="36" ry="36"/>
<text text-anchor="middle" x="1960" y="-463.8" font-family="Times,serif" font-size="14.00">ini</text>
</g>
<!-- json -->
<g id="node28" class="node">
<title>json</title>
<ellipse fill="none" stroke="black" cx="126" cy="-360" rx="36" ry="36"/>
<text text-anchor="middle" x="126" y="-355.8" font-family="Times,serif" font-size="14.00">json</text>
</g>
<!-- json&#45;&gt;streams -->
<g id="edge18" class="edge">
<title>json&#45;&gt;streams</title>
<path fill="none" stroke="black" d="M112.25,-326.62C108.02,-316.65 103.29,-305.51 98.83,-294.99"/>
<polygon fill="black" stroke="black" points="101.95,-293.38 94.82,-285.55 95.5,-296.12 101.95,-293.38"/>
</g>
<!-- jsonc -->
<g id="node29" class="node">
<title>jsonc</title>
<ellipse fill="none" stroke="black" cx="126" cy="-468" rx="36" ry="36"/>
<text text-anchor="middle" x="126" y="-463.8" font-family="Times,serif" font-size="14.00">jsonc</text>
</g>
<!-- jsonc&#45;&gt;json -->
<g id="edge19" class="edge">
<title>jsonc&#45;&gt;json</title>
<path fill="none" stroke="black" d="M126,-432C126,-423.85 126,-415.06 126,-406.54"/>
<polygon fill="black" stroke="black" points="129.5,-406.33 126,-396.33 122.5,-406.33 129.5,-406.33"/>
</g>
<!-- log -->
<g id="node30" class="node">
<title>log</title>
<ellipse fill="none" stroke="black" cx="835" cy="-360" rx="36" ry="36"/>
<text text-anchor="middle" x="835" y="-355.8" font-family="Times,serif" font-size="14.00">log</text>
</g>
<!-- log&#45;&gt;io -->
<g id="edge21" class="edge">
<title>log&#45;&gt;io</title>
<path fill="none" stroke="black" d="M800.95,-347.67C771.29,-336.4 728.67,-316.63 700,-288 674.4,-262.43 686.71,-242.43 662,-216 641.42,-193.98 612.54,-176.18 588.87,-163.91"/>
<polygon fill="black" stroke="black" points="590.26,-160.69 579.75,-159.32 587.11,-166.95 590.26,-160.69"/>
</g>
<!-- log&#45;&gt;fmt -->
<g id="edge20" class="edge">
<title>log&#45;&gt;fmt</title>
<path fill="none" stroke="black" d="M835,-324C835,-315.85 835,-307.06 835,-298.54"/>
<polygon fill="black" stroke="black" points="838.5,-298.33 835,-288.33 831.5,-298.33 838.5,-298.33"/>
</g>
<!-- log&#45;&gt;fs -->
<g id="edge22" class="edge">
<title>log&#45;&gt;fs</title>
<path fill="none" stroke="black" d="M867.54,-343.9C895.46,-330.47 936.39,-309.67 970,-288 973.09,-286.01 976.24,-283.85 979.35,-281.63"/>
<polygon fill="black" stroke="black" points="981.51,-284.39 987.48,-275.64 977.35,-278.76 981.51,-284.39"/>
</g>
<!-- media_\ntypes -->
<g id="node31" class="node">
<title>media_\ntypes</title>
<ellipse fill="lightgreen" stroke="black" cx="2050" cy="-468" rx="36" ry="36"/>
<text text-anchor="middle" x="2050" y="-472.2" font-family="Times,serif" font-size="14.00">media_</text>
<text text-anchor="middle" x="2050" y="-455.4" font-family="Times,serif" font-size="14.00">types</text>
</g>
<!-- msgpack -->
<g id="node32" class="node">
<title>msgpack</title>
<ellipse fill="none" stroke="black" cx="1207" cy="-144" rx="36" ry="36"/>
<text text-anchor="middle" x="1207" y="-139.8" font-family="Times,serif" font-size="14.00">msgpack</text>
</g>
<!-- msgpack&#45;&gt;bytes -->
<g id="edge23" class="edge">
<title>msgpack&#45;&gt;bytes</title>
<path fill="none" stroke="black" d="M1179.95,-119.56C1174.26,-115.34 1168.12,-111.25 1162,-108 1105.62,-78.07 1034.32,-57.78 988.93,-46.79"/>
<polygon fill="black" stroke="black" points="989.63,-43.36 979.09,-44.46 988.01,-50.17 989.63,-43.36"/>
</g>
<!-- regexp -->
<g id="node33" class="node">
<title>regexp</title>
<ellipse fill="none" stroke="black" cx="2140" cy="-468" rx="36" ry="36"/>
<text text-anchor="middle" x="2140" y="-463.8" font-family="Times,serif" font-size="14.00">regexp</text>
</g>
<!-- semver -->
<g id="node34" class="node">
<title>semver</title>
<ellipse fill="none" stroke="black" cx="2230" cy="-468" rx="36" ry="36"/>
<text text-anchor="middle" x="2230" y="-463.8" font-family="Times,serif" font-size="14.00">semver</text>
</g>
<!-- testing -->
<g id="node35" class="node">
<title>testing</title>
<ellipse fill="none" stroke="black" cx="1079" cy="-360" rx="36" ry="36"/>
<text text-anchor="middle" x="1079" y="-355.8" font-family="Times,serif" font-size="14.00">testing</text>
</g>
<!-- testing&#45;&gt;assert -->
<g id="edge26" class="edge">
<title>testing&#45;&gt;assert</title>
<path fill="none" stroke="black" d="M1114.04,-351.21C1157.5,-340.69 1233.06,-319.54 1292,-288 1295.25,-286.26 1298.5,-284.29 1301.69,-282.19"/>
<polygon fill="black" stroke="black" points="1303.76,-285.02 1309.93,-276.4 1299.73,-279.29 1303.76,-285.02"/>
</g>
<!-- testing&#45;&gt;internal -->
<g id="edge30" class="edge">
<title>testing&#45;&gt;internal</title>
<path fill="none" stroke="black" d="M1086.03,-324.37C1088.32,-312.82 1090.83,-299.87 1093,-288 1099,-255.14 1105.23,-217.92 1109.83,-189.69"/>
<polygon fill="black" stroke="black" points="1113.3,-190.16 1111.46,-179.72 1106.4,-189.03 1113.3,-190.16"/>
</g>
<!-- testing&#45;&gt;async -->
<g id="edge32" class="edge">
<title>testing&#45;&gt;async</title>
<path fill="none" stroke="black" d="M1043.12,-355.08C986.82,-347.88 875.33,-329.32 790,-288 786.69,-286.4 783.39,-284.52 780.17,-282.48"/>
<polygon fill="black" stroke="black" points="782.1,-279.56 771.87,-276.8 778.14,-285.34 782.1,-279.56"/>
</g>
<!-- testing&#45;&gt;fmt -->
<g id="edge29" class="edge">
<title>testing&#45;&gt;fmt</title>
<path fill="none" stroke="black" d="M1044.14,-350.21C1003.25,-339.09 934.19,-317.73 880,-288 876.77,-286.23 873.53,-284.23 870.36,-282.12"/>
<polygon fill="black" stroke="black" points="872.31,-279.22 862.13,-276.3 868.27,-284.93 872.31,-279.22"/>
</g>
<!-- testing&#45;&gt;fs -->
<g id="edge28" class="edge">
<title>testing&#45;&gt;fs</title>
<path fill="none" stroke="black" d="M1060.83,-328.91C1053.87,-317.38 1045.83,-304.07 1038.45,-291.84"/>
<polygon fill="black" stroke="black" points="1041.38,-289.92 1033.21,-283.17 1035.39,-293.54 1041.38,-289.92"/>
</g>
<!-- testing&#45;&gt;path -->
<g id="edge27" class="edge">
<title>testing&#45;&gt;path</title>
<path fill="none" stroke="black" d="M1081.46,-324.05C1082.02,-293.58 1078.89,-249.19 1060,-216 1048.41,-195.64 1028.44,-178.99 1010.26,-166.94"/>
<polygon fill="black" stroke="black" points="1011.84,-163.8 1001.52,-161.4 1008.09,-169.71 1011.84,-163.8"/>
</g>
<!-- data_structures -->
<g id="node36" class="node">
<title>data_structures</title>
<ellipse fill="none" stroke="black" cx="1214" cy="-252" rx="69.48" ry="18"/>
<text text-anchor="middle" x="1214" y="-247.8" font-family="Times,serif" font-size="14.00">data_structures</text>
</g>
<!-- testing&#45;&gt;data_structures -->
<g id="edge31" class="edge">
<title>testing&#45;&gt;data_structures</title>
<path fill="none" stroke="black" d="M1106.97,-337.04C1129.81,-319.11 1161.96,-293.86 1185.06,-275.72"/>
<polygon fill="black" stroke="black" points="1187.42,-278.32 1193.12,-269.39 1183.1,-272.81 1187.42,-278.32"/>
</g>
<!-- text -->
<g id="node37" class="node">
<title>text</title>
<ellipse fill="none" stroke="black" cx="2320" cy="-468" rx="36" ry="36"/>
<text text-anchor="middle" x="2320" y="-463.8" font-family="Times,serif" font-size="14.00">text</text>
</g>
<!-- ulid -->
<g id="node38" class="node">
<title>ulid</title>
<ellipse fill="none" stroke="black" cx="2410" cy="-468" rx="36" ry="36"/>
<text text-anchor="middle" x="2410" y="-463.8" font-family="Times,serif" font-size="14.00">ulid</text>
</g>
<!-- url -->
<g id="node39" class="node">
<title>url</title>
<ellipse fill="none" stroke="black" cx="925" cy="-252" rx="36" ry="36"/>
<text text-anchor="middle" x="925" y="-247.8" font-family="Times,serif" font-size="14.00">url</text>
</g>
<!-- url&#45;&gt;path -->
<g id="edge34" class="edge">
<title>url&#45;&gt;path</title>
<path fill="none" stroke="black" d="M938.75,-218.62C942.98,-208.65 947.71,-197.51 952.17,-186.99"/>
<polygon fill="black" stroke="black" points="955.5,-188.12 956.18,-177.55 949.05,-185.38 955.5,-188.12"/>
</g>
<!-- uuid -->
<g id="node40" class="node">
<title>uuid</title>
<ellipse fill="lightgreen" stroke="black" cx="1297" cy="-144" rx="36" ry="36"/>
<text text-anchor="middle" x="1297" y="-139.8" font-family="Times,serif" font-size="14.00">uuid</text>
</g>
<!-- uuid&#45;&gt;bytes -->
<g id="edge35" class="edge">
<title>uuid&#45;&gt;bytes</title>
<path fill="none" stroke="black" d="M1270.16,-119.13C1264.46,-114.94 1258.26,-110.97 1252,-108 1164.86,-66.57 1052.13,-48.56 990.06,-41.34"/>
<polygon fill="black" stroke="black" points="990.14,-37.83 979.82,-40.19 989.36,-44.78 990.14,-37.83"/>
</g>
<!-- uuid&#45;&gt;crypto -->
<g id="edge36" class="edge">
<title>uuid&#45;&gt;crypto</title>
<path fill="none" stroke="black" d="M1297,-108C1297,-99.85 1297,-91.06 1297,-82.54"/>
<polygon fill="black" stroke="black" points="1300.5,-82.33 1297,-72.33 1293.5,-82.33 1300.5,-82.33"/>
</g>
<!-- webgpu -->
<g id="node41" class="node">
<title>webgpu</title>
<ellipse fill="none" stroke="black" cx="2500" cy="-468" rx="36" ry="36"/>
<text text-anchor="middle" x="2500" y="-463.8" font-family="Times,serif" font-size="14.00">webgpu</text>
</g>
</g>
</svg>
