<?xml version="1.0" encoding="UTF-8" standalone="no"?>
<!DOCTYPE svg PUBLIC "-//W3C//DTD SVG 1.1//EN"
 "http://www.w3.org/Graphics/SVG/1.1/DTD/svg11.dtd">
<!-- Generated by graphviz version 2.44.0 (20200518.1210)
 -->
<!-- Title: std_deps Pages: 1 -->
<svg width="2379pt" height="404pt"
 viewBox="0.00 0.00 2379.00 404.00" xmlns="http://www.w3.org/2000/svg" xmlns:xlink="http://www.w3.org/1999/xlink">
<g id="graph0" class="graph" transform="scale(1 1) rotate(0) translate(4 400)">
<title>std_deps</title>
<polygon fill="white" stroke="transparent" points="-4,4 -4,-400 2375,-400 2375,4 -4,4"/>
<!-- assert -->
<g id="node1" class="node">
<title>assert</title>
<ellipse fill="lightgreen" stroke="black" cx="68" cy="-144" rx="36" ry="36"/>
<text text-anchor="middle" x="68" y="-139.8" font-family="Times,serif" font-size="14.00">assert</text>
</g>
<!-- internal -->
<g id="node2" class="node">
<title>internal</title>
<ellipse fill="lightgreen" stroke="black" cx="68" cy="-36" rx="36" ry="36"/>
<text text-anchor="middle" x="68" y="-31.8" font-family="Times,serif" font-size="14.00">internal</text>
</g>
<!-- assert&#45;&gt;internal -->
<g id="edge1" class="edge">
<title>assert&#45;&gt;internal</title>
<path fill="none" stroke="black" d="M68,-108C68,-99.85 68,-91.06 68,-82.54"/>
<polygon fill="black" stroke="black" points="71.5,-82.33 68,-72.33 64.5,-82.33 71.5,-82.33"/>
</g>
<!-- async -->
<g id="node3" class="node">
<title>async</title>
<ellipse fill="lightgreen" stroke="black" cx="324" cy="-144" rx="36" ry="36"/>
<text text-anchor="middle" x="324" y="-139.8" font-family="Times,serif" font-size="14.00">async</text>
</g>
<!-- bytes -->
<g id="node4" class="node">
<title>bytes</title>
<ellipse fill="lightgreen" stroke="black" cx="1146" cy="-36" rx="36" ry="36"/>
<text text-anchor="middle" x="1146" y="-31.8" font-family="Times,serif" font-size="14.00">bytes</text>
</g>
<!-- cache -->
<g id="node5" class="node">
<title>cache</title>
<ellipse fill="none" stroke="black" cx="1191" cy="-360" rx="36" ry="36"/>
<text text-anchor="middle" x="1191" y="-355.8" font-family="Times,serif" font-size="14.00">cache</text>
</g>
<!-- cbor -->
<g id="node6" class="node">
<title>cbor</title>
<ellipse fill="none" stroke="black" cx="1217" cy="-252" rx="36" ry="36"/>
<text text-anchor="middle" x="1217" y="-247.8" font-family="Times,serif" font-size="14.00">cbor</text>
</g>
<!-- cbor&#45;&gt;bytes -->
<g id="edge3" class="edge">
<title>cbor&#45;&gt;bytes</title>
<path fill="none" stroke="black" d="M1193.02,-224.95C1182.71,-212.29 1171.55,-196.3 1165,-180 1152.48,-148.85 1147.86,-111.12 1146.3,-82.23"/>
<polygon fill="black" stroke="black" points="1149.79,-81.86 1145.86,-72.02 1142.8,-82.17 1149.79,-81.86"/>
</g>
<!-- streams -->
<g id="node7" class="node">
<title>streams</title>
<ellipse fill="lightgreen" stroke="black" cx="1082" cy="-144" rx="36" ry="36"/>
<text text-anchor="middle" x="1082" y="-139.8" font-family="Times,serif" font-size="14.00">streams</text>
</g>
<!-- cbor&#45;&gt;streams -->
<g id="edge2" class="edge">
<title>cbor&#45;&gt;streams</title>
<path fill="none" stroke="black" d="M1189.03,-229.04C1168.39,-212.83 1140.15,-190.66 1117.85,-173.15"/>
<polygon fill="black" stroke="black" points="1119.96,-170.36 1109.94,-166.94 1115.64,-175.86 1119.96,-170.36"/>
</g>
<!-- streams&#45;&gt;bytes -->
<g id="edge24" class="edge">
<title>streams&#45;&gt;bytes</title>
<path fill="none" stroke="black" d="M1100.17,-112.91C1107.13,-101.38 1115.17,-88.07 1122.55,-75.84"/>
<polygon fill="black" stroke="black" points="1125.61,-77.54 1127.79,-67.17 1119.62,-73.92 1125.61,-77.54"/>
</g>
<!-- cli -->
<g id="node8" class="node">
<title>cli</title>
<ellipse fill="lightgreen" stroke="black" cx="722" cy="-144" rx="36" ry="36"/>
<text text-anchor="middle" x="722" y="-139.8" font-family="Times,serif" font-size="14.00">cli</text>
</g>
<!-- collections -->
<g id="node9" class="node">
<title>collections</title>
<ellipse fill="lightgreen" stroke="black" cx="1390" cy="-144" rx="36" ry="36"/>
<text text-anchor="middle" x="1390" y="-139.8" font-family="Times,serif" font-size="14.00">collections</text>
</g>
<!-- crypto -->
<g id="node10" class="node">
<title>crypto</title>
<ellipse fill="lightgreen" stroke="black" cx="1300" cy="-36" rx="36" ry="36"/>
<text text-anchor="middle" x="1300" y="-31.8" font-family="Times,serif" font-size="14.00">crypto</text>
</g>
<!-- csv -->
<g id="node11" class="node">
<title>csv</title>
<ellipse fill="lightgreen" stroke="black" cx="1127" cy="-252" rx="36" ry="36"/>
<text text-anchor="middle" x="1127" y="-247.8" font-family="Times,serif" font-size="14.00">csv</text>
</g>
<!-- csv&#45;&gt;streams -->
<g id="edge4" class="edge">
<title>csv&#45;&gt;streams</title>
<path fill="none" stroke="black" d="M1113.25,-218.62C1109.02,-208.65 1104.29,-197.51 1099.83,-186.99"/>
<polygon fill="black" stroke="black" points="1102.95,-185.38 1095.82,-177.55 1096.5,-188.12 1102.95,-185.38"/>
</g>
<!-- data&#45;\nstructures -->
<g id="node12" class="node">
<title>data&#45;\nstructures</title>
<ellipse fill="lightgreen" stroke="black" cx="158" cy="-144" rx="36" ry="36"/>
<text text-anchor="middle" x="158" y="-148.2" font-family="Times,serif" font-size="14.00">data&#45;</text>
<text text-anchor="middle" x="158" y="-131.4" font-family="Times,serif" font-size="14.00">structures</text>
</g>
<!-- datetime -->
<g id="node13" class="node">
<title>datetime</title>
<ellipse fill="none" stroke="black" cx="1525" cy="-360" rx="36" ry="36"/>
<text text-anchor="middle" x="1525" y="-355.8" font-family="Times,serif" font-size="14.00">datetime</text>
</g>
<!-- dotenv -->
<g id="node14" class="node">
<title>dotenv</title>
<ellipse fill="none" stroke="black" cx="1615" cy="-360" rx="36" ry="36"/>
<text text-anchor="middle" x="1615" y="-355.8" font-family="Times,serif" font-size="14.00">dotenv</text>
</g>
<!-- encoding -->
<g id="node15" class="node">
<title>encoding</title>
<ellipse fill="lightgreen" stroke="black" cx="812" cy="-144" rx="36" ry="36"/>
<text text-anchor="middle" x="812" y="-139.8" font-family="Times,serif" font-size="14.00">encoding</text>
</g>
<!-- expect -->
<g id="node16" class="node">
<title>expect</title>
<ellipse fill="lightgreen" stroke="black" cx="36" cy="-252" rx="36" ry="36"/>
<text text-anchor="middle" x="36" y="-247.8" font-family="Times,serif" font-size="14.00">expect</text>
</g>
<!-- expect&#45;&gt;assert -->
<g id="edge5" class="edge">
<title>expect&#45;&gt;assert</title>
<path fill="none" stroke="black" d="M46.21,-217.17C48.96,-208.09 51.96,-198.13 54.84,-188.6"/>
<polygon fill="black" stroke="black" points="58.23,-189.46 57.77,-178.87 51.53,-187.43 58.23,-189.46"/>
</g>
<!-- expect&#45;&gt;internal -->
<g id="edge6" class="edge">
<title>expect&#45;&gt;internal</title>
<path fill="none" stroke="black" d="M26.08,-217.39C19,-187.98 12.44,-144.39 23,-108 26.59,-95.61 33.07,-83.32 40.01,-72.53"/>
<polygon fill="black" stroke="black" points="42.92,-74.47 45.63,-64.22 37.13,-70.54 42.92,-74.47"/>
</g>
<!-- fmt -->
<g id="node17" class="node">
<title>fmt</title>
<ellipse fill="lightgreen" stroke="black" cx="902" cy="-144" rx="36" ry="36"/>
<text text-anchor="middle" x="902" y="-139.8" font-family="Times,serif" font-size="14.00">fmt</text>
</g>
<!-- front&#45;\nmatter -->
<g id="node18" class="node">
<title>front&#45;\nmatter</title>
<ellipse fill="lightgreen" stroke="black" cx="1435" cy="-360" rx="36" ry="36"/>
<text text-anchor="middle" x="1435" y="-364.2" font-family="Times,serif" font-size="14.00">front&#45;</text>
<text text-anchor="middle" x="1435" y="-347.4" font-family="Times,serif" font-size="14.00">matter</text>
</g>
<!-- toml -->
<g id="node19" class="node">
<title>toml</title>
<ellipse fill="lightgreen" stroke="black" cx="1390" cy="-252" rx="36" ry="36"/>
<text text-anchor="middle" x="1390" y="-247.8" font-family="Times,serif" font-size="14.00">toml</text>
</g>
<!-- front&#45;\nmatter&#45;&gt;toml -->
<g id="edge7" class="edge">
<title>front&#45;\nmatter&#45;&gt;toml</title>
<path fill="none" stroke="black" d="M1421.25,-326.62C1417.02,-316.65 1412.29,-305.51 1407.83,-294.99"/>
<polygon fill="black" stroke="black" points="1410.95,-293.38 1403.82,-285.55 1404.5,-296.12 1410.95,-293.38"/>
</g>
<!-- yaml -->
<g id="node20" class="node">
<title>yaml</title>
<ellipse fill="lightgreen" stroke="black" cx="1480" cy="-252" rx="36" ry="36"/>
<text text-anchor="middle" x="1480" y="-247.8" font-family="Times,serif" font-size="14.00">yaml</text>
</g>
<!-- front&#45;\nmatter&#45;&gt;yaml -->
<g id="edge8" class="edge">
<title>front&#45;\nmatter&#45;&gt;yaml</title>
<path fill="none" stroke="black" d="M1448.75,-326.62C1452.98,-316.65 1457.71,-305.51 1462.17,-294.99"/>
<polygon fill="black" stroke="black" points="1465.5,-296.12 1466.18,-285.55 1459.05,-293.38 1465.5,-296.12"/>
</g>
<!-- toml&#45;&gt;collections -->
<g id="edge32" class="edge">
<title>toml&#45;&gt;collections</title>
<path fill="none" stroke="black" d="M1390,-216C1390,-207.85 1390,-199.06 1390,-190.54"/>
<polygon fill="black" stroke="black" points="1393.5,-190.33 1390,-180.33 1386.5,-190.33 1393.5,-190.33"/>
</g>
<!-- fs -->
<g id="node21" class="node">
<title>fs</title>
<ellipse fill="lightgreen" stroke="black" cx="452" cy="-144" rx="36" ry="36"/>
<text text-anchor="middle" x="452" y="-139.8" font-family="Times,serif" font-size="14.00">fs</text>
</g>
<!-- path -->
<g id="node22" class="node">
<title>path</title>
<ellipse fill="lightgreen" stroke="black" cx="388" cy="-36" rx="36" ry="36"/>
<text text-anchor="middle" x="388" y="-31.8" font-family="Times,serif" font-size="14.00">path</text>
</g>
<!-- fs&#45;&gt;path -->
<g id="edge9" class="edge">
<title>fs&#45;&gt;path</title>
<path fill="none" stroke="black" d="M433.83,-112.91C426.87,-101.38 418.83,-88.07 411.45,-75.84"/>
<polygon fill="black" stroke="black" points="414.38,-73.92 406.21,-67.17 408.39,-77.54 414.38,-73.92"/>
</g>
<!-- html -->
<g id="node23" class="node">
<title>html</title>
<ellipse fill="lightgreen" stroke="black" cx="1705" cy="-360" rx="36" ry="36"/>
<text text-anchor="middle" x="1705" y="-355.8" font-family="Times,serif" font-size="14.00">html</text>
</g>
<!-- http -->
<g id="node24" class="node">
<title>http</title>
<ellipse fill="lightgreen" stroke="black" cx="722" cy="-252" rx="36" ry="36"/>
<text text-anchor="middle" x="722" y="-247.8" font-family="Times,serif" font-size="14.00">http</text>
</g>
<!-- http&#45;&gt;streams -->
<g id="edge13" class="edge">
<title>http&#45;&gt;streams</title>
<path fill="none" stroke="black" d="M754.77,-236.32C771.59,-229.28 792.58,-221.26 812,-216 909.74,-189.5 944.12,-220.35 1037,-180 1040.47,-178.49 1043.91,-176.65 1047.25,-174.62"/>
<polygon fill="black" stroke="black" points="1049.47,-177.34 1055.81,-168.85 1045.56,-171.54 1049.47,-177.34"/>
</g>
<!-- http&#45;&gt;cli -->
<g id="edge14" class="edge">
<title>http&#45;&gt;cli</title>
<path fill="none" stroke="black" d="M722,-216C722,-207.85 722,-199.06 722,-190.54"/>
<polygon fill="black" stroke="black" points="725.5,-190.33 722,-180.33 718.5,-190.33 725.5,-190.33"/>
</g>
<!-- http&#45;&gt;encoding -->
<g id="edge10" class="edge">
<title>http&#45;&gt;encoding</title>
<path fill="none" stroke="black" d="M744.94,-223.98C756.37,-210.52 770.31,-194.1 782.52,-179.72"/>
<polygon fill="black" stroke="black" points="785.29,-181.86 789.1,-171.97 779.96,-177.33 785.29,-181.86"/>
</g>
<!-- http&#45;&gt;fmt -->
<g id="edge15" class="edge">
<title>http&#45;&gt;fmt</title>
<path fill="none" stroke="black" d="M754.54,-235.9C782.46,-222.47 823.39,-201.67 857,-180 860.09,-178.01 863.24,-175.85 866.35,-173.63"/>
<polygon fill="black" stroke="black" points="868.51,-176.39 874.48,-167.64 864.35,-170.76 868.51,-176.39"/>
</g>
<!-- http&#45;&gt;path -->
<g id="edge11" class="edge">
<title>http&#45;&gt;path</title>
<path fill="none" stroke="black" d="M686.02,-247.97C611.56,-240.93 444.35,-220.86 407,-180 383.16,-153.93 379.83,-113.17 381.64,-81.83"/>
<polygon fill="black" stroke="black" points="385.15,-81.84 382.42,-71.6 378.17,-81.3 385.15,-81.84"/>
</g>
<!-- media&#45;\ntypes -->
<g id="node25" class="node">
<title>media&#45;\ntypes</title>
<ellipse fill="lightgreen" stroke="black" cx="542" cy="-144" rx="36" ry="36"/>
<text text-anchor="middle" x="542" y="-148.2" font-family="Times,serif" font-size="14.00">media&#45;</text>
<text text-anchor="middle" x="542" y="-131.4" font-family="Times,serif" font-size="14.00">types</text>
</g>
<!-- http&#45;&gt;media&#45;\ntypes -->
<g id="edge12" class="edge">
<title>http&#45;&gt;media&#45;\ntypes</title>
<path fill="none" stroke="black" d="M689.46,-235.9C661.54,-222.47 620.61,-201.67 587,-180 583.91,-178.01 580.76,-175.85 577.65,-173.63"/>
<polygon fill="black" stroke="black" points="579.65,-170.76 569.52,-167.64 575.49,-176.39 579.65,-170.76"/>
</g>
<!-- net -->
<g id="node26" class="node">
<title>net</title>
<ellipse fill="lightgreen" stroke="black" cx="632" cy="-144" rx="36" ry="36"/>
<text text-anchor="middle" x="632" y="-139.8" font-family="Times,serif" font-size="14.00">net</text>
</g>
<!-- http&#45;&gt;net -->
<g id="edge16" class="edge">
<title>http&#45;&gt;net</title>
<path fill="none" stroke="black" d="M699.06,-223.98C687.63,-210.52 673.69,-194.1 661.48,-179.72"/>
<polygon fill="black" stroke="black" points="664.04,-177.33 654.9,-171.97 658.71,-181.86 664.04,-177.33"/>
</g>
<!-- ini -->
<g id="node27" class="node">
<title>ini</title>
<ellipse fill="lightgreen" stroke="black" cx="1795" cy="-360" rx="36" ry="36"/>
<text text-anchor="middle" x="1795" y="-355.8" font-family="Times,serif" font-size="14.00">ini</text>
</g>
<!-- io -->
<g id="node28" class="node">
<title>io</title>
<ellipse fill="none" stroke="black" cx="992" cy="-144" rx="36" ry="36"/>
<text text-anchor="middle" x="992" y="-139.8" font-family="Times,serif" font-size="14.00">io</text>
</g>
<!-- io&#45;&gt;bytes -->
<g id="edge17" class="edge">
<title>io&#45;&gt;bytes</title>
<path fill="none" stroke="black" d="M1019.81,-120.79C1025.44,-116.46 1031.36,-112.02 1037,-108 1059.69,-91.83 1085.83,-74.75 1106.82,-61.4"/>
<polygon fill="black" stroke="black" points="1108.9,-64.23 1115.47,-55.92 1105.15,-58.31 1108.9,-64.23"/>
</g>
<!-- json -->
<g id="node29" class="node">
<title>json</title>
<ellipse fill="lightgreen" stroke="black" cx="947" cy="-252" rx="36" ry="36"/>
<text text-anchor="middle" x="947" y="-247.8" font-family="Times,serif" font-size="14.00">json</text>
</g>
<!-- json&#45;&gt;streams -->
<g id="edge18" class="edge">
<title>json&#45;&gt;streams</title>
<path fill="none" stroke="black" d="M974.97,-229.04C995.61,-212.83 1023.85,-190.66 1046.15,-173.15"/>
<polygon fill="black" stroke="black" points="1048.36,-175.86 1054.06,-166.94 1044.04,-170.36 1048.36,-175.86"/>
</g>
<!-- jsonc -->
<g id="node30" class="node">
<title>jsonc</title>
<ellipse fill="lightgreen" stroke="black" cx="947" cy="-360" rx="36" ry="36"/>
<text text-anchor="middle" x="947" y="-355.8" font-family="Times,serif" font-size="14.00">jsonc</text>
</g>
<!-- jsonc&#45;&gt;json -->
<g id="edge19" class="edge">
<title>jsonc&#45;&gt;json</title>
<path fill="none" stroke="black" d="M947,-324C947,-315.85 947,-307.06 947,-298.54"/>
<polygon fill="black" stroke="black" points="950.5,-298.33 947,-288.33 943.5,-298.33 950.5,-298.33"/>
</g>
<!-- log -->
<g id="node31" class="node">
<title>log</title>
<ellipse fill="none" stroke="black" cx="857" cy="-252" rx="36" ry="36"/>
<text text-anchor="middle" x="857" y="-247.8" font-family="Times,serif" font-size="14.00">log</text>
</g>
<!-- log&#45;&gt;fmt -->
<g id="edge20" class="edge">
<title>log&#45;&gt;fmt</title>
<path fill="none" stroke="black" d="M870.75,-218.62C874.98,-208.65 879.71,-197.51 884.17,-186.99"/>
<polygon fill="black" stroke="black" points="887.5,-188.12 888.18,-177.55 881.05,-185.38 887.5,-188.12"/>
</g>
<!-- log&#45;&gt;fs -->
<g id="edge22" class="edge">
<title>log&#45;&gt;fs</title>
<path fill="none" stroke="black" d="M824.28,-236.1C807.48,-229.01 786.48,-221.01 767,-216 649.75,-185.85 608.66,-226.79 497,-180 493.51,-178.54 490.06,-176.73 486.71,-174.71"/>
<polygon fill="black" stroke="black" points="488.4,-171.63 478.14,-168.98 484.51,-177.45 488.4,-171.63"/>
</g>
<!-- log&#45;&gt;io -->
<g id="edge21" class="edge">
<title>log&#45;&gt;io</title>
<path fill="none" stroke="black" d="M884.97,-229.04C905.61,-212.83 933.85,-190.66 956.15,-173.15"/>
<polygon fill="black" stroke="black" points="958.36,-175.86 964.06,-166.94 954.04,-170.36 958.36,-175.86"/>
</g>
<!-- msgpack -->
<g id="node32" class="node">
<title>msgpack</title>
<ellipse fill="lightgreen" stroke="black" cx="1210" cy="-144" rx="36" ry="36"/>
<text text-anchor="middle" x="1210" y="-139.8" font-family="Times,serif" font-size="14.00">msgpack</text>
</g>
<!-- msgpack&#45;&gt;bytes -->
<g id="edge23" class="edge">
<title>msgpack&#45;&gt;bytes</title>
<path fill="none" stroke="black" d="M1191.83,-112.91C1184.87,-101.38 1176.83,-88.07 1169.45,-75.84"/>
<polygon fill="black" stroke="black" points="1172.38,-73.92 1164.21,-67.17 1166.39,-77.54 1172.38,-73.92"/>
</g>
<!-- random -->
<g id="node33" class="node">
<title>random</title>
<ellipse fill="none" stroke="black" cx="1885" cy="-360" rx="36" ry="36"/>
<text text-anchor="middle" x="1885" y="-355.8" font-family="Times,serif" font-size="14.00">random</text>
</g>
<!-- regexp -->
<g id="node34" class="node">
<title>regexp</title>
<ellipse fill="lightgreen" stroke="black" cx="1975" cy="-360" rx="36" ry="36"/>
<text text-anchor="middle" x="1975" y="-355.8" font-family="Times,serif" font-size="14.00">regexp</text>
</g>
<!-- semver -->
<g id="node35" class="node">
<title>semver</title>
<ellipse fill="lightgreen" stroke="black" cx="2065" cy="-360" rx="36" ry="36"/>
<text text-anchor="middle" x="2065" y="-355.8" font-family="Times,serif" font-size="14.00">semver</text>
</g>
<!-- tar -->
<g id="node36" class="node">
<title>tar</title>
<ellipse fill="none" stroke="black" cx="1037" cy="-252" rx="36" ry="36"/>
<text text-anchor="middle" x="1037" y="-247.8" font-family="Times,serif" font-size="14.00">tar</text>
</g>
<!-- tar&#45;&gt;streams -->
<g id="edge25" class="edge">
<title>tar&#45;&gt;streams</title>
<path fill="none" stroke="black" d="M1050.75,-218.62C1054.98,-208.65 1059.71,-197.51 1064.17,-186.99"/>
<polygon fill="black" stroke="black" points="1067.5,-188.12 1068.18,-177.55 1061.05,-185.38 1067.5,-188.12"/>
</g>
<!-- testing -->
<g id="node37" class="node">
<title>testing</title>
<ellipse fill="lightgreen" stroke="black" cx="241" cy="-252" rx="36" ry="36"/>
<text text-anchor="middle" x="241" y="-247.8" font-family="Times,serif" font-size="14.00">testing</text>
</g>
<!-- testing&#45;&gt;assert -->
<g id="edge27" class="edge">
<title>testing&#45;&gt;assert</title>
<path fill="none" stroke="black" d="M209.17,-235.1C182.77,-221.5 144.59,-200.87 113,-180 109.93,-177.97 106.8,-175.79 103.7,-173.55"/>
<polygon fill="black" stroke="black" points="105.71,-170.69 95.59,-167.53 101.53,-176.31 105.71,-170.69"/>
</g>
<!-- testing&#45;&gt;internal -->
<g id="edge26" class="edge">
<title>testing&#45;&gt;internal</title>
<path fill="none" stroke="black" d="M239.49,-216.02C236.46,-184.69 227.74,-139.03 203,-108 180.01,-79.17 142.08,-60.69 112.27,-49.84"/>
<polygon fill="black" stroke="black" points="113.1,-46.42 102.51,-46.45 110.81,-53.04 113.1,-46.42"/>
</g>
<!-- testing&#45;&gt;async -->
<g id="edge31" class="edge">
<title>testing&#45;&gt;async</title>
<path fill="none" stroke="black" d="M262.81,-223.15C272.93,-210.23 285.08,-194.71 295.87,-180.92"/>
<polygon fill="black" stroke="black" points="298.64,-183.06 302.05,-173.03 293.13,-178.75 298.64,-183.06"/>
</g>
<!-- testing&#45;&gt;data&#45;\nstructures -->
<g id="edge30" class="edge">
<title>testing&#45;&gt;data&#45;\nstructures</title>
<path fill="none" stroke="black" d="M219.19,-223.15C209.07,-210.23 196.92,-194.71 186.13,-180.92"/>
<polygon fill="black" stroke="black" points="188.87,-178.75 179.95,-173.03 183.36,-183.06 188.87,-178.75"/>
</g>
<!-- testing&#45;&gt;fs -->
<g id="edge29" class="edge">
<title>testing&#45;&gt;fs</title>
<path fill="none" stroke="black" d="M273.05,-234.9C309.95,-216.36 370.64,-185.87 410.97,-165.61"/>
<polygon fill="black" stroke="black" points="412.63,-168.69 420,-161.08 409.49,-162.44 412.63,-168.69"/>
</g>
<!-- testing&#45;&gt;path -->
<g id="edge28" class="edge">
<title>testing&#45;&gt;path</title>
<path fill="none" stroke="black" d="M243.28,-215.94C246.82,-184.99 255.88,-139.94 279,-108 295.82,-84.77 322.78,-67.11 345.67,-55.22"/>
<polygon fill="black" stroke="black" points="347.48,-58.23 354.87,-50.63 344.36,-51.96 347.48,-58.23"/>
</g>
<!-- text -->
<g id="node38" class="node">
<title>text</title>
<ellipse fill="lightgreen" stroke="black" cx="2155" cy="-360" rx="36" ry="36"/>
<text text-anchor="middle" x="2155" y="-355.8" font-family="Times,serif" font-size="14.00">text</text>
</g>
<!-- ulid -->
<g id="node39" class="node">
<title>ulid</title>
<ellipse fill="lightgreen" stroke="black" cx="2245" cy="-360" rx="36" ry="36"/>
<text text-anchor="middle" x="2245" y="-355.8" font-family="Times,serif" font-size="14.00">ulid</text>
</g>
<!-- uuid -->
<g id="node40" class="node">
<title>uuid</title>
<ellipse fill="lightgreen" stroke="black" cx="1300" cy="-144" rx="36" ry="36"/>
<text text-anchor="middle" x="1300" y="-139.8" font-family="Times,serif" font-size="14.00">uuid</text>
</g>
<!-- uuid&#45;&gt;bytes -->
<g id="edge33" class="edge">
<title>uuid&#45;&gt;bytes</title>
<path fill="none" stroke="black" d="M1272.19,-120.79C1266.56,-116.46 1260.64,-112.02 1255,-108 1232.31,-91.83 1206.17,-74.75 1185.18,-61.4"/>
<polygon fill="black" stroke="black" points="1186.85,-58.31 1176.53,-55.92 1183.1,-64.23 1186.85,-58.31"/>
</g>
<!-- uuid&#45;&gt;crypto -->
<g id="edge34" class="edge">
<title>uuid&#45;&gt;crypto</title>
<path fill="none" stroke="black" d="M1300,-108C1300,-99.85 1300,-91.06 1300,-82.54"/>
<polygon fill="black" stroke="black" points="1303.5,-82.33 1300,-72.33 1296.5,-82.33 1303.5,-82.33"/>
</g>
<!-- webgpu -->
<g id="node41" class="node">
<title>webgpu</title>
<ellipse fill="none" stroke="black" cx="2335" cy="-360" rx="36" ry="36"/>
<text text-anchor="middle" x="2335" y="-355.8" font-family="Times,serif" font-size="14.00">webgpu</text>
</g>
</g>
</svg>
