<?xml version="1.0" encoding="UTF-8" standalone="no"?>
<!DOCTYPE svg PUBLIC "-//W3C//DTD SVG 1.1//EN"
 "http://www.w3.org/Graphics/SVG/1.1/DTD/svg11.dtd">
<!-- Generated by graphviz version 2.44.0 (20200518.1210)
 -->
<!-- Title: std_deps Pages: 1 -->
<svg width="2392pt" height="404pt"
 viewBox="0.00 0.00 2392.00 404.00" xmlns="http://www.w3.org/2000/svg" xmlns:xlink="http://www.w3.org/1999/xlink">
<g id="graph0" class="graph" transform="scale(1 1) rotate(0) translate(4 400)">
<title>std_deps</title>
<polygon fill="white" stroke="transparent" points="-4,4 -4,-400 2388,-400 2388,4 -4,4"/>
<!-- archive -->
<g id="node1" class="node">
<title>archive</title>
<ellipse fill="none" stroke="black" cx="704" cy="-252" rx="36" ry="36"/>
<text text-anchor="middle" x="704" y="-247.8" font-family="Times,serif" font-size="14.00">archive</text>
</g>
<!-- io -->
<g id="node2" class="node">
<title>io</title>
<ellipse fill="none" stroke="black" cx="749" cy="-144" rx="36" ry="36"/>
<text text-anchor="middle" x="749" y="-139.8" font-family="Times,serif" font-size="14.00">io</text>
</g>
<!-- archive&#45;&gt;io -->
<g id="edge1" class="edge">
<title>archive&#45;&gt;io</title>
<path fill="none" stroke="black" d="M717.75,-218.62C721.98,-208.65 726.71,-197.51 731.17,-186.99"/>
<polygon fill="black" stroke="black" points="734.5,-188.12 735.18,-177.55 728.05,-185.38 734.5,-188.12"/>
</g>
<!-- bytes -->
<g id="node6" class="node">
<title>bytes</title>
<ellipse fill="lightgreen" stroke="black" cx="460" cy="-36" rx="36" ry="36"/>
<text text-anchor="middle" x="460" y="-31.8" font-family="Times,serif" font-size="14.00">bytes</text>
</g>
<!-- io&#45;&gt;bytes -->
<g id="edge16" class="edge">
<title>io&#45;&gt;bytes</title>
<path fill="none" stroke="black" d="M722.03,-119.41C716.33,-115.2 710.17,-111.15 704,-108 638.94,-74.78 555.95,-54.83 505.46,-44.88"/>
<polygon fill="black" stroke="black" points="505.98,-41.42 495.5,-42.97 504.66,-48.29 505.98,-41.42"/>
</g>
<!-- assert -->
<g id="node3" class="node">
<title>assert</title>
<ellipse fill="lightgreen" stroke="black" cx="1365" cy="-144" rx="36" ry="36"/>
<text text-anchor="middle" x="1365" y="-139.8" font-family="Times,serif" font-size="14.00">assert</text>
</g>
<!-- internal -->
<g id="node4" class="node">
<title>internal</title>
<ellipse fill="lightgreen" stroke="black" cx="1365" cy="-36" rx="36" ry="36"/>
<text text-anchor="middle" x="1365" y="-31.8" font-family="Times,serif" font-size="14.00">internal</text>
</g>
<!-- assert&#45;&gt;internal -->
<g id="edge2" class="edge">
<title>assert&#45;&gt;internal</title>
<path fill="none" stroke="black" d="M1365,-108C1365,-99.85 1365,-91.06 1365,-82.54"/>
<polygon fill="black" stroke="black" points="1368.5,-82.33 1365,-72.33 1361.5,-82.33 1368.5,-82.33"/>
</g>
<!-- async -->
<g id="node5" class="node">
<title>async</title>
<ellipse fill="lightgreen" stroke="black" cx="929" cy="-144" rx="36" ry="36"/>
<text text-anchor="middle" x="929" y="-139.8" font-family="Times,serif" font-size="14.00">async</text>
</g>
<!-- cli -->
<g id="node7" class="node">
<title>cli</title>
<ellipse fill="lightgreen" stroke="black" cx="569" cy="-144" rx="36" ry="36"/>
<text text-anchor="middle" x="569" y="-139.8" font-family="Times,serif" font-size="14.00">cli</text>
</g>
<!-- collections -->
<g id="node8" class="node">
<title>collections</title>
<ellipse fill="lightgreen" stroke="black" cx="1493" cy="-144" rx="36" ry="36"/>
<text text-anchor="middle" x="1493" y="-139.8" font-family="Times,serif" font-size="14.00">collections</text>
</g>
<!-- crypto -->
<g id="node9" class="node">
<title>crypto</title>
<ellipse fill="lightgreen" stroke="black" cx="1147" cy="-36" rx="36" ry="36"/>
<text text-anchor="middle" x="1147" y="-31.8" font-family="Times,serif" font-size="14.00">crypto</text>
</g>
<!-- csv -->
<g id="node10" class="node">
<title>csv</title>
<ellipse fill="lightgreen" stroke="black" cx="36" cy="-252" rx="36" ry="36"/>
<text text-anchor="middle" x="36" y="-247.8" font-family="Times,serif" font-size="14.00">csv</text>
</g>
<!-- streams -->
<g id="node11" class="node">
<title>streams</title>
<ellipse fill="lightgreen" stroke="black" cx="81" cy="-144" rx="36" ry="36"/>
<text text-anchor="middle" x="81" y="-139.8" font-family="Times,serif" font-size="14.00">streams</text>
</g>
<!-- csv&#45;&gt;streams -->
<g id="edge3" class="edge">
<title>csv&#45;&gt;streams</title>
<path fill="none" stroke="black" d="M49.75,-218.62C53.98,-208.65 58.71,-197.51 63.17,-186.99"/>
<polygon fill="black" stroke="black" points="66.5,-188.12 67.18,-177.55 60.05,-185.38 66.5,-188.12"/>
</g>
<!-- streams&#45;&gt;bytes -->
<g id="edge23" class="edge">
<title>streams&#45;&gt;bytes</title>
<path fill="none" stroke="black" d="M107.31,-119.4C113.15,-115.09 119.54,-111 126,-108 222.31,-63.22 347.41,-46.34 413.83,-40.25"/>
<polygon fill="black" stroke="black" points="414.31,-43.72 423.97,-39.36 413.7,-36.74 414.31,-43.72"/>
</g>
<!-- data&#45;\nstructures -->
<g id="node12" class="node">
<title>data&#45;\nstructures</title>
<ellipse fill="lightgreen" stroke="black" cx="1275" cy="-144" rx="36" ry="36"/>
<text text-anchor="middle" x="1275" y="-148.2" font-family="Times,serif" font-size="14.00">data&#45;</text>
<text text-anchor="middle" x="1275" y="-131.4" font-family="Times,serif" font-size="14.00">structures</text>
</g>
<!-- datetime -->
<g id="node13" class="node">
<title>datetime</title>
<ellipse fill="none" stroke="black" cx="1628" cy="-360" rx="36" ry="36"/>
<text text-anchor="middle" x="1628" y="-355.8" font-family="Times,serif" font-size="14.00">datetime</text>
</g>
<!-- dotenv -->
<g id="node14" class="node">
<title>dotenv</title>
<ellipse fill="none" stroke="black" cx="1718" cy="-360" rx="36" ry="36"/>
<text text-anchor="middle" x="1718" y="-355.8" font-family="Times,serif" font-size="14.00">dotenv</text>
</g>
<!-- encoding -->
<g id="node15" class="node">
<title>encoding</title>
<ellipse fill="lightgreen" stroke="black" cx="261" cy="-144" rx="36" ry="36"/>
<text text-anchor="middle" x="261" y="-139.8" font-family="Times,serif" font-size="14.00">encoding</text>
</g>
<!-- expect -->
<g id="node16" class="node">
<title>expect</title>
<ellipse fill="lightgreen" stroke="black" cx="1384" cy="-252" rx="36" ry="36"/>
<text text-anchor="middle" x="1384" y="-247.8" font-family="Times,serif" font-size="14.00">expect</text>
</g>
<!-- expect&#45;&gt;assert -->
<g id="edge4" class="edge">
<title>expect&#45;&gt;assert</title>
<path fill="none" stroke="black" d="M1377.78,-216.29C1376.25,-207.78 1374.6,-198.55 1373,-189.65"/>
<polygon fill="black" stroke="black" points="1376.44,-189.01 1371.24,-179.79 1369.55,-190.25 1376.44,-189.01"/>
</g>
<!-- expect&#45;&gt;internal -->
<g id="edge5" class="edge">
<title>expect&#45;&gt;internal</title>
<path fill="none" stroke="black" d="M1398.51,-218.79C1403.15,-206.86 1407.68,-193.05 1410,-180 1415.59,-148.49 1418.92,-138.73 1410,-108 1406.41,-95.61 1399.93,-83.32 1392.99,-72.53"/>
<polygon fill="black" stroke="black" points="1395.87,-70.54 1387.37,-64.22 1390.08,-74.47 1395.87,-70.54"/>
</g>
<!-- fmt -->
<g id="node17" class="node">
<title>fmt</title>
<ellipse fill="lightgreen" stroke="black" cx="659" cy="-144" rx="36" ry="36"/>
<text text-anchor="middle" x="659" y="-139.8" font-family="Times,serif" font-size="14.00">fmt</text>
</g>
<!-- front&#45;\nmatter -->
<g id="node18" class="node">
<title>front&#45;\nmatter</title>
<ellipse fill="lightgreen" stroke="black" cx="1538" cy="-360" rx="36" ry="36"/>
<text text-anchor="middle" x="1538" y="-364.2" font-family="Times,serif" font-size="14.00">front&#45;</text>
<text text-anchor="middle" x="1538" y="-347.4" font-family="Times,serif" font-size="14.00">matter</text>
</g>
<!-- toml -->
<g id="node19" class="node">
<title>toml</title>
<ellipse fill="lightgreen" stroke="black" cx="1493" cy="-252" rx="36" ry="36"/>
<text text-anchor="middle" x="1493" y="-247.8" font-family="Times,serif" font-size="14.00">toml</text>
</g>
<!-- front&#45;\nmatter&#45;&gt;toml -->
<g id="edge6" class="edge">
<title>front&#45;\nmatter&#45;&gt;toml</title>
<path fill="none" stroke="black" d="M1524.25,-326.62C1520.02,-316.65 1515.29,-305.51 1510.83,-294.99"/>
<polygon fill="black" stroke="black" points="1513.95,-293.38 1506.82,-285.55 1507.5,-296.12 1513.95,-293.38"/>
</g>
<!-- yaml -->
<g id="node20" class="node">
<title>yaml</title>
<ellipse fill="lightgreen" stroke="black" cx="1583" cy="-252" rx="36" ry="36"/>
<text text-anchor="middle" x="1583" y="-247.8" font-family="Times,serif" font-size="14.00">yaml</text>
</g>
<!-- front&#45;\nmatter&#45;&gt;yaml -->
<g id="edge7" class="edge">
<title>front&#45;\nmatter&#45;&gt;yaml</title>
<path fill="none" stroke="black" d="M1551.75,-326.62C1555.98,-316.65 1560.71,-305.51 1565.17,-294.99"/>
<polygon fill="black" stroke="black" points="1568.5,-296.12 1569.18,-285.55 1562.05,-293.38 1568.5,-296.12"/>
</g>
<!-- toml&#45;&gt;collections -->
<g id="edge30" class="edge">
<title>toml&#45;&gt;collections</title>
<path fill="none" stroke="black" d="M1493,-216C1493,-207.85 1493,-199.06 1493,-190.54"/>
<polygon fill="black" stroke="black" points="1496.5,-190.33 1493,-180.33 1489.5,-190.33 1496.5,-190.33"/>
</g>
<!-- fs -->
<g id="node21" class="node">
<title>fs</title>
<ellipse fill="lightgreen" stroke="black" cx="839" cy="-144" rx="36" ry="36"/>
<text text-anchor="middle" x="839" y="-139.8" font-family="Times,serif" font-size="14.00">fs</text>
</g>
<!-- path -->
<g id="node22" class="node">
<title>path</title>
<ellipse fill="lightgreen" stroke="black" cx="929" cy="-36" rx="36" ry="36"/>
<text text-anchor="middle" x="929" y="-31.8" font-family="Times,serif" font-size="14.00">path</text>
</g>
<!-- fs&#45;&gt;path -->
<g id="edge8" class="edge">
<title>fs&#45;&gt;path</title>
<path fill="none" stroke="black" d="M861.94,-115.98C873.37,-102.52 887.31,-86.1 899.52,-71.72"/>
<polygon fill="black" stroke="black" points="902.29,-73.86 906.1,-63.97 896.96,-69.33 902.29,-73.86"/>
</g>
<!-- html -->
<g id="node23" class="node">
<title>html</title>
<ellipse fill="lightgreen" stroke="black" cx="1808" cy="-360" rx="36" ry="36"/>
<text text-anchor="middle" x="1808" y="-355.8" font-family="Times,serif" font-size="14.00">html</text>
</g>
<!-- http -->
<g id="node24" class="node">
<title>http</title>
<ellipse fill="lightgreen" stroke="black" cx="389" cy="-252" rx="36" ry="36"/>
<text text-anchor="middle" x="389" y="-247.8" font-family="Times,serif" font-size="14.00">http</text>
</g>
<!-- http&#45;&gt;cli -->
<g id="edge13" class="edge">
<title>http&#45;&gt;cli</title>
<path fill="none" stroke="black" d="M421.54,-235.9C449.46,-222.47 490.39,-201.67 524,-180 527.09,-178.01 530.24,-175.85 533.35,-173.63"/>
<polygon fill="black" stroke="black" points="535.51,-176.39 541.48,-167.64 531.35,-170.76 535.51,-176.39"/>
</g>
<!-- http&#45;&gt;streams -->
<g id="edge12" class="edge">
<title>http&#45;&gt;streams</title>
<path fill="none" stroke="black" d="M353.37,-245.98C301.26,-237.65 202.19,-217.97 126,-180 122.71,-178.36 119.42,-176.45 116.21,-174.4"/>
<polygon fill="black" stroke="black" points="118.14,-171.49 107.93,-168.69 114.17,-177.25 118.14,-171.49"/>
</g>
<!-- http&#45;&gt;encoding -->
<g id="edge9" class="edge">
<title>http&#45;&gt;encoding</title>
<path fill="none" stroke="black" d="M361.54,-228.26C342.47,-212.47 316.9,-191.29 296.32,-174.25"/>
<polygon fill="black" stroke="black" points="298.35,-171.38 288.41,-167.7 293.88,-176.78 298.35,-171.38"/>
</g>
<!-- http&#45;&gt;fmt -->
<g id="edge14" class="edge">
<title>http&#45;&gt;fmt</title>
<path fill="none" stroke="black" d="M424.44,-243.92C470.09,-233.9 551.07,-213.03 614,-180 617.26,-178.29 620.52,-176.34 623.72,-174.25"/>
<polygon fill="black" stroke="black" points="625.78,-177.08 631.97,-168.48 621.77,-171.34 625.78,-177.08"/>
</g>
<!-- http&#45;&gt;path -->
<g id="edge10" class="edge">
<title>http&#45;&gt;path</title>
<path fill="none" stroke="black" d="M366.42,-223.53C343.45,-192.09 315,-140.73 344,-108 361.89,-87.8 747.71,-52.67 882.79,-40.94"/>
<polygon fill="black" stroke="black" points="883.17,-44.42 892.83,-40.07 882.56,-37.44 883.17,-44.42"/>
</g>
<!-- media&#45;\ntypes -->
<g id="node25" class="node">
<title>media&#45;\ntypes</title>
<ellipse fill="lightgreen" stroke="black" cx="389" cy="-144" rx="36" ry="36"/>
<text text-anchor="middle" x="389" y="-148.2" font-family="Times,serif" font-size="14.00">media&#45;</text>
<text text-anchor="middle" x="389" y="-131.4" font-family="Times,serif" font-size="14.00">types</text>
</g>
<!-- http&#45;&gt;media&#45;\ntypes -->
<g id="edge11" class="edge">
<title>http&#45;&gt;media&#45;\ntypes</title>
<path fill="none" stroke="black" d="M389,-216C389,-207.85 389,-199.06 389,-190.54"/>
<polygon fill="black" stroke="black" points="392.5,-190.33 389,-180.33 385.5,-190.33 392.5,-190.33"/>
</g>
<!-- net -->
<g id="node26" class="node">
<title>net</title>
<ellipse fill="lightgreen" stroke="black" cx="479" cy="-144" rx="36" ry="36"/>
<text text-anchor="middle" x="479" y="-139.8" font-family="Times,serif" font-size="14.00">net</text>
</g>
<!-- http&#45;&gt;net -->
<g id="edge15" class="edge">
<title>http&#45;&gt;net</title>
<path fill="none" stroke="black" d="M411.94,-223.98C423.37,-210.52 437.31,-194.1 449.52,-179.72"/>
<polygon fill="black" stroke="black" points="452.29,-181.86 456.1,-171.97 446.96,-177.33 452.29,-181.86"/>
</g>
<!-- ini -->
<g id="node27" class="node">
<title>ini</title>
<ellipse fill="lightgreen" stroke="black" cx="1898" cy="-360" rx="36" ry="36"/>
<text text-anchor="middle" x="1898" y="-355.8" font-family="Times,serif" font-size="14.00">ini</text>
</g>
<!-- json -->
<g id="node28" class="node">
<title>json</title>
<ellipse fill="lightgreen" stroke="black" cx="126" cy="-252" rx="36" ry="36"/>
<text text-anchor="middle" x="126" y="-247.8" font-family="Times,serif" font-size="14.00">json</text>
</g>
<!-- json&#45;&gt;streams -->
<g id="edge17" class="edge">
<title>json&#45;&gt;streams</title>
<path fill="none" stroke="black" d="M112.25,-218.62C108.02,-208.65 103.29,-197.51 98.83,-186.99"/>
<polygon fill="black" stroke="black" points="101.95,-185.38 94.82,-177.55 95.5,-188.12 101.95,-185.38"/>
</g>
<!-- jsonc -->
<g id="node29" class="node">
<title>jsonc</title>
<ellipse fill="lightgreen" stroke="black" cx="126" cy="-360" rx="36" ry="36"/>
<text text-anchor="middle" x="126" y="-355.8" font-family="Times,serif" font-size="14.00">jsonc</text>
</g>
<!-- jsonc&#45;&gt;json -->
<g id="edge18" class="edge">
<title>jsonc&#45;&gt;json</title>
<path fill="none" stroke="black" d="M126,-324C126,-315.85 126,-307.06 126,-298.54"/>
<polygon fill="black" stroke="black" points="129.5,-298.33 126,-288.33 122.5,-298.33 129.5,-298.33"/>
</g>
<!-- log -->
<g id="node30" class="node">
<title>log</title>
<ellipse fill="none" stroke="black" cx="794" cy="-252" rx="36" ry="36"/>
<text text-anchor="middle" x="794" y="-247.8" font-family="Times,serif" font-size="14.00">log</text>
</g>
<!-- log&#45;&gt;io -->
<g id="edge20" class="edge">
<title>log&#45;&gt;io</title>
<path fill="none" stroke="black" d="M780.25,-218.62C776.02,-208.65 771.29,-197.51 766.83,-186.99"/>
<polygon fill="black" stroke="black" points="769.95,-185.38 762.82,-177.55 763.5,-188.12 769.95,-185.38"/>
</g>
<!-- log&#45;&gt;fmt -->
<g id="edge19" class="edge">
<title>log&#45;&gt;fmt</title>
<path fill="none" stroke="black" d="M766.03,-229.04C745.39,-212.83 717.15,-190.66 694.85,-173.15"/>
<polygon fill="black" stroke="black" points="696.96,-170.36 686.94,-166.94 692.64,-175.86 696.96,-170.36"/>
</g>
<!-- log&#45;&gt;fs -->
<g id="edge21" class="edge">
<title>log&#45;&gt;fs</title>
<path fill="none" stroke="black" d="M807.75,-218.62C811.98,-208.65 816.71,-197.51 821.17,-186.99"/>
<polygon fill="black" stroke="black" points="824.5,-188.12 825.18,-177.55 818.05,-185.38 824.5,-188.12"/>
</g>
<!-- msgpack -->
<g id="node31" class="node">
<title>msgpack</title>
<ellipse fill="lightgreen" stroke="black" cx="171" cy="-144" rx="36" ry="36"/>
<text text-anchor="middle" x="171" y="-139.8" font-family="Times,serif" font-size="14.00">msgpack</text>
</g>
<!-- msgpack&#45;&gt;bytes -->
<g id="edge22" class="edge">
<title>msgpack&#45;&gt;bytes</title>
<path fill="none" stroke="black" d="M197.97,-119.41C203.67,-115.2 209.83,-111.15 216,-108 281.06,-74.78 364.05,-54.83 414.54,-44.88"/>
<polygon fill="black" stroke="black" points="415.34,-48.29 424.5,-42.97 414.02,-41.42 415.34,-48.29"/>
</g>
<!-- regexp -->
<g id="node32" class="node">
<title>regexp</title>
<ellipse fill="lightgreen" stroke="black" cx="1988" cy="-360" rx="36" ry="36"/>
<text text-anchor="middle" x="1988" y="-355.8" font-family="Times,serif" font-size="14.00">regexp</text>
</g>
<!-- semver -->
<g id="node33" class="node">
<title>semver</title>
<ellipse fill="lightgreen" stroke="black" cx="2078" cy="-360" rx="36" ry="36"/>
<text text-anchor="middle" x="2078" y="-355.8" font-family="Times,serif" font-size="14.00">semver</text>
</g>
<!-- testing -->
<g id="node34" class="node">
<title>testing</title>
<ellipse fill="lightgreen" stroke="black" cx="1147" cy="-252" rx="36" ry="36"/>
<text text-anchor="middle" x="1147" y="-247.8" font-family="Times,serif" font-size="14.00">testing</text>
</g>
<!-- testing&#45;&gt;assert -->
<g id="edge24" class="edge">
<title>testing&#45;&gt;assert</title>
<path fill="none" stroke="black" d="M1181.11,-240.09C1216.95,-227.93 1274.35,-206.45 1320,-180 1323.18,-178.15 1326.39,-176.11 1329.55,-173.95"/>
<polygon fill="black" stroke="black" points="1331.66,-176.75 1337.75,-168.08 1327.58,-171.06 1331.66,-176.75"/>
</g>
<!-- testing&#45;&gt;internal -->
<g id="edge27" class="edge">
<title>testing&#45;&gt;internal</title>
<path fill="none" stroke="black" d="M1166.36,-221.61C1174.51,-208.95 1183.95,-193.89 1192,-180 1210.14,-148.69 1204.4,-133.57 1230,-108 1255.76,-82.28 1292.78,-63.71 1321.54,-52.03"/>
<polygon fill="black" stroke="black" points="1322.92,-55.24 1330.95,-48.33 1320.36,-48.73 1322.92,-55.24"/>
</g>
<!-- testing&#45;&gt;async -->
<g id="edge29" class="edge">
<title>testing&#45;&gt;async</title>
<path fill="none" stroke="black" d="M1112.89,-240.09C1077.05,-227.93 1019.65,-206.45 974,-180 970.82,-178.15 967.61,-176.11 964.45,-173.95"/>
<polygon fill="black" stroke="black" points="966.42,-171.06 956.25,-168.08 962.34,-176.75 966.42,-171.06"/>
</g>
<!-- testing&#45;&gt;data&#45;\nstructures -->
<g id="edge28" class="edge">
<title>testing&#45;&gt;data&#45;\nstructures</title>
<path fill="none" stroke="black" d="M1174.46,-228.26C1193.53,-212.47 1219.1,-191.29 1239.68,-174.25"/>
<polygon fill="black" stroke="black" points="1242.12,-176.78 1247.59,-167.7 1237.65,-171.38 1242.12,-176.78"/>
</g>
<!-- testing&#45;&gt;fs -->
<g id="edge26" class="edge">
<title>testing&#45;&gt;fs</title>
<path fill="none" stroke="black" d="M1111.37,-245.98C1059.26,-237.65 960.19,-217.97 884,-180 880.71,-178.36 877.42,-176.45 874.21,-174.4"/>
<polygon fill="black" stroke="black" points="876.14,-171.49 865.93,-168.69 872.17,-177.25 876.14,-171.49"/>
</g>
<!-- testing&#45;&gt;path -->
<g id="edge25" class="edge">
<title>testing&#45;&gt;path</title>
<path fill="none" stroke="black" d="M1127.64,-221.61C1119.49,-208.95 1110.05,-193.89 1102,-180 1083.86,-148.69 1089.6,-133.57 1064,-108 1038.24,-82.28 1001.22,-63.71 972.46,-52.03"/>
<polygon fill="black" stroke="black" points="973.64,-48.73 963.05,-48.33 971.08,-55.24 973.64,-48.73"/>
</g>
<!-- text -->
<g id="node35" class="node">
<title>text</title>
<ellipse fill="lightgreen" stroke="black" cx="2168" cy="-360" rx="36" ry="36"/>
<text text-anchor="middle" x="2168" y="-355.8" font-family="Times,serif" font-size="14.00">text</text>
</g>
<!-- ulid -->
<g id="node36" class="node">
<title>ulid</title>
<ellipse fill="lightgreen" stroke="black" cx="2258" cy="-360" rx="36" ry="36"/>
<text text-anchor="middle" x="2258" y="-355.8" font-family="Times,serif" font-size="14.00">ulid</text>
</g>
<!-- url -->
<g id="node37" class="node">
<title>url</title>
<ellipse fill="lightgreen" stroke="black" cx="1019" cy="-144" rx="36" ry="36"/>
<text text-anchor="middle" x="1019" y="-139.8" font-family="Times,serif" font-size="14.00">url</text>
</g>
<!-- url&#45;&gt;path -->
<g id="edge31" class="edge">
<title>url&#45;&gt;path</title>
<path fill="none" stroke="black" d="M996.06,-115.98C984.63,-102.52 970.69,-86.1 958.48,-71.72"/>
<polygon fill="black" stroke="black" points="961.04,-69.33 951.9,-63.97 955.71,-73.86 961.04,-69.33"/>
</g>
<!-- uuid -->
<g id="node38" class="node">
<title>uuid</title>
<ellipse fill="lightgreen" stroke="black" cx="1147" cy="-144" rx="36" ry="36"/>
<text text-anchor="middle" x="1147" y="-139.8" font-family="Times,serif" font-size="14.00">uuid</text>
</g>
<!-- uuid&#45;&gt;bytes -->
<g id="edge32" class="edge">
<title>uuid&#45;&gt;bytes</title>
<path fill="none" stroke="black" d="M1115.02,-127.02C1099.9,-120.12 1081.39,-112.59 1064,-108 958.23,-80.09 627.97,-50.84 505.93,-40.71"/>
<polygon fill="black" stroke="black" points="506.05,-37.21 495.8,-39.88 505.48,-44.19 506.05,-37.21"/>
</g>
<!-- uuid&#45;&gt;crypto -->
<g id="edge33" class="edge">
<title>uuid&#45;&gt;crypto</title>
<path fill="none" stroke="black" d="M1147,-108C1147,-99.85 1147,-91.06 1147,-82.54"/>
<polygon fill="black" stroke="black" points="1150.5,-82.33 1147,-72.33 1143.5,-82.33 1150.5,-82.33"/>
</g>
<!-- webgpu -->
<g id="node39" class="node">
<title>webgpu</title>
<ellipse fill="none" stroke="black" cx="2348" cy="-360" rx="36" ry="36"/>
<text text-anchor="middle" x="2348" y="-355.8" font-family="Times,serif" font-size="14.00">webgpu</text>
</g>
</g>
</svg>
