<?xml version="1.0" encoding="UTF-8" standalone="no"?>
<!DOCTYPE svg PUBLIC "-//W3C//DTD SVG 1.1//EN"
 "http://www.w3.org/Graphics/SVG/1.1/DTD/svg11.dtd">
<!-- Generated by graphviz version 2.44.0 (20200518.1210)
 -->
<!-- Title: std_deps Pages: 1 -->
<svg width="2143pt" height="710pt"
 viewBox="0.00 0.00 2143.29 710.00" xmlns="http://www.w3.org/2000/svg" xmlns:xlink="http://www.w3.org/1999/xlink">
<g id="graph0" class="graph" transform="scale(1 1) rotate(0) translate(4 706)">
<title>std_deps</title>
<polygon fill="white" stroke="transparent" points="-4,4 -4,-706 2139.29,-706 2139.29,4 -4,4"/>
<!-- archive -->
<g id="node1" class="node">
<title>archive</title>
<polygon fill="pink" stroke="black" points="334.99,-430.5 277.6,-430.5 277.6,-394.5 334.99,-394.5 334.99,-430.5"/>
<text text-anchor="middle" x="306.29" y="-408.3" font-family="Times,serif" font-size="14.00">archive</text>
</g>
<!-- io -->
<g id="node2" class="node">
<title>io</title>
<polygon fill="pink" stroke="black" points="541.29,-307.5 487.29,-307.5 487.29,-271.5 541.29,-271.5 541.29,-307.5"/>
<text text-anchor="middle" x="514.29" y="-285.3" font-family="Times,serif" font-size="14.00">io</text>
</g>
<!-- archive&#45;&gt;io -->
<g id="edge1" class="edge">
<title>archive&#45;&gt;io</title>
<path fill="none" stroke="black" d="M323.4,-394.22C332.73,-385.61 344.9,-375.64 357.29,-369 406.74,-342.5 431.32,-363.68 478.29,-333 485.35,-328.39 491.78,-321.99 497.18,-315.55"/>
<polygon fill="black" stroke="black" points="500.06,-317.55 503.45,-307.52 494.54,-313.25 500.06,-317.55"/>
</g>
<!-- assert -->
<g id="node3" class="node">
<title>assert</title>
<ellipse fill="none" stroke="black" cx="292.29" cy="-166.5" rx="39.5" ry="39.5"/>
<ellipse fill="none" stroke="black" cx="292.29" cy="-166.5" rx="43.5" ry="43.5"/>
<text text-anchor="middle" x="292.29" y="-162.3" font-family="Times,serif" font-size="14.00">assert</text>
</g>
<!-- archive&#45;&gt;assert -->
<g id="edge2" class="edge">
<title>archive&#45;&gt;assert</title>
<path fill="none" stroke="black" d="M303.91,-394.39C301.8,-378.51 298.82,-354.21 297.29,-333 294.57,-295.36 293.32,-252.8 292.76,-220.26"/>
<polygon fill="black" stroke="black" points="296.25,-220.01 292.6,-210.07 289.25,-220.12 296.25,-220.01"/>
</g>
<!-- io&#45;&gt;assert -->
<g id="edge20" class="edge">
<title>io&#45;&gt;assert</title>
<path fill="none" stroke="black" d="M502.84,-271.5C496.42,-262.97 487.8,-252.99 478.29,-246 437.41,-215.96 383.3,-194.8 343.99,-182.07"/>
<polygon fill="black" stroke="black" points="344.92,-178.7 334.33,-179.02 342.81,-185.37 344.92,-178.7"/>
</g>
<!-- bytes -->
<g id="node6" class="node">
<title>bytes</title>
<ellipse fill="none" stroke="black" cx="599.29" cy="-166.5" rx="39.5" ry="39.5"/>
<ellipse fill="none" stroke="black" cx="599.29" cy="-166.5" rx="43.5" ry="43.5"/>
<text text-anchor="middle" x="599.29" y="-162.3" font-family="Times,serif" font-size="14.00">bytes</text>
</g>
<!-- io&#45;&gt;bytes -->
<g id="edge21" class="edge">
<title>io&#45;&gt;bytes</title>
<path fill="none" stroke="black" d="M526.29,-271.42C537.23,-255.85 553.87,-232.16 568.5,-211.33"/>
<polygon fill="black" stroke="black" points="571.53,-213.11 574.41,-202.92 565.8,-209.09 571.53,-213.11"/>
</g>
<!-- internal -->
<g id="node4" class="node">
<title>internal</title>
<ellipse fill="none" stroke="black" cx="442.29" cy="-43.5" rx="39.5" ry="39.5"/>
<ellipse fill="none" stroke="black" cx="442.29" cy="-43.5" rx="43.5" ry="43.5"/>
<text text-anchor="middle" x="442.29" y="-39.3" font-family="Times,serif" font-size="14.00">internal</text>
</g>
<!-- assert&#45;&gt;internal -->
<g id="edge3" class="edge">
<title>assert&#45;&gt;internal</title>
<path fill="none" stroke="black" d="M325.95,-138.35C348.05,-120.52 377.11,-97.08 400.66,-78.08"/>
<polygon fill="black" stroke="black" points="403.15,-80.57 408.74,-71.56 398.76,-75.12 403.15,-80.57"/>
</g>
<!-- async -->
<g id="node5" class="node">
<title>async</title>
<ellipse fill="none" stroke="black" cx="1384.29" cy="-289.5" rx="39.5" ry="39.5"/>
<ellipse fill="none" stroke="black" cx="1384.29" cy="-289.5" rx="43.5" ry="43.5"/>
<text text-anchor="middle" x="1384.29" y="-285.3" font-family="Times,serif" font-size="14.00">async</text>
</g>
<!-- cli -->
<g id="node7" class="node">
<title>cli</title>
<polygon fill="pink" stroke="black" points="207.29,-430.5 153.29,-430.5 153.29,-394.5 207.29,-394.5 207.29,-430.5"/>
<text text-anchor="middle" x="180.29" y="-408.3" font-family="Times,serif" font-size="14.00">cli</text>
</g>
<!-- cli&#45;&gt;assert -->
<g id="edge4" class="edge">
<title>cli&#45;&gt;assert</title>
<path fill="none" stroke="black" d="M181.79,-394.07C185.08,-362.76 194.87,-295.65 221.29,-246 229.44,-230.69 241.24,-215.99 252.88,-203.54"/>
<polygon fill="black" stroke="black" points="255.64,-205.72 260.07,-196.09 250.61,-200.85 255.64,-205.72"/>
</g>
<!-- collections -->
<g id="node8" class="node">
<title>collections</title>
<ellipse fill="none" stroke="black" cx="1329.29" cy="-412.5" rx="39.5" ry="39.5"/>
<ellipse fill="none" stroke="black" cx="1329.29" cy="-412.5" rx="43.5" ry="43.5"/>
<text text-anchor="middle" x="1329.29" y="-408.3" font-family="Times,serif" font-size="14.00">collections</text>
</g>
<!-- crypto -->
<g id="node9" class="node">
<title>crypto</title>
<ellipse fill="none" stroke="black" cx="1097.29" cy="-166.5" rx="39.5" ry="39.5"/>
<ellipse fill="none" stroke="black" cx="1097.29" cy="-166.5" rx="43.5" ry="43.5"/>
<text text-anchor="middle" x="1097.29" y="-162.3" font-family="Times,serif" font-size="14.00">crypto</text>
</g>
<!-- csv -->
<g id="node10" class="node">
<title>csv</title>
<ellipse fill="none" stroke="black" cx="305.29" cy="-535.5" rx="39.5" ry="39.5"/>
<ellipse fill="none" stroke="black" cx="305.29" cy="-535.5" rx="43.5" ry="43.5"/>
<text text-anchor="middle" x="305.29" y="-531.3" font-family="Times,serif" font-size="14.00">csv</text>
</g>
<!-- streams -->
<g id="node11" class="node">
<title>streams</title>
<ellipse fill="none" stroke="black" cx="410.29" cy="-412.5" rx="39.5" ry="39.5"/>
<ellipse fill="none" stroke="black" cx="410.29" cy="-412.5" rx="43.5" ry="43.5"/>
<text text-anchor="middle" x="410.29" y="-408.3" font-family="Times,serif" font-size="14.00">streams</text>
</g>
<!-- csv&#45;&gt;streams -->
<g id="edge5" class="edge">
<title>csv&#45;&gt;streams</title>
<path fill="none" stroke="black" d="M333.43,-502.07C346.26,-487.29 361.58,-469.63 375.16,-453.99"/>
<polygon fill="black" stroke="black" points="378.16,-455.86 382.08,-446.02 372.88,-451.27 378.16,-455.86"/>
</g>
<!-- streams&#45;&gt;io -->
<g id="edge32" class="edge">
<title>streams&#45;&gt;io</title>
<path fill="none" stroke="black" d="M438.49,-379.11C450.76,-364.98 465.27,-348.2 478.29,-333 483.03,-327.47 488.09,-321.52 492.87,-315.88"/>
<polygon fill="black" stroke="black" points="495.83,-317.8 499.62,-307.91 490.49,-313.28 495.83,-317.8"/>
</g>
<!-- streams&#45;&gt;assert -->
<g id="edge30" class="edge">
<title>streams&#45;&gt;assert</title>
<path fill="none" stroke="black" d="M377.08,-383.88C362.33,-370.01 345.93,-352.1 335.29,-333 315.78,-297.98 304.89,-253.86 298.95,-219.98"/>
<polygon fill="black" stroke="black" points="302.35,-219.11 297.26,-209.82 295.45,-220.26 302.35,-219.11"/>
</g>
<!-- streams&#45;&gt;bytes -->
<g id="edge31" class="edge">
<title>streams&#45;&gt;bytes</title>
<path fill="none" stroke="black" d="M442.49,-382.74C448.82,-377.81 455.58,-372.99 462.29,-369 498.61,-347.39 521.95,-364.34 550.29,-333 565.5,-316.18 579.86,-261.39 589.05,-219.41"/>
<polygon fill="black" stroke="black" points="592.48,-220.1 591.16,-209.59 585.64,-218.63 592.48,-220.1"/>
</g>
<!-- data_\nstructures -->
<g id="node12" class="node">
<title>data_\nstructures</title>
<polygon fill="pink" stroke="black" points="1513.71,-679.1 1442.87,-679.1 1442.87,-637.9 1513.71,-637.9 1513.71,-679.1"/>
<text text-anchor="middle" x="1478.29" y="-662.7" font-family="Times,serif" font-size="14.00">data_</text>
<text text-anchor="middle" x="1478.29" y="-645.9" font-family="Times,serif" font-size="14.00">structures</text>
</g>
<!-- datetime -->
<g id="node13" class="node">
<title>datetime</title>
<polygon fill="pink" stroke="black" points="1595.5,-676.5 1531.08,-676.5 1531.08,-640.5 1595.5,-640.5 1595.5,-676.5"/>
<text text-anchor="middle" x="1563.29" y="-654.3" font-family="Times,serif" font-size="14.00">datetime</text>
</g>
<!-- dotenv -->
<g id="node14" class="node">
<title>dotenv</title>
<polygon fill="pink" stroke="black" points="1667.4,-676.5 1613.19,-676.5 1613.19,-640.5 1667.4,-640.5 1667.4,-676.5"/>
<text text-anchor="middle" x="1640.29" y="-654.3" font-family="Times,serif" font-size="14.00">dotenv</text>
</g>
<!-- encoding -->
<g id="node15" class="node">
<title>encoding</title>
<ellipse fill="none" stroke="black" cx="1059.29" cy="-412.5" rx="39.5" ry="39.5"/>
<ellipse fill="none" stroke="black" cx="1059.29" cy="-412.5" rx="43.5" ry="43.5"/>
<text text-anchor="middle" x="1059.29" y="-408.3" font-family="Times,serif" font-size="14.00">encoding</text>
</g>
<!-- expect -->
<g id="node16" class="node">
<title>expect</title>
<polygon fill="pink" stroke="black" points="469.29,-307.5 415.29,-307.5 415.29,-271.5 469.29,-271.5 469.29,-307.5"/>
<text text-anchor="middle" x="442.29" y="-285.3" font-family="Times,serif" font-size="14.00">expect</text>
</g>
<!-- expect&#45;&gt;assert -->
<g id="edge6" class="edge">
<title>expect&#45;&gt;assert</title>
<path fill="none" stroke="black" d="M426.98,-271.26C419.54,-263.24 410.28,-253.79 401.29,-246 381.09,-228.5 357.12,-210.93 336.82,-196.87"/>
<polygon fill="black" stroke="black" points="338.58,-193.84 328.36,-191.07 334.62,-199.61 338.58,-193.84"/>
</g>
<!-- expect&#45;&gt;internal -->
<g id="edge7" class="edge">
<title>expect&#45;&gt;internal</title>
<path fill="none" stroke="black" d="M442.29,-271.34C442.29,-235.78 442.29,-152.74 442.29,-97.61"/>
<polygon fill="black" stroke="black" points="445.79,-97.32 442.29,-87.32 438.79,-97.32 445.79,-97.32"/>
</g>
<!-- fmt -->
<g id="node17" class="node">
<title>fmt</title>
<ellipse fill="none" stroke="black" cx="868.29" cy="-289.5" rx="39.5" ry="39.5"/>
<ellipse fill="none" stroke="black" cx="868.29" cy="-289.5" rx="43.5" ry="43.5"/>
<text text-anchor="middle" x="868.29" y="-285.3" font-family="Times,serif" font-size="14.00">fmt</text>
</g>
<!-- front_\nmatter -->
<g id="node18" class="node">
<title>front_\nmatter</title>
<ellipse fill="none" stroke="black" cx="1381.29" cy="-658.5" rx="39.5" ry="39.5"/>
<ellipse fill="none" stroke="black" cx="1381.29" cy="-658.5" rx="43.5" ry="43.5"/>
<text text-anchor="middle" x="1381.29" y="-662.7" font-family="Times,serif" font-size="14.00">front_</text>
<text text-anchor="middle" x="1381.29" y="-645.9" font-family="Times,serif" font-size="14.00">matter</text>
</g>
<!-- toml -->
<g id="node19" class="node">
<title>toml</title>
<ellipse fill="none" stroke="black" cx="1329.29" cy="-535.5" rx="39.5" ry="39.5"/>
<ellipse fill="none" stroke="black" cx="1329.29" cy="-535.5" rx="43.5" ry="43.5"/>
<text text-anchor="middle" x="1329.29" y="-531.3" font-family="Times,serif" font-size="14.00">toml</text>
</g>
<!-- front_\nmatter&#45;&gt;toml -->
<g id="edge8" class="edge">
<title>front_\nmatter&#45;&gt;toml</title>
<path fill="none" stroke="black" d="M1364.41,-618.21C1359.91,-607.75 1355,-596.32 1350.31,-585.42"/>
<polygon fill="black" stroke="black" points="1353.43,-583.81 1346.27,-576 1347,-586.57 1353.43,-583.81"/>
</g>
<!-- yaml -->
<g id="node20" class="node">
<title>yaml</title>
<ellipse fill="none" stroke="black" cx="1434.29" cy="-535.5" rx="39.5" ry="39.5"/>
<ellipse fill="none" stroke="black" cx="1434.29" cy="-535.5" rx="43.5" ry="43.5"/>
<text text-anchor="middle" x="1434.29" y="-531.3" font-family="Times,serif" font-size="14.00">yaml</text>
</g>
<!-- front_\nmatter&#45;&gt;yaml -->
<g id="edge9" class="edge">
<title>front_\nmatter&#45;&gt;yaml</title>
<path fill="none" stroke="black" d="M1398.5,-618.21C1403.17,-607.54 1408.29,-595.86 1413.16,-584.75"/>
<polygon fill="black" stroke="black" points="1416.36,-586.15 1417.17,-575.59 1409.95,-583.34 1416.36,-586.15"/>
</g>
<!-- toml&#45;&gt;collections -->
<g id="edge41" class="edge">
<title>toml&#45;&gt;collections</title>
<path fill="none" stroke="black" d="M1329.29,-491.84C1329.29,-483.62 1329.29,-474.91 1329.29,-466.41"/>
<polygon fill="black" stroke="black" points="1332.79,-466.18 1329.29,-456.18 1325.79,-466.18 1332.79,-466.18"/>
</g>
<!-- fs -->
<g id="node21" class="node">
<title>fs</title>
<ellipse fill="none" stroke="black" cx="763.29" cy="-289.5" rx="39.5" ry="39.5"/>
<ellipse fill="none" stroke="black" cx="763.29" cy="-289.5" rx="43.5" ry="43.5"/>
<text text-anchor="middle" x="763.29" y="-285.3" font-family="Times,serif" font-size="14.00">fs</text>
</g>
<!-- path -->
<g id="node22" class="node">
<title>path</title>
<ellipse fill="none" stroke="black" cx="1202.29" cy="-166.5" rx="39.5" ry="39.5"/>
<ellipse fill="none" stroke="black" cx="1202.29" cy="-166.5" rx="43.5" ry="43.5"/>
<text text-anchor="middle" x="1202.29" y="-162.3" font-family="Times,serif" font-size="14.00">path</text>
</g>
<!-- fs&#45;&gt;path -->
<g id="edge10" class="edge">
<title>fs&#45;&gt;path</title>
<path fill="none" stroke="black" d="M794.11,-258.57C800.67,-253.62 807.87,-249.11 815.29,-246 953.02,-188.37 1011.29,-266.99 1149.29,-210 1153.82,-208.13 1158.28,-205.75 1162.57,-203.06"/>
<polygon fill="black" stroke="black" points="1164.83,-205.76 1171.1,-197.21 1160.87,-199.98 1164.83,-205.76"/>
</g>
<!-- html -->
<g id="node23" class="node">
<title>html</title>
<polygon fill="pink" stroke="black" points="1739.29,-676.5 1685.29,-676.5 1685.29,-640.5 1739.29,-640.5 1739.29,-676.5"/>
<text text-anchor="middle" x="1712.29" y="-654.3" font-family="Times,serif" font-size="14.00">html</text>
</g>
<!-- http -->
<g id="node24" class="node">
<title>http</title>
<polygon fill="pink" stroke="black" points="663.29,-553.5 609.29,-553.5 609.29,-517.5 663.29,-517.5 663.29,-553.5"/>
<text text-anchor="middle" x="636.29" y="-531.3" font-family="Times,serif" font-size="14.00">http</text>
</g>
<!-- http&#45;&gt;assert -->
<g id="edge11" class="edge">
<title>http&#45;&gt;assert</title>
<path fill="none" stroke="black" d="M609.27,-527.4C575.16,-518.55 514.58,-503.23 462.29,-492 419.42,-482.79 296.33,-489.71 268.29,-456 212.05,-388.36 243.93,-278.37 269.72,-215.54"/>
<polygon fill="black" stroke="black" points="272.98,-216.83 273.63,-206.25 266.53,-214.11 272.98,-216.83"/>
</g>
<!-- http&#45;&gt;async -->
<g id="edge13" class="edge">
<title>http&#45;&gt;async</title>
<path fill="none" stroke="black" d="M663.38,-533.37C737.31,-529.6 947.88,-514.12 1111.29,-456 1215.01,-419.11 1233.97,-392.96 1326.29,-333 1331.32,-329.73 1336.51,-326.2 1341.61,-322.6"/>
<polygon fill="black" stroke="black" points="1343.98,-325.21 1350.08,-316.55 1339.91,-319.51 1343.98,-325.21"/>
</g>
<!-- http&#45;&gt;cli -->
<g id="edge17" class="edge">
<title>http&#45;&gt;cli</title>
<path fill="none" stroke="black" d="M609.04,-527.02C574.93,-517.86 514.62,-502.28 462.29,-492 356.02,-471.13 317.56,-505.61 221.29,-456 213.04,-451.75 205.49,-445.18 199.19,-438.48"/>
<polygon fill="black" stroke="black" points="201.6,-435.91 192.39,-430.67 196.32,-440.51 201.6,-435.91"/>
</g>
<!-- http&#45;&gt;streams -->
<g id="edge16" class="edge">
<title>http&#45;&gt;streams</title>
<path fill="none" stroke="black" d="M609.26,-524.84C574.08,-511.72 511.31,-486.36 462.29,-456 458.45,-453.62 454.58,-450.99 450.78,-448.24"/>
<polygon fill="black" stroke="black" points="452.7,-445.3 442.61,-442.06 448.48,-450.88 452.7,-445.3"/>
</g>
<!-- http&#45;&gt;encoding -->
<g id="edge12" class="edge">
<title>http&#45;&gt;encoding</title>
<path fill="none" stroke="black" d="M663.67,-533.01C726.95,-528.68 887.01,-512.51 1006.29,-456 1010.72,-453.9 1015.11,-451.36 1019.35,-448.58"/>
<polygon fill="black" stroke="black" points="1021.67,-451.23 1027.83,-442.61 1017.64,-445.51 1021.67,-451.23"/>
</g>
<!-- http&#45;&gt;fmt -->
<g id="edge18" class="edge">
<title>http&#45;&gt;fmt</title>
<path fill="none" stroke="black" d="M663.55,-526.66C697.2,-515.76 754.36,-493.06 790.29,-456 821.41,-423.9 841.89,-377.06 854.02,-341.4"/>
<polygon fill="black" stroke="black" points="857.43,-342.25 857.23,-331.66 850.78,-340.06 857.43,-342.25"/>
</g>
<!-- http&#45;&gt;path -->
<g id="edge14" class="edge">
<title>http&#45;&gt;path</title>
<path fill="none" stroke="black" d="M645.74,-517.23C653.9,-501.65 665.41,-477.88 672.29,-456 700.73,-365.51 640.04,-309.73 710.29,-246 782.79,-180.23 1058.35,-246.2 1149.29,-210 1153.85,-208.19 1158.32,-205.84 1162.62,-203.19"/>
<polygon fill="black" stroke="black" points="1164.86,-205.89 1171.16,-197.37 1160.92,-200.1 1164.86,-205.89"/>
</g>
<!-- media_types -->
<g id="node25" class="node">
<title>media_types</title>
<ellipse fill="none" stroke="black" cx="531.29" cy="-412.5" rx="59.69" ry="18"/>
<text text-anchor="middle" x="531.29" y="-408.3" font-family="Times,serif" font-size="14.00">media_types</text>
</g>
<!-- http&#45;&gt;media_types -->
<g id="edge15" class="edge">
<title>http&#45;&gt;media_types</title>
<path fill="none" stroke="black" d="M621.47,-517.42C603.47,-496.67 572.97,-461.53 552.49,-437.93"/>
<polygon fill="black" stroke="black" points="554.9,-435.36 545.7,-430.1 549.61,-439.95 554.9,-435.36"/>
</g>
<!-- net -->
<g id="node26" class="node">
<title>net</title>
<polygon fill="pink" stroke="black" points="663.29,-430.5 609.29,-430.5 609.29,-394.5 663.29,-394.5 663.29,-430.5"/>
<text text-anchor="middle" x="636.29" y="-408.3" font-family="Times,serif" font-size="14.00">net</text>
</g>
<!-- http&#45;&gt;net -->
<g id="edge19" class="edge">
<title>http&#45;&gt;net</title>
<path fill="none" stroke="black" d="M636.29,-517.42C636.29,-497.54 636.29,-464.42 636.29,-440.92"/>
<polygon fill="black" stroke="black" points="639.79,-440.88 636.29,-430.88 632.79,-440.88 639.79,-440.88"/>
</g>
<!-- ini -->
<g id="node27" class="node">
<title>ini</title>
<polygon fill="pink" stroke="black" points="1811.29,-676.5 1757.29,-676.5 1757.29,-640.5 1811.29,-640.5 1811.29,-676.5"/>
<text text-anchor="middle" x="1784.29" y="-654.3" font-family="Times,serif" font-size="14.00">ini</text>
</g>
<!-- json -->
<g id="node28" class="node">
<title>json</title>
<ellipse fill="none" stroke="black" cx="410.29" cy="-535.5" rx="39.5" ry="39.5"/>
<ellipse fill="none" stroke="black" cx="410.29" cy="-535.5" rx="43.5" ry="43.5"/>
<text text-anchor="middle" x="410.29" y="-531.3" font-family="Times,serif" font-size="14.00">json</text>
</g>
<!-- json&#45;&gt;streams -->
<g id="edge22" class="edge">
<title>json&#45;&gt;streams</title>
<path fill="none" stroke="black" d="M410.29,-491.84C410.29,-483.62 410.29,-474.91 410.29,-466.41"/>
<polygon fill="black" stroke="black" points="413.79,-466.18 410.29,-456.18 406.79,-466.18 413.79,-466.18"/>
</g>
<!-- jsonc -->
<g id="node29" class="node">
<title>jsonc</title>
<ellipse fill="none" stroke="black" cx="210.29" cy="-658.5" rx="39.5" ry="39.5"/>
<ellipse fill="none" stroke="black" cx="210.29" cy="-658.5" rx="43.5" ry="43.5"/>
<text text-anchor="middle" x="210.29" y="-654.3" font-family="Times,serif" font-size="14.00">jsonc</text>
</g>
<!-- jsonc&#45;&gt;assert -->
<g id="edge23" class="edge">
<title>jsonc&#45;&gt;assert</title>
<path fill="none" stroke="black" d="M178.48,-628.76C104.31,-558.29 -66.76,-373.42 28.29,-246 53.57,-212.12 169.85,-187.59 239.38,-175.66"/>
<polygon fill="black" stroke="black" points="240.01,-179.11 249.29,-173.99 238.84,-172.2 240.01,-179.11"/>
</g>
<!-- jsonc&#45;&gt;json -->
<g id="edge24" class="edge">
<title>jsonc&#45;&gt;json</title>
<path fill="none" stroke="black" d="M249.48,-639.05C279.76,-624.22 322.27,-602.1 357.29,-579 361.27,-576.38 365.31,-573.53 369.29,-570.58"/>
<polygon fill="black" stroke="black" points="371.51,-573.29 377.35,-564.45 367.28,-567.72 371.51,-573.29"/>
</g>
<!-- log -->
<g id="node30" class="node">
<title>log</title>
<polygon fill="pink" stroke="black" points="781.29,-430.5 727.29,-430.5 727.29,-394.5 781.29,-394.5 781.29,-430.5"/>
<text text-anchor="middle" x="754.29" y="-408.3" font-family="Times,serif" font-size="14.00">log</text>
</g>
<!-- log&#45;&gt;io -->
<g id="edge26" class="edge">
<title>log&#45;&gt;io</title>
<path fill="none" stroke="black" d="M727.21,-396.83C711.35,-388.4 690.85,-377.77 672.29,-369 635.57,-351.64 624.63,-351.15 588.29,-333 575.72,-326.72 562.31,-319.27 550.41,-312.36"/>
<polygon fill="black" stroke="black" points="552.03,-309.26 541.64,-307.22 548.49,-315.3 552.03,-309.26"/>
</g>
<!-- log&#45;&gt;assert -->
<g id="edge28" class="edge">
<title>log&#45;&gt;assert</title>
<path fill="none" stroke="black" d="M727.27,-394.36C711.76,-385.34 691.6,-374.95 672.29,-369 544.38,-329.57 481.08,-412.35 373.29,-333 339.17,-307.88 352.96,-284.04 334.29,-246 329.18,-235.59 323.46,-224.54 317.92,-214.12"/>
<polygon fill="black" stroke="black" points="320.93,-212.32 313.12,-205.15 314.76,-215.62 320.93,-212.32"/>
</g>
<!-- log&#45;&gt;fmt -->
<g id="edge25" class="edge">
<title>log&#45;&gt;fmt</title>
<path fill="none" stroke="black" d="M770.38,-394.42C786.19,-377.64 810.88,-351.43 831.51,-329.54"/>
<polygon fill="black" stroke="black" points="834.31,-331.67 838.62,-322 829.21,-326.87 834.31,-331.67"/>
</g>
<!-- log&#45;&gt;fs -->
<g id="edge27" class="edge">
<title>log&#45;&gt;fs</title>
<path fill="none" stroke="black" d="M755.56,-394.42C756.56,-381.01 758,-361.58 759.38,-343.14"/>
<polygon fill="black" stroke="black" points="762.88,-343.28 760.13,-333.05 755.89,-342.76 762.88,-343.28"/>
</g>
<!-- media_\ntypes -->
<g id="node31" class="node">
<title>media_\ntypes</title>
<ellipse fill="none" stroke="black" cx="1873.29" cy="-658.5" rx="39.5" ry="39.5"/>
<ellipse fill="none" stroke="black" cx="1873.29" cy="-658.5" rx="43.5" ry="43.5"/>
<text text-anchor="middle" x="1873.29" y="-662.7" font-family="Times,serif" font-size="14.00">media_</text>
<text text-anchor="middle" x="1873.29" y="-645.9" font-family="Times,serif" font-size="14.00">types</text>
</g>
<!-- msgpack -->
<g id="node32" class="node">
<title>msgpack</title>
<polygon fill="pink" stroke="black" points="663.06,-307.5 597.53,-307.5 597.53,-271.5 663.06,-271.5 663.06,-307.5"/>
<text text-anchor="middle" x="630.29" y="-285.3" font-family="Times,serif" font-size="14.00">msgpack</text>
</g>
<!-- msgpack&#45;&gt;bytes -->
<g id="edge29" class="edge">
<title>msgpack&#45;&gt;bytes</title>
<path fill="none" stroke="black" d="M625.92,-271.42C622.38,-257.61 617.2,-237.41 612.35,-218.49"/>
<polygon fill="black" stroke="black" points="615.73,-217.57 609.86,-208.75 608.95,-219.31 615.73,-217.57"/>
</g>
<!-- regexp -->
<g id="node33" class="node">
<title>regexp</title>
<polygon fill="pink" stroke="black" points="1989.38,-676.5 1935.2,-676.5 1935.2,-640.5 1989.38,-640.5 1989.38,-676.5"/>
<text text-anchor="middle" x="1962.29" y="-654.3" font-family="Times,serif" font-size="14.00">regexp</text>
</g>
<!-- semver -->
<g id="node34" class="node">
<title>semver</title>
<polygon fill="pink" stroke="black" points="2063.72,-676.5 2006.86,-676.5 2006.86,-640.5 2063.72,-640.5 2063.72,-676.5"/>
<text text-anchor="middle" x="2035.29" y="-654.3" font-family="Times,serif" font-size="14.00">semver</text>
</g>
<!-- testing -->
<g id="node35" class="node">
<title>testing</title>
<ellipse fill="none" stroke="black" cx="954.29" cy="-412.5" rx="39.5" ry="39.5"/>
<ellipse fill="none" stroke="black" cx="954.29" cy="-412.5" rx="43.5" ry="43.5"/>
<text text-anchor="middle" x="954.29" y="-408.3" font-family="Times,serif" font-size="14.00">testing</text>
</g>
<!-- testing&#45;&gt;assert -->
<g id="edge33" class="edge">
<title>testing&#45;&gt;assert</title>
<path fill="none" stroke="black" d="M912.9,-398.81C879.98,-389.19 832.59,-376.41 790.29,-369 705.87,-354.2 475.73,-383.23 406.29,-333 372.1,-308.27 391.78,-281.05 368.29,-246 358.05,-230.72 344.66,-215.75 331.98,-203.05"/>
<polygon fill="black" stroke="black" points="334.22,-200.35 324.63,-195.85 329.32,-205.35 334.22,-200.35"/>
</g>
<!-- testing&#45;&gt;internal -->
<g id="edge37" class="edge">
<title>testing&#45;&gt;internal</title>
<path fill="none" stroke="black" d="M985.16,-381.67C991.71,-376.72 998.9,-372.17 1006.29,-369 1065.37,-343.67 1250.76,-381.2 1293.29,-333 1356.1,-261.82 1328.1,-182.7 1254.29,-123 1195.38,-75.35 667.53,-52.51 495.92,-46.3"/>
<polygon fill="black" stroke="black" points="495.98,-42.8 485.86,-45.94 495.73,-49.79 495.98,-42.8"/>
</g>
<!-- testing&#45;&gt;async -->
<g id="edge39" class="edge">
<title>testing&#45;&gt;async</title>
<path fill="none" stroke="black" d="M985.13,-381.6C991.68,-376.65 998.88,-372.12 1006.29,-369 1138.19,-313.45 1192.97,-385.05 1326.29,-333 1332.09,-330.74 1337.83,-327.74 1343.32,-324.39"/>
<polygon fill="black" stroke="black" points="1345.27,-327.29 1351.7,-318.87 1341.42,-321.44 1345.27,-327.29"/>
</g>
<!-- testing&#45;&gt;fmt -->
<g id="edge36" class="edge">
<title>testing&#45;&gt;fmt</title>
<path fill="none" stroke="black" d="M929.42,-376.5C919.97,-363.21 909.09,-347.9 899.15,-333.92"/>
<polygon fill="black" stroke="black" points="901.76,-331.54 893.11,-325.42 896.05,-335.6 901.76,-331.54"/>
</g>
<!-- testing&#45;&gt;fs -->
<g id="edge35" class="edge">
<title>testing&#45;&gt;fs</title>
<path fill="none" stroke="black" d="M915.78,-392.03C887.27,-377.09 847.89,-355.29 815.29,-333 811.56,-330.45 807.77,-327.7 804.02,-324.87"/>
<polygon fill="black" stroke="black" points="805.97,-321.95 795.93,-318.58 801.68,-327.48 805.97,-321.95"/>
</g>
<!-- testing&#45;&gt;path -->
<g id="edge34" class="edge">
<title>testing&#45;&gt;path</title>
<path fill="none" stroke="black" d="M985.65,-381.91C992.1,-377 999.13,-372.4 1006.29,-369 1078.41,-334.74 1128.18,-391.71 1182.29,-333 1209.87,-303.07 1213.19,-256.09 1210.57,-219.82"/>
<polygon fill="black" stroke="black" points="1214.02,-219.06 1209.64,-209.41 1207.05,-219.69 1214.02,-219.06"/>
</g>
<!-- data_structures -->
<g id="node36" class="node">
<title>data_structures</title>
<ellipse fill="none" stroke="black" cx="999.29" cy="-289.5" rx="69.48" ry="18"/>
<text text-anchor="middle" x="999.29" y="-285.3" font-family="Times,serif" font-size="14.00">data_structures</text>
</g>
<!-- testing&#45;&gt;data_structures -->
<g id="edge38" class="edge">
<title>testing&#45;&gt;data_structures</title>
<path fill="none" stroke="black" d="M969.15,-371.54C975.79,-353.7 983.43,-333.15 989.36,-317.21"/>
<polygon fill="black" stroke="black" points="992.77,-318.07 992.98,-307.47 986.21,-315.63 992.77,-318.07"/>
</g>
<!-- text -->
<g id="node37" class="node">
<title>text</title>
<polygon fill="pink" stroke="black" points="91.29,-307.5 37.29,-307.5 37.29,-271.5 91.29,-271.5 91.29,-307.5"/>
<text text-anchor="middle" x="64.29" y="-285.3" font-family="Times,serif" font-size="14.00">text</text>
</g>
<!-- text&#45;&gt;assert -->
<g id="edge40" class="edge">
<title>text&#45;&gt;assert</title>
<path fill="none" stroke="black" d="M75.71,-271.45C82.12,-262.91 90.75,-252.93 100.29,-246 142.96,-215.02 199.63,-193.79 240.33,-181.3"/>
<polygon fill="black" stroke="black" points="241.48,-184.61 250.05,-178.39 239.47,-177.91 241.48,-184.61"/>
</g>
<!-- ulid -->
<g id="node38" class="node">
<title>ulid</title>
<polygon fill="pink" stroke="black" points="2135.29,-676.5 2081.29,-676.5 2081.29,-640.5 2135.29,-640.5 2135.29,-676.5"/>
<text text-anchor="middle" x="2108.29" y="-654.3" font-family="Times,serif" font-size="14.00">ulid</text>
</g>
<!-- url -->
<g id="node39" class="node">
<title>url</title>
<polygon fill="pink" stroke="black" points="1284.29,-307.5 1230.29,-307.5 1230.29,-271.5 1284.29,-271.5 1284.29,-307.5"/>
<text text-anchor="middle" x="1257.29" y="-285.3" font-family="Times,serif" font-size="14.00">url</text>
</g>
<!-- url&#45;&gt;path -->
<g id="edge42" class="edge">
<title>url&#45;&gt;path</title>
<path fill="none" stroke="black" d="M1249.53,-271.42C1242.93,-256.91 1233.14,-235.36 1224.17,-215.64"/>
<polygon fill="black" stroke="black" points="1227.32,-214.1 1219.99,-206.44 1220.94,-216.99 1227.32,-214.1"/>
</g>
<!-- uuid -->
<g id="node40" class="node">
<title>uuid</title>
<ellipse fill="none" stroke="black" cx="1130.29" cy="-289.5" rx="39.5" ry="39.5"/>
<ellipse fill="none" stroke="black" cx="1130.29" cy="-289.5" rx="43.5" ry="43.5"/>
<text text-anchor="middle" x="1130.29" y="-285.3" font-family="Times,serif" font-size="14.00">uuid</text>
</g>
<!-- uuid&#45;&gt;bytes -->
<g id="edge43" class="edge">
<title>uuid&#45;&gt;bytes</title>
<path fill="none" stroke="black" d="M1098.95,-259.12C1092.21,-254.06 1084.83,-249.36 1077.29,-246 933.44,-181.87 744.24,-169.56 653.03,-167.57"/>
<polygon fill="black" stroke="black" points="652.99,-164.07 642.93,-167.38 652.86,-171.07 652.99,-164.07"/>
</g>
<!-- uuid&#45;&gt;crypto -->
<g id="edge44" class="edge">
<title>uuid&#45;&gt;crypto</title>
<path fill="none" stroke="black" d="M1119.03,-247.2C1116.5,-237.95 1113.8,-228.03 1111.19,-218.45"/>
<polygon fill="black" stroke="black" points="1114.51,-217.34 1108.5,-208.62 1107.76,-219.19 1114.51,-217.34"/>
</g>
<!-- webgpu -->
<g id="node41" class="node">
<title>webgpu</title>
<polygon fill="pink" stroke="black" points="169.61,-307.5 108.97,-307.5 108.97,-271.5 169.61,-271.5 169.61,-307.5"/>
<text text-anchor="middle" x="139.29" y="-285.3" font-family="Times,serif" font-size="14.00">webgpu</text>
</g>
<!-- webgpu&#45;&gt;assert -->
<g id="edge45" class="edge">
<title>webgpu&#45;&gt;assert</title>
<path fill="none" stroke="black" d="M155.89,-271.36C163.92,-263.37 173.84,-253.9 183.29,-246 203.8,-228.86 227.8,-211.33 248.05,-197.2"/>
<polygon fill="black" stroke="black" points="250.25,-199.93 256.47,-191.36 246.26,-194.18 250.25,-199.93"/>
</g>
</g>
</svg>
