<?xml version="1.0" encoding="UTF-8" standalone="no"?>
<!DOCTYPE svg PUBLIC "-//W3C//DTD SVG 1.1//EN"
 "http://www.w3.org/Graphics/SVG/1.1/DTD/svg11.dtd">
<!-- Generated by graphviz version 2.44.0 (20200518.1210)
 -->
<!-- Title: std_deps Pages: 1 -->
<svg width="2512pt" height="620pt"
 viewBox="0.00 0.00 2512.00 620.00" xmlns="http://www.w3.org/2000/svg" xmlns:xlink="http://www.w3.org/1999/xlink">
<g id="graph0" class="graph" transform="scale(1 1) rotate(0) translate(4 616)">
<title>std_deps</title>
<polygon fill="white" stroke="transparent" points="-4,4 -4,-616 2508,-616 2508,4 -4,4"/>
<!-- archive -->
<g id="node1" class="node">
<title>archive</title>
<ellipse fill="none" stroke="black" cx="215" cy="-360" rx="36" ry="36"/>
<text text-anchor="middle" x="215" y="-355.8" font-family="Times,serif" font-size="14.00">archive</text>
</g>
<!-- io -->
<g id="node2" class="node">
<title>io</title>
<ellipse fill="none" stroke="black" cx="563" cy="-252" rx="36" ry="36"/>
<text text-anchor="middle" x="563" y="-247.8" font-family="Times,serif" font-size="14.00">io</text>
</g>
<!-- archive&#45;&gt;io -->
<g id="edge1" class="edge">
<title>archive&#45;&gt;io</title>
<path fill="none" stroke="black" d="M242.7,-336.86C249.68,-332.08 257.36,-327.43 265,-324 349.61,-285.98 457.25,-266.81 517.27,-258.45"/>
<polygon fill="black" stroke="black" points="517.75,-261.92 527.19,-257.11 516.81,-254.98 517.75,-261.92"/>
</g>
<!-- assert -->
<g id="node3" class="node">
<title>assert</title>
<ellipse fill="lightgreen" stroke="black" cx="87" cy="-144" rx="36" ry="36"/>
<text text-anchor="middle" x="87" y="-139.8" font-family="Times,serif" font-size="14.00">assert</text>
</g>
<!-- io&#45;&gt;assert -->
<g id="edge17" class="edge">
<title>io&#45;&gt;assert</title>
<path fill="none" stroke="black" d="M528,-243.21C443.07,-224.29 226.12,-175.98 131.86,-154.99"/>
<polygon fill="black" stroke="black" points="132.57,-151.56 122.05,-152.81 131.05,-158.4 132.57,-151.56"/>
</g>
<!-- bytes -->
<g id="node6" class="node">
<title>bytes</title>
<ellipse fill="lightgreen" stroke="black" cx="816" cy="-144" rx="36" ry="36"/>
<text text-anchor="middle" x="816" y="-139.8" font-family="Times,serif" font-size="14.00">bytes</text>
</g>
<!-- io&#45;&gt;bytes -->
<g id="edge18" class="edge">
<title>io&#45;&gt;bytes</title>
<path fill="none" stroke="black" d="M596.08,-237.14C641.63,-218.06 723.69,-183.67 773.67,-162.73"/>
<polygon fill="black" stroke="black" points="775.05,-165.95 782.92,-158.86 772.34,-159.5 775.05,-165.95"/>
</g>
<!-- internal -->
<g id="node4" class="node">
<title>internal</title>
<ellipse fill="lightgreen" stroke="black" cx="87" cy="-36" rx="36" ry="36"/>
<text text-anchor="middle" x="87" y="-31.8" font-family="Times,serif" font-size="14.00">internal</text>
</g>
<!-- assert&#45;&gt;internal -->
<g id="edge2" class="edge">
<title>assert&#45;&gt;internal</title>
<path fill="none" stroke="black" d="M87,-108C87,-99.85 87,-91.06 87,-82.54"/>
<polygon fill="black" stroke="black" points="90.5,-82.33 87,-72.33 83.5,-82.33 90.5,-82.33"/>
</g>
<!-- async -->
<g id="node5" class="node">
<title>async</title>
<ellipse fill="none" stroke="black" cx="717" cy="-360" rx="36" ry="36"/>
<text text-anchor="middle" x="717" y="-355.8" font-family="Times,serif" font-size="14.00">async</text>
</g>
<!-- cli -->
<g id="node7" class="node">
<title>cli</title>
<ellipse fill="none" stroke="black" cx="1163" cy="-360" rx="36" ry="36"/>
<text text-anchor="middle" x="1163" y="-355.8" font-family="Times,serif" font-size="14.00">cli</text>
</g>
<!-- collections -->
<g id="node8" class="node">
<title>collections</title>
<ellipse fill="lightgreen" stroke="black" cx="1433" cy="-360" rx="36" ry="36"/>
<text text-anchor="middle" x="1433" y="-355.8" font-family="Times,serif" font-size="14.00">collections</text>
</g>
<!-- crypto -->
<g id="node9" class="node">
<title>crypto</title>
<ellipse fill="lightgreen" stroke="black" cx="938" cy="-144" rx="36" ry="36"/>
<text text-anchor="middle" x="938" y="-139.8" font-family="Times,serif" font-size="14.00">crypto</text>
</g>
<!-- csv -->
<g id="node10" class="node">
<title>csv</title>
<ellipse fill="none" stroke="black" cx="732" cy="-468" rx="36" ry="36"/>
<text text-anchor="middle" x="732" y="-463.8" font-family="Times,serif" font-size="14.00">csv</text>
</g>
<!-- streams -->
<g id="node11" class="node">
<title>streams</title>
<ellipse fill="none" stroke="black" cx="807" cy="-360" rx="36" ry="36"/>
<text text-anchor="middle" x="807" y="-355.8" font-family="Times,serif" font-size="14.00">streams</text>
</g>
<!-- csv&#45;&gt;streams -->
<g id="edge3" class="edge">
<title>csv&#45;&gt;streams</title>
<path fill="none" stroke="black" d="M752.49,-438.04C761.18,-425.77 771.4,-411.32 780.63,-398.27"/>
<polygon fill="black" stroke="black" points="783.61,-400.11 786.53,-389.93 777.9,-396.07 783.61,-400.11"/>
</g>
<!-- streams&#45;&gt;io -->
<g id="edge26" class="edge">
<title>streams&#45;&gt;io</title>
<path fill="none" stroke="black" d="M779.93,-335.58C774.25,-331.36 768.11,-327.26 762,-324 716.99,-299.99 701.01,-305.25 653,-288 637.47,-282.42 620.58,-275.96 605.66,-270.11"/>
<polygon fill="black" stroke="black" points="606.77,-266.79 596.18,-266.38 604.2,-273.3 606.77,-266.79"/>
</g>
<!-- streams&#45;&gt;bytes -->
<g id="edge25" class="edge">
<title>streams&#45;&gt;bytes</title>
<path fill="none" stroke="black" d="M803.71,-323.96C801.55,-294.97 799.67,-252.73 803,-216 803.78,-207.39 805.09,-198.26 806.58,-189.52"/>
<polygon fill="black" stroke="black" points="810.05,-189.96 808.39,-179.5 803.17,-188.71 810.05,-189.96"/>
</g>
<!-- data_\nstructures -->
<g id="node12" class="node">
<title>data_\nstructures</title>
<ellipse fill="none" stroke="black" cx="1568" cy="-576" rx="36" ry="36"/>
<text text-anchor="middle" x="1568" y="-580.2" font-family="Times,serif" font-size="14.00">data_</text>
<text text-anchor="middle" x="1568" y="-563.4" font-family="Times,serif" font-size="14.00">structures</text>
</g>
<!-- datetime -->
<g id="node13" class="node">
<title>datetime</title>
<ellipse fill="none" stroke="black" cx="1658" cy="-576" rx="36" ry="36"/>
<text text-anchor="middle" x="1658" y="-571.8" font-family="Times,serif" font-size="14.00">datetime</text>
</g>
<!-- dotenv -->
<g id="node14" class="node">
<title>dotenv</title>
<ellipse fill="none" stroke="black" cx="1748" cy="-576" rx="36" ry="36"/>
<text text-anchor="middle" x="1748" y="-571.8" font-family="Times,serif" font-size="14.00">dotenv</text>
</g>
<!-- encoding -->
<g id="node15" class="node">
<title>encoding</title>
<ellipse fill="lightgreen" stroke="black" cx="1253" cy="-360" rx="36" ry="36"/>
<text text-anchor="middle" x="1253" y="-355.8" font-family="Times,serif" font-size="14.00">encoding</text>
</g>
<!-- expect -->
<g id="node16" class="node">
<title>expect</title>
<ellipse fill="none" stroke="black" cx="36" cy="-252" rx="36" ry="36"/>
<text text-anchor="middle" x="36" y="-247.8" font-family="Times,serif" font-size="14.00">expect</text>
</g>
<!-- expect&#45;&gt;assert -->
<g id="edge4" class="edge">
<title>expect&#45;&gt;assert</title>
<path fill="none" stroke="black" d="M51.3,-219.2C56.34,-208.72 62.02,-196.91 67.35,-185.85"/>
<polygon fill="black" stroke="black" points="70.53,-187.31 71.71,-176.78 64.22,-184.27 70.53,-187.31"/>
</g>
<!-- expect&#45;&gt;internal -->
<g id="edge5" class="edge">
<title>expect&#45;&gt;internal</title>
<path fill="none" stroke="black" d="M32.51,-216.05C30.72,-186.55 30.86,-143.57 42,-108 45.78,-95.92 52.16,-83.88 58.95,-73.24"/>
<polygon fill="black" stroke="black" points="62.04,-74.91 64.7,-64.65 56.23,-71.01 62.04,-74.91"/>
</g>
<!-- fmt -->
<g id="node17" class="node">
<title>fmt</title>
<ellipse fill="none" stroke="black" cx="627" cy="-360" rx="36" ry="36"/>
<text text-anchor="middle" x="627" y="-355.8" font-family="Times,serif" font-size="14.00">fmt</text>
</g>
<!-- front_\nmatter -->
<g id="node18" class="node">
<title>front_\nmatter</title>
<ellipse fill="none" stroke="black" cx="1478" cy="-576" rx="36" ry="36"/>
<text text-anchor="middle" x="1478" y="-580.2" font-family="Times,serif" font-size="14.00">front_</text>
<text text-anchor="middle" x="1478" y="-563.4" font-family="Times,serif" font-size="14.00">matter</text>
</g>
<!-- toml -->
<g id="node19" class="node">
<title>toml</title>
<ellipse fill="lightgreen" stroke="black" cx="1433" cy="-468" rx="36" ry="36"/>
<text text-anchor="middle" x="1433" y="-463.8" font-family="Times,serif" font-size="14.00">toml</text>
</g>
<!-- front_\nmatter&#45;&gt;toml -->
<g id="edge6" class="edge">
<title>front_\nmatter&#45;&gt;toml</title>
<path fill="none" stroke="black" d="M1464.25,-542.62C1460.02,-532.65 1455.29,-521.51 1450.83,-510.99"/>
<polygon fill="black" stroke="black" points="1453.95,-509.38 1446.82,-501.55 1447.5,-512.12 1453.95,-509.38"/>
</g>
<!-- yaml -->
<g id="node20" class="node">
<title>yaml</title>
<ellipse fill="none" stroke="black" cx="1523" cy="-468" rx="36" ry="36"/>
<text text-anchor="middle" x="1523" y="-463.8" font-family="Times,serif" font-size="14.00">yaml</text>
</g>
<!-- front_\nmatter&#45;&gt;yaml -->
<g id="edge7" class="edge">
<title>front_\nmatter&#45;&gt;yaml</title>
<path fill="none" stroke="black" d="M1491.75,-542.62C1495.98,-532.65 1500.71,-521.51 1505.17,-510.99"/>
<polygon fill="black" stroke="black" points="1508.5,-512.12 1509.18,-501.55 1502.05,-509.38 1508.5,-512.12"/>
</g>
<!-- toml&#45;&gt;collections -->
<g id="edge34" class="edge">
<title>toml&#45;&gt;collections</title>
<path fill="none" stroke="black" d="M1433,-432C1433,-423.85 1433,-415.06 1433,-406.54"/>
<polygon fill="black" stroke="black" points="1436.5,-406.33 1433,-396.33 1429.5,-406.33 1436.5,-406.33"/>
</g>
<!-- fs -->
<g id="node21" class="node">
<title>fs</title>
<ellipse fill="none" stroke="black" cx="499" cy="-360" rx="36" ry="36"/>
<text text-anchor="middle" x="499" y="-355.8" font-family="Times,serif" font-size="14.00">fs</text>
</g>
<!-- path -->
<g id="node22" class="node">
<title>path</title>
<ellipse fill="lightgreen" stroke="black" cx="698" cy="-252" rx="36" ry="36"/>
<text text-anchor="middle" x="698" y="-247.8" font-family="Times,serif" font-size="14.00">path</text>
</g>
<!-- fs&#45;&gt;path -->
<g id="edge8" class="edge">
<title>fs&#45;&gt;path</title>
<path fill="none" stroke="black" d="M530.53,-342.2C564.88,-323.91 619.94,-294.58 657.47,-274.59"/>
<polygon fill="black" stroke="black" points="659.43,-277.51 666.62,-269.72 656.14,-271.33 659.43,-277.51"/>
</g>
<!-- html -->
<g id="node23" class="node">
<title>html</title>
<ellipse fill="lightgreen" stroke="black" cx="1838" cy="-576" rx="36" ry="36"/>
<text text-anchor="middle" x="1838" y="-571.8" font-family="Times,serif" font-size="14.00">html</text>
</g>
<!-- http -->
<g id="node24" class="node">
<title>http</title>
<ellipse fill="none" stroke="black" cx="928" cy="-468" rx="36" ry="36"/>
<text text-anchor="middle" x="928" y="-463.8" font-family="Times,serif" font-size="14.00">http</text>
</g>
<!-- http&#45;&gt;async -->
<g id="edge10" class="edge">
<title>http&#45;&gt;async</title>
<path fill="none" stroke="black" d="M897.88,-448.2C888.22,-442.59 877.34,-436.69 867,-432 822.07,-411.63 805.4,-419.46 762,-396 758.76,-394.25 755.52,-392.27 752.33,-390.16"/>
<polygon fill="black" stroke="black" points="754.29,-387.26 744.09,-384.36 750.26,-392.98 754.29,-387.26"/>
</g>
<!-- http&#45;&gt;cli -->
<g id="edge14" class="edge">
<title>http&#45;&gt;cli</title>
<path fill="none" stroke="black" d="M962.66,-457.52C1001.84,-446.02 1066.81,-424.59 1118,-396 1121.21,-394.21 1124.44,-392.19 1127.62,-390.07"/>
<polygon fill="black" stroke="black" points="1129.71,-392.87 1135.83,-384.23 1125.65,-387.17 1129.71,-392.87"/>
</g>
<!-- http&#45;&gt;streams -->
<g id="edge13" class="edge">
<title>http&#45;&gt;streams</title>
<path fill="none" stroke="black" d="M901.15,-443.48C883.52,-428.04 860.31,-407.7 841.35,-391.09"/>
<polygon fill="black" stroke="black" points="843.61,-388.42 833.78,-384.46 838.99,-393.68 843.61,-388.42"/>
</g>
<!-- http&#45;&gt;encoding -->
<g id="edge9" class="edge">
<title>http&#45;&gt;encoding</title>
<path fill="none" stroke="black" d="M963.66,-462.74C1018.49,-455.16 1125.78,-436.2 1208,-396 1211.31,-394.38 1214.6,-392.5 1217.82,-390.46"/>
<polygon fill="black" stroke="black" points="1219.85,-393.31 1226.11,-384.76 1215.89,-387.54 1219.85,-393.31"/>
</g>
<!-- http&#45;&gt;fmt -->
<g id="edge15" class="edge">
<title>http&#45;&gt;fmt</title>
<path fill="none" stroke="black" d="M898.27,-447.26C888.62,-441.6 877.66,-435.91 867,-432 784.26,-401.64 752.41,-432.08 672,-396 668.55,-394.45 665.12,-392.58 661.79,-390.53"/>
<polygon fill="black" stroke="black" points="663.49,-387.45 653.25,-384.73 659.56,-393.24 663.49,-387.45"/>
</g>
<!-- http&#45;&gt;path -->
<g id="edge11" class="edge">
<title>http&#45;&gt;path</title>
<path fill="none" stroke="black" d="M911.31,-435.92C904.67,-423.51 896.96,-409.09 890,-396 873.02,-364.05 878.26,-348.89 852,-324 821.11,-294.73 776.01,-275.87 742.59,-265.01"/>
<polygon fill="black" stroke="black" points="743.21,-261.54 732.62,-261.89 741.12,-268.22 743.21,-261.54"/>
</g>
<!-- media_types -->
<g id="node25" class="node">
<title>media_types</title>
<ellipse fill="none" stroke="black" cx="959" cy="-360" rx="59.69" ry="18"/>
<text text-anchor="middle" x="959" y="-355.8" font-family="Times,serif" font-size="14.00">media_types</text>
</g>
<!-- http&#45;&gt;media_types -->
<g id="edge12" class="edge">
<title>http&#45;&gt;media_types</title>
<path fill="none" stroke="black" d="M937.89,-433.17C942.16,-418.59 947.08,-401.77 951.09,-388.04"/>
<polygon fill="black" stroke="black" points="954.51,-388.81 953.96,-378.23 947.8,-386.84 954.51,-388.81"/>
</g>
<!-- net -->
<g id="node26" class="node">
<title>net</title>
<ellipse fill="none" stroke="black" cx="1073" cy="-360" rx="36" ry="36"/>
<text text-anchor="middle" x="1073" y="-355.8" font-family="Times,serif" font-size="14.00">net</text>
</g>
<!-- http&#45;&gt;net -->
<g id="edge16" class="edge">
<title>http&#45;&gt;net</title>
<path fill="none" stroke="black" d="M957.12,-446.82C977.2,-432.79 1004.42,-413.53 1028,-396 1030.95,-393.8 1034,-391.51 1037.05,-389.19"/>
<polygon fill="black" stroke="black" points="1039.26,-391.9 1045.06,-383.03 1035,-386.35 1039.26,-391.9"/>
</g>
<!-- ini -->
<g id="node27" class="node">
<title>ini</title>
<ellipse fill="none" stroke="black" cx="1928" cy="-576" rx="36" ry="36"/>
<text text-anchor="middle" x="1928" y="-571.8" font-family="Times,serif" font-size="14.00">ini</text>
</g>
<!-- json -->
<g id="node28" class="node">
<title>json</title>
<ellipse fill="none" stroke="black" cx="822" cy="-468" rx="36" ry="36"/>
<text text-anchor="middle" x="822" y="-463.8" font-family="Times,serif" font-size="14.00">json</text>
</g>
<!-- json&#45;&gt;streams -->
<g id="edge19" class="edge">
<title>json&#45;&gt;streams</title>
<path fill="none" stroke="black" d="M817.09,-432.29C815.9,-423.87 814.61,-414.75 813.36,-405.94"/>
<polygon fill="black" stroke="black" points="816.79,-405.2 811.92,-395.79 809.86,-406.18 816.79,-405.2"/>
</g>
<!-- jsonc -->
<g id="node29" class="node">
<title>jsonc</title>
<ellipse fill="none" stroke="black" cx="822" cy="-576" rx="36" ry="36"/>
<text text-anchor="middle" x="822" y="-571.8" font-family="Times,serif" font-size="14.00">jsonc</text>
</g>
<!-- jsonc&#45;&gt;json -->
<g id="edge20" class="edge">
<title>jsonc&#45;&gt;json</title>
<path fill="none" stroke="black" d="M822,-540C822,-531.85 822,-523.06 822,-514.54"/>
<polygon fill="black" stroke="black" points="825.5,-514.33 822,-504.33 818.5,-514.33 825.5,-514.33"/>
</g>
<!-- log -->
<g id="node30" class="node">
<title>log</title>
<ellipse fill="none" stroke="black" cx="563" cy="-468" rx="36" ry="36"/>
<text text-anchor="middle" x="563" y="-463.8" font-family="Times,serif" font-size="14.00">log</text>
</g>
<!-- log&#45;&gt;io -->
<g id="edge22" class="edge">
<title>log&#45;&gt;io</title>
<path fill="none" stroke="black" d="M563,-431.66C563,-395.16 563,-338.05 563,-298.26"/>
<polygon fill="black" stroke="black" points="566.5,-298.03 563,-288.03 559.5,-298.03 566.5,-298.03"/>
</g>
<!-- log&#45;&gt;fmt -->
<g id="edge21" class="edge">
<title>log&#45;&gt;fmt</title>
<path fill="none" stroke="black" d="M581.17,-436.91C588.13,-425.38 596.17,-412.07 603.55,-399.84"/>
<polygon fill="black" stroke="black" points="606.61,-401.54 608.79,-391.17 600.62,-397.92 606.61,-401.54"/>
</g>
<!-- log&#45;&gt;fs -->
<g id="edge23" class="edge">
<title>log&#45;&gt;fs</title>
<path fill="none" stroke="black" d="M544.83,-436.91C537.87,-425.38 529.83,-412.07 522.45,-399.84"/>
<polygon fill="black" stroke="black" points="525.38,-397.92 517.21,-391.17 519.39,-401.54 525.38,-397.92"/>
</g>
<!-- media_\ntypes -->
<g id="node31" class="node">
<title>media_\ntypes</title>
<ellipse fill="lightgreen" stroke="black" cx="2018" cy="-576" rx="36" ry="36"/>
<text text-anchor="middle" x="2018" y="-580.2" font-family="Times,serif" font-size="14.00">media_</text>
<text text-anchor="middle" x="2018" y="-563.4" font-family="Times,serif" font-size="14.00">types</text>
</g>
<!-- msgpack -->
<g id="node32" class="node">
<title>msgpack</title>
<ellipse fill="none" stroke="black" cx="848" cy="-252" rx="36" ry="36"/>
<text text-anchor="middle" x="848" y="-247.8" font-family="Times,serif" font-size="14.00">msgpack</text>
</g>
<!-- msgpack&#45;&gt;bytes -->
<g id="edge24" class="edge">
<title>msgpack&#45;&gt;bytes</title>
<path fill="none" stroke="black" d="M837.79,-217.17C835.04,-208.09 832.04,-198.13 829.16,-188.6"/>
<polygon fill="black" stroke="black" points="832.47,-187.43 826.23,-178.87 825.77,-189.46 832.47,-187.43"/>
</g>
<!-- regexp -->
<g id="node33" class="node">
<title>regexp</title>
<ellipse fill="none" stroke="black" cx="2108" cy="-576" rx="36" ry="36"/>
<text text-anchor="middle" x="2108" y="-571.8" font-family="Times,serif" font-size="14.00">regexp</text>
</g>
<!-- semver -->
<g id="node34" class="node">
<title>semver</title>
<ellipse fill="none" stroke="black" cx="2198" cy="-576" rx="36" ry="36"/>
<text text-anchor="middle" x="2198" y="-571.8" font-family="Times,serif" font-size="14.00">semver</text>
</g>
<!-- testing -->
<g id="node35" class="node">
<title>testing</title>
<ellipse fill="none" stroke="black" cx="376" cy="-468" rx="36" ry="36"/>
<text text-anchor="middle" x="376" y="-463.8" font-family="Times,serif" font-size="14.00">testing</text>
</g>
<!-- testing&#45;&gt;assert -->
<g id="edge27" class="edge">
<title>testing&#45;&gt;assert</title>
<path fill="none" stroke="black" d="M339.63,-467.18C286.87,-465.35 189.64,-453.73 137,-396 85.53,-339.55 80.64,-245.72 82.98,-190.18"/>
<polygon fill="black" stroke="black" points="86.49,-190.1 83.51,-179.93 79.5,-189.74 86.49,-190.1"/>
</g>
<!-- testing&#45;&gt;internal -->
<g id="edge31" class="edge">
<title>testing&#45;&gt;internal</title>
<path fill="none" stroke="black" d="M339.76,-465.57C292.77,-461.62 211.88,-447.26 170,-396 88.31,-296.02 176.03,-229.37 132,-108 127.68,-96.1 121.13,-84.12 114.35,-73.47"/>
<polygon fill="black" stroke="black" points="117.08,-71.27 108.64,-64.87 111.25,-75.14 117.08,-71.27"/>
</g>
<!-- testing&#45;&gt;async -->
<g id="edge33" class="edge">
<title>testing&#45;&gt;async</title>
<path fill="none" stroke="black" d="M410.69,-458.33C439.43,-451.17 481.34,-440.8 518,-432 586.35,-415.59 608.57,-426.28 672,-396 675.32,-394.41 678.63,-392.55 681.85,-390.52"/>
<polygon fill="black" stroke="black" points="683.87,-393.38 690.16,-384.85 679.92,-387.6 683.87,-393.38"/>
</g>
<!-- testing&#45;&gt;fmt -->
<g id="edge30" class="edge">
<title>testing&#45;&gt;fmt</title>
<path fill="none" stroke="black" d="M408.81,-453.14C453.91,-434.1 535.09,-399.82 584.7,-378.87"/>
<polygon fill="black" stroke="black" points="586.33,-381.98 594.18,-374.86 583.6,-375.53 586.33,-381.98"/>
</g>
<!-- testing&#45;&gt;fs -->
<g id="edge29" class="edge">
<title>testing&#45;&gt;fs</title>
<path fill="none" stroke="black" d="M402.99,-443.74C421.02,-428.2 444.89,-407.63 464.32,-390.89"/>
<polygon fill="black" stroke="black" points="466.78,-393.39 472.07,-384.21 462.21,-388.08 466.78,-393.39"/>
</g>
<!-- testing&#45;&gt;path -->
<g id="edge28" class="edge">
<title>testing&#45;&gt;path</title>
<path fill="none" stroke="black" d="M345.31,-448.44C327.9,-436.02 307.7,-417.94 298,-396 285.06,-366.73 276.72,-347.9 298,-324 344.12,-272.21 540.69,-304.7 608,-288 624.02,-284.03 641.02,-277.93 655.89,-271.94"/>
<polygon fill="black" stroke="black" points="657.42,-275.09 665.32,-268.04 654.74,-268.63 657.42,-275.09"/>
</g>
<!-- data_structures -->
<g id="node36" class="node">
<title>data_structures</title>
<ellipse fill="none" stroke="black" cx="376" cy="-360" rx="69.48" ry="18"/>
<text text-anchor="middle" x="376" y="-355.8" font-family="Times,serif" font-size="14.00">data_structures</text>
</g>
<!-- testing&#45;&gt;data_structures -->
<g id="edge32" class="edge">
<title>testing&#45;&gt;data_structures</title>
<path fill="none" stroke="black" d="M376,-432C376,-417.86 376,-401.79 376,-388.52"/>
<polygon fill="black" stroke="black" points="379.5,-388.13 376,-378.13 372.5,-388.13 379.5,-388.13"/>
</g>
<!-- text -->
<g id="node37" class="node">
<title>text</title>
<ellipse fill="none" stroke="black" cx="2288" cy="-576" rx="36" ry="36"/>
<text text-anchor="middle" x="2288" y="-571.8" font-family="Times,serif" font-size="14.00">text</text>
</g>
<!-- ulid -->
<g id="node38" class="node">
<title>ulid</title>
<ellipse fill="none" stroke="black" cx="2378" cy="-576" rx="36" ry="36"/>
<text text-anchor="middle" x="2378" y="-571.8" font-family="Times,serif" font-size="14.00">ulid</text>
</g>
<!-- url -->
<g id="node39" class="node">
<title>url</title>
<ellipse fill="none" stroke="black" cx="1343" cy="-360" rx="36" ry="36"/>
<text text-anchor="middle" x="1343" y="-355.8" font-family="Times,serif" font-size="14.00">url</text>
</g>
<!-- url&#45;&gt;path -->
<g id="edge35" class="edge">
<title>url&#45;&gt;path</title>
<path fill="none" stroke="black" d="M1316.99,-334.71C1311.12,-330.44 1304.65,-326.56 1298,-324 1092.09,-244.89 1019.31,-331.21 803,-288 782.14,-283.83 759.69,-276.72 740.92,-270"/>
<polygon fill="black" stroke="black" points="742.06,-266.69 731.47,-266.53 739.65,-273.26 742.06,-266.69"/>
</g>
<!-- uuid -->
<g id="node40" class="node">
<title>uuid</title>
<ellipse fill="lightgreen" stroke="black" cx="938" cy="-252" rx="36" ry="36"/>
<text text-anchor="middle" x="938" y="-247.8" font-family="Times,serif" font-size="14.00">uuid</text>
</g>
<!-- uuid&#45;&gt;bytes -->
<g id="edge36" class="edge">
<title>uuid&#45;&gt;bytes</title>
<path fill="none" stroke="black" d="M911.23,-227.74C893.35,-212.2 869.67,-191.63 850.4,-174.89"/>
<polygon fill="black" stroke="black" points="852.56,-172.12 842.71,-168.21 847.96,-177.41 852.56,-172.12"/>
</g>
<!-- uuid&#45;&gt;crypto -->
<g id="edge37" class="edge">
<title>uuid&#45;&gt;crypto</title>
<path fill="none" stroke="black" d="M938,-216C938,-207.85 938,-199.06 938,-190.54"/>
<polygon fill="black" stroke="black" points="941.5,-190.33 938,-180.33 934.5,-190.33 941.5,-190.33"/>
</g>
<!-- webgpu -->
<g id="node41" class="node">
<title>webgpu</title>
<ellipse fill="none" stroke="black" cx="2468" cy="-576" rx="36" ry="36"/>
<text text-anchor="middle" x="2468" y="-571.8" font-family="Times,serif" font-size="14.00">webgpu</text>
</g>
</g>
</svg>
