<?xml version="1.0" encoding="UTF-8" standalone="no"?>
<!DOCTYPE svg PUBLIC "-//W3C//DTD SVG 1.1//EN"
 "http://www.w3.org/Graphics/SVG/1.1/DTD/svg11.dtd">
<!-- Generated by graphviz version 2.44.0 (20200518.1210)
 -->
<!-- Title: std_deps Pages: 1 -->
<svg width="2299pt" height="587pt"
 viewBox="0.00 0.00 2298.50 587.00" xmlns="http://www.w3.org/2000/svg" xmlns:xlink="http://www.w3.org/1999/xlink">
<g id="graph0" class="graph" transform="scale(1 1) rotate(0) translate(4 583)">
<title>std_deps</title>
<polygon fill="white" stroke="transparent" points="-4,4 -4,-583 2294.5,-583 2294.5,4 -4,4"/>
<!-- archive -->
<g id="node1" class="node">
<title>archive</title>
<polygon fill="pink" stroke="black" points="162.2,-307.5 104.8,-307.5 104.8,-271.5 162.2,-271.5 162.2,-307.5"/>
<text text-anchor="middle" x="133.5" y="-285.3" font-family="Times,serif" font-size="14.00">archive</text>
</g>
<!-- io -->
<g id="node2" class="node">
<title>io</title>
<polygon fill="pink" stroke="black" points="151.5,-184.5 97.5,-184.5 97.5,-148.5 151.5,-148.5 151.5,-184.5"/>
<text text-anchor="middle" x="124.5" y="-162.3" font-family="Times,serif" font-size="14.00">io</text>
</g>
<!-- archive&#45;&gt;io -->
<g id="edge1" class="edge">
<title>archive&#45;&gt;io</title>
<path fill="none" stroke="black" d="M132.23,-271.42C130.75,-251.54 128.29,-218.42 126.54,-194.92"/>
<polygon fill="black" stroke="black" points="130.03,-194.6 125.79,-184.88 123.04,-195.12 130.03,-194.6"/>
</g>
<!-- assert -->
<g id="node3" class="node">
<title>assert</title>
<ellipse fill="none" stroke="black" cx="641.5" cy="-166.5" rx="39.5" ry="39.5"/>
<ellipse fill="none" stroke="black" cx="641.5" cy="-166.5" rx="43.5" ry="43.5"/>
<text text-anchor="middle" x="641.5" y="-162.3" font-family="Times,serif" font-size="14.00">assert</text>
</g>
<!-- archive&#45;&gt;assert -->
<g id="edge2" class="edge">
<title>archive&#45;&gt;assert</title>
<path fill="none" stroke="black" d="M146.4,-271.42C154.13,-262.42 164.73,-252.03 176.5,-246 194.8,-236.63 470.74,-193.62 588.68,-175.54"/>
<polygon fill="black" stroke="black" points="589.23,-179 598.58,-174.03 588.17,-172.08 589.23,-179"/>
</g>
<!-- bytes -->
<g id="node6" class="node">
<title>bytes</title>
<ellipse fill="none" stroke="black" cx="158.5" cy="-43.5" rx="39.5" ry="39.5"/>
<ellipse fill="none" stroke="black" cx="158.5" cy="-43.5" rx="43.5" ry="43.5"/>
<text text-anchor="middle" x="158.5" y="-39.3" font-family="Times,serif" font-size="14.00">bytes</text>
</g>
<!-- io&#45;&gt;bytes -->
<g id="edge21" class="edge">
<title>io&#45;&gt;bytes</title>
<path fill="none" stroke="black" d="M129.3,-148.42C133.2,-134.55 138.9,-114.25 144.24,-95.26"/>
<polygon fill="black" stroke="black" points="147.65,-96.07 146.98,-85.49 140.91,-94.17 147.65,-96.07"/>
</g>
<!-- internal -->
<g id="node4" class="node">
<title>internal</title>
<ellipse fill="none" stroke="black" cx="753.5" cy="-43.5" rx="39.5" ry="39.5"/>
<ellipse fill="none" stroke="black" cx="753.5" cy="-43.5" rx="43.5" ry="43.5"/>
<text text-anchor="middle" x="753.5" y="-39.3" font-family="Times,serif" font-size="14.00">internal</text>
</g>
<!-- assert&#45;&gt;internal -->
<g id="edge3" class="edge">
<title>assert&#45;&gt;internal</title>
<path fill="none" stroke="black" d="M670.63,-134.02C684.78,-118.74 701.93,-100.22 716.94,-83.99"/>
<polygon fill="black" stroke="black" points="719.9,-85.95 724.12,-76.24 714.76,-81.2 719.9,-85.95"/>
</g>
<!-- async -->
<g id="node5" class="node">
<title>async</title>
<ellipse fill="none" stroke="black" cx="1340.5" cy="-166.5" rx="39.5" ry="39.5"/>
<ellipse fill="none" stroke="black" cx="1340.5" cy="-166.5" rx="43.5" ry="43.5"/>
<text text-anchor="middle" x="1340.5" y="-162.3" font-family="Times,serif" font-size="14.00">async</text>
</g>
<!-- cli -->
<g id="node7" class="node">
<title>cli</title>
<polygon fill="pink" stroke="black" points="310.5,-307.5 256.5,-307.5 256.5,-271.5 310.5,-271.5 310.5,-307.5"/>
<text text-anchor="middle" x="283.5" y="-285.3" font-family="Times,serif" font-size="14.00">cli</text>
</g>
<!-- cli&#45;&gt;assert -->
<g id="edge4" class="edge">
<title>cli&#45;&gt;assert</title>
<path fill="none" stroke="black" d="M294.21,-271.28C300.54,-262.47 309.3,-252.3 319.5,-246 403.71,-193.96 520.17,-176.41 587.49,-170.5"/>
<polygon fill="black" stroke="black" points="588.18,-173.95 597.86,-169.65 587.61,-166.98 588.18,-173.95"/>
</g>
<!-- collections -->
<g id="node8" class="node">
<title>collections</title>
<ellipse fill="none" stroke="black" cx="1484.5" cy="-289.5" rx="39.5" ry="39.5"/>
<ellipse fill="none" stroke="black" cx="1484.5" cy="-289.5" rx="43.5" ry="43.5"/>
<text text-anchor="middle" x="1484.5" y="-285.3" font-family="Times,serif" font-size="14.00">collections</text>
</g>
<!-- crypto -->
<g id="node9" class="node">
<title>crypto</title>
<ellipse fill="none" stroke="black" cx="296.5" cy="-43.5" rx="39.5" ry="39.5"/>
<ellipse fill="none" stroke="black" cx="296.5" cy="-43.5" rx="43.5" ry="43.5"/>
<text text-anchor="middle" x="296.5" y="-39.3" font-family="Times,serif" font-size="14.00">crypto</text>
</g>
<!-- csv -->
<g id="node10" class="node">
<title>csv</title>
<ellipse fill="none" stroke="black" cx="154.5" cy="-412.5" rx="39.5" ry="39.5"/>
<ellipse fill="none" stroke="black" cx="154.5" cy="-412.5" rx="43.5" ry="43.5"/>
<text text-anchor="middle" x="154.5" y="-408.3" font-family="Times,serif" font-size="14.00">csv</text>
</g>
<!-- csv&#45;&gt;assert -->
<g id="edge5" class="edge">
<title>csv&#45;&gt;assert</title>
<path fill="none" stroke="black" d="M164.56,-369.81C175.89,-326.33 195.25,-262.29 214.5,-246 242.82,-222.03 480.18,-188.49 588.26,-174.29"/>
<polygon fill="black" stroke="black" points="588.84,-177.74 598.31,-172.97 587.94,-170.8 588.84,-177.74"/>
</g>
<!-- streams -->
<g id="node11" class="node">
<title>streams</title>
<ellipse fill="none" stroke="black" cx="43.5" cy="-289.5" rx="39.5" ry="39.5"/>
<ellipse fill="none" stroke="black" cx="43.5" cy="-289.5" rx="43.5" ry="43.5"/>
<text text-anchor="middle" x="43.5" y="-285.3" font-family="Times,serif" font-size="14.00">streams</text>
</g>
<!-- csv&#45;&gt;streams -->
<g id="edge6" class="edge">
<title>csv&#45;&gt;streams</title>
<path fill="none" stroke="black" d="M125.34,-379.71C111.32,-364.42 94.37,-345.96 79.55,-329.8"/>
<polygon fill="black" stroke="black" points="81.81,-327.08 72.47,-322.08 76.65,-331.81 81.81,-327.08"/>
</g>
<!-- streams&#45;&gt;io -->
<g id="edge32" class="edge">
<title>streams&#45;&gt;io</title>
<path fill="none" stroke="black" d="M67.36,-252.85C80.16,-233.74 95.64,-210.61 107.25,-193.26"/>
<polygon fill="black" stroke="black" points="110.29,-195.02 112.94,-184.76 104.47,-191.13 110.29,-195.02"/>
</g>
<!-- streams&#45;&gt;assert -->
<g id="edge30" class="edge">
<title>streams&#45;&gt;assert</title>
<path fill="none" stroke="black" d="M74.41,-258.77C80.96,-253.81 88.13,-249.23 95.5,-246 199.52,-200.39 236.08,-226.15 348.5,-210 432.25,-197.97 529.45,-183.84 588.16,-175.28"/>
<polygon fill="black" stroke="black" points="588.92,-178.71 598.31,-173.8 587.91,-171.78 588.92,-178.71"/>
</g>
<!-- streams&#45;&gt;bytes -->
<g id="edge31" class="edge">
<title>streams&#45;&gt;bytes</title>
<path fill="none" stroke="black" d="M49.43,-246.37C55.58,-211.67 67.35,-162 88.5,-123 96.64,-107.98 108.19,-93.45 119.56,-81.06"/>
<polygon fill="black" stroke="black" points="122.25,-83.31 126.58,-73.64 117.17,-78.5 122.25,-83.31"/>
</g>
<!-- data_\nstructures -->
<g id="node12" class="node">
<title>data_\nstructures</title>
<polygon fill="pink" stroke="black" points="1668.92,-556.1 1598.08,-556.1 1598.08,-514.9 1668.92,-514.9 1668.92,-556.1"/>
<text text-anchor="middle" x="1633.5" y="-539.7" font-family="Times,serif" font-size="14.00">data_</text>
<text text-anchor="middle" x="1633.5" y="-522.9" font-family="Times,serif" font-size="14.00">structures</text>
</g>
<!-- datetime -->
<g id="node13" class="node">
<title>datetime</title>
<polygon fill="pink" stroke="black" points="1750.71,-553.5 1686.29,-553.5 1686.29,-517.5 1750.71,-517.5 1750.71,-553.5"/>
<text text-anchor="middle" x="1718.5" y="-531.3" font-family="Times,serif" font-size="14.00">datetime</text>
</g>
<!-- dotenv -->
<g id="node14" class="node">
<title>dotenv</title>
<polygon fill="pink" stroke="black" points="1822.61,-553.5 1768.39,-553.5 1768.39,-517.5 1822.61,-517.5 1822.61,-553.5"/>
<text text-anchor="middle" x="1795.5" y="-531.3" font-family="Times,serif" font-size="14.00">dotenv</text>
</g>
<!-- encoding -->
<g id="node15" class="node">
<title>encoding</title>
<ellipse fill="none" stroke="black" cx="372.5" cy="-289.5" rx="39.5" ry="39.5"/>
<ellipse fill="none" stroke="black" cx="372.5" cy="-289.5" rx="43.5" ry="43.5"/>
<text text-anchor="middle" x="372.5" y="-285.3" font-family="Times,serif" font-size="14.00">encoding</text>
</g>
<!-- expect -->
<g id="node16" class="node">
<title>expect</title>
<polygon fill="pink" stroke="black" points="885.5,-307.5 831.5,-307.5 831.5,-271.5 885.5,-271.5 885.5,-307.5"/>
<text text-anchor="middle" x="858.5" y="-285.3" font-family="Times,serif" font-size="14.00">expect</text>
</g>
<!-- expect&#45;&gt;assert -->
<g id="edge7" class="edge">
<title>expect&#45;&gt;assert</title>
<path fill="none" stroke="black" d="M846.7,-271.12C840.31,-262.69 831.82,-252.92 822.5,-246 822.5,-246 744.19,-212.04 690.59,-188.79"/>
<polygon fill="black" stroke="black" points="691.79,-185.5 681.22,-184.73 689,-191.92 691.79,-185.5"/>
</g>
<!-- expect&#45;&gt;internal -->
<g id="edge8" class="edge">
<title>expect&#45;&gt;internal</title>
<path fill="none" stroke="black" d="M845.37,-271.1C838.9,-263.05 830.74,-253.61 822.5,-246 802.39,-227.41 786.36,-233.62 772.5,-210 752.61,-176.09 748.48,-131.53 748.99,-97.19"/>
<polygon fill="black" stroke="black" points="752.5,-96.98 749.28,-86.88 745.5,-96.78 752.5,-96.98"/>
</g>
<!-- fmt -->
<g id="node17" class="node">
<title>fmt</title>
<ellipse fill="none" stroke="black" cx="930.5" cy="-166.5" rx="39.5" ry="39.5"/>
<ellipse fill="none" stroke="black" cx="930.5" cy="-166.5" rx="43.5" ry="43.5"/>
<text text-anchor="middle" x="930.5" y="-162.3" font-family="Times,serif" font-size="14.00">fmt</text>
</g>
<!-- front_\nmatter -->
<g id="node18" class="node">
<title>front_\nmatter</title>
<ellipse fill="none" stroke="black" cx="1536.5" cy="-535.5" rx="39.5" ry="39.5"/>
<ellipse fill="none" stroke="black" cx="1536.5" cy="-535.5" rx="43.5" ry="43.5"/>
<text text-anchor="middle" x="1536.5" y="-539.7" font-family="Times,serif" font-size="14.00">front_</text>
<text text-anchor="middle" x="1536.5" y="-522.9" font-family="Times,serif" font-size="14.00">matter</text>
</g>
<!-- toml -->
<g id="node19" class="node">
<title>toml</title>
<ellipse fill="none" stroke="black" cx="1484.5" cy="-412.5" rx="39.5" ry="39.5"/>
<ellipse fill="none" stroke="black" cx="1484.5" cy="-412.5" rx="43.5" ry="43.5"/>
<text text-anchor="middle" x="1484.5" y="-408.3" font-family="Times,serif" font-size="14.00">toml</text>
</g>
<!-- front_\nmatter&#45;&gt;toml -->
<g id="edge9" class="edge">
<title>front_\nmatter&#45;&gt;toml</title>
<path fill="none" stroke="black" d="M1519.62,-495.21C1515.12,-484.75 1510.21,-473.32 1505.52,-462.42"/>
<polygon fill="black" stroke="black" points="1508.64,-460.81 1501.48,-453 1502.21,-463.57 1508.64,-460.81"/>
</g>
<!-- yaml -->
<g id="node20" class="node">
<title>yaml</title>
<ellipse fill="none" stroke="black" cx="1589.5" cy="-412.5" rx="39.5" ry="39.5"/>
<ellipse fill="none" stroke="black" cx="1589.5" cy="-412.5" rx="43.5" ry="43.5"/>
<text text-anchor="middle" x="1589.5" y="-408.3" font-family="Times,serif" font-size="14.00">yaml</text>
</g>
<!-- front_\nmatter&#45;&gt;yaml -->
<g id="edge10" class="edge">
<title>front_\nmatter&#45;&gt;yaml</title>
<path fill="none" stroke="black" d="M1553.71,-495.21C1558.38,-484.54 1563.5,-472.86 1568.37,-461.75"/>
<polygon fill="black" stroke="black" points="1571.57,-463.15 1572.38,-452.59 1565.16,-460.34 1571.57,-463.15"/>
</g>
<!-- toml&#45;&gt;collections -->
<g id="edge41" class="edge">
<title>toml&#45;&gt;collections</title>
<path fill="none" stroke="black" d="M1484.5,-368.84C1484.5,-360.62 1484.5,-351.91 1484.5,-343.41"/>
<polygon fill="black" stroke="black" points="1488,-343.18 1484.5,-333.18 1481,-343.18 1488,-343.18"/>
</g>
<!-- fs -->
<g id="node21" class="node">
<title>fs</title>
<ellipse fill="none" stroke="black" cx="825.5" cy="-166.5" rx="39.5" ry="39.5"/>
<ellipse fill="none" stroke="black" cx="825.5" cy="-166.5" rx="43.5" ry="43.5"/>
<text text-anchor="middle" x="825.5" y="-162.3" font-family="Times,serif" font-size="14.00">fs</text>
</g>
<!-- path -->
<g id="node22" class="node">
<title>path</title>
<ellipse fill="none" stroke="black" cx="1162.5" cy="-43.5" rx="39.5" ry="39.5"/>
<ellipse fill="none" stroke="black" cx="1162.5" cy="-43.5" rx="43.5" ry="43.5"/>
<text text-anchor="middle" x="1162.5" y="-39.3" font-family="Times,serif" font-size="14.00">path</text>
</g>
<!-- fs&#45;&gt;path -->
<g id="edge11" class="edge">
<title>fs&#45;&gt;path</title>
<path fill="none" stroke="black" d="M857.05,-136.29C863.49,-131.34 870.46,-126.64 877.5,-123 953.14,-83.91 1050.44,-62.52 1109.55,-52.3"/>
<polygon fill="black" stroke="black" points="1110.14,-55.75 1119.42,-50.64 1108.97,-48.85 1110.14,-55.75"/>
</g>
<!-- html -->
<g id="node23" class="node">
<title>html</title>
<polygon fill="pink" stroke="black" points="1894.5,-553.5 1840.5,-553.5 1840.5,-517.5 1894.5,-517.5 1894.5,-553.5"/>
<text text-anchor="middle" x="1867.5" y="-531.3" font-family="Times,serif" font-size="14.00">html</text>
</g>
<!-- http -->
<g id="node24" class="node">
<title>http</title>
<polygon fill="pink" stroke="black" points="703.5,-430.5 649.5,-430.5 649.5,-394.5 703.5,-394.5 703.5,-430.5"/>
<text text-anchor="middle" x="676.5" y="-408.3" font-family="Times,serif" font-size="14.00">http</text>
</g>
<!-- http&#45;&gt;assert -->
<g id="edge12" class="edge">
<title>http&#45;&gt;assert</title>
<path fill="none" stroke="black" d="M686.92,-394.49C695.7,-379.07 707.61,-355.41 712.5,-333 720.75,-295.22 726.4,-282.08 712.5,-246 706.1,-229.37 694.36,-214.08 682.24,-201.49"/>
<polygon fill="black" stroke="black" points="684.67,-198.97 675.1,-194.41 679.73,-203.94 684.67,-198.97"/>
</g>
<!-- http&#45;&gt;async -->
<g id="edge14" class="edge">
<title>http&#45;&gt;async</title>
<path fill="none" stroke="black" d="M703.52,-410.69C773.44,-407.73 964.92,-394.21 1109.5,-333 1184.29,-301.34 1258.41,-241.96 1301.8,-203.61"/>
<polygon fill="black" stroke="black" points="1304.14,-206.2 1309.27,-196.94 1299.48,-200.98 1304.14,-206.2"/>
</g>
<!-- http&#45;&gt;cli -->
<g id="edge18" class="edge">
<title>http&#45;&gt;cli</title>
<path fill="none" stroke="black" d="M649.27,-411.3C586.53,-409.68 428.76,-398.82 319.5,-333 312.28,-328.65 305.8,-322.33 300.4,-315.89"/>
<polygon fill="black" stroke="black" points="303.04,-313.58 294.15,-307.81 297.5,-317.86 303.04,-313.58"/>
</g>
<!-- http&#45;&gt;streams -->
<g id="edge17" class="edge">
<title>http&#45;&gt;streams</title>
<path fill="none" stroke="black" d="M649.32,-409.79C548.63,-403.16 197.49,-377.3 95.5,-333 91.12,-331.1 86.81,-328.71 82.66,-326.06"/>
<polygon fill="black" stroke="black" points="84.59,-323.14 74.39,-320.27 80.58,-328.87 84.59,-323.14"/>
</g>
<!-- http&#45;&gt;encoding -->
<g id="edge13" class="edge">
<title>http&#45;&gt;encoding</title>
<path fill="none" stroke="black" d="M649.42,-406.62C601.78,-397.27 500.77,-374.03 424.5,-333 420.46,-330.83 416.44,-328.32 412.52,-325.63"/>
<polygon fill="black" stroke="black" points="414.29,-322.59 404.15,-319.52 410.16,-328.24 414.29,-322.59"/>
</g>
<!-- http&#45;&gt;fmt -->
<g id="edge19" class="edge">
<title>http&#45;&gt;fmt</title>
<path fill="none" stroke="black" d="M703.53,-408.33C769.21,-400.01 934.17,-375.25 966.5,-333 993.02,-298.34 976.69,-248.24 958.28,-212.25"/>
<polygon fill="black" stroke="black" points="961.37,-210.61 953.58,-203.43 955.19,-213.9 961.37,-210.61"/>
</g>
<!-- http&#45;&gt;path -->
<g id="edge15" class="edge">
<title>http&#45;&gt;path</title>
<path fill="none" stroke="black" d="M703.75,-411.13C782.17,-409.3 1014.25,-398.3 1192.5,-333 1290.48,-297.1 1341.58,-301.09 1392.5,-210 1411.37,-176.25 1415,-154.45 1392.5,-123 1352.72,-67.39 1271.14,-50.73 1216.62,-45.99"/>
<polygon fill="black" stroke="black" points="1216.67,-42.48 1206.43,-45.21 1216.14,-49.46 1216.67,-42.48"/>
</g>
<!-- media_types -->
<g id="node25" class="node">
<title>media_types</title>
<ellipse fill="none" stroke="black" cx="493.5" cy="-289.5" rx="59.69" ry="18"/>
<text text-anchor="middle" x="493.5" y="-285.3" font-family="Times,serif" font-size="14.00">media_types</text>
</g>
<!-- http&#45;&gt;media_types -->
<g id="edge16" class="edge">
<title>http&#45;&gt;media_types</title>
<path fill="none" stroke="black" d="M650.67,-394.42C617.88,-372.74 561.31,-335.34 525.73,-311.81"/>
<polygon fill="black" stroke="black" points="527.44,-308.74 517.17,-306.15 523.58,-314.58 527.44,-308.74"/>
</g>
<!-- net -->
<g id="node26" class="node">
<title>net</title>
<polygon fill="pink" stroke="black" points="703.5,-307.5 649.5,-307.5 649.5,-271.5 703.5,-271.5 703.5,-307.5"/>
<text text-anchor="middle" x="676.5" y="-285.3" font-family="Times,serif" font-size="14.00">net</text>
</g>
<!-- http&#45;&gt;net -->
<g id="edge20" class="edge">
<title>http&#45;&gt;net</title>
<path fill="none" stroke="black" d="M676.5,-394.42C676.5,-374.54 676.5,-341.42 676.5,-317.92"/>
<polygon fill="black" stroke="black" points="680,-317.88 676.5,-307.88 673,-317.88 680,-317.88"/>
</g>
<!-- ini -->
<g id="node27" class="node">
<title>ini</title>
<polygon fill="pink" stroke="black" points="1966.5,-553.5 1912.5,-553.5 1912.5,-517.5 1966.5,-517.5 1966.5,-553.5"/>
<text text-anchor="middle" x="1939.5" y="-531.3" font-family="Times,serif" font-size="14.00">ini</text>
</g>
<!-- json -->
<g id="node28" class="node">
<title>json</title>
<ellipse fill="none" stroke="black" cx="45.5" cy="-412.5" rx="39.5" ry="39.5"/>
<ellipse fill="none" stroke="black" cx="45.5" cy="-412.5" rx="43.5" ry="43.5"/>
<text text-anchor="middle" x="45.5" y="-408.3" font-family="Times,serif" font-size="14.00">json</text>
</g>
<!-- json&#45;&gt;streams -->
<g id="edge22" class="edge">
<title>json&#45;&gt;streams</title>
<path fill="none" stroke="black" d="M44.79,-368.84C44.66,-360.62 44.52,-351.91 44.37,-343.41"/>
<polygon fill="black" stroke="black" points="47.87,-343.12 44.21,-333.18 40.87,-343.24 47.87,-343.12"/>
</g>
<!-- jsonc -->
<g id="node29" class="node">
<title>jsonc</title>
<ellipse fill="none" stroke="black" cx="140.5" cy="-535.5" rx="39.5" ry="39.5"/>
<ellipse fill="none" stroke="black" cx="140.5" cy="-535.5" rx="43.5" ry="43.5"/>
<text text-anchor="middle" x="140.5" y="-531.3" font-family="Times,serif" font-size="14.00">jsonc</text>
</g>
<!-- jsonc&#45;&gt;assert -->
<g id="edge23" class="edge">
<title>jsonc&#45;&gt;assert</title>
<path fill="none" stroke="black" d="M171.83,-504.64C184.43,-490.96 197.98,-473.83 206.5,-456 247.52,-370.21 180.39,-313.37 247.5,-246 271.41,-221.99 486.05,-189.2 588.08,-174.79"/>
<polygon fill="black" stroke="black" points="588.76,-178.23 598.18,-173.37 587.79,-171.3 588.76,-178.23"/>
</g>
<!-- jsonc&#45;&gt;json -->
<g id="edge24" class="edge">
<title>jsonc&#45;&gt;json</title>
<path fill="none" stroke="black" d="M114.04,-500.79C103.01,-486.75 90.09,-470.3 78.46,-455.48"/>
<polygon fill="black" stroke="black" points="81.08,-453.15 72.15,-447.44 75.57,-457.47 81.08,-453.15"/>
</g>
<!-- log -->
<g id="node30" class="node">
<title>log</title>
<polygon fill="pink" stroke="black" points="957.5,-307.5 903.5,-307.5 903.5,-271.5 957.5,-271.5 957.5,-307.5"/>
<text text-anchor="middle" x="930.5" y="-285.3" font-family="Times,serif" font-size="14.00">log</text>
</g>
<!-- log&#45;&gt;io -->
<g id="edge26" class="edge">
<title>log&#45;&gt;io</title>
<path fill="none" stroke="black" d="M920.82,-271.36C914.6,-262.1 905.6,-251.48 894.5,-246 748.06,-173.72 306.94,-282.28 160.5,-210 152.7,-206.15 145.93,-199.75 140.44,-193.08"/>
<polygon fill="black" stroke="black" points="142.95,-190.59 134.18,-184.64 137.33,-194.76 142.95,-190.59"/>
</g>
<!-- log&#45;&gt;assert -->
<g id="edge28" class="edge">
<title>log&#45;&gt;assert</title>
<path fill="none" stroke="black" d="M919.67,-271.48C913.31,-262.72 904.55,-252.55 894.5,-246 847.13,-215.14 826.5,-226.72 772.5,-210 746,-201.79 716.62,-192.3 692.4,-184.36"/>
<polygon fill="black" stroke="black" points="693.3,-180.98 682.71,-181.18 691.12,-187.63 693.3,-180.98"/>
</g>
<!-- log&#45;&gt;fmt -->
<g id="edge25" class="edge">
<title>log&#45;&gt;fmt</title>
<path fill="none" stroke="black" d="M930.5,-271.42C930.5,-258.01 930.5,-238.58 930.5,-220.14"/>
<polygon fill="black" stroke="black" points="934,-220.05 930.5,-210.05 927,-220.05 934,-220.05"/>
</g>
<!-- log&#45;&gt;fs -->
<g id="edge27" class="edge">
<title>log&#45;&gt;fs</title>
<path fill="none" stroke="black" d="M916.21,-271.48C909.63,-263.69 901.7,-254.35 894.5,-246 883.71,-233.49 871.86,-219.95 861.08,-207.69"/>
<polygon fill="black" stroke="black" points="863.41,-205.04 854.17,-199.85 858.15,-209.66 863.41,-205.04"/>
</g>
<!-- media_\ntypes -->
<g id="node31" class="node">
<title>media_\ntypes</title>
<ellipse fill="none" stroke="black" cx="2028.5" cy="-535.5" rx="39.5" ry="39.5"/>
<ellipse fill="none" stroke="black" cx="2028.5" cy="-535.5" rx="43.5" ry="43.5"/>
<text text-anchor="middle" x="2028.5" y="-539.7" font-family="Times,serif" font-size="14.00">media_</text>
<text text-anchor="middle" x="2028.5" y="-522.9" font-family="Times,serif" font-size="14.00">types</text>
</g>
<!-- msgpack -->
<g id="node32" class="node">
<title>msgpack</title>
<polygon fill="pink" stroke="black" points="235.26,-184.5 169.74,-184.5 169.74,-148.5 235.26,-148.5 235.26,-184.5"/>
<text text-anchor="middle" x="202.5" y="-162.3" font-family="Times,serif" font-size="14.00">msgpack</text>
</g>
<!-- msgpack&#45;&gt;bytes -->
<g id="edge29" class="edge">
<title>msgpack&#45;&gt;bytes</title>
<path fill="none" stroke="black" d="M196.29,-148.42C191.16,-134.32 183.62,-113.57 176.61,-94.31"/>
<polygon fill="black" stroke="black" points="179.83,-92.92 173.13,-84.72 173.25,-95.32 179.83,-92.92"/>
</g>
<!-- regexp -->
<g id="node33" class="node">
<title>regexp</title>
<polygon fill="pink" stroke="black" points="2144.59,-553.5 2090.41,-553.5 2090.41,-517.5 2144.59,-517.5 2144.59,-553.5"/>
<text text-anchor="middle" x="2117.5" y="-531.3" font-family="Times,serif" font-size="14.00">regexp</text>
</g>
<!-- semver -->
<g id="node34" class="node">
<title>semver</title>
<polygon fill="pink" stroke="black" points="2218.93,-553.5 2162.07,-553.5 2162.07,-517.5 2218.93,-517.5 2218.93,-553.5"/>
<text text-anchor="middle" x="2190.5" y="-531.3" font-family="Times,serif" font-size="14.00">semver</text>
</g>
<!-- testing -->
<g id="node35" class="node">
<title>testing</title>
<ellipse fill="none" stroke="black" cx="1057.5" cy="-289.5" rx="39.5" ry="39.5"/>
<ellipse fill="none" stroke="black" cx="1057.5" cy="-289.5" rx="43.5" ry="43.5"/>
<text text-anchor="middle" x="1057.5" y="-285.3" font-family="Times,serif" font-size="14.00">testing</text>
</g>
<!-- testing&#45;&gt;assert -->
<g id="edge33" class="edge">
<title>testing&#45;&gt;assert</title>
<path fill="none" stroke="black" d="M1019.4,-268.07C1003.43,-260.21 984.43,-251.75 966.5,-246 882.99,-219.23 857.5,-231.58 772.5,-210 745.51,-203.15 715.97,-193.74 691.78,-185.51"/>
<polygon fill="black" stroke="black" points="692.7,-182.13 682.11,-182.19 690.43,-188.75 692.7,-182.13"/>
</g>
<!-- testing&#45;&gt;internal -->
<g id="edge37" class="edge">
<title>testing&#45;&gt;internal</title>
<path fill="none" stroke="black" d="M1039.67,-249.8C1033.86,-237.13 1027.38,-222.97 1021.5,-210 1004,-171.41 1013.8,-151.57 982.5,-123 933.42,-78.2 857.62,-58.8 806.82,-50.51"/>
<polygon fill="black" stroke="black" points="807.11,-47.01 796.69,-48.95 806.04,-53.93 807.11,-47.01"/>
</g>
<!-- testing&#45;&gt;async -->
<g id="edge39" class="edge">
<title>testing&#45;&gt;async</title>
<path fill="none" stroke="black" d="M1099.68,-277.84C1146.07,-265.19 1222.08,-241.77 1282.5,-210 1287.81,-207.21 1293.17,-203.97 1298.37,-200.55"/>
<polygon fill="black" stroke="black" points="1300.68,-203.21 1306.95,-194.66 1296.72,-197.43 1300.68,-203.21"/>
</g>
<!-- testing&#45;&gt;fmt -->
<g id="edge36" class="edge">
<title>testing&#45;&gt;fmt</title>
<path fill="none" stroke="black" d="M1026.43,-258.9C1009.21,-242.49 987.64,-221.94 969.32,-204.48"/>
<polygon fill="black" stroke="black" points="971.34,-201.58 961.69,-197.21 966.51,-206.65 971.34,-201.58"/>
</g>
<!-- testing&#45;&gt;fs -->
<g id="edge35" class="edge">
<title>testing&#45;&gt;fs</title>
<path fill="none" stroke="black" d="M1018.29,-269.64C1002.31,-262.09 983.61,-253.45 966.5,-246 927.38,-228.97 914.21,-231.75 877.5,-210 873.61,-207.7 869.71,-205.12 865.89,-202.4"/>
<polygon fill="black" stroke="black" points="867.8,-199.46 857.69,-196.28 863.61,-205.07 867.8,-199.46"/>
</g>
<!-- testing&#45;&gt;path -->
<g id="edge34" class="edge">
<title>testing&#45;&gt;path</title>
<path fill="none" stroke="black" d="M1100.89,-284.43C1146.61,-277.57 1216.48,-259.18 1249.5,-210 1271.06,-177.9 1265.21,-158.33 1249.5,-123 1240.62,-103.03 1223.88,-86 1207.43,-72.95"/>
<polygon fill="black" stroke="black" points="1209.5,-70.13 1199.41,-66.88 1205.27,-75.71 1209.5,-70.13"/>
</g>
<!-- data_structures -->
<g id="node36" class="node">
<title>data_structures</title>
<ellipse fill="none" stroke="black" cx="1171.5" cy="-166.5" rx="69.48" ry="18"/>
<text text-anchor="middle" x="1171.5" y="-162.3" font-family="Times,serif" font-size="14.00">data_structures</text>
</g>
<!-- testing&#45;&gt;data_structures -->
<g id="edge38" class="edge">
<title>testing&#45;&gt;data_structures</title>
<path fill="none" stroke="black" d="M1086.86,-257.34C1106.14,-236.88 1130.99,-210.5 1148.76,-191.63"/>
<polygon fill="black" stroke="black" points="1151.6,-193.72 1155.91,-184.05 1146.51,-188.92 1151.6,-193.72"/>
</g>
<!-- text -->
<g id="node37" class="node">
<title>text</title>
<polygon fill="pink" stroke="black" points="813.5,-307.5 759.5,-307.5 759.5,-271.5 813.5,-271.5 813.5,-307.5"/>
<text text-anchor="middle" x="786.5" y="-285.3" font-family="Times,serif" font-size="14.00">text</text>
</g>
<!-- text&#45;&gt;assert -->
<g id="edge40" class="edge">
<title>text&#45;&gt;assert</title>
<path fill="none" stroke="black" d="M771.11,-271.35C763.65,-263.35 754.4,-253.89 745.5,-246 726.47,-229.14 704.11,-211.96 685.01,-197.98"/>
<polygon fill="black" stroke="black" points="686.91,-195.04 676.76,-192 682.8,-200.71 686.91,-195.04"/>
</g>
<!-- ulid -->
<g id="node38" class="node">
<title>ulid</title>
<polygon fill="pink" stroke="black" points="2290.5,-553.5 2236.5,-553.5 2236.5,-517.5 2290.5,-517.5 2290.5,-553.5"/>
<text text-anchor="middle" x="2263.5" y="-531.3" font-family="Times,serif" font-size="14.00">ulid</text>
</g>
<!-- url -->
<g id="node39" class="node">
<title>url</title>
<polygon fill="pink" stroke="black" points="1084.5,-184.5 1030.5,-184.5 1030.5,-148.5 1084.5,-148.5 1084.5,-184.5"/>
<text text-anchor="middle" x="1057.5" y="-162.3" font-family="Times,serif" font-size="14.00">url</text>
</g>
<!-- url&#45;&gt;path -->
<g id="edge42" class="edge">
<title>url&#45;&gt;path</title>
<path fill="none" stroke="black" d="M1071.79,-148.48C1078.37,-140.69 1086.3,-131.35 1093.5,-123 1104.29,-110.49 1116.14,-96.95 1126.92,-84.69"/>
<polygon fill="black" stroke="black" points="1129.85,-86.66 1133.83,-76.85 1124.59,-82.04 1129.85,-86.66"/>
</g>
<!-- uuid -->
<g id="node40" class="node">
<title>uuid</title>
<ellipse fill="none" stroke="black" cx="296.5" cy="-166.5" rx="39.5" ry="39.5"/>
<ellipse fill="none" stroke="black" cx="296.5" cy="-166.5" rx="43.5" ry="43.5"/>
<text text-anchor="middle" x="296.5" y="-162.3" font-family="Times,serif" font-size="14.00">uuid</text>
</g>
<!-- uuid&#45;&gt;bytes -->
<g id="edge43" class="edge">
<title>uuid&#45;&gt;bytes</title>
<path fill="none" stroke="black" d="M264.15,-137.13C244.65,-120.04 219.65,-98.12 198.87,-79.9"/>
<polygon fill="black" stroke="black" points="200.96,-77.07 191.13,-73.11 196.34,-82.34 200.96,-77.07"/>
</g>
<!-- uuid&#45;&gt;crypto -->
<g id="edge44" class="edge">
<title>uuid&#45;&gt;crypto</title>
<path fill="none" stroke="black" d="M296.5,-122.84C296.5,-114.62 296.5,-105.91 296.5,-97.41"/>
<polygon fill="black" stroke="black" points="300,-97.18 296.5,-87.18 293,-97.18 300,-97.18"/>
</g>
<!-- webgpu -->
<g id="node41" class="node">
<title>webgpu</title>
<polygon fill="pink" stroke="black" points="631.82,-307.5 571.18,-307.5 571.18,-271.5 631.82,-271.5 631.82,-307.5"/>
<text text-anchor="middle" x="601.5" y="-285.3" font-family="Times,serif" font-size="14.00">webgpu</text>
</g>
<!-- webgpu&#45;&gt;assert -->
<g id="edge45" class="edge">
<title>webgpu&#45;&gt;assert</title>
<path fill="none" stroke="black" d="M607.15,-271.42C611.79,-257.38 618.61,-236.74 624.96,-217.54"/>
<polygon fill="black" stroke="black" points="628.3,-218.57 628.12,-207.98 621.66,-216.37 628.3,-218.57"/>
</g>
</g>
</svg>
