<?xml version="1.0" encoding="UTF-8" standalone="no"?>
<!DOCTYPE svg PUBLIC "-//W3C//DTD SVG 1.1//EN"
 "http://www.w3.org/Graphics/SVG/1.1/DTD/svg11.dtd">
<!-- Generated by graphviz version 2.44.0 (20200518.1210)
 -->
<!-- Title: std_deps Pages: 1 -->
<svg width="2308pt" height="710pt"
 viewBox="0.00 0.00 2308.24 710.00" xmlns="http://www.w3.org/2000/svg" xmlns:xlink="http://www.w3.org/1999/xlink">
<g id="graph0" class="graph" transform="scale(1 1) rotate(0) translate(4 706)">
<title>std_deps</title>
<polygon fill="white" stroke="transparent" points="-4,4 -4,-706 2304.24,-706 2304.24,4 -4,4"/>
<!-- archive -->
<g id="node1" class="node">
<title>archive</title>
<polygon fill="pink" stroke="black" points="361.94,-430.5 304.55,-430.5 304.55,-394.5 361.94,-394.5 361.94,-430.5"/>
<text text-anchor="middle" x="333.24" y="-408.3" font-family="Times,serif" font-size="14.00">archive</text>
</g>
<!-- io -->
<g id="node2" class="node">
<title>io</title>
<polygon fill="pink" stroke="black" points="396.24,-307.5 342.24,-307.5 342.24,-271.5 396.24,-271.5 396.24,-307.5"/>
<text text-anchor="middle" x="369.24" y="-285.3" font-family="Times,serif" font-size="14.00">io</text>
</g>
<!-- archive&#45;&gt;io -->
<g id="edge1" class="edge">
<title>archive&#45;&gt;io</title>
<path fill="none" stroke="black" d="M338.32,-394.42C344.27,-374.45 354.18,-341.12 361.18,-317.61"/>
<polygon fill="black" stroke="black" points="364.57,-318.47 364.07,-307.88 357.86,-316.47 364.57,-318.47"/>
</g>
<!-- assert -->
<g id="node3" class="node">
<title>assert</title>
<ellipse fill="none" stroke="black" cx="295.24" cy="-166.5" rx="39.5" ry="39.5"/>
<ellipse fill="none" stroke="black" cx="295.24" cy="-166.5" rx="43.5" ry="43.5"/>
<text text-anchor="middle" x="295.24" y="-162.3" font-family="Times,serif" font-size="14.00">assert</text>
</g>
<!-- archive&#45;&gt;assert -->
<g id="edge2" class="edge">
<title>archive&#45;&gt;assert</title>
<path fill="none" stroke="black" d="M330.57,-394.34C325,-358.6 311.97,-274.92 303.39,-219.8"/>
<polygon fill="black" stroke="black" points="306.84,-219.2 301.84,-209.86 299.92,-220.28 306.84,-219.2"/>
</g>
<!-- io&#45;&gt;assert -->
<g id="edge21" class="edge">
<title>io&#45;&gt;assert</title>
<path fill="none" stroke="black" d="M358.8,-271.42C349.46,-256.14 335.34,-233.06 322.78,-212.53"/>
<polygon fill="black" stroke="black" points="325.72,-210.62 317.51,-203.91 319.74,-214.27 325.72,-210.62"/>
</g>
<!-- bytes -->
<g id="node6" class="node">
<title>bytes</title>
<ellipse fill="none" stroke="black" cx="564.24" cy="-166.5" rx="39.5" ry="39.5"/>
<ellipse fill="none" stroke="black" cx="564.24" cy="-166.5" rx="43.5" ry="43.5"/>
<text text-anchor="middle" x="564.24" y="-162.3" font-family="Times,serif" font-size="14.00">bytes</text>
</g>
<!-- io&#45;&gt;bytes -->
<g id="edge22" class="edge">
<title>io&#45;&gt;bytes</title>
<path fill="none" stroke="black" d="M396.36,-271.68C428.04,-252.02 480.95,-219.19 518.91,-195.63"/>
<polygon fill="black" stroke="black" points="521.08,-198.4 527.73,-190.16 517.39,-192.46 521.08,-198.4"/>
</g>
<!-- internal -->
<g id="node4" class="node">
<title>internal</title>
<ellipse fill="none" stroke="black" cx="745.24" cy="-43.5" rx="39.5" ry="39.5"/>
<ellipse fill="none" stroke="black" cx="745.24" cy="-43.5" rx="43.5" ry="43.5"/>
<text text-anchor="middle" x="745.24" y="-39.3" font-family="Times,serif" font-size="14.00">internal</text>
</g>
<!-- assert&#45;&gt;internal -->
<g id="edge3" class="edge">
<title>assert&#45;&gt;internal</title>
<path fill="none" stroke="black" d="M337.17,-154.23C419.82,-132 603.54,-82.6 693.54,-58.4"/>
<polygon fill="black" stroke="black" points="694.51,-61.77 703.25,-55.79 692.69,-55.01 694.51,-61.77"/>
</g>
<!-- async -->
<g id="node5" class="node">
<title>async</title>
<ellipse fill="none" stroke="black" cx="1350.24" cy="-289.5" rx="39.5" ry="39.5"/>
<ellipse fill="none" stroke="black" cx="1350.24" cy="-289.5" rx="43.5" ry="43.5"/>
<text text-anchor="middle" x="1350.24" y="-285.3" font-family="Times,serif" font-size="14.00">async</text>
</g>
<!-- cli -->
<g id="node7" class="node">
<title>cli</title>
<polygon fill="pink" stroke="black" points="248.24,-430.5 194.24,-430.5 194.24,-394.5 248.24,-394.5 248.24,-430.5"/>
<text text-anchor="middle" x="221.24" y="-408.3" font-family="Times,serif" font-size="14.00">cli</text>
</g>
<!-- cli&#45;&gt;assert -->
<g id="edge4" class="edge">
<title>cli&#45;&gt;assert</title>
<path fill="none" stroke="black" d="M224.58,-394.34C230.67,-364 244.62,-299.1 262.24,-246 265.52,-236.11 269.5,-225.72 273.54,-215.85"/>
<polygon fill="black" stroke="black" points="276.79,-217.15 277.41,-206.58 270.33,-214.46 276.79,-217.15"/>
</g>
<!-- collections -->
<g id="node8" class="node">
<title>collections</title>
<ellipse fill="none" stroke="black" cx="1494.24" cy="-412.5" rx="39.5" ry="39.5"/>
<ellipse fill="none" stroke="black" cx="1494.24" cy="-412.5" rx="43.5" ry="43.5"/>
<text text-anchor="middle" x="1494.24" y="-408.3" font-family="Times,serif" font-size="14.00">collections</text>
</g>
<!-- crypto -->
<g id="node9" class="node">
<title>crypto</title>
<ellipse fill="none" stroke="black" cx="834.24" cy="-166.5" rx="39.5" ry="39.5"/>
<ellipse fill="none" stroke="black" cx="834.24" cy="-166.5" rx="43.5" ry="43.5"/>
<text text-anchor="middle" x="834.24" y="-162.3" font-family="Times,serif" font-size="14.00">crypto</text>
</g>
<!-- csv -->
<g id="node10" class="node">
<title>csv</title>
<ellipse fill="none" stroke="black" cx="143.24" cy="-535.5" rx="39.5" ry="39.5"/>
<ellipse fill="none" stroke="black" cx="143.24" cy="-535.5" rx="43.5" ry="43.5"/>
<text text-anchor="middle" x="143.24" y="-531.3" font-family="Times,serif" font-size="14.00">csv</text>
</g>
<!-- csv&#45;&gt;assert -->
<g id="edge5" class="edge">
<title>csv&#45;&gt;assert</title>
<path fill="none" stroke="black" d="M117.8,-500.09C78.52,-442.42 13.2,-324.8 69.24,-246 108.14,-191.31 187.98,-174.38 241.57,-169.34"/>
<polygon fill="black" stroke="black" points="241.91,-172.82 251.59,-168.5 241.33,-165.85 241.91,-172.82"/>
</g>
<!-- streams -->
<g id="node11" class="node">
<title>streams</title>
<ellipse fill="none" stroke="black" cx="423.24" cy="-412.5" rx="39.5" ry="39.5"/>
<ellipse fill="none" stroke="black" cx="423.24" cy="-412.5" rx="43.5" ry="43.5"/>
<text text-anchor="middle" x="423.24" y="-408.3" font-family="Times,serif" font-size="14.00">streams</text>
</g>
<!-- csv&#45;&gt;streams -->
<g id="edge6" class="edge">
<title>csv&#45;&gt;streams</title>
<path fill="none" stroke="black" d="M185.46,-524.76C232.69,-512.79 310.54,-489.83 371.24,-456 375.25,-453.77 379.25,-451.22 383.15,-448.51"/>
<polygon fill="black" stroke="black" points="385.53,-451.1 391.51,-442.35 381.38,-445.46 385.53,-451.1"/>
</g>
<!-- streams&#45;&gt;io -->
<g id="edge32" class="edge">
<title>streams&#45;&gt;io</title>
<path fill="none" stroke="black" d="M405.86,-372.55C397.79,-354.47 388.41,-333.44 381.16,-317.19"/>
<polygon fill="black" stroke="black" points="384.22,-315.47 376.95,-307.77 377.83,-318.33 384.22,-315.47"/>
</g>
<!-- streams&#45;&gt;bytes -->
<g id="edge31" class="edge">
<title>streams&#45;&gt;bytes</title>
<path fill="none" stroke="black" d="M432.06,-369.58C440.76,-334.55 456.4,-284.32 481.24,-246 492.17,-229.15 507.43,-213.35 521.9,-200.4"/>
<polygon fill="black" stroke="black" points="524.57,-202.72 529.82,-193.52 519.98,-197.44 524.57,-202.72"/>
</g>
<!-- data_\nstructures -->
<g id="node12" class="node">
<title>data_\nstructures</title>
<polygon fill="pink" stroke="black" points="1678.67,-679.1 1607.82,-679.1 1607.82,-637.9 1678.67,-637.9 1678.67,-679.1"/>
<text text-anchor="middle" x="1643.24" y="-662.7" font-family="Times,serif" font-size="14.00">data_</text>
<text text-anchor="middle" x="1643.24" y="-645.9" font-family="Times,serif" font-size="14.00">structures</text>
</g>
<!-- datetime -->
<g id="node13" class="node">
<title>datetime</title>
<polygon fill="pink" stroke="black" points="1760.45,-676.5 1696.04,-676.5 1696.04,-640.5 1760.45,-640.5 1760.45,-676.5"/>
<text text-anchor="middle" x="1728.24" y="-654.3" font-family="Times,serif" font-size="14.00">datetime</text>
</g>
<!-- dotenv -->
<g id="node14" class="node">
<title>dotenv</title>
<polygon fill="pink" stroke="black" points="1832.35,-676.5 1778.14,-676.5 1778.14,-640.5 1832.35,-640.5 1832.35,-676.5"/>
<text text-anchor="middle" x="1805.24" y="-654.3" font-family="Times,serif" font-size="14.00">dotenv</text>
</g>
<!-- encoding -->
<g id="node15" class="node">
<title>encoding</title>
<ellipse fill="none" stroke="black" cx="1047.24" cy="-412.5" rx="39.5" ry="39.5"/>
<ellipse fill="none" stroke="black" cx="1047.24" cy="-412.5" rx="43.5" ry="43.5"/>
<text text-anchor="middle" x="1047.24" y="-408.3" font-family="Times,serif" font-size="14.00">encoding</text>
</g>
<!-- expect -->
<g id="node16" class="node">
<title>expect</title>
<polygon fill="pink" stroke="black" points="772.24,-307.5 718.24,-307.5 718.24,-271.5 772.24,-271.5 772.24,-307.5"/>
<text text-anchor="middle" x="745.24" y="-285.3" font-family="Times,serif" font-size="14.00">expect</text>
</g>
<!-- expect&#45;&gt;assert -->
<g id="edge7" class="edge">
<title>expect&#45;&gt;assert</title>
<path fill="none" stroke="black" d="M734.98,-271.47C728.68,-262.49 719.79,-252.1 709.24,-246 631.8,-201.25 599.13,-226.63 511.24,-210 455.33,-199.42 391.38,-186.77 347.67,-178.03"/>
<polygon fill="black" stroke="black" points="348.32,-174.6 337.83,-176.07 346.95,-181.46 348.32,-174.6"/>
</g>
<!-- expect&#45;&gt;internal -->
<g id="edge8" class="edge">
<title>expect&#45;&gt;internal</title>
<path fill="none" stroke="black" d="M745.24,-271.34C745.24,-235.78 745.24,-152.74 745.24,-97.61"/>
<polygon fill="black" stroke="black" points="748.74,-97.32 745.24,-87.32 741.74,-97.32 748.74,-97.32"/>
</g>
<!-- fmt -->
<g id="node17" class="node">
<title>fmt</title>
<ellipse fill="none" stroke="black" cx="534.24" cy="-289.5" rx="39.5" ry="39.5"/>
<ellipse fill="none" stroke="black" cx="534.24" cy="-289.5" rx="43.5" ry="43.5"/>
<text text-anchor="middle" x="534.24" y="-285.3" font-family="Times,serif" font-size="14.00">fmt</text>
</g>
<!-- front_\nmatter -->
<g id="node18" class="node">
<title>front_\nmatter</title>
<ellipse fill="none" stroke="black" cx="1546.24" cy="-658.5" rx="39.5" ry="39.5"/>
<ellipse fill="none" stroke="black" cx="1546.24" cy="-658.5" rx="43.5" ry="43.5"/>
<text text-anchor="middle" x="1546.24" y="-662.7" font-family="Times,serif" font-size="14.00">front_</text>
<text text-anchor="middle" x="1546.24" y="-645.9" font-family="Times,serif" font-size="14.00">matter</text>
</g>
<!-- toml -->
<g id="node19" class="node">
<title>toml</title>
<ellipse fill="none" stroke="black" cx="1494.24" cy="-535.5" rx="39.5" ry="39.5"/>
<ellipse fill="none" stroke="black" cx="1494.24" cy="-535.5" rx="43.5" ry="43.5"/>
<text text-anchor="middle" x="1494.24" y="-531.3" font-family="Times,serif" font-size="14.00">toml</text>
</g>
<!-- front_\nmatter&#45;&gt;toml -->
<g id="edge9" class="edge">
<title>front_\nmatter&#45;&gt;toml</title>
<path fill="none" stroke="black" d="M1529.36,-618.21C1524.86,-607.75 1519.95,-596.32 1515.27,-585.42"/>
<polygon fill="black" stroke="black" points="1518.38,-583.81 1511.22,-576 1511.95,-586.57 1518.38,-583.81"/>
</g>
<!-- yaml -->
<g id="node20" class="node">
<title>yaml</title>
<ellipse fill="none" stroke="black" cx="1599.24" cy="-535.5" rx="39.5" ry="39.5"/>
<ellipse fill="none" stroke="black" cx="1599.24" cy="-535.5" rx="43.5" ry="43.5"/>
<text text-anchor="middle" x="1599.24" y="-531.3" font-family="Times,serif" font-size="14.00">yaml</text>
</g>
<!-- front_\nmatter&#45;&gt;yaml -->
<g id="edge10" class="edge">
<title>front_\nmatter&#45;&gt;yaml</title>
<path fill="none" stroke="black" d="M1563.45,-618.21C1568.13,-607.54 1573.24,-595.86 1578.11,-584.75"/>
<polygon fill="black" stroke="black" points="1581.32,-586.15 1582.12,-575.59 1574.9,-583.34 1581.32,-586.15"/>
</g>
<!-- toml&#45;&gt;collections -->
<g id="edge41" class="edge">
<title>toml&#45;&gt;collections</title>
<path fill="none" stroke="black" d="M1494.24,-491.84C1494.24,-483.62 1494.24,-474.91 1494.24,-466.41"/>
<polygon fill="black" stroke="black" points="1497.74,-466.18 1494.24,-456.18 1490.74,-466.18 1497.74,-466.18"/>
</g>
<!-- fs -->
<g id="node21" class="node">
<title>fs</title>
<ellipse fill="none" stroke="black" cx="978.24" cy="-289.5" rx="39.5" ry="39.5"/>
<ellipse fill="none" stroke="black" cx="978.24" cy="-289.5" rx="43.5" ry="43.5"/>
<text text-anchor="middle" x="978.24" y="-285.3" font-family="Times,serif" font-size="14.00">fs</text>
</g>
<!-- path -->
<g id="node22" class="node">
<title>path</title>
<ellipse fill="none" stroke="black" cx="1250.24" cy="-166.5" rx="39.5" ry="39.5"/>
<ellipse fill="none" stroke="black" cx="1250.24" cy="-166.5" rx="43.5" ry="43.5"/>
<text text-anchor="middle" x="1250.24" y="-162.3" font-family="Times,serif" font-size="14.00">path</text>
</g>
<!-- fs&#45;&gt;path -->
<g id="edge11" class="edge">
<title>fs&#45;&gt;path</title>
<path fill="none" stroke="black" d="M1010.4,-259.96C1017.02,-254.89 1024.14,-249.97 1031.24,-246 1085.1,-215.87 1152.68,-193.74 1198.42,-180.8"/>
<polygon fill="black" stroke="black" points="1199.42,-184.15 1208.12,-178.1 1197.55,-177.41 1199.42,-184.15"/>
</g>
<!-- html -->
<g id="node23" class="node">
<title>html</title>
<polygon fill="pink" stroke="black" points="1904.24,-676.5 1850.24,-676.5 1850.24,-640.5 1904.24,-640.5 1904.24,-676.5"/>
<text text-anchor="middle" x="1877.24" y="-654.3" font-family="Times,serif" font-size="14.00">html</text>
</g>
<!-- http -->
<g id="node24" class="node">
<title>http</title>
<polygon fill="pink" stroke="black" points="676.24,-553.5 622.24,-553.5 622.24,-517.5 676.24,-517.5 676.24,-553.5"/>
<text text-anchor="middle" x="649.24" y="-531.3" font-family="Times,serif" font-size="14.00">http</text>
</g>
<!-- http&#45;&gt;assert -->
<g id="edge12" class="edge">
<title>http&#45;&gt;assert</title>
<path fill="none" stroke="black" d="M622.1,-529.44C541.05,-514.2 305.67,-469 295.24,-456 267.06,-420.88 278.46,-292.79 287.75,-219.64"/>
<polygon fill="black" stroke="black" points="291.23,-220.07 289.04,-209.7 284.28,-219.16 291.23,-220.07"/>
</g>
<!-- http&#45;&gt;async -->
<g id="edge14" class="edge">
<title>http&#45;&gt;async</title>
<path fill="none" stroke="black" d="M676.4,-533.59C748.06,-530.41 947.21,-516.34 1099.24,-456 1180.19,-423.87 1262.24,-363.32 1309.57,-325.05"/>
<polygon fill="black" stroke="black" points="1311.9,-327.67 1317.43,-318.64 1307.47,-322.24 1311.9,-327.67"/>
</g>
<!-- http&#45;&gt;cli -->
<g id="edge18" class="edge">
<title>http&#45;&gt;cli</title>
<path fill="none" stroke="black" d="M622.11,-529.46C536.74,-513.52 278.28,-464.8 262.24,-456 254.23,-451.61 246.83,-445.12 240.58,-438.53"/>
<polygon fill="black" stroke="black" points="243.06,-436.05 233.81,-430.87 237.81,-440.68 243.06,-436.05"/>
</g>
<!-- http&#45;&gt;streams -->
<g id="edge17" class="edge">
<title>http&#45;&gt;streams</title>
<path fill="none" stroke="black" d="M622.21,-524.84C587.03,-511.72 524.27,-486.36 475.24,-456 471.4,-453.62 467.54,-450.99 463.74,-448.24"/>
<polygon fill="black" stroke="black" points="465.65,-445.3 455.56,-442.06 461.43,-450.88 465.65,-445.3"/>
</g>
<!-- http&#45;&gt;encoding -->
<g id="edge13" class="edge">
<title>http&#45;&gt;encoding</title>
<path fill="none" stroke="black" d="M676.57,-532.46C736.75,-527.1 884.16,-509.15 994.24,-456 998.66,-453.87 1003.04,-451.31 1007.27,-448.52"/>
<polygon fill="black" stroke="black" points="1009.6,-451.16 1015.74,-442.52 1005.56,-445.44 1009.6,-451.16"/>
</g>
<!-- http&#45;&gt;fmt -->
<g id="edge19" class="edge">
<title>http&#45;&gt;fmt</title>
<path fill="none" stroke="black" d="M676.31,-523.6C702.43,-511.45 740.41,-489.05 757.24,-456 774.79,-421.55 781.5,-399.11 757.24,-369 710.16,-310.54 660.67,-363.85 592.24,-333 586.57,-330.44 580.9,-327.27 575.46,-323.81"/>
<polygon fill="black" stroke="black" points="577.37,-320.88 567.12,-318.2 573.46,-326.69 577.37,-320.88"/>
</g>
<!-- http&#45;&gt;path -->
<g id="edge15" class="edge">
<title>http&#45;&gt;path</title>
<path fill="none" stroke="black" d="M676.44,-534.11C756.95,-532.21 1000.13,-521.09 1188.24,-456 1291.91,-420.13 1347.3,-427.95 1402.24,-333 1421.61,-299.53 1422.36,-279.02 1402.24,-246 1380.64,-210.53 1337.28,-190.38 1302.38,-179.41"/>
<polygon fill="black" stroke="black" points="1303.36,-176.05 1292.78,-176.55 1301.37,-182.76 1303.36,-176.05"/>
</g>
<!-- media_types -->
<g id="node25" class="node">
<title>media_types</title>
<ellipse fill="none" stroke="black" cx="544.24" cy="-412.5" rx="59.69" ry="18"/>
<text text-anchor="middle" x="544.24" y="-408.3" font-family="Times,serif" font-size="14.00">media_types</text>
</g>
<!-- http&#45;&gt;media_types -->
<g id="edge16" class="edge">
<title>http&#45;&gt;media_types</title>
<path fill="none" stroke="black" d="M634.42,-517.42C616.42,-496.67 585.93,-461.53 565.44,-437.93"/>
<polygon fill="black" stroke="black" points="567.85,-435.36 558.65,-430.1 562.56,-439.95 567.85,-435.36"/>
</g>
<!-- net -->
<g id="node26" class="node">
<title>net</title>
<polygon fill="pink" stroke="black" points="676.24,-430.5 622.24,-430.5 622.24,-394.5 676.24,-394.5 676.24,-430.5"/>
<text text-anchor="middle" x="649.24" y="-408.3" font-family="Times,serif" font-size="14.00">net</text>
</g>
<!-- http&#45;&gt;net -->
<g id="edge20" class="edge">
<title>http&#45;&gt;net</title>
<path fill="none" stroke="black" d="M649.24,-517.42C649.24,-497.54 649.24,-464.42 649.24,-440.92"/>
<polygon fill="black" stroke="black" points="652.74,-440.88 649.24,-430.88 645.74,-440.88 652.74,-440.88"/>
</g>
<!-- ini -->
<g id="node27" class="node">
<title>ini</title>
<polygon fill="pink" stroke="black" points="1976.24,-676.5 1922.24,-676.5 1922.24,-640.5 1976.24,-640.5 1976.24,-676.5"/>
<text text-anchor="middle" x="1949.24" y="-654.3" font-family="Times,serif" font-size="14.00">ini</text>
</g>
<!-- json -->
<g id="node28" class="node">
<title>json</title>
<ellipse fill="none" stroke="black" cx="365.24" cy="-535.5" rx="39.5" ry="39.5"/>
<ellipse fill="none" stroke="black" cx="365.24" cy="-535.5" rx="43.5" ry="43.5"/>
<text text-anchor="middle" x="365.24" y="-531.3" font-family="Times,serif" font-size="14.00">json</text>
</g>
<!-- json&#45;&gt;streams -->
<g id="edge23" class="edge">
<title>json&#45;&gt;streams</title>
<path fill="none" stroke="black" d="M383.75,-495.88C389.04,-484.86 394.86,-472.71 400.37,-461.22"/>
<polygon fill="black" stroke="black" points="403.54,-462.7 404.71,-452.17 397.23,-459.67 403.54,-462.7"/>
</g>
<!-- jsonc -->
<g id="node29" class="node">
<title>jsonc</title>
<ellipse fill="none" stroke="black" cx="160.24" cy="-658.5" rx="39.5" ry="39.5"/>
<ellipse fill="none" stroke="black" cx="160.24" cy="-658.5" rx="43.5" ry="43.5"/>
<text text-anchor="middle" x="160.24" y="-654.3" font-family="Times,serif" font-size="14.00">jsonc</text>
</g>
<!-- jsonc&#45;&gt;assert -->
<g id="edge24" class="edge">
<title>jsonc&#45;&gt;assert</title>
<path fill="none" stroke="black" d="M128.61,-628.2C115.21,-614.37 100.39,-596.97 90.24,-579 16.79,-448.89 -44.24,-366.38 44.24,-246 89.27,-184.74 181.9,-169.96 241.17,-167.11"/>
<polygon fill="black" stroke="black" points="241.61,-170.6 251.47,-166.72 241.34,-163.61 241.61,-170.6"/>
</g>
<!-- jsonc&#45;&gt;json -->
<g id="edge25" class="edge">
<title>jsonc&#45;&gt;json</title>
<path fill="none" stroke="black" d="M197.37,-635.59C231.51,-615.43 282.27,-585.48 319.02,-563.78"/>
<polygon fill="black" stroke="black" points="321.22,-566.55 328.05,-558.45 317.66,-560.52 321.22,-566.55"/>
</g>
<!-- log -->
<g id="node30" class="node">
<title>log</title>
<polygon fill="pink" stroke="black" points="748.24,-430.5 694.24,-430.5 694.24,-394.5 748.24,-394.5 748.24,-430.5"/>
<text text-anchor="middle" x="721.24" y="-408.3" font-family="Times,serif" font-size="14.00">log</text>
</g>
<!-- log&#45;&gt;io -->
<g id="edge27" class="edge">
<title>log&#45;&gt;io</title>
<path fill="none" stroke="black" d="M711.1,-394.26C704.83,-385.22 695.94,-374.83 685.24,-369 577.01,-310 520.32,-388.47 410.24,-333 401.95,-328.82 394.4,-322.28 388.09,-315.57"/>
<polygon fill="black" stroke="black" points="390.5,-313.01 381.3,-307.75 385.21,-317.6 390.5,-313.01"/>
</g>
<!-- log&#45;&gt;assert -->
<g id="edge29" class="edge">
<title>log&#45;&gt;assert</title>
<path fill="none" stroke="black" d="M710.99,-394.45C704.69,-385.46 695.81,-375.07 685.24,-369 605.41,-323.15 561.43,-378.24 481.24,-333 436.53,-307.77 443.29,-280.48 405.24,-246 385.15,-227.79 360.78,-210.02 340.09,-196.01"/>
<polygon fill="black" stroke="black" points="342.03,-193.09 331.77,-190.44 338.13,-198.91 342.03,-193.09"/>
</g>
<!-- log&#45;&gt;fmt -->
<g id="edge26" class="edge">
<title>log&#45;&gt;fmt</title>
<path fill="none" stroke="black" d="M709.88,-394.38C703.48,-385.81 694.85,-375.84 685.24,-369 649.14,-343.3 631.12,-354.28 592.24,-333 586.98,-330.12 581.65,-326.82 576.47,-323.37"/>
<polygon fill="black" stroke="black" points="578.13,-320.26 567.91,-317.45 574.14,-326.02 578.13,-320.26"/>
</g>
<!-- log&#45;&gt;fs -->
<g id="edge28" class="edge">
<title>log&#45;&gt;fs</title>
<path fill="none" stroke="black" d="M748.26,-398.78C791.3,-378.52 876.03,-338.62 929.76,-313.33"/>
<polygon fill="black" stroke="black" points="931.53,-316.36 939.09,-308.93 928.55,-310.03 931.53,-316.36"/>
</g>
<!-- media_\ntypes -->
<g id="node31" class="node">
<title>media_\ntypes</title>
<ellipse fill="none" stroke="black" cx="2038.24" cy="-658.5" rx="39.5" ry="39.5"/>
<ellipse fill="none" stroke="black" cx="2038.24" cy="-658.5" rx="43.5" ry="43.5"/>
<text text-anchor="middle" x="2038.24" y="-662.7" font-family="Times,serif" font-size="14.00">media_</text>
<text text-anchor="middle" x="2038.24" y="-645.9" font-family="Times,serif" font-size="14.00">types</text>
</g>
<!-- msgpack -->
<g id="node32" class="node">
<title>msgpack</title>
<polygon fill="pink" stroke="black" points="700.01,-307.5 634.48,-307.5 634.48,-271.5 700.01,-271.5 700.01,-307.5"/>
<text text-anchor="middle" x="667.24" y="-285.3" font-family="Times,serif" font-size="14.00">msgpack</text>
</g>
<!-- msgpack&#45;&gt;bytes -->
<g id="edge30" class="edge">
<title>msgpack&#45;&gt;bytes</title>
<path fill="none" stroke="black" d="M652.7,-271.42C638.78,-255.06 617.23,-229.74 598.88,-208.19"/>
<polygon fill="black" stroke="black" points="601.44,-205.8 592.29,-200.45 596.11,-210.33 601.44,-205.8"/>
</g>
<!-- regexp -->
<g id="node33" class="node">
<title>regexp</title>
<polygon fill="pink" stroke="black" points="2154.33,-676.5 2100.15,-676.5 2100.15,-640.5 2154.33,-640.5 2154.33,-676.5"/>
<text text-anchor="middle" x="2127.24" y="-654.3" font-family="Times,serif" font-size="14.00">regexp</text>
</g>
<!-- semver -->
<g id="node34" class="node">
<title>semver</title>
<polygon fill="pink" stroke="black" points="2228.67,-676.5 2171.82,-676.5 2171.82,-640.5 2228.67,-640.5 2228.67,-676.5"/>
<text text-anchor="middle" x="2200.24" y="-654.3" font-family="Times,serif" font-size="14.00">semver</text>
</g>
<!-- testing -->
<g id="node35" class="node">
<title>testing</title>
<ellipse fill="none" stroke="black" cx="942.24" cy="-412.5" rx="39.5" ry="39.5"/>
<ellipse fill="none" stroke="black" cx="942.24" cy="-412.5" rx="43.5" ry="43.5"/>
<text text-anchor="middle" x="942.24" y="-408.3" font-family="Times,serif" font-size="14.00">testing</text>
</g>
<!-- testing&#45;&gt;assert -->
<g id="edge33" class="edge">
<title>testing&#45;&gt;assert</title>
<path fill="none" stroke="black" d="M900.44,-400.29C867.56,-391.54 820.55,-379.21 779.24,-369 711.01,-352.13 679.48,-377.72 625.24,-333 592.55,-306.04 618.48,-273.51 586.24,-246 550.56,-215.55 422.09,-189.24 348.33,-176.21"/>
<polygon fill="black" stroke="black" points="348.75,-172.73 338.3,-174.46 347.55,-179.63 348.75,-172.73"/>
</g>
<!-- testing&#45;&gt;internal -->
<g id="edge37" class="edge">
<title>testing&#45;&gt;internal</title>
<path fill="none" stroke="black" d="M932.93,-369.59C930.36,-357.77 927.63,-344.89 925.24,-333 906.53,-239.93 941.65,-200.08 886.24,-123 864.48,-92.72 827.23,-72.71 796.49,-60.47"/>
<polygon fill="black" stroke="black" points="797.35,-57.05 786.76,-56.77 794.86,-63.6 797.35,-57.05"/>
</g>
<!-- testing&#45;&gt;async -->
<g id="edge39" class="edge">
<title>testing&#45;&gt;async</title>
<path fill="none" stroke="black" d="M973.1,-381.65C979.65,-376.69 986.84,-372.15 994.24,-369 1116.98,-316.72 1168.17,-382.02 1292.24,-333 1298.03,-330.71 1303.77,-327.7 1309.25,-324.34"/>
<polygon fill="black" stroke="black" points="1311.21,-327.24 1317.63,-318.82 1307.35,-321.4 1311.21,-327.24"/>
</g>
<!-- testing&#45;&gt;fmt -->
<g id="edge36" class="edge">
<title>testing&#45;&gt;fmt</title>
<path fill="none" stroke="black" d="M900.9,-398.82C870.48,-389.76 828.03,-377.7 790.24,-369 703.08,-348.94 674.41,-368.33 592.24,-333 586.52,-330.54 580.83,-327.43 575.37,-324.01"/>
<polygon fill="black" stroke="black" points="577.28,-321.07 567.02,-318.43 573.39,-326.89 577.28,-321.07"/>
</g>
<!-- testing&#45;&gt;fs -->
<g id="edge35" class="edge">
<title>testing&#45;&gt;fs</title>
<path fill="none" stroke="black" d="M954.43,-370.53C957.25,-361.07 960.27,-350.9 963.19,-341.08"/>
<polygon fill="black" stroke="black" points="966.57,-342.01 966.07,-331.42 959.86,-340.01 966.57,-342.01"/>
</g>
<!-- testing&#45;&gt;path -->
<g id="edge34" class="edge">
<title>testing&#45;&gt;path</title>
<path fill="none" stroke="black" d="M973.14,-381.73C979.69,-376.77 986.87,-372.21 994.24,-369 1048.74,-345.3 1220.15,-377.76 1259.24,-333 1286.49,-301.8 1280.25,-253.35 1269.56,-216.92"/>
<polygon fill="black" stroke="black" points="1272.78,-215.49 1266.46,-206.99 1266.1,-217.58 1272.78,-215.49"/>
</g>
<!-- data_structures -->
<g id="node36" class="node">
<title>data_structures</title>
<ellipse fill="none" stroke="black" cx="1109.24" cy="-289.5" rx="69.48" ry="18"/>
<text text-anchor="middle" x="1109.24" y="-285.3" font-family="Times,serif" font-size="14.00">data_structures</text>
</g>
<!-- testing&#45;&gt;data_structures -->
<g id="edge38" class="edge">
<title>testing&#45;&gt;data_structures</title>
<path fill="none" stroke="black" d="M975.19,-383.86C981.44,-378.82 987.99,-373.68 994.24,-369 1021.19,-348.85 1052.84,-327.4 1076.11,-312.02"/>
<polygon fill="black" stroke="black" points="1078.16,-314.86 1084.59,-306.44 1074.31,-309.02 1078.16,-314.86"/>
</g>
<!-- text -->
<g id="node37" class="node">
<title>text</title>
<polygon fill="pink" stroke="black" points="132.24,-307.5 78.24,-307.5 78.24,-271.5 132.24,-271.5 132.24,-307.5"/>
<text text-anchor="middle" x="105.24" y="-285.3" font-family="Times,serif" font-size="14.00">text</text>
</g>
<!-- text&#45;&gt;assert -->
<g id="edge40" class="edge">
<title>text&#45;&gt;assert</title>
<path fill="none" stroke="black" d="M117.23,-271.36C123.67,-262.99 132.15,-253.2 141.24,-246 172.8,-221.01 213.56,-200.66 245.22,-186.95"/>
<polygon fill="black" stroke="black" points="246.9,-190.04 254.74,-182.9 244.16,-183.59 246.9,-190.04"/>
</g>
<!-- ulid -->
<g id="node38" class="node">
<title>ulid</title>
<polygon fill="pink" stroke="black" points="2300.24,-676.5 2246.24,-676.5 2246.24,-640.5 2300.24,-640.5 2300.24,-676.5"/>
<text text-anchor="middle" x="2273.24" y="-654.3" font-family="Times,serif" font-size="14.00">ulid</text>
</g>
<!-- url -->
<g id="node39" class="node">
<title>url</title>
<polygon fill="pink" stroke="black" points="1250.24,-307.5 1196.24,-307.5 1196.24,-271.5 1250.24,-271.5 1250.24,-307.5"/>
<text text-anchor="middle" x="1223.24" y="-285.3" font-family="Times,serif" font-size="14.00">url</text>
</g>
<!-- url&#45;&gt;path -->
<g id="edge42" class="edge">
<title>url&#45;&gt;path</title>
<path fill="none" stroke="black" d="M1227.05,-271.42C1230.11,-257.73 1234.57,-237.76 1238.76,-218.98"/>
<polygon fill="black" stroke="black" points="1242.22,-219.53 1240.98,-209.01 1235.39,-218.01 1242.22,-219.53"/>
</g>
<!-- uuid -->
<g id="node40" class="node">
<title>uuid</title>
<ellipse fill="none" stroke="black" cx="834.24" cy="-289.5" rx="39.5" ry="39.5"/>
<ellipse fill="none" stroke="black" cx="834.24" cy="-289.5" rx="43.5" ry="43.5"/>
<text text-anchor="middle" x="834.24" y="-285.3" font-family="Times,serif" font-size="14.00">uuid</text>
</g>
<!-- uuid&#45;&gt;bytes -->
<g id="edge43" class="edge">
<title>uuid&#45;&gt;bytes</title>
<path fill="none" stroke="black" d="M802.08,-259.97C795.46,-254.91 788.34,-249.98 781.24,-246 728.14,-216.19 661.59,-194.11 616.29,-181.08"/>
<polygon fill="black" stroke="black" points="616.97,-177.64 606.39,-178.28 615.06,-184.37 616.97,-177.64"/>
</g>
<!-- uuid&#45;&gt;crypto -->
<g id="edge44" class="edge">
<title>uuid&#45;&gt;crypto</title>
<path fill="none" stroke="black" d="M834.24,-245.84C834.24,-237.62 834.24,-228.91 834.24,-220.41"/>
<polygon fill="black" stroke="black" points="837.74,-220.18 834.24,-210.18 830.74,-220.18 837.74,-220.18"/>
</g>
<!-- webgpu -->
<g id="node41" class="node">
<title>webgpu</title>
<polygon fill="pink" stroke="black" points="210.57,-307.5 149.92,-307.5 149.92,-271.5 210.57,-271.5 210.57,-307.5"/>
<text text-anchor="middle" x="180.24" y="-285.3" font-family="Times,serif" font-size="14.00">webgpu</text>
</g>
<!-- webgpu&#45;&gt;assert -->
<g id="edge45" class="edge">
<title>webgpu&#45;&gt;assert</title>
<path fill="none" stroke="black" d="M196.48,-271.42C212.61,-254.45 237.9,-227.84 258.85,-205.79"/>
<polygon fill="black" stroke="black" points="261.41,-208.17 265.77,-198.51 256.34,-203.35 261.41,-208.17"/>
</g>
</g>
</svg>
