<?xml version="1.0" encoding="UTF-8" standalone="no"?>
<!DOCTYPE svg PUBLIC "-//W3C//DTD SVG 1.1//EN"
 "http://www.w3.org/Graphics/SVG/1.1/DTD/svg11.dtd">
<!-- Generated by graphviz version 2.44.0 (20200518.1210)
 -->
<!-- Title: std_deps Pages: 1 -->
<svg width="2319pt" height="620pt"
 viewBox="0.00 0.00 2319.02 620.00" xmlns="http://www.w3.org/2000/svg" xmlns:xlink="http://www.w3.org/1999/xlink">
<g id="graph0" class="graph" transform="scale(1 1) rotate(0) translate(4 616)">
<title>std_deps</title>
<polygon fill="white" stroke="transparent" points="-4,4 -4,-616 2315.02,-616 2315.02,4 -4,4"/>
<!-- archive -->
<g id="node1" class="node">
<title>archive</title>
<ellipse fill="none" stroke="black" cx="948.02" cy="-360" rx="36" ry="36"/>
<text text-anchor="middle" x="948.02" y="-355.8" font-family="Times,serif" font-size="14.00">archive</text>
</g>
<!-- io -->
<g id="node2" class="node">
<title>io</title>
<ellipse fill="none" stroke="black" cx="948.02" cy="-252" rx="36" ry="36"/>
<text text-anchor="middle" x="948.02" y="-247.8" font-family="Times,serif" font-size="14.00">io</text>
</g>
<!-- archive&#45;&gt;io -->
<g id="edge1" class="edge">
<title>archive&#45;&gt;io</title>
<path fill="none" stroke="black" d="M948.02,-324C948.02,-315.85 948.02,-307.06 948.02,-298.54"/>
<polygon fill="black" stroke="black" points="951.52,-298.33 948.02,-288.33 944.52,-298.33 951.52,-298.33"/>
</g>
<!-- assert -->
<g id="node3" class="node">
<title>assert</title>
<ellipse fill="lightgreen" stroke="black" cx="640.02" cy="-144" rx="36" ry="36"/>
<text text-anchor="middle" x="640.02" y="-139.8" font-family="Times,serif" font-size="14.00">assert</text>
</g>
<!-- archive&#45;&gt;assert -->
<g id="edge2" class="edge">
<title>archive&#45;&gt;assert</title>
<path fill="none" stroke="black" d="M921.85,-335.09C916,-330.79 909.57,-326.8 903.02,-324 802.22,-280.93 735.97,-366.07 659.02,-288 634.14,-262.76 630.96,-221.73 633.09,-190.08"/>
<polygon fill="black" stroke="black" points="636.61,-190.01 634,-179.74 629.64,-189.4 636.61,-190.01"/>
</g>
<!-- io&#45;&gt;assert -->
<g id="edge19" class="edge">
<title>io&#45;&gt;assert</title>
<path fill="none" stroke="black" d="M914.18,-239.35C857.96,-220 745.39,-181.26 683.42,-159.93"/>
<polygon fill="black" stroke="black" points="684.51,-156.61 673.92,-156.67 682.24,-163.23 684.51,-156.61"/>
</g>
<!-- bytes -->
<g id="node6" class="node">
<title>bytes</title>
<ellipse fill="lightgreen" stroke="black" cx="1336.02" cy="-144" rx="36" ry="36"/>
<text text-anchor="middle" x="1336.02" y="-139.8" font-family="Times,serif" font-size="14.00">bytes</text>
</g>
<!-- io&#45;&gt;bytes -->
<g id="edge20" class="edge">
<title>io&#45;&gt;bytes</title>
<path fill="none" stroke="black" d="M982.8,-241.5C1053.38,-222.22 1213.36,-178.51 1291.46,-157.17"/>
<polygon fill="black" stroke="black" points="1292.74,-160.45 1301.46,-154.44 1290.9,-153.7 1292.74,-160.45"/>
</g>
<!-- internal -->
<g id="node4" class="node">
<title>internal</title>
<ellipse fill="lightgreen" stroke="black" cx="55.02" cy="-36" rx="36" ry="36"/>
<text text-anchor="middle" x="55.02" y="-31.8" font-family="Times,serif" font-size="14.00">internal</text>
</g>
<!-- assert&#45;&gt;internal -->
<g id="edge3" class="edge">
<title>assert&#45;&gt;internal</title>
<path fill="none" stroke="black" d="M604.74,-136.61C503.66,-118.29 212.98,-65.62 100.36,-45.22"/>
<polygon fill="black" stroke="black" points="100.81,-41.74 90.34,-43.4 99.56,-48.63 100.81,-41.74"/>
</g>
<!-- async -->
<g id="node5" class="node">
<title>async</title>
<ellipse fill="none" stroke="black" cx="512.02" cy="-360" rx="36" ry="36"/>
<text text-anchor="middle" x="512.02" y="-355.8" font-family="Times,serif" font-size="14.00">async</text>
</g>
<!-- cli -->
<g id="node7" class="node">
<title>cli</title>
<ellipse fill="none" stroke="black" cx="730.02" cy="-360" rx="36" ry="36"/>
<text text-anchor="middle" x="730.02" y="-355.8" font-family="Times,serif" font-size="14.00">cli</text>
</g>
<!-- collections -->
<g id="node8" class="node">
<title>collections</title>
<ellipse fill="lightgreen" stroke="black" cx="1420.02" cy="-360" rx="36" ry="36"/>
<text text-anchor="middle" x="1420.02" y="-355.8" font-family="Times,serif" font-size="14.00">collections</text>
</g>
<!-- crypto -->
<g id="node9" class="node">
<title>crypto</title>
<ellipse fill="lightgreen" stroke="black" cx="1484.02" cy="-144" rx="36" ry="36"/>
<text text-anchor="middle" x="1484.02" y="-139.8" font-family="Times,serif" font-size="14.00">crypto</text>
</g>
<!-- csv -->
<g id="node10" class="node">
<title>csv</title>
<ellipse fill="none" stroke="black" cx="1330.02" cy="-468" rx="36" ry="36"/>
<text text-anchor="middle" x="1330.02" y="-463.8" font-family="Times,serif" font-size="14.00">csv</text>
</g>
<!-- csv&#45;&gt;assert -->
<g id="edge4" class="edge">
<title>csv&#45;&gt;assert</title>
<path fill="none" stroke="black" d="M1334.09,-432.19C1335.87,-400.98 1333.63,-355.4 1311.02,-324 1247.13,-235.29 1194.28,-248.88 1090.02,-216 946.98,-170.88 768.92,-153.65 686.22,-147.74"/>
<polygon fill="black" stroke="black" points="686.36,-144.25 676.15,-147.05 685.88,-151.23 686.36,-144.25"/>
</g>
<!-- streams -->
<g id="node11" class="node">
<title>streams</title>
<ellipse fill="none" stroke="black" cx="1266.02" cy="-360" rx="36" ry="36"/>
<text text-anchor="middle" x="1266.02" y="-355.8" font-family="Times,serif" font-size="14.00">streams</text>
</g>
<!-- csv&#45;&gt;streams -->
<g id="edge5" class="edge">
<title>csv&#45;&gt;streams</title>
<path fill="none" stroke="black" d="M1311.85,-436.91C1304.89,-425.38 1296.86,-412.07 1289.47,-399.84"/>
<polygon fill="black" stroke="black" points="1292.4,-397.92 1284.24,-391.17 1286.41,-401.54 1292.4,-397.92"/>
</g>
<!-- streams&#45;&gt;io -->
<g id="edge29" class="edge">
<title>streams&#45;&gt;io</title>
<path fill="none" stroke="black" d="M1239.12,-335.27C1233.42,-331.07 1227.24,-327.06 1221.02,-324 1181.01,-304.29 1059.73,-276.68 993.08,-262.4"/>
<polygon fill="black" stroke="black" points="993.78,-258.97 983.27,-260.3 992.32,-265.81 993.78,-258.97"/>
</g>
<!-- streams&#45;&gt;assert -->
<g id="edge27" class="edge">
<title>streams&#45;&gt;assert</title>
<path fill="none" stroke="black" d="M1238.62,-336.17C1232.96,-331.89 1226.92,-327.63 1221.02,-324 1125.53,-265.23 1099.44,-251.32 993.02,-216 885.8,-180.42 754.04,-159.69 685.83,-150.58"/>
<polygon fill="black" stroke="black" points="686.2,-147.1 675.83,-149.26 685.29,-154.04 686.2,-147.1"/>
</g>
<!-- streams&#45;&gt;bytes -->
<g id="edge28" class="edge">
<title>streams&#45;&gt;bytes</title>
<path fill="none" stroke="black" d="M1276.96,-325.56C1289.07,-288.53 1308.64,-228.71 1321.9,-188.17"/>
<polygon fill="black" stroke="black" points="1325.26,-189.15 1325.05,-178.56 1318.61,-186.97 1325.26,-189.15"/>
</g>
<!-- data_\nstructures -->
<g id="node12" class="node">
<title>data_\nstructures</title>
<ellipse fill="none" stroke="black" cx="1555.02" cy="-576" rx="36" ry="36"/>
<text text-anchor="middle" x="1555.02" y="-580.2" font-family="Times,serif" font-size="14.00">data_</text>
<text text-anchor="middle" x="1555.02" y="-563.4" font-family="Times,serif" font-size="14.00">structures</text>
</g>
<!-- datetime -->
<g id="node13" class="node">
<title>datetime</title>
<ellipse fill="none" stroke="black" cx="1645.02" cy="-576" rx="36" ry="36"/>
<text text-anchor="middle" x="1645.02" y="-571.8" font-family="Times,serif" font-size="14.00">datetime</text>
</g>
<!-- dotenv -->
<g id="node14" class="node">
<title>dotenv</title>
<ellipse fill="none" stroke="black" cx="1735.02" cy="-576" rx="36" ry="36"/>
<text text-anchor="middle" x="1735.02" y="-571.8" font-family="Times,serif" font-size="14.00">dotenv</text>
</g>
<!-- encoding -->
<g id="node15" class="node">
<title>encoding</title>
<ellipse fill="lightgreen" stroke="black" cx="858.02" cy="-360" rx="36" ry="36"/>
<text text-anchor="middle" x="858.02" y="-355.8" font-family="Times,serif" font-size="14.00">encoding</text>
</g>
<!-- expect -->
<g id="node16" class="node">
<title>expect</title>
<ellipse fill="none" stroke="black" cx="55.02" cy="-252" rx="36" ry="36"/>
<text text-anchor="middle" x="55.02" y="-247.8" font-family="Times,serif" font-size="14.00">expect</text>
</g>
<!-- expect&#45;&gt;assert -->
<g id="edge6" class="edge">
<title>expect&#45;&gt;assert</title>
<path fill="none" stroke="black" d="M82.49,-228.3C89.47,-223.53 97.22,-219.04 105.02,-216 194.13,-181.3 481.29,-156.8 594,-148.29"/>
<polygon fill="black" stroke="black" points="594.33,-151.78 604.04,-147.54 593.8,-144.79 594.33,-151.78"/>
</g>
<!-- expect&#45;&gt;internal -->
<g id="edge7" class="edge">
<title>expect&#45;&gt;internal</title>
<path fill="none" stroke="black" d="M55.02,-215.66C55.02,-179.16 55.02,-122.05 55.02,-82.26"/>
<polygon fill="black" stroke="black" points="58.52,-82.03 55.02,-72.03 51.52,-82.03 58.52,-82.03"/>
</g>
<!-- fmt -->
<g id="node17" class="node">
<title>fmt</title>
<ellipse fill="none" stroke="black" cx="640.02" cy="-360" rx="36" ry="36"/>
<text text-anchor="middle" x="640.02" y="-355.8" font-family="Times,serif" font-size="14.00">fmt</text>
</g>
<!-- front_\nmatter -->
<g id="node18" class="node">
<title>front_\nmatter</title>
<ellipse fill="none" stroke="black" cx="1465.02" cy="-576" rx="36" ry="36"/>
<text text-anchor="middle" x="1465.02" y="-580.2" font-family="Times,serif" font-size="14.00">front_</text>
<text text-anchor="middle" x="1465.02" y="-563.4" font-family="Times,serif" font-size="14.00">matter</text>
</g>
<!-- toml -->
<g id="node19" class="node">
<title>toml</title>
<ellipse fill="lightgreen" stroke="black" cx="1420.02" cy="-468" rx="36" ry="36"/>
<text text-anchor="middle" x="1420.02" y="-463.8" font-family="Times,serif" font-size="14.00">toml</text>
</g>
<!-- front_\nmatter&#45;&gt;toml -->
<g id="edge8" class="edge">
<title>front_\nmatter&#45;&gt;toml</title>
<path fill="none" stroke="black" d="M1451.28,-542.62C1447.04,-532.65 1442.32,-521.51 1437.85,-510.99"/>
<polygon fill="black" stroke="black" points="1440.97,-509.38 1433.84,-501.55 1434.52,-512.12 1440.97,-509.38"/>
</g>
<!-- yaml -->
<g id="node20" class="node">
<title>yaml</title>
<ellipse fill="none" stroke="black" cx="1510.02" cy="-468" rx="36" ry="36"/>
<text text-anchor="middle" x="1510.02" y="-463.8" font-family="Times,serif" font-size="14.00">yaml</text>
</g>
<!-- front_\nmatter&#45;&gt;yaml -->
<g id="edge9" class="edge">
<title>front_\nmatter&#45;&gt;yaml</title>
<path fill="none" stroke="black" d="M1478.77,-542.62C1483,-532.65 1487.73,-521.51 1492.2,-510.99"/>
<polygon fill="black" stroke="black" points="1495.52,-512.12 1496.2,-501.55 1489.08,-509.38 1495.52,-512.12"/>
</g>
<!-- toml&#45;&gt;collections -->
<g id="edge38" class="edge">
<title>toml&#45;&gt;collections</title>
<path fill="none" stroke="black" d="M1420.02,-432C1420.02,-423.85 1420.02,-415.06 1420.02,-406.54"/>
<polygon fill="black" stroke="black" points="1423.52,-406.33 1420.02,-396.33 1416.52,-406.33 1423.52,-406.33"/>
</g>
<!-- fs -->
<g id="node21" class="node">
<title>fs</title>
<ellipse fill="none" stroke="black" cx="422.02" cy="-360" rx="36" ry="36"/>
<text text-anchor="middle" x="422.02" y="-355.8" font-family="Times,serif" font-size="14.00">fs</text>
</g>
<!-- path -->
<g id="node22" class="node">
<title>path</title>
<ellipse fill="lightgreen" stroke="black" cx="422.02" cy="-252" rx="36" ry="36"/>
<text text-anchor="middle" x="422.02" y="-247.8" font-family="Times,serif" font-size="14.00">path</text>
</g>
<!-- fs&#45;&gt;path -->
<g id="edge10" class="edge">
<title>fs&#45;&gt;path</title>
<path fill="none" stroke="black" d="M422.02,-324C422.02,-315.85 422.02,-307.06 422.02,-298.54"/>
<polygon fill="black" stroke="black" points="425.52,-298.33 422.02,-288.33 418.52,-298.33 425.52,-298.33"/>
</g>
<!-- html -->
<g id="node23" class="node">
<title>html</title>
<ellipse fill="lightgreen" stroke="black" cx="1825.02" cy="-576" rx="36" ry="36"/>
<text text-anchor="middle" x="1825.02" y="-571.8" font-family="Times,serif" font-size="14.00">html</text>
</g>
<!-- http -->
<g id="node24" class="node">
<title>http</title>
<ellipse fill="none" stroke="black" cx="826.02" cy="-468" rx="36" ry="36"/>
<text text-anchor="middle" x="826.02" y="-463.8" font-family="Times,serif" font-size="14.00">http</text>
</g>
<!-- http&#45;&gt;async -->
<g id="edge12" class="edge">
<title>http&#45;&gt;async</title>
<path fill="none" stroke="black" d="M791.22,-457.49C745.69,-444.78 663.63,-420.94 595.02,-396 581.54,-391.1 567.06,-385.22 554.03,-379.69"/>
<polygon fill="black" stroke="black" points="555.41,-376.47 544.84,-375.74 552.65,-382.9 555.41,-376.47"/>
</g>
<!-- http&#45;&gt;cli -->
<g id="edge16" class="edge">
<title>http&#45;&gt;cli</title>
<path fill="none" stroke="black" d="M802.29,-440.8C789.71,-426.91 774.12,-409.69 760.64,-394.81"/>
<polygon fill="black" stroke="black" points="763.12,-392.33 753.81,-387.27 757.93,-397.03 763.12,-392.33"/>
</g>
<!-- http&#45;&gt;streams -->
<g id="edge15" class="edge">
<title>http&#45;&gt;streams</title>
<path fill="none" stroke="black" d="M862.03,-466.23C933.54,-463.5 1097.25,-451.19 1221.02,-396 1224.48,-394.46 1227.91,-392.6 1231.24,-390.54"/>
<polygon fill="black" stroke="black" points="1233.47,-393.26 1239.78,-384.75 1229.54,-387.47 1233.47,-393.26"/>
</g>
<!-- http&#45;&gt;encoding -->
<g id="edge11" class="edge">
<title>http&#45;&gt;encoding</title>
<path fill="none" stroke="black" d="M836.23,-433.17C838.98,-424.09 841.98,-414.13 844.86,-404.6"/>
<polygon fill="black" stroke="black" points="848.26,-405.46 847.8,-394.87 841.55,-403.43 848.26,-405.46"/>
</g>
<!-- http&#45;&gt;fmt -->
<g id="edge17" class="edge">
<title>http&#45;&gt;fmt</title>
<path fill="none" stroke="black" d="M793.13,-452.65C763.91,-439.39 720.47,-418.41 685.02,-396 681.91,-394.03 678.75,-391.9 675.63,-389.69"/>
<polygon fill="black" stroke="black" points="677.63,-386.81 667.49,-383.72 673.49,-392.46 677.63,-386.81"/>
</g>
<!-- http&#45;&gt;path -->
<g id="edge13" class="edge">
<title>http&#45;&gt;path</title>
<path fill="none" stroke="black" d="M817.94,-432.73C808.4,-395.21 791.71,-338.45 775.02,-324 763.36,-313.91 559.89,-277.18 467.28,-260.88"/>
<polygon fill="black" stroke="black" points="467.8,-257.42 457.34,-259.14 466.59,-264.32 467.8,-257.42"/>
</g>
<!-- media_types -->
<g id="node25" class="node">
<title>media_types</title>
<ellipse fill="none" stroke="black" cx="1062.02" cy="-360" rx="59.69" ry="18"/>
<text text-anchor="middle" x="1062.02" y="-355.8" font-family="Times,serif" font-size="14.00">media_types</text>
</g>
<!-- http&#45;&gt;media_types -->
<g id="edge14" class="edge">
<title>http&#45;&gt;media_types</title>
<path fill="none" stroke="black" d="M859.26,-453.64C893.18,-439.83 947.18,-417.34 993.02,-396 1003.37,-391.18 1014.45,-385.71 1024.64,-380.54"/>
<polygon fill="black" stroke="black" points="1026.39,-383.58 1033.7,-375.91 1023.2,-377.34 1026.39,-383.58"/>
</g>
<!-- net -->
<g id="node26" class="node">
<title>net</title>
<ellipse fill="none" stroke="black" cx="1176.02" cy="-360" rx="36" ry="36"/>
<text text-anchor="middle" x="1176.02" y="-355.8" font-family="Times,serif" font-size="14.00">net</text>
</g>
<!-- http&#45;&gt;net -->
<g id="edge18" class="edge">
<title>http&#45;&gt;net</title>
<path fill="none" stroke="black" d="M861.96,-463.69C920.74,-457.18 1039.99,-439.4 1131.02,-396 1134.34,-394.42 1137.65,-392.55 1140.88,-390.53"/>
<polygon fill="black" stroke="black" points="1142.89,-393.39 1149.18,-384.86 1138.95,-387.61 1142.89,-393.39"/>
</g>
<!-- ini -->
<g id="node27" class="node">
<title>ini</title>
<ellipse fill="none" stroke="black" cx="1915.02" cy="-576" rx="36" ry="36"/>
<text text-anchor="middle" x="1915.02" y="-571.8" font-family="Times,serif" font-size="14.00">ini</text>
</g>
<!-- json -->
<g id="node28" class="node">
<title>json</title>
<ellipse fill="none" stroke="black" cx="1240.02" cy="-468" rx="36" ry="36"/>
<text text-anchor="middle" x="1240.02" y="-463.8" font-family="Times,serif" font-size="14.00">json</text>
</g>
<!-- json&#45;&gt;streams -->
<g id="edge21" class="edge">
<title>json&#45;&gt;streams</title>
<path fill="none" stroke="black" d="M1248.39,-432.88C1250.57,-423.99 1252.95,-414.28 1255.24,-404.96"/>
<polygon fill="black" stroke="black" points="1258.68,-405.6 1257.67,-395.06 1251.89,-403.94 1258.68,-405.6"/>
</g>
<!-- jsonc -->
<g id="node29" class="node">
<title>jsonc</title>
<ellipse fill="none" stroke="black" cx="1240.02" cy="-576" rx="36" ry="36"/>
<text text-anchor="middle" x="1240.02" y="-571.8" font-family="Times,serif" font-size="14.00">jsonc</text>
</g>
<!-- jsonc&#45;&gt;json -->
<g id="edge22" class="edge">
<title>jsonc&#45;&gt;json</title>
<path fill="none" stroke="black" d="M1240.02,-540C1240.02,-531.85 1240.02,-523.06 1240.02,-514.54"/>
<polygon fill="black" stroke="black" points="1243.52,-514.33 1240.02,-504.33 1236.52,-514.33 1243.52,-514.33"/>
</g>
<!-- log -->
<g id="node30" class="node">
<title>log</title>
<ellipse fill="none" stroke="black" cx="576.02" cy="-468" rx="36" ry="36"/>
<text text-anchor="middle" x="576.02" y="-463.8" font-family="Times,serif" font-size="14.00">log</text>
</g>
<!-- log&#45;&gt;io -->
<g id="edge24" class="edge">
<title>log&#45;&gt;io</title>
<path fill="none" stroke="black" d="M570.29,-432.26C567.1,-399.99 568.16,-352.71 595.02,-324 605.56,-312.74 809.64,-276.65 902.59,-260.7"/>
<polygon fill="black" stroke="black" points="903.29,-264.13 912.56,-258.99 902.11,-257.23 903.29,-264.13"/>
</g>
<!-- log&#45;&gt;fmt -->
<g id="edge23" class="edge">
<title>log&#45;&gt;fmt</title>
<path fill="none" stroke="black" d="M594.19,-436.91C601.15,-425.38 609.19,-412.07 616.57,-399.84"/>
<polygon fill="black" stroke="black" points="619.63,-401.54 621.81,-391.17 613.64,-397.92 619.63,-401.54"/>
</g>
<!-- log&#45;&gt;fs -->
<g id="edge25" class="edge">
<title>log&#45;&gt;fs</title>
<path fill="none" stroke="black" d="M545.49,-448.08C523.39,-434.14 492.95,-414.48 467.02,-396 464.02,-393.86 460.95,-391.61 457.88,-389.32"/>
<polygon fill="black" stroke="black" points="459.91,-386.47 449.83,-383.21 455.68,-392.04 459.91,-386.47"/>
</g>
<!-- media_\ntypes -->
<g id="node31" class="node">
<title>media_\ntypes</title>
<ellipse fill="lightgreen" stroke="black" cx="2005.02" cy="-576" rx="36" ry="36"/>
<text text-anchor="middle" x="2005.02" y="-580.2" font-family="Times,serif" font-size="14.00">media_</text>
<text text-anchor="middle" x="2005.02" y="-563.4" font-family="Times,serif" font-size="14.00">types</text>
</g>
<!-- msgpack -->
<g id="node32" class="node">
<title>msgpack</title>
<ellipse fill="none" stroke="black" cx="1394.02" cy="-252" rx="36" ry="36"/>
<text text-anchor="middle" x="1394.02" y="-247.8" font-family="Times,serif" font-size="14.00">msgpack</text>
</g>
<!-- msgpack&#45;&gt;bytes -->
<g id="edge26" class="edge">
<title>msgpack&#45;&gt;bytes</title>
<path fill="none" stroke="black" d="M1377.09,-220.06C1371.13,-209.16 1364.34,-196.75 1358.02,-185.2"/>
<polygon fill="black" stroke="black" points="1360.95,-183.26 1353.07,-176.17 1354.8,-186.62 1360.95,-183.26"/>
</g>
<!-- regexp -->
<g id="node33" class="node">
<title>regexp</title>
<ellipse fill="none" stroke="black" cx="2095.02" cy="-576" rx="36" ry="36"/>
<text text-anchor="middle" x="2095.02" y="-571.8" font-family="Times,serif" font-size="14.00">regexp</text>
</g>
<!-- semver -->
<g id="node34" class="node">
<title>semver</title>
<ellipse fill="none" stroke="black" cx="2185.02" cy="-576" rx="36" ry="36"/>
<text text-anchor="middle" x="2185.02" y="-571.8" font-family="Times,serif" font-size="14.00">semver</text>
</g>
<!-- testing -->
<g id="node35" class="node">
<title>testing</title>
<ellipse fill="none" stroke="black" cx="299.02" cy="-468" rx="36" ry="36"/>
<text text-anchor="middle" x="299.02" y="-463.8" font-family="Times,serif" font-size="14.00">testing</text>
</g>
<!-- testing&#45;&gt;assert -->
<g id="edge30" class="edge">
<title>testing&#45;&gt;assert</title>
<path fill="none" stroke="black" d="M262.98,-464.9C219.11,-460.18 146.74,-444.96 113.02,-396 94.87,-369.64 97.47,-351.96 113.02,-324 157.27,-244.46 202.39,-249.51 287.02,-216 392.2,-174.36 525.07,-156.11 593.92,-148.99"/>
<polygon fill="black" stroke="black" points="594.41,-152.46 604.01,-147.98 593.71,-145.49 594.41,-152.46"/>
</g>
<!-- testing&#45;&gt;internal -->
<g id="edge34" class="edge">
<title>testing&#45;&gt;internal</title>
<path fill="none" stroke="black" d="M263.42,-460.7C220.77,-451.82 148.62,-432.48 97.02,-396 46.69,-360.42 30.52,-346.13 10.02,-288 -15.15,-216.61 13.37,-128.62 35.1,-78.04"/>
<polygon fill="black" stroke="black" points="38.37,-79.31 39.2,-68.75 31.96,-76.48 38.37,-79.31"/>
</g>
<!-- testing&#45;&gt;async -->
<g id="edge36" class="edge">
<title>testing&#45;&gt;async</title>
<path fill="none" stroke="black" d="M333.09,-455.58C367.94,-443.22 423.05,-421.79 467.02,-396 470.2,-394.14 473.4,-392.08 476.55,-389.92"/>
<polygon fill="black" stroke="black" points="478.66,-392.71 484.74,-384.03 474.58,-387.03 478.66,-392.71"/>
</g>
<!-- testing&#45;&gt;fmt -->
<g id="edge33" class="edge">
<title>testing&#45;&gt;fmt</title>
<path fill="none" stroke="black" d="M334.1,-458.89C384.15,-446.97 478.67,-423.17 557.02,-396 570.58,-391.3 585.07,-385.47 598.1,-379.93"/>
<polygon fill="black" stroke="black" points="599.49,-383.14 607.29,-375.97 596.72,-376.72 599.49,-383.14"/>
</g>
<!-- testing&#45;&gt;fs -->
<g id="edge32" class="edge">
<title>testing&#45;&gt;fs</title>
<path fill="none" stroke="black" d="M326.01,-443.74C344.04,-428.2 367.91,-407.63 387.34,-390.89"/>
<polygon fill="black" stroke="black" points="389.8,-393.39 395.09,-384.21 385.23,-388.08 389.8,-393.39"/>
</g>
<!-- testing&#45;&gt;path -->
<g id="edge31" class="edge">
<title>testing&#45;&gt;path</title>
<path fill="none" stroke="black" d="M263.18,-463.26C223.21,-456.96 160.33,-440.2 131.02,-396 113.34,-369.33 110.1,-348.21 131.02,-324 167.15,-282.2 326.2,-309.68 377.02,-288 380.5,-286.51 383.95,-284.69 387.29,-282.67"/>
<polygon fill="black" stroke="black" points="389.5,-285.4 395.86,-276.92 385.6,-279.58 389.5,-285.4"/>
</g>
<!-- data_structures -->
<g id="node36" class="node">
<title>data_structures</title>
<ellipse fill="none" stroke="black" cx="299.02" cy="-360" rx="69.48" ry="18"/>
<text text-anchor="middle" x="299.02" y="-355.8" font-family="Times,serif" font-size="14.00">data_structures</text>
</g>
<!-- testing&#45;&gt;data_structures -->
<g id="edge35" class="edge">
<title>testing&#45;&gt;data_structures</title>
<path fill="none" stroke="black" d="M299.02,-432C299.02,-417.86 299.02,-401.79 299.02,-388.52"/>
<polygon fill="black" stroke="black" points="302.52,-388.13 299.02,-378.13 295.52,-388.13 302.52,-388.13"/>
</g>
<!-- text -->
<g id="node37" class="node">
<title>text</title>
<ellipse fill="none" stroke="black" cx="704.02" cy="-252" rx="36" ry="36"/>
<text text-anchor="middle" x="704.02" y="-247.8" font-family="Times,serif" font-size="14.00">text</text>
</g>
<!-- text&#45;&gt;assert -->
<g id="edge37" class="edge">
<title>text&#45;&gt;assert</title>
<path fill="none" stroke="black" d="M685.85,-220.91C678.89,-209.38 670.86,-196.07 663.47,-183.84"/>
<polygon fill="black" stroke="black" points="666.4,-181.92 658.24,-175.17 660.41,-185.54 666.4,-181.92"/>
</g>
<!-- ulid -->
<g id="node38" class="node">
<title>ulid</title>
<ellipse fill="none" stroke="black" cx="2275.02" cy="-576" rx="36" ry="36"/>
<text text-anchor="middle" x="2275.02" y="-571.8" font-family="Times,serif" font-size="14.00">ulid</text>
</g>
<!-- url -->
<g id="node39" class="node">
<title>url</title>
<ellipse fill="none" stroke="black" cx="176.02" cy="-360" rx="36" ry="36"/>
<text text-anchor="middle" x="176.02" y="-355.8" font-family="Times,serif" font-size="14.00">url</text>
</g>
<!-- url&#45;&gt;path -->
<g id="edge39" class="edge">
<title>url&#45;&gt;path</title>
<path fill="none" stroke="black" d="M202.86,-335.13C208.57,-330.94 214.76,-326.98 221.02,-324 285.28,-293.44 312.76,-318.56 377.02,-288 380.35,-286.42 383.65,-284.56 386.88,-282.53"/>
<polygon fill="black" stroke="black" points="388.9,-285.4 395.18,-276.87 384.95,-279.61 388.9,-285.4"/>
</g>
<!-- uuid -->
<g id="node40" class="node">
<title>uuid</title>
<ellipse fill="lightgreen" stroke="black" cx="1484.02" cy="-252" rx="36" ry="36"/>
<text text-anchor="middle" x="1484.02" y="-247.8" font-family="Times,serif" font-size="14.00">uuid</text>
</g>
<!-- uuid&#45;&gt;bytes -->
<g id="edge40" class="edge">
<title>uuid&#45;&gt;bytes</title>
<path fill="none" stroke="black" d="M1456.13,-228.9C1450.51,-224.57 1444.61,-220.09 1439.02,-216 1417.81,-200.46 1393.62,-183.74 1374.02,-170.43"/>
<polygon fill="black" stroke="black" points="1375.88,-167.46 1365.64,-164.76 1371.96,-173.26 1375.88,-167.46"/>
</g>
<!-- uuid&#45;&gt;crypto -->
<g id="edge41" class="edge">
<title>uuid&#45;&gt;crypto</title>
<path fill="none" stroke="black" d="M1484.02,-216C1484.02,-207.85 1484.02,-199.06 1484.02,-190.54"/>
<polygon fill="black" stroke="black" points="1487.52,-190.33 1484.02,-180.33 1480.52,-190.33 1487.52,-190.33"/>
</g>
<!-- webgpu -->
<g id="node41" class="node">
<title>webgpu</title>
<ellipse fill="none" stroke="black" cx="332.02" cy="-252" rx="36" ry="36"/>
<text text-anchor="middle" x="332.02" y="-247.8" font-family="Times,serif" font-size="14.00">webgpu</text>
</g>
<!-- webgpu&#45;&gt;assert -->
<g id="edge42" class="edge">
<title>webgpu&#45;&gt;assert</title>
<path fill="none" stroke="black" d="M358.95,-227.31C364.65,-223.11 370.82,-219.09 377.02,-216 448.6,-180.33 540.37,-160.8 594.43,-151.66"/>
<polygon fill="black" stroke="black" points="595.09,-155.09 604.39,-150.02 593.96,-148.19 595.09,-155.09"/>
</g>
</g>
</svg>
