<?xml version="1.0" encoding="UTF-8" standalone="no"?>
<!DOCTYPE svg PUBLIC "-//W3C//DTD SVG 1.1//EN"
 "http://www.w3.org/Graphics/SVG/1.1/DTD/svg11.dtd">
<!-- Generated by graphviz version 2.44.0 (20200518.1210)
 -->
<!-- Title: std_deps Pages: 1 -->
<svg width="2084pt" height="710pt"
 viewBox="0.00 0.00 2083.69 710.00" xmlns="http://www.w3.org/2000/svg" xmlns:xlink="http://www.w3.org/1999/xlink">
<g id="graph0" class="graph" transform="scale(1 1) rotate(0) translate(4 706)">
<title>std_deps</title>
<polygon fill="white" stroke="transparent" points="-4,4 -4,-706 2079.69,-706 2079.69,4 -4,4"/>
<!-- archive -->
<g id="node1" class="node">
<title>archive</title>
<polygon fill="pink" stroke="black" points="1074.38,-430.5 1016.99,-430.5 1016.99,-394.5 1074.38,-394.5 1074.38,-430.5"/>
<text text-anchor="middle" x="1045.69" y="-408.3" font-family="Times,serif" font-size="14.00">archive</text>
</g>
<!-- io -->
<g id="node2" class="node">
<title>io</title>
<polygon fill="pink" stroke="black" points="1107.69,-307.5 1053.69,-307.5 1053.69,-271.5 1107.69,-271.5 1107.69,-307.5"/>
<text text-anchor="middle" x="1080.69" y="-285.3" font-family="Times,serif" font-size="14.00">io</text>
</g>
<!-- archive&#45;&gt;io -->
<g id="edge1" class="edge">
<title>archive&#45;&gt;io</title>
<path fill="none" stroke="black" d="M1050.63,-394.42C1056.4,-374.45 1066.04,-341.12 1072.84,-317.61"/>
<polygon fill="black" stroke="black" points="1076.24,-318.46 1075.66,-307.88 1069.52,-316.52 1076.24,-318.46"/>
</g>
<!-- assert -->
<g id="node3" class="node">
<title>assert</title>
<ellipse fill="none" stroke="black" cx="930.69" cy="-166.5" rx="39.5" ry="39.5"/>
<ellipse fill="none" stroke="black" cx="930.69" cy="-166.5" rx="43.5" ry="43.5"/>
<text text-anchor="middle" x="930.69" y="-162.3" font-family="Times,serif" font-size="14.00">assert</text>
</g>
<!-- archive&#45;&gt;assert -->
<g id="edge2" class="edge">
<title>archive&#45;&gt;assert</title>
<path fill="none" stroke="black" d="M1043.8,-394.07C1039.82,-362.76 1028.65,-295.64 1001.69,-246 993.41,-230.76 981.58,-216.08 969.94,-203.62"/>
<polygon fill="black" stroke="black" points="972.22,-200.94 962.76,-196.17 967.18,-205.8 972.22,-200.94"/>
</g>
<!-- io&#45;&gt;assert -->
<g id="edge20" class="edge">
<title>io&#45;&gt;assert</title>
<path fill="none" stroke="black" d="M1065.38,-271.26C1057.94,-263.24 1048.67,-253.79 1039.69,-246 1019.48,-228.5 995.51,-210.93 975.21,-196.87"/>
<polygon fill="black" stroke="black" points="976.98,-193.84 966.75,-191.07 973.02,-199.61 976.98,-193.84"/>
</g>
<!-- bytes -->
<g id="node6" class="node">
<title>bytes</title>
<ellipse fill="none" stroke="black" cx="1217.69" cy="-166.5" rx="39.5" ry="39.5"/>
<ellipse fill="none" stroke="black" cx="1217.69" cy="-166.5" rx="43.5" ry="43.5"/>
<text text-anchor="middle" x="1217.69" y="-162.3" font-family="Times,serif" font-size="14.00">bytes</text>
</g>
<!-- io&#45;&gt;bytes -->
<g id="edge21" class="edge">
<title>io&#45;&gt;bytes</title>
<path fill="none" stroke="black" d="M1100.02,-271.42C1120.14,-253.65 1152.22,-225.32 1177.81,-202.72"/>
<polygon fill="black" stroke="black" points="1180.34,-205.15 1185.52,-195.91 1175.71,-199.91 1180.34,-205.15"/>
</g>
<!-- internal -->
<g id="node4" class="node">
<title>internal</title>
<ellipse fill="none" stroke="black" cx="600.69" cy="-43.5" rx="39.5" ry="39.5"/>
<ellipse fill="none" stroke="black" cx="600.69" cy="-43.5" rx="43.5" ry="43.5"/>
<text text-anchor="middle" x="600.69" y="-39.3" font-family="Times,serif" font-size="14.00">internal</text>
</g>
<!-- assert&#45;&gt;internal -->
<g id="edge3" class="edge">
<title>assert&#45;&gt;internal</title>
<path fill="none" stroke="black" d="M889.89,-150.54C829.53,-128.41 716.53,-86.98 651.08,-62.98"/>
<polygon fill="black" stroke="black" points="651.98,-59.58 641.39,-59.42 649.57,-66.15 651.98,-59.58"/>
</g>
<!-- async -->
<g id="node5" class="node">
<title>async</title>
<ellipse fill="none" stroke="black" cx="406.69" cy="-289.5" rx="39.5" ry="39.5"/>
<ellipse fill="none" stroke="black" cx="406.69" cy="-289.5" rx="43.5" ry="43.5"/>
<text text-anchor="middle" x="406.69" y="-285.3" font-family="Times,serif" font-size="14.00">async</text>
</g>
<!-- cli -->
<g id="node7" class="node">
<title>cli</title>
<polygon fill="pink" stroke="black" points="959.69,-430.5 905.69,-430.5 905.69,-394.5 959.69,-394.5 959.69,-430.5"/>
<text text-anchor="middle" x="932.69" y="-408.3" font-family="Times,serif" font-size="14.00">cli</text>
</g>
<!-- cli&#45;&gt;assert -->
<g id="edge4" class="edge">
<title>cli&#45;&gt;assert</title>
<path fill="none" stroke="black" d="M932.54,-394.34C932.25,-358.78 931.57,-275.74 931.12,-220.61"/>
<polygon fill="black" stroke="black" points="934.62,-220.29 931.04,-210.32 927.62,-220.35 934.62,-220.29"/>
</g>
<!-- collections -->
<g id="node8" class="node">
<title>collections</title>
<ellipse fill="none" stroke="black" cx="1299.69" cy="-412.5" rx="39.5" ry="39.5"/>
<ellipse fill="none" stroke="black" cx="1299.69" cy="-412.5" rx="43.5" ry="43.5"/>
<text text-anchor="middle" x="1299.69" y="-408.3" font-family="Times,serif" font-size="14.00">collections</text>
</g>
<!-- crypto -->
<g id="node9" class="node">
<title>crypto</title>
<ellipse fill="none" stroke="black" cx="1366.69" cy="-166.5" rx="39.5" ry="39.5"/>
<ellipse fill="none" stroke="black" cx="1366.69" cy="-166.5" rx="43.5" ry="43.5"/>
<text text-anchor="middle" x="1366.69" y="-162.3" font-family="Times,serif" font-size="14.00">crypto</text>
</g>
<!-- csv -->
<g id="node10" class="node">
<title>csv</title>
<ellipse fill="none" stroke="black" cx="1009.69" cy="-535.5" rx="39.5" ry="39.5"/>
<ellipse fill="none" stroke="black" cx="1009.69" cy="-535.5" rx="43.5" ry="43.5"/>
<text text-anchor="middle" x="1009.69" y="-531.3" font-family="Times,serif" font-size="14.00">csv</text>
</g>
<!-- csv&#45;&gt;assert -->
<g id="edge5" class="edge">
<title>csv&#45;&gt;assert</title>
<path fill="none" stroke="black" d="M1000.7,-492.76C986.18,-425.29 957.58,-292.46 941.8,-219.14"/>
<polygon fill="black" stroke="black" points="945.19,-218.24 939.66,-209.2 938.34,-219.72 945.19,-218.24"/>
</g>
<!-- streams -->
<g id="node11" class="node">
<title>streams</title>
<ellipse fill="none" stroke="black" cx="1135.69" cy="-412.5" rx="39.5" ry="39.5"/>
<ellipse fill="none" stroke="black" cx="1135.69" cy="-412.5" rx="43.5" ry="43.5"/>
<text text-anchor="middle" x="1135.69" y="-408.3" font-family="Times,serif" font-size="14.00">streams</text>
</g>
<!-- csv&#45;&gt;streams -->
<g id="edge6" class="edge">
<title>csv&#45;&gt;streams</title>
<path fill="none" stroke="black" d="M1040.83,-504.59C1057.79,-488.3 1078.94,-468 1096.95,-450.7"/>
<polygon fill="black" stroke="black" points="1099.67,-452.94 1104.46,-443.49 1094.82,-447.89 1099.67,-452.94"/>
</g>
<!-- streams&#45;&gt;io -->
<g id="edge32" class="edge">
<title>streams&#45;&gt;io</title>
<path fill="none" stroke="black" d="M1117.98,-372.55C1109.76,-354.47 1100.2,-333.44 1092.82,-317.19"/>
<polygon fill="black" stroke="black" points="1095.86,-315.42 1088.53,-307.77 1089.49,-318.32 1095.86,-315.42"/>
</g>
<!-- streams&#45;&gt;assert -->
<g id="edge30" class="edge">
<title>streams&#45;&gt;assert</title>
<path fill="none" stroke="black" d="M1141.87,-369.17C1144.8,-332.93 1143.04,-281.19 1116.69,-246 1085.17,-203.93 1026.74,-184.21 983.75,-175.09"/>
<polygon fill="black" stroke="black" points="984.22,-171.62 973.73,-173.1 982.86,-178.48 984.22,-171.62"/>
</g>
<!-- streams&#45;&gt;bytes -->
<g id="edge31" class="edge">
<title>streams&#45;&gt;bytes</title>
<path fill="none" stroke="black" d="M1149.32,-370.93C1163.45,-328.89 1185.55,-263.11 1200.78,-217.79"/>
<polygon fill="black" stroke="black" points="1204.15,-218.76 1204.02,-208.16 1197.52,-216.53 1204.15,-218.76"/>
</g>
<!-- data_\nstructures -->
<g id="node12" class="node">
<title>data_\nstructures</title>
<polygon fill="pink" stroke="black" points="1454.11,-679.1 1383.26,-679.1 1383.26,-637.9 1454.11,-637.9 1454.11,-679.1"/>
<text text-anchor="middle" x="1418.69" y="-662.7" font-family="Times,serif" font-size="14.00">data_</text>
<text text-anchor="middle" x="1418.69" y="-645.9" font-family="Times,serif" font-size="14.00">structures</text>
</g>
<!-- datetime -->
<g id="node13" class="node">
<title>datetime</title>
<polygon fill="pink" stroke="black" points="1535.89,-676.5 1471.48,-676.5 1471.48,-640.5 1535.89,-640.5 1535.89,-676.5"/>
<text text-anchor="middle" x="1503.69" y="-654.3" font-family="Times,serif" font-size="14.00">datetime</text>
</g>
<!-- dotenv -->
<g id="node14" class="node">
<title>dotenv</title>
<polygon fill="pink" stroke="black" points="1607.79,-676.5 1553.58,-676.5 1553.58,-640.5 1607.79,-640.5 1607.79,-676.5"/>
<text text-anchor="middle" x="1580.69" y="-654.3" font-family="Times,serif" font-size="14.00">dotenv</text>
</g>
<!-- encoding -->
<g id="node15" class="node">
<title>encoding</title>
<ellipse fill="none" stroke="black" cx="771.69" cy="-412.5" rx="39.5" ry="39.5"/>
<ellipse fill="none" stroke="black" cx="771.69" cy="-412.5" rx="43.5" ry="43.5"/>
<text text-anchor="middle" x="771.69" y="-408.3" font-family="Times,serif" font-size="14.00">encoding</text>
</g>
<!-- expect -->
<g id="node16" class="node">
<title>expect</title>
<polygon fill="pink" stroke="black" points="627.69,-307.5 573.69,-307.5 573.69,-271.5 627.69,-271.5 627.69,-307.5"/>
<text text-anchor="middle" x="600.69" y="-285.3" font-family="Times,serif" font-size="14.00">expect</text>
</g>
<!-- expect&#45;&gt;assert -->
<g id="edge7" class="edge">
<title>expect&#45;&gt;assert</title>
<path fill="none" stroke="black" d="M611.45,-271.37C617.79,-262.59 626.55,-252.41 636.69,-246 711.84,-198.41 815.32,-179.47 877.35,-172.07"/>
<polygon fill="black" stroke="black" points="877.77,-175.54 887.31,-170.94 876.98,-168.59 877.77,-175.54"/>
</g>
<!-- expect&#45;&gt;internal -->
<g id="edge8" class="edge">
<title>expect&#45;&gt;internal</title>
<path fill="none" stroke="black" d="M600.69,-271.34C600.69,-235.78 600.69,-152.74 600.69,-97.61"/>
<polygon fill="black" stroke="black" points="604.19,-97.32 600.69,-87.32 597.19,-97.32 604.19,-97.32"/>
</g>
<!-- fmt -->
<g id="node17" class="node">
<title>fmt</title>
<ellipse fill="none" stroke="black" cx="839.69" cy="-289.5" rx="39.5" ry="39.5"/>
<ellipse fill="none" stroke="black" cx="839.69" cy="-289.5" rx="43.5" ry="43.5"/>
<text text-anchor="middle" x="839.69" y="-285.3" font-family="Times,serif" font-size="14.00">fmt</text>
</g>
<!-- front_\nmatter -->
<g id="node18" class="node">
<title>front_\nmatter</title>
<ellipse fill="none" stroke="black" cx="1321.69" cy="-658.5" rx="39.5" ry="39.5"/>
<ellipse fill="none" stroke="black" cx="1321.69" cy="-658.5" rx="43.5" ry="43.5"/>
<text text-anchor="middle" x="1321.69" y="-662.7" font-family="Times,serif" font-size="14.00">front_</text>
<text text-anchor="middle" x="1321.69" y="-645.9" font-family="Times,serif" font-size="14.00">matter</text>
</g>
<!-- toml -->
<g id="node19" class="node">
<title>toml</title>
<ellipse fill="none" stroke="black" cx="1299.69" cy="-535.5" rx="39.5" ry="39.5"/>
<ellipse fill="none" stroke="black" cx="1299.69" cy="-535.5" rx="43.5" ry="43.5"/>
<text text-anchor="middle" x="1299.69" y="-531.3" font-family="Times,serif" font-size="14.00">toml</text>
</g>
<!-- front_\nmatter&#45;&gt;toml -->
<g id="edge9" class="edge">
<title>front_\nmatter&#45;&gt;toml</title>
<path fill="none" stroke="black" d="M1314.05,-615.52C1312.47,-606.79 1310.77,-597.49 1309.13,-588.46"/>
<polygon fill="black" stroke="black" points="1312.54,-587.62 1307.3,-578.41 1305.65,-588.87 1312.54,-587.62"/>
</g>
<!-- yaml -->
<g id="node20" class="node">
<title>yaml</title>
<ellipse fill="none" stroke="black" cx="1404.69" cy="-535.5" rx="39.5" ry="39.5"/>
<ellipse fill="none" stroke="black" cx="1404.69" cy="-535.5" rx="43.5" ry="43.5"/>
<text text-anchor="middle" x="1404.69" y="-531.3" font-family="Times,serif" font-size="14.00">yaml</text>
</g>
<!-- front_\nmatter&#45;&gt;yaml -->
<g id="edge10" class="edge">
<title>front_\nmatter&#45;&gt;yaml</title>
<path fill="none" stroke="black" d="M1345.92,-622.18C1354.87,-609.12 1365.13,-594.16 1374.55,-580.44"/>
<polygon fill="black" stroke="black" points="1377.51,-582.3 1380.28,-572.08 1371.74,-578.34 1377.51,-582.3"/>
</g>
<!-- toml&#45;&gt;collections -->
<g id="edge41" class="edge">
<title>toml&#45;&gt;collections</title>
<path fill="none" stroke="black" d="M1299.69,-491.84C1299.69,-483.62 1299.69,-474.91 1299.69,-466.41"/>
<polygon fill="black" stroke="black" points="1303.19,-466.18 1299.69,-456.18 1296.19,-466.18 1303.19,-466.18"/>
</g>
<!-- fs -->
<g id="node21" class="node">
<title>fs</title>
<ellipse fill="none" stroke="black" cx="511.69" cy="-289.5" rx="39.5" ry="39.5"/>
<ellipse fill="none" stroke="black" cx="511.69" cy="-289.5" rx="43.5" ry="43.5"/>
<text text-anchor="middle" x="511.69" y="-285.3" font-family="Times,serif" font-size="14.00">fs</text>
</g>
<!-- path -->
<g id="node22" class="node">
<title>path</title>
<ellipse fill="none" stroke="black" cx="58.69" cy="-166.5" rx="39.5" ry="39.5"/>
<ellipse fill="none" stroke="black" cx="58.69" cy="-166.5" rx="43.5" ry="43.5"/>
<text text-anchor="middle" x="58.69" y="-162.3" font-family="Times,serif" font-size="14.00">path</text>
</g>
<!-- fs&#45;&gt;path -->
<g id="edge11" class="edge">
<title>fs&#45;&gt;path</title>
<path fill="none" stroke="black" d="M480.26,-259.3C473.53,-254.23 466.17,-249.48 458.69,-246 342.9,-192.22 191.66,-175.25 112.44,-169.92"/>
<polygon fill="black" stroke="black" points="112.42,-166.42 102.21,-169.27 111.97,-173.4 112.42,-166.42"/>
</g>
<!-- html -->
<g id="node23" class="node">
<title>html</title>
<polygon fill="pink" stroke="black" points="1679.69,-676.5 1625.69,-676.5 1625.69,-640.5 1679.69,-640.5 1679.69,-676.5"/>
<text text-anchor="middle" x="1652.69" y="-654.3" font-family="Times,serif" font-size="14.00">html</text>
</g>
<!-- http -->
<g id="node24" class="node">
<title>http</title>
<polygon fill="pink" stroke="black" points="699.69,-553.5 645.69,-553.5 645.69,-517.5 699.69,-517.5 699.69,-553.5"/>
<text text-anchor="middle" x="672.69" y="-531.3" font-family="Times,serif" font-size="14.00">http</text>
</g>
<!-- http&#45;&gt;async -->
<g id="edge13" class="edge">
<title>http&#45;&gt;async</title>
<path fill="none" stroke="black" d="M656.47,-517.46C642.56,-502.21 622.61,-478.82 608.69,-456 586.71,-419.98 601.99,-397.29 570.69,-369 531.9,-333.94 504.62,-357.98 458.69,-333 454.66,-330.81 450.64,-328.29 446.73,-325.59"/>
<polygon fill="black" stroke="black" points="448.5,-322.55 438.36,-319.47 444.36,-328.2 448.5,-322.55"/>
</g>
<!-- http&#45;&gt;cli -->
<g id="edge17" class="edge">
<title>http&#45;&gt;cli</title>
<path fill="none" stroke="black" d="M699.96,-529.78C744.38,-521.08 833.71,-499.32 896.69,-456 903.52,-451.3 909.82,-444.98 915.17,-438.65"/>
<polygon fill="black" stroke="black" points="917.96,-440.76 921.41,-430.75 912.46,-436.42 917.96,-440.76"/>
</g>
<!-- http&#45;&gt;streams -->
<g id="edge16" class="edge">
<title>http&#45;&gt;streams</title>
<path fill="none" stroke="black" d="M699.88,-531.08C780.07,-520.73 1014.25,-488.43 1083.69,-456 1087.84,-454.06 1091.94,-451.71 1095.91,-449.13"/>
<polygon fill="black" stroke="black" points="1098.21,-451.79 1104.37,-443.17 1094.18,-446.07 1098.21,-451.79"/>
</g>
<!-- http&#45;&gt;encoding -->
<g id="edge12" class="edge">
<title>http&#45;&gt;encoding</title>
<path fill="none" stroke="black" d="M686.66,-517.42C699.89,-501.25 720.29,-476.32 737.78,-454.94"/>
<polygon fill="black" stroke="black" points="740.7,-456.9 744.33,-446.94 735.28,-452.46 740.7,-456.9"/>
</g>
<!-- http&#45;&gt;fmt -->
<g id="edge18" class="edge">
<title>http&#45;&gt;fmt</title>
<path fill="none" stroke="black" d="M673.13,-517.26C674.82,-484.77 682.7,-413.73 718.69,-369 740.12,-342.36 758.11,-351.78 786.69,-333 790.66,-330.38 794.71,-327.54 798.69,-324.6"/>
<polygon fill="black" stroke="black" points="800.91,-327.31 806.76,-318.47 796.68,-321.73 800.91,-327.31"/>
</g>
<!-- http&#45;&gt;path -->
<g id="edge14" class="edge">
<title>http&#45;&gt;path</title>
<path fill="none" stroke="black" d="M645.4,-530.82C529.91,-514.59 83.9,-445.25 11.69,-333 -12.3,-295.72 7.33,-246.03 28.05,-210.86"/>
<polygon fill="black" stroke="black" points="31.09,-212.61 33.32,-202.25 25.12,-208.95 31.09,-212.61"/>
</g>
<!-- media_types -->
<g id="node25" class="node">
<title>media_types</title>
<ellipse fill="none" stroke="black" cx="501.69" cy="-412.5" rx="59.69" ry="18"/>
<text text-anchor="middle" x="501.69" y="-408.3" font-family="Times,serif" font-size="14.00">media_types</text>
</g>
<!-- http&#45;&gt;media_types -->
<g id="edge15" class="edge">
<title>http&#45;&gt;media_types</title>
<path fill="none" stroke="black" d="M648.55,-517.42C618.12,-495.89 565.79,-458.86 532.51,-435.31"/>
<polygon fill="black" stroke="black" points="534.25,-432.26 524.07,-429.34 530.21,-437.97 534.25,-432.26"/>
</g>
<!-- net -->
<g id="node26" class="node">
<title>net</title>
<polygon fill="pink" stroke="black" points="671.69,-430.5 617.69,-430.5 617.69,-394.5 671.69,-394.5 671.69,-430.5"/>
<text text-anchor="middle" x="644.69" y="-408.3" font-family="Times,serif" font-size="14.00">net</text>
</g>
<!-- http&#45;&gt;net -->
<g id="edge19" class="edge">
<title>http&#45;&gt;net</title>
<path fill="none" stroke="black" d="M668.73,-517.42C664.13,-497.54 656.47,-464.42 651.03,-440.92"/>
<polygon fill="black" stroke="black" points="654.37,-439.84 648.71,-430.88 647.55,-441.42 654.37,-439.84"/>
</g>
<!-- ini -->
<g id="node27" class="node">
<title>ini</title>
<polygon fill="pink" stroke="black" points="1751.69,-676.5 1697.69,-676.5 1697.69,-640.5 1751.69,-640.5 1751.69,-676.5"/>
<text text-anchor="middle" x="1724.69" y="-654.3" font-family="Times,serif" font-size="14.00">ini</text>
</g>
<!-- json -->
<g id="node28" class="node">
<title>json</title>
<ellipse fill="none" stroke="black" cx="1137.69" cy="-535.5" rx="39.5" ry="39.5"/>
<ellipse fill="none" stroke="black" cx="1137.69" cy="-535.5" rx="43.5" ry="43.5"/>
<text text-anchor="middle" x="1137.69" y="-531.3" font-family="Times,serif" font-size="14.00">json</text>
</g>
<!-- json&#45;&gt;streams -->
<g id="edge22" class="edge">
<title>json&#45;&gt;streams</title>
<path fill="none" stroke="black" d="M1136.98,-491.84C1136.84,-483.62 1136.7,-474.91 1136.56,-466.41"/>
<polygon fill="black" stroke="black" points="1140.06,-466.12 1136.39,-456.18 1133.06,-466.24 1140.06,-466.12"/>
</g>
<!-- jsonc -->
<g id="node29" class="node">
<title>jsonc</title>
<ellipse fill="none" stroke="black" cx="1188.69" cy="-658.5" rx="39.5" ry="39.5"/>
<ellipse fill="none" stroke="black" cx="1188.69" cy="-658.5" rx="43.5" ry="43.5"/>
<text text-anchor="middle" x="1188.69" y="-654.3" font-family="Times,serif" font-size="14.00">jsonc</text>
</g>
<!-- jsonc&#45;&gt;assert -->
<g id="edge23" class="edge">
<title>jsonc&#45;&gt;assert</title>
<path fill="none" stroke="black" d="M1198.9,-616.14C1216.66,-533.17 1242.56,-345.82 1143.69,-246 1100.79,-202.7 1031.99,-183.06 984.24,-174.31"/>
<polygon fill="black" stroke="black" points="984.53,-170.81 974.08,-172.55 983.34,-177.7 984.53,-170.81"/>
</g>
<!-- jsonc&#45;&gt;json -->
<g id="edge24" class="edge">
<title>jsonc&#45;&gt;json</title>
<path fill="none" stroke="black" d="M1172.13,-618.21C1167.72,-607.75 1162.9,-596.32 1158.3,-585.42"/>
<polygon fill="black" stroke="black" points="1161.44,-583.86 1154.33,-576 1154.99,-586.58 1161.44,-583.86"/>
</g>
<!-- log -->
<g id="node30" class="node">
<title>log</title>
<polygon fill="pink" stroke="black" points="887.69,-430.5 833.69,-430.5 833.69,-394.5 887.69,-394.5 887.69,-430.5"/>
<text text-anchor="middle" x="860.69" y="-408.3" font-family="Times,serif" font-size="14.00">log</text>
</g>
<!-- log&#45;&gt;io -->
<g id="edge26" class="edge">
<title>log&#45;&gt;io</title>
<path fill="none" stroke="black" d="M872.46,-394.09C878.85,-385.66 887.35,-375.89 896.69,-369 942.32,-335.33 1004.6,-312.68 1043.72,-300.68"/>
<polygon fill="black" stroke="black" points="1044.81,-304.01 1053.39,-297.79 1042.8,-297.3 1044.81,-304.01"/>
</g>
<!-- log&#45;&gt;assert -->
<g id="edge28" class="edge">
<title>log&#45;&gt;assert</title>
<path fill="none" stroke="black" d="M868.31,-394.3C875.09,-378.57 884.94,-354.53 891.69,-333 903.45,-295.47 913.53,-252.19 920.49,-219.3"/>
<polygon fill="black" stroke="black" points="923.93,-219.95 922.55,-209.44 917.08,-218.51 923.93,-219.95"/>
</g>
<!-- log&#45;&gt;fmt -->
<g id="edge25" class="edge">
<title>log&#45;&gt;fmt</title>
<path fill="none" stroke="black" d="M857.72,-394.42C855.36,-380.84 851.93,-361.08 848.7,-342.43"/>
<polygon fill="black" stroke="black" points="852.14,-341.78 846.98,-332.53 845.24,-342.98 852.14,-341.78"/>
</g>
<!-- log&#45;&gt;fs -->
<g id="edge27" class="edge">
<title>log&#45;&gt;fs</title>
<path fill="none" stroke="black" d="M850.14,-394.29C843.66,-385.26 834.52,-374.87 823.69,-369 721.49,-313.66 671.41,-379.01 564.69,-333 560.18,-331.06 555.75,-328.63 551.47,-325.92"/>
<polygon fill="black" stroke="black" points="553.17,-322.84 542.96,-320.03 549.19,-328.6 553.17,-322.84"/>
</g>
<!-- media_\ntypes -->
<g id="node31" class="node">
<title>media_\ntypes</title>
<ellipse fill="none" stroke="black" cx="1813.69" cy="-658.5" rx="39.5" ry="39.5"/>
<ellipse fill="none" stroke="black" cx="1813.69" cy="-658.5" rx="43.5" ry="43.5"/>
<text text-anchor="middle" x="1813.69" y="-662.7" font-family="Times,serif" font-size="14.00">media_</text>
<text text-anchor="middle" x="1813.69" y="-645.9" font-family="Times,serif" font-size="14.00">types</text>
</g>
<!-- msgpack -->
<g id="node32" class="node">
<title>msgpack</title>
<polygon fill="pink" stroke="black" points="1305.45,-307.5 1239.92,-307.5 1239.92,-271.5 1305.45,-271.5 1305.45,-307.5"/>
<text text-anchor="middle" x="1272.69" y="-285.3" font-family="Times,serif" font-size="14.00">msgpack</text>
</g>
<!-- msgpack&#45;&gt;bytes -->
<g id="edge29" class="edge">
<title>msgpack&#45;&gt;bytes</title>
<path fill="none" stroke="black" d="M1264.92,-271.42C1258.33,-256.91 1248.53,-235.36 1239.57,-215.64"/>
<polygon fill="black" stroke="black" points="1242.71,-214.1 1235.39,-206.44 1236.34,-216.99 1242.71,-214.1"/>
</g>
<!-- regexp -->
<g id="node33" class="node">
<title>regexp</title>
<polygon fill="pink" stroke="black" points="1929.78,-676.5 1875.6,-676.5 1875.6,-640.5 1929.78,-640.5 1929.78,-676.5"/>
<text text-anchor="middle" x="1902.69" y="-654.3" font-family="Times,serif" font-size="14.00">regexp</text>
</g>
<!-- semver -->
<g id="node34" class="node">
<title>semver</title>
<polygon fill="pink" stroke="black" points="2004.11,-676.5 1947.26,-676.5 1947.26,-640.5 2004.11,-640.5 2004.11,-676.5"/>
<text text-anchor="middle" x="1975.69" y="-654.3" font-family="Times,serif" font-size="14.00">semver</text>
</g>
<!-- testing -->
<g id="node35" class="node">
<title>testing</title>
<ellipse fill="none" stroke="black" cx="334.69" cy="-412.5" rx="39.5" ry="39.5"/>
<ellipse fill="none" stroke="black" cx="334.69" cy="-412.5" rx="43.5" ry="43.5"/>
<text text-anchor="middle" x="334.69" y="-408.3" font-family="Times,serif" font-size="14.00">testing</text>
</g>
<!-- testing&#45;&gt;assert -->
<g id="edge33" class="edge">
<title>testing&#45;&gt;assert</title>
<path fill="none" stroke="black" d="M326.58,-369.5C321.97,-331.94 322.32,-278.03 353.69,-246 425.65,-172.51 747.78,-166.25 876.9,-166.78"/>
<polygon fill="black" stroke="black" points="876.94,-170.28 886.95,-166.83 876.97,-163.28 876.94,-170.28"/>
</g>
<!-- testing&#45;&gt;internal -->
<g id="edge37" class="edge">
<title>testing&#45;&gt;internal</title>
<path fill="none" stroke="black" d="M291.53,-405.53C249.76,-397.21 188.64,-377.72 159.69,-333 138.67,-300.54 138.78,-278.53 159.69,-246 246.72,-110.54 449.9,-65.01 547.07,-50.65"/>
<polygon fill="black" stroke="black" points="547.85,-54.08 557.26,-49.2 546.86,-47.14 547.85,-54.08"/>
</g>
<!-- testing&#45;&gt;async -->
<g id="edge39" class="edge">
<title>testing&#45;&gt;async</title>
<path fill="none" stroke="black" d="M356.68,-374.54C363.94,-362.34 372.09,-348.63 379.68,-335.88"/>
<polygon fill="black" stroke="black" points="382.72,-337.62 384.83,-327.24 376.7,-334.04 382.72,-337.62"/>
</g>
<!-- testing&#45;&gt;fmt -->
<g id="edge36" class="edge">
<title>testing&#45;&gt;fmt</title>
<path fill="none" stroke="black" d="M373.28,-391.48C390.94,-383.19 412.41,-374.29 432.69,-369 585.71,-329.07 640.33,-392.92 786.69,-333 791.22,-331.14 795.68,-328.77 799.97,-326.09"/>
<polygon fill="black" stroke="black" points="802.23,-328.79 808.51,-320.25 798.28,-323.01 802.23,-328.79"/>
</g>
<!-- testing&#45;&gt;fs -->
<g id="edge35" class="edge">
<title>testing&#45;&gt;fs</title>
<path fill="none" stroke="black" d="M371.74,-389.53C396.76,-374.34 430.28,-353.29 458.69,-333 462.56,-330.23 466.53,-327.28 470.47,-324.27"/>
<polygon fill="black" stroke="black" points="472.73,-326.95 478.48,-318.06 468.43,-321.43 472.73,-326.95"/>
</g>
<!-- testing&#45;&gt;path -->
<g id="edge34" class="edge">
<title>testing&#45;&gt;path</title>
<path fill="none" stroke="black" d="M291.42,-405.54C245.12,-397.04 172.23,-377.24 126.69,-333 109.58,-316.38 88.53,-260.17 74.42,-217.83"/>
<polygon fill="black" stroke="black" points="77.71,-216.61 71.26,-208.21 71.06,-218.8 77.71,-216.61"/>
</g>
<!-- data_structures -->
<g id="node36" class="node">
<title>data_structures</title>
<ellipse fill="none" stroke="black" cx="237.69" cy="-289.5" rx="69.48" ry="18"/>
<text text-anchor="middle" x="237.69" y="-285.3" font-family="Times,serif" font-size="14.00">data_structures</text>
</g>
<!-- testing&#45;&gt;data_structures -->
<g id="edge38" class="edge">
<title>testing&#45;&gt;data_structures</title>
<path fill="none" stroke="black" d="M307.92,-378.12C291.97,-358.22 272.07,-333.39 257.52,-315.25"/>
<polygon fill="black" stroke="black" points="260.24,-313.04 251.25,-307.42 254.78,-317.42 260.24,-313.04"/>
</g>
<!-- text -->
<g id="node37" class="node">
<title>text</title>
<polygon fill="pink" stroke="black" points="699.69,-307.5 645.69,-307.5 645.69,-271.5 699.69,-271.5 699.69,-307.5"/>
<text text-anchor="middle" x="672.69" y="-285.3" font-family="Times,serif" font-size="14.00">text</text>
</g>
<!-- text&#45;&gt;assert -->
<g id="edge40" class="edge">
<title>text&#45;&gt;assert</title>
<path fill="none" stroke="black" d="M683.97,-271.26C690.34,-262.67 698.97,-252.7 708.69,-246 760.68,-210.13 830.78,-188.96 878.19,-177.82"/>
<polygon fill="black" stroke="black" points="878.98,-181.23 887.95,-175.59 877.42,-174.4 878.98,-181.23"/>
</g>
<!-- ulid -->
<g id="node38" class="node">
<title>ulid</title>
<polygon fill="pink" stroke="black" points="2075.69,-676.5 2021.69,-676.5 2021.69,-640.5 2075.69,-640.5 2075.69,-676.5"/>
<text text-anchor="middle" x="2048.69" y="-654.3" font-family="Times,serif" font-size="14.00">ulid</text>
</g>
<!-- url -->
<g id="node39" class="node">
<title>url</title>
<polygon fill="pink" stroke="black" points="74.69,-307.5 20.69,-307.5 20.69,-271.5 74.69,-271.5 74.69,-307.5"/>
<text text-anchor="middle" x="47.69" y="-285.3" font-family="Times,serif" font-size="14.00">url</text>
</g>
<!-- url&#45;&gt;path -->
<g id="edge42" class="edge">
<title>url&#45;&gt;path</title>
<path fill="none" stroke="black" d="M49.24,-271.42C50.46,-258.01 52.22,-238.58 53.9,-220.14"/>
<polygon fill="black" stroke="black" points="57.4,-220.32 54.82,-210.05 50.43,-219.69 57.4,-220.32"/>
</g>
<!-- uuid -->
<g id="node40" class="node">
<title>uuid</title>
<ellipse fill="none" stroke="black" cx="1366.69" cy="-289.5" rx="39.5" ry="39.5"/>
<ellipse fill="none" stroke="black" cx="1366.69" cy="-289.5" rx="43.5" ry="43.5"/>
<text text-anchor="middle" x="1366.69" y="-285.3" font-family="Times,serif" font-size="14.00">uuid</text>
</g>
<!-- uuid&#45;&gt;bytes -->
<g id="edge43" class="edge">
<title>uuid&#45;&gt;bytes</title>
<path fill="none" stroke="black" d="M1333.42,-261.27C1327.2,-256.19 1320.75,-250.93 1314.69,-246 1296.63,-231.32 1276.65,-215.13 1259.54,-201.3"/>
<polygon fill="black" stroke="black" points="1261.36,-198.27 1251.39,-194.71 1256.96,-203.72 1261.36,-198.27"/>
</g>
<!-- uuid&#45;&gt;crypto -->
<g id="edge44" class="edge">
<title>uuid&#45;&gt;crypto</title>
<path fill="none" stroke="black" d="M1366.69,-245.84C1366.69,-237.62 1366.69,-228.91 1366.69,-220.41"/>
<polygon fill="black" stroke="black" points="1370.19,-220.18 1366.69,-210.18 1363.19,-220.18 1370.19,-220.18"/>
</g>
<!-- webgpu -->
<g id="node41" class="node">
<title>webgpu</title>
<polygon fill="pink" stroke="black" points="778.01,-307.5 717.36,-307.5 717.36,-271.5 778.01,-271.5 778.01,-307.5"/>
<text text-anchor="middle" x="747.69" y="-285.3" font-family="Times,serif" font-size="14.00">webgpu</text>
</g>
<!-- webgpu&#45;&gt;assert -->
<g id="edge45" class="edge">
<title>webgpu&#45;&gt;assert</title>
<path fill="none" stroke="black" d="M761.35,-271.11C768.36,-262.88 777.38,-253.28 786.69,-246 815.93,-223.13 852.74,-203.19 881.82,-189.13"/>
<polygon fill="black" stroke="black" points="883.45,-192.23 890.97,-184.78 880.44,-185.91 883.45,-192.23"/>
</g>
</g>
</svg>
