<?xml version="1.0" encoding="UTF-8" standalone="no"?>
<!DOCTYPE svg PUBLIC "-//W3C//DTD SVG 1.1//EN"
 "http://www.w3.org/Graphics/SVG/1.1/DTD/svg11.dtd">
<!-- Generated by graphviz version 2.44.0 (20200518.1210)
 -->
<!-- Title: std_deps Pages: 1 -->
<svg width="2481pt" height="620pt"
 viewBox="0.00 0.00 2480.90 620.00" xmlns="http://www.w3.org/2000/svg" xmlns:xlink="http://www.w3.org/1999/xlink">
<g id="graph0" class="graph" transform="scale(1 1) rotate(0) translate(4 616)">
<title>std_deps</title>
<polygon fill="white" stroke="transparent" points="-4,4 -4,-616 2476.9,-616 2476.9,4 -4,4"/>
<!-- archive -->
<g id="node1" class="node">
<title>archive</title>
<ellipse fill="none" stroke="black" cx="1131.9" cy="-360" rx="36" ry="36"/>
<text text-anchor="middle" x="1131.9" y="-355.8" font-family="Times,serif" font-size="14.00">archive</text>
</g>
<!-- io -->
<g id="node2" class="node">
<title>io</title>
<ellipse fill="none" stroke="black" cx="1119.9" cy="-252" rx="36" ry="36"/>
<text text-anchor="middle" x="1119.9" y="-247.8" font-family="Times,serif" font-size="14.00">io</text>
</g>
<!-- archive&#45;&gt;io -->
<g id="edge1" class="edge">
<title>archive&#45;&gt;io</title>
<path fill="none" stroke="black" d="M1127.94,-324C1127,-315.68 1125.98,-306.68 1125,-297.98"/>
<polygon fill="black" stroke="black" points="1128.46,-297.51 1123.86,-287.97 1121.51,-298.3 1128.46,-297.51"/>
</g>
<!-- assert -->
<g id="node3" class="node">
<title>assert</title>
<ellipse fill="lightgreen" stroke="black" cx="119.9" cy="-144" rx="36" ry="36"/>
<text text-anchor="middle" x="119.9" y="-139.8" font-family="Times,serif" font-size="14.00">assert</text>
</g>
<!-- io&#45;&gt;assert -->
<g id="edge17" class="edge">
<title>io&#45;&gt;assert</title>
<path fill="none" stroke="black" d="M1084.02,-247.2C931.45,-231.02 336.72,-167.98 165.97,-149.88"/>
<polygon fill="black" stroke="black" points="166.12,-146.38 155.81,-148.81 165.39,-153.34 166.12,-146.38"/>
</g>
<!-- bytes -->
<g id="node6" class="node">
<title>bytes</title>
<ellipse fill="lightgreen" stroke="black" cx="1266.9" cy="-144" rx="36" ry="36"/>
<text text-anchor="middle" x="1266.9" y="-139.8" font-family="Times,serif" font-size="14.00">bytes</text>
</g>
<!-- io&#45;&gt;bytes -->
<g id="edge18" class="edge">
<title>io&#45;&gt;bytes</title>
<path fill="none" stroke="black" d="M1148.95,-230.06C1172.17,-213.31 1204.89,-189.71 1229.98,-171.62"/>
<polygon fill="black" stroke="black" points="1232.11,-174.41 1238.17,-165.72 1228.01,-168.73 1232.11,-174.41"/>
</g>
<!-- internal -->
<g id="node4" class="node">
<title>internal</title>
<ellipse fill="lightgreen" stroke="black" cx="55.9" cy="-36" rx="36" ry="36"/>
<text text-anchor="middle" x="55.9" y="-31.8" font-family="Times,serif" font-size="14.00">internal</text>
</g>
<!-- assert&#45;&gt;internal -->
<g id="edge2" class="edge">
<title>assert&#45;&gt;internal</title>
<path fill="none" stroke="black" d="M101.73,-112.91C94.78,-101.38 86.74,-88.07 79.35,-75.84"/>
<polygon fill="black" stroke="black" points="82.28,-73.92 74.12,-67.17 76.29,-77.54 82.28,-73.92"/>
</g>
<!-- async -->
<g id="node5" class="node">
<title>async</title>
<ellipse fill="none" stroke="black" cx="557.9" cy="-360" rx="36" ry="36"/>
<text text-anchor="middle" x="557.9" y="-355.8" font-family="Times,serif" font-size="14.00">async</text>
</g>
<!-- cli -->
<g id="node7" class="node">
<title>cli</title>
<ellipse fill="none" stroke="black" cx="1221.9" cy="-360" rx="36" ry="36"/>
<text text-anchor="middle" x="1221.9" y="-355.8" font-family="Times,serif" font-size="14.00">cli</text>
</g>
<!-- collections -->
<g id="node8" class="node">
<title>collections</title>
<ellipse fill="lightgreen" stroke="black" cx="1401.9" cy="-360" rx="36" ry="36"/>
<text text-anchor="middle" x="1401.9" y="-355.8" font-family="Times,serif" font-size="14.00">collections</text>
</g>
<!-- crypto -->
<g id="node9" class="node">
<title>crypto</title>
<ellipse fill="lightgreen" stroke="black" cx="1375.9" cy="-144" rx="36" ry="36"/>
<text text-anchor="middle" x="1375.9" y="-139.8" font-family="Times,serif" font-size="14.00">crypto</text>
</g>
<!-- csv -->
<g id="node10" class="node">
<title>csv</title>
<ellipse fill="none" stroke="black" cx="1311.9" cy="-468" rx="36" ry="36"/>
<text text-anchor="middle" x="1311.9" y="-463.8" font-family="Times,serif" font-size="14.00">csv</text>
</g>
<!-- streams -->
<g id="node11" class="node">
<title>streams</title>
<ellipse fill="none" stroke="black" cx="1311.9" cy="-360" rx="36" ry="36"/>
<text text-anchor="middle" x="1311.9" y="-355.8" font-family="Times,serif" font-size="14.00">streams</text>
</g>
<!-- csv&#45;&gt;streams -->
<g id="edge3" class="edge">
<title>csv&#45;&gt;streams</title>
<path fill="none" stroke="black" d="M1311.9,-432C1311.9,-423.85 1311.9,-415.06 1311.9,-406.54"/>
<polygon fill="black" stroke="black" points="1315.4,-406.33 1311.9,-396.33 1308.4,-406.33 1315.4,-406.33"/>
</g>
<!-- streams&#45;&gt;io -->
<g id="edge27" class="edge">
<title>streams&#45;&gt;io</title>
<path fill="none" stroke="black" d="M1284.74,-335.76C1279.06,-331.52 1272.96,-327.37 1266.9,-324 1226.73,-301.62 1210.63,-309.36 1169.9,-288 1165.56,-285.72 1161.15,-283.12 1156.84,-280.39"/>
<polygon fill="black" stroke="black" points="1158.46,-277.27 1148.19,-274.66 1154.6,-283.1 1158.46,-277.27"/>
</g>
<!-- streams&#45;&gt;assert -->
<g id="edge25" class="edge">
<title>streams&#45;&gt;assert</title>
<path fill="none" stroke="black" d="M1284.29,-336.49C1278.65,-332.19 1272.67,-327.84 1266.9,-324 1239.73,-305.93 1225.67,-311.38 1202.9,-288 1177.66,-262.07 1195.24,-235.72 1164.9,-216 1080.37,-161.04 357.83,-148.02 166.33,-145.52"/>
<polygon fill="black" stroke="black" points="166.09,-142.02 156.04,-145.39 166,-149.02 166.09,-142.02"/>
</g>
<!-- streams&#45;&gt;bytes -->
<g id="edge26" class="edge">
<title>streams&#45;&gt;bytes</title>
<path fill="none" stroke="black" d="M1309.4,-323.93C1306.8,-294.73 1301.83,-252.23 1292.9,-216 1290.55,-206.45 1287.34,-196.4 1283.99,-186.97"/>
<polygon fill="black" stroke="black" points="1287.21,-185.58 1280.47,-177.41 1280.64,-188 1287.21,-185.58"/>
</g>
<!-- data_\nstructures -->
<g id="node12" class="node">
<title>data_\nstructures</title>
<ellipse fill="none" stroke="black" cx="1536.9" cy="-576" rx="36" ry="36"/>
<text text-anchor="middle" x="1536.9" y="-580.2" font-family="Times,serif" font-size="14.00">data_</text>
<text text-anchor="middle" x="1536.9" y="-563.4" font-family="Times,serif" font-size="14.00">structures</text>
</g>
<!-- datetime -->
<g id="node13" class="node">
<title>datetime</title>
<ellipse fill="none" stroke="black" cx="1626.9" cy="-576" rx="36" ry="36"/>
<text text-anchor="middle" x="1626.9" y="-571.8" font-family="Times,serif" font-size="14.00">datetime</text>
</g>
<!-- dotenv -->
<g id="node14" class="node">
<title>dotenv</title>
<ellipse fill="none" stroke="black" cx="1716.9" cy="-576" rx="36" ry="36"/>
<text text-anchor="middle" x="1716.9" y="-571.8" font-family="Times,serif" font-size="14.00">dotenv</text>
</g>
<!-- encoding -->
<g id="node15" class="node">
<title>encoding</title>
<ellipse fill="lightgreen" stroke="black" cx="813.9" cy="-360" rx="36" ry="36"/>
<text text-anchor="middle" x="813.9" y="-355.8" font-family="Times,serif" font-size="14.00">encoding</text>
</g>
<!-- expect -->
<g id="node16" class="node">
<title>expect</title>
<ellipse fill="none" stroke="black" cx="55.9" cy="-252" rx="36" ry="36"/>
<text text-anchor="middle" x="55.9" y="-247.8" font-family="Times,serif" font-size="14.00">expect</text>
</g>
<!-- expect&#45;&gt;assert -->
<g id="edge4" class="edge">
<title>expect&#45;&gt;assert</title>
<path fill="none" stroke="black" d="M74.07,-220.91C81.03,-209.38 89.07,-196.07 96.45,-183.84"/>
<polygon fill="black" stroke="black" points="99.52,-185.54 101.69,-175.17 93.52,-181.92 99.52,-185.54"/>
</g>
<!-- expect&#45;&gt;internal -->
<g id="edge5" class="edge">
<title>expect&#45;&gt;internal</title>
<path fill="none" stroke="black" d="M55.9,-215.66C55.9,-179.16 55.9,-122.05 55.9,-82.26"/>
<polygon fill="black" stroke="black" points="59.4,-82.03 55.9,-72.03 52.4,-82.03 59.4,-82.03"/>
</g>
<!-- fmt -->
<g id="node17" class="node">
<title>fmt</title>
<ellipse fill="none" stroke="black" cx="685.9" cy="-360" rx="36" ry="36"/>
<text text-anchor="middle" x="685.9" y="-355.8" font-family="Times,serif" font-size="14.00">fmt</text>
</g>
<!-- front_\nmatter -->
<g id="node18" class="node">
<title>front_\nmatter</title>
<ellipse fill="none" stroke="black" cx="1446.9" cy="-576" rx="36" ry="36"/>
<text text-anchor="middle" x="1446.9" y="-580.2" font-family="Times,serif" font-size="14.00">front_</text>
<text text-anchor="middle" x="1446.9" y="-563.4" font-family="Times,serif" font-size="14.00">matter</text>
</g>
<!-- toml -->
<g id="node19" class="node">
<title>toml</title>
<ellipse fill="lightgreen" stroke="black" cx="1401.9" cy="-468" rx="36" ry="36"/>
<text text-anchor="middle" x="1401.9" y="-463.8" font-family="Times,serif" font-size="14.00">toml</text>
</g>
<!-- front_\nmatter&#45;&gt;toml -->
<g id="edge6" class="edge">
<title>front_\nmatter&#45;&gt;toml</title>
<path fill="none" stroke="black" d="M1433.16,-542.62C1428.92,-532.65 1424.2,-521.51 1419.73,-510.99"/>
<polygon fill="black" stroke="black" points="1422.85,-509.38 1415.72,-501.55 1416.41,-512.12 1422.85,-509.38"/>
</g>
<!-- yaml -->
<g id="node20" class="node">
<title>yaml</title>
<ellipse fill="none" stroke="black" cx="1491.9" cy="-468" rx="36" ry="36"/>
<text text-anchor="middle" x="1491.9" y="-463.8" font-family="Times,serif" font-size="14.00">yaml</text>
</g>
<!-- front_\nmatter&#45;&gt;yaml -->
<g id="edge7" class="edge">
<title>front_\nmatter&#45;&gt;yaml</title>
<path fill="none" stroke="black" d="M1460.65,-542.62C1464.88,-532.65 1469.61,-521.51 1474.08,-510.99"/>
<polygon fill="black" stroke="black" points="1477.4,-512.12 1478.09,-501.55 1470.96,-509.38 1477.4,-512.12"/>
</g>
<!-- toml&#45;&gt;collections -->
<g id="edge35" class="edge">
<title>toml&#45;&gt;collections</title>
<path fill="none" stroke="black" d="M1401.9,-432C1401.9,-423.85 1401.9,-415.06 1401.9,-406.54"/>
<polygon fill="black" stroke="black" points="1405.4,-406.33 1401.9,-396.33 1398.4,-406.33 1405.4,-406.33"/>
</g>
<!-- fs -->
<g id="node21" class="node">
<title>fs</title>
<ellipse fill="none" stroke="black" cx="377.9" cy="-360" rx="36" ry="36"/>
<text text-anchor="middle" x="377.9" y="-355.8" font-family="Times,serif" font-size="14.00">fs</text>
</g>
<!-- path -->
<g id="node22" class="node">
<title>path</title>
<ellipse fill="lightgreen" stroke="black" cx="422.9" cy="-252" rx="36" ry="36"/>
<text text-anchor="middle" x="422.9" y="-247.8" font-family="Times,serif" font-size="14.00">path</text>
</g>
<!-- fs&#45;&gt;path -->
<g id="edge8" class="edge">
<title>fs&#45;&gt;path</title>
<path fill="none" stroke="black" d="M391.65,-326.62C395.88,-316.65 400.61,-305.51 405.08,-294.99"/>
<polygon fill="black" stroke="black" points="408.4,-296.12 409.09,-285.55 401.96,-293.38 408.4,-296.12"/>
</g>
<!-- html -->
<g id="node23" class="node">
<title>html</title>
<ellipse fill="lightgreen" stroke="black" cx="1806.9" cy="-576" rx="36" ry="36"/>
<text text-anchor="middle" x="1806.9" y="-571.8" font-family="Times,serif" font-size="14.00">html</text>
</g>
<!-- http -->
<g id="node24" class="node">
<title>http</title>
<ellipse fill="none" stroke="black" cx="870.9" cy="-468" rx="36" ry="36"/>
<text text-anchor="middle" x="870.9" y="-463.8" font-family="Times,serif" font-size="14.00">http</text>
</g>
<!-- http&#45;&gt;async -->
<g id="edge10" class="edge">
<title>http&#45;&gt;async</title>
<path fill="none" stroke="black" d="M836.26,-457.47C790.93,-444.74 709.23,-420.88 640.9,-396 627.42,-391.09 612.95,-385.21 599.92,-379.67"/>
<polygon fill="black" stroke="black" points="601.29,-376.46 590.72,-375.73 598.53,-382.89 601.29,-376.46"/>
</g>
<!-- http&#45;&gt;cli -->
<g id="edge14" class="edge">
<title>http&#45;&gt;cli</title>
<path fill="none" stroke="black" d="M906.96,-463.71C965.93,-457.24 1085.57,-439.5 1176.9,-396 1180.23,-394.42 1183.53,-392.56 1186.76,-390.53"/>
<polygon fill="black" stroke="black" points="1188.78,-393.39 1195.06,-384.86 1184.83,-387.61 1188.78,-393.39"/>
</g>
<!-- http&#45;&gt;streams -->
<g id="edge13" class="edge">
<title>http&#45;&gt;streams</title>
<path fill="none" stroke="black" d="M907,-466.25C978.69,-463.55 1142.82,-451.3 1266.9,-396 1270.36,-394.46 1273.79,-392.6 1277.12,-390.54"/>
<polygon fill="black" stroke="black" points="1279.35,-393.26 1285.67,-384.76 1275.42,-387.47 1279.35,-393.26"/>
</g>
<!-- http&#45;&gt;encoding -->
<g id="edge9" class="edge">
<title>http&#45;&gt;encoding</title>
<path fill="none" stroke="black" d="M854.26,-436.06C848.4,-425.16 841.73,-412.75 835.52,-401.2"/>
<polygon fill="black" stroke="black" points="838.48,-399.32 830.66,-392.17 832.32,-402.63 838.48,-399.32"/>
</g>
<!-- http&#45;&gt;fmt -->
<g id="edge15" class="edge">
<title>http&#45;&gt;fmt</title>
<path fill="none" stroke="black" d="M838.63,-451.47C810.88,-437.78 770.05,-416.81 735.9,-396 731.71,-393.45 727.4,-390.67 723.15,-387.84"/>
<polygon fill="black" stroke="black" points="724.81,-384.73 714.57,-381.99 720.87,-390.51 724.81,-384.73"/>
</g>
<!-- http&#45;&gt;path -->
<g id="edge11" class="edge">
<title>http&#45;&gt;path</title>
<path fill="none" stroke="black" d="M839.38,-450.41C817.54,-437.74 788.91,-418.63 768.9,-396 744.93,-368.9 759.58,-346.07 730.9,-324 653.45,-264.4 534.71,-253.36 469.6,-252.17"/>
<polygon fill="black" stroke="black" points="469.28,-248.66 459.25,-252.05 469.21,-255.66 469.28,-248.66"/>
</g>
<!-- media_types -->
<g id="node25" class="node">
<title>media_types</title>
<ellipse fill="none" stroke="black" cx="927.9" cy="-360" rx="59.69" ry="18"/>
<text text-anchor="middle" x="927.9" y="-355.8" font-family="Times,serif" font-size="14.00">media_types</text>
</g>
<!-- http&#45;&gt;media_types -->
<g id="edge12" class="edge">
<title>http&#45;&gt;media_types</title>
<path fill="none" stroke="black" d="M887.54,-436.06C895.9,-420.52 905.91,-401.9 913.87,-387.09"/>
<polygon fill="black" stroke="black" points="917.12,-388.45 918.77,-377.98 910.95,-385.13 917.12,-388.45"/>
</g>
<!-- net -->
<g id="node26" class="node">
<title>net</title>
<ellipse fill="none" stroke="black" cx="1041.9" cy="-360" rx="36" ry="36"/>
<text text-anchor="middle" x="1041.9" y="-355.8" font-family="Times,serif" font-size="14.00">net</text>
</g>
<!-- http&#45;&gt;net -->
<g id="edge16" class="edge">
<title>http&#45;&gt;net</title>
<path fill="none" stroke="black" d="M902.74,-450.74C928.69,-437.1 965.96,-416.59 996.9,-396 999.97,-393.96 1003.09,-391.78 1006.19,-389.53"/>
<polygon fill="black" stroke="black" points="1008.36,-392.28 1014.29,-383.5 1004.18,-386.67 1008.36,-392.28"/>
</g>
<!-- ini -->
<g id="node27" class="node">
<title>ini</title>
<ellipse fill="none" stroke="black" cx="1896.9" cy="-576" rx="36" ry="36"/>
<text text-anchor="middle" x="1896.9" y="-571.8" font-family="Times,serif" font-size="14.00">ini</text>
</g>
<!-- json -->
<g id="node28" class="node">
<title>json</title>
<ellipse fill="none" stroke="black" cx="1221.9" cy="-468" rx="36" ry="36"/>
<text text-anchor="middle" x="1221.9" y="-463.8" font-family="Times,serif" font-size="14.00">json</text>
</g>
<!-- json&#45;&gt;streams -->
<g id="edge19" class="edge">
<title>json&#45;&gt;streams</title>
<path fill="none" stroke="black" d="M1244.85,-439.98C1256.27,-426.52 1270.22,-410.1 1282.42,-395.72"/>
<polygon fill="black" stroke="black" points="1285.2,-397.86 1289,-387.97 1279.86,-393.33 1285.2,-397.86"/>
</g>
<!-- jsonc -->
<g id="node29" class="node">
<title>jsonc</title>
<ellipse fill="none" stroke="black" cx="1221.9" cy="-576" rx="36" ry="36"/>
<text text-anchor="middle" x="1221.9" y="-571.8" font-family="Times,serif" font-size="14.00">jsonc</text>
</g>
<!-- jsonc&#45;&gt;json -->
<g id="edge20" class="edge">
<title>jsonc&#45;&gt;json</title>
<path fill="none" stroke="black" d="M1221.9,-540C1221.9,-531.85 1221.9,-523.06 1221.9,-514.54"/>
<polygon fill="black" stroke="black" points="1225.4,-514.33 1221.9,-504.33 1218.4,-514.33 1225.4,-514.33"/>
</g>
<!-- log -->
<g id="node30" class="node">
<title>log</title>
<ellipse fill="none" stroke="black" cx="621.9" cy="-468" rx="36" ry="36"/>
<text text-anchor="middle" x="621.9" y="-463.8" font-family="Times,serif" font-size="14.00">log</text>
</g>
<!-- log&#45;&gt;io -->
<g id="edge22" class="edge">
<title>log&#45;&gt;io</title>
<path fill="none" stroke="black" d="M615.88,-432.26C612.41,-399.75 613.22,-352.1 640.9,-324 700.57,-263.43 964.97,-254.25 1073.34,-253.07"/>
<polygon fill="black" stroke="black" points="1073.66,-256.56 1083.63,-252.97 1073.6,-249.56 1073.66,-256.56"/>
</g>
<!-- log&#45;&gt;fmt -->
<g id="edge21" class="edge">
<title>log&#45;&gt;fmt</title>
<path fill="none" stroke="black" d="M640.07,-436.91C647.03,-425.38 655.07,-412.07 662.45,-399.84"/>
<polygon fill="black" stroke="black" points="665.52,-401.54 667.69,-391.17 659.52,-397.92 665.52,-401.54"/>
</g>
<!-- log&#45;&gt;fs -->
<g id="edge23" class="edge">
<title>log&#45;&gt;fs</title>
<path fill="none" stroke="black" d="M587.04,-458.21C546.16,-447.09 477.09,-425.73 422.9,-396 419.68,-394.23 416.44,-392.23 413.26,-390.12"/>
<polygon fill="black" stroke="black" points="415.22,-387.22 405.03,-384.3 411.18,-392.93 415.22,-387.22"/>
</g>
<!-- media_\ntypes -->
<g id="node31" class="node">
<title>media_\ntypes</title>
<ellipse fill="lightgreen" stroke="black" cx="1986.9" cy="-576" rx="36" ry="36"/>
<text text-anchor="middle" x="1986.9" y="-580.2" font-family="Times,serif" font-size="14.00">media_</text>
<text text-anchor="middle" x="1986.9" y="-563.4" font-family="Times,serif" font-size="14.00">types</text>
</g>
<!-- msgpack -->
<g id="node32" class="node">
<title>msgpack</title>
<ellipse fill="none" stroke="black" cx="1247.9" cy="-252" rx="36" ry="36"/>
<text text-anchor="middle" x="1247.9" y="-247.8" font-family="Times,serif" font-size="14.00">msgpack</text>
</g>
<!-- msgpack&#45;&gt;bytes -->
<g id="edge24" class="edge">
<title>msgpack&#45;&gt;bytes</title>
<path fill="none" stroke="black" d="M1254.12,-216.29C1255.65,-207.78 1257.3,-198.55 1258.9,-189.65"/>
<polygon fill="black" stroke="black" points="1262.35,-190.25 1260.67,-179.79 1255.46,-189.01 1262.35,-190.25"/>
</g>
<!-- regexp -->
<g id="node33" class="node">
<title>regexp</title>
<ellipse fill="none" stroke="black" cx="2076.9" cy="-576" rx="36" ry="36"/>
<text text-anchor="middle" x="2076.9" y="-571.8" font-family="Times,serif" font-size="14.00">regexp</text>
</g>
<!-- semver -->
<g id="node34" class="node">
<title>semver</title>
<ellipse fill="none" stroke="black" cx="2166.9" cy="-576" rx="36" ry="36"/>
<text text-anchor="middle" x="2166.9" y="-571.8" font-family="Times,serif" font-size="14.00">semver</text>
</g>
<!-- testing -->
<g id="node35" class="node">
<title>testing</title>
<ellipse fill="none" stroke="black" cx="313.9" cy="-468" rx="36" ry="36"/>
<text text-anchor="middle" x="313.9" y="-463.8" font-family="Times,serif" font-size="14.00">testing</text>
</g>
<!-- testing&#45;&gt;assert -->
<g id="edge28" class="edge">
<title>testing&#45;&gt;assert</title>
<path fill="none" stroke="black" d="M277.96,-463.43C236.98,-457.27 171.47,-440.63 138.9,-396 94.73,-335.48 101.2,-243.44 110.3,-189.25"/>
<polygon fill="black" stroke="black" points="113.77,-189.72 112.08,-179.26 106.88,-188.49 113.77,-189.72"/>
</g>
<!-- testing&#45;&gt;internal -->
<g id="edge32" class="edge">
<title>testing&#45;&gt;internal</title>
<path fill="none" stroke="black" d="M278.28,-460.71C234.73,-451.75 160.15,-432.26 105.9,-396 52.75,-360.48 33.47,-347.81 10.9,-288 -15.89,-216.98 13.39,-128.51 35.65,-77.81"/>
<polygon fill="black" stroke="black" points="38.93,-79.05 39.85,-68.5 32.55,-76.17 38.93,-79.05"/>
</g>
<!-- testing&#45;&gt;async -->
<g id="edge34" class="edge">
<title>testing&#45;&gt;async</title>
<path fill="none" stroke="black" d="M348.76,-458.21C389.65,-447.09 458.72,-425.73 512.9,-396 516.13,-394.23 519.37,-392.23 522.55,-390.12"/>
<polygon fill="black" stroke="black" points="524.63,-392.93 530.78,-384.3 520.59,-387.22 524.63,-392.93"/>
</g>
<!-- testing&#45;&gt;fmt -->
<g id="edge31" class="edge">
<title>testing&#45;&gt;fmt</title>
<path fill="none" stroke="black" d="M349.11,-460.23C404.04,-449.24 513.15,-425.74 602.9,-396 616.64,-391.45 631.29,-385.61 644.4,-380.02"/>
<polygon fill="black" stroke="black" points="645.86,-383.2 653.64,-376.01 643.07,-376.78 645.86,-383.2"/>
</g>
<!-- testing&#45;&gt;fs -->
<g id="edge30" class="edge">
<title>testing&#45;&gt;fs</title>
<path fill="none" stroke="black" d="M332.07,-436.91C339.03,-425.38 347.07,-412.07 354.45,-399.84"/>
<polygon fill="black" stroke="black" points="357.52,-401.54 359.69,-391.17 351.52,-397.92 357.52,-401.54"/>
</g>
<!-- testing&#45;&gt;path -->
<g id="edge29" class="edge">
<title>testing&#45;&gt;path</title>
<path fill="none" stroke="black" d="M311.44,-432.05C310.88,-401.58 314.01,-357.19 332.9,-324 344.49,-303.64 364.46,-286.99 382.64,-274.94"/>
<polygon fill="black" stroke="black" points="384.81,-277.71 391.38,-269.4 381.06,-271.8 384.81,-277.71"/>
</g>
<!-- data_structures -->
<g id="node36" class="node">
<title>data_structures</title>
<ellipse fill="none" stroke="black" cx="216.9" cy="-360" rx="69.48" ry="18"/>
<text text-anchor="middle" x="216.9" y="-355.8" font-family="Times,serif" font-size="14.00">data_structures</text>
</g>
<!-- testing&#45;&gt;data_structures -->
<g id="edge33" class="edge">
<title>testing&#45;&gt;data_structures</title>
<path fill="none" stroke="black" d="M289.93,-440.8C274.4,-423.83 254.33,-401.9 239.16,-385.32"/>
<polygon fill="black" stroke="black" points="241.48,-382.67 232.14,-377.66 236.31,-387.4 241.48,-382.67"/>
</g>
<!-- text -->
<g id="node37" class="node">
<title>text</title>
<ellipse fill="none" stroke="black" cx="2256.9" cy="-576" rx="36" ry="36"/>
<text text-anchor="middle" x="2256.9" y="-571.8" font-family="Times,serif" font-size="14.00">text</text>
</g>
<!-- ulid -->
<g id="node38" class="node">
<title>ulid</title>
<ellipse fill="none" stroke="black" cx="2346.9" cy="-576" rx="36" ry="36"/>
<text text-anchor="middle" x="2346.9" y="-571.8" font-family="Times,serif" font-size="14.00">ulid</text>
</g>
<!-- url -->
<g id="node39" class="node">
<title>url</title>
<ellipse fill="none" stroke="black" cx="467.9" cy="-360" rx="36" ry="36"/>
<text text-anchor="middle" x="467.9" y="-355.8" font-family="Times,serif" font-size="14.00">url</text>
</g>
<!-- url&#45;&gt;path -->
<g id="edge36" class="edge">
<title>url&#45;&gt;path</title>
<path fill="none" stroke="black" d="M454.16,-326.62C449.92,-316.65 445.2,-305.51 440.73,-294.99"/>
<polygon fill="black" stroke="black" points="443.85,-293.38 436.72,-285.55 437.41,-296.12 443.85,-293.38"/>
</g>
<!-- uuid -->
<g id="node40" class="node">
<title>uuid</title>
<ellipse fill="lightgreen" stroke="black" cx="1375.9" cy="-252" rx="36" ry="36"/>
<text text-anchor="middle" x="1375.9" y="-247.8" font-family="Times,serif" font-size="14.00">uuid</text>
</g>
<!-- uuid&#45;&gt;bytes -->
<g id="edge37" class="edge">
<title>uuid&#45;&gt;bytes</title>
<path fill="none" stroke="black" d="M1350.35,-226.15C1335.18,-211.4 1315.79,-192.54 1299.53,-176.73"/>
<polygon fill="black" stroke="black" points="1301.91,-174.16 1292.3,-169.7 1297.03,-179.18 1301.91,-174.16"/>
</g>
<!-- uuid&#45;&gt;crypto -->
<g id="edge38" class="edge">
<title>uuid&#45;&gt;crypto</title>
<path fill="none" stroke="black" d="M1375.9,-216C1375.9,-207.85 1375.9,-199.06 1375.9,-190.54"/>
<polygon fill="black" stroke="black" points="1379.4,-190.33 1375.9,-180.33 1372.4,-190.33 1379.4,-190.33"/>
</g>
<!-- webgpu -->
<g id="node41" class="node">
<title>webgpu</title>
<ellipse fill="none" stroke="black" cx="2436.9" cy="-576" rx="36" ry="36"/>
<text text-anchor="middle" x="2436.9" y="-571.8" font-family="Times,serif" font-size="14.00">webgpu</text>
</g>
</g>
</svg>