<?xml version="1.0" encoding="UTF-8" standalone="no"?>
<!DOCTYPE svg PUBLIC "-//W3C//DTD SVG 1.1//EN"
 "http://www.w3.org/Graphics/SVG/1.1/DTD/svg11.dtd">
<!-- Generated by graphviz version 2.44.0 (20200518.1210)
 -->
<!-- Title: std_deps Pages: 1 -->
<svg width="2357pt" height="659pt"
 viewBox="0.00 0.00 2357.47 659.00" xmlns="http://www.w3.org/2000/svg" xmlns:xlink="http://www.w3.org/1999/xlink">
<g id="graph0" class="graph" transform="scale(1 1) rotate(0) translate(4 655)">
<title>std_deps</title>
<polygon fill="white" stroke="transparent" points="-4,4 -4,-655 2353.47,-655 2353.47,4 -4,4"/>
<!-- archive -->
<g id="node1" class="node">
<title>archive</title>
<polygon fill="pink" stroke="black" points="256.17,-379.5 198.78,-379.5 198.78,-343.5 256.17,-343.5 256.17,-379.5"/>
<text text-anchor="middle" x="227.47" y="-357.3" font-family="Times,serif" font-size="14.00">archive</text>
</g>
<!-- io -->
<g id="node2" class="node">
<title>io</title>
<polygon fill="pink" stroke="black" points="180.47,-256.5 126.47,-256.5 126.47,-220.5 180.47,-220.5 180.47,-256.5"/>
<text text-anchor="middle" x="153.47" y="-234.3" font-family="Times,serif" font-size="14.00">io</text>
</g>
<!-- archive&#45;&gt;io -->
<g id="edge1" class="edge">
<title>archive&#45;&gt;io</title>
<path fill="none" stroke="black" d="M217.03,-343.42C204.65,-323.18 183.88,-289.23 169.47,-265.66"/>
<polygon fill="black" stroke="black" points="172.31,-263.59 164.1,-256.88 166.33,-267.24 172.31,-263.59"/>
</g>
<!-- assert -->
<g id="node3" class="node">
<title>assert</title>
<ellipse fill="none" stroke="black" cx="724.47" cy="-115.5" rx="39.5" ry="39.5"/>
<ellipse fill="none" stroke="black" cx="724.47" cy="-115.5" rx="43.5" ry="43.5"/>
<text text-anchor="middle" x="724.47" y="-111.3" font-family="Times,serif" font-size="14.00">assert</text>
</g>
<!-- archive&#45;&gt;assert -->
<g id="edge2" class="edge">
<title>archive&#45;&gt;assert</title>
<path fill="none" stroke="black" d="M252.81,-343.45C267.12,-334.57 285.65,-324.29 303.47,-318 393.18,-286.32 439.55,-340.63 514.47,-282 547.7,-256 522.88,-225.08 552.47,-195 585.33,-161.6 635.02,-141.04 672.56,-129.39"/>
<polygon fill="black" stroke="black" points="673.73,-132.69 682.31,-126.47 671.73,-125.98 673.73,-132.69"/>
</g>
<!-- bytes -->
<g id="node4" class="node">
<title>bytes</title>
<ellipse fill="none" stroke="black" cx="114.47" cy="-115.5" rx="39.5" ry="39.5"/>
<ellipse fill="none" stroke="black" cx="114.47" cy="-115.5" rx="43.5" ry="43.5"/>
<text text-anchor="middle" x="114.47" y="-111.3" font-family="Times,serif" font-size="14.00">bytes</text>
</g>
<!-- archive&#45;&gt;bytes -->
<g id="edge3" class="edge">
<title>archive&#45;&gt;bytes</title>
<path fill="none" stroke="black" d="M226.53,-343.5C224.19,-312.3 216.18,-244.57 189.47,-195 180.8,-178.91 167.94,-163.75 155.3,-151.11"/>
<polygon fill="black" stroke="black" points="157.55,-148.42 147.92,-143.98 152.68,-153.45 157.55,-148.42"/>
</g>
<!-- io&#45;&gt;assert -->
<g id="edge27" class="edge">
<title>io&#45;&gt;assert</title>
<path fill="none" stroke="black" d="M180.65,-228.99C210.55,-219.81 260.12,-205.16 303.47,-195 434.58,-164.27 590.9,-137.73 671.13,-124.83"/>
<polygon fill="black" stroke="black" points="672.15,-128.21 681.47,-123.18 671.04,-121.3 672.15,-128.21"/>
</g>
<!-- io&#45;&gt;bytes -->
<g id="edge28" class="edge">
<title>io&#45;&gt;bytes</title>
<path fill="none" stroke="black" d="M147.97,-220.42C143.46,-206.43 136.84,-185.9 130.67,-166.77"/>
<polygon fill="black" stroke="black" points="134,-165.68 127.6,-157.24 127.34,-167.83 134,-165.68"/>
</g>
<!-- internal -->
<g id="node5" class="node">
<title>internal</title>
<polygon fill="pink" stroke="black" points="753.73,-36 695.21,-36 695.21,0 753.73,0 753.73,-36"/>
<text text-anchor="middle" x="724.47" y="-13.8" font-family="Times,serif" font-size="14.00">internal</text>
</g>
<!-- assert&#45;&gt;internal -->
<g id="edge4" class="edge">
<title>assert&#45;&gt;internal</title>
<path fill="none" stroke="black" d="M724.47,-71.78C724.47,-63.17 724.47,-54.35 724.47,-46.44"/>
<polygon fill="black" stroke="black" points="727.97,-46.33 724.47,-36.33 720.97,-46.33 727.97,-46.33"/>
</g>
<!-- async -->
<g id="node6" class="node">
<title>async</title>
<ellipse fill="none" stroke="black" cx="1111.47" cy="-361.5" rx="39.5" ry="39.5"/>
<ellipse fill="none" stroke="black" cx="1111.47" cy="-361.5" rx="43.5" ry="43.5"/>
<text text-anchor="middle" x="1111.47" y="-357.3" font-family="Times,serif" font-size="14.00">async</text>
</g>
<!-- async&#45;&gt;assert -->
<g id="edge5" class="edge">
<title>async&#45;&gt;assert</title>
<path fill="none" stroke="black" d="M1107.82,-317.94C1102.29,-280.26 1088.4,-226.51 1053.47,-195 1013.24,-158.71 860.03,-133.94 777.64,-122.95"/>
<polygon fill="black" stroke="black" points="778.09,-119.48 767.72,-121.65 777.18,-126.42 778.09,-119.48"/>
</g>
<!-- cli -->
<g id="node7" class="node">
<title>cli</title>
<polygon fill="pink" stroke="black" points="945.47,-256.5 891.47,-256.5 891.47,-220.5 945.47,-220.5 945.47,-256.5"/>
<text text-anchor="middle" x="918.47" y="-234.3" font-family="Times,serif" font-size="14.00">cli</text>
</g>
<!-- cli&#45;&gt;assert -->
<g id="edge6" class="edge">
<title>cli&#45;&gt;assert</title>
<path fill="none" stroke="black" d="M891.09,-220.42C859.56,-200.76 807.31,-168.17 769.72,-144.72"/>
<polygon fill="black" stroke="black" points="771.32,-141.59 760.98,-139.27 767.61,-147.53 771.32,-141.59"/>
</g>
<!-- collections -->
<g id="node8" class="node">
<title>collections</title>
<ellipse fill="none" stroke="black" cx="1487.47" cy="-361.5" rx="39.5" ry="39.5"/>
<ellipse fill="none" stroke="black" cx="1487.47" cy="-361.5" rx="43.5" ry="43.5"/>
<text text-anchor="middle" x="1487.47" y="-357.3" font-family="Times,serif" font-size="14.00">collections</text>
</g>
<!-- crypto -->
<g id="node9" class="node">
<title>crypto</title>
<ellipse fill="none" stroke="black" cx="356.47" cy="-238.5" rx="39.5" ry="39.5"/>
<ellipse fill="none" stroke="black" cx="356.47" cy="-238.5" rx="43.5" ry="43.5"/>
<text text-anchor="middle" x="356.47" y="-234.3" font-family="Times,serif" font-size="14.00">crypto</text>
</g>
<!-- crypto&#45;&gt;assert -->
<g id="edge7" class="edge">
<title>crypto&#45;&gt;assert</title>
<path fill="none" stroke="black" d="M388.32,-208.38C394.97,-203.37 402.18,-198.61 409.47,-195 495.52,-152.36 606.56,-131.71 671.21,-122.66"/>
<polygon fill="black" stroke="black" points="671.74,-126.12 681.18,-121.31 670.8,-119.18 671.74,-126.12"/>
</g>
<!-- encoding -->
<g id="node10" class="node">
<title>encoding</title>
<ellipse fill="none" stroke="black" cx="320.47" cy="-115.5" rx="39.5" ry="39.5"/>
<ellipse fill="none" stroke="black" cx="320.47" cy="-115.5" rx="43.5" ry="43.5"/>
<text text-anchor="middle" x="320.47" y="-111.3" font-family="Times,serif" font-size="14.00">encoding</text>
</g>
<!-- crypto&#45;&gt;encoding -->
<g id="edge8" class="edge">
<title>crypto&#45;&gt;encoding</title>
<path fill="none" stroke="black" d="M344.28,-196.53C341.47,-187.07 338.44,-176.9 335.52,-167.08"/>
<polygon fill="black" stroke="black" points="338.85,-166.01 332.65,-157.42 332.14,-168.01 338.85,-166.01"/>
</g>
<!-- csv -->
<g id="node11" class="node">
<title>csv</title>
<ellipse fill="none" stroke="black" cx="98.47" cy="-484.5" rx="39.5" ry="39.5"/>
<ellipse fill="none" stroke="black" cx="98.47" cy="-484.5" rx="43.5" ry="43.5"/>
<text text-anchor="middle" x="98.47" y="-480.3" font-family="Times,serif" font-size="14.00">csv</text>
</g>
<!-- csv&#45;&gt;assert -->
<g id="edge9" class="edge">
<title>csv&#45;&gt;assert</title>
<path fill="none" stroke="black" d="M140.66,-473.24C224.16,-452.87 402.93,-408.95 408.47,-405 446.11,-378.16 428.27,-345.44 465.47,-318 511.99,-283.68 547,-320.11 590.47,-282 622.2,-254.19 602.98,-228.63 628.47,-195 642.55,-176.42 661.9,-159.52 679.53,-146.19"/>
<polygon fill="black" stroke="black" points="682.04,-148.69 688.02,-139.95 677.89,-143.05 682.04,-148.69"/>
</g>
<!-- csv&#45;&gt;bytes -->
<g id="edge11" class="edge">
<title>csv&#45;&gt;bytes</title>
<path fill="none" stroke="black" d="M71.67,-449.99C62.15,-436.65 52.15,-420.74 45.47,-405 8.75,-318.42 -20.6,-280.08 19.47,-195 29.67,-173.35 49.09,-155.63 67.74,-142.54"/>
<polygon fill="black" stroke="black" points="69.86,-145.33 76.21,-136.85 65.96,-139.52 69.86,-145.33"/>
</g>
<!-- streams -->
<g id="node12" class="node">
<title>streams</title>
<ellipse fill="none" stroke="black" cx="98.47" cy="-361.5" rx="39.5" ry="39.5"/>
<ellipse fill="none" stroke="black" cx="98.47" cy="-361.5" rx="43.5" ry="43.5"/>
<text text-anchor="middle" x="98.47" y="-357.3" font-family="Times,serif" font-size="14.00">streams</text>
</g>
<!-- csv&#45;&gt;streams -->
<g id="edge10" class="edge">
<title>csv&#45;&gt;streams</title>
<path fill="none" stroke="black" d="M98.47,-440.84C98.47,-432.62 98.47,-423.91 98.47,-415.41"/>
<polygon fill="black" stroke="black" points="101.97,-415.18 98.47,-405.18 94.97,-415.18 101.97,-415.18"/>
</g>
<!-- streams&#45;&gt;io -->
<g id="edge40" class="edge">
<title>streams&#45;&gt;io</title>
<path fill="none" stroke="black" d="M116.18,-321.55C124.39,-303.47 133.95,-282.44 141.34,-266.19"/>
<polygon fill="black" stroke="black" points="144.67,-267.32 145.62,-256.77 138.3,-264.42 144.67,-267.32"/>
</g>
<!-- streams&#45;&gt;assert -->
<g id="edge38" class="edge">
<title>streams&#45;&gt;assert</title>
<path fill="none" stroke="black" d="M136.4,-339.52C152.35,-331.58 171.37,-323.2 189.47,-318 252.31,-299.94 430.04,-322.37 481.47,-282 514,-256.47 485.16,-224.17 514.47,-195 520.42,-189.08 613.6,-155.53 673.82,-134.25"/>
<polygon fill="black" stroke="black" points="675.28,-137.45 683.55,-130.82 672.95,-130.85 675.28,-137.45"/>
</g>
<!-- streams&#45;&gt;bytes -->
<g id="edge39" class="edge">
<title>streams&#45;&gt;bytes</title>
<path fill="none" stroke="black" d="M66.29,-331.63C53.47,-318 40.19,-300.64 33.47,-282 20.37,-245.62 18.39,-230.61 33.47,-195 41.4,-176.27 56.24,-159.81 71.07,-146.87"/>
<polygon fill="black" stroke="black" points="73.35,-149.52 78.78,-140.42 68.86,-144.15 73.35,-149.52"/>
</g>
<!-- data_\nstructures -->
<g id="node13" class="node">
<title>data_\nstructures</title>
<polygon fill="pink" stroke="black" points="1655.89,-628.1 1585.05,-628.1 1585.05,-586.9 1655.89,-586.9 1655.89,-628.1"/>
<text text-anchor="middle" x="1620.47" y="-611.7" font-family="Times,serif" font-size="14.00">data_</text>
<text text-anchor="middle" x="1620.47" y="-594.9" font-family="Times,serif" font-size="14.00">structures</text>
</g>
<!-- datetime -->
<g id="node14" class="node">
<title>datetime</title>
<polygon fill="pink" stroke="black" points="1737.68,-625.5 1673.26,-625.5 1673.26,-589.5 1737.68,-589.5 1737.68,-625.5"/>
<text text-anchor="middle" x="1705.47" y="-603.3" font-family="Times,serif" font-size="14.00">datetime</text>
</g>
<!-- dotenv -->
<g id="node15" class="node">
<title>dotenv</title>
<polygon fill="pink" stroke="black" points="1809.58,-625.5 1755.37,-625.5 1755.37,-589.5 1809.58,-589.5 1809.58,-625.5"/>
<text text-anchor="middle" x="1782.47" y="-603.3" font-family="Times,serif" font-size="14.00">dotenv</text>
</g>
<!-- expect -->
<g id="node16" class="node">
<title>expect</title>
<polygon fill="pink" stroke="black" points="472.47,-256.5 418.47,-256.5 418.47,-220.5 472.47,-220.5 472.47,-256.5"/>
<text text-anchor="middle" x="445.47" y="-234.3" font-family="Times,serif" font-size="14.00">expect</text>
</g>
<!-- expect&#45;&gt;assert -->
<g id="edge12" class="edge">
<title>expect&#45;&gt;assert</title>
<path fill="none" stroke="black" d="M458.71,-220.23C466.07,-211.62 475.88,-201.65 486.47,-195 517.79,-175.32 612.5,-147.15 672.58,-130.45"/>
<polygon fill="black" stroke="black" points="673.57,-133.81 682.27,-127.77 671.7,-127.06 673.57,-133.81"/>
</g>
<!-- expect&#45;&gt;internal -->
<g id="edge13" class="edge">
<title>expect&#45;&gt;internal</title>
<path fill="none" stroke="black" d="M460.82,-220.31C468.27,-212.3 477.53,-202.84 486.47,-195 554.85,-135.02 642.43,-73.86 689.99,-41.81"/>
<polygon fill="black" stroke="black" points="692.04,-44.65 698.39,-36.17 688.13,-38.84 692.04,-44.65"/>
</g>
<!-- fmt -->
<g id="node17" class="node">
<title>fmt</title>
<ellipse fill="none" stroke="black" cx="891.47" cy="-361.5" rx="39.5" ry="39.5"/>
<ellipse fill="none" stroke="black" cx="891.47" cy="-361.5" rx="43.5" ry="43.5"/>
<text text-anchor="middle" x="891.47" y="-357.3" font-family="Times,serif" font-size="14.00">fmt</text>
</g>
<!-- front_\nmatter -->
<g id="node18" class="node">
<title>front_\nmatter</title>
<ellipse fill="none" stroke="black" cx="1523.47" cy="-607.5" rx="39.5" ry="39.5"/>
<ellipse fill="none" stroke="black" cx="1523.47" cy="-607.5" rx="43.5" ry="43.5"/>
<text text-anchor="middle" x="1523.47" y="-611.7" font-family="Times,serif" font-size="14.00">front_</text>
<text text-anchor="middle" x="1523.47" y="-594.9" font-family="Times,serif" font-size="14.00">matter</text>
</g>
<!-- front_\nmatter&#45;&gt;collections -->
<g id="edge15" class="edge">
<title>front_\nmatter&#45;&gt;collections</title>
<path fill="none" stroke="black" d="M1495.71,-573.94C1486.06,-560.59 1476.42,-544.44 1471.47,-528 1460.23,-490.68 1465.3,-446.68 1472.6,-413.44"/>
<polygon fill="black" stroke="black" points="1476.06,-414.02 1474.92,-403.48 1469.24,-412.43 1476.06,-414.02"/>
</g>
<!-- toml -->
<g id="node19" class="node">
<title>toml</title>
<ellipse fill="none" stroke="black" cx="1523.47" cy="-484.5" rx="39.5" ry="39.5"/>
<ellipse fill="none" stroke="black" cx="1523.47" cy="-484.5" rx="43.5" ry="43.5"/>
<text text-anchor="middle" x="1523.47" y="-480.3" font-family="Times,serif" font-size="14.00">toml</text>
</g>
<!-- front_\nmatter&#45;&gt;toml -->
<g id="edge14" class="edge">
<title>front_\nmatter&#45;&gt;toml</title>
<path fill="none" stroke="black" d="M1523.47,-563.84C1523.47,-555.62 1523.47,-546.91 1523.47,-538.41"/>
<polygon fill="black" stroke="black" points="1526.97,-538.18 1523.47,-528.18 1519.97,-538.18 1526.97,-538.18"/>
</g>
<!-- yaml -->
<g id="node20" class="node">
<title>yaml</title>
<ellipse fill="none" stroke="black" cx="1628.47" cy="-484.5" rx="39.5" ry="39.5"/>
<ellipse fill="none" stroke="black" cx="1628.47" cy="-484.5" rx="43.5" ry="43.5"/>
<text text-anchor="middle" x="1628.47" y="-480.3" font-family="Times,serif" font-size="14.00">yaml</text>
</g>
<!-- front_\nmatter&#45;&gt;yaml -->
<g id="edge16" class="edge">
<title>front_\nmatter&#45;&gt;yaml</title>
<path fill="none" stroke="black" d="M1551.61,-574.07C1564.44,-559.29 1579.76,-541.63 1593.34,-525.99"/>
<polygon fill="black" stroke="black" points="1596.34,-527.86 1600.26,-518.02 1591.06,-523.27 1596.34,-527.86"/>
</g>
<!-- toml&#45;&gt;collections -->
<g id="edge49" class="edge">
<title>toml&#45;&gt;collections</title>
<path fill="none" stroke="black" d="M1511.28,-442.53C1508.47,-433.07 1505.44,-422.9 1502.52,-413.08"/>
<polygon fill="black" stroke="black" points="1505.85,-412.01 1499.65,-403.42 1499.14,-414.01 1505.85,-412.01"/>
</g>
<!-- fs -->
<g id="node21" class="node">
<title>fs</title>
<ellipse fill="none" stroke="black" cx="786.47" cy="-361.5" rx="39.5" ry="39.5"/>
<ellipse fill="none" stroke="black" cx="786.47" cy="-361.5" rx="43.5" ry="43.5"/>
<text text-anchor="middle" x="786.47" y="-357.3" font-family="Times,serif" font-size="14.00">fs</text>
</g>
<!-- fs&#45;&gt;assert -->
<g id="edge18" class="edge">
<title>fs&#45;&gt;assert</title>
<path fill="none" stroke="black" d="M789.87,-317.86C791.2,-283.74 789.89,-235.13 776.47,-195 772.17,-182.15 765.21,-169.39 757.76,-158.02"/>
<polygon fill="black" stroke="black" points="760.53,-155.88 752,-149.61 754.76,-159.84 760.53,-155.88"/>
</g>
<!-- path -->
<g id="node22" class="node">
<title>path</title>
<ellipse fill="none" stroke="black" cx="724.47" cy="-238.5" rx="39.5" ry="39.5"/>
<ellipse fill="none" stroke="black" cx="724.47" cy="-238.5" rx="43.5" ry="43.5"/>
<text text-anchor="middle" x="724.47" y="-234.3" font-family="Times,serif" font-size="14.00">path</text>
</g>
<!-- fs&#45;&gt;path -->
<g id="edge17" class="edge">
<title>fs&#45;&gt;path</title>
<path fill="none" stroke="black" d="M767.02,-322.55C761.19,-311.17 754.73,-298.55 748.63,-286.66"/>
<polygon fill="black" stroke="black" points="751.74,-285.04 744.06,-277.73 745.51,-288.23 751.74,-285.04"/>
</g>
<!-- path&#45;&gt;assert -->
<g id="edge37" class="edge">
<title>path&#45;&gt;assert</title>
<path fill="none" stroke="black" d="M724.47,-194.84C724.47,-186.62 724.47,-177.91 724.47,-169.41"/>
<polygon fill="black" stroke="black" points="727.97,-169.18 724.47,-159.18 720.97,-169.18 727.97,-169.18"/>
</g>
<!-- html -->
<g id="node23" class="node">
<title>html</title>
<polygon fill="pink" stroke="black" points="1881.47,-625.5 1827.47,-625.5 1827.47,-589.5 1881.47,-589.5 1881.47,-625.5"/>
<text text-anchor="middle" x="1854.47" y="-603.3" font-family="Times,serif" font-size="14.00">html</text>
</g>
<!-- http -->
<g id="node24" class="node">
<title>http</title>
<polygon fill="pink" stroke="black" points="840.47,-502.5 786.47,-502.5 786.47,-466.5 840.47,-466.5 840.47,-502.5"/>
<text text-anchor="middle" x="813.47" y="-480.3" font-family="Times,serif" font-size="14.00">http</text>
</g>
<!-- http&#45;&gt;assert -->
<g id="edge19" class="edge">
<title>http&#45;&gt;assert</title>
<path fill="none" stroke="black" d="M840.72,-478.19C876.18,-469.65 936.76,-449.13 963.47,-405 977.54,-381.76 959.59,-201.63 954.47,-195 912.81,-141.04 832.11,-123.92 778.25,-118.64"/>
<polygon fill="black" stroke="black" points="778.45,-115.14 768.19,-117.75 777.84,-122.11 778.45,-115.14"/>
</g>
<!-- http&#45;&gt;async -->
<g id="edge21" class="edge">
<title>http&#45;&gt;async</title>
<path fill="none" stroke="black" d="M840.48,-477.62C886.1,-467.07 980.54,-442.44 1053.47,-405 1058.81,-402.26 1064.18,-399.05 1069.4,-395.65"/>
<polygon fill="black" stroke="black" points="1071.7,-398.31 1077.98,-389.78 1067.75,-392.54 1071.7,-398.31"/>
</g>
<!-- http&#45;&gt;cli -->
<g id="edge25" class="edge">
<title>http&#45;&gt;cli</title>
<path fill="none" stroke="black" d="M840.72,-475.91C871.93,-465.59 921.57,-443.8 943.47,-405 968.3,-361.01 947.88,-300.45 932.21,-266.1"/>
<polygon fill="black" stroke="black" points="935.22,-264.27 927.76,-256.74 928.9,-267.28 935.22,-264.27"/>
</g>
<!-- http&#45;&gt;encoding -->
<g id="edge20" class="edge">
<title>http&#45;&gt;encoding</title>
<path fill="none" stroke="black" d="M786.46,-471.09C763.74,-461.24 730.16,-447.98 699.47,-441 613.31,-421.39 363.06,-470.25 303.47,-405 244.1,-339.98 274.11,-228.53 298.87,-164.86"/>
<polygon fill="black" stroke="black" points="302.17,-166.03 302.63,-155.45 295.67,-163.44 302.17,-166.03"/>
</g>
<!-- http&#45;&gt;streams -->
<g id="edge24" class="edge">
<title>http&#45;&gt;streams</title>
<path fill="none" stroke="black" d="M786.03,-470.73C763.35,-460.8 730.02,-447.63 699.47,-441 477.41,-392.82 409.43,-462.03 189.47,-405 174.66,-401.16 159.31,-394.96 145.53,-388.47"/>
<polygon fill="black" stroke="black" points="146.79,-385.19 136.27,-383.95 143.73,-391.48 146.79,-385.19"/>
</g>
<!-- http&#45;&gt;fmt -->
<g id="edge26" class="edge">
<title>http&#45;&gt;fmt</title>
<path fill="none" stroke="black" d="M824.48,-466.42C834.4,-451.03 849.43,-427.72 862.74,-407.07"/>
<polygon fill="black" stroke="black" points="865.84,-408.72 868.32,-398.41 859.96,-404.92 865.84,-408.72"/>
</g>
<!-- http&#45;&gt;path -->
<g id="edge22" class="edge">
<title>http&#45;&gt;path</title>
<path fill="none" stroke="black" d="M786.24,-473.4C746.42,-458.02 675.53,-428.08 661.47,-405 641.36,-371.98 648.64,-354.48 661.47,-318 666.75,-302.99 676.24,-288.73 686.29,-276.58"/>
<polygon fill="black" stroke="black" points="689.02,-278.76 692.93,-268.91 683.73,-274.18 689.02,-278.76"/>
</g>
<!-- media_types -->
<g id="node25" class="node">
<title>media_types</title>
<ellipse fill="none" stroke="black" cx="554.47" cy="-361.5" rx="59.69" ry="18"/>
<text text-anchor="middle" x="554.47" y="-357.3" font-family="Times,serif" font-size="14.00">media_types</text>
</g>
<!-- http&#45;&gt;media_types -->
<g id="edge23" class="edge">
<title>http&#45;&gt;media_types</title>
<path fill="none" stroke="black" d="M786.36,-473.18C749.9,-459.03 683.3,-432.26 628.47,-405 615.13,-398.37 600.84,-390.38 588.42,-383.14"/>
<polygon fill="black" stroke="black" points="590.14,-380.09 579.74,-378.02 586.58,-386.12 590.14,-380.09"/>
</g>
<!-- ini -->
<g id="node26" class="node">
<title>ini</title>
<polygon fill="pink" stroke="black" points="1953.47,-625.5 1899.47,-625.5 1899.47,-589.5 1953.47,-589.5 1953.47,-625.5"/>
<text text-anchor="middle" x="1926.47" y="-603.3" font-family="Times,serif" font-size="14.00">ini</text>
</g>
<!-- json -->
<g id="node27" class="node">
<title>json</title>
<ellipse fill="none" stroke="black" cx="327.47" cy="-484.5" rx="39.5" ry="39.5"/>
<ellipse fill="none" stroke="black" cx="327.47" cy="-484.5" rx="43.5" ry="43.5"/>
<text text-anchor="middle" x="327.47" y="-480.3" font-family="Times,serif" font-size="14.00">json</text>
</g>
<!-- json&#45;&gt;streams -->
<g id="edge29" class="edge">
<title>json&#45;&gt;streams</title>
<path fill="none" stroke="black" d="M287.28,-467.76C251.88,-453.27 199.42,-430.24 156.47,-405 151.3,-401.96 146.03,-398.57 140.87,-395.05"/>
<polygon fill="black" stroke="black" points="142.55,-391.95 132.35,-389.08 138.53,-397.69 142.55,-391.95"/>
</g>
<!-- jsonc -->
<g id="node28" class="node">
<title>jsonc</title>
<ellipse fill="none" stroke="black" cx="852.47" cy="-607.5" rx="39.5" ry="39.5"/>
<ellipse fill="none" stroke="black" cx="852.47" cy="-607.5" rx="43.5" ry="43.5"/>
<text text-anchor="middle" x="852.47" y="-603.3" font-family="Times,serif" font-size="14.00">jsonc</text>
</g>
<!-- jsonc&#45;&gt;assert -->
<g id="edge30" class="edge">
<title>jsonc&#45;&gt;assert</title>
<path fill="none" stroke="black" d="M895.59,-600.42C1039.49,-578.35 1486.99,-494.3 1358.47,-318 1327.67,-275.75 1292.2,-307.35 1246.47,-282 1194.06,-252.95 1197.6,-220.7 1143.47,-195 1021.5,-137.08 860.56,-121.85 778.15,-117.87"/>
<polygon fill="black" stroke="black" points="778.17,-114.37 768.02,-117.42 777.86,-121.36 778.17,-114.37"/>
</g>
<!-- jsonc&#45;&gt;json -->
<g id="edge31" class="edge">
<title>jsonc&#45;&gt;json</title>
<path fill="none" stroke="black" d="M809.95,-596.7C714.51,-574.7 483.48,-521.46 379.6,-497.51"/>
<polygon fill="black" stroke="black" points="380.18,-494.06 369.65,-495.22 378.61,-500.88 380.18,-494.06"/>
</g>
<!-- log -->
<g id="node29" class="node">
<title>log</title>
<polygon fill="pink" stroke="black" points="690.47,-502.5 636.47,-502.5 636.47,-466.5 690.47,-466.5 690.47,-502.5"/>
<text text-anchor="middle" x="663.47" y="-480.3" font-family="Times,serif" font-size="14.00">log</text>
</g>
<!-- log&#45;&gt;io -->
<g id="edge33" class="edge">
<title>log&#45;&gt;io</title>
<path fill="none" stroke="black" d="M636.47,-479.45C537.19,-464.49 197.72,-412.85 189.47,-405 151.75,-369.13 148.99,-303.73 150.87,-266.79"/>
<polygon fill="black" stroke="black" points="154.36,-266.95 151.53,-256.74 147.38,-266.49 154.36,-266.95"/>
</g>
<!-- log&#45;&gt;assert -->
<g id="edge35" class="edge">
<title>log&#45;&gt;assert</title>
<path fill="none" stroke="black" d="M636.2,-480.57C595.26,-474.54 519.13,-456.64 485.47,-405 464.35,-372.61 461.7,-348.5 485.47,-318 525.76,-266.31 577.48,-323.17 628.47,-282 662.03,-254.91 649.8,-232.29 671.47,-195 678.25,-183.33 686.13,-171.07 693.71,-159.81"/>
<polygon fill="black" stroke="black" points="696.69,-161.65 699.43,-151.41 690.91,-157.71 696.69,-161.65"/>
</g>
<!-- log&#45;&gt;fmt -->
<g id="edge32" class="edge">
<title>log&#45;&gt;fmt</title>
<path fill="none" stroke="black" d="M690.62,-473.8C725.96,-460.63 789.04,-435.22 838.47,-405 842.59,-402.48 846.75,-399.68 850.83,-396.75"/>
<polygon fill="black" stroke="black" points="853.14,-399.39 859.06,-390.61 848.95,-393.78 853.14,-399.39"/>
</g>
<!-- log&#45;&gt;fs -->
<g id="edge34" class="edge">
<title>log&#45;&gt;fs</title>
<path fill="none" stroke="black" d="M680.83,-466.42C698.4,-449.14 726.12,-421.87 748.76,-399.6"/>
<polygon fill="black" stroke="black" points="751.24,-402.07 755.91,-392.56 746.33,-397.08 751.24,-402.07"/>
</g>
<!-- media_\ntypes -->
<g id="node30" class="node">
<title>media_\ntypes</title>
<ellipse fill="none" stroke="black" cx="2015.47" cy="-607.5" rx="39.5" ry="39.5"/>
<ellipse fill="none" stroke="black" cx="2015.47" cy="-607.5" rx="43.5" ry="43.5"/>
<text text-anchor="middle" x="2015.47" y="-611.7" font-family="Times,serif" font-size="14.00">media_</text>
<text text-anchor="middle" x="2015.47" y="-594.9" font-family="Times,serif" font-size="14.00">types</text>
</g>
<!-- msgpack -->
<g id="node31" class="node">
<title>msgpack</title>
<polygon fill="pink" stroke="black" points="108.24,-256.5 42.71,-256.5 42.71,-220.5 108.24,-220.5 108.24,-256.5"/>
<text text-anchor="middle" x="75.47" y="-234.3" font-family="Times,serif" font-size="14.00">msgpack</text>
</g>
<!-- msgpack&#45;&gt;bytes -->
<g id="edge36" class="edge">
<title>msgpack&#45;&gt;bytes</title>
<path fill="none" stroke="black" d="M80.98,-220.42C85.48,-206.43 92.1,-185.9 98.27,-166.77"/>
<polygon fill="black" stroke="black" points="101.61,-167.83 101.34,-157.24 94.94,-165.68 101.61,-167.83"/>
</g>
<!-- net -->
<g id="node32" class="node">
<title>net</title>
<polygon fill="pink" stroke="black" points="2131.47,-625.5 2077.47,-625.5 2077.47,-589.5 2131.47,-589.5 2131.47,-625.5"/>
<text text-anchor="middle" x="2104.47" y="-603.3" font-family="Times,serif" font-size="14.00">net</text>
</g>
<!-- regexp -->
<g id="node33" class="node">
<title>regexp</title>
<polygon fill="pink" stroke="black" points="2203.56,-625.5 2149.38,-625.5 2149.38,-589.5 2203.56,-589.5 2203.56,-625.5"/>
<text text-anchor="middle" x="2176.47" y="-603.3" font-family="Times,serif" font-size="14.00">regexp</text>
</g>
<!-- semver -->
<g id="node34" class="node">
<title>semver</title>
<polygon fill="pink" stroke="black" points="2277.9,-625.5 2221.04,-625.5 2221.04,-589.5 2277.9,-589.5 2277.9,-625.5"/>
<text text-anchor="middle" x="2249.47" y="-603.3" font-family="Times,serif" font-size="14.00">semver</text>
</g>
<!-- testing -->
<g id="node35" class="node">
<title>testing</title>
<ellipse fill="none" stroke="black" cx="1111.47" cy="-484.5" rx="39.5" ry="39.5"/>
<ellipse fill="none" stroke="black" cx="1111.47" cy="-484.5" rx="43.5" ry="43.5"/>
<text text-anchor="middle" x="1111.47" y="-480.3" font-family="Times,serif" font-size="14.00">testing</text>
</g>
<!-- testing&#45;&gt;assert -->
<g id="edge41" class="edge">
<title>testing&#45;&gt;assert</title>
<path fill="none" stroke="black" d="M1139.76,-451.02C1149.6,-437.68 1159.42,-421.51 1164.47,-405 1193.38,-310.51 1171.72,-252.65 1091.47,-195 1041.71,-159.26 867.02,-133.67 777.79,-122.6"/>
<polygon fill="black" stroke="black" points="777.96,-119.09 767.61,-121.35 777.11,-126.04 777.96,-119.09"/>
</g>
<!-- testing&#45;&gt;internal -->
<g id="edge42" class="edge">
<title>testing&#45;&gt;internal</title>
<path fill="none" stroke="black" d="M1155.24,-481.52C1210.12,-476.69 1303.65,-460.26 1358.47,-405 1425.27,-337.66 1454.42,-270.09 1396.47,-195 1317.1,-92.17 895.48,-37.78 763.8,-23.11"/>
<polygon fill="black" stroke="black" points="764.07,-19.62 753.75,-22.01 763.31,-26.58 764.07,-19.62"/>
</g>
<!-- testing&#45;&gt;async -->
<g id="edge47" class="edge">
<title>testing&#45;&gt;async</title>
<path fill="none" stroke="black" d="M1111.47,-440.84C1111.47,-432.62 1111.47,-423.91 1111.47,-415.41"/>
<polygon fill="black" stroke="black" points="1114.97,-415.18 1111.47,-405.18 1107.97,-415.18 1114.97,-415.18"/>
</g>
<!-- testing&#45;&gt;fmt -->
<g id="edge45" class="edge">
<title>testing&#45;&gt;fmt</title>
<path fill="none" stroke="black" d="M1071.47,-466.56C1038.03,-451.82 989.5,-429.09 949.47,-405 944.33,-401.91 939.08,-398.48 933.94,-394.95"/>
<polygon fill="black" stroke="black" points="935.61,-391.85 925.42,-388.95 931.58,-397.57 935.61,-391.85"/>
</g>
<!-- testing&#45;&gt;fs -->
<g id="edge44" class="edge">
<title>testing&#45;&gt;fs</title>
<path fill="none" stroke="black" d="M1068.3,-476.67C1012.72,-466.65 914.26,-444.71 838.47,-405 834.41,-402.87 830.37,-400.4 826.44,-397.73"/>
<polygon fill="black" stroke="black" points="828.2,-394.68 818.05,-391.64 824.09,-400.35 828.2,-394.68"/>
</g>
<!-- testing&#45;&gt;path -->
<g id="edge43" class="edge">
<title>testing&#45;&gt;path</title>
<path fill="none" stroke="black" d="M1084.84,-449.59C1054.25,-412.66 1000.84,-354.05 943.47,-318 891.06,-285.07 822.92,-263.43 776.66,-251.37"/>
<polygon fill="black" stroke="black" points="777.4,-247.95 766.84,-248.87 775.67,-254.73 777.4,-247.95"/>
</g>
<!-- data_structures -->
<g id="node36" class="node">
<title>data_structures</title>
<ellipse fill="none" stroke="black" cx="1280.47" cy="-361.5" rx="69.48" ry="18"/>
<text text-anchor="middle" x="1280.47" y="-357.3" font-family="Times,serif" font-size="14.00">data_structures</text>
</g>
<!-- testing&#45;&gt;data_structures -->
<g id="edge46" class="edge">
<title>testing&#45;&gt;data_structures</title>
<path fill="none" stroke="black" d="M1146.49,-458.43C1176.93,-436.63 1220.61,-405.36 1249.73,-384.51"/>
<polygon fill="black" stroke="black" points="1251.81,-387.33 1257.9,-378.66 1247.73,-381.64 1251.81,-387.33"/>
</g>
<!-- text -->
<g id="node37" class="node">
<title>text</title>
<polygon fill="pink" stroke="black" points="1309.47,-256.5 1255.47,-256.5 1255.47,-220.5 1309.47,-220.5 1309.47,-256.5"/>
<text text-anchor="middle" x="1282.47" y="-234.3" font-family="Times,serif" font-size="14.00">text</text>
</g>
<!-- text&#45;&gt;assert -->
<g id="edge48" class="edge">
<title>text&#45;&gt;assert</title>
<path fill="none" stroke="black" d="M1270.37,-220.34C1263.06,-211.32 1252.95,-200.93 1241.47,-195 1161.23,-153.53 893.35,-129.1 778.02,-120.27"/>
<polygon fill="black" stroke="black" points="778.24,-116.78 768.01,-119.52 777.72,-123.76 778.24,-116.78"/>
</g>
<!-- ulid -->
<g id="node38" class="node">
<title>ulid</title>
<polygon fill="pink" stroke="black" points="2349.47,-625.5 2295.47,-625.5 2295.47,-589.5 2349.47,-589.5 2349.47,-625.5"/>
<text text-anchor="middle" x="2322.47" y="-603.3" font-family="Times,serif" font-size="14.00">ulid</text>
</g>
<!-- url -->
<g id="node39" class="node">
<title>url</title>
<polygon fill="pink" stroke="black" points="724.47,-379.5 670.47,-379.5 670.47,-343.5 724.47,-343.5 724.47,-379.5"/>
<text text-anchor="middle" x="697.47" y="-357.3" font-family="Times,serif" font-size="14.00">url</text>
</g>
<!-- url&#45;&gt;path -->
<g id="edge50" class="edge">
<title>url&#45;&gt;path</title>
<path fill="none" stroke="black" d="M701.28,-343.42C704.34,-329.73 708.79,-309.76 712.98,-290.98"/>
<polygon fill="black" stroke="black" points="716.45,-291.53 715.21,-281.01 709.61,-290.01 716.45,-291.53"/>
</g>
<!-- uuid -->
<g id="node40" class="node">
<title>uuid</title>
<ellipse fill="none" stroke="black" cx="356.47" cy="-361.5" rx="39.5" ry="39.5"/>
<ellipse fill="none" stroke="black" cx="356.47" cy="-361.5" rx="43.5" ry="43.5"/>
<text text-anchor="middle" x="356.47" y="-357.3" font-family="Times,serif" font-size="14.00">uuid</text>
</g>
<!-- uuid&#45;&gt;assert -->
<g id="edge52" class="edge">
<title>uuid&#45;&gt;assert</title>
<path fill="none" stroke="black" d="M389.46,-333.05C397.31,-327.47 405.9,-322.07 414.47,-318 471.72,-290.78 502.43,-320.91 552.47,-282 587.33,-254.89 570.2,-227.15 600.47,-195 622.02,-172.12 651.59,-153.06 676.45,-139.46"/>
<polygon fill="black" stroke="black" points="678.2,-142.49 685.37,-134.69 674.9,-136.31 678.2,-142.49"/>
</g>
<!-- uuid&#45;&gt;bytes -->
<g id="edge51" class="edge">
<title>uuid&#45;&gt;bytes</title>
<path fill="none" stroke="black" d="M331.34,-325.88C305.15,-290.95 261.95,-236.42 218.47,-195 200.07,-177.47 177.78,-160.2 158.57,-146.35"/>
<polygon fill="black" stroke="black" points="160.44,-143.38 150.26,-140.43 156.38,-149.08 160.44,-143.38"/>
</g>
<!-- uuid&#45;&gt;crypto -->
<g id="edge53" class="edge">
<title>uuid&#45;&gt;crypto</title>
<path fill="none" stroke="black" d="M356.47,-317.84C356.47,-309.62 356.47,-300.91 356.47,-292.41"/>
<polygon fill="black" stroke="black" points="359.97,-292.18 356.47,-282.18 352.97,-292.18 359.97,-292.18"/>
</g>
<!-- webgpu -->
<g id="node41" class="node">
<title>webgpu</title>
<polygon fill="pink" stroke="black" points="1387.79,-256.5 1327.15,-256.5 1327.15,-220.5 1387.79,-220.5 1387.79,-256.5"/>
<text text-anchor="middle" x="1357.47" y="-234.3" font-family="Times,serif" font-size="14.00">webgpu</text>
</g>
<!-- webgpu&#45;&gt;assert -->
<g id="edge54" class="edge">
<title>webgpu&#45;&gt;assert</title>
<path fill="none" stroke="black" d="M1346.17,-220.26C1339.29,-211.21 1329.66,-200.83 1318.47,-195 1224.91,-146.31 906.82,-125.5 778.65,-118.95"/>
<polygon fill="black" stroke="black" points="778.46,-115.44 768.3,-118.43 778.11,-122.43 778.46,-115.44"/>
</g>
</g>
</svg>
