<?xml version="1.0" encoding="UTF-8" standalone="no"?>
<!DOCTYPE svg PUBLIC "-//W3C//DTD SVG 1.1//EN"
 "http://www.w3.org/Graphics/SVG/1.1/DTD/svg11.dtd">
<!-- Generated by graphviz version 2.44.0 (20200518.1210)
 -->
<!-- Title: std_deps Pages: 1 -->
<svg width="2658pt" height="710pt"
 viewBox="0.00 0.00 2658.20 710.00" xmlns="http://www.w3.org/2000/svg" xmlns:xlink="http://www.w3.org/1999/xlink">
<g id="graph0" class="graph" transform="scale(1 1) rotate(0) translate(4 706)">
<title>std_deps</title>
<polygon fill="white" stroke="transparent" points="-4,4 -4,-706 2654.2,-706 2654.2,4 -4,4"/>
<!-- archive -->
<g id="node1" class="node">
<title>archive</title>
<polygon fill="pink" stroke="black" points="608.89,-430.5 551.5,-430.5 551.5,-394.5 608.89,-394.5 608.89,-430.5"/>
<text text-anchor="middle" x="580.2" y="-408.3" font-family="Times,serif" font-size="14.00">archive</text>
</g>
<!-- io -->
<g id="node2" class="node">
<title>io</title>
<polygon fill="pink" stroke="black" points="235.2,-307.5 181.2,-307.5 181.2,-271.5 235.2,-271.5 235.2,-307.5"/>
<text text-anchor="middle" x="208.2" y="-285.3" font-family="Times,serif" font-size="14.00">io</text>
</g>
<!-- archive&#45;&gt;io -->
<g id="edge1" class="edge">
<title>archive&#45;&gt;io</title>
<path fill="none" stroke="black" d="M569.69,-394.22C563.22,-385.16 554.09,-374.77 543.2,-369 424.92,-306.34 362.05,-396.45 244.2,-333 236.65,-328.94 230.02,-322.6 224.57,-316.04"/>
<polygon fill="black" stroke="black" points="227.14,-313.64 218.32,-307.78 221.56,-317.87 227.14,-313.64"/>
</g>
<!-- assert -->
<g id="node3" class="node">
<title>assert</title>
<ellipse fill="none" stroke="black" cx="652.2" cy="-166.5" rx="39.5" ry="39.5"/>
<ellipse fill="none" stroke="black" cx="652.2" cy="-166.5" rx="43.5" ry="43.5"/>
<text text-anchor="middle" x="652.2" y="-162.3" font-family="Times,serif" font-size="14.00">assert</text>
</g>
<!-- archive&#45;&gt;assert -->
<g id="edge2" class="edge">
<title>archive&#45;&gt;assert</title>
<path fill="none" stroke="black" d="M587.15,-394.21C593.36,-378.42 602.5,-354.35 609.2,-333 621.08,-295.14 632.27,-251.69 640.26,-218.82"/>
<polygon fill="black" stroke="black" points="643.7,-219.51 642.64,-208.97 636.89,-217.87 643.7,-219.51"/>
</g>
<!-- io&#45;&gt;assert -->
<g id="edge24" class="edge">
<title>io&#45;&gt;assert</title>
<path fill="none" stroke="black" d="M218.78,-271.08C225.08,-262.21 233.85,-252.05 244.2,-246 357.66,-179.67 516.29,-167.99 598.32,-166.77"/>
<polygon fill="black" stroke="black" points="598.45,-170.27 608.42,-166.67 598.38,-163.27 598.45,-170.27"/>
</g>
<!-- bytes -->
<g id="node6" class="node">
<title>bytes</title>
<ellipse fill="none" stroke="black" cx="85.2" cy="-166.5" rx="39.5" ry="39.5"/>
<ellipse fill="none" stroke="black" cx="85.2" cy="-166.5" rx="43.5" ry="43.5"/>
<text text-anchor="middle" x="85.2" y="-162.3" font-family="Times,serif" font-size="14.00">bytes</text>
</g>
<!-- io&#45;&gt;bytes -->
<g id="edge25" class="edge">
<title>io&#45;&gt;bytes</title>
<path fill="none" stroke="black" d="M190.83,-271.42C173.27,-254.14 145.54,-226.87 122.91,-204.6"/>
<polygon fill="black" stroke="black" points="125.34,-202.08 115.75,-197.56 120.43,-207.07 125.34,-202.08"/>
</g>
<!-- internal -->
<g id="node4" class="node">
<title>internal</title>
<ellipse fill="none" stroke="black" cx="571.2" cy="-43.5" rx="39.5" ry="39.5"/>
<ellipse fill="none" stroke="black" cx="571.2" cy="-43.5" rx="43.5" ry="43.5"/>
<text text-anchor="middle" x="571.2" y="-39.3" font-family="Times,serif" font-size="14.00">internal</text>
</g>
<!-- assert&#45;&gt;internal -->
<g id="edge3" class="edge">
<title>assert&#45;&gt;internal</title>
<path fill="none" stroke="black" d="M628.33,-129.85C619.76,-117.04 609.98,-102.43 600.96,-88.97"/>
<polygon fill="black" stroke="black" points="603.64,-86.68 595.17,-80.31 597.83,-90.57 603.64,-86.68"/>
</g>
<!-- async -->
<g id="node5" class="node">
<title>async</title>
<ellipse fill="none" stroke="black" cx="747.2" cy="-412.5" rx="39.5" ry="39.5"/>
<ellipse fill="none" stroke="black" cx="747.2" cy="-412.5" rx="43.5" ry="43.5"/>
<text text-anchor="middle" x="747.2" y="-408.3" font-family="Times,serif" font-size="14.00">async</text>
</g>
<!-- async&#45;&gt;assert -->
<g id="edge4" class="edge">
<title>async&#45;&gt;assert</title>
<path fill="none" stroke="black" d="M762.45,-371.4C773.16,-336.36 782.34,-285.12 762.2,-246 749.25,-220.86 724.12,-202 701.15,-189.07"/>
<polygon fill="black" stroke="black" points="702.61,-185.88 692.14,-184.23 699.3,-192.05 702.61,-185.88"/>
</g>
<!-- cli -->
<g id="node7" class="node">
<title>cli</title>
<polygon fill="pink" stroke="black" points="753.2,-307.5 699.2,-307.5 699.2,-271.5 753.2,-271.5 753.2,-307.5"/>
<text text-anchor="middle" x="726.2" y="-285.3" font-family="Times,serif" font-size="14.00">cli</text>
</g>
<!-- cli&#45;&gt;assert -->
<g id="edge5" class="edge">
<title>cli&#45;&gt;assert</title>
<path fill="none" stroke="black" d="M715.75,-271.42C706.41,-256.14 692.29,-233.06 679.73,-212.53"/>
<polygon fill="black" stroke="black" points="682.67,-210.62 674.47,-203.91 676.7,-214.27 682.67,-210.62"/>
</g>
<!-- collections -->
<g id="node8" class="node">
<title>collections</title>
<ellipse fill="none" stroke="black" cx="1772.2" cy="-412.5" rx="39.5" ry="39.5"/>
<ellipse fill="none" stroke="black" cx="1772.2" cy="-412.5" rx="43.5" ry="43.5"/>
<text text-anchor="middle" x="1772.2" y="-408.3" font-family="Times,serif" font-size="14.00">collections</text>
</g>
<!-- crypto -->
<g id="node9" class="node">
<title>crypto</title>
<ellipse fill="none" stroke="black" cx="297.2" cy="-289.5" rx="39.5" ry="39.5"/>
<ellipse fill="none" stroke="black" cx="297.2" cy="-289.5" rx="43.5" ry="43.5"/>
<text text-anchor="middle" x="297.2" y="-285.3" font-family="Times,serif" font-size="14.00">crypto</text>
</g>
<!-- crypto&#45;&gt;assert -->
<g id="edge6" class="edge">
<title>crypto&#45;&gt;assert</title>
<path fill="none" stroke="black" d="M329.08,-259.44C335.72,-254.42 342.92,-249.65 350.2,-246 431.72,-205.09 536.65,-184.04 598.93,-174.42"/>
<polygon fill="black" stroke="black" points="599.55,-177.86 608.92,-172.91 598.51,-170.94 599.55,-177.86"/>
</g>
<!-- encoding -->
<g id="node10" class="node">
<title>encoding</title>
<ellipse fill="none" stroke="black" cx="244.2" cy="-166.5" rx="39.5" ry="39.5"/>
<ellipse fill="none" stroke="black" cx="244.2" cy="-166.5" rx="43.5" ry="43.5"/>
<text text-anchor="middle" x="244.2" y="-162.3" font-family="Times,serif" font-size="14.00">encoding</text>
</g>
<!-- crypto&#45;&gt;encoding -->
<g id="edge7" class="edge">
<title>crypto&#45;&gt;encoding</title>
<path fill="none" stroke="black" d="M279.99,-249.21C275.31,-238.54 270.2,-226.86 265.33,-215.75"/>
<polygon fill="black" stroke="black" points="268.54,-214.34 261.32,-206.59 262.12,-217.15 268.54,-214.34"/>
</g>
<!-- csv -->
<g id="node11" class="node">
<title>csv</title>
<ellipse fill="none" stroke="black" cx="345.2" cy="-535.5" rx="39.5" ry="39.5"/>
<ellipse fill="none" stroke="black" cx="345.2" cy="-535.5" rx="43.5" ry="43.5"/>
<text text-anchor="middle" x="345.2" y="-531.3" font-family="Times,serif" font-size="14.00">csv</text>
</g>
<!-- csv&#45;&gt;assert -->
<g id="edge8" class="edge">
<title>csv&#45;&gt;assert</title>
<path fill="none" stroke="black" d="M352.82,-492.55C360.98,-456.8 376.77,-405.55 405.2,-369 422.68,-346.52 439.8,-354.73 458.2,-333 485.7,-300.52 468.72,-276.7 498.2,-246 526.48,-216.55 568.2,-196.23 601.09,-183.65"/>
<polygon fill="black" stroke="black" points="602.38,-186.91 610.55,-180.15 599.96,-180.34 602.38,-186.91"/>
</g>
<!-- streams -->
<g id="node12" class="node">
<title>streams</title>
<ellipse fill="none" stroke="black" cx="123.2" cy="-412.5" rx="39.5" ry="39.5"/>
<ellipse fill="none" stroke="black" cx="123.2" cy="-412.5" rx="43.5" ry="43.5"/>
<text text-anchor="middle" x="123.2" y="-408.3" font-family="Times,serif" font-size="14.00">streams</text>
</g>
<!-- csv&#45;&gt;streams -->
<g id="edge9" class="edge">
<title>csv&#45;&gt;streams</title>
<path fill="none" stroke="black" d="M305.36,-517.92C271.47,-503.24 221.96,-480.4 181.2,-456 176.05,-452.92 170.79,-449.5 165.65,-445.97"/>
<polygon fill="black" stroke="black" points="167.32,-442.87 157.13,-439.98 163.3,-448.6 167.32,-442.87"/>
</g>
<!-- streams&#45;&gt;io -->
<g id="edge37" class="edge">
<title>streams&#45;&gt;io</title>
<path fill="none" stroke="black" d="M147.78,-376.5C161.31,-357.24 177.8,-333.77 190.14,-316.21"/>
<polygon fill="black" stroke="black" points="193.28,-317.82 196.17,-307.62 187.56,-313.79 193.28,-317.82"/>
</g>
<!-- streams&#45;&gt;assert -->
<g id="edge35" class="edge">
<title>streams&#45;&gt;assert</title>
<path fill="none" stroke="black" d="M163.81,-396.85C189.04,-388.07 222.26,-377.08 252.2,-369 326.76,-348.89 361.2,-380.37 422.2,-333 456.26,-306.55 433.77,-275.55 465.2,-246 502.88,-210.57 558.88,-189.96 599.78,-178.82"/>
<polygon fill="black" stroke="black" points="600.78,-182.17 609.57,-176.25 599.01,-175.4 600.78,-182.17"/>
</g>
<!-- streams&#45;&gt;bytes -->
<g id="edge36" class="edge">
<title>streams&#45;&gt;bytes</title>
<path fill="none" stroke="black" d="M83.18,-395C57.81,-382.18 27.06,-361.72 12.2,-333 -5.58,-298.66 -1.95,-281.99 12.2,-246 18.86,-229.06 31.08,-213.61 43.65,-200.97"/>
<polygon fill="black" stroke="black" points="46.26,-203.32 51.05,-193.87 41.41,-198.27 46.26,-203.32"/>
</g>
<!-- data_\nstructures -->
<g id="node13" class="node">
<title>data_\nstructures</title>
<polygon fill="pink" stroke="black" points="1956.62,-679.1 1885.77,-679.1 1885.77,-637.9 1956.62,-637.9 1956.62,-679.1"/>
<text text-anchor="middle" x="1921.2" y="-662.7" font-family="Times,serif" font-size="14.00">data_</text>
<text text-anchor="middle" x="1921.2" y="-645.9" font-family="Times,serif" font-size="14.00">structures</text>
</g>
<!-- datetime -->
<g id="node14" class="node">
<title>datetime</title>
<polygon fill="pink" stroke="black" points="2038.4,-676.5 1973.99,-676.5 1973.99,-640.5 2038.4,-640.5 2038.4,-676.5"/>
<text text-anchor="middle" x="2006.2" y="-654.3" font-family="Times,serif" font-size="14.00">datetime</text>
</g>
<!-- dotenv -->
<g id="node15" class="node">
<title>dotenv</title>
<polygon fill="pink" stroke="black" points="2110.3,-676.5 2056.09,-676.5 2056.09,-640.5 2110.3,-640.5 2110.3,-676.5"/>
<text text-anchor="middle" x="2083.2" y="-654.3" font-family="Times,serif" font-size="14.00">dotenv</text>
</g>
<!-- expect -->
<g id="node16" class="node">
<title>expect</title>
<polygon fill="pink" stroke="black" points="413.2,-307.5 359.2,-307.5 359.2,-271.5 413.2,-271.5 413.2,-307.5"/>
<text text-anchor="middle" x="386.2" y="-285.3" font-family="Times,serif" font-size="14.00">expect</text>
</g>
<!-- expect&#45;&gt;assert -->
<g id="edge10" class="edge">
<title>expect&#45;&gt;assert</title>
<path fill="none" stroke="black" d="M399.48,-271.3C406.86,-262.71 416.66,-252.74 427.2,-246 481.03,-211.53 551.84,-190.07 599.53,-178.48"/>
<polygon fill="black" stroke="black" points="600.42,-181.87 609.34,-176.15 598.8,-175.05 600.42,-181.87"/>
</g>
<!-- expect&#45;&gt;internal -->
<g id="edge11" class="edge">
<title>expect&#45;&gt;internal</title>
<path fill="none" stroke="black" d="M399.21,-271.34C427.99,-233.37 497.81,-141.3 539.09,-86.84"/>
<polygon fill="black" stroke="black" points="541.96,-88.85 545.22,-78.76 536.39,-84.62 541.96,-88.85"/>
</g>
<!-- fmt -->
<g id="node17" class="node">
<title>fmt</title>
<ellipse fill="none" stroke="black" cx="1001.2" cy="-412.5" rx="39.5" ry="39.5"/>
<ellipse fill="none" stroke="black" cx="1001.2" cy="-412.5" rx="43.5" ry="43.5"/>
<text text-anchor="middle" x="1001.2" y="-408.3" font-family="Times,serif" font-size="14.00">fmt</text>
</g>
<!-- front_\nmatter -->
<g id="node18" class="node">
<title>front_\nmatter</title>
<ellipse fill="none" stroke="black" cx="1824.2" cy="-658.5" rx="39.5" ry="39.5"/>
<ellipse fill="none" stroke="black" cx="1824.2" cy="-658.5" rx="43.5" ry="43.5"/>
<text text-anchor="middle" x="1824.2" y="-662.7" font-family="Times,serif" font-size="14.00">front_</text>
<text text-anchor="middle" x="1824.2" y="-645.9" font-family="Times,serif" font-size="14.00">matter</text>
</g>
<!-- toml -->
<g id="node19" class="node">
<title>toml</title>
<ellipse fill="none" stroke="black" cx="1772.2" cy="-535.5" rx="39.5" ry="39.5"/>
<ellipse fill="none" stroke="black" cx="1772.2" cy="-535.5" rx="43.5" ry="43.5"/>
<text text-anchor="middle" x="1772.2" y="-531.3" font-family="Times,serif" font-size="14.00">toml</text>
</g>
<!-- front_\nmatter&#45;&gt;toml -->
<g id="edge12" class="edge">
<title>front_\nmatter&#45;&gt;toml</title>
<path fill="none" stroke="black" d="M1807.31,-618.21C1802.82,-607.75 1797.91,-596.32 1793.22,-585.42"/>
<polygon fill="black" stroke="black" points="1796.34,-583.81 1789.17,-576 1789.91,-586.57 1796.34,-583.81"/>
</g>
<!-- yaml -->
<g id="node20" class="node">
<title>yaml</title>
<ellipse fill="none" stroke="black" cx="1877.2" cy="-535.5" rx="39.5" ry="39.5"/>
<ellipse fill="none" stroke="black" cx="1877.2" cy="-535.5" rx="43.5" ry="43.5"/>
<text text-anchor="middle" x="1877.2" y="-531.3" font-family="Times,serif" font-size="14.00">yaml</text>
</g>
<!-- front_\nmatter&#45;&gt;yaml -->
<g id="edge13" class="edge">
<title>front_\nmatter&#45;&gt;yaml</title>
<path fill="none" stroke="black" d="M1841.4,-618.21C1846.08,-607.54 1851.2,-595.86 1856.06,-584.75"/>
<polygon fill="black" stroke="black" points="1859.27,-586.15 1860.08,-575.59 1852.86,-583.34 1859.27,-586.15"/>
</g>
<!-- toml&#45;&gt;collections -->
<g id="edge45" class="edge">
<title>toml&#45;&gt;collections</title>
<path fill="none" stroke="black" d="M1772.2,-491.84C1772.2,-483.62 1772.2,-474.91 1772.2,-466.41"/>
<polygon fill="black" stroke="black" points="1775.7,-466.18 1772.2,-456.18 1768.7,-466.18 1775.7,-466.18"/>
</g>
<!-- fs -->
<g id="node21" class="node">
<title>fs</title>
<ellipse fill="none" stroke="black" cx="1106.2" cy="-412.5" rx="39.5" ry="39.5"/>
<ellipse fill="none" stroke="black" cx="1106.2" cy="-412.5" rx="43.5" ry="43.5"/>
<text text-anchor="middle" x="1106.2" y="-408.3" font-family="Times,serif" font-size="14.00">fs</text>
</g>
<!-- fs&#45;&gt;assert -->
<g id="edge15" class="edge">
<title>fs&#45;&gt;assert</title>
<path fill="none" stroke="black" d="M1084.37,-374.7C1059.89,-336.69 1016.67,-278.47 964.2,-246 883.04,-195.79 771.24,-177.63 705.84,-171.11"/>
<polygon fill="black" stroke="black" points="706.04,-167.61 695.76,-170.16 705.39,-174.58 706.04,-167.61"/>
</g>
<!-- path -->
<g id="node22" class="node">
<title>path</title>
<ellipse fill="none" stroke="black" cx="912.2" cy="-289.5" rx="39.5" ry="39.5"/>
<ellipse fill="none" stroke="black" cx="912.2" cy="-289.5" rx="43.5" ry="43.5"/>
<text text-anchor="middle" x="912.2" y="-285.3" font-family="Times,serif" font-size="14.00">path</text>
</g>
<!-- fs&#45;&gt;path -->
<g id="edge14" class="edge">
<title>fs&#45;&gt;path</title>
<path fill="none" stroke="black" d="M1073.2,-383.64C1066.71,-378.57 1059.85,-373.48 1053.2,-369 1023.33,-348.92 987.92,-329.22 960.07,-314.58"/>
<polygon fill="black" stroke="black" points="961.41,-311.33 950.93,-309.82 958.18,-317.54 961.41,-311.33"/>
</g>
<!-- path&#45;&gt;assert -->
<g id="edge34" class="edge">
<title>path&#45;&gt;assert</title>
<path fill="none" stroke="black" d="M874.36,-267.31C861.42,-260.29 846.79,-252.59 833.2,-246 789.34,-224.74 738.32,-202.86 701.65,-187.62"/>
<polygon fill="black" stroke="black" points="702.76,-184.29 692.18,-183.7 700.08,-190.76 702.76,-184.29"/>
</g>
<!-- html -->
<g id="node23" class="node">
<title>html</title>
<polygon fill="pink" stroke="black" points="2182.2,-676.5 2128.2,-676.5 2128.2,-640.5 2182.2,-640.5 2182.2,-676.5"/>
<text text-anchor="middle" x="2155.2" y="-654.3" font-family="Times,serif" font-size="14.00">html</text>
</g>
<!-- http -->
<g id="node24" class="node">
<title>http</title>
<polygon fill="pink" stroke="black" points="683.2,-553.5 629.2,-553.5 629.2,-517.5 683.2,-517.5 683.2,-553.5"/>
<text text-anchor="middle" x="656.2" y="-531.3" font-family="Times,serif" font-size="14.00">http</text>
</g>
<!-- http&#45;&gt;assert -->
<g id="edge16" class="edge">
<title>http&#45;&gt;assert</title>
<path fill="none" stroke="black" d="M656.01,-517.29C655.44,-464.64 653.69,-304.24 652.77,-220.17"/>
<polygon fill="black" stroke="black" points="656.27,-220.02 652.66,-210.06 649.27,-220.1 656.27,-220.02"/>
</g>
<!-- http&#45;&gt;async -->
<g id="edge18" class="edge">
<title>http&#45;&gt;async</title>
<path fill="none" stroke="black" d="M669.04,-517.42C680.98,-501.55 699.25,-477.25 715.13,-456.14"/>
<polygon fill="black" stroke="black" points="718.09,-458.02 721.31,-447.92 712.5,-453.81 718.09,-458.02"/>
</g>
<!-- http&#45;&gt;cli -->
<g id="edge22" class="edge">
<title>http&#45;&gt;cli</title>
<path fill="none" stroke="black" d="M659.19,-517.34C664.69,-487.01 677.39,-422.12 694.2,-369 699.8,-351.27 707.67,-331.93 714.2,-316.87"/>
<polygon fill="black" stroke="black" points="717.43,-318.23 718.26,-307.66 711.02,-315.4 717.43,-318.23"/>
</g>
<!-- http&#45;&gt;encoding -->
<g id="edge17" class="edge">
<title>http&#45;&gt;encoding</title>
<path fill="none" stroke="black" d="M629.12,-530.14C533.54,-514.68 217.2,-463.1 209.2,-456 166.51,-418.09 180.51,-389.48 172.2,-333 166.57,-294.75 158.17,-282.03 172.2,-246 178.7,-229.29 190.61,-213.97 202.89,-201.4"/>
<polygon fill="black" stroke="black" points="205.43,-203.81 210.13,-194.32 200.53,-198.81 205.43,-203.81"/>
</g>
<!-- http&#45;&gt;streams -->
<g id="edge21" class="edge">
<title>http&#45;&gt;streams</title>
<path fill="none" stroke="black" d="M629.04,-530.03C528.4,-513.48 182.51,-456.55 181.2,-456 175.46,-453.59 169.75,-450.5 164.29,-447.09"/>
<polygon fill="black" stroke="black" points="166.19,-444.16 155.93,-441.53 162.31,-449.99 166.19,-444.16"/>
</g>
<!-- http&#45;&gt;fmt -->
<g id="edge23" class="edge">
<title>http&#45;&gt;fmt</title>
<path fill="none" stroke="black" d="M683.3,-531.02C736.51,-523.39 857.37,-502.05 948.2,-456 952.51,-453.81 956.79,-451.24 960.96,-448.46"/>
<polygon fill="black" stroke="black" points="963.18,-451.17 969.29,-442.51 959.12,-445.47 963.18,-451.17"/>
</g>
<!-- http&#45;&gt;path -->
<g id="edge19" class="edge">
<title>http&#45;&gt;path</title>
<path fill="none" stroke="black" d="M683.33,-524.16C713.99,-511.5 764.17,-487.78 799.2,-456 836.61,-422.05 867.93,-373.38 888.04,-337.6"/>
<polygon fill="black" stroke="black" points="891.13,-339.24 892.91,-328.8 885,-335.85 891.13,-339.24"/>
</g>
<!-- media_types -->
<g id="node25" class="node">
<title>media_types</title>
<ellipse fill="none" stroke="black" cx="474.2" cy="-412.5" rx="59.69" ry="18"/>
<text text-anchor="middle" x="474.2" y="-408.3" font-family="Times,serif" font-size="14.00">media_types</text>
</g>
<!-- http&#45;&gt;media_types -->
<g id="edge20" class="edge">
<title>http&#45;&gt;media_types</title>
<path fill="none" stroke="black" d="M630.51,-517.42C597.9,-495.74 541.64,-458.34 506.25,-434.81"/>
<polygon fill="black" stroke="black" points="508,-431.77 497.73,-429.15 504.12,-437.6 508,-431.77"/>
</g>
<!-- ini -->
<g id="node26" class="node">
<title>ini</title>
<polygon fill="pink" stroke="black" points="2254.2,-676.5 2200.2,-676.5 2200.2,-640.5 2254.2,-640.5 2254.2,-676.5"/>
<text text-anchor="middle" x="2227.2" y="-654.3" font-family="Times,serif" font-size="14.00">ini</text>
</g>
<!-- json -->
<g id="node27" class="node">
<title>json</title>
<ellipse fill="none" stroke="black" cx="157.2" cy="-535.5" rx="39.5" ry="39.5"/>
<ellipse fill="none" stroke="black" cx="157.2" cy="-535.5" rx="43.5" ry="43.5"/>
<text text-anchor="middle" x="157.2" y="-531.3" font-family="Times,serif" font-size="14.00">json</text>
</g>
<!-- json&#45;&gt;streams -->
<g id="edge26" class="edge">
<title>json&#45;&gt;streams</title>
<path fill="none" stroke="black" d="M145.69,-493.53C143.08,-484.27 140.29,-474.33 137.59,-464.71"/>
<polygon fill="black" stroke="black" points="140.89,-463.51 134.81,-454.83 134.15,-465.41 140.89,-463.51"/>
</g>
<!-- jsonc -->
<g id="node28" class="node">
<title>jsonc</title>
<ellipse fill="none" stroke="black" cx="1171.2" cy="-658.5" rx="39.5" ry="39.5"/>
<ellipse fill="none" stroke="black" cx="1171.2" cy="-658.5" rx="43.5" ry="43.5"/>
<text text-anchor="middle" x="1171.2" y="-654.3" font-family="Times,serif" font-size="14.00">jsonc</text>
</g>
<!-- jsonc&#45;&gt;assert -->
<g id="edge27" class="edge">
<title>jsonc&#45;&gt;assert</title>
<path fill="none" stroke="black" d="M1209.01,-636.71C1288.53,-590.24 1460.22,-473.82 1391.2,-369 1314.07,-251.88 862.45,-190.98 705.73,-173.15"/>
<polygon fill="black" stroke="black" points="705.73,-169.63 695.41,-171.99 704.95,-176.59 705.73,-169.63"/>
</g>
<!-- jsonc&#45;&gt;json -->
<g id="edge28" class="edge">
<title>jsonc&#45;&gt;json</title>
<path fill="none" stroke="black" d="M1127.28,-656.92C998,-654.49 608.09,-642.06 292.2,-579 263.59,-573.29 232.47,-563.73 207.33,-555.13"/>
<polygon fill="black" stroke="black" points="208.25,-551.74 197.66,-551.76 205.95,-558.35 208.25,-551.74"/>
</g>
<!-- log -->
<g id="node29" class="node">
<title>log</title>
<polygon fill="pink" stroke="black" points="937.2,-553.5 883.2,-553.5 883.2,-517.5 937.2,-517.5 937.2,-553.5"/>
<text text-anchor="middle" x="910.2" y="-531.3" font-family="Times,serif" font-size="14.00">log</text>
</g>
<!-- log&#45;&gt;io -->
<g id="edge30" class="edge">
<title>log&#45;&gt;io</title>
<path fill="none" stroke="black" d="M883.17,-528.23C842.13,-518.93 761.53,-501.56 692.2,-492 643.6,-485.3 289.83,-487.46 252.2,-456 211.61,-422.07 206.19,-355.35 206.65,-317.82"/>
<polygon fill="black" stroke="black" points="210.16,-317.71 206.94,-307.61 203.16,-317.51 210.16,-317.71"/>
</g>
<!-- log&#45;&gt;assert -->
<g id="edge32" class="edge">
<title>log&#45;&gt;assert</title>
<path fill="none" stroke="black" d="M902.72,-517.27C876.07,-455.93 787.12,-251.59 782.2,-246 760.13,-220.97 728.1,-201.5 701.36,-188.21"/>
<polygon fill="black" stroke="black" points="702.67,-184.96 692.15,-183.77 699.63,-191.26 702.67,-184.96"/>
</g>
<!-- log&#45;&gt;fmt -->
<g id="edge29" class="edge">
<title>log&#45;&gt;fmt</title>
<path fill="none" stroke="black" d="M923.04,-517.42C934.98,-501.55 953.25,-477.25 969.13,-456.14"/>
<polygon fill="black" stroke="black" points="972.09,-458.02 975.31,-447.92 966.5,-453.81 972.09,-458.02"/>
</g>
<!-- log&#45;&gt;fs -->
<g id="edge31" class="edge">
<title>log&#45;&gt;fs</title>
<path fill="none" stroke="black" d="M937.36,-521.37C966.75,-506.76 1014.58,-481.8 1053.2,-456 1057.16,-453.35 1061.19,-450.49 1065.16,-447.53"/>
<polygon fill="black" stroke="black" points="1067.39,-450.24 1073.22,-441.39 1063.14,-444.67 1067.39,-450.24"/>
</g>
<!-- media_\ntypes -->
<g id="node30" class="node">
<title>media_\ntypes</title>
<ellipse fill="none" stroke="black" cx="2316.2" cy="-658.5" rx="39.5" ry="39.5"/>
<ellipse fill="none" stroke="black" cx="2316.2" cy="-658.5" rx="43.5" ry="43.5"/>
<text text-anchor="middle" x="2316.2" y="-662.7" font-family="Times,serif" font-size="14.00">media_</text>
<text text-anchor="middle" x="2316.2" y="-645.9" font-family="Times,serif" font-size="14.00">types</text>
</g>
<!-- msgpack -->
<g id="node31" class="node">
<title>msgpack</title>
<polygon fill="pink" stroke="black" points="86.96,-307.5 21.43,-307.5 21.43,-271.5 86.96,-271.5 86.96,-307.5"/>
<text text-anchor="middle" x="54.2" y="-285.3" font-family="Times,serif" font-size="14.00">msgpack</text>
</g>
<!-- msgpack&#45;&gt;bytes -->
<g id="edge33" class="edge">
<title>msgpack&#45;&gt;bytes</title>
<path fill="none" stroke="black" d="M58.57,-271.42C62.11,-257.61 67.29,-237.41 72.13,-218.49"/>
<polygon fill="black" stroke="black" points="75.54,-219.31 74.63,-208.75 68.76,-217.57 75.54,-219.31"/>
</g>
<!-- net -->
<g id="node32" class="node">
<title>net</title>
<polygon fill="pink" stroke="black" points="2432.2,-676.5 2378.2,-676.5 2378.2,-640.5 2432.2,-640.5 2432.2,-676.5"/>
<text text-anchor="middle" x="2405.2" y="-654.3" font-family="Times,serif" font-size="14.00">net</text>
</g>
<!-- regexp -->
<g id="node33" class="node">
<title>regexp</title>
<polygon fill="pink" stroke="black" points="2504.29,-676.5 2450.11,-676.5 2450.11,-640.5 2504.29,-640.5 2504.29,-676.5"/>
<text text-anchor="middle" x="2477.2" y="-654.3" font-family="Times,serif" font-size="14.00">regexp</text>
</g>
<!-- semver -->
<g id="node34" class="node">
<title>semver</title>
<polygon fill="pink" stroke="black" points="2578.62,-676.5 2521.77,-676.5 2521.77,-640.5 2578.62,-640.5 2578.62,-676.5"/>
<text text-anchor="middle" x="2550.2" y="-654.3" font-family="Times,serif" font-size="14.00">semver</text>
</g>
<!-- testing -->
<g id="node35" class="node">
<title>testing</title>
<ellipse fill="none" stroke="black" cx="1142.2" cy="-535.5" rx="39.5" ry="39.5"/>
<ellipse fill="none" stroke="black" cx="1142.2" cy="-535.5" rx="43.5" ry="43.5"/>
<text text-anchor="middle" x="1142.2" y="-531.3" font-family="Times,serif" font-size="14.00">testing</text>
</g>
<!-- testing&#45;&gt;assert -->
<g id="edge38" class="edge">
<title>testing&#45;&gt;assert</title>
<path fill="none" stroke="black" d="M1164.11,-497.73C1181.7,-463.1 1200.39,-410.48 1180.2,-369 1141.39,-289.3 1103.53,-283.48 1023.2,-246 917.35,-196.62 780.04,-177.98 705.7,-171.19"/>
<polygon fill="black" stroke="black" points="705.91,-167.7 695.64,-170.31 705.3,-174.67 705.91,-167.7"/>
</g>
<!-- testing&#45;&gt;async -->
<g id="edge43" class="edge">
<title>testing&#45;&gt;async</title>
<path fill="none" stroke="black" d="M1100.61,-522.66C1048.15,-507.63 955.25,-480.68 876.2,-456 850.28,-447.91 821.58,-438.5 797.85,-430.59"/>
<polygon fill="black" stroke="black" points="798.93,-427.27 788.34,-427.42 796.72,-433.91 798.93,-427.27"/>
</g>
<!-- testing&#45;&gt;fmt -->
<g id="edge41" class="edge">
<title>testing&#45;&gt;fmt</title>
<path fill="none" stroke="black" d="M1109.49,-506.44C1089.21,-489.03 1062.99,-466.53 1041.43,-448.03"/>
<polygon fill="black" stroke="black" points="1043.59,-445.27 1033.72,-441.41 1039.03,-450.58 1043.59,-445.27"/>
</g>
<!-- testing&#45;&gt;fs -->
<g id="edge40" class="edge">
<title>testing&#45;&gt;fs</title>
<path fill="none" stroke="black" d="M1130.01,-493.53C1127.19,-484.07 1124.17,-473.9 1121.25,-464.08"/>
<polygon fill="black" stroke="black" points="1124.58,-463.01 1118.37,-454.42 1117.87,-465.01 1124.58,-463.01"/>
</g>
<!-- testing&#45;&gt;path -->
<g id="edge39" class="edge">
<title>testing&#45;&gt;path</title>
<path fill="none" stroke="black" d="M1159.65,-495.46C1172.93,-459.21 1184.85,-405.48 1158.2,-369 1114.41,-309.07 1024.37,-293.82 966.22,-290.53"/>
<polygon fill="black" stroke="black" points="966.26,-287.03 956.11,-290.06 965.93,-294.02 966.26,-287.03"/>
</g>
<!-- data_structures -->
<g id="node36" class="node">
<title>data_structures</title>
<ellipse fill="none" stroke="black" cx="1313.2" cy="-412.5" rx="69.48" ry="18"/>
<text text-anchor="middle" x="1313.2" y="-408.3" font-family="Times,serif" font-size="14.00">data_structures</text>
</g>
<!-- testing&#45;&gt;data_structures -->
<g id="edge42" class="edge">
<title>testing&#45;&gt;data_structures</title>
<path fill="none" stroke="black" d="M1177.63,-509.43C1208.44,-487.63 1252.63,-456.36 1282.09,-435.51"/>
<polygon fill="black" stroke="black" points="1284.22,-438.29 1290.36,-429.66 1280.17,-432.58 1284.22,-438.29"/>
</g>
<!-- text -->
<g id="node37" class="node">
<title>text</title>
<polygon fill="pink" stroke="black" points="1492.2,-307.5 1438.2,-307.5 1438.2,-271.5 1492.2,-271.5 1492.2,-307.5"/>
<text text-anchor="middle" x="1465.2" y="-285.3" font-family="Times,serif" font-size="14.00">text</text>
</g>
<!-- text&#45;&gt;assert -->
<g id="edge44" class="edge">
<title>text&#45;&gt;assert</title>
<path fill="none" stroke="black" d="M1453.2,-271.12C1445.93,-262.03 1435.82,-251.65 1424.2,-246 1297.01,-184.19 859.29,-170.97 705.85,-168.21"/>
<polygon fill="black" stroke="black" points="705.79,-164.71 695.74,-168.03 705.67,-171.7 705.79,-164.71"/>
</g>
<!-- ulid -->
<g id="node38" class="node">
<title>ulid</title>
<polygon fill="pink" stroke="black" points="2650.2,-676.5 2596.2,-676.5 2596.2,-640.5 2650.2,-640.5 2650.2,-676.5"/>
<text text-anchor="middle" x="2623.2" y="-654.3" font-family="Times,serif" font-size="14.00">ulid</text>
</g>
<!-- url -->
<g id="node39" class="node">
<title>url</title>
<polygon fill="pink" stroke="black" points="939.2,-430.5 885.2,-430.5 885.2,-394.5 939.2,-394.5 939.2,-430.5"/>
<text text-anchor="middle" x="912.2" y="-408.3" font-family="Times,serif" font-size="14.00">url</text>
</g>
<!-- url&#45;&gt;path -->
<g id="edge46" class="edge">
<title>url&#45;&gt;path</title>
<path fill="none" stroke="black" d="M912.2,-394.42C912.2,-381.01 912.2,-361.58 912.2,-343.14"/>
<polygon fill="black" stroke="black" points="915.7,-343.05 912.2,-333.05 908.7,-343.05 915.7,-343.05"/>
</g>
<!-- uuid -->
<g id="node40" class="node">
<title>uuid</title>
<ellipse fill="none" stroke="black" cx="305.2" cy="-412.5" rx="39.5" ry="39.5"/>
<ellipse fill="none" stroke="black" cx="305.2" cy="-412.5" rx="43.5" ry="43.5"/>
<text text-anchor="middle" x="305.2" y="-408.3" font-family="Times,serif" font-size="14.00">uuid</text>
</g>
<!-- uuid&#45;&gt;assert -->
<g id="edge48" class="edge">
<title>uuid&#45;&gt;assert</title>
<path fill="none" stroke="black" d="M344.43,-392.73C362.61,-384.58 384.68,-375.45 405.2,-369 479.29,-345.7 517.19,-383.5 576.2,-333 607.62,-306.11 591.89,-283.56 609.2,-246 614.13,-235.3 619.91,-224.06 625.6,-213.53"/>
<polygon fill="black" stroke="black" points="628.82,-214.94 630.56,-204.49 622.68,-211.57 628.82,-214.94"/>
</g>
<!-- uuid&#45;&gt;bytes -->
<g id="edge47" class="edge">
<title>uuid&#45;&gt;bytes</title>
<path fill="none" stroke="black" d="M265.18,-395.07C236.5,-381.71 198.45,-360.58 172.2,-333 140.59,-299.8 117.38,-252.86 102.92,-217.45"/>
<polygon fill="black" stroke="black" points="106.02,-215.79 99.07,-207.79 99.52,-218.37 106.02,-215.79"/>
</g>
<!-- uuid&#45;&gt;crypto -->
<g id="edge49" class="edge">
<title>uuid&#45;&gt;crypto</title>
<path fill="none" stroke="black" d="M302.38,-368.84C301.83,-360.62 301.26,-351.91 300.69,-343.41"/>
<polygon fill="black" stroke="black" points="304.17,-342.93 300.02,-333.18 297.19,-343.39 304.17,-342.93"/>
</g>
<!-- webgpu -->
<g id="node41" class="node">
<title>webgpu</title>
<polygon fill="pink" stroke="black" points="567.52,-307.5 506.87,-307.5 506.87,-271.5 567.52,-271.5 567.52,-307.5"/>
<text text-anchor="middle" x="537.2" y="-285.3" font-family="Times,serif" font-size="14.00">webgpu</text>
</g>
<!-- webgpu&#45;&gt;assert -->
<g id="edge50" class="edge">
<title>webgpu&#45;&gt;assert</title>
<path fill="none" stroke="black" d="M553.43,-271.42C569.56,-254.45 594.85,-227.84 615.8,-205.79"/>
<polygon fill="black" stroke="black" points="618.37,-208.17 622.72,-198.51 613.29,-203.35 618.37,-208.17"/>
</g>
</g>
</svg>
