<?xml version="1.0" encoding="UTF-8" standalone="no"?>
<!DOCTYPE svg PUBLIC "-//W3C//DTD SVG 1.1//EN"
 "http://www.w3.org/Graphics/SVG/1.1/DTD/svg11.dtd">
<!-- Generated by graphviz version 2.44.0 (20200518.1210)
 -->
<!-- Title: std_deps Pages: 1 -->
<svg width="2343pt" height="620pt"
 viewBox="0.00 0.00 2342.69 620.00" xmlns="http://www.w3.org/2000/svg" xmlns:xlink="http://www.w3.org/1999/xlink">
<g id="graph0" class="graph" transform="scale(1 1) rotate(0) translate(4 616)">
<title>std_deps</title>
<polygon fill="white" stroke="transparent" points="-4,4 -4,-616 2338.69,-616 2338.69,4 -4,4"/>
<!-- archive -->
<g id="node1" class="node">
<title>archive</title>
<ellipse fill="none" stroke="black" cx="765.69" cy="-360" rx="36" ry="36"/>
<text text-anchor="middle" x="765.69" y="-355.8" font-family="Times,serif" font-size="14.00">archive</text>
</g>
<!-- io -->
<g id="node2" class="node">
<title>io</title>
<ellipse fill="none" stroke="black" cx="765.69" cy="-252" rx="36" ry="36"/>
<text text-anchor="middle" x="765.69" y="-247.8" font-family="Times,serif" font-size="14.00">io</text>
</g>
<!-- archive&#45;&gt;io -->
<g id="edge1" class="edge">
<title>archive&#45;&gt;io</title>
<path fill="none" stroke="black" d="M765.69,-324C765.69,-315.85 765.69,-307.06 765.69,-298.54"/>
<polygon fill="black" stroke="black" points="769.19,-298.33 765.69,-288.33 762.19,-298.33 769.19,-298.33"/>
</g>
<!-- assert -->
<g id="node3" class="node">
<title>assert</title>
<ellipse fill="lightgreen" stroke="black" cx="245.69" cy="-144" rx="36" ry="36"/>
<text text-anchor="middle" x="245.69" y="-139.8" font-family="Times,serif" font-size="14.00">assert</text>
</g>
<!-- io&#45;&gt;assert -->
<g id="edge17" class="edge">
<title>io&#45;&gt;assert</title>
<path fill="none" stroke="black" d="M730.36,-243.8C638.64,-225.1 393.04,-175.04 291.06,-154.25"/>
<polygon fill="black" stroke="black" points="291.57,-150.78 281.07,-152.21 290.17,-157.64 291.57,-150.78"/>
</g>
<!-- bytes -->
<g id="node6" class="node">
<title>bytes</title>
<ellipse fill="lightgreen" stroke="black" cx="1196.69" cy="-144" rx="36" ry="36"/>
<text text-anchor="middle" x="1196.69" y="-139.8" font-family="Times,serif" font-size="14.00">bytes</text>
</g>
<!-- io&#45;&gt;bytes -->
<g id="edge18" class="edge">
<title>io&#45;&gt;bytes</title>
<path fill="none" stroke="black" d="M800.59,-242.42C878.38,-223.29 1065.85,-177.18 1152.01,-155.99"/>
<polygon fill="black" stroke="black" points="1152.88,-159.38 1161.76,-153.59 1151.21,-152.58 1152.88,-159.38"/>
</g>
<!-- internal -->
<g id="node4" class="node">
<title>internal</title>
<ellipse fill="lightgreen" stroke="black" cx="52.69" cy="-36" rx="36" ry="36"/>
<text text-anchor="middle" x="52.69" y="-31.8" font-family="Times,serif" font-size="14.00">internal</text>
</g>
<!-- assert&#45;&gt;internal -->
<g id="edge2" class="edge">
<title>assert&#45;&gt;internal</title>
<path fill="none" stroke="black" d="M214.25,-125.73C181.16,-107.56 128.98,-78.9 92.91,-59.09"/>
<polygon fill="black" stroke="black" points="94.56,-56.01 84.11,-54.26 91.19,-62.14 94.56,-56.01"/>
</g>
<!-- async -->
<g id="node5" class="node">
<title>async</title>
<ellipse fill="none" stroke="black" cx="637.69" cy="-360" rx="36" ry="36"/>
<text text-anchor="middle" x="637.69" y="-355.8" font-family="Times,serif" font-size="14.00">async</text>
</g>
<!-- cli -->
<g id="node7" class="node">
<title>cli</title>
<ellipse fill="none" stroke="black" cx="1173.69" cy="-360" rx="36" ry="36"/>
<text text-anchor="middle" x="1173.69" y="-355.8" font-family="Times,serif" font-size="14.00">cli</text>
</g>
<!-- collections -->
<g id="node8" class="node">
<title>collections</title>
<ellipse fill="lightgreen" stroke="black" cx="1398.69" cy="-360" rx="36" ry="36"/>
<text text-anchor="middle" x="1398.69" y="-355.8" font-family="Times,serif" font-size="14.00">collections</text>
</g>
<!-- crypto -->
<g id="node9" class="node">
<title>crypto</title>
<ellipse fill="lightgreen" stroke="black" cx="1318.69" cy="-144" rx="36" ry="36"/>
<text text-anchor="middle" x="1318.69" y="-139.8" font-family="Times,serif" font-size="14.00">crypto</text>
</g>
<!-- csv -->
<g id="node10" class="node">
<title>csv</title>
<ellipse fill="none" stroke="black" cx="1218.69" cy="-468" rx="36" ry="36"/>
<text text-anchor="middle" x="1218.69" y="-463.8" font-family="Times,serif" font-size="14.00">csv</text>
</g>
<!-- streams -->
<g id="node11" class="node">
<title>streams</title>
<ellipse fill="none" stroke="black" cx="1263.69" cy="-360" rx="36" ry="36"/>
<text text-anchor="middle" x="1263.69" y="-355.8" font-family="Times,serif" font-size="14.00">streams</text>
</g>
<!-- csv&#45;&gt;streams -->
<g id="edge3" class="edge">
<title>csv&#45;&gt;streams</title>
<path fill="none" stroke="black" d="M1232.43,-434.62C1236.67,-424.65 1241.39,-413.51 1245.86,-402.99"/>
<polygon fill="black" stroke="black" points="1249.19,-404.12 1249.87,-393.55 1242.74,-401.38 1249.19,-404.12"/>
</g>
<!-- streams&#45;&gt;io -->
<g id="edge27" class="edge">
<title>streams&#45;&gt;io</title>
<path fill="none" stroke="black" d="M1237.5,-335.13C1231.65,-330.84 1225.23,-326.83 1218.69,-324 1200.02,-315.93 922.46,-275.49 811.26,-259.51"/>
<polygon fill="black" stroke="black" points="811.74,-256.05 801.34,-258.09 810.74,-262.98 811.74,-256.05"/>
</g>
<!-- streams&#45;&gt;assert -->
<g id="edge25" class="edge">
<title>streams&#45;&gt;assert</title>
<path fill="none" stroke="black" d="M1236.77,-335.29C1231.07,-331.09 1224.9,-327.08 1218.69,-324 1050.6,-240.74 994.82,-251.77 810.69,-216 619.67,-178.89 388.39,-156.87 291.68,-148.68"/>
<polygon fill="black" stroke="black" points="291.91,-145.19 281.65,-147.84 291.32,-152.16 291.91,-145.19"/>
</g>
<!-- streams&#45;&gt;bytes -->
<g id="edge26" class="edge">
<title>streams&#45;&gt;bytes</title>
<path fill="none" stroke="black" d="M1236.24,-336.55C1214.24,-318.26 1186.58,-294.44 1183.69,-288 1169.56,-256.58 1174.48,-217.4 1181.99,-188.01"/>
<polygon fill="black" stroke="black" points="1185.45,-188.62 1184.73,-178.05 1178.7,-186.76 1185.45,-188.62"/>
</g>
<!-- data_\nstructures -->
<g id="node12" class="node">
<title>data_\nstructures</title>
<ellipse fill="none" stroke="black" cx="1488.69" cy="-576" rx="36" ry="36"/>
<text text-anchor="middle" x="1488.69" y="-580.2" font-family="Times,serif" font-size="14.00">data_</text>
<text text-anchor="middle" x="1488.69" y="-563.4" font-family="Times,serif" font-size="14.00">structures</text>
</g>
<!-- datetime -->
<g id="node13" class="node">
<title>datetime</title>
<ellipse fill="none" stroke="black" cx="1578.69" cy="-576" rx="36" ry="36"/>
<text text-anchor="middle" x="1578.69" y="-571.8" font-family="Times,serif" font-size="14.00">datetime</text>
</g>
<!-- dotenv -->
<g id="node14" class="node">
<title>dotenv</title>
<ellipse fill="none" stroke="black" cx="1668.69" cy="-576" rx="36" ry="36"/>
<text text-anchor="middle" x="1668.69" y="-571.8" font-family="Times,serif" font-size="14.00">dotenv</text>
</g>
<!-- encoding -->
<g id="node15" class="node">
<title>encoding</title>
<ellipse fill="lightgreen" stroke="black" cx="855.69" cy="-360" rx="36" ry="36"/>
<text text-anchor="middle" x="855.69" y="-355.8" font-family="Times,serif" font-size="14.00">encoding</text>
</g>
<!-- expect -->
<g id="node16" class="node">
<title>expect</title>
<ellipse fill="none" stroke="black" cx="52.69" cy="-252" rx="36" ry="36"/>
<text text-anchor="middle" x="52.69" y="-247.8" font-family="Times,serif" font-size="14.00">expect</text>
</g>
<!-- expect&#45;&gt;assert -->
<g id="edge4" class="edge">
<title>expect&#45;&gt;assert</title>
<path fill="none" stroke="black" d="M81.28,-229.89C88.16,-225.12 95.58,-220.22 102.69,-216 135.67,-196.42 174.77,-177.27 203.74,-163.8"/>
<polygon fill="black" stroke="black" points="205.54,-166.82 213.15,-159.45 202.61,-160.46 205.54,-166.82"/>
</g>
<!-- expect&#45;&gt;internal -->
<g id="edge5" class="edge">
<title>expect&#45;&gt;internal</title>
<path fill="none" stroke="black" d="M52.69,-215.66C52.69,-179.16 52.69,-122.05 52.69,-82.26"/>
<polygon fill="black" stroke="black" points="56.19,-82.03 52.69,-72.03 49.19,-82.03 56.19,-82.03"/>
</g>
<!-- fmt -->
<g id="node17" class="node">
<title>fmt</title>
<ellipse fill="none" stroke="black" cx="509.69" cy="-360" rx="36" ry="36"/>
<text text-anchor="middle" x="509.69" y="-355.8" font-family="Times,serif" font-size="14.00">fmt</text>
</g>
<!-- front_\nmatter -->
<g id="node18" class="node">
<title>front_\nmatter</title>
<ellipse fill="none" stroke="black" cx="1398.69" cy="-576" rx="36" ry="36"/>
<text text-anchor="middle" x="1398.69" y="-580.2" font-family="Times,serif" font-size="14.00">front_</text>
<text text-anchor="middle" x="1398.69" y="-563.4" font-family="Times,serif" font-size="14.00">matter</text>
</g>
<!-- toml -->
<g id="node19" class="node">
<title>toml</title>
<ellipse fill="lightgreen" stroke="black" cx="1398.69" cy="-468" rx="36" ry="36"/>
<text text-anchor="middle" x="1398.69" y="-463.8" font-family="Times,serif" font-size="14.00">toml</text>
</g>
<!-- front_\nmatter&#45;&gt;toml -->
<g id="edge6" class="edge">
<title>front_\nmatter&#45;&gt;toml</title>
<path fill="none" stroke="black" d="M1398.69,-540C1398.69,-531.85 1398.69,-523.06 1398.69,-514.54"/>
<polygon fill="black" stroke="black" points="1402.19,-514.33 1398.69,-504.33 1395.19,-514.33 1402.19,-514.33"/>
</g>
<!-- yaml -->
<g id="node20" class="node">
<title>yaml</title>
<ellipse fill="none" stroke="black" cx="1488.69" cy="-468" rx="36" ry="36"/>
<text text-anchor="middle" x="1488.69" y="-463.8" font-family="Times,serif" font-size="14.00">yaml</text>
</g>
<!-- front_\nmatter&#45;&gt;yaml -->
<g id="edge7" class="edge">
<title>front_\nmatter&#45;&gt;yaml</title>
<path fill="none" stroke="black" d="M1421.63,-547.98C1433.06,-534.52 1447,-518.1 1459.21,-503.72"/>
<polygon fill="black" stroke="black" points="1461.98,-505.86 1465.79,-495.97 1456.65,-501.33 1461.98,-505.86"/>
</g>
<!-- toml&#45;&gt;collections -->
<g id="edge35" class="edge">
<title>toml&#45;&gt;collections</title>
<path fill="none" stroke="black" d="M1398.69,-432C1398.69,-423.85 1398.69,-415.06 1398.69,-406.54"/>
<polygon fill="black" stroke="black" points="1402.19,-406.33 1398.69,-396.33 1395.19,-406.33 1402.19,-406.33"/>
</g>
<!-- fs -->
<g id="node21" class="node">
<title>fs</title>
<ellipse fill="none" stroke="black" cx="329.69" cy="-360" rx="36" ry="36"/>
<text text-anchor="middle" x="329.69" y="-355.8" font-family="Times,serif" font-size="14.00">fs</text>
</g>
<!-- path -->
<g id="node22" class="node">
<title>path</title>
<ellipse fill="lightgreen" stroke="black" cx="329.69" cy="-252" rx="36" ry="36"/>
<text text-anchor="middle" x="329.69" y="-247.8" font-family="Times,serif" font-size="14.00">path</text>
</g>
<!-- fs&#45;&gt;path -->
<g id="edge8" class="edge">
<title>fs&#45;&gt;path</title>
<path fill="none" stroke="black" d="M329.69,-324C329.69,-315.85 329.69,-307.06 329.69,-298.54"/>
<polygon fill="black" stroke="black" points="333.19,-298.33 329.69,-288.33 326.19,-298.33 333.19,-298.33"/>
</g>
<!-- html -->
<g id="node23" class="node">
<title>html</title>
<ellipse fill="lightgreen" stroke="black" cx="1758.69" cy="-576" rx="36" ry="36"/>
<text text-anchor="middle" x="1758.69" y="-571.8" font-family="Times,serif" font-size="14.00">html</text>
</g>
<!-- http -->
<g id="node24" class="node">
<title>http</title>
<ellipse fill="none" stroke="black" cx="912.69" cy="-468" rx="36" ry="36"/>
<text text-anchor="middle" x="912.69" y="-463.8" font-family="Times,serif" font-size="14.00">http</text>
</g>
<!-- http&#45;&gt;async -->
<g id="edge10" class="edge">
<title>http&#45;&gt;async</title>
<path fill="none" stroke="black" d="M877.51,-459.43C832.12,-448.87 751.43,-427.44 687.69,-396 683.29,-393.83 678.84,-391.3 674.51,-388.61"/>
<polygon fill="black" stroke="black" points="676.12,-385.48 665.84,-382.93 672.29,-391.34 676.12,-385.48"/>
</g>
<!-- http&#45;&gt;cli -->
<g id="edge14" class="edge">
<title>http&#45;&gt;cli</title>
<path fill="none" stroke="black" d="M947.84,-459.39C991.86,-448.99 1068.76,-427.91 1128.69,-396 1131.94,-394.27 1135.19,-392.3 1138.38,-390.21"/>
<polygon fill="black" stroke="black" points="1140.45,-393.03 1146.63,-384.42 1136.43,-387.3 1140.45,-393.03"/>
</g>
<!-- http&#45;&gt;streams -->
<g id="edge13" class="edge">
<title>http&#45;&gt;streams</title>
<path fill="none" stroke="black" d="M948.75,-463.71C1007.72,-457.24 1127.36,-439.5 1218.69,-396 1222.01,-394.42 1225.32,-392.56 1228.54,-390.53"/>
<polygon fill="black" stroke="black" points="1230.56,-393.39 1236.85,-384.86 1226.62,-387.61 1230.56,-393.39"/>
</g>
<!-- http&#45;&gt;encoding -->
<g id="edge9" class="edge">
<title>http&#45;&gt;encoding</title>
<path fill="none" stroke="black" d="M896.05,-436.06C890.19,-425.16 883.51,-412.75 877.3,-401.2"/>
<polygon fill="black" stroke="black" points="880.27,-399.32 872.45,-392.17 874.1,-402.63 880.27,-399.32"/>
</g>
<!-- http&#45;&gt;fmt -->
<g id="edge15" class="edge">
<title>http&#45;&gt;fmt</title>
<path fill="none" stroke="black" d="M877.1,-461.27C817.43,-451.19 693.8,-428.24 592.69,-396 578.9,-391.6 564.24,-385.81 551.13,-380.21"/>
<polygon fill="black" stroke="black" points="552.46,-376.97 541.9,-376.18 549.66,-383.39 552.46,-376.97"/>
</g>
<!-- http&#45;&gt;path -->
<g id="edge11" class="edge">
<title>http&#45;&gt;path</title>
<path fill="none" stroke="black" d="M876.89,-461.69C835.06,-453.85 765.86,-435.59 720.69,-396 693.48,-372.15 712.54,-344.45 682.69,-324 569,-246.09 502.23,-340.23 374.69,-288 371.19,-286.57 367.72,-284.78 364.37,-282.78"/>
<polygon fill="black" stroke="black" points="366.06,-279.69 355.79,-277.07 362.18,-285.52 366.06,-279.69"/>
</g>
<!-- media_types -->
<g id="node25" class="node">
<title>media_types</title>
<ellipse fill="none" stroke="black" cx="969.69" cy="-360" rx="59.69" ry="18"/>
<text text-anchor="middle" x="969.69" y="-355.8" font-family="Times,serif" font-size="14.00">media_types</text>
</g>
<!-- http&#45;&gt;media_types -->
<g id="edge12" class="edge">
<title>http&#45;&gt;media_types</title>
<path fill="none" stroke="black" d="M929.33,-436.06C937.68,-420.52 947.7,-401.9 955.66,-387.09"/>
<polygon fill="black" stroke="black" points="958.9,-388.45 960.56,-377.98 952.74,-385.13 958.9,-388.45"/>
</g>
<!-- net -->
<g id="node26" class="node">
<title>net</title>
<ellipse fill="none" stroke="black" cx="1083.69" cy="-360" rx="36" ry="36"/>
<text text-anchor="middle" x="1083.69" y="-355.8" font-family="Times,serif" font-size="14.00">net</text>
</g>
<!-- http&#45;&gt;net -->
<g id="edge16" class="edge">
<title>http&#45;&gt;net</title>
<path fill="none" stroke="black" d="M944.52,-450.74C970.47,-437.1 1007.75,-416.59 1038.69,-396 1041.75,-393.96 1044.88,-391.78 1047.98,-389.53"/>
<polygon fill="black" stroke="black" points="1050.14,-392.28 1056.08,-383.5 1045.97,-386.67 1050.14,-392.28"/>
</g>
<!-- ini -->
<g id="node27" class="node">
<title>ini</title>
<ellipse fill="none" stroke="black" cx="1848.69" cy="-576" rx="36" ry="36"/>
<text text-anchor="middle" x="1848.69" y="-571.8" font-family="Times,serif" font-size="14.00">ini</text>
</g>
<!-- json -->
<g id="node28" class="node">
<title>json</title>
<ellipse fill="none" stroke="black" cx="1308.69" cy="-468" rx="36" ry="36"/>
<text text-anchor="middle" x="1308.69" y="-463.8" font-family="Times,serif" font-size="14.00">json</text>
</g>
<!-- json&#45;&gt;streams -->
<g id="edge19" class="edge">
<title>json&#45;&gt;streams</title>
<path fill="none" stroke="black" d="M1294.94,-434.62C1290.71,-424.65 1285.98,-413.51 1281.51,-402.99"/>
<polygon fill="black" stroke="black" points="1284.64,-401.38 1277.51,-393.55 1278.19,-404.12 1284.64,-401.38"/>
</g>
<!-- jsonc -->
<g id="node29" class="node">
<title>jsonc</title>
<ellipse fill="none" stroke="black" cx="1308.69" cy="-576" rx="36" ry="36"/>
<text text-anchor="middle" x="1308.69" y="-571.8" font-family="Times,serif" font-size="14.00">jsonc</text>
</g>
<!-- jsonc&#45;&gt;json -->
<g id="edge20" class="edge">
<title>jsonc&#45;&gt;json</title>
<path fill="none" stroke="black" d="M1308.69,-540C1308.69,-531.85 1308.69,-523.06 1308.69,-514.54"/>
<polygon fill="black" stroke="black" points="1312.19,-514.33 1308.69,-504.33 1305.19,-514.33 1312.19,-514.33"/>
</g>
<!-- log -->
<g id="node30" class="node">
<title>log</title>
<ellipse fill="none" stroke="black" cx="509.69" cy="-468" rx="36" ry="36"/>
<text text-anchor="middle" x="509.69" y="-463.8" font-family="Times,serif" font-size="14.00">log</text>
</g>
<!-- log&#45;&gt;io -->
<g id="edge22" class="edge">
<title>log&#45;&gt;io</title>
<path fill="none" stroke="black" d="M529.05,-437.61C537.2,-424.95 546.64,-409.89 554.69,-396 572.83,-364.69 565.9,-348.33 592.69,-324 628.98,-291.04 682.65,-272.26 720.57,-262.4"/>
<polygon fill="black" stroke="black" points="721.48,-265.78 730.34,-259.97 719.79,-258.99 721.48,-265.78"/>
</g>
<!-- log&#45;&gt;fmt -->
<g id="edge21" class="edge">
<title>log&#45;&gt;fmt</title>
<path fill="none" stroke="black" d="M509.69,-432C509.69,-423.85 509.69,-415.06 509.69,-406.54"/>
<polygon fill="black" stroke="black" points="513.19,-406.33 509.69,-396.33 506.19,-406.33 513.19,-406.33"/>
</g>
<!-- log&#45;&gt;fs -->
<g id="edge23" class="edge">
<title>log&#45;&gt;fs</title>
<path fill="none" stroke="black" d="M477.15,-451.9C449.23,-438.47 408.3,-417.67 374.69,-396 371.6,-394.01 368.45,-391.85 365.34,-389.63"/>
<polygon fill="black" stroke="black" points="367.34,-386.76 357.21,-383.64 363.18,-392.39 367.34,-386.76"/>
</g>
<!-- media_\ntypes -->
<g id="node31" class="node">
<title>media_\ntypes</title>
<ellipse fill="lightgreen" stroke="black" cx="1938.69" cy="-576" rx="36" ry="36"/>
<text text-anchor="middle" x="1938.69" y="-580.2" font-family="Times,serif" font-size="14.00">media_</text>
<text text-anchor="middle" x="1938.69" y="-563.4" font-family="Times,serif" font-size="14.00">types</text>
</g>
<!-- msgpack -->
<g id="node32" class="node">
<title>msgpack</title>
<ellipse fill="none" stroke="black" cx="1228.69" cy="-252" rx="36" ry="36"/>
<text text-anchor="middle" x="1228.69" y="-247.8" font-family="Times,serif" font-size="14.00">msgpack</text>
</g>
<!-- msgpack&#45;&gt;bytes -->
<g id="edge24" class="edge">
<title>msgpack&#45;&gt;bytes</title>
<path fill="none" stroke="black" d="M1218.48,-217.17C1215.73,-208.09 1212.73,-198.13 1209.85,-188.6"/>
<polygon fill="black" stroke="black" points="1213.16,-187.43 1206.91,-178.87 1206.45,-189.46 1213.16,-187.43"/>
</g>
<!-- regexp -->
<g id="node33" class="node">
<title>regexp</title>
<ellipse fill="none" stroke="black" cx="2028.69" cy="-576" rx="36" ry="36"/>
<text text-anchor="middle" x="2028.69" y="-571.8" font-family="Times,serif" font-size="14.00">regexp</text>
</g>
<!-- semver -->
<g id="node34" class="node">
<title>semver</title>
<ellipse fill="none" stroke="black" cx="2118.69" cy="-576" rx="36" ry="36"/>
<text text-anchor="middle" x="2118.69" y="-571.8" font-family="Times,serif" font-size="14.00">semver</text>
</g>
<!-- testing -->
<g id="node35" class="node">
<title>testing</title>
<ellipse fill="none" stroke="black" cx="265.69" cy="-468" rx="36" ry="36"/>
<text text-anchor="middle" x="265.69" y="-463.8" font-family="Times,serif" font-size="14.00">testing</text>
</g>
<!-- testing&#45;&gt;assert -->
<g id="edge28" class="edge">
<title>testing&#45;&gt;assert</title>
<path fill="none" stroke="black" d="M229.88,-463.95C188.39,-458.28 121.73,-442.1 90.69,-396 72.81,-369.46 79.51,-353.98 90.69,-324 114.35,-260.53 171.77,-204.61 209.69,-172.81"/>
<polygon fill="black" stroke="black" points="211.97,-175.46 217.46,-166.4 207.52,-170.06 211.97,-175.46"/>
</g>
<!-- testing&#45;&gt;internal -->
<g id="edge32" class="edge">
<title>testing&#45;&gt;internal</title>
<path fill="none" stroke="black" d="M230.03,-460.84C189.06,-452.25 121.57,-433.35 75.69,-396 31.7,-360.19 23.42,-342.5 7.69,-288 -13.2,-215.62 13.56,-128.57 33.86,-78.33"/>
<polygon fill="black" stroke="black" points="37.22,-79.36 37.81,-68.78 30.75,-76.68 37.22,-79.36"/>
</g>
<!-- testing&#45;&gt;async -->
<g id="edge34" class="edge">
<title>testing&#45;&gt;async</title>
<path fill="none" stroke="black" d="M300.89,-460.23C355.82,-449.24 464.94,-425.74 554.69,-396 568.43,-391.45 583.08,-385.61 596.19,-380.02"/>
<polygon fill="black" stroke="black" points="597.65,-383.2 605.42,-376.01 594.86,-376.78 597.65,-383.2"/>
</g>
<!-- testing&#45;&gt;fmt -->
<g id="edge31" class="edge">
<title>testing&#45;&gt;fmt</title>
<path fill="none" stroke="black" d="M300.55,-458.21C341.43,-447.09 410.5,-425.73 464.69,-396 467.92,-394.23 471.15,-392.23 474.33,-390.12"/>
<polygon fill="black" stroke="black" points="476.42,-392.93 482.56,-384.3 472.38,-387.22 476.42,-392.93"/>
</g>
<!-- testing&#45;&gt;fs -->
<g id="edge30" class="edge">
<title>testing&#45;&gt;fs</title>
<path fill="none" stroke="black" d="M283.86,-436.91C290.82,-425.38 298.86,-412.07 306.24,-399.84"/>
<polygon fill="black" stroke="black" points="309.3,-401.54 311.47,-391.17 303.31,-397.92 309.3,-401.54"/>
</g>
<!-- testing&#45;&gt;path -->
<g id="edge29" class="edge">
<title>testing&#45;&gt;path</title>
<path fill="none" stroke="black" d="M266.17,-431.91C267.54,-402.34 271.86,-359.31 284.69,-324 289.01,-312.11 295.57,-300.12 302.35,-289.48"/>
<polygon fill="black" stroke="black" points="305.44,-291.14 308.06,-280.88 299.61,-287.27 305.44,-291.14"/>
</g>
<!-- data_structures -->
<g id="node36" class="node">
<title>data_structures</title>
<ellipse fill="none" stroke="black" cx="168.69" cy="-360" rx="69.48" ry="18"/>
<text text-anchor="middle" x="168.69" y="-355.8" font-family="Times,serif" font-size="14.00">data_structures</text>
</g>
<!-- testing&#45;&gt;data_structures -->
<g id="edge33" class="edge">
<title>testing&#45;&gt;data_structures</title>
<path fill="none" stroke="black" d="M241.71,-440.8C226.19,-423.83 206.11,-401.9 190.94,-385.32"/>
<polygon fill="black" stroke="black" points="193.26,-382.67 183.93,-377.66 188.1,-387.4 193.26,-382.67"/>
</g>
<!-- text -->
<g id="node37" class="node">
<title>text</title>
<ellipse fill="none" stroke="black" cx="2208.69" cy="-576" rx="36" ry="36"/>
<text text-anchor="middle" x="2208.69" y="-571.8" font-family="Times,serif" font-size="14.00">text</text>
</g>
<!-- ulid -->
<g id="node38" class="node">
<title>ulid</title>
<ellipse fill="none" stroke="black" cx="2298.69" cy="-576" rx="36" ry="36"/>
<text text-anchor="middle" x="2298.69" y="-571.8" font-family="Times,serif" font-size="14.00">ulid</text>
</g>
<!-- url -->
<g id="node39" class="node">
<title>url</title>
<ellipse fill="none" stroke="black" cx="419.69" cy="-360" rx="36" ry="36"/>
<text text-anchor="middle" x="419.69" y="-355.8" font-family="Times,serif" font-size="14.00">url</text>
</g>
<!-- url&#45;&gt;path -->
<g id="edge36" class="edge">
<title>url&#45;&gt;path</title>
<path fill="none" stroke="black" d="M396.75,-331.98C385.32,-318.52 371.38,-302.1 359.17,-287.72"/>
<polygon fill="black" stroke="black" points="361.73,-285.33 352.59,-279.97 356.39,-289.86 361.73,-285.33"/>
</g>
<!-- uuid -->
<g id="node40" class="node">
<title>uuid</title>
<ellipse fill="lightgreen" stroke="black" cx="1318.69" cy="-252" rx="36" ry="36"/>
<text text-anchor="middle" x="1318.69" y="-247.8" font-family="Times,serif" font-size="14.00">uuid</text>
</g>
<!-- uuid&#45;&gt;bytes -->
<g id="edge37" class="edge">
<title>uuid&#45;&gt;bytes</title>
<path fill="none" stroke="black" d="M1291.92,-227.74C1274.04,-212.2 1250.36,-191.63 1231.09,-174.89"/>
<polygon fill="black" stroke="black" points="1233.24,-172.12 1223.4,-168.21 1228.65,-177.41 1233.24,-172.12"/>
</g>
<!-- uuid&#45;&gt;crypto -->
<g id="edge38" class="edge">
<title>uuid&#45;&gt;crypto</title>
<path fill="none" stroke="black" d="M1318.69,-216C1318.69,-207.85 1318.69,-199.06 1318.69,-190.54"/>
<polygon fill="black" stroke="black" points="1322.19,-190.33 1318.69,-180.33 1315.19,-190.33 1322.19,-190.33"/>
</g>
<!-- webgpu -->
<g id="node41" class="node">
<title>webgpu</title>
<ellipse fill="none" stroke="black" cx="419.69" cy="-252" rx="36" ry="36"/>
<text text-anchor="middle" x="419.69" y="-247.8" font-family="Times,serif" font-size="14.00">webgpu</text>
</g>
<!-- webgpu&#45;&gt;assert -->
<g id="edge39" class="edge">
<title>webgpu&#45;&gt;assert</title>
<path fill="none" stroke="black" d="M392.11,-228.45C386.46,-224.15 380.48,-219.81 374.69,-216 346.35,-197.35 312.73,-178.96 286.92,-165.57"/>
<polygon fill="black" stroke="black" points="288.28,-162.33 277.78,-160.87 285.07,-168.55 288.28,-162.33"/>
</g>
</g>
</svg>
