<?xml version="1.0" encoding="UTF-8" standalone="no"?>
<!DOCTYPE svg PUBLIC "-//W3C//DTD SVG 1.1//EN"
 "http://www.w3.org/Graphics/SVG/1.1/DTD/svg11.dtd">
<!-- Generated by graphviz version 2.44.0 (20200518.1210)
 -->
<!-- Title: std_deps Pages: 1 -->
<svg width="2253pt" height="620pt"
 viewBox="0.00 0.00 2252.55 620.00" xmlns="http://www.w3.org/2000/svg" xmlns:xlink="http://www.w3.org/1999/xlink">
<g id="graph0" class="graph" transform="scale(1 1) rotate(0) translate(4 616)">
<title>std_deps</title>
<polygon fill="white" stroke="transparent" points="-4,4 -4,-616 2248.55,-616 2248.55,4 -4,4"/>
<!-- archive -->
<g id="node1" class="node">
<title>archive</title>
<ellipse fill="none" stroke="black" cx="765.55" cy="-360" rx="36" ry="36"/>
<text text-anchor="middle" x="765.55" y="-355.8" font-family="Times,serif" font-size="14.00">archive</text>
</g>
<!-- io -->
<g id="node2" class="node">
<title>io</title>
<ellipse fill="none" stroke="black" cx="765.55" cy="-252" rx="36" ry="36"/>
<text text-anchor="middle" x="765.55" y="-247.8" font-family="Times,serif" font-size="14.00">io</text>
</g>
<!-- archive&#45;&gt;io -->
<g id="edge1" class="edge">
<title>archive&#45;&gt;io</title>
<path fill="none" stroke="black" d="M765.55,-324C765.55,-315.85 765.55,-307.06 765.55,-298.54"/>
<polygon fill="black" stroke="black" points="769.05,-298.33 765.55,-288.33 762.05,-298.33 769.05,-298.33"/>
</g>
<!-- assert -->
<g id="node3" class="node">
<title>assert</title>
<ellipse fill="lightgreen" stroke="black" cx="419.55" cy="-144" rx="36" ry="36"/>
<text text-anchor="middle" x="419.55" y="-139.8" font-family="Times,serif" font-size="14.00">assert</text>
</g>
<!-- io&#45;&gt;assert -->
<g id="edge17" class="edge">
<title>io&#45;&gt;assert</title>
<path fill="none" stroke="black" d="M731.11,-240.45C667.9,-221.08 533.46,-179.9 463.66,-158.51"/>
<polygon fill="black" stroke="black" points="464.44,-155.09 453.85,-155.51 462.39,-161.78 464.44,-155.09"/>
</g>
<!-- bytes -->
<g id="node6" class="node">
<title>bytes</title>
<ellipse fill="lightgreen" stroke="black" cx="1141.55" cy="-144" rx="36" ry="36"/>
<text text-anchor="middle" x="1141.55" y="-139.8" font-family="Times,serif" font-size="14.00">bytes</text>
</g>
<!-- io&#45;&gt;bytes -->
<g id="edge18" class="edge">
<title>io&#45;&gt;bytes</title>
<path fill="none" stroke="black" d="M800.25,-241.22C868.8,-221.89 1021.49,-178.85 1097.21,-157.5"/>
<polygon fill="black" stroke="black" points="1098.26,-160.84 1106.93,-154.76 1096.36,-154.1 1098.26,-160.84"/>
</g>
<!-- internal -->
<g id="node4" class="node">
<title>internal</title>
<ellipse fill="lightgreen" stroke="black" cx="52.55" cy="-36" rx="36" ry="36"/>
<text text-anchor="middle" x="52.55" y="-31.8" font-family="Times,serif" font-size="14.00">internal</text>
</g>
<!-- assert&#45;&gt;internal -->
<g id="edge2" class="edge">
<title>assert&#45;&gt;internal</title>
<path fill="none" stroke="black" d="M385.02,-133.03C318.13,-113.71 170.96,-71.2 96.93,-49.82"/>
<polygon fill="black" stroke="black" points="97.56,-46.36 86.98,-46.95 95.62,-53.08 97.56,-46.36"/>
</g>
<!-- async -->
<g id="node5" class="node">
<title>async</title>
<ellipse fill="none" stroke="black" cx="509.55" cy="-360" rx="36" ry="36"/>
<text text-anchor="middle" x="509.55" y="-355.8" font-family="Times,serif" font-size="14.00">async</text>
</g>
<!-- cli -->
<g id="node7" class="node">
<title>cli</title>
<ellipse fill="none" stroke="black" cx="1173.55" cy="-360" rx="36" ry="36"/>
<text text-anchor="middle" x="1173.55" y="-355.8" font-family="Times,serif" font-size="14.00">cli</text>
</g>
<!-- collections -->
<g id="node8" class="node">
<title>collections</title>
<ellipse fill="lightgreen" stroke="black" cx="1398.55" cy="-360" rx="36" ry="36"/>
<text text-anchor="middle" x="1398.55" y="-355.8" font-family="Times,serif" font-size="14.00">collections</text>
</g>
<!-- crypto -->
<g id="node9" class="node">
<title>crypto</title>
<ellipse fill="lightgreen" stroke="black" cx="1250.55" cy="-144" rx="36" ry="36"/>
<text text-anchor="middle" x="1250.55" y="-139.8" font-family="Times,serif" font-size="14.00">crypto</text>
</g>
<!-- csv -->
<g id="node10" class="node">
<title>csv</title>
<ellipse fill="none" stroke="black" cx="1218.55" cy="-468" rx="36" ry="36"/>
<text text-anchor="middle" x="1218.55" y="-463.8" font-family="Times,serif" font-size="14.00">csv</text>
</g>
<!-- streams -->
<g id="node11" class="node">
<title>streams</title>
<ellipse fill="none" stroke="black" cx="1263.55" cy="-360" rx="36" ry="36"/>
<text text-anchor="middle" x="1263.55" y="-355.8" font-family="Times,serif" font-size="14.00">streams</text>
</g>
<!-- csv&#45;&gt;streams -->
<g id="edge3" class="edge">
<title>csv&#45;&gt;streams</title>
<path fill="none" stroke="black" d="M1232.29,-434.62C1236.53,-424.65 1241.25,-413.51 1245.72,-402.99"/>
<polygon fill="black" stroke="black" points="1249.05,-404.12 1249.73,-393.55 1242.6,-401.38 1249.05,-404.12"/>
</g>
<!-- streams&#45;&gt;io -->
<g id="edge27" class="edge">
<title>streams&#45;&gt;io</title>
<path fill="none" stroke="black" d="M1237.39,-335.07C1231.54,-330.78 1225.11,-326.79 1218.55,-324 1115.24,-280.08 1079.43,-305.54 968.55,-288 914.33,-279.42 852.15,-268.55 811.05,-261.22"/>
<polygon fill="black" stroke="black" points="811.53,-257.75 801.07,-259.43 810.3,-264.64 811.53,-257.75"/>
</g>
<!-- streams&#45;&gt;assert -->
<g id="edge25" class="edge">
<title>streams&#45;&gt;assert</title>
<path fill="none" stroke="black" d="M1236.66,-335.25C1230.95,-331.05 1224.77,-327.05 1218.55,-324 1160.47,-295.55 1140.11,-304.42 1077.55,-288 958.67,-256.8 930.45,-243 810.55,-216 686.58,-188.08 538.59,-163.58 465.32,-152.03"/>
<polygon fill="black" stroke="black" points="465.49,-148.52 455.06,-150.43 464.4,-155.43 465.49,-148.52"/>
</g>
<!-- streams&#45;&gt;bytes -->
<g id="edge26" class="edge">
<title>streams&#45;&gt;bytes</title>
<path fill="none" stroke="black" d="M1239.47,-332.95C1228.28,-320.04 1215.33,-303.85 1205.55,-288 1185.79,-255.97 1168.69,-216.8 1157.15,-187.55"/>
<polygon fill="black" stroke="black" points="1160.34,-186.09 1153.46,-178.04 1153.82,-188.63 1160.34,-186.09"/>
</g>
<!-- data_\nstructures -->
<g id="node12" class="node">
<title>data_\nstructures</title>
<ellipse fill="none" stroke="black" cx="1488.55" cy="-576" rx="36" ry="36"/>
<text text-anchor="middle" x="1488.55" y="-580.2" font-family="Times,serif" font-size="14.00">data_</text>
<text text-anchor="middle" x="1488.55" y="-563.4" font-family="Times,serif" font-size="14.00">structures</text>
</g>
<!-- datetime -->
<g id="node13" class="node">
<title>datetime</title>
<ellipse fill="none" stroke="black" cx="1578.55" cy="-576" rx="36" ry="36"/>
<text text-anchor="middle" x="1578.55" y="-571.8" font-family="Times,serif" font-size="14.00">datetime</text>
</g>
<!-- dotenv -->
<g id="node14" class="node">
<title>dotenv</title>
<ellipse fill="none" stroke="black" cx="1668.55" cy="-576" rx="36" ry="36"/>
<text text-anchor="middle" x="1668.55" y="-571.8" font-family="Times,serif" font-size="14.00">dotenv</text>
</g>
<!-- encoding -->
<g id="node15" class="node">
<title>encoding</title>
<ellipse fill="lightgreen" stroke="black" cx="855.55" cy="-360" rx="36" ry="36"/>
<text text-anchor="middle" x="855.55" y="-355.8" font-family="Times,serif" font-size="14.00">encoding</text>
</g>
<!-- expect -->
<g id="node16" class="node">
<title>expect</title>
<ellipse fill="none" stroke="black" cx="52.55" cy="-252" rx="36" ry="36"/>
<text text-anchor="middle" x="52.55" y="-247.8" font-family="Times,serif" font-size="14.00">expect</text>
</g>
<!-- expect&#45;&gt;assert -->
<g id="edge4" class="edge">
<title>expect&#45;&gt;assert</title>
<path fill="none" stroke="black" d="M80.22,-228.79C87.2,-224.01 94.89,-219.38 102.55,-216 193.71,-175.78 310.01,-157.26 373.35,-149.64"/>
<polygon fill="black" stroke="black" points="373.89,-153.1 383.42,-148.47 373.08,-146.15 373.89,-153.1"/>
</g>
<!-- expect&#45;&gt;internal -->
<g id="edge5" class="edge">
<title>expect&#45;&gt;internal</title>
<path fill="none" stroke="black" d="M52.55,-215.66C52.55,-179.16 52.55,-122.05 52.55,-82.26"/>
<polygon fill="black" stroke="black" points="56.05,-82.03 52.55,-72.03 49.05,-82.03 56.05,-82.03"/>
</g>
<!-- fmt -->
<g id="node17" class="node">
<title>fmt</title>
<ellipse fill="none" stroke="black" cx="637.55" cy="-360" rx="36" ry="36"/>
<text text-anchor="middle" x="637.55" y="-355.8" font-family="Times,serif" font-size="14.00">fmt</text>
</g>
<!-- front_\nmatter -->
<g id="node18" class="node">
<title>front_\nmatter</title>
<ellipse fill="none" stroke="black" cx="1398.55" cy="-576" rx="36" ry="36"/>
<text text-anchor="middle" x="1398.55" y="-580.2" font-family="Times,serif" font-size="14.00">front_</text>
<text text-anchor="middle" x="1398.55" y="-563.4" font-family="Times,serif" font-size="14.00">matter</text>
</g>
<!-- toml -->
<g id="node19" class="node">
<title>toml</title>
<ellipse fill="lightgreen" stroke="black" cx="1398.55" cy="-468" rx="36" ry="36"/>
<text text-anchor="middle" x="1398.55" y="-463.8" font-family="Times,serif" font-size="14.00">toml</text>
</g>
<!-- front_\nmatter&#45;&gt;toml -->
<g id="edge6" class="edge">
<title>front_\nmatter&#45;&gt;toml</title>
<path fill="none" stroke="black" d="M1398.55,-540C1398.55,-531.85 1398.55,-523.06 1398.55,-514.54"/>
<polygon fill="black" stroke="black" points="1402.05,-514.33 1398.55,-504.33 1395.05,-514.33 1402.05,-514.33"/>
</g>
<!-- yaml -->
<g id="node20" class="node">
<title>yaml</title>
<ellipse fill="none" stroke="black" cx="1488.55" cy="-468" rx="36" ry="36"/>
<text text-anchor="middle" x="1488.55" y="-463.8" font-family="Times,serif" font-size="14.00">yaml</text>
</g>
<!-- front_\nmatter&#45;&gt;yaml -->
<g id="edge7" class="edge">
<title>front_\nmatter&#45;&gt;yaml</title>
<path fill="none" stroke="black" d="M1421.49,-547.98C1432.92,-534.52 1446.86,-518.1 1459.07,-503.72"/>
<polygon fill="black" stroke="black" points="1461.84,-505.86 1465.65,-495.97 1456.51,-501.33 1461.84,-505.86"/>
</g>
<!-- toml&#45;&gt;collections -->
<g id="edge36" class="edge">
<title>toml&#45;&gt;collections</title>
<path fill="none" stroke="black" d="M1398.55,-432C1398.55,-423.85 1398.55,-415.06 1398.55,-406.54"/>
<polygon fill="black" stroke="black" points="1402.05,-406.33 1398.55,-396.33 1395.05,-406.33 1402.05,-406.33"/>
</g>
<!-- fs -->
<g id="node21" class="node">
<title>fs</title>
<ellipse fill="none" stroke="black" cx="329.55" cy="-360" rx="36" ry="36"/>
<text text-anchor="middle" x="329.55" y="-355.8" font-family="Times,serif" font-size="14.00">fs</text>
</g>
<!-- path -->
<g id="node22" class="node">
<title>path</title>
<ellipse fill="lightgreen" stroke="black" cx="329.55" cy="-252" rx="36" ry="36"/>
<text text-anchor="middle" x="329.55" y="-247.8" font-family="Times,serif" font-size="14.00">path</text>
</g>
<!-- fs&#45;&gt;path -->
<g id="edge8" class="edge">
<title>fs&#45;&gt;path</title>
<path fill="none" stroke="black" d="M329.55,-324C329.55,-315.85 329.55,-307.06 329.55,-298.54"/>
<polygon fill="black" stroke="black" points="333.05,-298.33 329.55,-288.33 326.05,-298.33 333.05,-298.33"/>
</g>
<!-- html -->
<g id="node23" class="node">
<title>html</title>
<ellipse fill="lightgreen" stroke="black" cx="1758.55" cy="-576" rx="36" ry="36"/>
<text text-anchor="middle" x="1758.55" y="-571.8" font-family="Times,serif" font-size="14.00">html</text>
</g>
<!-- http -->
<g id="node24" class="node">
<title>http</title>
<ellipse fill="none" stroke="black" cx="912.55" cy="-468" rx="36" ry="36"/>
<text text-anchor="middle" x="912.55" y="-463.8" font-family="Times,serif" font-size="14.00">http</text>
</g>
<!-- http&#45;&gt;async -->
<g id="edge10" class="edge">
<title>http&#45;&gt;async</title>
<path fill="none" stroke="black" d="M876.96,-461.27C817.29,-451.19 693.66,-428.24 592.55,-396 578.76,-391.6 564.1,-385.81 550.99,-380.21"/>
<polygon fill="black" stroke="black" points="552.32,-376.97 541.76,-376.18 549.52,-383.39 552.32,-376.97"/>
</g>
<!-- http&#45;&gt;cli -->
<g id="edge14" class="edge">
<title>http&#45;&gt;cli</title>
<path fill="none" stroke="black" d="M947.7,-459.39C991.71,-448.99 1068.62,-427.91 1128.55,-396 1131.8,-394.27 1135.05,-392.3 1138.24,-390.21"/>
<polygon fill="black" stroke="black" points="1140.31,-393.03 1146.49,-384.42 1136.29,-387.3 1140.31,-393.03"/>
</g>
<!-- http&#45;&gt;streams -->
<g id="edge13" class="edge">
<title>http&#45;&gt;streams</title>
<path fill="none" stroke="black" d="M948.61,-463.71C1007.58,-457.24 1127.22,-439.5 1218.55,-396 1221.87,-394.42 1225.18,-392.56 1228.4,-390.53"/>
<polygon fill="black" stroke="black" points="1230.42,-393.39 1236.71,-384.86 1226.48,-387.61 1230.42,-393.39"/>
</g>
<!-- http&#45;&gt;encoding -->
<g id="edge9" class="edge">
<title>http&#45;&gt;encoding</title>
<path fill="none" stroke="black" d="M895.91,-436.06C890.05,-425.16 883.37,-412.75 877.16,-401.2"/>
<polygon fill="black" stroke="black" points="880.13,-399.32 872.31,-392.17 873.96,-402.63 880.13,-399.32"/>
</g>
<!-- http&#45;&gt;fmt -->
<g id="edge15" class="edge">
<title>http&#45;&gt;fmt</title>
<path fill="none" stroke="black" d="M877.37,-459.43C831.98,-448.87 751.29,-427.44 687.55,-396 683.15,-393.83 678.7,-391.3 674.37,-388.61"/>
<polygon fill="black" stroke="black" points="675.98,-385.48 665.7,-382.93 672.15,-391.34 675.98,-385.48"/>
</g>
<!-- http&#45;&gt;path -->
<g id="edge11" class="edge">
<title>http&#45;&gt;path</title>
<path fill="none" stroke="black" d="M876.75,-461.69C834.92,-453.85 765.72,-435.59 720.55,-396 693.34,-372.15 712.4,-344.45 682.55,-324 568.86,-246.09 502.09,-340.23 374.55,-288 371.05,-286.57 367.58,-284.78 364.23,-282.78"/>
<polygon fill="black" stroke="black" points="365.92,-279.69 355.65,-277.07 362.04,-285.52 365.92,-279.69"/>
</g>
<!-- media_types -->
<g id="node25" class="node">
<title>media_types</title>
<ellipse fill="none" stroke="black" cx="969.55" cy="-360" rx="59.69" ry="18"/>
<text text-anchor="middle" x="969.55" y="-355.8" font-family="Times,serif" font-size="14.00">media_types</text>
</g>
<!-- http&#45;&gt;media_types -->
<g id="edge12" class="edge">
<title>http&#45;&gt;media_types</title>
<path fill="none" stroke="black" d="M929.19,-436.06C937.54,-420.52 947.56,-401.9 955.52,-387.09"/>
<polygon fill="black" stroke="black" points="958.76,-388.45 960.42,-377.98 952.6,-385.13 958.76,-388.45"/>
</g>
<!-- net -->
<g id="node26" class="node">
<title>net</title>
<ellipse fill="none" stroke="black" cx="1083.55" cy="-360" rx="36" ry="36"/>
<text text-anchor="middle" x="1083.55" y="-355.8" font-family="Times,serif" font-size="14.00">net</text>
</g>
<!-- http&#45;&gt;net -->
<g id="edge16" class="edge">
<title>http&#45;&gt;net</title>
<path fill="none" stroke="black" d="M944.38,-450.74C970.33,-437.1 1007.61,-416.59 1038.55,-396 1041.61,-393.96 1044.74,-391.78 1047.84,-389.53"/>
<polygon fill="black" stroke="black" points="1050,-392.28 1055.94,-383.5 1045.83,-386.67 1050,-392.28"/>
</g>
<!-- ini -->
<g id="node27" class="node">
<title>ini</title>
<ellipse fill="none" stroke="black" cx="1848.55" cy="-576" rx="36" ry="36"/>
<text text-anchor="middle" x="1848.55" y="-571.8" font-family="Times,serif" font-size="14.00">ini</text>
</g>
<!-- json -->
<g id="node28" class="node">
<title>json</title>
<ellipse fill="none" stroke="black" cx="1308.55" cy="-468" rx="36" ry="36"/>
<text text-anchor="middle" x="1308.55" y="-463.8" font-family="Times,serif" font-size="14.00">json</text>
</g>
<!-- json&#45;&gt;streams -->
<g id="edge19" class="edge">
<title>json&#45;&gt;streams</title>
<path fill="none" stroke="black" d="M1294.8,-434.62C1290.57,-424.65 1285.84,-413.51 1281.37,-402.99"/>
<polygon fill="black" stroke="black" points="1284.49,-401.38 1277.37,-393.55 1278.05,-404.12 1284.49,-401.38"/>
</g>
<!-- jsonc -->
<g id="node29" class="node">
<title>jsonc</title>
<ellipse fill="none" stroke="black" cx="1308.55" cy="-576" rx="36" ry="36"/>
<text text-anchor="middle" x="1308.55" y="-571.8" font-family="Times,serif" font-size="14.00">jsonc</text>
</g>
<!-- jsonc&#45;&gt;json -->
<g id="edge20" class="edge">
<title>jsonc&#45;&gt;json</title>
<path fill="none" stroke="black" d="M1308.55,-540C1308.55,-531.85 1308.55,-523.06 1308.55,-514.54"/>
<polygon fill="black" stroke="black" points="1312.05,-514.33 1308.55,-504.33 1305.05,-514.33 1312.05,-514.33"/>
</g>
<!-- log -->
<g id="node30" class="node">
<title>log</title>
<ellipse fill="none" stroke="black" cx="573.55" cy="-468" rx="36" ry="36"/>
<text text-anchor="middle" x="573.55" y="-463.8" font-family="Times,serif" font-size="14.00">log</text>
</g>
<!-- log&#45;&gt;io -->
<g id="edge22" class="edge">
<title>log&#45;&gt;io</title>
<path fill="none" stroke="black" d="M569.02,-432.14C566.88,-400.68 568.85,-354.74 592.55,-324 623.09,-284.38 679.54,-266.73 719.65,-258.96"/>
<polygon fill="black" stroke="black" points="720.5,-262.36 729.72,-257.15 719.26,-255.47 720.5,-262.36"/>
</g>
<!-- log&#45;&gt;fmt -->
<g id="edge21" class="edge">
<title>log&#45;&gt;fmt</title>
<path fill="none" stroke="black" d="M591.72,-436.91C598.68,-425.38 606.71,-412.07 614.1,-399.84"/>
<polygon fill="black" stroke="black" points="617.16,-401.54 619.33,-391.17 611.17,-397.92 617.16,-401.54"/>
</g>
<!-- log&#45;&gt;fs -->
<g id="edge23" class="edge">
<title>log&#45;&gt;fs</title>
<path fill="none" stroke="black" d="M538.69,-458.21C497.8,-447.09 428.73,-425.73 374.55,-396 371.32,-394.23 368.08,-392.23 364.9,-390.12"/>
<polygon fill="black" stroke="black" points="366.86,-387.22 356.68,-384.3 362.82,-392.93 366.86,-387.22"/>
</g>
<!-- media_\ntypes -->
<g id="node31" class="node">
<title>media_\ntypes</title>
<ellipse fill="lightgreen" stroke="black" cx="1938.55" cy="-576" rx="36" ry="36"/>
<text text-anchor="middle" x="1938.55" y="-580.2" font-family="Times,serif" font-size="14.00">media_</text>
<text text-anchor="middle" x="1938.55" y="-563.4" font-family="Times,serif" font-size="14.00">types</text>
</g>
<!-- msgpack -->
<g id="node32" class="node">
<title>msgpack</title>
<ellipse fill="none" stroke="black" cx="1122.55" cy="-252" rx="36" ry="36"/>
<text text-anchor="middle" x="1122.55" y="-247.8" font-family="Times,serif" font-size="14.00">msgpack</text>
</g>
<!-- msgpack&#45;&gt;bytes -->
<g id="edge24" class="edge">
<title>msgpack&#45;&gt;bytes</title>
<path fill="none" stroke="black" d="M1128.77,-216.29C1130.3,-207.78 1131.95,-198.55 1133.55,-189.65"/>
<polygon fill="black" stroke="black" points="1136.99,-190.25 1135.31,-179.79 1130.1,-189.01 1136.99,-190.25"/>
</g>
<!-- regexp -->
<g id="node33" class="node">
<title>regexp</title>
<ellipse fill="none" stroke="black" cx="2028.55" cy="-576" rx="36" ry="36"/>
<text text-anchor="middle" x="2028.55" y="-571.8" font-family="Times,serif" font-size="14.00">regexp</text>
</g>
<!-- semver -->
<g id="node34" class="node">
<title>semver</title>
<ellipse fill="none" stroke="black" cx="2118.55" cy="-576" rx="36" ry="36"/>
<text text-anchor="middle" x="2118.55" y="-571.8" font-family="Times,serif" font-size="14.00">semver</text>
</g>
<!-- testing -->
<g id="node35" class="node">
<title>testing</title>
<ellipse fill="none" stroke="black" cx="265.55" cy="-468" rx="36" ry="36"/>
<text text-anchor="middle" x="265.55" y="-463.8" font-family="Times,serif" font-size="14.00">testing</text>
</g>
<!-- testing&#45;&gt;assert -->
<g id="edge28" class="edge">
<title>testing&#45;&gt;assert</title>
<path fill="none" stroke="black" d="M229.74,-463.95C188.25,-458.28 121.59,-442.1 90.55,-396 72.67,-369.46 74.33,-351.59 90.55,-324 152.15,-219.2 299.25,-172 374.11,-154.17"/>
<polygon fill="black" stroke="black" points="375.22,-157.5 384.17,-151.84 373.64,-150.68 375.22,-157.5"/>
</g>
<!-- testing&#45;&gt;internal -->
<g id="edge32" class="edge">
<title>testing&#45;&gt;internal</title>
<path fill="none" stroke="black" d="M230.03,-461.02C188.83,-452.56 120.68,-433.75 74.55,-396 30.83,-360.23 23.03,-342.32 7.55,-288 -13.04,-215.75 13.44,-129 33.63,-78.72"/>
<polygon fill="black" stroke="black" points="36.99,-79.74 37.57,-69.16 30.52,-77.08 36.99,-79.74"/>
</g>
<!-- testing&#45;&gt;async -->
<g id="edge34" class="edge">
<title>testing&#45;&gt;async</title>
<path fill="none" stroke="black" d="M300.41,-458.21C341.29,-447.09 410.36,-425.73 464.55,-396 467.78,-394.23 471.01,-392.23 474.19,-390.12"/>
<polygon fill="black" stroke="black" points="476.28,-392.93 482.42,-384.3 472.23,-387.22 476.28,-392.93"/>
</g>
<!-- testing&#45;&gt;fmt -->
<g id="edge31" class="edge">
<title>testing&#45;&gt;fmt</title>
<path fill="none" stroke="black" d="M300.75,-460.23C355.68,-449.24 464.8,-425.74 554.55,-396 568.29,-391.45 582.94,-385.61 596.05,-380.02"/>
<polygon fill="black" stroke="black" points="597.5,-383.2 605.28,-376.01 594.72,-376.78 597.5,-383.2"/>
</g>
<!-- testing&#45;&gt;fs -->
<g id="edge30" class="edge">
<title>testing&#45;&gt;fs</title>
<path fill="none" stroke="black" d="M283.72,-436.91C290.68,-425.38 298.71,-412.07 306.1,-399.84"/>
<polygon fill="black" stroke="black" points="309.16,-401.54 311.33,-391.17 303.17,-397.92 309.16,-401.54"/>
</g>
<!-- testing&#45;&gt;path -->
<g id="edge29" class="edge">
<title>testing&#45;&gt;path</title>
<path fill="none" stroke="black" d="M266.03,-431.91C267.4,-402.34 271.72,-359.31 284.55,-324 288.87,-312.11 295.43,-300.12 302.21,-289.48"/>
<polygon fill="black" stroke="black" points="305.3,-291.14 307.92,-280.88 299.47,-287.27 305.3,-291.14"/>
</g>
<!-- data_structures -->
<g id="node36" class="node">
<title>data_structures</title>
<ellipse fill="none" stroke="black" cx="168.55" cy="-360" rx="69.48" ry="18"/>
<text text-anchor="middle" x="168.55" y="-355.8" font-family="Times,serif" font-size="14.00">data_structures</text>
</g>
<!-- testing&#45;&gt;data_structures -->
<g id="edge33" class="edge">
<title>testing&#45;&gt;data_structures</title>
<path fill="none" stroke="black" d="M241.57,-440.8C226.05,-423.83 205.97,-401.9 190.8,-385.32"/>
<polygon fill="black" stroke="black" points="193.12,-382.67 183.79,-377.66 187.96,-387.4 193.12,-382.67"/>
</g>
<!-- text -->
<g id="node37" class="node">
<title>text</title>
<ellipse fill="none" stroke="black" cx="419.55" cy="-252" rx="36" ry="36"/>
<text text-anchor="middle" x="419.55" y="-247.8" font-family="Times,serif" font-size="14.00">text</text>
</g>
<!-- text&#45;&gt;assert -->
<g id="edge35" class="edge">
<title>text&#45;&gt;assert</title>
<path fill="none" stroke="black" d="M419.55,-216C419.55,-207.85 419.55,-199.06 419.55,-190.54"/>
<polygon fill="black" stroke="black" points="423.05,-190.33 419.55,-180.33 416.05,-190.33 423.05,-190.33"/>
</g>
<!-- ulid -->
<g id="node38" class="node">
<title>ulid</title>
<ellipse fill="none" stroke="black" cx="2208.55" cy="-576" rx="36" ry="36"/>
<text text-anchor="middle" x="2208.55" y="-571.8" font-family="Times,serif" font-size="14.00">ulid</text>
</g>
<!-- url -->
<g id="node39" class="node">
<title>url</title>
<ellipse fill="none" stroke="black" cx="419.55" cy="-360" rx="36" ry="36"/>
<text text-anchor="middle" x="419.55" y="-355.8" font-family="Times,serif" font-size="14.00">url</text>
</g>
<!-- url&#45;&gt;path -->
<g id="edge37" class="edge">
<title>url&#45;&gt;path</title>
<path fill="none" stroke="black" d="M396.6,-331.98C385.18,-318.52 371.23,-302.1 359.03,-287.72"/>
<polygon fill="black" stroke="black" points="361.59,-285.33 352.45,-279.97 356.25,-289.86 361.59,-285.33"/>
</g>
<!-- uuid -->
<g id="node40" class="node">
<title>uuid</title>
<ellipse fill="lightgreen" stroke="black" cx="1250.55" cy="-252" rx="36" ry="36"/>
<text text-anchor="middle" x="1250.55" y="-247.8" font-family="Times,serif" font-size="14.00">uuid</text>
</g>
<!-- uuid&#45;&gt;bytes -->
<g id="edge38" class="edge">
<title>uuid&#45;&gt;bytes</title>
<path fill="none" stroke="black" d="M1224.99,-226.15C1209.82,-211.4 1190.44,-192.54 1174.17,-176.73"/>
<polygon fill="black" stroke="black" points="1176.55,-174.16 1166.94,-169.7 1171.67,-179.18 1176.55,-174.16"/>
</g>
<!-- uuid&#45;&gt;crypto -->
<g id="edge39" class="edge">
<title>uuid&#45;&gt;crypto</title>
<path fill="none" stroke="black" d="M1250.55,-216C1250.55,-207.85 1250.55,-199.06 1250.55,-190.54"/>
<polygon fill="black" stroke="black" points="1254.05,-190.33 1250.55,-180.33 1247.05,-190.33 1254.05,-190.33"/>
</g>
<!-- webgpu -->
<g id="node41" class="node">
<title>webgpu</title>
<ellipse fill="none" stroke="black" cx="509.55" cy="-252" rx="36" ry="36"/>
<text text-anchor="middle" x="509.55" y="-247.8" font-family="Times,serif" font-size="14.00">webgpu</text>
</g>
<!-- webgpu&#45;&gt;assert -->
<g id="edge40" class="edge">
<title>webgpu&#45;&gt;assert</title>
<path fill="none" stroke="black" d="M486.6,-223.98C475.18,-210.52 461.23,-194.1 449.03,-179.72"/>
<polygon fill="black" stroke="black" points="451.59,-177.33 442.45,-171.97 446.25,-181.86 451.59,-177.33"/>
</g>
</g>
</svg>