<?xml version="1.0" encoding="UTF-8" standalone="no"?>
<!DOCTYPE svg PUBLIC "-//W3C//DTD SVG 1.1//EN"
 "http://www.w3.org/Graphics/SVG/1.1/DTD/svg11.dtd">
<!-- Generated by graphviz version 2.44.0 (20200518.1210)
 -->
<!-- Title: std_deps Pages: 1 -->
<svg width="2331pt" height="620pt"
 viewBox="0.00 0.00 2331.00 620.00" xmlns="http://www.w3.org/2000/svg" xmlns:xlink="http://www.w3.org/1999/xlink">
<g id="graph0" class="graph" transform="scale(1 1) rotate(0) translate(4 616)">
<title>std_deps</title>
<polygon fill="white" stroke="transparent" points="-4,4 -4,-616 2327,-616 2327,4 -4,4"/>
<!-- archive -->
<g id="node1" class="node">
<title>archive</title>
<ellipse fill="none" stroke="black" cx="636" cy="-360" rx="36" ry="36"/>
<text text-anchor="middle" x="636" y="-355.8" font-family="Times,serif" font-size="14.00">archive</text>
</g>
<!-- io -->
<g id="node2" class="node">
<title>io</title>
<ellipse fill="none" stroke="black" cx="388" cy="-252" rx="36" ry="36"/>
<text text-anchor="middle" x="388" y="-247.8" font-family="Times,serif" font-size="14.00">io</text>
</g>
<!-- archive&#45;&gt;io -->
<g id="edge1" class="edge">
<title>archive&#45;&gt;io</title>
<path fill="none" stroke="black" d="M608.3,-336.85C601.33,-332.06 593.64,-327.42 586,-324 522.24,-295.46 496.02,-318.14 433,-288 429.68,-286.41 426.37,-284.55 423.15,-282.52"/>
<polygon fill="black" stroke="black" points="425.08,-279.6 414.85,-276.85 421.13,-285.38 425.08,-279.6"/>
</g>
<!-- assert -->
<g id="node3" class="node">
<title>assert</title>
<ellipse fill="lightgreen" stroke="black" cx="630" cy="-144" rx="36" ry="36"/>
<text text-anchor="middle" x="630" y="-139.8" font-family="Times,serif" font-size="14.00">assert</text>
</g>
<!-- archive&#45;&gt;assert -->
<g id="edge2" class="edge">
<title>archive&#45;&gt;assert</title>
<path fill="none" stroke="black" d="M635.01,-323.66C633.99,-287.16 632.38,-230.05 631.27,-190.26"/>
<polygon fill="black" stroke="black" points="634.76,-189.93 630.98,-180.03 627.76,-190.13 634.76,-189.93"/>
</g>
<!-- io&#45;&gt;assert -->
<g id="edge20" class="edge">
<title>io&#45;&gt;assert</title>
<path fill="none" stroke="black" d="M415.14,-227.71C420.82,-223.47 426.93,-219.34 433,-216 482.42,-188.78 544.33,-168.47 585.41,-156.69"/>
<polygon fill="black" stroke="black" points="586.46,-160.03 595.13,-153.95 584.56,-153.3 586.46,-160.03"/>
</g>
<!-- bytes -->
<g id="node6" class="node">
<title>bytes</title>
<ellipse fill="lightgreen" stroke="black" cx="158" cy="-144" rx="36" ry="36"/>
<text text-anchor="middle" x="158" y="-139.8" font-family="Times,serif" font-size="14.00">bytes</text>
</g>
<!-- io&#45;&gt;bytes -->
<g id="edge21" class="edge">
<title>io&#45;&gt;bytes</title>
<path fill="none" stroke="black" d="M354.39,-238.71C304.87,-220.51 216.67,-187.71 203,-180 199.79,-178.19 196.57,-176.17 193.4,-174.03"/>
<polygon fill="black" stroke="black" points="195.37,-171.14 185.19,-168.19 191.31,-176.84 195.37,-171.14"/>
</g>
<!-- internal -->
<g id="node4" class="node">
<title>internal</title>
<ellipse fill="lightgreen" stroke="black" cx="630" cy="-36" rx="36" ry="36"/>
<text text-anchor="middle" x="630" y="-31.8" font-family="Times,serif" font-size="14.00">internal</text>
</g>
<!-- assert&#45;&gt;internal -->
<g id="edge3" class="edge">
<title>assert&#45;&gt;internal</title>
<path fill="none" stroke="black" d="M630,-108C630,-99.85 630,-91.06 630,-82.54"/>
<polygon fill="black" stroke="black" points="633.5,-82.33 630,-72.33 626.5,-82.33 633.5,-82.33"/>
</g>
<!-- async -->
<g id="node5" class="node">
<title>async</title>
<ellipse fill="none" stroke="black" cx="1072" cy="-360" rx="36" ry="36"/>
<text text-anchor="middle" x="1072" y="-355.8" font-family="Times,serif" font-size="14.00">async</text>
</g>
<!-- cli -->
<g id="node7" class="node">
<title>cli</title>
<ellipse fill="none" stroke="black" cx="190" cy="-360" rx="36" ry="36"/>
<text text-anchor="middle" x="190" y="-355.8" font-family="Times,serif" font-size="14.00">cli</text>
</g>
<!-- collections -->
<g id="node8" class="node">
<title>collections</title>
<ellipse fill="lightgreen" stroke="black" cx="1432" cy="-360" rx="36" ry="36"/>
<text text-anchor="middle" x="1432" y="-355.8" font-family="Times,serif" font-size="14.00">collections</text>
</g>
<!-- crypto -->
<g id="node9" class="node">
<title>crypto</title>
<ellipse fill="lightgreen" stroke="black" cx="248" cy="-144" rx="36" ry="36"/>
<text text-anchor="middle" x="248" y="-139.8" font-family="Times,serif" font-size="14.00">crypto</text>
</g>
<!-- csv -->
<g id="node10" class="node">
<title>csv</title>
<ellipse fill="none" stroke="black" cx="126" cy="-468" rx="36" ry="36"/>
<text text-anchor="middle" x="126" y="-463.8" font-family="Times,serif" font-size="14.00">csv</text>
</g>
<!-- csv&#45;&gt;assert -->
<g id="edge4" class="edge">
<title>csv&#45;&gt;assert</title>
<path fill="none" stroke="black" d="M119.68,-432.51C115.86,-399.71 116.3,-351.43 145,-324 211.76,-260.2 482.7,-340.02 559,-288 592.31,-265.29 610.69,-222.22 620.35,-189.26"/>
<polygon fill="black" stroke="black" points="623.79,-189.96 623.08,-179.39 617.04,-188.1 623.79,-189.96"/>
</g>
<!-- streams -->
<g id="node11" class="node">
<title>streams</title>
<ellipse fill="none" stroke="black" cx="62" cy="-360" rx="36" ry="36"/>
<text text-anchor="middle" x="62" y="-355.8" font-family="Times,serif" font-size="14.00">streams</text>
</g>
<!-- csv&#45;&gt;streams -->
<g id="edge5" class="edge">
<title>csv&#45;&gt;streams</title>
<path fill="none" stroke="black" d="M107.83,-436.91C100.87,-425.38 92.83,-412.07 85.45,-399.84"/>
<polygon fill="black" stroke="black" points="88.38,-397.92 80.21,-391.17 82.39,-401.54 88.38,-397.92"/>
</g>
<!-- streams&#45;&gt;io -->
<g id="edge30" class="edge">
<title>streams&#45;&gt;io</title>
<path fill="none" stroke="black" d="M89.61,-336.66C96.59,-331.88 104.3,-327.29 112,-324 187.43,-291.79 214.05,-310.25 293,-288 310.37,-283.1 329.09,-276.51 345.29,-270.36"/>
<polygon fill="black" stroke="black" points="346.94,-273.47 355.01,-266.61 344.42,-266.94 346.94,-273.47"/>
</g>
<!-- streams&#45;&gt;assert -->
<g id="edge28" class="edge">
<title>streams&#45;&gt;assert</title>
<path fill="none" stroke="black" d="M89.11,-336.23C96.16,-331.4 104.03,-326.9 112,-324 198.15,-292.64 445.32,-336.69 523,-288 554.58,-268.2 543.86,-245.99 566,-216 575.7,-202.86 587.41,-189.33 598.14,-177.64"/>
<polygon fill="black" stroke="black" points="600.76,-179.96 605.02,-170.26 595.64,-175.19 600.76,-179.96"/>
</g>
<!-- streams&#45;&gt;bytes -->
<g id="edge29" class="edge">
<title>streams&#45;&gt;bytes</title>
<path fill="none" stroke="black" d="M71.72,-325.2C80.75,-295.67 95.44,-252.01 113,-216 118.5,-204.73 125.37,-193.02 132.09,-182.45"/>
<polygon fill="black" stroke="black" points="135.15,-184.16 137.65,-173.86 129.28,-180.35 135.15,-184.16"/>
</g>
<!-- data_\nstructures -->
<g id="node12" class="node">
<title>data_\nstructures</title>
<ellipse fill="none" stroke="black" cx="1567" cy="-576" rx="36" ry="36"/>
<text text-anchor="middle" x="1567" y="-580.2" font-family="Times,serif" font-size="14.00">data_</text>
<text text-anchor="middle" x="1567" y="-563.4" font-family="Times,serif" font-size="14.00">structures</text>
</g>
<!-- datetime -->
<g id="node13" class="node">
<title>datetime</title>
<ellipse fill="none" stroke="black" cx="1657" cy="-576" rx="36" ry="36"/>
<text text-anchor="middle" x="1657" y="-571.8" font-family="Times,serif" font-size="14.00">datetime</text>
</g>
<!-- dotenv -->
<g id="node14" class="node">
<title>dotenv</title>
<ellipse fill="none" stroke="black" cx="1747" cy="-576" rx="36" ry="36"/>
<text text-anchor="middle" x="1747" y="-571.8" font-family="Times,serif" font-size="14.00">dotenv</text>
</g>
<!-- encoding -->
<g id="node15" class="node">
<title>encoding</title>
<ellipse fill="lightgreen" stroke="black" cx="280" cy="-360" rx="36" ry="36"/>
<text text-anchor="middle" x="280" y="-355.8" font-family="Times,serif" font-size="14.00">encoding</text>
</g>
<!-- expect -->
<g id="node16" class="node">
<title>expect</title>
<ellipse fill="none" stroke="black" cx="478" cy="-252" rx="36" ry="36"/>
<text text-anchor="middle" x="478" y="-247.8" font-family="Times,serif" font-size="14.00">expect</text>
</g>
<!-- expect&#45;&gt;assert -->
<g id="edge6" class="edge">
<title>expect&#45;&gt;assert</title>
<path fill="none" stroke="black" d="M507.07,-230.63C513.93,-225.83 521.22,-220.73 528,-216 549.27,-201.15 573.05,-184.6 592.3,-171.21"/>
<polygon fill="black" stroke="black" points="594.32,-174.07 600.53,-165.49 590.32,-168.32 594.32,-174.07"/>
</g>
<!-- expect&#45;&gt;internal -->
<g id="edge7" class="edge">
<title>expect&#45;&gt;internal</title>
<path fill="none" stroke="black" d="M498.5,-222.14C525.72,-183.82 573.81,-116.11 603.68,-74.05"/>
<polygon fill="black" stroke="black" points="606.65,-75.92 609.58,-65.74 600.94,-71.87 606.65,-75.92"/>
</g>
<!-- fmt -->
<g id="node17" class="node">
<title>fmt</title>
<ellipse fill="none" stroke="black" cx="764" cy="-360" rx="36" ry="36"/>
<text text-anchor="middle" x="764" y="-355.8" font-family="Times,serif" font-size="14.00">fmt</text>
</g>
<!-- front_\nmatter -->
<g id="node18" class="node">
<title>front_\nmatter</title>
<ellipse fill="none" stroke="black" cx="1477" cy="-576" rx="36" ry="36"/>
<text text-anchor="middle" x="1477" y="-580.2" font-family="Times,serif" font-size="14.00">front_</text>
<text text-anchor="middle" x="1477" y="-563.4" font-family="Times,serif" font-size="14.00">matter</text>
</g>
<!-- toml -->
<g id="node19" class="node">
<title>toml</title>
<ellipse fill="none" stroke="black" cx="1432" cy="-468" rx="36" ry="36"/>
<text text-anchor="middle" x="1432" y="-463.8" font-family="Times,serif" font-size="14.00">toml</text>
</g>
<!-- front_\nmatter&#45;&gt;toml -->
<g id="edge8" class="edge">
<title>front_\nmatter&#45;&gt;toml</title>
<path fill="none" stroke="black" d="M1463.25,-542.62C1459.02,-532.65 1454.29,-521.51 1449.83,-510.99"/>
<polygon fill="black" stroke="black" points="1452.95,-509.38 1445.82,-501.55 1446.5,-512.12 1452.95,-509.38"/>
</g>
<!-- yaml -->
<g id="node20" class="node">
<title>yaml</title>
<ellipse fill="none" stroke="black" cx="1522" cy="-468" rx="36" ry="36"/>
<text text-anchor="middle" x="1522" y="-463.8" font-family="Times,serif" font-size="14.00">yaml</text>
</g>
<!-- front_\nmatter&#45;&gt;yaml -->
<g id="edge9" class="edge">
<title>front_\nmatter&#45;&gt;yaml</title>
<path fill="none" stroke="black" d="M1490.75,-542.62C1494.98,-532.65 1499.71,-521.51 1504.17,-510.99"/>
<polygon fill="black" stroke="black" points="1507.5,-512.12 1508.18,-501.55 1501.05,-509.38 1507.5,-512.12"/>
</g>
<!-- toml&#45;&gt;collections -->
<g id="edge39" class="edge">
<title>toml&#45;&gt;collections</title>
<path fill="none" stroke="black" d="M1432,-432C1432,-423.85 1432,-415.06 1432,-406.54"/>
<polygon fill="black" stroke="black" points="1435.5,-406.33 1432,-396.33 1428.5,-406.33 1435.5,-406.33"/>
</g>
<!-- fs -->
<g id="node21" class="node">
<title>fs</title>
<ellipse fill="none" stroke="black" cx="854" cy="-360" rx="36" ry="36"/>
<text text-anchor="middle" x="854" y="-355.8" font-family="Times,serif" font-size="14.00">fs</text>
</g>
<!-- path -->
<g id="node22" class="node">
<title>path</title>
<ellipse fill="lightgreen" stroke="black" cx="854" cy="-252" rx="36" ry="36"/>
<text text-anchor="middle" x="854" y="-247.8" font-family="Times,serif" font-size="14.00">path</text>
</g>
<!-- fs&#45;&gt;path -->
<g id="edge10" class="edge">
<title>fs&#45;&gt;path</title>
<path fill="none" stroke="black" d="M854,-324C854,-315.85 854,-307.06 854,-298.54"/>
<polygon fill="black" stroke="black" points="857.5,-298.33 854,-288.33 850.5,-298.33 857.5,-298.33"/>
</g>
<!-- html -->
<g id="node23" class="node">
<title>html</title>
<ellipse fill="lightgreen" stroke="black" cx="1837" cy="-576" rx="36" ry="36"/>
<text text-anchor="middle" x="1837" y="-571.8" font-family="Times,serif" font-size="14.00">html</text>
</g>
<!-- http -->
<g id="node24" class="node">
<title>http</title>
<ellipse fill="none" stroke="black" cx="508" cy="-468" rx="36" ry="36"/>
<text text-anchor="middle" x="508" y="-463.8" font-family="Times,serif" font-size="14.00">http</text>
</g>
<!-- http&#45;&gt;assert -->
<g id="edge11" class="edge">
<title>http&#45;&gt;assert</title>
<path fill="none" stroke="black" d="M543.41,-460.77C585.29,-453.49 657.12,-441.26 719,-432 778.87,-423.05 949.13,-441.54 989,-396 1041.7,-335.81 1039.79,-277.81 989,-216 949.9,-168.41 764.13,-152.18 676.27,-147.11"/>
<polygon fill="black" stroke="black" points="676.23,-143.6 666.05,-146.54 675.84,-150.59 676.23,-143.6"/>
</g>
<!-- http&#45;&gt;async -->
<g id="edge13" class="edge">
<title>http&#45;&gt;async</title>
<path fill="none" stroke="black" d="M543.39,-460.62C585.24,-453.19 657.06,-440.81 719,-432 853.26,-412.9 895.3,-444.34 1022,-396 1026.77,-394.18 1031.51,-391.81 1036.07,-389.16"/>
<polygon fill="black" stroke="black" points="1037.98,-392.08 1044.56,-383.78 1034.24,-386.17 1037.98,-392.08"/>
</g>
<!-- http&#45;&gt;cli -->
<g id="edge17" class="edge">
<title>http&#45;&gt;cli</title>
<path fill="none" stroke="black" d="M472.35,-462.44C418.63,-454.55 314.73,-435.28 235,-396 231.7,-394.37 228.41,-392.48 225.19,-390.43"/>
<polygon fill="black" stroke="black" points="227.13,-387.52 216.9,-384.73 223.16,-393.28 227.13,-387.52"/>
</g>
<!-- http&#45;&gt;streams -->
<g id="edge16" class="edge">
<title>http&#45;&gt;streams</title>
<path fill="none" stroke="black" d="M472.37,-462.51C406.64,-453.7 262.31,-431.79 145,-396 131.16,-391.78 116.48,-386.03 103.37,-380.42"/>
<polygon fill="black" stroke="black" points="104.71,-377.19 94.15,-376.38 101.9,-383.6 104.71,-377.19"/>
</g>
<!-- http&#45;&gt;encoding -->
<g id="edge12" class="edge">
<title>http&#45;&gt;encoding</title>
<path fill="none" stroke="black" d="M473.61,-456.97C435.8,-445.2 373.92,-423.72 325,-396 321.8,-394.19 318.58,-392.16 315.41,-390.02"/>
<polygon fill="black" stroke="black" points="317.38,-387.13 307.2,-384.17 313.31,-392.83 317.38,-387.13"/>
</g>
<!-- http&#45;&gt;fmt -->
<g id="edge18" class="edge">
<title>http&#45;&gt;fmt</title>
<path fill="none" stroke="black" d="M542.73,-458.23C584.66,-446.93 656.7,-425.2 714,-396 718.37,-393.77 722.8,-391.2 727.12,-388.49"/>
<polygon fill="black" stroke="black" points="729.35,-391.21 735.78,-382.79 725.5,-385.37 729.35,-391.21"/>
</g>
<!-- http&#45;&gt;path -->
<g id="edge14" class="edge">
<title>http&#45;&gt;path</title>
<path fill="none" stroke="black" d="M543.35,-460.03C581.31,-450.98 641.46,-431.9 681,-396 707.79,-371.67 693.4,-349.57 719,-324 744.76,-298.28 781.78,-279.71 810.54,-268.03"/>
<polygon fill="black" stroke="black" points="811.92,-271.24 819.95,-264.33 809.36,-264.73 811.92,-271.24"/>
</g>
<!-- media_types -->
<g id="node25" class="node">
<title>media_types</title>
<ellipse fill="none" stroke="black" cx="394" cy="-360" rx="59.69" ry="18"/>
<text text-anchor="middle" x="394" y="-355.8" font-family="Times,serif" font-size="14.00">media_types</text>
</g>
<!-- http&#45;&gt;media_types -->
<g id="edge15" class="edge">
<title>http&#45;&gt;media_types</title>
<path fill="none" stroke="black" d="M482.13,-442.95C463.28,-425.42 437.87,-401.79 419.18,-384.41"/>
<polygon fill="black" stroke="black" points="421.32,-381.63 411.62,-377.38 416.56,-386.75 421.32,-381.63"/>
</g>
<!-- net -->
<g id="node26" class="node">
<title>net</title>
<ellipse fill="none" stroke="black" cx="508" cy="-360" rx="36" ry="36"/>
<text text-anchor="middle" x="508" y="-355.8" font-family="Times,serif" font-size="14.00">net</text>
</g>
<!-- http&#45;&gt;net -->
<g id="edge19" class="edge">
<title>http&#45;&gt;net</title>
<path fill="none" stroke="black" d="M508,-432C508,-423.85 508,-415.06 508,-406.54"/>
<polygon fill="black" stroke="black" points="511.5,-406.33 508,-396.33 504.5,-406.33 511.5,-406.33"/>
</g>
<!-- ini -->
<g id="node27" class="node">
<title>ini</title>
<ellipse fill="none" stroke="black" cx="1927" cy="-576" rx="36" ry="36"/>
<text text-anchor="middle" x="1927" y="-571.8" font-family="Times,serif" font-size="14.00">ini</text>
</g>
<!-- json -->
<g id="node28" class="node">
<title>json</title>
<ellipse fill="none" stroke="black" cx="36" cy="-468" rx="36" ry="36"/>
<text text-anchor="middle" x="36" y="-463.8" font-family="Times,serif" font-size="14.00">json</text>
</g>
<!-- json&#45;&gt;streams -->
<g id="edge22" class="edge">
<title>json&#45;&gt;streams</title>
<path fill="none" stroke="black" d="M44.37,-432.88C46.55,-423.99 48.93,-414.28 51.22,-404.96"/>
<polygon fill="black" stroke="black" points="54.66,-405.6 53.65,-395.06 47.86,-403.94 54.66,-405.6"/>
</g>
<!-- jsonc -->
<g id="node29" class="node">
<title>jsonc</title>
<ellipse fill="none" stroke="black" cx="36" cy="-576" rx="36" ry="36"/>
<text text-anchor="middle" x="36" y="-571.8" font-family="Times,serif" font-size="14.00">jsonc</text>
</g>
<!-- jsonc&#45;&gt;json -->
<g id="edge23" class="edge">
<title>jsonc&#45;&gt;json</title>
<path fill="none" stroke="black" d="M36,-540C36,-531.85 36,-523.06 36,-514.54"/>
<polygon fill="black" stroke="black" points="39.5,-514.33 36,-504.33 32.5,-514.33 39.5,-514.33"/>
</g>
<!-- log -->
<g id="node30" class="node">
<title>log</title>
<ellipse fill="none" stroke="black" cx="764" cy="-468" rx="36" ry="36"/>
<text text-anchor="middle" x="764" y="-463.8" font-family="Times,serif" font-size="14.00">log</text>
</g>
<!-- log&#45;&gt;io -->
<g id="edge25" class="edge">
<title>log&#45;&gt;io</title>
<path fill="none" stroke="black" d="M728.65,-460.03C690.69,-450.98 630.54,-431.9 591,-396 564.21,-371.67 580.95,-346.99 553,-324 510,-288.63 482.49,-313.53 433,-288 429.73,-286.31 426.46,-284.38 423.26,-282.3"/>
<polygon fill="black" stroke="black" points="425.2,-279.39 415,-276.55 421.2,-285.14 425.2,-279.39"/>
</g>
<!-- log&#45;&gt;fmt -->
<g id="edge24" class="edge">
<title>log&#45;&gt;fmt</title>
<path fill="none" stroke="black" d="M764,-432C764,-423.85 764,-415.06 764,-406.54"/>
<polygon fill="black" stroke="black" points="767.5,-406.33 764,-396.33 760.5,-406.33 767.5,-406.33"/>
</g>
<!-- log&#45;&gt;fs -->
<g id="edge26" class="edge">
<title>log&#45;&gt;fs</title>
<path fill="none" stroke="black" d="M786.94,-439.98C798.37,-426.52 812.31,-410.1 824.52,-395.72"/>
<polygon fill="black" stroke="black" points="827.29,-397.86 831.1,-387.97 821.96,-393.33 827.29,-397.86"/>
</g>
<!-- media_\ntypes -->
<g id="node31" class="node">
<title>media_\ntypes</title>
<ellipse fill="lightgreen" stroke="black" cx="2017" cy="-576" rx="36" ry="36"/>
<text text-anchor="middle" x="2017" y="-580.2" font-family="Times,serif" font-size="14.00">media_</text>
<text text-anchor="middle" x="2017" y="-563.4" font-family="Times,serif" font-size="14.00">types</text>
</g>
<!-- msgpack -->
<g id="node32" class="node">
<title>msgpack</title>
<ellipse fill="none" stroke="black" cx="158" cy="-252" rx="36" ry="36"/>
<text text-anchor="middle" x="158" y="-247.8" font-family="Times,serif" font-size="14.00">msgpack</text>
</g>
<!-- msgpack&#45;&gt;bytes -->
<g id="edge27" class="edge">
<title>msgpack&#45;&gt;bytes</title>
<path fill="none" stroke="black" d="M158,-216C158,-207.85 158,-199.06 158,-190.54"/>
<polygon fill="black" stroke="black" points="161.5,-190.33 158,-180.33 154.5,-190.33 161.5,-190.33"/>
</g>
<!-- regexp -->
<g id="node33" class="node">
<title>regexp</title>
<ellipse fill="none" stroke="black" cx="2107" cy="-576" rx="36" ry="36"/>
<text text-anchor="middle" x="2107" y="-571.8" font-family="Times,serif" font-size="14.00">regexp</text>
</g>
<!-- semver -->
<g id="node34" class="node">
<title>semver</title>
<ellipse fill="none" stroke="black" cx="2197" cy="-576" rx="36" ry="36"/>
<text text-anchor="middle" x="2197" y="-571.8" font-family="Times,serif" font-size="14.00">semver</text>
</g>
<!-- testing -->
<g id="node35" class="node">
<title>testing</title>
<ellipse fill="none" stroke="black" cx="1136" cy="-468" rx="36" ry="36"/>
<text text-anchor="middle" x="1136" y="-463.8" font-family="Times,serif" font-size="14.00">testing</text>
</g>
<!-- testing&#45;&gt;assert -->
<g id="edge31" class="edge">
<title>testing&#45;&gt;assert</title>
<path fill="none" stroke="black" d="M1146.36,-433.32C1153.67,-403.28 1159.67,-358.8 1144,-324 1114.27,-257.97 1087.15,-247.62 1022,-216 906.42,-159.9 752.17,-147.83 676.23,-145.43"/>
<polygon fill="black" stroke="black" points="676.14,-141.93 666.05,-145.15 675.95,-148.93 676.14,-141.93"/>
</g>
<!-- testing&#45;&gt;internal -->
<g id="edge35" class="edge">
<title>testing&#45;&gt;internal</title>
<path fill="none" stroke="black" d="M1172.39,-466.9C1221.79,-464.56 1308.54,-452.13 1349,-396 1367.71,-370.04 1366.8,-350.59 1349,-324 1192.13,-89.66 809.42,-46.66 676.44,-38.77"/>
<polygon fill="black" stroke="black" points="676.37,-35.26 666.19,-38.2 675.99,-42.25 676.37,-35.26"/>
</g>
<!-- testing&#45;&gt;async -->
<g id="edge37" class="edge">
<title>testing&#45;&gt;async</title>
<path fill="none" stroke="black" d="M1117.83,-436.91C1110.87,-425.38 1102.83,-412.07 1095.45,-399.84"/>
<polygon fill="black" stroke="black" points="1098.38,-397.92 1090.21,-391.17 1092.39,-401.54 1098.38,-397.92"/>
</g>
<!-- testing&#45;&gt;fmt -->
<g id="edge34" class="edge">
<title>testing&#45;&gt;fmt</title>
<path fill="none" stroke="black" d="M1099.98,-464.43C1037.91,-458.87 907.93,-442.26 809,-396 805.57,-394.4 802.16,-392.49 798.84,-390.41"/>
<polygon fill="black" stroke="black" points="800.55,-387.33 790.32,-384.57 796.59,-393.11 800.55,-387.33"/>
</g>
<!-- testing&#45;&gt;fs -->
<g id="edge33" class="edge">
<title>testing&#45;&gt;fs</title>
<path fill="none" stroke="black" d="M1100.72,-460.68C1053.01,-451.21 966.19,-430.64 899,-396 895.73,-394.31 892.46,-392.38 889.26,-390.3"/>
<polygon fill="black" stroke="black" points="891.2,-387.39 880.99,-384.55 887.2,-393.14 891.2,-387.39"/>
</g>
<!-- testing&#45;&gt;path -->
<g id="edge32" class="edge">
<title>testing&#45;&gt;path</title>
<path fill="none" stroke="black" d="M1141.92,-432.36C1145.31,-399.93 1144.45,-352.33 1117,-324 1048.67,-253.47 988.97,-327.36 899,-288 895.53,-286.48 892.1,-284.64 888.76,-282.6"/>
<polygon fill="black" stroke="black" points="890.45,-279.52 880.21,-276.83 886.54,-285.32 890.45,-279.52"/>
</g>
<!-- data_structures -->
<g id="node36" class="node">
<title>data_structures</title>
<ellipse fill="none" stroke="black" cx="1271" cy="-360" rx="69.48" ry="18"/>
<text text-anchor="middle" x="1271" y="-355.8" font-family="Times,serif" font-size="14.00">data_structures</text>
</g>
<!-- testing&#45;&gt;data_structures -->
<g id="edge36" class="edge">
<title>testing&#45;&gt;data_structures</title>
<path fill="none" stroke="black" d="M1163.97,-445.04C1186.81,-427.11 1218.96,-401.86 1242.06,-383.72"/>
<polygon fill="black" stroke="black" points="1244.42,-386.32 1250.12,-377.39 1240.1,-380.81 1244.42,-386.32"/>
</g>
<!-- text -->
<g id="node37" class="node">
<title>text</title>
<ellipse fill="none" stroke="black" cx="944" cy="-252" rx="36" ry="36"/>
<text text-anchor="middle" x="944" y="-247.8" font-family="Times,serif" font-size="14.00">text</text>
</g>
<!-- text&#45;&gt;assert -->
<g id="edge38" class="edge">
<title>text&#45;&gt;assert</title>
<path fill="none" stroke="black" d="M917.09,-227.29C911.39,-223.08 905.21,-219.07 899,-216 825.39,-179.57 730.89,-160.21 675.72,-151.32"/>
<polygon fill="black" stroke="black" points="675.98,-147.82 665.56,-149.73 674.9,-154.73 675.98,-147.82"/>
</g>
<!-- ulid -->
<g id="node38" class="node">
<title>ulid</title>
<ellipse fill="none" stroke="black" cx="2287" cy="-576" rx="36" ry="36"/>
<text text-anchor="middle" x="2287" y="-571.8" font-family="Times,serif" font-size="14.00">ulid</text>
</g>
<!-- url -->
<g id="node39" class="node">
<title>url</title>
<ellipse fill="none" stroke="black" cx="944" cy="-360" rx="36" ry="36"/>
<text text-anchor="middle" x="944" y="-355.8" font-family="Times,serif" font-size="14.00">url</text>
</g>
<!-- url&#45;&gt;path -->
<g id="edge40" class="edge">
<title>url&#45;&gt;path</title>
<path fill="none" stroke="black" d="M921.06,-331.98C909.63,-318.52 895.69,-302.1 883.48,-287.72"/>
<polygon fill="black" stroke="black" points="886.04,-285.33 876.9,-279.97 880.71,-289.86 886.04,-285.33"/>
</g>
<!-- uuid -->
<g id="node40" class="node">
<title>uuid</title>
<ellipse fill="lightgreen" stroke="black" cx="248" cy="-252" rx="36" ry="36"/>
<text text-anchor="middle" x="248" y="-247.8" font-family="Times,serif" font-size="14.00">uuid</text>
</g>
<!-- uuid&#45;&gt;bytes -->
<g id="edge41" class="edge">
<title>uuid&#45;&gt;bytes</title>
<path fill="none" stroke="black" d="M225.06,-223.98C213.63,-210.52 199.69,-194.1 187.48,-179.72"/>
<polygon fill="black" stroke="black" points="190.04,-177.33 180.9,-171.97 184.71,-181.86 190.04,-177.33"/>
</g>
<!-- uuid&#45;&gt;crypto -->
<g id="edge42" class="edge">
<title>uuid&#45;&gt;crypto</title>
<path fill="none" stroke="black" d="M248,-216C248,-207.85 248,-199.06 248,-190.54"/>
<polygon fill="black" stroke="black" points="251.5,-190.33 248,-180.33 244.5,-190.33 251.5,-190.33"/>
</g>
<!-- webgpu -->
<g id="node41" class="node">
<title>webgpu</title>
<ellipse fill="none" stroke="black" cx="694" cy="-252" rx="36" ry="36"/>
<text text-anchor="middle" x="694" y="-247.8" font-family="Times,serif" font-size="14.00">webgpu</text>
</g>
<!-- webgpu&#45;&gt;assert -->
<g id="edge43" class="edge">
<title>webgpu&#45;&gt;assert</title>
<path fill="none" stroke="black" d="M675.83,-220.91C668.87,-209.38 660.83,-196.07 653.45,-183.84"/>
<polygon fill="black" stroke="black" points="656.38,-181.92 648.21,-175.17 650.39,-185.54 656.38,-181.92"/>
</g>
</g>
</svg>
