<?xml version="1.0" encoding="UTF-8" standalone="no"?>
<!DOCTYPE svg PUBLIC "-//W3C//DTD SVG 1.1//EN"
 "http://www.w3.org/Graphics/SVG/1.1/DTD/svg11.dtd">
<!-- Generated by graphviz version 2.44.0 (20200518.1210)
 -->
<!-- Title: std_deps Pages: 1 -->
<svg width="1985pt" height="710pt"
 viewBox="0.00 0.00 1985.40 710.00" xmlns="http://www.w3.org/2000/svg" xmlns:xlink="http://www.w3.org/1999/xlink">
<g id="graph0" class="graph" transform="scale(1 1) rotate(0) translate(4 706)">
<title>std_deps</title>
<polygon fill="white" stroke="transparent" points="-4,4 -4,-706 1981.4,-706 1981.4,4 -4,4"/>
<!-- archive -->
<g id="node1" class="node">
<title>archive</title>
<polygon fill="pink" stroke="black" points="1057.09,-430.5 999.7,-430.5 999.7,-394.5 1057.09,-394.5 1057.09,-430.5"/>
<text text-anchor="middle" x="1028.4" y="-408.3" font-family="Times,serif" font-size="14.00">archive</text>
</g>
<!-- io -->
<g id="node2" class="node">
<title>io</title>
<polygon fill="pink" stroke="black" points="1110.4,-307.5 1056.4,-307.5 1056.4,-271.5 1110.4,-271.5 1110.4,-307.5"/>
<text text-anchor="middle" x="1083.4" y="-285.3" font-family="Times,serif" font-size="14.00">io</text>
</g>
<!-- archive&#45;&gt;io -->
<g id="edge1" class="edge">
<title>archive&#45;&gt;io</title>
<path fill="none" stroke="black" d="M1036.16,-394.42C1045.28,-374.36 1060.52,-340.83 1071.22,-317.29"/>
<polygon fill="black" stroke="black" points="1074.54,-318.44 1075.5,-307.88 1068.17,-315.54 1074.54,-318.44"/>
</g>
<!-- assert -->
<g id="node3" class="node">
<title>assert</title>
<ellipse fill="none" stroke="black" cx="840.4" cy="-166.5" rx="39.5" ry="39.5"/>
<ellipse fill="none" stroke="black" cx="840.4" cy="-166.5" rx="43.5" ry="43.5"/>
<text text-anchor="middle" x="840.4" y="-162.3" font-family="Times,serif" font-size="14.00">assert</text>
</g>
<!-- archive&#45;&gt;assert -->
<g id="edge2" class="edge">
<title>archive&#45;&gt;assert</title>
<path fill="none" stroke="black" d="M1031.52,-394.08C1036.33,-361.61 1041.89,-291.03 1009.4,-246 982.11,-208.19 931.99,-188.07 893.39,-177.71"/>
<polygon fill="black" stroke="black" points="893.89,-174.23 883.34,-175.16 892.17,-181.01 893.89,-174.23"/>
</g>
<!-- io&#45;&gt;assert -->
<g id="edge20" class="edge">
<title>io&#45;&gt;assert</title>
<path fill="none" stroke="black" d="M1070.02,-271.45C1062.61,-262.9 1052.81,-252.93 1042.4,-246 995.61,-214.87 934.65,-193.35 891.99,-180.81"/>
<polygon fill="black" stroke="black" points="892.95,-177.45 882.37,-178.05 891.01,-184.17 892.95,-177.45"/>
</g>
<!-- bytes -->
<g id="node6" class="node">
<title>bytes</title>
<ellipse fill="none" stroke="black" cx="1201.4" cy="-166.5" rx="39.5" ry="39.5"/>
<ellipse fill="none" stroke="black" cx="1201.4" cy="-166.5" rx="43.5" ry="43.5"/>
<text text-anchor="middle" x="1201.4" y="-162.3" font-family="Times,serif" font-size="14.00">bytes</text>
</g>
<!-- io&#45;&gt;bytes -->
<g id="edge21" class="edge">
<title>io&#45;&gt;bytes</title>
<path fill="none" stroke="black" d="M1100.05,-271.42C1116.61,-254.45 1142.56,-227.84 1164.05,-205.79"/>
<polygon fill="black" stroke="black" points="1166.68,-208.12 1171.15,-198.51 1161.67,-203.23 1166.68,-208.12"/>
</g>
<!-- internal -->
<g id="node4" class="node">
<title>internal</title>
<ellipse fill="none" stroke="black" cx="565.4" cy="-43.5" rx="39.5" ry="39.5"/>
<ellipse fill="none" stroke="black" cx="565.4" cy="-43.5" rx="43.5" ry="43.5"/>
<text text-anchor="middle" x="565.4" y="-39.3" font-family="Times,serif" font-size="14.00">internal</text>
</g>
<!-- assert&#45;&gt;internal -->
<g id="edge3" class="edge">
<title>assert&#45;&gt;internal</title>
<path fill="none" stroke="black" d="M800.7,-148.03C751.45,-126.36 667.49,-89.42 614.31,-66.02"/>
<polygon fill="black" stroke="black" points="615.64,-62.78 605.08,-61.96 612.82,-69.19 615.64,-62.78"/>
</g>
<!-- async -->
<g id="node5" class="node">
<title>async</title>
<ellipse fill="none" stroke="black" cx="66.4" cy="-289.5" rx="39.5" ry="39.5"/>
<ellipse fill="none" stroke="black" cx="66.4" cy="-289.5" rx="43.5" ry="43.5"/>
<text text-anchor="middle" x="66.4" y="-285.3" font-family="Times,serif" font-size="14.00">async</text>
</g>
<!-- cli -->
<g id="node7" class="node">
<title>cli</title>
<polygon fill="pink" stroke="black" points="668.4,-430.5 614.4,-430.5 614.4,-394.5 668.4,-394.5 668.4,-430.5"/>
<text text-anchor="middle" x="641.4" y="-408.3" font-family="Times,serif" font-size="14.00">cli</text>
</g>
<!-- collections -->
<g id="node8" class="node">
<title>collections</title>
<ellipse fill="none" stroke="black" cx="1223.4" cy="-412.5" rx="39.5" ry="39.5"/>
<ellipse fill="none" stroke="black" cx="1223.4" cy="-412.5" rx="43.5" ry="43.5"/>
<text text-anchor="middle" x="1223.4" y="-408.3" font-family="Times,serif" font-size="14.00">collections</text>
</g>
<!-- crypto -->
<g id="node9" class="node">
<title>crypto</title>
<ellipse fill="none" stroke="black" cx="1331.4" cy="-166.5" rx="39.5" ry="39.5"/>
<ellipse fill="none" stroke="black" cx="1331.4" cy="-166.5" rx="43.5" ry="43.5"/>
<text text-anchor="middle" x="1331.4" y="-162.3" font-family="Times,serif" font-size="14.00">crypto</text>
</g>
<!-- csv -->
<g id="node10" class="node">
<title>csv</title>
<ellipse fill="none" stroke="black" cx="926.4" cy="-535.5" rx="39.5" ry="39.5"/>
<ellipse fill="none" stroke="black" cx="926.4" cy="-535.5" rx="43.5" ry="43.5"/>
<text text-anchor="middle" x="926.4" y="-531.3" font-family="Times,serif" font-size="14.00">csv</text>
</g>
<!-- csv&#45;&gt;assert -->
<g id="edge4" class="edge">
<title>csv&#45;&gt;assert</title>
<path fill="none" stroke="black" d="M910.43,-494.66C894.98,-454.5 872.1,-390.41 859.4,-333 851.17,-295.8 846.38,-253.06 843.67,-220.33"/>
<polygon fill="black" stroke="black" points="847.13,-219.77 842.86,-210.07 840.16,-220.32 847.13,-219.77"/>
</g>
<!-- streams -->
<g id="node11" class="node">
<title>streams</title>
<ellipse fill="none" stroke="black" cx="1118.4" cy="-412.5" rx="39.5" ry="39.5"/>
<ellipse fill="none" stroke="black" cx="1118.4" cy="-412.5" rx="43.5" ry="43.5"/>
<text text-anchor="middle" x="1118.4" y="-408.3" font-family="Times,serif" font-size="14.00">streams</text>
</g>
<!-- csv&#45;&gt;streams -->
<g id="edge5" class="edge">
<title>csv&#45;&gt;streams</title>
<path fill="none" stroke="black" d="M964.9,-515.23C993.64,-500.3 1033.47,-478.44 1066.4,-456 1070.13,-453.46 1073.92,-450.71 1077.67,-447.88"/>
<polygon fill="black" stroke="black" points="1080.02,-450.49 1085.78,-441.6 1075.73,-444.96 1080.02,-450.49"/>
</g>
<!-- streams&#45;&gt;io -->
<g id="edge31" class="edge">
<title>streams&#45;&gt;io</title>
<path fill="none" stroke="black" d="M1106.55,-370.53C1101.52,-353.15 1095.8,-333.37 1091.3,-317.81"/>
<polygon fill="black" stroke="black" points="1094.54,-316.44 1088.4,-307.8 1087.82,-318.38 1094.54,-316.44"/>
</g>
<!-- streams&#45;&gt;assert -->
<g id="edge29" class="edge">
<title>streams&#45;&gt;assert</title>
<path fill="none" stroke="black" d="M1131.39,-370.77C1140.29,-334.34 1146.2,-281.39 1119.4,-246 1092.19,-210.09 966.53,-186 893.46,-174.78"/>
<polygon fill="black" stroke="black" points="893.93,-171.31 883.52,-173.28 892.88,-178.23 893.93,-171.31"/>
</g>
<!-- streams&#45;&gt;bytes -->
<g id="edge30" class="edge">
<title>streams&#45;&gt;bytes</title>
<path fill="none" stroke="black" d="M1136.29,-372.74C1141.78,-360.19 1147.63,-346.12 1152.4,-333 1166.12,-295.22 1178.91,-251.6 1187.98,-218.63"/>
<polygon fill="black" stroke="black" points="1191.42,-219.32 1190.68,-208.76 1184.67,-217.48 1191.42,-219.32"/>
</g>
<!-- data_\nstructures -->
<g id="node12" class="node">
<title>data_\nstructures</title>
<polygon fill="pink" stroke="black" points="1355.82,-679.1 1284.98,-679.1 1284.98,-637.9 1355.82,-637.9 1355.82,-679.1"/>
<text text-anchor="middle" x="1320.4" y="-662.7" font-family="Times,serif" font-size="14.00">data_</text>
<text text-anchor="middle" x="1320.4" y="-645.9" font-family="Times,serif" font-size="14.00">structures</text>
</g>
<!-- datetime -->
<g id="node13" class="node">
<title>datetime</title>
<polygon fill="pink" stroke="black" points="1437.6,-676.5 1373.19,-676.5 1373.19,-640.5 1437.6,-640.5 1437.6,-676.5"/>
<text text-anchor="middle" x="1405.4" y="-654.3" font-family="Times,serif" font-size="14.00">datetime</text>
</g>
<!-- dotenv -->
<g id="node14" class="node">
<title>dotenv</title>
<polygon fill="pink" stroke="black" points="1509.5,-676.5 1455.29,-676.5 1455.29,-640.5 1509.5,-640.5 1509.5,-676.5"/>
<text text-anchor="middle" x="1482.4" y="-654.3" font-family="Times,serif" font-size="14.00">dotenv</text>
</g>
<!-- encoding -->
<g id="node15" class="node">
<title>encoding</title>
<ellipse fill="none" stroke="black" cx="730.4" cy="-412.5" rx="39.5" ry="39.5"/>
<ellipse fill="none" stroke="black" cx="730.4" cy="-412.5" rx="43.5" ry="43.5"/>
<text text-anchor="middle" x="730.4" y="-408.3" font-family="Times,serif" font-size="14.00">encoding</text>
</g>
<!-- expect -->
<g id="node16" class="node">
<title>expect</title>
<polygon fill="pink" stroke="black" points="592.4,-307.5 538.4,-307.5 538.4,-271.5 592.4,-271.5 592.4,-307.5"/>
<text text-anchor="middle" x="565.4" y="-285.3" font-family="Times,serif" font-size="14.00">expect</text>
</g>
<!-- expect&#45;&gt;assert -->
<g id="edge6" class="edge">
<title>expect&#45;&gt;assert</title>
<path fill="none" stroke="black" d="M578.65,-271.25C586.02,-262.65 595.82,-252.68 606.4,-246 663.16,-210.13 738.11,-188.76 787.72,-177.58"/>
<polygon fill="black" stroke="black" points="788.57,-180.97 797.59,-175.41 787.07,-174.14 788.57,-180.97"/>
</g>
<!-- expect&#45;&gt;internal -->
<g id="edge7" class="edge">
<title>expect&#45;&gt;internal</title>
<path fill="none" stroke="black" d="M565.4,-271.34C565.4,-235.78 565.4,-152.74 565.4,-97.61"/>
<polygon fill="black" stroke="black" points="568.9,-97.32 565.4,-87.32 561.9,-97.32 568.9,-97.32"/>
</g>
<!-- fmt -->
<g id="node17" class="node">
<title>fmt</title>
<ellipse fill="none" stroke="black" cx="692.4" cy="-289.5" rx="39.5" ry="39.5"/>
<ellipse fill="none" stroke="black" cx="692.4" cy="-289.5" rx="43.5" ry="43.5"/>
<text text-anchor="middle" x="692.4" y="-285.3" font-family="Times,serif" font-size="14.00">fmt</text>
</g>
<!-- front_\nmatter -->
<g id="node18" class="node">
<title>front_\nmatter</title>
<ellipse fill="none" stroke="black" cx="1223.4" cy="-658.5" rx="39.5" ry="39.5"/>
<ellipse fill="none" stroke="black" cx="1223.4" cy="-658.5" rx="43.5" ry="43.5"/>
<text text-anchor="middle" x="1223.4" y="-662.7" font-family="Times,serif" font-size="14.00">front_</text>
<text text-anchor="middle" x="1223.4" y="-645.9" font-family="Times,serif" font-size="14.00">matter</text>
</g>
<!-- toml -->
<g id="node19" class="node">
<title>toml</title>
<ellipse fill="none" stroke="black" cx="1223.4" cy="-535.5" rx="39.5" ry="39.5"/>
<ellipse fill="none" stroke="black" cx="1223.4" cy="-535.5" rx="43.5" ry="43.5"/>
<text text-anchor="middle" x="1223.4" y="-531.3" font-family="Times,serif" font-size="14.00">toml</text>
</g>
<!-- front_\nmatter&#45;&gt;toml -->
<g id="edge8" class="edge">
<title>front_\nmatter&#45;&gt;toml</title>
<path fill="none" stroke="black" d="M1223.4,-614.84C1223.4,-606.62 1223.4,-597.91 1223.4,-589.41"/>
<polygon fill="black" stroke="black" points="1226.9,-589.18 1223.4,-579.18 1219.9,-589.18 1226.9,-589.18"/>
</g>
<!-- yaml -->
<g id="node20" class="node">
<title>yaml</title>
<ellipse fill="none" stroke="black" cx="1328.4" cy="-535.5" rx="39.5" ry="39.5"/>
<ellipse fill="none" stroke="black" cx="1328.4" cy="-535.5" rx="43.5" ry="43.5"/>
<text text-anchor="middle" x="1328.4" y="-531.3" font-family="Times,serif" font-size="14.00">yaml</text>
</g>
<!-- front_\nmatter&#45;&gt;yaml -->
<g id="edge9" class="edge">
<title>front_\nmatter&#45;&gt;yaml</title>
<path fill="none" stroke="black" d="M1251.54,-625.07C1264.37,-610.29 1279.69,-592.63 1293.26,-576.99"/>
<polygon fill="black" stroke="black" points="1296.27,-578.86 1300.18,-569.02 1290.99,-574.27 1296.27,-578.86"/>
</g>
<!-- toml&#45;&gt;collections -->
<g id="edge40" class="edge">
<title>toml&#45;&gt;collections</title>
<path fill="none" stroke="black" d="M1223.4,-491.84C1223.4,-483.62 1223.4,-474.91 1223.4,-466.41"/>
<polygon fill="black" stroke="black" points="1226.9,-466.18 1223.4,-456.18 1219.9,-466.18 1226.9,-466.18"/>
</g>
<!-- fs -->
<g id="node21" class="node">
<title>fs</title>
<ellipse fill="none" stroke="black" cx="476.4" cy="-289.5" rx="39.5" ry="39.5"/>
<ellipse fill="none" stroke="black" cx="476.4" cy="-289.5" rx="43.5" ry="43.5"/>
<text text-anchor="middle" x="476.4" y="-285.3" font-family="Times,serif" font-size="14.00">fs</text>
</g>
<!-- path -->
<g id="node22" class="node">
<title>path</title>
<ellipse fill="none" stroke="black" cx="229.4" cy="-166.5" rx="39.5" ry="39.5"/>
<ellipse fill="none" stroke="black" cx="229.4" cy="-166.5" rx="43.5" ry="43.5"/>
<text text-anchor="middle" x="229.4" y="-162.3" font-family="Times,serif" font-size="14.00">path</text>
</g>
<!-- fs&#45;&gt;path -->
<g id="edge10" class="edge">
<title>fs&#45;&gt;path</title>
<path fill="none" stroke="black" d="M444.11,-260.19C437.51,-255.1 430.42,-250.12 423.4,-246 377.5,-219.1 320.64,-197.29 280.37,-183.55"/>
<polygon fill="black" stroke="black" points="281.36,-180.19 270.76,-180.31 279.13,-186.82 281.36,-180.19"/>
</g>
<!-- html -->
<g id="node23" class="node">
<title>html</title>
<polygon fill="pink" stroke="black" points="1581.4,-676.5 1527.4,-676.5 1527.4,-640.5 1581.4,-640.5 1581.4,-676.5"/>
<text text-anchor="middle" x="1554.4" y="-654.3" font-family="Times,serif" font-size="14.00">html</text>
</g>
<!-- http -->
<g id="node24" class="node">
<title>http</title>
<polygon fill="pink" stroke="black" points="524.4,-553.5 470.4,-553.5 470.4,-517.5 524.4,-517.5 524.4,-553.5"/>
<text text-anchor="middle" x="497.4" y="-531.3" font-family="Times,serif" font-size="14.00">http</text>
</g>
<!-- http&#45;&gt;assert -->
<g id="edge11" class="edge">
<title>http&#45;&gt;assert</title>
<path fill="none" stroke="black" d="M524.42,-530.7C588.48,-521.14 746.88,-494.11 782.4,-456 813.71,-422.4 829.65,-293.69 836.36,-220.04"/>
<polygon fill="black" stroke="black" points="839.85,-220.3 837.25,-210.03 832.88,-219.68 839.85,-220.3"/>
</g>
<!-- http&#45;&gt;async -->
<g id="edge13" class="edge">
<title>http&#45;&gt;async</title>
<path fill="none" stroke="black" d="M470.07,-534.13C411.54,-532.06 271.89,-520.21 179.4,-456 137.38,-426.83 106.35,-376.57 87.55,-339.07"/>
<polygon fill="black" stroke="black" points="90.57,-337.28 83.03,-329.83 84.28,-340.35 90.57,-337.28"/>
</g>
<!-- http&#45;&gt;cli -->
<g id="edge17" class="edge">
<title>http&#45;&gt;cli</title>
<path fill="none" stroke="black" d="M524.51,-517.44C547.22,-502.54 579.92,-479.66 605.4,-456 611.05,-450.75 616.67,-444.65 621.74,-438.74"/>
<polygon fill="black" stroke="black" points="624.56,-440.81 628.25,-430.88 619.17,-436.35 624.56,-440.81"/>
</g>
<!-- http&#45;&gt;streams -->
<g id="edge16" class="edge">
<title>http&#45;&gt;streams</title>
<path fill="none" stroke="black" d="M524.64,-531.62C631.16,-520.24 1016.07,-477.94 1066.4,-456 1070.78,-454.09 1075.09,-451.7 1079.24,-449.04"/>
<polygon fill="black" stroke="black" points="1081.32,-451.86 1087.5,-443.25 1077.3,-446.12 1081.32,-451.86"/>
</g>
<!-- http&#45;&gt;encoding -->
<g id="edge12" class="edge">
<title>http&#45;&gt;encoding</title>
<path fill="none" stroke="black" d="M524.41,-525.27C560.6,-512.35 626.19,-486.94 677.4,-456 681.53,-453.5 685.7,-450.71 689.79,-447.79"/>
<polygon fill="black" stroke="black" points="692.09,-450.44 698.02,-441.66 687.91,-444.83 692.09,-450.44"/>
</g>
<!-- http&#45;&gt;fmt -->
<g id="edge18" class="edge">
<title>http&#45;&gt;fmt</title>
<path fill="none" stroke="black" d="M470.39,-531.31C430.26,-524.97 356.12,-506.67 323.4,-456 302.42,-423.52 297.68,-397.87 323.4,-369 369.68,-317.05 569.63,-358.41 634.4,-333 640.19,-330.73 645.93,-327.73 651.42,-324.37"/>
<polygon fill="black" stroke="black" points="653.37,-327.27 659.8,-318.85 649.52,-321.43 653.37,-327.27"/>
</g>
<!-- http&#45;&gt;path -->
<g id="edge14" class="edge">
<title>http&#45;&gt;path</title>
<path fill="none" stroke="black" d="M470.19,-531.73C391.18,-523.29 163.39,-495.98 101.4,-456 44.91,-419.57 33.94,-397 13.4,-333 1.58,-296.18 -8.79,-277.67 13.4,-246 49.81,-194.03 124.35,-176.33 175.59,-170.39"/>
<polygon fill="black" stroke="black" points="176.24,-173.84 185.82,-169.32 175.51,-166.87 176.24,-173.84"/>
</g>
<!-- media_types -->
<g id="node25" class="node">
<title>media_types</title>
<ellipse fill="none" stroke="black" cx="392.4" cy="-412.5" rx="59.69" ry="18"/>
<text text-anchor="middle" x="392.4" y="-408.3" font-family="Times,serif" font-size="14.00">media_types</text>
</g>
<!-- http&#45;&gt;media_types -->
<g id="edge15" class="edge">
<title>http&#45;&gt;media_types</title>
<path fill="none" stroke="black" d="M482.58,-517.42C464.57,-496.67 434.08,-461.53 413.6,-437.93"/>
<polygon fill="black" stroke="black" points="416,-435.36 406.81,-430.1 410.72,-439.95 416,-435.36"/>
</g>
<!-- net -->
<g id="node26" class="node">
<title>net</title>
<polygon fill="pink" stroke="black" points="524.4,-430.5 470.4,-430.5 470.4,-394.5 524.4,-394.5 524.4,-430.5"/>
<text text-anchor="middle" x="497.4" y="-408.3" font-family="Times,serif" font-size="14.00">net</text>
</g>
<!-- http&#45;&gt;net -->
<g id="edge19" class="edge">
<title>http&#45;&gt;net</title>
<path fill="none" stroke="black" d="M497.4,-517.42C497.4,-497.54 497.4,-464.42 497.4,-440.92"/>
<polygon fill="black" stroke="black" points="500.9,-440.88 497.4,-430.88 493.9,-440.88 500.9,-440.88"/>
</g>
<!-- ini -->
<g id="node27" class="node">
<title>ini</title>
<polygon fill="pink" stroke="black" points="1653.4,-676.5 1599.4,-676.5 1599.4,-640.5 1653.4,-640.5 1653.4,-676.5"/>
<text text-anchor="middle" x="1626.4" y="-654.3" font-family="Times,serif" font-size="14.00">ini</text>
</g>
<!-- json -->
<g id="node28" class="node">
<title>json</title>
<ellipse fill="none" stroke="black" cx="1118.4" cy="-535.5" rx="39.5" ry="39.5"/>
<ellipse fill="none" stroke="black" cx="1118.4" cy="-535.5" rx="43.5" ry="43.5"/>
<text text-anchor="middle" x="1118.4" y="-531.3" font-family="Times,serif" font-size="14.00">json</text>
</g>
<!-- json&#45;&gt;streams -->
<g id="edge22" class="edge">
<title>json&#45;&gt;streams</title>
<path fill="none" stroke="black" d="M1118.4,-491.84C1118.4,-483.62 1118.4,-474.91 1118.4,-466.41"/>
<polygon fill="black" stroke="black" points="1121.9,-466.18 1118.4,-456.18 1114.9,-466.18 1121.9,-466.18"/>
</g>
<!-- jsonc -->
<g id="node29" class="node">
<title>jsonc</title>
<ellipse fill="none" stroke="black" cx="1118.4" cy="-658.5" rx="39.5" ry="39.5"/>
<ellipse fill="none" stroke="black" cx="1118.4" cy="-658.5" rx="43.5" ry="43.5"/>
<text text-anchor="middle" x="1118.4" y="-654.3" font-family="Times,serif" font-size="14.00">jsonc</text>
</g>
<!-- jsonc&#45;&gt;json -->
<g id="edge23" class="edge">
<title>jsonc&#45;&gt;json</title>
<path fill="none" stroke="black" d="M1118.4,-614.84C1118.4,-606.62 1118.4,-597.91 1118.4,-589.41"/>
<polygon fill="black" stroke="black" points="1121.9,-589.18 1118.4,-579.18 1114.9,-589.18 1121.9,-589.18"/>
</g>
<!-- log -->
<g id="node30" class="node">
<title>log</title>
<polygon fill="pink" stroke="black" points="596.4,-430.5 542.4,-430.5 542.4,-394.5 596.4,-394.5 596.4,-430.5"/>
<text text-anchor="middle" x="569.4" y="-408.3" font-family="Times,serif" font-size="14.00">log</text>
</g>
<!-- log&#45;&gt;io -->
<g id="edge25" class="edge">
<title>log&#45;&gt;io</title>
<path fill="none" stroke="black" d="M579.45,-394.09C585.69,-384.99 594.58,-374.61 605.4,-369 765.42,-286.01 837.46,-387.15 1009.4,-333 1023.84,-328.45 1038.54,-320.76 1051,-313.16"/>
<polygon fill="black" stroke="black" points="1053.06,-316 1059.64,-307.69 1049.31,-310.09 1053.06,-316"/>
</g>
<!-- log&#45;&gt;assert -->
<g id="edge27" class="edge">
<title>log&#45;&gt;assert</title>
<path fill="none" stroke="black" d="M580.14,-394.34C586.48,-385.55 595.24,-375.38 605.4,-369 659.44,-335.06 694.7,-373.03 744.4,-333 778.15,-305.82 766.62,-283.46 788.4,-246 795.14,-234.4 802.91,-222.17 810.35,-210.9"/>
<polygon fill="black" stroke="black" points="813.31,-212.77 815.95,-202.5 807.49,-208.88 813.31,-212.77"/>
</g>
<!-- log&#45;&gt;fmt -->
<g id="edge24" class="edge">
<title>log&#45;&gt;fmt</title>
<path fill="none" stroke="black" d="M582.92,-394.5C589.47,-386.54 597.59,-377.05 605.4,-369 619.99,-353.95 636.93,-338.29 651.96,-324.96"/>
<polygon fill="black" stroke="black" points="654.43,-327.45 659.63,-318.22 649.81,-322.2 654.43,-327.45"/>
</g>
<!-- log&#45;&gt;fs -->
<g id="edge26" class="edge">
<title>log&#45;&gt;fs</title>
<path fill="none" stroke="black" d="M556.27,-394.42C543.93,-378.36 524.96,-353.68 508.6,-332.4"/>
<polygon fill="black" stroke="black" points="511.35,-330.23 502.48,-324.43 505.8,-334.49 511.35,-330.23"/>
</g>
<!-- media_\ntypes -->
<g id="node31" class="node">
<title>media_\ntypes</title>
<ellipse fill="none" stroke="black" cx="1715.4" cy="-658.5" rx="39.5" ry="39.5"/>
<ellipse fill="none" stroke="black" cx="1715.4" cy="-658.5" rx="43.5" ry="43.5"/>
<text text-anchor="middle" x="1715.4" y="-662.7" font-family="Times,serif" font-size="14.00">media_</text>
<text text-anchor="middle" x="1715.4" y="-645.9" font-family="Times,serif" font-size="14.00">types</text>
</g>
<!-- msgpack -->
<g id="node32" class="node">
<title>msgpack</title>
<polygon fill="pink" stroke="black" points="1270.16,-307.5 1204.63,-307.5 1204.63,-271.5 1270.16,-271.5 1270.16,-307.5"/>
<text text-anchor="middle" x="1237.4" y="-285.3" font-family="Times,serif" font-size="14.00">msgpack</text>
</g>
<!-- msgpack&#45;&gt;bytes -->
<g id="edge28" class="edge">
<title>msgpack&#45;&gt;bytes</title>
<path fill="none" stroke="black" d="M1232.32,-271.42C1228.19,-257.55 1222.15,-237.25 1216.5,-218.26"/>
<polygon fill="black" stroke="black" points="1219.8,-217.08 1213.59,-208.49 1213.09,-219.08 1219.8,-217.08"/>
</g>
<!-- regexp -->
<g id="node33" class="node">
<title>regexp</title>
<polygon fill="pink" stroke="black" points="1831.49,-676.5 1777.31,-676.5 1777.31,-640.5 1831.49,-640.5 1831.49,-676.5"/>
<text text-anchor="middle" x="1804.4" y="-654.3" font-family="Times,serif" font-size="14.00">regexp</text>
</g>
<!-- semver -->
<g id="node34" class="node">
<title>semver</title>
<polygon fill="pink" stroke="black" points="1905.82,-676.5 1848.97,-676.5 1848.97,-640.5 1905.82,-640.5 1905.82,-676.5"/>
<text text-anchor="middle" x="1877.4" y="-654.3" font-family="Times,serif" font-size="14.00">semver</text>
</g>
<!-- testing -->
<g id="node35" class="node">
<title>testing</title>
<ellipse fill="none" stroke="black" cx="232.4" cy="-412.5" rx="39.5" ry="39.5"/>
<ellipse fill="none" stroke="black" cx="232.4" cy="-412.5" rx="43.5" ry="43.5"/>
<text text-anchor="middle" x="232.4" y="-408.3" font-family="Times,serif" font-size="14.00">testing</text>
</g>
<!-- testing&#45;&gt;assert -->
<g id="edge32" class="edge">
<title>testing&#45;&gt;assert</title>
<path fill="none" stroke="black" d="M267.27,-386.34C278.06,-379.67 290.3,-373.18 302.4,-369 428.91,-325.28 493.99,-412.87 601.4,-333 635.26,-307.82 608.98,-275.24 639.4,-246 680.24,-206.74 742.97,-186.47 787.47,-176.46"/>
<polygon fill="black" stroke="black" points="788.48,-179.82 797.52,-174.3 787.01,-172.98 788.48,-179.82"/>
</g>
<!-- testing&#45;&gt;internal -->
<g id="edge36" class="edge">
<title>testing&#45;&gt;internal</title>
<path fill="none" stroke="black" d="M197.73,-385.66C182.26,-371.94 165.68,-353.64 157.4,-333 122.52,-246.02 111.67,-190.77 176.4,-123 221.85,-75.41 416.09,-55.13 511.75,-47.91"/>
<polygon fill="black" stroke="black" points="512.08,-51.39 521.8,-47.17 511.57,-44.41 512.08,-51.39"/>
</g>
<!-- testing&#45;&gt;async -->
<g id="edge38" class="edge">
<title>testing&#45;&gt;async</title>
<path fill="none" stroke="black" d="M197.35,-386.08C176.21,-370.73 148.74,-350.76 124.4,-333 119.55,-329.46 114.48,-325.76 109.45,-322.07"/>
<polygon fill="black" stroke="black" points="111.18,-319 101.04,-315.92 107.04,-324.65 111.18,-319"/>
</g>
<!-- testing&#45;&gt;fmt -->
<g id="edge35" class="edge">
<title>testing&#45;&gt;fmt</title>
<path fill="none" stroke="black" d="M264.66,-383.3C272.61,-377.68 281.43,-372.46 290.4,-369 433.81,-313.65 490.98,-388.35 634.4,-333 640.28,-330.73 646.1,-327.7 651.66,-324.3"/>
<polygon fill="black" stroke="black" points="653.72,-327.13 660.14,-318.7 649.86,-321.29 653.72,-327.13"/>
</g>
<!-- testing&#45;&gt;fs -->
<g id="edge34" class="edge">
<title>testing&#45;&gt;fs</title>
<path fill="none" stroke="black" d="M265.42,-384.11C273.26,-378.53 281.85,-373.11 290.4,-369 345.58,-342.45 368.8,-360.74 423.4,-333 427.71,-330.81 431.99,-328.23 436.15,-325.45"/>
<polygon fill="black" stroke="black" points="438.38,-328.16 444.49,-319.5 434.32,-322.46 438.38,-328.16"/>
</g>
<!-- testing&#45;&gt;path -->
<g id="edge33" class="edge">
<title>testing&#45;&gt;path</title>
<path fill="none" stroke="black" d="M231.88,-369C231.37,-327.7 230.6,-264.89 230.05,-220.38"/>
<polygon fill="black" stroke="black" points="233.55,-220.29 229.92,-210.33 226.55,-220.38 233.55,-220.29"/>
</g>
<!-- data_structures -->
<g id="node36" class="node">
<title>data_structures</title>
<ellipse fill="none" stroke="black" cx="345.4" cy="-289.5" rx="69.48" ry="18"/>
<text text-anchor="middle" x="345.4" y="-285.3" font-family="Times,serif" font-size="14.00">data_structures</text>
</g>
<!-- testing&#45;&gt;data_structures -->
<g id="edge37" class="edge">
<title>testing&#45;&gt;data_structures</title>
<path fill="none" stroke="black" d="M261.79,-380.02C280.79,-359.68 305.14,-333.6 322.66,-314.85"/>
<polygon fill="black" stroke="black" points="325.45,-316.99 329.71,-307.29 320.33,-312.21 325.45,-316.99"/>
</g>
<!-- text -->
<g id="node37" class="node">
<title>text</title>
<polygon fill="pink" stroke="black" points="922.4,-307.5 868.4,-307.5 868.4,-271.5 922.4,-271.5 922.4,-307.5"/>
<text text-anchor="middle" x="895.4" y="-285.3" font-family="Times,serif" font-size="14.00">text</text>
</g>
<!-- text&#45;&gt;assert -->
<g id="edge39" class="edge">
<title>text&#45;&gt;assert</title>
<path fill="none" stroke="black" d="M887.63,-271.42C881.04,-256.91 871.24,-235.36 862.28,-215.64"/>
<polygon fill="black" stroke="black" points="865.42,-214.1 858.1,-206.44 859.05,-216.99 865.42,-214.1"/>
</g>
<!-- ulid -->
<g id="node38" class="node">
<title>ulid</title>
<polygon fill="pink" stroke="black" points="1977.4,-676.5 1923.4,-676.5 1923.4,-640.5 1977.4,-640.5 1977.4,-676.5"/>
<text text-anchor="middle" x="1950.4" y="-654.3" font-family="Times,serif" font-size="14.00">ulid</text>
</g>
<!-- url -->
<g id="node39" class="node">
<title>url</title>
<polygon fill="pink" stroke="black" points="220.4,-307.5 166.4,-307.5 166.4,-271.5 220.4,-271.5 220.4,-307.5"/>
<text text-anchor="middle" x="193.4" y="-285.3" font-family="Times,serif" font-size="14.00">url</text>
</g>
<!-- url&#45;&gt;path -->
<g id="edge41" class="edge">
<title>url&#45;&gt;path</title>
<path fill="none" stroke="black" d="M198.48,-271.42C202.61,-257.55 208.65,-237.25 214.3,-218.26"/>
<polygon fill="black" stroke="black" points="217.71,-219.08 217.2,-208.49 211,-217.08 217.71,-219.08"/>
</g>
<!-- uuid -->
<g id="node40" class="node">
<title>uuid</title>
<ellipse fill="none" stroke="black" cx="1331.4" cy="-289.5" rx="39.5" ry="39.5"/>
<ellipse fill="none" stroke="black" cx="1331.4" cy="-289.5" rx="43.5" ry="43.5"/>
<text text-anchor="middle" x="1331.4" y="-285.3" font-family="Times,serif" font-size="14.00">uuid</text>
</g>
<!-- uuid&#45;&gt;bytes -->
<g id="edge42" class="edge">
<title>uuid&#45;&gt;bytes</title>
<path fill="none" stroke="black" d="M1299.93,-259.21C1282.02,-242.54 1259.43,-221.51 1240.4,-203.8"/>
<polygon fill="black" stroke="black" points="1242.73,-201.19 1233.03,-196.94 1237.96,-206.32 1242.73,-201.19"/>
</g>
<!-- uuid&#45;&gt;crypto -->
<g id="edge43" class="edge">
<title>uuid&#45;&gt;crypto</title>
<path fill="none" stroke="black" d="M1331.4,-245.84C1331.4,-237.62 1331.4,-228.91 1331.4,-220.41"/>
<polygon fill="black" stroke="black" points="1334.9,-220.18 1331.4,-210.18 1327.9,-220.18 1334.9,-220.18"/>
</g>
<!-- webgpu -->
<g id="node41" class="node">
<title>webgpu</title>
<polygon fill="pink" stroke="black" points="1000.72,-307.5 940.08,-307.5 940.08,-271.5 1000.72,-271.5 1000.72,-307.5"/>
<text text-anchor="middle" x="970.4" y="-285.3" font-family="Times,serif" font-size="14.00">webgpu</text>
</g>
<!-- webgpu&#45;&gt;assert -->
<g id="edge44" class="edge">
<title>webgpu&#45;&gt;assert</title>
<path fill="none" stroke="black" d="M955.28,-271.11C948.22,-263.24 939.59,-253.95 931.4,-246 915.57,-230.65 897.29,-214.59 881.3,-201.03"/>
<polygon fill="black" stroke="black" points="883.55,-198.35 873.65,-194.58 879.04,-203.7 883.55,-198.35"/>
</g>
</g>
</svg>
