<?xml version="1.0" encoding="UTF-8" standalone="no"?>
<!DOCTYPE svg PUBLIC "-//W3C//DTD SVG 1.1//EN"
 "http://www.w3.org/Graphics/SVG/1.1/DTD/svg11.dtd">
<!-- Generated by graphviz version 2.44.0 (20200518.1210)
 -->
<!-- Title: std_deps Pages: 1 -->
<svg width="2128pt" height="710pt"
 viewBox="0.00 0.00 2127.69 710.00" xmlns="http://www.w3.org/2000/svg" xmlns:xlink="http://www.w3.org/1999/xlink">
<g id="graph0" class="graph" transform="scale(1 1) rotate(0) translate(4 706)">
<title>std_deps</title>
<polygon fill="white" stroke="transparent" points="-4,4 -4,-706 2123.69,-706 2123.69,4 -4,4"/>
<!-- archive -->
<g id="node1" class="node">
<title>archive</title>
<polygon fill="pink" stroke="black" points="994.22,-430.5 936.83,-430.5 936.83,-394.5 994.22,-394.5 994.22,-430.5"/>
<text text-anchor="middle" x="965.53" y="-408.3" font-family="Times,serif" font-size="14.00">archive</text>
</g>
<!-- io -->
<g id="node2" class="node">
<title>io</title>
<polygon fill="pink" stroke="black" points="1030.53,-307.5 976.53,-307.5 976.53,-271.5 1030.53,-271.5 1030.53,-307.5"/>
<text text-anchor="middle" x="1003.53" y="-285.3" font-family="Times,serif" font-size="14.00">io</text>
</g>
<!-- archive&#45;&gt;io -->
<g id="edge1" class="edge">
<title>archive&#45;&gt;io</title>
<path fill="none" stroke="black" d="M970.89,-394.42C977.17,-374.45 987.63,-341.12 995.02,-317.61"/>
<polygon fill="black" stroke="black" points="998.41,-318.47 998.07,-307.88 991.73,-316.38 998.41,-318.47"/>
</g>
<!-- assert -->
<g id="node3" class="node">
<title>assert</title>
<ellipse fill="none" stroke="black" cx="819.53" cy="-166.5" rx="39.5" ry="39.5"/>
<ellipse fill="none" stroke="black" cx="819.53" cy="-166.5" rx="43.5" ry="43.5"/>
<text text-anchor="middle" x="819.53" y="-162.3" font-family="Times,serif" font-size="14.00">assert</text>
</g>
<!-- archive&#45;&gt;assert -->
<g id="edge2" class="edge">
<title>archive&#45;&gt;assert</title>
<path fill="none" stroke="black" d="M947.48,-394.36C932.27,-379.24 910.62,-356.07 895.53,-333 882.28,-312.75 857.7,-257.54 840.08,-216.42"/>
<polygon fill="black" stroke="black" points="843.24,-214.92 836.1,-207.1 836.81,-217.67 843.24,-214.92"/>
</g>
<!-- io&#45;&gt;assert -->
<g id="edge21" class="edge">
<title>io&#45;&gt;assert</title>
<path fill="none" stroke="black" d="M991.5,-271.42C985.04,-263.07 976.57,-253.28 967.53,-246 937.68,-221.97 899.36,-201.88 869.19,-188.05"/>
<polygon fill="black" stroke="black" points="870.26,-184.69 859.7,-183.78 867.38,-191.07 870.26,-184.69"/>
</g>
<!-- bytes -->
<g id="node6" class="node">
<title>bytes</title>
<ellipse fill="none" stroke="black" cx="1171.53" cy="-166.5" rx="39.5" ry="39.5"/>
<ellipse fill="none" stroke="black" cx="1171.53" cy="-166.5" rx="43.5" ry="43.5"/>
<text text-anchor="middle" x="1171.53" y="-162.3" font-family="Times,serif" font-size="14.00">bytes</text>
</g>
<!-- io&#45;&gt;bytes -->
<g id="edge22" class="edge">
<title>io&#45;&gt;bytes</title>
<path fill="none" stroke="black" d="M1027.24,-271.42C1053.4,-252.58 1096.03,-221.88 1128.19,-198.72"/>
<polygon fill="black" stroke="black" points="1130.47,-201.39 1136.54,-192.7 1126.38,-195.71 1130.47,-201.39"/>
</g>
<!-- internal -->
<g id="node4" class="node">
<title>internal</title>
<ellipse fill="none" stroke="black" cx="419.53" cy="-43.5" rx="39.5" ry="39.5"/>
<ellipse fill="none" stroke="black" cx="419.53" cy="-43.5" rx="43.5" ry="43.5"/>
<text text-anchor="middle" x="419.53" y="-39.3" font-family="Times,serif" font-size="14.00">internal</text>
</g>
<!-- assert&#45;&gt;internal -->
<g id="edge3" class="edge">
<title>assert&#45;&gt;internal</title>
<path fill="none" stroke="black" d="M777.85,-152.89C704.17,-130.6 551.11,-84.3 470.98,-60.06"/>
<polygon fill="black" stroke="black" points="471.7,-56.62 461.11,-57.08 469.67,-63.32 471.7,-56.62"/>
</g>
<!-- async -->
<g id="node5" class="node">
<title>async</title>
<ellipse fill="none" stroke="black" cx="690.53" cy="-289.5" rx="39.5" ry="39.5"/>
<ellipse fill="none" stroke="black" cx="690.53" cy="-289.5" rx="43.5" ry="43.5"/>
<text text-anchor="middle" x="690.53" y="-285.3" font-family="Times,serif" font-size="14.00">async</text>
</g>
<!-- cli -->
<g id="node7" class="node">
<title>cli</title>
<polygon fill="pink" stroke="black" points="844.53,-430.5 790.53,-430.5 790.53,-394.5 844.53,-394.5 844.53,-430.5"/>
<text text-anchor="middle" x="817.53" y="-408.3" font-family="Times,serif" font-size="14.00">cli</text>
</g>
<!-- cli&#45;&gt;assert -->
<g id="edge4" class="edge">
<title>cli&#45;&gt;assert</title>
<path fill="none" stroke="black" d="M817.67,-394.34C817.96,-358.78 818.64,-275.74 819.09,-220.61"/>
<polygon fill="black" stroke="black" points="822.6,-220.35 819.18,-210.32 815.6,-220.29 822.6,-220.35"/>
</g>
<!-- collections -->
<g id="node8" class="node">
<title>collections</title>
<ellipse fill="none" stroke="black" cx="1235.53" cy="-412.5" rx="39.5" ry="39.5"/>
<ellipse fill="none" stroke="black" cx="1235.53" cy="-412.5" rx="43.5" ry="43.5"/>
<text text-anchor="middle" x="1235.53" y="-408.3" font-family="Times,serif" font-size="14.00">collections</text>
</g>
<!-- crypto -->
<g id="node9" class="node">
<title>crypto</title>
<ellipse fill="none" stroke="black" cx="1290.53" cy="-166.5" rx="39.5" ry="39.5"/>
<ellipse fill="none" stroke="black" cx="1290.53" cy="-166.5" rx="43.5" ry="43.5"/>
<text text-anchor="middle" x="1290.53" y="-162.3" font-family="Times,serif" font-size="14.00">crypto</text>
</g>
<!-- csv -->
<g id="node10" class="node">
<title>csv</title>
<ellipse fill="none" stroke="black" cx="1025.53" cy="-535.5" rx="39.5" ry="39.5"/>
<ellipse fill="none" stroke="black" cx="1025.53" cy="-535.5" rx="43.5" ry="43.5"/>
<text text-anchor="middle" x="1025.53" y="-531.3" font-family="Times,serif" font-size="14.00">csv</text>
</g>
<!-- csv&#45;&gt;assert -->
<g id="edge5" class="edge">
<title>csv&#45;&gt;assert</title>
<path fill="none" stroke="black" d="M1041.54,-494.82C1062.85,-434.94 1092.11,-320.59 1039.53,-246 1002.07,-192.86 925.25,-175.49 873.06,-169.93"/>
<polygon fill="black" stroke="black" points="873.26,-166.44 862.97,-168.97 872.59,-173.4 873.26,-166.44"/>
</g>
<!-- streams -->
<g id="node11" class="node">
<title>streams</title>
<ellipse fill="none" stroke="black" cx="1130.53" cy="-412.5" rx="39.5" ry="39.5"/>
<ellipse fill="none" stroke="black" cx="1130.53" cy="-412.5" rx="43.5" ry="43.5"/>
<text text-anchor="middle" x="1130.53" y="-408.3" font-family="Times,serif" font-size="14.00">streams</text>
</g>
<!-- csv&#45;&gt;streams -->
<g id="edge6" class="edge">
<title>csv&#45;&gt;streams</title>
<path fill="none" stroke="black" d="M1053.67,-502.07C1066.5,-487.29 1081.82,-469.63 1095.4,-453.99"/>
<polygon fill="black" stroke="black" points="1098.4,-455.86 1102.31,-446.02 1093.12,-451.27 1098.4,-455.86"/>
</g>
<!-- streams&#45;&gt;io -->
<g id="edge33" class="edge">
<title>streams&#45;&gt;io</title>
<path fill="none" stroke="black" d="M1099.46,-381.9C1077.84,-361.3 1049.37,-334.17 1029.07,-314.84"/>
<polygon fill="black" stroke="black" points="1031.38,-312.2 1021.72,-307.83 1026.55,-317.27 1031.38,-312.2"/>
</g>
<!-- streams&#45;&gt;assert -->
<g id="edge31" class="edge">
<title>streams&#45;&gt;assert</title>
<path fill="none" stroke="black" d="M1120.51,-369.85C1109.36,-326.76 1090.55,-263.38 1072.53,-246 1018.31,-193.71 929.89,-176.19 873.24,-170.36"/>
<polygon fill="black" stroke="black" points="873.33,-166.86 863.04,-169.4 872.67,-173.83 873.33,-166.86"/>
</g>
<!-- streams&#45;&gt;bytes -->
<g id="edge32" class="edge">
<title>streams&#45;&gt;bytes</title>
<path fill="none" stroke="black" d="M1163.57,-384.06C1177.5,-370.35 1192.17,-352.52 1199.53,-333 1213.8,-295.15 1204.36,-249.7 1192.73,-216.01"/>
<polygon fill="black" stroke="black" points="1195.95,-214.6 1189.25,-206.39 1189.37,-216.99 1195.95,-214.6"/>
</g>
<!-- data_\nstructures -->
<g id="node12" class="node">
<title>data_\nstructures</title>
<polygon fill="pink" stroke="black" points="1419.95,-679.1 1349.11,-679.1 1349.11,-637.9 1419.95,-637.9 1419.95,-679.1"/>
<text text-anchor="middle" x="1384.53" y="-662.7" font-family="Times,serif" font-size="14.00">data_</text>
<text text-anchor="middle" x="1384.53" y="-645.9" font-family="Times,serif" font-size="14.00">structures</text>
</g>
<!-- datetime -->
<g id="node13" class="node">
<title>datetime</title>
<polygon fill="pink" stroke="black" points="1501.74,-676.5 1437.32,-676.5 1437.32,-640.5 1501.74,-640.5 1501.74,-676.5"/>
<text text-anchor="middle" x="1469.53" y="-654.3" font-family="Times,serif" font-size="14.00">datetime</text>
</g>
<!-- dotenv -->
<g id="node14" class="node">
<title>dotenv</title>
<polygon fill="pink" stroke="black" points="1573.63,-676.5 1519.42,-676.5 1519.42,-640.5 1573.63,-640.5 1573.63,-676.5"/>
<text text-anchor="middle" x="1546.53" y="-654.3" font-family="Times,serif" font-size="14.00">dotenv</text>
</g>
<!-- encoding -->
<g id="node15" class="node">
<title>encoding</title>
<ellipse fill="none" stroke="black" cx="690.53" cy="-412.5" rx="39.5" ry="39.5"/>
<ellipse fill="none" stroke="black" cx="690.53" cy="-412.5" rx="43.5" ry="43.5"/>
<text text-anchor="middle" x="690.53" y="-408.3" font-family="Times,serif" font-size="14.00">encoding</text>
</g>
<!-- expect -->
<g id="node16" class="node">
<title>expect</title>
<polygon fill="pink" stroke="black" points="446.53,-307.5 392.53,-307.5 392.53,-271.5 446.53,-271.5 446.53,-307.5"/>
<text text-anchor="middle" x="419.53" y="-285.3" font-family="Times,serif" font-size="14.00">expect</text>
</g>
<!-- expect&#45;&gt;assert -->
<g id="edge7" class="edge">
<title>expect&#45;&gt;assert</title>
<path fill="none" stroke="black" d="M432.14,-271.2C439.46,-262.36 449.43,-252.2 460.53,-246 558.88,-191.08 692.34,-174.57 765.69,-169.62"/>
<polygon fill="black" stroke="black" points="766.31,-173.09 776.07,-168.97 765.87,-166.1 766.31,-173.09"/>
</g>
<!-- expect&#45;&gt;internal -->
<g id="edge8" class="edge">
<title>expect&#45;&gt;internal</title>
<path fill="none" stroke="black" d="M419.53,-271.34C419.53,-235.78 419.53,-152.74 419.53,-97.61"/>
<polygon fill="black" stroke="black" points="423.03,-97.32 419.53,-87.32 416.03,-97.32 423.03,-97.32"/>
</g>
<!-- fmt -->
<g id="node17" class="node">
<title>fmt</title>
<ellipse fill="none" stroke="black" cx="546.53" cy="-289.5" rx="39.5" ry="39.5"/>
<ellipse fill="none" stroke="black" cx="546.53" cy="-289.5" rx="43.5" ry="43.5"/>
<text text-anchor="middle" x="546.53" y="-285.3" font-family="Times,serif" font-size="14.00">fmt</text>
</g>
<!-- front_\nmatter -->
<g id="node18" class="node">
<title>front_\nmatter</title>
<ellipse fill="none" stroke="black" cx="1287.53" cy="-658.5" rx="39.5" ry="39.5"/>
<ellipse fill="none" stroke="black" cx="1287.53" cy="-658.5" rx="43.5" ry="43.5"/>
<text text-anchor="middle" x="1287.53" y="-662.7" font-family="Times,serif" font-size="14.00">front_</text>
<text text-anchor="middle" x="1287.53" y="-645.9" font-family="Times,serif" font-size="14.00">matter</text>
</g>
<!-- toml -->
<g id="node19" class="node">
<title>toml</title>
<ellipse fill="none" stroke="black" cx="1235.53" cy="-535.5" rx="39.5" ry="39.5"/>
<ellipse fill="none" stroke="black" cx="1235.53" cy="-535.5" rx="43.5" ry="43.5"/>
<text text-anchor="middle" x="1235.53" y="-531.3" font-family="Times,serif" font-size="14.00">toml</text>
</g>
<!-- front_\nmatter&#45;&gt;toml -->
<g id="edge9" class="edge">
<title>front_\nmatter&#45;&gt;toml</title>
<path fill="none" stroke="black" d="M1270.65,-618.21C1266.15,-607.75 1261.24,-596.32 1256.55,-585.42"/>
<polygon fill="black" stroke="black" points="1259.67,-583.81 1252.51,-576 1253.24,-586.57 1259.67,-583.81"/>
</g>
<!-- yaml -->
<g id="node20" class="node">
<title>yaml</title>
<ellipse fill="none" stroke="black" cx="1340.53" cy="-535.5" rx="39.5" ry="39.5"/>
<ellipse fill="none" stroke="black" cx="1340.53" cy="-535.5" rx="43.5" ry="43.5"/>
<text text-anchor="middle" x="1340.53" y="-531.3" font-family="Times,serif" font-size="14.00">yaml</text>
</g>
<!-- front_\nmatter&#45;&gt;yaml -->
<g id="edge10" class="edge">
<title>front_\nmatter&#45;&gt;yaml</title>
<path fill="none" stroke="black" d="M1304.74,-618.21C1309.41,-607.54 1314.53,-595.86 1319.4,-584.75"/>
<polygon fill="black" stroke="black" points="1322.6,-586.15 1323.41,-575.59 1316.19,-583.34 1322.6,-586.15"/>
</g>
<!-- toml&#45;&gt;collections -->
<g id="edge42" class="edge">
<title>toml&#45;&gt;collections</title>
<path fill="none" stroke="black" d="M1235.53,-491.84C1235.53,-483.62 1235.53,-474.91 1235.53,-466.41"/>
<polygon fill="black" stroke="black" points="1239.03,-466.18 1235.53,-456.18 1232.03,-466.18 1239.03,-466.18"/>
</g>
<!-- fs -->
<g id="node21" class="node">
<title>fs</title>
<ellipse fill="none" stroke="black" cx="330.53" cy="-289.5" rx="39.5" ry="39.5"/>
<ellipse fill="none" stroke="black" cx="330.53" cy="-289.5" rx="43.5" ry="43.5"/>
<text text-anchor="middle" x="330.53" y="-285.3" font-family="Times,serif" font-size="14.00">fs</text>
</g>
<!-- path -->
<g id="node22" class="node">
<title>path</title>
<ellipse fill="none" stroke="black" cx="74.53" cy="-166.5" rx="39.5" ry="39.5"/>
<ellipse fill="none" stroke="black" cx="74.53" cy="-166.5" rx="43.5" ry="43.5"/>
<text text-anchor="middle" x="74.53" y="-162.3" font-family="Times,serif" font-size="14.00">path</text>
</g>
<!-- fs&#45;&gt;path -->
<g id="edge11" class="edge">
<title>fs&#45;&gt;path</title>
<path fill="none" stroke="black" d="M298.29,-260.1C291.68,-255.02 284.58,-250.06 277.53,-246 228.87,-217.98 168.31,-196.04 126.05,-182.57"/>
<polygon fill="black" stroke="black" points="126.85,-179.15 116.26,-179.49 124.75,-185.82 126.85,-179.15"/>
</g>
<!-- html -->
<g id="node23" class="node">
<title>html</title>
<polygon fill="pink" stroke="black" points="1645.53,-676.5 1591.53,-676.5 1591.53,-640.5 1645.53,-640.5 1645.53,-676.5"/>
<text text-anchor="middle" x="1618.53" y="-654.3" font-family="Times,serif" font-size="14.00">html</text>
</g>
<!-- http -->
<g id="node24" class="node">
<title>http</title>
<polygon fill="pink" stroke="black" points="645.53,-553.5 591.53,-553.5 591.53,-517.5 645.53,-517.5 645.53,-553.5"/>
<text text-anchor="middle" x="618.53" y="-531.3" font-family="Times,serif" font-size="14.00">http</text>
</g>
<!-- http&#45;&gt;assert -->
<g id="edge12" class="edge">
<title>http&#45;&gt;assert</title>
<path fill="none" stroke="black" d="M645.74,-524.31C674.13,-512.28 717.86,-489.57 742.53,-456 770.08,-418.49 796.87,-291.67 810.4,-219.28"/>
<polygon fill="black" stroke="black" points="813.85,-219.91 812.22,-209.44 806.96,-218.64 813.85,-219.91"/>
</g>
<!-- http&#45;&gt;async -->
<g id="edge14" class="edge">
<title>http&#45;&gt;async</title>
<path fill="none" stroke="black" d="M617.87,-517.45C617.24,-486.74 618.48,-420.54 637.53,-369 642.25,-356.22 649.47,-343.48 657.08,-332.11"/>
<polygon fill="black" stroke="black" points="660.1,-333.9 662.93,-323.69 654.35,-329.9 660.1,-333.9"/>
</g>
<!-- http&#45;&gt;cli -->
<g id="edge18" class="edge">
<title>http&#45;&gt;cli</title>
<path fill="none" stroke="black" d="M645.53,-524.41C678.3,-511.44 734.4,-486.86 776.53,-456 783.51,-450.89 790.34,-444.53 796.36,-438.3"/>
<polygon fill="black" stroke="black" points="799.28,-440.3 803.51,-430.58 794.15,-435.54 799.28,-440.3"/>
</g>
<!-- http&#45;&gt;streams -->
<g id="edge17" class="edge">
<title>http&#45;&gt;streams</title>
<path fill="none" stroke="black" d="M645.87,-530.11C709.28,-519.65 871.1,-491.52 1003.53,-456 1029.17,-449.12 1057.21,-439.92 1080.4,-431.84"/>
<polygon fill="black" stroke="black" points="1081.75,-435.08 1090.02,-428.46 1079.42,-428.48 1081.75,-435.08"/>
</g>
<!-- http&#45;&gt;encoding -->
<g id="edge13" class="edge">
<title>http&#45;&gt;encoding</title>
<path fill="none" stroke="black" d="M628.69,-517.42C637.71,-502.27 651.29,-479.44 663.44,-459.03"/>
<polygon fill="black" stroke="black" points="666.61,-460.55 668.71,-450.17 660.59,-456.97 666.61,-460.55"/>
</g>
<!-- http&#45;&gt;fmt -->
<g id="edge19" class="edge">
<title>http&#45;&gt;fmt</title>
<path fill="none" stroke="black" d="M613.47,-517.34C602.83,-481.29 577.8,-396.48 561.54,-341.39"/>
<polygon fill="black" stroke="black" points="564.8,-340.06 558.62,-331.46 558.09,-342.05 564.8,-340.06"/>
</g>
<!-- http&#45;&gt;path -->
<g id="edge15" class="edge">
<title>http&#45;&gt;path</title>
<path fill="none" stroke="black" d="M591.44,-534.1C520,-532.14 321.79,-520.79 173.53,-456 90.69,-419.8 51.72,-413.98 11.53,-333 -5.66,-298.36 -1.3,-282.48 11.53,-246 16.81,-230.99 26.3,-216.73 36.34,-204.58"/>
<polygon fill="black" stroke="black" points="39.08,-206.76 42.98,-196.91 33.79,-202.18 39.08,-206.76"/>
</g>
<!-- media_types -->
<g id="node25" class="node">
<title>media_types</title>
<ellipse fill="none" stroke="black" cx="420.53" cy="-412.5" rx="59.69" ry="18"/>
<text text-anchor="middle" x="420.53" y="-408.3" font-family="Times,serif" font-size="14.00">media_types</text>
</g>
<!-- http&#45;&gt;media_types -->
<g id="edge16" class="edge">
<title>http&#45;&gt;media_types</title>
<path fill="none" stroke="black" d="M591.32,-518C565.2,-502.15 524.63,-477.49 489.53,-456 477.98,-448.93 465.36,-441.17 454.11,-434.23"/>
<polygon fill="black" stroke="black" points="455.77,-431.15 445.42,-428.88 452.1,-437.1 455.77,-431.15"/>
</g>
<!-- net -->
<g id="node26" class="node">
<title>net</title>
<polygon fill="pink" stroke="black" points="552.53,-430.5 498.53,-430.5 498.53,-394.5 552.53,-394.5 552.53,-430.5"/>
<text text-anchor="middle" x="525.53" y="-408.3" font-family="Times,serif" font-size="14.00">net</text>
</g>
<!-- http&#45;&gt;net -->
<g id="edge20" class="edge">
<title>http&#45;&gt;net</title>
<path fill="none" stroke="black" d="M605.4,-517.42C589.71,-497 563.29,-462.62 545.16,-439.04"/>
<polygon fill="black" stroke="black" points="547.76,-436.68 538.89,-430.88 542.21,-440.95 547.76,-436.68"/>
</g>
<!-- ini -->
<g id="node27" class="node">
<title>ini</title>
<polygon fill="pink" stroke="black" points="1717.53,-676.5 1663.53,-676.5 1663.53,-640.5 1717.53,-640.5 1717.53,-676.5"/>
<text text-anchor="middle" x="1690.53" y="-654.3" font-family="Times,serif" font-size="14.00">ini</text>
</g>
<!-- json -->
<g id="node28" class="node">
<title>json</title>
<ellipse fill="none" stroke="black" cx="1130.53" cy="-535.5" rx="39.5" ry="39.5"/>
<ellipse fill="none" stroke="black" cx="1130.53" cy="-535.5" rx="43.5" ry="43.5"/>
<text text-anchor="middle" x="1130.53" y="-531.3" font-family="Times,serif" font-size="14.00">json</text>
</g>
<!-- json&#45;&gt;streams -->
<g id="edge23" class="edge">
<title>json&#45;&gt;streams</title>
<path fill="none" stroke="black" d="M1130.53,-491.84C1130.53,-483.62 1130.53,-474.91 1130.53,-466.41"/>
<polygon fill="black" stroke="black" points="1134.03,-466.18 1130.53,-456.18 1127.03,-466.18 1134.03,-466.18"/>
</g>
<!-- jsonc -->
<g id="node29" class="node">
<title>jsonc</title>
<ellipse fill="none" stroke="black" cx="1001.53" cy="-658.5" rx="39.5" ry="39.5"/>
<ellipse fill="none" stroke="black" cx="1001.53" cy="-658.5" rx="43.5" ry="43.5"/>
<text text-anchor="middle" x="1001.53" y="-654.3" font-family="Times,serif" font-size="14.00">jsonc</text>
</g>
<!-- jsonc&#45;&gt;assert -->
<g id="edge24" class="edge">
<title>jsonc&#45;&gt;assert</title>
<path fill="none" stroke="black" d="M980.89,-620.2C948.96,-561.02 887.62,-441.21 852.53,-333 840.49,-295.87 832.04,-252.57 826.71,-219.57"/>
<polygon fill="black" stroke="black" points="830.17,-219.01 825.16,-209.68 823.25,-220.1 830.17,-219.01"/>
</g>
<!-- jsonc&#45;&gt;json -->
<g id="edge25" class="edge">
<title>jsonc&#45;&gt;json</title>
<path fill="none" stroke="black" d="M1032.76,-628.21C1050.53,-611.54 1072.95,-590.51 1091.83,-572.8"/>
<polygon fill="black" stroke="black" points="1094.24,-575.33 1099.14,-565.94 1089.45,-570.23 1094.24,-575.33"/>
</g>
<!-- log -->
<g id="node30" class="node">
<title>log</title>
<polygon fill="pink" stroke="black" points="342.53,-430.5 288.53,-430.5 288.53,-394.5 342.53,-394.5 342.53,-430.5"/>
<text text-anchor="middle" x="315.53" y="-408.3" font-family="Times,serif" font-size="14.00">log</text>
</g>
<!-- log&#45;&gt;io -->
<g id="edge27" class="edge">
<title>log&#45;&gt;io</title>
<path fill="none" stroke="black" d="M325.22,-394.4C331.46,-385.16 340.46,-374.53 351.53,-369 474.2,-307.73 844.86,-394.27 967.53,-333 975.31,-329.11 982.08,-322.7 987.57,-316.03"/>
<polygon fill="black" stroke="black" points="990.68,-317.72 993.83,-307.6 985.06,-313.54 990.68,-317.72"/>
</g>
<!-- log&#45;&gt;assert -->
<g id="edge29" class="edge">
<title>log&#45;&gt;assert</title>
<path fill="none" stroke="black" d="M325.71,-394.32C331.99,-385.3 340.87,-374.91 351.53,-369 448.55,-315.19 510.02,-399.88 598.53,-333 632.34,-307.46 607.35,-275.75 637.53,-246 673.22,-210.81 727.22,-190.25 767.13,-179.07"/>
<polygon fill="black" stroke="black" points="768.21,-182.4 776.96,-176.42 766.39,-175.64 768.21,-182.4"/>
</g>
<!-- log&#45;&gt;fmt -->
<g id="edge26" class="edge">
<title>log&#45;&gt;fmt</title>
<path fill="none" stroke="black" d="M326.28,-394.35C332.62,-385.57 341.39,-375.39 351.53,-369 404.79,-335.43 431.7,-360.08 488.53,-333 494.15,-330.32 499.78,-327.07 505.21,-323.58"/>
<polygon fill="black" stroke="black" points="507.22,-326.44 513.53,-317.93 503.29,-320.65 507.22,-326.44"/>
</g>
<!-- log&#45;&gt;fs -->
<g id="edge28" class="edge">
<title>log&#45;&gt;fs</title>
<path fill="none" stroke="black" d="M317.65,-394.42C319.32,-380.95 321.74,-361.42 324.03,-342.92"/>
<polygon fill="black" stroke="black" points="327.53,-343.14 325.29,-332.79 320.58,-342.28 327.53,-343.14"/>
</g>
<!-- media_\ntypes -->
<g id="node31" class="node">
<title>media_\ntypes</title>
<ellipse fill="none" stroke="black" cx="1779.53" cy="-658.5" rx="39.5" ry="39.5"/>
<ellipse fill="none" stroke="black" cx="1779.53" cy="-658.5" rx="43.5" ry="43.5"/>
<text text-anchor="middle" x="1779.53" y="-662.7" font-family="Times,serif" font-size="14.00">media_</text>
<text text-anchor="middle" x="1779.53" y="-645.9" font-family="Times,serif" font-size="14.00">types</text>
</g>
<!-- msgpack -->
<g id="node32" class="node">
<title>msgpack</title>
<polygon fill="pink" stroke="black" points="1190.29,-307.5 1124.76,-307.5 1124.76,-271.5 1190.29,-271.5 1190.29,-307.5"/>
<text text-anchor="middle" x="1157.53" y="-285.3" font-family="Times,serif" font-size="14.00">msgpack</text>
</g>
<!-- msgpack&#45;&gt;bytes -->
<g id="edge30" class="edge">
<title>msgpack&#45;&gt;bytes</title>
<path fill="none" stroke="black" d="M1159.51,-271.42C1161.06,-257.95 1163.32,-238.42 1165.46,-219.92"/>
<polygon fill="black" stroke="black" points="1168.96,-220.12 1166.64,-209.79 1162.01,-219.32 1168.96,-220.12"/>
</g>
<!-- regexp -->
<g id="node33" class="node">
<title>regexp</title>
<polygon fill="pink" stroke="black" points="1895.62,-676.5 1841.44,-676.5 1841.44,-640.5 1895.62,-640.5 1895.62,-676.5"/>
<text text-anchor="middle" x="1868.53" y="-654.3" font-family="Times,serif" font-size="14.00">regexp</text>
</g>
<!-- semver -->
<g id="node34" class="node">
<title>semver</title>
<polygon fill="pink" stroke="black" points="1969.96,-676.5 1913.1,-676.5 1913.1,-640.5 1969.96,-640.5 1969.96,-676.5"/>
<text text-anchor="middle" x="1941.53" y="-654.3" font-family="Times,serif" font-size="14.00">semver</text>
</g>
<!-- testing -->
<g id="node35" class="node">
<title>testing</title>
<ellipse fill="none" stroke="black" cx="226.53" cy="-412.5" rx="39.5" ry="39.5"/>
<ellipse fill="none" stroke="black" cx="226.53" cy="-412.5" rx="43.5" ry="43.5"/>
<text text-anchor="middle" x="226.53" y="-408.3" font-family="Times,serif" font-size="14.00">testing</text>
</g>
<!-- testing&#45;&gt;assert -->
<g id="edge34" class="edge">
<title>testing&#45;&gt;assert</title>
<path fill="none" stroke="black" d="M257.97,-382.35C264.71,-377.27 272.06,-372.51 279.53,-369 351.81,-335.08 393.47,-383.23 455.53,-333 488.33,-306.46 461.19,-273.11 493.53,-246 534.55,-211.62 684.84,-186.13 766.26,-174.49"/>
<polygon fill="black" stroke="black" points="766.9,-177.94 776.32,-173.08 765.93,-171.01 766.9,-177.94"/>
</g>
<!-- testing&#45;&gt;internal -->
<g id="edge38" class="edge">
<title>testing&#45;&gt;internal</title>
<path fill="none" stroke="black" d="M182.7,-409.57C131.87,-404.71 50.13,-388.19 11.53,-333 -4.57,-309.98 15.15,-130.14 21.53,-123 66.55,-72.55 267.92,-53.62 365.79,-47.31"/>
<polygon fill="black" stroke="black" points="366.3,-50.78 376.06,-46.67 365.86,-43.8 366.3,-50.78"/>
</g>
<!-- testing&#45;&gt;async -->
<g id="edge40" class="edge">
<title>testing&#45;&gt;async</title>
<path fill="none" stroke="black" d="M257.74,-381.82C264.49,-376.78 271.91,-372.17 279.53,-369 411.27,-314.21 461.12,-371.41 598.53,-333 613.68,-328.77 629.47,-322.3 643.61,-315.69"/>
<polygon fill="black" stroke="black" points="645.14,-318.83 652.63,-311.34 642.1,-312.53 645.14,-318.83"/>
</g>
<!-- testing&#45;&gt;fmt -->
<g id="edge37" class="edge">
<title>testing&#45;&gt;fmt</title>
<path fill="none" stroke="black" d="M257.89,-382.17C264.63,-377.1 272,-372.39 279.53,-369 365.47,-330.29 401.77,-369.83 488.53,-333 494.26,-330.57 499.96,-327.47 505.42,-324.06"/>
<polygon fill="black" stroke="black" points="507.4,-326.95 513.78,-318.49 503.52,-321.12 507.4,-326.95"/>
</g>
<!-- testing&#45;&gt;fs -->
<g id="edge36" class="edge">
<title>testing&#45;&gt;fs</title>
<path fill="none" stroke="black" d="M254.4,-379.07C267.11,-364.29 282.28,-346.63 295.73,-330.99"/>
<polygon fill="black" stroke="black" points="298.72,-332.88 302.58,-323.02 293.41,-328.32 298.72,-332.88"/>
</g>
<!-- testing&#45;&gt;path -->
<g id="edge35" class="edge">
<title>testing&#45;&gt;path</title>
<path fill="none" stroke="black" d="M188.22,-391.35C165.74,-377.69 138.5,-357.66 121.53,-333 98.33,-299.3 86.51,-254.28 80.52,-219.7"/>
<polygon fill="black" stroke="black" points="83.97,-219.1 78.91,-209.79 77.06,-220.22 83.97,-219.1"/>
</g>
<!-- data_structures -->
<g id="node36" class="node">
<title>data_structures</title>
<ellipse fill="none" stroke="black" cx="199.53" cy="-289.5" rx="69.48" ry="18"/>
<text text-anchor="middle" x="199.53" y="-285.3" font-family="Times,serif" font-size="14.00">data_structures</text>
</g>
<!-- testing&#45;&gt;data_structures -->
<g id="edge39" class="edge">
<title>testing&#45;&gt;data_structures</title>
<path fill="none" stroke="black" d="M217.24,-369.86C213.37,-352.53 208.99,-332.91 205.56,-317.51"/>
<polygon fill="black" stroke="black" points="208.94,-316.6 203.35,-307.6 202.11,-318.13 208.94,-316.6"/>
</g>
<!-- text -->
<g id="node37" class="node">
<title>text</title>
<polygon fill="pink" stroke="black" points="958.53,-307.5 904.53,-307.5 904.53,-271.5 958.53,-271.5 958.53,-307.5"/>
<text text-anchor="middle" x="931.53" y="-285.3" font-family="Times,serif" font-size="14.00">text</text>
</g>
<!-- text&#45;&gt;assert -->
<g id="edge41" class="edge">
<title>text&#45;&gt;assert</title>
<path fill="none" stroke="black" d="M915.72,-271.42C900.19,-254.64 875.93,-228.43 855.66,-206.54"/>
<polygon fill="black" stroke="black" points="858.04,-203.96 848.68,-199 852.91,-208.71 858.04,-203.96"/>
</g>
<!-- ulid -->
<g id="node38" class="node">
<title>ulid</title>
<polygon fill="pink" stroke="black" points="2041.53,-676.5 1987.53,-676.5 1987.53,-640.5 2041.53,-640.5 2041.53,-676.5"/>
<text text-anchor="middle" x="2014.53" y="-654.3" font-family="Times,serif" font-size="14.00">ulid</text>
</g>
<!-- url -->
<g id="node39" class="node">
<title>url</title>
<polygon fill="pink" stroke="black" points="74.53,-307.5 20.53,-307.5 20.53,-271.5 74.53,-271.5 74.53,-307.5"/>
<text text-anchor="middle" x="47.53" y="-285.3" font-family="Times,serif" font-size="14.00">url</text>
</g>
<!-- url&#45;&gt;path -->
<g id="edge43" class="edge">
<title>url&#45;&gt;path</title>
<path fill="none" stroke="black" d="M51.34,-271.42C54.4,-257.73 58.85,-237.76 63.04,-218.98"/>
<polygon fill="black" stroke="black" points="66.5,-219.53 65.27,-209.01 59.67,-218.01 66.5,-219.53"/>
</g>
<!-- uuid -->
<g id="node40" class="node">
<title>uuid</title>
<ellipse fill="none" stroke="black" cx="1290.53" cy="-289.5" rx="39.5" ry="39.5"/>
<ellipse fill="none" stroke="black" cx="1290.53" cy="-289.5" rx="43.5" ry="43.5"/>
<text text-anchor="middle" x="1290.53" y="-285.3" font-family="Times,serif" font-size="14.00">uuid</text>
</g>
<!-- uuid&#45;&gt;bytes -->
<g id="edge44" class="edge">
<title>uuid&#45;&gt;bytes</title>
<path fill="none" stroke="black" d="M1260.5,-257.97C1244.86,-242.06 1225.58,-222.46 1208.97,-205.57"/>
<polygon fill="black" stroke="black" points="1211.06,-202.7 1201.55,-198.02 1206.06,-207.61 1211.06,-202.7"/>
</g>
<!-- uuid&#45;&gt;crypto -->
<g id="edge45" class="edge">
<title>uuid&#45;&gt;crypto</title>
<path fill="none" stroke="black" d="M1290.53,-245.84C1290.53,-237.62 1290.53,-228.91 1290.53,-220.41"/>
<polygon fill="black" stroke="black" points="1294.03,-220.18 1290.53,-210.18 1287.03,-220.18 1294.03,-220.18"/>
</g>
<!-- webgpu -->
<g id="node41" class="node">
<title>webgpu</title>
<polygon fill="pink" stroke="black" points="2119.85,-676.5 2059.21,-676.5 2059.21,-640.5 2119.85,-640.5 2119.85,-676.5"/>
<text text-anchor="middle" x="2089.53" y="-654.3" font-family="Times,serif" font-size="14.00">webgpu</text>
</g>
</g>
</svg>
