<?xml version="1.0" encoding="UTF-8" standalone="no"?>
<!DOCTYPE svg PUBLIC "-//W3C//DTD SVG 1.1//EN"
 "http://www.w3.org/Graphics/SVG/1.1/DTD/svg11.dtd">
<!-- Generated by graphviz version 2.44.0 (20200518.1210)
 -->
<!-- Title: std_deps Pages: 1 -->
<svg width="2450pt" height="404pt"
 viewBox="0.00 0.00 2450.00 404.00" xmlns="http://www.w3.org/2000/svg" xmlns:xlink="http://www.w3.org/1999/xlink">
<g id="graph0" class="graph" transform="scale(1 1) rotate(0) translate(4 400)">
<title>std_deps</title>
<polygon fill="white" stroke="transparent" points="-4,4 -4,-400 2446,-400 2446,4 -4,4"/>
<!-- archive -->
<g id="node1" class="node">
<title>archive</title>
<ellipse fill="none" stroke="black" cx="216" cy="-252" rx="36" ry="36"/>
<text text-anchor="middle" x="216" y="-247.8" font-family="Times,serif" font-size="14.00">archive</text>
</g>
<!-- io -->
<g id="node2" class="node">
<title>io</title>
<ellipse fill="none" stroke="black" cx="216" cy="-144" rx="36" ry="36"/>
<text text-anchor="middle" x="216" y="-139.8" font-family="Times,serif" font-size="14.00">io</text>
</g>
<!-- archive&#45;&gt;io -->
<g id="edge1" class="edge">
<title>archive&#45;&gt;io</title>
<path fill="none" stroke="black" d="M216,-216C216,-207.85 216,-199.06 216,-190.54"/>
<polygon fill="black" stroke="black" points="219.5,-190.33 216,-180.33 212.5,-190.33 219.5,-190.33"/>
</g>
<!-- bytes -->
<g id="node6" class="node">
<title>bytes</title>
<ellipse fill="lightgreen" stroke="black" cx="261" cy="-36" rx="36" ry="36"/>
<text text-anchor="middle" x="261" y="-31.8" font-family="Times,serif" font-size="14.00">bytes</text>
</g>
<!-- io&#45;&gt;bytes -->
<g id="edge16" class="edge">
<title>io&#45;&gt;bytes</title>
<path fill="none" stroke="black" d="M229.75,-110.62C233.98,-100.65 238.71,-89.51 243.17,-78.99"/>
<polygon fill="black" stroke="black" points="246.5,-80.12 247.18,-69.55 240.05,-77.38 246.5,-80.12"/>
</g>
<!-- assert -->
<g id="node3" class="node">
<title>assert</title>
<ellipse fill="lightgreen" stroke="black" cx="1410" cy="-144" rx="36" ry="36"/>
<text text-anchor="middle" x="1410" y="-139.8" font-family="Times,serif" font-size="14.00">assert</text>
</g>
<!-- internal -->
<g id="node4" class="node">
<title>internal</title>
<ellipse fill="lightgreen" stroke="black" cx="1410" cy="-36" rx="36" ry="36"/>
<text text-anchor="middle" x="1410" y="-31.8" font-family="Times,serif" font-size="14.00">internal</text>
</g>
<!-- assert&#45;&gt;internal -->
<g id="edge2" class="edge">
<title>assert&#45;&gt;internal</title>
<path fill="none" stroke="black" d="M1410,-108C1410,-99.85 1410,-91.06 1410,-82.54"/>
<polygon fill="black" stroke="black" points="1413.5,-82.33 1410,-72.33 1406.5,-82.33 1413.5,-82.33"/>
</g>
<!-- async -->
<g id="node5" class="node">
<title>async</title>
<ellipse fill="lightgreen" stroke="black" cx="1192" cy="-144" rx="36" ry="36"/>
<text text-anchor="middle" x="1192" y="-139.8" font-family="Times,serif" font-size="14.00">async</text>
</g>
<!-- cli -->
<g id="node7" class="node">
<title>cli</title>
<ellipse fill="lightgreen" stroke="black" cx="486" cy="-144" rx="36" ry="36"/>
<text text-anchor="middle" x="486" y="-139.8" font-family="Times,serif" font-size="14.00">cli</text>
</g>
<!-- collections -->
<g id="node8" class="node">
<title>collections</title>
<ellipse fill="lightgreen" stroke="black" cx="1551" cy="-144" rx="36" ry="36"/>
<text text-anchor="middle" x="1551" y="-139.8" font-family="Times,serif" font-size="14.00">collections</text>
</g>
<!-- crypto -->
<g id="node9" class="node">
<title>crypto</title>
<ellipse fill="lightgreen" stroke="black" cx="396" cy="-36" rx="36" ry="36"/>
<text text-anchor="middle" x="396" y="-31.8" font-family="Times,serif" font-size="14.00">crypto</text>
</g>
<!-- csv -->
<g id="node10" class="node">
<title>csv</title>
<ellipse fill="none" stroke="black" cx="126" cy="-252" rx="36" ry="36"/>
<text text-anchor="middle" x="126" y="-247.8" font-family="Times,serif" font-size="14.00">csv</text>
</g>
<!-- streams -->
<g id="node11" class="node">
<title>streams</title>
<ellipse fill="lightgreen" stroke="black" cx="126" cy="-144" rx="36" ry="36"/>
<text text-anchor="middle" x="126" y="-139.8" font-family="Times,serif" font-size="14.00">streams</text>
</g>
<!-- csv&#45;&gt;streams -->
<g id="edge3" class="edge">
<title>csv&#45;&gt;streams</title>
<path fill="none" stroke="black" d="M126,-216C126,-207.85 126,-199.06 126,-190.54"/>
<polygon fill="black" stroke="black" points="129.5,-190.33 126,-180.33 122.5,-190.33 129.5,-190.33"/>
</g>
<!-- streams&#45;&gt;bytes -->
<g id="edge23" class="edge">
<title>streams&#45;&gt;bytes</title>
<path fill="none" stroke="black" d="M153.97,-121.04C174.61,-104.83 202.85,-82.66 225.15,-65.15"/>
<polygon fill="black" stroke="black" points="227.36,-67.86 233.06,-58.94 223.04,-62.36 227.36,-67.86"/>
</g>
<!-- data&#45;\nstructures -->
<g id="node12" class="node">
<title>data&#45;\nstructures</title>
<ellipse fill="lightgreen" stroke="black" cx="1320" cy="-144" rx="36" ry="36"/>
<text text-anchor="middle" x="1320" y="-148.2" font-family="Times,serif" font-size="14.00">data&#45;</text>
<text text-anchor="middle" x="1320" y="-131.4" font-family="Times,serif" font-size="14.00">structures</text>
</g>
<!-- datetime -->
<g id="node13" class="node">
<title>datetime</title>
<ellipse fill="none" stroke="black" cx="1686" cy="-360" rx="36" ry="36"/>
<text text-anchor="middle" x="1686" y="-355.8" font-family="Times,serif" font-size="14.00">datetime</text>
</g>
<!-- dotenv -->
<g id="node14" class="node">
<title>dotenv</title>
<ellipse fill="none" stroke="black" cx="1776" cy="-360" rx="36" ry="36"/>
<text text-anchor="middle" x="1776" y="-355.8" font-family="Times,serif" font-size="14.00">dotenv</text>
</g>
<!-- encoding -->
<g id="node15" class="node">
<title>encoding</title>
<ellipse fill="lightgreen" stroke="black" cx="756" cy="-144" rx="36" ry="36"/>
<text text-anchor="middle" x="756" y="-139.8" font-family="Times,serif" font-size="14.00">encoding</text>
</g>
<!-- expect -->
<g id="node16" class="node">
<title>expect</title>
<ellipse fill="none" stroke="black" cx="1436" cy="-252" rx="36" ry="36"/>
<text text-anchor="middle" x="1436" y="-247.8" font-family="Times,serif" font-size="14.00">expect</text>
</g>
<!-- expect&#45;&gt;assert -->
<g id="edge4" class="edge">
<title>expect&#45;&gt;assert</title>
<path fill="none" stroke="black" d="M1427.63,-216.88C1425.45,-207.99 1423.07,-198.28 1420.78,-188.96"/>
<polygon fill="black" stroke="black" points="1424.14,-187.94 1418.35,-179.06 1417.34,-189.6 1424.14,-187.94"/>
</g>
<!-- expect&#45;&gt;internal -->
<g id="edge5" class="edge">
<title>expect&#45;&gt;internal</title>
<path fill="none" stroke="black" d="M1448.03,-217.76C1456.86,-188.4 1465.64,-144.68 1455,-108 1451.41,-95.61 1444.93,-83.32 1437.99,-72.53"/>
<polygon fill="black" stroke="black" points="1440.87,-70.54 1432.37,-64.22 1435.08,-74.47 1440.87,-70.54"/>
</g>
<!-- fmt -->
<g id="node17" class="node">
<title>fmt</title>
<ellipse fill="none" stroke="black" cx="884" cy="-144" rx="36" ry="36"/>
<text text-anchor="middle" x="884" y="-139.8" font-family="Times,serif" font-size="14.00">fmt</text>
</g>
<!-- front&#45;\nmatter -->
<g id="node18" class="node">
<title>front&#45;\nmatter</title>
<ellipse fill="none" stroke="black" cx="1596" cy="-360" rx="36" ry="36"/>
<text text-anchor="middle" x="1596" y="-364.2" font-family="Times,serif" font-size="14.00">front&#45;</text>
<text text-anchor="middle" x="1596" y="-347.4" font-family="Times,serif" font-size="14.00">matter</text>
</g>
<!-- toml -->
<g id="node19" class="node">
<title>toml</title>
<ellipse fill="lightgreen" stroke="black" cx="1551" cy="-252" rx="36" ry="36"/>
<text text-anchor="middle" x="1551" y="-247.8" font-family="Times,serif" font-size="14.00">toml</text>
</g>
<!-- front&#45;\nmatter&#45;&gt;toml -->
<g id="edge6" class="edge">
<title>front&#45;\nmatter&#45;&gt;toml</title>
<path fill="none" stroke="black" d="M1582.25,-326.62C1578.02,-316.65 1573.29,-305.51 1568.83,-294.99"/>
<polygon fill="black" stroke="black" points="1571.95,-293.38 1564.82,-285.55 1565.5,-296.12 1571.95,-293.38"/>
</g>
<!-- yaml -->
<g id="node20" class="node">
<title>yaml</title>
<ellipse fill="none" stroke="black" cx="1641" cy="-252" rx="36" ry="36"/>
<text text-anchor="middle" x="1641" y="-247.8" font-family="Times,serif" font-size="14.00">yaml</text>
</g>
<!-- front&#45;\nmatter&#45;&gt;yaml -->
<g id="edge7" class="edge">
<title>front&#45;\nmatter&#45;&gt;yaml</title>
<path fill="none" stroke="black" d="M1609.75,-326.62C1613.98,-316.65 1618.71,-305.51 1623.17,-294.99"/>
<polygon fill="black" stroke="black" points="1626.5,-296.12 1627.18,-285.55 1620.05,-293.38 1626.5,-296.12"/>
</g>
<!-- toml&#45;&gt;collections -->
<g id="edge31" class="edge">
<title>toml&#45;&gt;collections</title>
<path fill="none" stroke="black" d="M1551,-216C1551,-207.85 1551,-199.06 1551,-190.54"/>
<polygon fill="black" stroke="black" points="1554.5,-190.33 1551,-180.33 1547.5,-190.33 1554.5,-190.33"/>
</g>
<!-- fs -->
<g id="node21" class="node">
<title>fs</title>
<ellipse fill="lightgreen" stroke="black" cx="974" cy="-144" rx="36" ry="36"/>
<text text-anchor="middle" x="974" y="-139.8" font-family="Times,serif" font-size="14.00">fs</text>
</g>
<!-- path -->
<g id="node22" class="node">
<title>path</title>
<ellipse fill="lightgreen" stroke="black" cx="1006" cy="-36" rx="36" ry="36"/>
<text text-anchor="middle" x="1006" y="-31.8" font-family="Times,serif" font-size="14.00">path</text>
</g>
<!-- fs&#45;&gt;path -->
<g id="edge8" class="edge">
<title>fs&#45;&gt;path</title>
<path fill="none" stroke="black" d="M984.21,-109.17C986.96,-100.09 989.96,-90.13 992.84,-80.6"/>
<polygon fill="black" stroke="black" points="996.23,-81.46 995.77,-70.87 989.53,-79.43 996.23,-81.46"/>
</g>
<!-- html -->
<g id="node23" class="node">
<title>html</title>
<ellipse fill="lightgreen" stroke="black" cx="1866" cy="-360" rx="36" ry="36"/>
<text text-anchor="middle" x="1866" y="-355.8" font-family="Times,serif" font-size="14.00">html</text>
</g>
<!-- http -->
<g id="node24" class="node">
<title>http</title>
<ellipse fill="none" stroke="black" cx="666" cy="-252" rx="36" ry="36"/>
<text text-anchor="middle" x="666" y="-247.8" font-family="Times,serif" font-size="14.00">http</text>
</g>
<!-- http&#45;&gt;cli -->
<g id="edge13" class="edge">
<title>http&#45;&gt;cli</title>
<path fill="none" stroke="black" d="M633.46,-235.9C605.54,-222.47 564.61,-201.67 531,-180 527.91,-178.01 524.76,-175.85 521.65,-173.63"/>
<polygon fill="black" stroke="black" points="523.65,-170.76 513.52,-167.64 519.49,-176.39 523.65,-170.76"/>
</g>
<!-- http&#45;&gt;streams -->
<g id="edge12" class="edge">
<title>http&#45;&gt;streams</title>
<path fill="none" stroke="black" d="M630.16,-248.26C530.92,-240.29 254.4,-215.43 171,-180 167.52,-178.52 164.07,-176.7 160.72,-174.68"/>
<polygon fill="black" stroke="black" points="162.41,-171.6 152.16,-168.93 158.52,-177.41 162.41,-171.6"/>
</g>
<!-- http&#45;&gt;encoding -->
<g id="edge9" class="edge">
<title>http&#45;&gt;encoding</title>
<path fill="none" stroke="black" d="M688.94,-223.98C700.37,-210.52 714.31,-194.1 726.52,-179.72"/>
<polygon fill="black" stroke="black" points="729.29,-181.86 733.1,-171.97 723.96,-177.33 729.29,-181.86"/>
</g>
<!-- http&#45;&gt;fmt -->
<g id="edge14" class="edge">
<title>http&#45;&gt;fmt</title>
<path fill="none" stroke="black" d="M699.81,-239.12C734.44,-226.4 789.39,-204.68 834,-180 838.29,-177.62 842.67,-174.96 846.96,-172.2"/>
<polygon fill="black" stroke="black" points="849.22,-174.9 855.59,-166.43 845.33,-169.08 849.22,-174.9"/>
</g>
<!-- http&#45;&gt;path -->
<g id="edge10" class="edge">
<title>http&#45;&gt;path</title>
<path fill="none" stroke="black" d="M700.05,-239.67C729.71,-228.4 772.33,-208.63 801,-180 826.6,-154.43 812.37,-132.49 839,-108 873.55,-76.23 924.45,-57.39 960.97,-47.19"/>
<polygon fill="black" stroke="black" points="962.11,-50.51 970.86,-44.54 960.29,-43.75 962.11,-50.51"/>
</g>
<!-- media&#45;\ntypes -->
<g id="node25" class="node">
<title>media&#45;\ntypes</title>
<ellipse fill="lightgreen" stroke="black" cx="576" cy="-144" rx="36" ry="36"/>
<text text-anchor="middle" x="576" y="-148.2" font-family="Times,serif" font-size="14.00">media&#45;</text>
<text text-anchor="middle" x="576" y="-131.4" font-family="Times,serif" font-size="14.00">types</text>
</g>
<!-- http&#45;&gt;media&#45;\ntypes -->
<g id="edge11" class="edge">
<title>http&#45;&gt;media&#45;\ntypes</title>
<path fill="none" stroke="black" d="M643.06,-223.98C631.63,-210.52 617.69,-194.1 605.48,-179.72"/>
<polygon fill="black" stroke="black" points="608.04,-177.33 598.9,-171.97 602.71,-181.86 608.04,-177.33"/>
</g>
<!-- net -->
<g id="node26" class="node">
<title>net</title>
<ellipse fill="none" stroke="black" cx="666" cy="-144" rx="36" ry="36"/>
<text text-anchor="middle" x="666" y="-139.8" font-family="Times,serif" font-size="14.00">net</text>
</g>
<!-- http&#45;&gt;net -->
<g id="edge15" class="edge">
<title>http&#45;&gt;net</title>
<path fill="none" stroke="black" d="M666,-216C666,-207.85 666,-199.06 666,-190.54"/>
<polygon fill="black" stroke="black" points="669.5,-190.33 666,-180.33 662.5,-190.33 669.5,-190.33"/>
</g>
<!-- ini -->
<g id="node27" class="node">
<title>ini</title>
<ellipse fill="none" stroke="black" cx="1956" cy="-360" rx="36" ry="36"/>
<text text-anchor="middle" x="1956" y="-355.8" font-family="Times,serif" font-size="14.00">ini</text>
</g>
<!-- json -->
<g id="node28" class="node">
<title>json</title>
<ellipse fill="none" stroke="black" cx="36" cy="-252" rx="36" ry="36"/>
<text text-anchor="middle" x="36" y="-247.8" font-family="Times,serif" font-size="14.00">json</text>
</g>
<!-- json&#45;&gt;streams -->
<g id="edge17" class="edge">
<title>json&#45;&gt;streams</title>
<path fill="none" stroke="black" d="M58.94,-223.98C70.37,-210.52 84.31,-194.1 96.52,-179.72"/>
<polygon fill="black" stroke="black" points="99.29,-181.86 103.1,-171.97 93.96,-177.33 99.29,-181.86"/>
</g>
<!-- jsonc -->
<g id="node29" class="node">
<title>jsonc</title>
<ellipse fill="none" stroke="black" cx="36" cy="-360" rx="36" ry="36"/>
<text text-anchor="middle" x="36" y="-355.8" font-family="Times,serif" font-size="14.00">jsonc</text>
</g>
<!-- jsonc&#45;&gt;json -->
<g id="edge18" class="edge">
<title>jsonc&#45;&gt;json</title>
<path fill="none" stroke="black" d="M36,-324C36,-315.85 36,-307.06 36,-298.54"/>
<polygon fill="black" stroke="black" points="39.5,-298.33 36,-288.33 32.5,-298.33 39.5,-298.33"/>
</g>
<!-- log -->
<g id="node30" class="node">
<title>log</title>
<ellipse fill="none" stroke="black" cx="884" cy="-252" rx="36" ry="36"/>
<text text-anchor="middle" x="884" y="-247.8" font-family="Times,serif" font-size="14.00">log</text>
</g>
<!-- log&#45;&gt;io -->
<g id="edge20" class="edge">
<title>log&#45;&gt;io</title>
<path fill="none" stroke="black" d="M849.09,-242.66C814.3,-234.64 759.25,-222.79 711,-216 611.66,-202.03 354.51,-216.32 261,-180 257.47,-178.63 253.99,-176.89 250.63,-174.91"/>
<polygon fill="black" stroke="black" points="252.31,-171.83 242.03,-169.25 248.46,-177.68 252.31,-171.83"/>
</g>
<!-- log&#45;&gt;fmt -->
<g id="edge19" class="edge">
<title>log&#45;&gt;fmt</title>
<path fill="none" stroke="black" d="M884,-216C884,-207.85 884,-199.06 884,-190.54"/>
<polygon fill="black" stroke="black" points="887.5,-190.33 884,-180.33 880.5,-190.33 887.5,-190.33"/>
</g>
<!-- log&#45;&gt;fs -->
<g id="edge21" class="edge">
<title>log&#45;&gt;fs</title>
<path fill="none" stroke="black" d="M906.94,-223.98C918.37,-210.52 932.31,-194.1 944.52,-179.72"/>
<polygon fill="black" stroke="black" points="947.29,-181.86 951.1,-171.97 941.96,-177.33 947.29,-181.86"/>
</g>
<!-- msgpack -->
<g id="node31" class="node">
<title>msgpack</title>
<ellipse fill="lightgreen" stroke="black" cx="306" cy="-144" rx="36" ry="36"/>
<text text-anchor="middle" x="306" y="-139.8" font-family="Times,serif" font-size="14.00">msgpack</text>
</g>
<!-- msgpack&#45;&gt;bytes -->
<g id="edge22" class="edge">
<title>msgpack&#45;&gt;bytes</title>
<path fill="none" stroke="black" d="M292.25,-110.62C288.02,-100.65 283.29,-89.51 278.83,-78.99"/>
<polygon fill="black" stroke="black" points="281.95,-77.38 274.82,-69.55 275.5,-80.12 281.95,-77.38"/>
</g>
<!-- regexp -->
<g id="node32" class="node">
<title>regexp</title>
<ellipse fill="lightgreen" stroke="black" cx="2046" cy="-360" rx="36" ry="36"/>
<text text-anchor="middle" x="2046" y="-355.8" font-family="Times,serif" font-size="14.00">regexp</text>
</g>
<!-- semver -->
<g id="node33" class="node">
<title>semver</title>
<ellipse fill="none" stroke="black" cx="2136" cy="-360" rx="36" ry="36"/>
<text text-anchor="middle" x="2136" y="-355.8" font-family="Times,serif" font-size="14.00">semver</text>
</g>
<!-- testing -->
<g id="node34" class="node">
<title>testing</title>
<ellipse fill="none" stroke="black" cx="1192" cy="-252" rx="36" ry="36"/>
<text text-anchor="middle" x="1192" y="-247.8" font-family="Times,serif" font-size="14.00">testing</text>
</g>
<!-- testing&#45;&gt;assert -->
<g id="edge24" class="edge">
<title>testing&#45;&gt;assert</title>
<path fill="none" stroke="black" d="M1226.11,-240.09C1261.95,-227.93 1319.35,-206.45 1365,-180 1368.18,-178.15 1371.39,-176.11 1374.55,-173.95"/>
<polygon fill="black" stroke="black" points="1376.66,-176.75 1382.75,-168.08 1372.58,-171.06 1376.66,-176.75"/>
</g>
<!-- testing&#45;&gt;internal -->
<g id="edge28" class="edge">
<title>testing&#45;&gt;internal</title>
<path fill="none" stroke="black" d="M1211.36,-221.61C1219.51,-208.95 1228.95,-193.89 1237,-180 1255.14,-148.69 1249.4,-133.57 1275,-108 1300.76,-82.28 1337.78,-63.71 1366.54,-52.03"/>
<polygon fill="black" stroke="black" points="1367.92,-55.24 1375.95,-48.33 1365.36,-48.73 1367.92,-55.24"/>
</g>
<!-- testing&#45;&gt;async -->
<g id="edge30" class="edge">
<title>testing&#45;&gt;async</title>
<path fill="none" stroke="black" d="M1192,-216C1192,-207.85 1192,-199.06 1192,-190.54"/>
<polygon fill="black" stroke="black" points="1195.5,-190.33 1192,-180.33 1188.5,-190.33 1195.5,-190.33"/>
</g>
<!-- testing&#45;&gt;data&#45;\nstructures -->
<g id="edge29" class="edge">
<title>testing&#45;&gt;data&#45;\nstructures</title>
<path fill="none" stroke="black" d="M1219.46,-228.26C1238.53,-212.47 1264.1,-191.29 1284.68,-174.25"/>
<polygon fill="black" stroke="black" points="1287.12,-176.78 1292.59,-167.7 1282.65,-171.38 1287.12,-176.78"/>
</g>
<!-- testing&#45;&gt;fmt -->
<g id="edge27" class="edge">
<title>testing&#45;&gt;fmt</title>
<path fill="none" stroke="black" d="M1156.37,-245.98C1104.26,-237.65 1005.19,-217.97 929,-180 925.71,-178.36 922.42,-176.45 919.21,-174.4"/>
<polygon fill="black" stroke="black" points="921.14,-171.49 910.93,-168.69 917.17,-177.25 921.14,-171.49"/>
</g>
<!-- testing&#45;&gt;fs -->
<g id="edge26" class="edge">
<title>testing&#45;&gt;fs</title>
<path fill="none" stroke="black" d="M1158.19,-239.12C1123.56,-226.4 1068.61,-204.68 1024,-180 1019.71,-177.62 1015.33,-174.96 1011.04,-172.2"/>
<polygon fill="black" stroke="black" points="1012.67,-169.08 1002.41,-166.43 1008.78,-174.9 1012.67,-169.08"/>
</g>
<!-- testing&#45;&gt;path -->
<g id="edge25" class="edge">
<title>testing&#45;&gt;path</title>
<path fill="none" stroke="black" d="M1157.51,-240.84C1127.15,-230.24 1083.72,-210.8 1057,-180 1032.95,-152.27 1019.97,-112.4 1013.14,-81.79"/>
<polygon fill="black" stroke="black" points="1016.52,-80.87 1011.05,-71.8 1009.67,-82.31 1016.52,-80.87"/>
</g>
<!-- text -->
<g id="node35" class="node">
<title>text</title>
<ellipse fill="lightgreen" stroke="black" cx="2226" cy="-360" rx="36" ry="36"/>
<text text-anchor="middle" x="2226" y="-355.8" font-family="Times,serif" font-size="14.00">text</text>
</g>
<!-- ulid -->
<g id="node36" class="node">
<title>ulid</title>
<ellipse fill="lightgreen" stroke="black" cx="2316" cy="-360" rx="36" ry="36"/>
<text text-anchor="middle" x="2316" y="-355.8" font-family="Times,serif" font-size="14.00">ulid</text>
</g>
<!-- url -->
<g id="node37" class="node">
<title>url</title>
<ellipse fill="lightgreen" stroke="black" cx="1102" cy="-144" rx="36" ry="36"/>
<text text-anchor="middle" x="1102" y="-139.8" font-family="Times,serif" font-size="14.00">url</text>
</g>
<!-- url&#45;&gt;path -->
<g id="edge32" class="edge">
<title>url&#45;&gt;path</title>
<path fill="none" stroke="black" d="M1078.27,-116.8C1065.69,-102.91 1050.1,-85.69 1036.62,-70.81"/>
<polygon fill="black" stroke="black" points="1039.1,-68.33 1029.79,-63.27 1033.91,-73.03 1039.1,-68.33"/>
</g>
<!-- uuid -->
<g id="node38" class="node">
<title>uuid</title>
<ellipse fill="lightgreen" stroke="black" cx="396" cy="-144" rx="36" ry="36"/>
<text text-anchor="middle" x="396" y="-139.8" font-family="Times,serif" font-size="14.00">uuid</text>
</g>
<!-- uuid&#45;&gt;bytes -->
<g id="edge33" class="edge">
<title>uuid&#45;&gt;bytes</title>
<path fill="none" stroke="black" d="M368.03,-121.04C347.39,-104.83 319.15,-82.66 296.85,-65.15"/>
<polygon fill="black" stroke="black" points="298.96,-62.36 288.94,-58.94 294.64,-67.86 298.96,-62.36"/>
</g>
<!-- uuid&#45;&gt;crypto -->
<g id="edge34" class="edge">
<title>uuid&#45;&gt;crypto</title>
<path fill="none" stroke="black" d="M396,-108C396,-99.85 396,-91.06 396,-82.54"/>
<polygon fill="black" stroke="black" points="399.5,-82.33 396,-72.33 392.5,-82.33 399.5,-82.33"/>
</g>
<!-- webgpu -->
<g id="node39" class="node">
<title>webgpu</title>
<ellipse fill="none" stroke="black" cx="2406" cy="-360" rx="36" ry="36"/>
<text text-anchor="middle" x="2406" y="-355.8" font-family="Times,serif" font-size="14.00">webgpu</text>
</g>
</g>
</svg>
