<?xml version="1.0" encoding="UTF-8" standalone="no"?>
<!DOCTYPE svg PUBLIC "-//W3C//DTD SVG 1.1//EN"
 "http://www.w3.org/Graphics/SVG/1.1/DTD/svg11.dtd">
<!-- Generated by graphviz version 2.44.0 (20200518.1210)
 -->
<!-- Title: std_deps Pages: 1 -->
<svg
  width="2321pt"
  height="512pt"
  viewBox="0.00 0.00 2321.00 512.00"
  xmlns="http://www.w3.org/2000/svg"
  xmlns:xlink="http://www.w3.org/1999/xlink"
>
  <g
    id="graph0"
    class="graph"
    transform="scale(1 1) rotate(0) translate(4 508)"
  >
    <title>std_deps</title>
    <polygon
      fill="white"
      stroke="transparent"
      points="-4,4 -4,-508 2317,-508 2317,4 -4,4"
    />
    <!-- assert -->
    <g id="node1" class="node">
      <title>assert</title>
      <ellipse
        fill="lightgreen"
        stroke="black"
        cx="1230"
        cy="-144"
        rx="36"
        ry="36"
      />
      <text
        text-anchor="middle"
        x="1230"
        y="-139.8"
        font-family="Times,serif"
        font-size="14.00"
      >assert</text>
    </g>
    <!-- internal -->
    <g id="node2" class="node">
      <title>internal</title>
      <ellipse
        fill="lightgreen"
        stroke="black"
        cx="1166"
        cy="-36"
        rx="36"
        ry="36"
      />
      <text
        text-anchor="middle"
        x="1166"
        y="-31.8"
        font-family="Times,serif"
        font-size="14.00"
      >internal</text>
    </g>
    <!-- assert&#45;&gt;internal -->
    <g id="edge1" class="edge">
      <title>assert&#45;&gt;internal</title>
      <path
        fill="none"
        stroke="black"
        d="M1211.83,-112.91C1204.87,-101.38 1196.83,-88.07 1189.45,-75.84"
      />
      <polygon
        fill="black"
        stroke="black"
        points="1192.38,-73.92 1184.21,-67.17 1186.39,-77.54 1192.38,-73.92"
      />
    </g>
    <!-- async -->
    <g id="node3" class="node">
      <title>async</title>
      <ellipse
        fill="lightgreen"
        stroke="black"
        cx="1384"
        cy="-252"
        rx="36"
        ry="36"
      />
      <text
        text-anchor="middle"
        x="1384"
        y="-247.8"
        font-family="Times,serif"
        font-size="14.00"
      >async</text>
    </g>
    <!-- bytes -->
    <g id="node4" class="node">
      <title>bytes</title>
      <ellipse
        fill="lightgreen"
        stroke="black"
        cx="242"
        cy="-144"
        rx="36"
        ry="36"
      />
      <text
        text-anchor="middle"
        x="242"
        y="-139.8"
        font-family="Times,serif"
        font-size="14.00"
      >bytes</text>
    </g>
    <!-- cache -->
    <g id="node5" class="node">
      <title>cache</title>
      <ellipse fill="none" stroke="black" cx="774" cy="-468" rx="36" ry="36" />
      <text
        text-anchor="middle"
        x="774"
        y="-463.8"
        font-family="Times,serif"
        font-size="14.00"
      >cache</text>
    </g>
    <!-- cbor -->
    <g id="node6" class="node">
      <title>cbor</title>
      <ellipse fill="none" stroke="black" cx="306" cy="-360" rx="36" ry="36" />
      <text
        text-anchor="middle"
        x="306"
        y="-355.8"
        font-family="Times,serif"
        font-size="14.00"
      >cbor</text>
    </g>
    <!-- cbor&#45;&gt;bytes -->
    <g id="edge3" class="edge">
      <title>cbor&#45;&gt;bytes</title>
      <path
        fill="none"
        stroke="black"
        d="M305.52,-323.91C304.15,-294.34 299.83,-251.31 287,-216 282.68,-204.11 276.12,-192.12 269.34,-181.48"
      />
      <polygon
        fill="black"
        stroke="black"
        points="272.08,-179.27 263.63,-172.88 266.25,-183.14 272.08,-179.27"
      />
    </g>
    <!-- streams -->
    <g id="node7" class="node">
      <title>streams</title>
      <ellipse
        fill="lightgreen"
        stroke="black"
        cx="152"
        cy="-252"
        rx="36"
        ry="36"
      />
      <text
        text-anchor="middle"
        x="152"
        y="-247.8"
        font-family="Times,serif"
        font-size="14.00"
      >streams</text>
    </g>
    <!-- cbor&#45;&gt;streams -->
    <g id="edge2" class="edge">
      <title>cbor&#45;&gt;streams</title>
      <path
        fill="none"
        stroke="black"
        d="M278.39,-336.49C272.75,-332.19 266.77,-327.84 261,-324 233.82,-305.93 224.18,-306.07 197,-288 193.93,-285.96 190.81,-283.78 187.71,-281.53"
      />
      <polygon
        fill="black"
        stroke="black"
        points="189.72,-278.67 179.61,-275.51 185.54,-284.28 189.72,-278.67"
      />
    </g>
    <!-- streams&#45;&gt;bytes -->
    <g id="edge27" class="edge">
      <title>streams&#45;&gt;bytes</title>
      <path
        fill="none"
        stroke="black"
        d="M174.94,-223.98C186.37,-210.52 200.31,-194.1 212.52,-179.72"
      />
      <polygon
        fill="black"
        stroke="black"
        points="215.29,-181.86 219.1,-171.97 209.96,-177.33 215.29,-181.86"
      />
    </g>
    <!-- cli -->
    <g id="node8" class="node">
      <title>cli</title>
      <ellipse
        fill="lightgreen"
        stroke="black"
        cx="730"
        cy="-252"
        rx="36"
        ry="36"
      />
      <text
        text-anchor="middle"
        x="730"
        y="-247.8"
        font-family="Times,serif"
        font-size="14.00"
      >cli</text>
    </g>
    <!-- collections -->
    <g id="node9" class="node">
      <title>collections</title>
      <ellipse
        fill="lightgreen"
        stroke="black"
        cx="1512"
        cy="-252"
        rx="36"
        ry="36"
      />
      <text
        text-anchor="middle"
        x="1512"
        y="-247.8"
        font-family="Times,serif"
        font-size="14.00"
      >collections</text>
    </g>
    <!-- crypto -->
    <g id="node10" class="node">
      <title>crypto</title>
      <ellipse
        fill="lightgreen"
        stroke="black"
        cx="878"
        cy="-144"
        rx="36"
        ry="36"
      />
      <text
        text-anchor="middle"
        x="878"
        y="-139.8"
        font-family="Times,serif"
        font-size="14.00"
      >crypto</text>
    </g>
    <!-- csv -->
    <g id="node11" class="node">
      <title>csv</title>
      <ellipse
        fill="lightgreen"
        stroke="black"
        cx="216"
        cy="-360"
        rx="36"
        ry="36"
      />
      <text
        text-anchor="middle"
        x="216"
        y="-355.8"
        font-family="Times,serif"
        font-size="14.00"
      >csv</text>
    </g>
    <!-- csv&#45;&gt;streams -->
    <g id="edge4" class="edge">
      <title>csv&#45;&gt;streams</title>
      <path
        fill="none"
        stroke="black"
        d="M197.83,-328.91C190.87,-317.38 182.83,-304.07 175.45,-291.84"
      />
      <polygon
        fill="black"
        stroke="black"
        points="178.38,-289.92 170.21,-283.17 172.39,-293.54 178.38,-289.92"
      />
    </g>
    <!-- data&#45;\nstructures -->
    <g id="node12" class="node">
      <title>data&#45;\nstructures</title>
      <ellipse
        fill="lightgreen"
        stroke="black"
        cx="1294"
        cy="-252"
        rx="36"
        ry="36"
      />
      <text
        text-anchor="middle"
        x="1294"
        y="-256.2"
        font-family="Times,serif"
        font-size="14.00"
      >data&#45;</text>
      <text
        text-anchor="middle"
        x="1294"
        y="-239.4"
        font-family="Times,serif"
        font-size="14.00"
      >structures</text>
    </g>
    <!-- data&#45;\nstructures&#45;&gt;assert -->
    <g id="edge5" class="edge">
      <title>data&#45;\nstructures&#45;&gt;assert</title>
      <path
        fill="none"
        stroke="black"
        d="M1275.83,-220.91C1268.87,-209.38 1260.83,-196.07 1253.45,-183.84"
      />
      <polygon
        fill="black"
        stroke="black"
        points="1256.38,-181.92 1248.21,-175.17 1250.39,-185.54 1256.38,-181.92"
      />
    </g>
    <!-- datetime -->
    <g id="node13" class="node">
      <title>datetime</title>
      <ellipse fill="none" stroke="black" cx="1647" cy="-468" rx="36" ry="36" />
      <text
        text-anchor="middle"
        x="1647"
        y="-463.8"
        font-family="Times,serif"
        font-size="14.00"
      >datetime</text>
    </g>
    <!-- dotenv -->
    <g id="node14" class="node">
      <title>dotenv</title>
      <ellipse fill="none" stroke="black" cx="1737" cy="-468" rx="36" ry="36" />
      <text
        text-anchor="middle"
        x="1737"
        y="-463.8"
        font-family="Times,serif"
        font-size="14.00"
      >dotenv</text>
    </g>
    <!-- encoding -->
    <g id="node15" class="node">
      <title>encoding</title>
      <ellipse
        fill="lightgreen"
        stroke="black"
        cx="820"
        cy="-252"
        rx="36"
        ry="36"
      />
      <text
        text-anchor="middle"
        x="820"
        y="-247.8"
        font-family="Times,serif"
        font-size="14.00"
      >encoding</text>
    </g>
    <!-- expect -->
    <g id="node16" class="node">
      <title>expect</title>
      <ellipse
        fill="lightgreen"
        stroke="black"
        cx="1166"
        cy="-252"
        rx="36"
        ry="36"
      />
      <text
        text-anchor="middle"
        x="1166"
        y="-247.8"
        font-family="Times,serif"
        font-size="14.00"
      >expect</text>
    </g>
    <!-- expect&#45;&gt;assert -->
    <g id="edge6" class="edge">
      <title>expect&#45;&gt;assert</title>
      <path
        fill="none"
        stroke="black"
        d="M1184.17,-220.91C1191.13,-209.38 1199.17,-196.07 1206.55,-183.84"
      />
      <polygon
        fill="black"
        stroke="black"
        points="1209.61,-185.54 1211.79,-175.17 1203.62,-181.92 1209.61,-185.54"
      />
    </g>
    <!-- expect&#45;&gt;internal -->
    <g id="edge7" class="edge">
      <title>expect&#45;&gt;internal</title>
      <path
        fill="none"
        stroke="black"
        d="M1166,-215.66C1166,-179.16 1166,-122.05 1166,-82.26"
      />
      <polygon
        fill="black"
        stroke="black"
        points="1169.5,-82.03 1166,-72.03 1162.5,-82.03 1169.5,-82.03"
      />
    </g>
    <!-- fmt -->
    <g id="node17" class="node">
      <title>fmt</title>
      <ellipse
        fill="lightgreen"
        stroke="black"
        cx="370"
        cy="-252"
        rx="36"
        ry="36"
      />
      <text
        text-anchor="middle"
        x="370"
        y="-247.8"
        font-family="Times,serif"
        font-size="14.00"
      >fmt</text>
    </g>
    <!-- front&#45;\nmatter -->
    <g id="node18" class="node">
      <title>front&#45;\nmatter</title>
      <ellipse
        fill="lightgreen"
        stroke="black"
        cx="1557"
        cy="-468"
        rx="36"
        ry="36"
      />
      <text
        text-anchor="middle"
        x="1557"
        y="-472.2"
        font-family="Times,serif"
        font-size="14.00"
      >front&#45;</text>
      <text
        text-anchor="middle"
        x="1557"
        y="-455.4"
        font-family="Times,serif"
        font-size="14.00"
      >matter</text>
    </g>
    <!-- toml -->
    <g id="node19" class="node">
      <title>toml</title>
      <ellipse
        fill="lightgreen"
        stroke="black"
        cx="1512"
        cy="-360"
        rx="36"
        ry="36"
      />
      <text
        text-anchor="middle"
        x="1512"
        y="-355.8"
        font-family="Times,serif"
        font-size="14.00"
      >toml</text>
    </g>
    <!-- front&#45;\nmatter&#45;&gt;toml -->
    <g id="edge8" class="edge">
      <title>front&#45;\nmatter&#45;&gt;toml</title>
      <path
        fill="none"
        stroke="black"
        d="M1543.25,-434.62C1539.02,-424.65 1534.29,-413.51 1529.83,-402.99"
      />
      <polygon
        fill="black"
        stroke="black"
        points="1532.95,-401.38 1525.82,-393.55 1526.5,-404.12 1532.95,-401.38"
      />
    </g>
    <!-- yaml -->
    <g id="node20" class="node">
      <title>yaml</title>
      <ellipse
        fill="lightgreen"
        stroke="black"
        cx="1602"
        cy="-360"
        rx="36"
        ry="36"
      />
      <text
        text-anchor="middle"
        x="1602"
        y="-355.8"
        font-family="Times,serif"
        font-size="14.00"
      >yaml</text>
    </g>
    <!-- front&#45;\nmatter&#45;&gt;yaml -->
    <g id="edge9" class="edge">
      <title>front&#45;\nmatter&#45;&gt;yaml</title>
      <path
        fill="none"
        stroke="black"
        d="M1570.75,-434.62C1574.98,-424.65 1579.71,-413.51 1584.17,-402.99"
      />
      <polygon
        fill="black"
        stroke="black"
        points="1587.5,-404.12 1588.18,-393.55 1581.05,-401.38 1587.5,-404.12"
      />
    </g>
    <!-- toml&#45;&gt;collections -->
    <g id="edge36" class="edge">
      <title>toml&#45;&gt;collections</title>
      <path
        fill="none"
        stroke="black"
        d="M1512,-324C1512,-315.85 1512,-307.06 1512,-298.54"
      />
      <polygon
        fill="black"
        stroke="black"
        points="1515.5,-298.33 1512,-288.33 1508.5,-298.33 1515.5,-298.33"
      />
    </g>
    <!-- fs -->
    <g id="node21" class="node">
      <title>fs</title>
      <ellipse
        fill="lightgreen"
        stroke="black"
        cx="1000"
        cy="-252"
        rx="36"
        ry="36"
      />
      <text
        text-anchor="middle"
        x="1000"
        y="-247.8"
        font-family="Times,serif"
        font-size="14.00"
      >fs</text>
    </g>
    <!-- fs&#45;&gt;internal -->
    <g id="edge11" class="edge">
      <title>fs&#45;&gt;internal</title>
      <path
        fill="none"
        stroke="black"
        d="M1010.75,-217.43C1022.91,-180.86 1042.86,-125.26 1057,-108 1075.05,-85.97 1101.77,-68.41 1124.24,-56.27"
      />
      <polygon
        fill="black"
        stroke="black"
        points="1126.01,-59.29 1133.25,-51.56 1122.77,-53.09 1126.01,-59.29"
      />
    </g>
    <!-- path -->
    <g id="node22" class="node">
      <title>path</title>
      <ellipse
        fill="lightgreen"
        stroke="black"
        cx="1102"
        cy="-144"
        rx="36"
        ry="36"
      />
      <text
        text-anchor="middle"
        x="1102"
        y="-139.8"
        font-family="Times,serif"
        font-size="14.00"
      >path</text>
    </g>
    <!-- fs&#45;&gt;path -->
    <g id="edge10" class="edge">
      <title>fs&#45;&gt;path</title>
      <path
        fill="none"
        stroke="black"
        d="M1024.69,-225.34C1038.47,-211.02 1055.78,-193.03 1070.53,-177.7"
      />
      <polygon
        fill="black"
        stroke="black"
        points="1073.12,-180.06 1077.54,-170.42 1068.08,-175.2 1073.12,-180.06"
      />
    </g>
    <!-- node:fs -->
    <g id="node23" class="node">
      <title>node:fs</title>
      <ellipse
        fill="none"
        stroke="black"
        cx="971"
        cy="-144"
        rx="39.43"
        ry="18"
      />
      <text
        text-anchor="middle"
        x="971"
        y="-139.8"
        font-family="Times,serif"
        font-size="14.00"
      >node:fs</text>
    </g>
    <!-- fs&#45;&gt;node:fs -->
    <g id="edge12" class="edge">
      <title>fs&#45;&gt;node:fs</title>
      <path
        fill="none"
        stroke="black"
        d="M990.74,-217.17C986.73,-202.49 982.09,-185.55 978.32,-171.77"
      />
      <polygon
        fill="black"
        stroke="black"
        points="981.65,-170.66 975.63,-161.94 974.9,-172.5 981.65,-170.66"
      />
    </g>
    <!-- path&#45;&gt;internal -->
    <g id="edge26" class="edge">
      <title>path&#45;&gt;internal</title>
      <path
        fill="none"
        stroke="black"
        d="M1120.17,-112.91C1127.13,-101.38 1135.17,-88.07 1142.55,-75.84"
      />
      <polygon
        fill="black"
        stroke="black"
        points="1145.61,-77.54 1147.79,-67.17 1139.62,-73.92 1145.61,-77.54"
      />
    </g>
    <!-- html -->
    <g id="node24" class="node">
      <title>html</title>
      <ellipse
        fill="lightgreen"
        stroke="black"
        cx="460"
        cy="-252"
        rx="36"
        ry="36"
      />
      <text
        text-anchor="middle"
        x="460"
        y="-247.8"
        font-family="Times,serif"
        font-size="14.00"
      >html</text>
    </g>
    <!-- http -->
    <g id="node25" class="node">
      <title>http</title>
      <ellipse
        fill="lightgreen"
        stroke="black"
        cx="640"
        cy="-360"
        rx="36"
        ry="36"
      />
      <text
        text-anchor="middle"
        x="640"
        y="-355.8"
        font-family="Times,serif"
        font-size="14.00"
      >http</text>
    </g>
    <!-- http&#45;&gt;streams -->
    <g id="edge17" class="edge">
      <title>http&#45;&gt;streams</title>
      <path
        fill="none"
        stroke="black"
        d="M603.99,-355.56C512.01,-346.4 270.49,-319.94 197,-288 193.53,-286.49 190.09,-284.65 186.75,-282.61"
      />
      <polygon
        fill="black"
        stroke="black"
        points="188.44,-279.53 178.19,-276.85 184.53,-285.34 188.44,-279.53"
      />
    </g>
    <!-- http&#45;&gt;cli -->
    <g id="edge18" class="edge">
      <title>http&#45;&gt;cli</title>
      <path
        fill="none"
        stroke="black"
        d="M662.94,-331.98C674.37,-318.52 688.31,-302.1 700.52,-287.72"
      />
      <polygon
        fill="black"
        stroke="black"
        points="703.29,-289.86 707.1,-279.97 697.96,-285.33 703.29,-289.86"
      />
    </g>
    <!-- http&#45;&gt;encoding -->
    <g id="edge13" class="edge">
      <title>http&#45;&gt;encoding</title>
      <path
        fill="none"
        stroke="black"
        d="M672.54,-343.9C700.46,-330.47 741.39,-309.67 775,-288 778.09,-286.01 781.24,-283.85 784.35,-281.63"
      />
      <polygon
        fill="black"
        stroke="black"
        points="786.51,-284.39 792.48,-275.64 782.35,-278.76 786.51,-284.39"
      />
    </g>
    <!-- http&#45;&gt;fmt -->
    <g id="edge19" class="edge">
      <title>http&#45;&gt;fmt</title>
      <path
        fill="none"
        stroke="black"
        d="M604.56,-351.92C558.91,-341.9 477.93,-321.03 415,-288 411.74,-286.29 408.48,-284.34 405.28,-282.25"
      />
      <polygon
        fill="black"
        stroke="black"
        points="407.23,-279.34 397.03,-276.48 403.22,-285.08 407.23,-279.34"
      />
    </g>
    <!-- http&#45;&gt;fs -->
    <g id="edge15" class="edge">
      <title>http&#45;&gt;fs</title>
      <path
        fill="none"
        stroke="black"
        d="M676.14,-356.02C736.49,-349.93 860.47,-332.66 955,-288 958.33,-286.43 961.64,-284.57 964.87,-282.55"
      />
      <polygon
        fill="black"
        stroke="black"
        points="966.88,-285.42 973.17,-276.89 962.94,-279.63 966.88,-285.42"
      />
    </g>
    <!-- http&#45;&gt;path -->
    <g id="edge14" class="edge">
      <title>http&#45;&gt;path</title>
      <path
        fill="none"
        stroke="black"
        d="M676.02,-357.11C764.32,-351.79 988.43,-333.98 1045,-288 1074.66,-263.89 1088.97,-222.09 1095.82,-189.88"
      />
      <polygon
        fill="black"
        stroke="black"
        points="1099.31,-190.29 1097.8,-179.8 1092.44,-188.94 1099.31,-190.29"
      />
    </g>
    <!-- http&#45;&gt;html -->
    <g id="edge21" class="edge">
      <title>http&#45;&gt;html</title>
      <path
        fill="none"
        stroke="black"
        d="M607.46,-343.9C579.54,-330.47 538.61,-309.67 505,-288 501.91,-286.01 498.76,-283.85 495.65,-281.63"
      />
      <polygon
        fill="black"
        stroke="black"
        points="497.65,-278.76 487.52,-275.64 493.49,-284.39 497.65,-278.76"
      />
    </g>
    <!-- media&#45;\ntypes -->
    <g id="node26" class="node">
      <title>media&#45;\ntypes</title>
      <ellipse
        fill="lightgreen"
        stroke="black"
        cx="550"
        cy="-252"
        rx="36"
        ry="36"
      />
      <text
        text-anchor="middle"
        x="550"
        y="-256.2"
        font-family="Times,serif"
        font-size="14.00"
      >media&#45;</text>
      <text
        text-anchor="middle"
        x="550"
        y="-239.4"
        font-family="Times,serif"
        font-size="14.00"
      >types</text>
    </g>
    <!-- http&#45;&gt;media&#45;\ntypes -->
    <g id="edge16" class="edge">
      <title>http&#45;&gt;media&#45;\ntypes</title>
      <path
        fill="none"
        stroke="black"
        d="M617.06,-331.98C605.63,-318.52 591.69,-302.1 579.48,-287.72"
      />
      <polygon
        fill="black"
        stroke="black"
        points="582.04,-285.33 572.9,-279.97 576.71,-289.86 582.04,-285.33"
      />
    </g>
    <!-- net -->
    <g id="node27" class="node">
      <title>net</title>
      <ellipse
        fill="lightgreen"
        stroke="black"
        cx="640"
        cy="-252"
        rx="36"
        ry="36"
      />
      <text
        text-anchor="middle"
        x="640"
        y="-247.8"
        font-family="Times,serif"
        font-size="14.00"
      >net</text>
    </g>
    <!-- http&#45;&gt;net -->
    <g id="edge20" class="edge">
      <title>http&#45;&gt;net</title>
      <path
        fill="none"
        stroke="black"
        d="M640,-324C640,-315.85 640,-307.06 640,-298.54"
      />
      <polygon
        fill="black"
        stroke="black"
        points="643.5,-298.33 640,-288.33 636.5,-298.33 643.5,-298.33"
      />
    </g>
    <!-- ini -->
    <g id="node28" class="node">
      <title>ini</title>
      <ellipse
        fill="lightgreen"
        stroke="black"
        cx="1827"
        cy="-468"
        rx="36"
        ry="36"
      />
      <text
        text-anchor="middle"
        x="1827"
        y="-463.8"
        font-family="Times,serif"
        font-size="14.00"
      >ini</text>
    </g>
    <!-- io -->
    <g id="node29" class="node">
      <title>io</title>
      <ellipse fill="none" stroke="black" cx="62" cy="-252" rx="36" ry="36" />
      <text
        text-anchor="middle"
        x="62"
        y="-247.8"
        font-family="Times,serif"
        font-size="14.00"
      >io</text>
    </g>
    <!-- io&#45;&gt;bytes -->
    <g id="edge22" class="edge">
      <title>io&#45;&gt;bytes</title>
      <path
        fill="none"
        stroke="black"
        d="M89.52,-228.36C95.17,-224.07 101.18,-219.75 107,-216 137.06,-196.62 172.99,-177.92 200.21,-164.59"
      />
      <polygon
        fill="black"
        stroke="black"
        points="201.99,-167.62 209.46,-160.1 198.93,-161.32 201.99,-167.62"
      />
    </g>
    <!-- json -->
    <g id="node30" class="node">
      <title>json</title>
      <ellipse
        fill="lightgreen"
        stroke="black"
        cx="36"
        cy="-360"
        rx="36"
        ry="36"
      />
      <text
        text-anchor="middle"
        x="36"
        y="-355.8"
        font-family="Times,serif"
        font-size="14.00"
      >json</text>
    </g>
    <!-- json&#45;&gt;streams -->
    <g id="edge23" class="edge">
      <title>json&#45;&gt;streams</title>
      <path
        fill="none"
        stroke="black"
        d="M62.32,-334.95C78.93,-319.77 100.54,-300.02 118.39,-283.71"
      />
      <polygon
        fill="black"
        stroke="black"
        points="120.76,-286.29 125.78,-276.96 116.04,-281.12 120.76,-286.29"
      />
    </g>
    <!-- jsonc -->
    <g id="node31" class="node">
      <title>jsonc</title>
      <ellipse
        fill="lightgreen"
        stroke="black"
        cx="36"
        cy="-468"
        rx="36"
        ry="36"
      />
      <text
        text-anchor="middle"
        x="36"
        y="-463.8"
        font-family="Times,serif"
        font-size="14.00"
      >jsonc</text>
    </g>
    <!-- jsonc&#45;&gt;json -->
    <g id="edge24" class="edge">
      <title>jsonc&#45;&gt;json</title>
      <path
        fill="none"
        stroke="black"
        d="M36,-432C36,-423.85 36,-415.06 36,-406.54"
      />
      <polygon
        fill="black"
        stroke="black"
        points="39.5,-406.33 36,-396.33 32.5,-406.33 39.5,-406.33"
      />
    </g>
    <!-- msgpack -->
    <g id="node32" class="node">
      <title>msgpack</title>
      <ellipse
        fill="lightgreen"
        stroke="black"
        cx="242"
        cy="-252"
        rx="36"
        ry="36"
      />
      <text
        text-anchor="middle"
        x="242"
        y="-247.8"
        font-family="Times,serif"
        font-size="14.00"
      >msgpack</text>
    </g>
    <!-- msgpack&#45;&gt;bytes -->
    <g id="edge25" class="edge">
      <title>msgpack&#45;&gt;bytes</title>
      <path
        fill="none"
        stroke="black"
        d="M242,-216C242,-207.85 242,-199.06 242,-190.54"
      />
      <polygon
        fill="black"
        stroke="black"
        points="245.5,-190.33 242,-180.33 238.5,-190.33 245.5,-190.33"
      />
    </g>
    <!-- random -->
    <g id="node33" class="node">
      <title>random</title>
      <ellipse fill="none" stroke="black" cx="1917" cy="-468" rx="36" ry="36" />
      <text
        text-anchor="middle"
        x="1917"
        y="-463.8"
        font-family="Times,serif"
        font-size="14.00"
      >random</text>
    </g>
    <!-- regexp -->
    <g id="node34" class="node">
      <title>regexp</title>
      <ellipse
        fill="lightgreen"
        stroke="black"
        cx="2007"
        cy="-360"
        rx="36"
        ry="36"
      />
      <text
        text-anchor="middle"
        x="2007"
        y="-355.8"
        font-family="Times,serif"
        font-size="14.00"
      >regexp</text>
    </g>
    <!-- semver -->
    <g id="node35" class="node">
      <title>semver</title>
      <ellipse
        fill="lightgreen"
        stroke="black"
        cx="2097"
        cy="-468"
        rx="36"
        ry="36"
      />
      <text
        text-anchor="middle"
        x="2097"
        y="-463.8"
        font-family="Times,serif"
        font-size="14.00"
      >semver</text>
    </g>
    <!-- tar -->
    <g id="node36" class="node">
      <title>tar</title>
      <ellipse fill="none" stroke="black" cx="126" cy="-360" rx="36" ry="36" />
      <text
        text-anchor="middle"
        x="126"
        y="-355.8"
        font-family="Times,serif"
        font-size="14.00"
      >tar</text>
    </g>
    <!-- tar&#45;&gt;streams -->
    <g id="edge28" class="edge">
      <title>tar&#45;&gt;streams</title>
      <path
        fill="none"
        stroke="black"
        d="M134.37,-324.88C136.55,-315.99 138.93,-306.28 141.22,-296.96"
      />
      <polygon
        fill="black"
        stroke="black"
        points="144.66,-297.6 143.65,-287.06 137.86,-295.94 144.66,-297.6"
      />
    </g>
    <!-- testing -->
    <g id="node37" class="node">
      <title>testing</title>
      <ellipse
        fill="lightgreen"
        stroke="black"
        cx="1262"
        cy="-360"
        rx="36"
        ry="36"
      />
      <text
        text-anchor="middle"
        x="1262"
        y="-355.8"
        font-family="Times,serif"
        font-size="14.00"
      >testing</text>
    </g>
    <!-- testing&#45;&gt;assert -->
    <g id="edge30" class="edge">
      <title>testing&#45;&gt;assert</title>
      <path
        fill="none"
        stroke="black"
        d="M1255.31,-324.39C1253.17,-312.84 1250.88,-299.88 1249,-288 1243.83,-255.28 1238.93,-218.2 1235.41,-190"
      />
      <polygon
        fill="black"
        stroke="black"
        points="1238.87,-189.53 1234.17,-180.04 1231.93,-190.39 1238.87,-189.53"
      />
    </g>
    <!-- testing&#45;&gt;internal -->
    <g id="edge29" class="edge">
      <title>testing&#45;&gt;internal</title>
      <path
        fill="none"
        stroke="black"
        d="M1297.99,-355.13C1337.75,-348.73 1399.97,-331.88 1429,-288 1446.65,-261.31 1443.77,-244.39 1429,-216 1383.16,-127.86 1271.89,-75.21 1209.77,-51.69"
      />
      <polygon
        fill="black"
        stroke="black"
        points="1210.84,-48.35 1200.24,-48.16 1208.41,-54.92 1210.84,-48.35"
      />
    </g>
    <!-- testing&#45;&gt;async -->
    <g id="edge34" class="edge">
      <title>testing&#45;&gt;async</title>
      <path
        fill="none"
        stroke="black"
        d="M1288.77,-335.74C1306.65,-320.2 1330.33,-299.63 1349.6,-282.89"
      />
      <polygon
        fill="black"
        stroke="black"
        points="1352.04,-285.41 1357.29,-276.21 1347.44,-280.12 1352.04,-285.41"
      />
    </g>
    <!-- testing&#45;&gt;data&#45;\nstructures -->
    <g id="edge33" class="edge">
      <title>testing&#45;&gt;data&#45;\nstructures</title>
      <path
        fill="none"
        stroke="black"
        d="M1272.21,-325.17C1274.96,-316.09 1277.96,-306.13 1280.84,-296.6"
      />
      <polygon
        fill="black"
        stroke="black"
        points="1284.23,-297.46 1283.77,-286.87 1277.53,-295.43 1284.23,-297.46"
      />
    </g>
    <!-- testing&#45;&gt;fs -->
    <g id="edge32" class="edge">
      <title>testing&#45;&gt;fs</title>
      <path
        fill="none"
        stroke="black"
        d="M1228.82,-345.58C1181.5,-326.43 1094.64,-291.29 1042.62,-270.24"
      />
      <polygon
        fill="black"
        stroke="black"
        points="1043.91,-266.99 1033.33,-266.48 1041.28,-273.48 1043.91,-266.99"
      />
    </g>
    <!-- testing&#45;&gt;path -->
    <g id="edge31" class="edge">
      <title>testing&#45;&gt;path</title>
      <path
        fill="none"
        stroke="black"
        d="M1226.87,-351.27C1193.93,-342.06 1146.1,-323.29 1121,-288 1101,-259.88 1097.03,-220.62 1097.62,-190.35"
      />
      <polygon
        fill="black"
        stroke="black"
        points="1101.13,-190.17 1098,-180.05 1094.13,-189.91 1101.13,-190.17"
      />
    </g>
    <!-- text -->
    <g id="node38" class="node">
      <title>text</title>
      <ellipse
        fill="lightgreen"
        stroke="black"
        cx="2007"
        cy="-468"
        rx="36"
        ry="36"
      />
      <text
        text-anchor="middle"
        x="2007"
        y="-463.8"
        font-family="Times,serif"
        font-size="14.00"
      >text</text>
    </g>
    <!-- text&#45;&gt;regexp -->
    <g id="edge35" class="edge">
      <title>text&#45;&gt;regexp</title>
      <path
        fill="none"
        stroke="black"
        d="M2007,-432C2007,-423.85 2007,-415.06 2007,-406.54"
      />
      <polygon
        fill="black"
        stroke="black"
        points="2010.5,-406.33 2007,-396.33 2003.5,-406.33 2010.5,-406.33"
      />
    </g>
    <!-- ulid -->
    <g id="node39" class="node">
      <title>ulid</title>
      <ellipse
        fill="lightgreen"
        stroke="black"
        cx="2187"
        cy="-468"
        rx="36"
        ry="36"
      />
      <text
        text-anchor="middle"
        x="2187"
        y="-463.8"
        font-family="Times,serif"
        font-size="14.00"
      >ulid</text>
    </g>
    <!-- uuid -->
    <g id="node40" class="node">
      <title>uuid</title>
      <ellipse
        fill="lightgreen"
        stroke="black"
        cx="910"
        cy="-252"
        rx="36"
        ry="36"
      />
      <text
        text-anchor="middle"
        x="910"
        y="-247.8"
        font-family="Times,serif"
        font-size="14.00"
      >uuid</text>
    </g>
    <!-- uuid&#45;&gt;bytes -->
    <g id="edge37" class="edge">
      <title>uuid&#45;&gt;bytes</title>
      <path
        fill="none"
        stroke="black"
        d="M883.9,-226.92C878.04,-222.64 871.6,-218.69 865,-216 760.09,-173.21 413.92,-153.07 288.17,-147.03"
      />
      <polygon
        fill="black"
        stroke="black"
        points="288.25,-143.53 278.1,-146.55 287.92,-150.52 288.25,-143.53"
      />
    </g>
    <!-- uuid&#45;&gt;crypto -->
    <g id="edge38" class="edge">
      <title>uuid&#45;&gt;crypto</title>
      <path
        fill="none"
        stroke="black"
        d="M899.79,-217.17C897.04,-208.09 894.04,-198.13 891.16,-188.6"
      />
      <polygon
        fill="black"
        stroke="black"
        points="894.47,-187.43 888.23,-178.87 887.77,-189.46 894.47,-187.43"
      />
    </g>
    <!-- webgpu -->
    <g id="node41" class="node">
      <title>webgpu</title>
      <ellipse fill="none" stroke="black" cx="2277" cy="-468" rx="36" ry="36" />
      <text
        text-anchor="middle"
        x="2277"
        y="-463.8"
        font-family="Times,serif"
        font-size="14.00"
      >webgpu</text>
    </g>
  </g>
</svg>
