<?xml version="1.0" encoding="UTF-8" standalone="no"?>
<!DOCTYPE svg PUBLIC "-//W3C//DTD SVG 1.1//EN"
 "http://www.w3.org/Graphics/SVG/1.1/DTD/svg11.dtd">
<!-- Generated by graphviz version 2.44.0 (20200518.1210)
 -->
<!-- Title: std_deps Pages: 1 -->
<svg width="2341pt" height="404pt"
 viewBox="0.00 0.00 2341.00 404.00" xmlns="http://www.w3.org/2000/svg" xmlns:xlink="http://www.w3.org/1999/xlink">
<g id="graph0" class="graph" transform="scale(1 1) rotate(0) translate(4 400)">
<title>std_deps</title>
<polygon fill="white" stroke="transparent" points="-4,4 -4,-400 2337,-400 2337,4 -4,4"/>
<!-- assert -->
<g id="node1" class="node">
<title>assert</title>
<ellipse fill="lightgreen" stroke="black" cx="68" cy="-144" rx="36" ry="36"/>
<text text-anchor="middle" x="68" y="-139.8" font-family="Times,serif" font-size="14.00">assert</text>
</g>
<!-- internal -->
<g id="node2" class="node">
<title>internal</title>
<ellipse fill="lightgreen" stroke="black" cx="68" cy="-36" rx="36" ry="36"/>
<text text-anchor="middle" x="68" y="-31.8" font-family="Times,serif" font-size="14.00">internal</text>
</g>
<!-- assert&#45;&gt;internal -->
<g id="edge1" class="edge">
<title>assert&#45;&gt;internal</title>
<path fill="none" stroke="black" d="M68,-108C68,-99.85 68,-91.06 68,-82.54"/>
<polygon fill="black" stroke="black" points="71.5,-82.33 68,-72.33 64.5,-82.33 71.5,-82.33"/>
</g>
<!-- async -->
<g id="node3" class="node">
<title>async</title>
<ellipse fill="lightgreen" stroke="black" cx="196" cy="-144" rx="36" ry="36"/>
<text text-anchor="middle" x="196" y="-139.8" font-family="Times,serif" font-size="14.00">async</text>
</g>
<!-- bytes -->
<g id="node4" class="node">
<title>bytes</title>
<ellipse fill="lightgreen" stroke="black" cx="1037" cy="-36" rx="36" ry="36"/>
<text text-anchor="middle" x="1037" y="-31.8" font-family="Times,serif" font-size="14.00">bytes</text>
</g>
<!-- cache -->
<g id="node5" class="node">
<title>cache</title>
<ellipse fill="none" stroke="black" cx="1262" cy="-360" rx="36" ry="36"/>
<text text-anchor="middle" x="1262" y="-355.8" font-family="Times,serif" font-size="14.00">cache</text>
</g>
<!-- cli -->
<g id="node6" class="node">
<title>cli</title>
<ellipse fill="lightgreen" stroke="black" cx="812" cy="-144" rx="36" ry="36"/>
<text text-anchor="middle" x="812" y="-139.8" font-family="Times,serif" font-size="14.00">cli</text>
</g>
<!-- collections -->
<g id="node7" class="node">
<title>collections</title>
<ellipse fill="lightgreen" stroke="black" cx="1352" cy="-144" rx="36" ry="36"/>
<text text-anchor="middle" x="1352" y="-139.8" font-family="Times,serif" font-size="14.00">collections</text>
</g>
<!-- crypto -->
<g id="node8" class="node">
<title>crypto</title>
<ellipse fill="lightgreen" stroke="black" cx="1262" cy="-36" rx="36" ry="36"/>
<text text-anchor="middle" x="1262" y="-31.8" font-family="Times,serif" font-size="14.00">crypto</text>
</g>
<!-- csv -->
<g id="node9" class="node">
<title>csv</title>
<ellipse fill="lightgreen" stroke="black" cx="1082" cy="-252" rx="36" ry="36"/>
<text text-anchor="middle" x="1082" y="-247.8" font-family="Times,serif" font-size="14.00">csv</text>
</g>
<!-- streams -->
<g id="node10" class="node">
<title>streams</title>
<ellipse fill="lightgreen" stroke="black" cx="1172" cy="-144" rx="36" ry="36"/>
<text text-anchor="middle" x="1172" y="-139.8" font-family="Times,serif" font-size="14.00">streams</text>
</g>
<!-- csv&#45;&gt;streams -->
<g id="edge2" class="edge">
<title>csv&#45;&gt;streams</title>
<path fill="none" stroke="black" d="M1104.94,-223.98C1116.37,-210.52 1130.31,-194.1 1142.52,-179.72"/>
<polygon fill="black" stroke="black" points="1145.29,-181.86 1149.1,-171.97 1139.96,-177.33 1145.29,-181.86"/>
</g>
<!-- streams&#45;&gt;bytes -->
<g id="edge22" class="edge">
<title>streams&#45;&gt;bytes</title>
<path fill="none" stroke="black" d="M1144.03,-121.04C1123.39,-104.83 1095.15,-82.66 1072.85,-65.15"/>
<polygon fill="black" stroke="black" points="1074.96,-62.36 1064.94,-58.94 1070.64,-67.86 1074.96,-62.36"/>
</g>
<!-- data&#45;\nstructures -->
<g id="node11" class="node">
<title>data&#45;\nstructures</title>
<ellipse fill="lightgreen" stroke="black" cx="286" cy="-144" rx="36" ry="36"/>
<text text-anchor="middle" x="286" y="-148.2" font-family="Times,serif" font-size="14.00">data&#45;</text>
<text text-anchor="middle" x="286" y="-131.4" font-family="Times,serif" font-size="14.00">structures</text>
</g>
<!-- datetime -->
<g id="node12" class="node">
<title>datetime</title>
<ellipse fill="none" stroke="black" cx="1487" cy="-360" rx="36" ry="36"/>
<text text-anchor="middle" x="1487" y="-355.8" font-family="Times,serif" font-size="14.00">datetime</text>
</g>
<!-- dotenv -->
<g id="node13" class="node">
<title>dotenv</title>
<ellipse fill="none" stroke="black" cx="1577" cy="-360" rx="36" ry="36"/>
<text text-anchor="middle" x="1577" y="-355.8" font-family="Times,serif" font-size="14.00">dotenv</text>
</g>
<!-- encoding -->
<g id="node14" class="node">
<title>encoding</title>
<ellipse fill="lightgreen" stroke="black" cx="992" cy="-144" rx="36" ry="36"/>
<text text-anchor="middle" x="992" y="-139.8" font-family="Times,serif" font-size="14.00">encoding</text>
</g>
<!-- expect -->
<g id="node15" class="node">
<title>expect</title>
<ellipse fill="lightgreen" stroke="black" cx="36" cy="-252" rx="36" ry="36"/>
<text text-anchor="middle" x="36" y="-247.8" font-family="Times,serif" font-size="14.00">expect</text>
</g>
<!-- expect&#45;&gt;assert -->
<g id="edge3" class="edge">
<title>expect&#45;&gt;assert</title>
<path fill="none" stroke="black" d="M46.21,-217.17C48.96,-208.09 51.96,-198.13 54.84,-188.6"/>
<polygon fill="black" stroke="black" points="58.23,-189.46 57.77,-178.87 51.53,-187.43 58.23,-189.46"/>
</g>
<!-- expect&#45;&gt;internal -->
<g id="edge4" class="edge">
<title>expect&#45;&gt;internal</title>
<path fill="none" stroke="black" d="M26.08,-217.39C19,-187.98 12.44,-144.39 23,-108 26.59,-95.61 33.07,-83.32 40.01,-72.53"/>
<polygon fill="black" stroke="black" points="42.92,-74.47 45.63,-64.22 37.13,-70.54 42.92,-74.47"/>
</g>
<!-- fmt -->
<g id="node16" class="node">
<title>fmt</title>
<ellipse fill="lightgreen" stroke="black" cx="594" cy="-144" rx="36" ry="36"/>
<text text-anchor="middle" x="594" y="-139.8" font-family="Times,serif" font-size="14.00">fmt</text>
</g>
<!-- front&#45;\nmatter -->
<g id="node17" class="node">
<title>front&#45;\nmatter</title>
<ellipse fill="lightgreen" stroke="black" cx="1397" cy="-360" rx="36" ry="36"/>
<text text-anchor="middle" x="1397" y="-364.2" font-family="Times,serif" font-size="14.00">front&#45;</text>
<text text-anchor="middle" x="1397" y="-347.4" font-family="Times,serif" font-size="14.00">matter</text>
</g>
<!-- toml -->
<g id="node18" class="node">
<title>toml</title>
<ellipse fill="lightgreen" stroke="black" cx="1352" cy="-252" rx="36" ry="36"/>
<text text-anchor="middle" x="1352" y="-247.8" font-family="Times,serif" font-size="14.00">toml</text>
</g>
<!-- front&#45;\nmatter&#45;&gt;toml -->
<g id="edge5" class="edge">
<title>front&#45;\nmatter&#45;&gt;toml</title>
<path fill="none" stroke="black" d="M1383.25,-326.62C1379.02,-316.65 1374.29,-305.51 1369.83,-294.99"/>
<polygon fill="black" stroke="black" points="1372.95,-293.38 1365.82,-285.55 1366.5,-296.12 1372.95,-293.38"/>
</g>
<!-- yaml -->
<g id="node19" class="node">
<title>yaml</title>
<ellipse fill="lightgreen" stroke="black" cx="1442" cy="-252" rx="36" ry="36"/>
<text text-anchor="middle" x="1442" y="-247.8" font-family="Times,serif" font-size="14.00">yaml</text>
</g>
<!-- front&#45;\nmatter&#45;&gt;yaml -->
<g id="edge6" class="edge">
<title>front&#45;\nmatter&#45;&gt;yaml</title>
<path fill="none" stroke="black" d="M1410.75,-326.62C1414.98,-316.65 1419.71,-305.51 1424.17,-294.99"/>
<polygon fill="black" stroke="black" points="1427.5,-296.12 1428.18,-285.55 1421.05,-293.38 1427.5,-296.12"/>
</g>
<!-- toml&#45;&gt;collections -->
<g id="edge30" class="edge">
<title>toml&#45;&gt;collections</title>
<path fill="none" stroke="black" d="M1352,-216C1352,-207.85 1352,-199.06 1352,-190.54"/>
<polygon fill="black" stroke="black" points="1355.5,-190.33 1352,-180.33 1348.5,-190.33 1355.5,-190.33"/>
</g>
<!-- fs -->
<g id="node20" class="node">
<title>fs</title>
<ellipse fill="lightgreen" stroke="black" cx="414" cy="-144" rx="36" ry="36"/>
<text text-anchor="middle" x="414" y="-139.8" font-family="Times,serif" font-size="14.00">fs</text>
</g>
<!-- path -->
<g id="node21" class="node">
<title>path</title>
<ellipse fill="lightgreen" stroke="black" cx="414" cy="-36" rx="36" ry="36"/>
<text text-anchor="middle" x="414" y="-31.8" font-family="Times,serif" font-size="14.00">path</text>
</g>
<!-- fs&#45;&gt;path -->
<g id="edge7" class="edge">
<title>fs&#45;&gt;path</title>
<path fill="none" stroke="black" d="M414,-108C414,-99.85 414,-91.06 414,-82.54"/>
<polygon fill="black" stroke="black" points="417.5,-82.33 414,-72.33 410.5,-82.33 417.5,-82.33"/>
</g>
<!-- html -->
<g id="node22" class="node">
<title>html</title>
<ellipse fill="lightgreen" stroke="black" cx="1667" cy="-360" rx="36" ry="36"/>
<text text-anchor="middle" x="1667" y="-355.8" font-family="Times,serif" font-size="14.00">html</text>
</g>
<!-- http -->
<g id="node23" class="node">
<title>http</title>
<ellipse fill="lightgreen" stroke="black" cx="812" cy="-252" rx="36" ry="36"/>
<text text-anchor="middle" x="812" y="-247.8" font-family="Times,serif" font-size="14.00">http</text>
</g>
<!-- http&#45;&gt;cli -->
<g id="edge12" class="edge">
<title>http&#45;&gt;cli</title>
<path fill="none" stroke="black" d="M812,-216C812,-207.85 812,-199.06 812,-190.54"/>
<polygon fill="black" stroke="black" points="815.5,-190.33 812,-180.33 808.5,-190.33 815.5,-190.33"/>
</g>
<!-- http&#45;&gt;streams -->
<g id="edge11" class="edge">
<title>http&#45;&gt;streams</title>
<path fill="none" stroke="black" d="M848.14,-248.02C908.49,-241.93 1032.47,-224.66 1127,-180 1130.33,-178.43 1133.64,-176.57 1136.87,-174.55"/>
<polygon fill="black" stroke="black" points="1138.88,-177.42 1145.17,-168.89 1134.94,-171.63 1138.88,-177.42"/>
</g>
<!-- http&#45;&gt;encoding -->
<g id="edge8" class="edge">
<title>http&#45;&gt;encoding</title>
<path fill="none" stroke="black" d="M844.54,-235.9C872.46,-222.47 913.39,-201.67 947,-180 950.09,-178.01 953.24,-175.85 956.35,-173.63"/>
<polygon fill="black" stroke="black" points="958.51,-176.39 964.48,-167.64 954.35,-170.76 958.51,-176.39"/>
</g>
<!-- http&#45;&gt;fmt -->
<g id="edge13" class="edge">
<title>http&#45;&gt;fmt</title>
<path fill="none" stroke="black" d="M778.19,-239.12C743.56,-226.4 688.61,-204.68 644,-180 639.71,-177.62 635.33,-174.96 631.04,-172.2"/>
<polygon fill="black" stroke="black" points="632.67,-169.08 622.41,-166.43 628.78,-174.9 632.67,-169.08"/>
</g>
<!-- http&#45;&gt;path -->
<g id="edge9" class="edge">
<title>http&#45;&gt;path</title>
<path fill="none" stroke="black" d="M777.95,-239.67C748.29,-228.4 705.67,-208.63 677,-180 651.4,-154.43 666.78,-131.18 639,-108 587.32,-64.88 509.29,-47.86 460.03,-41.2"/>
<polygon fill="black" stroke="black" points="460.33,-37.71 449.97,-39.94 459.45,-44.66 460.33,-37.71"/>
</g>
<!-- media&#45;\ntypes -->
<g id="node24" class="node">
<title>media&#45;\ntypes</title>
<ellipse fill="lightgreen" stroke="black" cx="1082" cy="-144" rx="36" ry="36"/>
<text text-anchor="middle" x="1082" y="-148.2" font-family="Times,serif" font-size="14.00">media&#45;</text>
<text text-anchor="middle" x="1082" y="-131.4" font-family="Times,serif" font-size="14.00">types</text>
</g>
<!-- http&#45;&gt;media&#45;\ntypes -->
<g id="edge10" class="edge">
<title>http&#45;&gt;media&#45;\ntypes</title>
<path fill="none" stroke="black" d="M847.44,-243.92C893.09,-233.9 974.07,-213.03 1037,-180 1040.26,-178.29 1043.52,-176.34 1046.72,-174.25"/>
<polygon fill="black" stroke="black" points="1048.78,-177.08 1054.97,-168.48 1044.77,-171.34 1048.78,-177.08"/>
</g>
<!-- net -->
<g id="node25" class="node">
<title>net</title>
<ellipse fill="lightgreen" stroke="black" cx="722" cy="-144" rx="36" ry="36"/>
<text text-anchor="middle" x="722" y="-139.8" font-family="Times,serif" font-size="14.00">net</text>
</g>
<!-- http&#45;&gt;net -->
<g id="edge14" class="edge">
<title>http&#45;&gt;net</title>
<path fill="none" stroke="black" d="M789.06,-223.98C777.63,-210.52 763.69,-194.1 751.48,-179.72"/>
<polygon fill="black" stroke="black" points="754.04,-177.33 744.9,-171.97 748.71,-181.86 754.04,-177.33"/>
</g>
<!-- ini -->
<g id="node26" class="node">
<title>ini</title>
<ellipse fill="lightgreen" stroke="black" cx="1757" cy="-360" rx="36" ry="36"/>
<text text-anchor="middle" x="1757" y="-355.8" font-family="Times,serif" font-size="14.00">ini</text>
</g>
<!-- io -->
<g id="node27" class="node">
<title>io</title>
<ellipse fill="none" stroke="black" cx="504" cy="-144" rx="36" ry="36"/>
<text text-anchor="middle" x="504" y="-139.8" font-family="Times,serif" font-size="14.00">io</text>
</g>
<!-- io&#45;&gt;bytes -->
<g id="edge15" class="edge">
<title>io&#45;&gt;bytes</title>
<path fill="none" stroke="black" d="M530.16,-119.08C536.02,-114.78 542.44,-110.79 549,-108 701.1,-43.2 901.4,-35.76 990.65,-36.02"/>
<polygon fill="black" stroke="black" points="990.69,-39.52 1000.72,-36.08 990.74,-32.52 990.69,-39.52"/>
</g>
<!-- json -->
<g id="node28" class="node">
<title>json</title>
<ellipse fill="lightgreen" stroke="black" cx="1172" cy="-252" rx="36" ry="36"/>
<text text-anchor="middle" x="1172" y="-247.8" font-family="Times,serif" font-size="14.00">json</text>
</g>
<!-- json&#45;&gt;streams -->
<g id="edge16" class="edge">
<title>json&#45;&gt;streams</title>
<path fill="none" stroke="black" d="M1172,-216C1172,-207.85 1172,-199.06 1172,-190.54"/>
<polygon fill="black" stroke="black" points="1175.5,-190.33 1172,-180.33 1168.5,-190.33 1175.5,-190.33"/>
</g>
<!-- jsonc -->
<g id="node29" class="node">
<title>jsonc</title>
<ellipse fill="lightgreen" stroke="black" cx="1172" cy="-360" rx="36" ry="36"/>
<text text-anchor="middle" x="1172" y="-355.8" font-family="Times,serif" font-size="14.00">jsonc</text>
</g>
<!-- jsonc&#45;&gt;json -->
<g id="edge17" class="edge">
<title>jsonc&#45;&gt;json</title>
<path fill="none" stroke="black" d="M1172,-324C1172,-315.85 1172,-307.06 1172,-298.54"/>
<polygon fill="black" stroke="black" points="1175.5,-298.33 1172,-288.33 1168.5,-298.33 1175.5,-298.33"/>
</g>
<!-- log -->
<g id="node30" class="node">
<title>log</title>
<ellipse fill="none" stroke="black" cx="504" cy="-252" rx="36" ry="36"/>
<text text-anchor="middle" x="504" y="-247.8" font-family="Times,serif" font-size="14.00">log</text>
</g>
<!-- log&#45;&gt;fmt -->
<g id="edge18" class="edge">
<title>log&#45;&gt;fmt</title>
<path fill="none" stroke="black" d="M526.94,-223.98C538.37,-210.52 552.31,-194.1 564.52,-179.72"/>
<polygon fill="black" stroke="black" points="567.29,-181.86 571.1,-171.97 561.96,-177.33 567.29,-181.86"/>
</g>
<!-- log&#45;&gt;fs -->
<g id="edge20" class="edge">
<title>log&#45;&gt;fs</title>
<path fill="none" stroke="black" d="M481.06,-223.98C469.63,-210.52 455.69,-194.1 443.48,-179.72"/>
<polygon fill="black" stroke="black" points="446.04,-177.33 436.9,-171.97 440.71,-181.86 446.04,-177.33"/>
</g>
<!-- log&#45;&gt;io -->
<g id="edge19" class="edge">
<title>log&#45;&gt;io</title>
<path fill="none" stroke="black" d="M504,-216C504,-207.85 504,-199.06 504,-190.54"/>
<polygon fill="black" stroke="black" points="507.5,-190.33 504,-180.33 500.5,-190.33 507.5,-190.33"/>
</g>
<!-- msgpack -->
<g id="node31" class="node">
<title>msgpack</title>
<ellipse fill="lightgreen" stroke="black" cx="902" cy="-144" rx="36" ry="36"/>
<text text-anchor="middle" x="902" y="-139.8" font-family="Times,serif" font-size="14.00">msgpack</text>
</g>
<!-- msgpack&#45;&gt;bytes -->
<g id="edge21" class="edge">
<title>msgpack&#45;&gt;bytes</title>
<path fill="none" stroke="black" d="M929.97,-121.04C950.61,-104.83 978.85,-82.66 1001.15,-65.15"/>
<polygon fill="black" stroke="black" points="1003.36,-67.86 1009.06,-58.94 999.04,-62.36 1003.36,-67.86"/>
</g>
<!-- random -->
<g id="node32" class="node">
<title>random</title>
<ellipse fill="none" stroke="black" cx="1847" cy="-360" rx="36" ry="36"/>
<text text-anchor="middle" x="1847" y="-355.8" font-family="Times,serif" font-size="14.00">random</text>
</g>
<!-- regexp -->
<g id="node33" class="node">
<title>regexp</title>
<ellipse fill="lightgreen" stroke="black" cx="1937" cy="-360" rx="36" ry="36"/>
<text text-anchor="middle" x="1937" y="-355.8" font-family="Times,serif" font-size="14.00">regexp</text>
</g>
<!-- semver -->
<g id="node34" class="node">
<title>semver</title>
<ellipse fill="lightgreen" stroke="black" cx="2027" cy="-360" rx="36" ry="36"/>
<text text-anchor="middle" x="2027" y="-355.8" font-family="Times,serif" font-size="14.00">semver</text>
</g>
<!-- tar -->
<g id="node35" class="node">
<title>tar</title>
<ellipse fill="none" stroke="black" cx="1262" cy="-252" rx="36" ry="36"/>
<text text-anchor="middle" x="1262" y="-247.8" font-family="Times,serif" font-size="14.00">tar</text>
</g>
<!-- tar&#45;&gt;streams -->
<g id="edge23" class="edge">
<title>tar&#45;&gt;streams</title>
<path fill="none" stroke="black" d="M1239.06,-223.98C1227.63,-210.52 1213.69,-194.1 1201.48,-179.72"/>
<polygon fill="black" stroke="black" points="1204.04,-177.33 1194.9,-171.97 1198.71,-181.86 1204.04,-177.33"/>
</g>
<!-- testing -->
<g id="node36" class="node">
<title>testing</title>
<ellipse fill="lightgreen" stroke="black" cx="241" cy="-252" rx="36" ry="36"/>
<text text-anchor="middle" x="241" y="-247.8" font-family="Times,serif" font-size="14.00">testing</text>
</g>
<!-- testing&#45;&gt;assert -->
<g id="edge25" class="edge">
<title>testing&#45;&gt;assert</title>
<path fill="none" stroke="black" d="M209.72,-233.94C184.59,-219.99 148.57,-199.47 118,-180 113.86,-177.36 109.58,-174.54 105.35,-171.67"/>
<polygon fill="black" stroke="black" points="107.02,-168.57 96.79,-165.79 103.05,-174.34 107.02,-168.57"/>
</g>
<!-- testing&#45;&gt;internal -->
<g id="edge24" class="edge">
<title>testing&#45;&gt;internal</title>
<path fill="none" stroke="black" d="M210.79,-231.96C191.92,-218.99 168.06,-200.5 151,-180 127.85,-152.19 131.14,-139.31 113,-108 106.71,-97.15 99.57,-85.58 92.87,-75"/>
<polygon fill="black" stroke="black" points="95.69,-72.93 87.36,-66.39 89.79,-76.7 95.69,-72.93"/>
</g>
<!-- testing&#45;&gt;async -->
<g id="edge29" class="edge">
<title>testing&#45;&gt;async</title>
<path fill="none" stroke="black" d="M227.25,-218.62C223.02,-208.65 218.29,-197.51 213.83,-186.99"/>
<polygon fill="black" stroke="black" points="216.95,-185.38 209.82,-177.55 210.5,-188.12 216.95,-185.38"/>
</g>
<!-- testing&#45;&gt;data&#45;\nstructures -->
<g id="edge28" class="edge">
<title>testing&#45;&gt;data&#45;\nstructures</title>
<path fill="none" stroke="black" d="M254.75,-218.62C258.98,-208.65 263.71,-197.51 268.17,-186.99"/>
<polygon fill="black" stroke="black" points="271.5,-188.12 272.18,-177.55 265.05,-185.38 271.5,-188.12"/>
</g>
<!-- testing&#45;&gt;fs -->
<g id="edge27" class="edge">
<title>testing&#45;&gt;fs</title>
<path fill="none" stroke="black" d="M272.28,-233.94C297.41,-219.99 333.43,-199.47 364,-180 368.14,-177.36 372.42,-174.54 376.65,-171.67"/>
<polygon fill="black" stroke="black" points="378.95,-174.34 385.21,-165.79 374.98,-168.57 378.95,-174.34"/>
</g>
<!-- testing&#45;&gt;path -->
<g id="edge26" class="edge">
<title>testing&#45;&gt;path</title>
<path fill="none" stroke="black" d="M271.21,-231.96C290.08,-218.99 313.94,-200.5 331,-180 354.15,-152.19 350.86,-139.31 369,-108 375.29,-97.15 382.43,-85.58 389.13,-75"/>
<polygon fill="black" stroke="black" points="392.21,-76.7 394.64,-66.39 386.31,-72.93 392.21,-76.7"/>
</g>
<!-- text -->
<g id="node37" class="node">
<title>text</title>
<ellipse fill="lightgreen" stroke="black" cx="2117" cy="-360" rx="36" ry="36"/>
<text text-anchor="middle" x="2117" y="-355.8" font-family="Times,serif" font-size="14.00">text</text>
</g>
<!-- ulid -->
<g id="node38" class="node">
<title>ulid</title>
<ellipse fill="lightgreen" stroke="black" cx="2207" cy="-360" rx="36" ry="36"/>
<text text-anchor="middle" x="2207" y="-355.8" font-family="Times,serif" font-size="14.00">ulid</text>
</g>
<!-- uuid -->
<g id="node39" class="node">
<title>uuid</title>
<ellipse fill="lightgreen" stroke="black" cx="1262" cy="-144" rx="36" ry="36"/>
<text text-anchor="middle" x="1262" y="-139.8" font-family="Times,serif" font-size="14.00">uuid</text>
</g>
<!-- uuid&#45;&gt;bytes -->
<g id="edge31" class="edge">
<title>uuid&#45;&gt;bytes</title>
<path fill="none" stroke="black" d="M1234.78,-119.86C1229.11,-115.61 1223.02,-111.43 1217,-108 1173.07,-82.94 1118.56,-62.8 1081.1,-50.46"/>
<polygon fill="black" stroke="black" points="1082.08,-47.1 1071.49,-47.34 1079.92,-53.76 1082.08,-47.1"/>
</g>
<!-- uuid&#45;&gt;crypto -->
<g id="edge32" class="edge">
<title>uuid&#45;&gt;crypto</title>
<path fill="none" stroke="black" d="M1262,-108C1262,-99.85 1262,-91.06 1262,-82.54"/>
<polygon fill="black" stroke="black" points="1265.5,-82.33 1262,-72.33 1258.5,-82.33 1265.5,-82.33"/>
</g>
<!-- webgpu -->
<g id="node40" class="node">
<title>webgpu</title>
<ellipse fill="none" stroke="black" cx="2297" cy="-360" rx="36" ry="36"/>
<text text-anchor="middle" x="2297" y="-355.8" font-family="Times,serif" font-size="14.00">webgpu</text>
</g>
</g>
</svg>
