<?xml version="1.0" encoding="UTF-8" standalone="no"?>
<!DOCTYPE svg PUBLIC "-//W3C//DTD SVG 1.1//EN"
 "http://www.w3.org/Graphics/SVG/1.1/DTD/svg11.dtd">
<!-- Generated by graphviz version 2.44.0 (20200518.1210)
 -->
<!-- Title: std_deps Pages: 1 -->
<svg width="2125pt" height="710pt"
 viewBox="0.00 0.00 2125.12 710.00" xmlns="http://www.w3.org/2000/svg" xmlns:xlink="http://www.w3.org/1999/xlink">
<g id="graph0" class="graph" transform="scale(1 1) rotate(0) translate(4 706)">
<title>std_deps</title>
<polygon fill="white" stroke="transparent" points="-4,4 -4,-706 2121.12,-706 2121.12,4 -4,4"/>
<!-- archive -->
<g id="node1" class="node">
<title>archive</title>
<polygon fill="pink" stroke="black" points="1033.82,-430.5 976.43,-430.5 976.43,-394.5 1033.82,-394.5 1033.82,-430.5"/>
<text text-anchor="middle" x="1005.12" y="-408.3" font-family="Times,serif" font-size="14.00">archive</text>
</g>
<!-- io -->
<g id="node2" class="node">
<title>io</title>
<polygon fill="pink" stroke="black" points="1200.12,-307.5 1146.12,-307.5 1146.12,-271.5 1200.12,-271.5 1200.12,-307.5"/>
<text text-anchor="middle" x="1173.12" y="-285.3" font-family="Times,serif" font-size="14.00">io</text>
</g>
<!-- archive&#45;&gt;io -->
<g id="edge1" class="edge">
<title>archive&#45;&gt;io</title>
<path fill="none" stroke="black" d="M1028.83,-394.42C1058.14,-373.31 1108.15,-337.3 1140.91,-313.7"/>
<polygon fill="black" stroke="black" points="1143.19,-316.37 1149.26,-307.69 1139.1,-310.69 1143.19,-316.37"/>
</g>
<!-- assert -->
<g id="node3" class="node">
<title>assert</title>
<ellipse fill="none" stroke="black" cx="892.12" cy="-166.5" rx="39.5" ry="39.5"/>
<ellipse fill="none" stroke="black" cx="892.12" cy="-166.5" rx="43.5" ry="43.5"/>
<text text-anchor="middle" x="892.12" y="-162.3" font-family="Times,serif" font-size="14.00">assert</text>
</g>
<!-- archive&#45;&gt;assert -->
<g id="edge2" class="edge">
<title>archive&#45;&gt;assert</title>
<path fill="none" stroke="black" d="M990.67,-394.36C978.33,-379.05 960.77,-355.62 949.12,-333 930.33,-296.52 915.5,-252.48 905.69,-219"/>
<polygon fill="black" stroke="black" points="908.93,-217.62 902.8,-208.97 902.2,-219.55 908.93,-217.62"/>
</g>
<!-- io&#45;&gt;assert -->
<g id="edge21" class="edge">
<title>io&#45;&gt;assert</title>
<path fill="none" stroke="black" d="M1159.89,-271.22C1152.53,-262.6 1142.72,-252.64 1132.12,-246 1073.44,-209.23 995.79,-187.95 944.93,-177.04"/>
<polygon fill="black" stroke="black" points="945.63,-173.61 935.13,-175 944.2,-180.47 945.63,-173.61"/>
</g>
<!-- bytes -->
<g id="node6" class="node">
<title>bytes</title>
<ellipse fill="none" stroke="black" cx="1303.12" cy="-166.5" rx="39.5" ry="39.5"/>
<ellipse fill="none" stroke="black" cx="1303.12" cy="-166.5" rx="43.5" ry="43.5"/>
<text text-anchor="middle" x="1303.12" y="-162.3" font-family="Times,serif" font-size="14.00">bytes</text>
</g>
<!-- io&#45;&gt;bytes -->
<g id="edge22" class="edge">
<title>io&#45;&gt;bytes</title>
<path fill="none" stroke="black" d="M1191.47,-271.42C1210.23,-253.96 1239.94,-226.31 1264,-203.92"/>
<polygon fill="black" stroke="black" points="1266.65,-206.22 1271.59,-196.85 1261.88,-201.1 1266.65,-206.22"/>
</g>
<!-- internal -->
<g id="node4" class="node">
<title>internal</title>
<ellipse fill="none" stroke="black" cx="211.12" cy="-43.5" rx="39.5" ry="39.5"/>
<ellipse fill="none" stroke="black" cx="211.12" cy="-43.5" rx="43.5" ry="43.5"/>
<text text-anchor="middle" x="211.12" y="-39.3" font-family="Times,serif" font-size="14.00">internal</text>
</g>
<!-- assert&#45;&gt;internal -->
<g id="edge3" class="edge">
<title>assert&#45;&gt;internal</title>
<path fill="none" stroke="black" d="M849.26,-157.89C730.09,-136.71 394.95,-77.16 264.26,-53.94"/>
<polygon fill="black" stroke="black" points="264.55,-50.44 254.1,-52.14 263.33,-57.33 264.55,-50.44"/>
</g>
<!-- async -->
<g id="node5" class="node">
<title>async</title>
<ellipse fill="none" stroke="black" cx="300.12" cy="-289.5" rx="39.5" ry="39.5"/>
<ellipse fill="none" stroke="black" cx="300.12" cy="-289.5" rx="43.5" ry="43.5"/>
<text text-anchor="middle" x="300.12" y="-285.3" font-family="Times,serif" font-size="14.00">async</text>
</g>
<!-- cli -->
<g id="node7" class="node">
<title>cli</title>
<polygon fill="pink" stroke="black" points="610.12,-430.5 556.12,-430.5 556.12,-394.5 610.12,-394.5 610.12,-430.5"/>
<text text-anchor="middle" x="583.12" y="-408.3" font-family="Times,serif" font-size="14.00">cli</text>
</g>
<!-- cli&#45;&gt;assert -->
<g id="edge4" class="edge">
<title>cli&#45;&gt;assert</title>
<path fill="none" stroke="black" d="M597.33,-394.41C603.9,-386.6 611.83,-377.27 619.12,-369 633.47,-352.72 640.2,-351.14 652.12,-333 675.4,-297.59 660.43,-275.22 691.12,-246 732.15,-206.94 794.84,-186.63 839.29,-176.55"/>
<polygon fill="black" stroke="black" points="840.29,-179.92 849.32,-174.38 838.81,-173.08 840.29,-179.92"/>
</g>
<!-- collections -->
<g id="node8" class="node">
<title>collections</title>
<ellipse fill="none" stroke="black" cx="1311.12" cy="-412.5" rx="39.5" ry="39.5"/>
<ellipse fill="none" stroke="black" cx="1311.12" cy="-412.5" rx="43.5" ry="43.5"/>
<text text-anchor="middle" x="1311.12" y="-408.3" font-family="Times,serif" font-size="14.00">collections</text>
</g>
<!-- crypto -->
<g id="node9" class="node">
<title>crypto</title>
<ellipse fill="none" stroke="black" cx="1422.12" cy="-166.5" rx="39.5" ry="39.5"/>
<ellipse fill="none" stroke="black" cx="1422.12" cy="-166.5" rx="43.5" ry="43.5"/>
<text text-anchor="middle" x="1422.12" y="-162.3" font-family="Times,serif" font-size="14.00">crypto</text>
</g>
<!-- csv -->
<g id="node10" class="node">
<title>csv</title>
<ellipse fill="none" stroke="black" cx="1101.12" cy="-535.5" rx="39.5" ry="39.5"/>
<ellipse fill="none" stroke="black" cx="1101.12" cy="-535.5" rx="43.5" ry="43.5"/>
<text text-anchor="middle" x="1101.12" y="-531.3" font-family="Times,serif" font-size="14.00">csv</text>
</g>
<!-- csv&#45;&gt;assert -->
<g id="edge5" class="edge">
<title>csv&#45;&gt;assert</title>
<path fill="none" stroke="black" d="M1114.03,-493.89C1130.45,-433.83 1150.88,-320.43 1099.12,-246 1064.7,-196.51 994.76,-178.19 945.74,-171.43"/>
<polygon fill="black" stroke="black" points="945.98,-167.93 935.62,-170.16 945.1,-174.88 945.98,-167.93"/>
</g>
<!-- streams -->
<g id="node11" class="node">
<title>streams</title>
<ellipse fill="none" stroke="black" cx="1206.12" cy="-412.5" rx="39.5" ry="39.5"/>
<ellipse fill="none" stroke="black" cx="1206.12" cy="-412.5" rx="43.5" ry="43.5"/>
<text text-anchor="middle" x="1206.12" y="-408.3" font-family="Times,serif" font-size="14.00">streams</text>
</g>
<!-- csv&#45;&gt;streams -->
<g id="edge6" class="edge">
<title>csv&#45;&gt;streams</title>
<path fill="none" stroke="black" d="M1129.26,-502.07C1142.09,-487.29 1157.41,-469.63 1170.99,-453.99"/>
<polygon fill="black" stroke="black" points="1173.99,-455.86 1177.91,-446.02 1168.71,-451.27 1173.99,-455.86"/>
</g>
<!-- streams&#45;&gt;io -->
<g id="edge33" class="edge">
<title>streams&#45;&gt;io</title>
<path fill="none" stroke="black" d="M1194.86,-370.2C1190.12,-352.84 1184.75,-333.14 1180.53,-317.66"/>
<polygon fill="black" stroke="black" points="1183.82,-316.43 1177.81,-307.7 1177.07,-318.27 1183.82,-316.43"/>
</g>
<!-- streams&#45;&gt;assert -->
<g id="edge32" class="edge">
<title>streams&#45;&gt;assert</title>
<path fill="none" stroke="black" d="M1219.97,-370.92C1229.68,-334.35 1236.57,-281.08 1209.12,-246 1176.95,-204.89 1027.07,-182.31 945.45,-172.87"/>
<polygon fill="black" stroke="black" points="945.69,-169.37 935.36,-171.73 944.91,-176.33 945.69,-169.37"/>
</g>
<!-- streams&#45;&gt;bytes -->
<g id="edge31" class="edge">
<title>streams&#45;&gt;bytes</title>
<path fill="none" stroke="black" d="M1238.56,-383.12C1244.86,-378.15 1251.55,-373.23 1258.12,-369 1288.54,-349.43 1312.02,-363.72 1331.12,-333 1353.2,-297.49 1341.73,-249.78 1327.38,-214.71"/>
<polygon fill="black" stroke="black" points="1330.45,-212.98 1323.28,-205.18 1324.02,-215.75 1330.45,-212.98"/>
</g>
<!-- data_\nstructures -->
<g id="node12" class="node">
<title>data_\nstructures</title>
<polygon fill="pink" stroke="black" points="1495.54,-679.1 1424.7,-679.1 1424.7,-637.9 1495.54,-637.9 1495.54,-679.1"/>
<text text-anchor="middle" x="1460.12" y="-662.7" font-family="Times,serif" font-size="14.00">data_</text>
<text text-anchor="middle" x="1460.12" y="-645.9" font-family="Times,serif" font-size="14.00">structures</text>
</g>
<!-- datetime -->
<g id="node13" class="node">
<title>datetime</title>
<polygon fill="pink" stroke="black" points="1577.33,-676.5 1512.91,-676.5 1512.91,-640.5 1577.33,-640.5 1577.33,-676.5"/>
<text text-anchor="middle" x="1545.12" y="-654.3" font-family="Times,serif" font-size="14.00">datetime</text>
</g>
<!-- dotenv -->
<g id="node14" class="node">
<title>dotenv</title>
<polygon fill="pink" stroke="black" points="1649.23,-676.5 1595.02,-676.5 1595.02,-640.5 1649.23,-640.5 1649.23,-676.5"/>
<text text-anchor="middle" x="1622.12" y="-654.3" font-family="Times,serif" font-size="14.00">dotenv</text>
</g>
<!-- encoding -->
<g id="node15" class="node">
<title>encoding</title>
<ellipse fill="none" stroke="black" cx="744.12" cy="-412.5" rx="39.5" ry="39.5"/>
<ellipse fill="none" stroke="black" cx="744.12" cy="-412.5" rx="43.5" ry="43.5"/>
<text text-anchor="middle" x="744.12" y="-408.3" font-family="Times,serif" font-size="14.00">encoding</text>
</g>
<!-- expect -->
<g id="node16" class="node">
<title>expect</title>
<polygon fill="pink" stroke="black" points="238.12,-307.5 184.12,-307.5 184.12,-271.5 238.12,-271.5 238.12,-307.5"/>
<text text-anchor="middle" x="211.12" y="-285.3" font-family="Times,serif" font-size="14.00">expect</text>
</g>
<!-- expect&#45;&gt;assert -->
<g id="edge7" class="edge">
<title>expect&#45;&gt;assert</title>
<path fill="none" stroke="black" d="M221.25,-271.23C227.51,-262.17 236.4,-251.78 247.12,-246 349.09,-191.01 702.65,-173.73 838.43,-169.04"/>
<polygon fill="black" stroke="black" points="838.72,-172.54 848.6,-168.7 838.48,-165.54 838.72,-172.54"/>
</g>
<!-- expect&#45;&gt;internal -->
<g id="edge8" class="edge">
<title>expect&#45;&gt;internal</title>
<path fill="none" stroke="black" d="M211.12,-271.34C211.12,-235.78 211.12,-152.74 211.12,-97.61"/>
<polygon fill="black" stroke="black" points="214.62,-97.32 211.12,-87.32 207.62,-97.32 214.62,-97.32"/>
</g>
<!-- fmt -->
<g id="node17" class="node">
<title>fmt</title>
<ellipse fill="none" stroke="black" cx="744.12" cy="-289.5" rx="39.5" ry="39.5"/>
<ellipse fill="none" stroke="black" cx="744.12" cy="-289.5" rx="43.5" ry="43.5"/>
<text text-anchor="middle" x="744.12" y="-285.3" font-family="Times,serif" font-size="14.00">fmt</text>
</g>
<!-- front_\nmatter -->
<g id="node18" class="node">
<title>front_\nmatter</title>
<ellipse fill="none" stroke="black" cx="1363.12" cy="-658.5" rx="39.5" ry="39.5"/>
<ellipse fill="none" stroke="black" cx="1363.12" cy="-658.5" rx="43.5" ry="43.5"/>
<text text-anchor="middle" x="1363.12" y="-662.7" font-family="Times,serif" font-size="14.00">front_</text>
<text text-anchor="middle" x="1363.12" y="-645.9" font-family="Times,serif" font-size="14.00">matter</text>
</g>
<!-- toml -->
<g id="node19" class="node">
<title>toml</title>
<ellipse fill="none" stroke="black" cx="1311.12" cy="-535.5" rx="39.5" ry="39.5"/>
<ellipse fill="none" stroke="black" cx="1311.12" cy="-535.5" rx="43.5" ry="43.5"/>
<text text-anchor="middle" x="1311.12" y="-531.3" font-family="Times,serif" font-size="14.00">toml</text>
</g>
<!-- front_\nmatter&#45;&gt;toml -->
<g id="edge9" class="edge">
<title>front_\nmatter&#45;&gt;toml</title>
<path fill="none" stroke="black" d="M1346.24,-618.21C1341.74,-607.75 1336.83,-596.32 1332.14,-585.42"/>
<polygon fill="black" stroke="black" points="1335.26,-583.81 1328.1,-576 1328.83,-586.57 1335.26,-583.81"/>
</g>
<!-- yaml -->
<g id="node20" class="node">
<title>yaml</title>
<ellipse fill="none" stroke="black" cx="1416.12" cy="-535.5" rx="39.5" ry="39.5"/>
<ellipse fill="none" stroke="black" cx="1416.12" cy="-535.5" rx="43.5" ry="43.5"/>
<text text-anchor="middle" x="1416.12" y="-531.3" font-family="Times,serif" font-size="14.00">yaml</text>
</g>
<!-- front_\nmatter&#45;&gt;yaml -->
<g id="edge10" class="edge">
<title>front_\nmatter&#45;&gt;yaml</title>
<path fill="none" stroke="black" d="M1380.33,-618.21C1385,-607.54 1390.12,-595.86 1394.99,-584.75"/>
<polygon fill="black" stroke="black" points="1398.19,-586.15 1399,-575.59 1391.78,-583.34 1398.19,-586.15"/>
</g>
<!-- toml&#45;&gt;collections -->
<g id="edge42" class="edge">
<title>toml&#45;&gt;collections</title>
<path fill="none" stroke="black" d="M1311.12,-491.84C1311.12,-483.62 1311.12,-474.91 1311.12,-466.41"/>
<polygon fill="black" stroke="black" points="1314.62,-466.18 1311.12,-456.18 1307.62,-466.18 1314.62,-466.18"/>
</g>
<!-- fs -->
<g id="node21" class="node">
<title>fs</title>
<ellipse fill="none" stroke="black" cx="600.12" cy="-289.5" rx="39.5" ry="39.5"/>
<ellipse fill="none" stroke="black" cx="600.12" cy="-289.5" rx="43.5" ry="43.5"/>
<text text-anchor="middle" x="600.12" y="-285.3" font-family="Times,serif" font-size="14.00">fs</text>
</g>
<!-- path -->
<g id="node22" class="node">
<title>path</title>
<ellipse fill="none" stroke="black" cx="128.12" cy="-166.5" rx="39.5" ry="39.5"/>
<ellipse fill="none" stroke="black" cx="128.12" cy="-166.5" rx="43.5" ry="43.5"/>
<text text-anchor="middle" x="128.12" y="-162.3" font-family="Times,serif" font-size="14.00">path</text>
</g>
<!-- fs&#45;&gt;path -->
<g id="edge11" class="edge">
<title>fs&#45;&gt;path</title>
<path fill="none" stroke="black" d="M561.97,-268.25C545.99,-260.41 527,-251.92 509.12,-246 395.24,-208.25 255.95,-185.09 181.34,-174.45"/>
<polygon fill="black" stroke="black" points="181.65,-170.96 171.26,-173.03 180.67,-177.89 181.65,-170.96"/>
</g>
<!-- html -->
<g id="node23" class="node">
<title>html</title>
<polygon fill="pink" stroke="black" points="1721.12,-676.5 1667.12,-676.5 1667.12,-640.5 1721.12,-640.5 1721.12,-676.5"/>
<text text-anchor="middle" x="1694.12" y="-654.3" font-family="Times,serif" font-size="14.00">html</text>
</g>
<!-- http -->
<g id="node24" class="node">
<title>http</title>
<polygon fill="pink" stroke="black" points="610.12,-553.5 556.12,-553.5 556.12,-517.5 610.12,-517.5 610.12,-553.5"/>
<text text-anchor="middle" x="583.12" y="-531.3" font-family="Times,serif" font-size="14.00">http</text>
</g>
<!-- http&#45;&gt;assert -->
<g id="edge12" class="edge">
<title>http&#45;&gt;assert</title>
<path fill="none" stroke="black" d="M610.17,-533.38C658.68,-529.87 760.59,-515.4 816.12,-456 832.37,-438.62 864.45,-297.55 881.26,-219.31"/>
<polygon fill="black" stroke="black" points="884.76,-219.68 883.43,-209.17 877.91,-218.22 884.76,-219.68"/>
</g>
<!-- http&#45;&gt;async -->
<g id="edge14" class="edge">
<title>http&#45;&gt;async</title>
<path fill="none" stroke="black" d="M556.1,-532.68C481.05,-527.02 272.92,-506.93 232.12,-456 207.95,-425.82 218.61,-405.23 232.12,-369 238.07,-353.05 248.88,-338.19 260.15,-325.78"/>
<polygon fill="black" stroke="black" points="262.83,-328.04 267.19,-318.39 257.76,-323.22 262.83,-328.04"/>
</g>
<!-- http&#45;&gt;cli -->
<g id="edge18" class="edge">
<title>http&#45;&gt;cli</title>
<path fill="none" stroke="black" d="M583.12,-517.42C583.12,-497.54 583.12,-464.42 583.12,-440.92"/>
<polygon fill="black" stroke="black" points="586.62,-440.88 583.12,-430.88 579.62,-440.88 586.62,-440.88"/>
</g>
<!-- http&#45;&gt;streams -->
<g id="edge17" class="edge">
<title>http&#45;&gt;streams</title>
<path fill="none" stroke="black" d="M610.24,-530.71C681.53,-520.55 879.97,-491.12 1043.12,-456 1080.66,-447.92 1122.56,-436.95 1154.49,-428.18"/>
<polygon fill="black" stroke="black" points="1155.78,-431.45 1164.48,-425.41 1153.91,-424.71 1155.78,-431.45"/>
</g>
<!-- http&#45;&gt;encoding -->
<g id="edge13" class="edge">
<title>http&#45;&gt;encoding</title>
<path fill="none" stroke="black" d="M607.38,-517.36C629.43,-501.67 662.75,-477.67 691.12,-456 694.91,-453.11 698.81,-450.07 702.71,-447.01"/>
<polygon fill="black" stroke="black" points="704.99,-449.67 710.67,-440.72 700.65,-444.18 704.99,-449.67"/>
</g>
<!-- http&#45;&gt;fmt -->
<g id="edge19" class="edge">
<title>http&#45;&gt;fmt</title>
<path fill="none" stroke="black" d="M610.13,-533.76C657.22,-530.84 753.41,-517.26 796.12,-456 822,-418.88 799.59,-368.31 776.65,-332.88"/>
<polygon fill="black" stroke="black" points="779.32,-330.57 770.84,-324.21 773.5,-334.47 779.32,-330.57"/>
</g>
<!-- http&#45;&gt;path -->
<g id="edge15" class="edge">
<title>http&#45;&gt;path</title>
<path fill="none" stroke="black" d="M556.06,-531.49C480.7,-522.67 270.31,-495.08 214.12,-456 160.98,-419.04 155.67,-394.71 136.12,-333 124.6,-296.62 122.87,-253.51 123.88,-220.41"/>
<polygon fill="black" stroke="black" points="127.39,-220.17 124.29,-210.04 120.4,-219.89 127.39,-220.17"/>
</g>
<!-- media_types -->
<g id="node25" class="node">
<title>media_types</title>
<ellipse fill="none" stroke="black" cx="406.12" cy="-412.5" rx="59.69" ry="18"/>
<text text-anchor="middle" x="406.12" y="-408.3" font-family="Times,serif" font-size="14.00">media_types</text>
</g>
<!-- http&#45;&gt;media_types -->
<g id="edge16" class="edge">
<title>http&#45;&gt;media_types</title>
<path fill="none" stroke="black" d="M558.14,-517.42C526.42,-495.74 471.71,-458.34 437.3,-434.81"/>
<polygon fill="black" stroke="black" points="439.24,-431.9 429.01,-429.15 435.29,-437.68 439.24,-431.9"/>
</g>
<!-- net -->
<g id="node26" class="node">
<title>net</title>
<polygon fill="pink" stroke="black" points="538.12,-430.5 484.12,-430.5 484.12,-394.5 538.12,-394.5 538.12,-430.5"/>
<text text-anchor="middle" x="511.12" y="-408.3" font-family="Times,serif" font-size="14.00">net</text>
</g>
<!-- http&#45;&gt;net -->
<g id="edge20" class="edge">
<title>http&#45;&gt;net</title>
<path fill="none" stroke="black" d="M572.96,-517.42C560.91,-497.18 540.71,-463.23 526.69,-439.66"/>
<polygon fill="black" stroke="black" points="529.59,-437.69 521.47,-430.88 523.57,-441.27 529.59,-437.69"/>
</g>
<!-- ini -->
<g id="node27" class="node">
<title>ini</title>
<polygon fill="pink" stroke="black" points="1793.12,-676.5 1739.12,-676.5 1739.12,-640.5 1793.12,-640.5 1793.12,-676.5"/>
<text text-anchor="middle" x="1766.12" y="-654.3" font-family="Times,serif" font-size="14.00">ini</text>
</g>
<!-- json -->
<g id="node28" class="node">
<title>json</title>
<ellipse fill="none" stroke="black" cx="1206.12" cy="-535.5" rx="39.5" ry="39.5"/>
<ellipse fill="none" stroke="black" cx="1206.12" cy="-535.5" rx="43.5" ry="43.5"/>
<text text-anchor="middle" x="1206.12" y="-531.3" font-family="Times,serif" font-size="14.00">json</text>
</g>
<!-- json&#45;&gt;streams -->
<g id="edge23" class="edge">
<title>json&#45;&gt;streams</title>
<path fill="none" stroke="black" d="M1206.12,-491.84C1206.12,-483.62 1206.12,-474.91 1206.12,-466.41"/>
<polygon fill="black" stroke="black" points="1209.62,-466.18 1206.12,-456.18 1202.62,-466.18 1209.62,-466.18"/>
</g>
<!-- jsonc -->
<g id="node29" class="node">
<title>jsonc</title>
<ellipse fill="none" stroke="black" cx="1049.12" cy="-658.5" rx="39.5" ry="39.5"/>
<ellipse fill="none" stroke="black" cx="1049.12" cy="-658.5" rx="43.5" ry="43.5"/>
<text text-anchor="middle" x="1049.12" y="-654.3" font-family="Times,serif" font-size="14.00">jsonc</text>
</g>
<!-- jsonc&#45;&gt;assert -->
<g id="edge24" class="edge">
<title>jsonc&#45;&gt;assert</title>
<path fill="none" stroke="black" d="M1028.83,-619.81C997.95,-560.6 939.73,-441.32 911.12,-333 901.39,-296.16 896.64,-253.41 894.33,-220.59"/>
<polygon fill="black" stroke="black" points="897.8,-220.05 893.66,-210.3 890.82,-220.5 897.8,-220.05"/>
</g>
<!-- jsonc&#45;&gt;json -->
<g id="edge25" class="edge">
<title>jsonc&#45;&gt;json</title>
<path fill="none" stroke="black" d="M1083.98,-631.59C1104.27,-616.41 1130.27,-596.78 1153.12,-579 1156.88,-576.08 1160.77,-573.02 1164.66,-569.94"/>
<polygon fill="black" stroke="black" points="1166.94,-572.59 1172.59,-563.63 1162.59,-567.11 1166.94,-572.59"/>
</g>
<!-- log -->
<g id="node30" class="node">
<title>log</title>
<polygon fill="pink" stroke="black" points="682.12,-430.5 628.12,-430.5 628.12,-394.5 682.12,-394.5 682.12,-430.5"/>
<text text-anchor="middle" x="655.12" y="-408.3" font-family="Times,serif" font-size="14.00">log</text>
</g>
<!-- log&#45;&gt;io -->
<g id="edge27" class="edge">
<title>log&#45;&gt;io</title>
<path fill="none" stroke="black" d="M665.17,-394.09C671.41,-384.99 680.3,-374.6 691.12,-369 852.75,-285.26 925.47,-387.61 1099.12,-333 1113.56,-328.46 1128.27,-320.77 1140.72,-313.17"/>
<polygon fill="black" stroke="black" points="1142.79,-316.01 1149.36,-307.7 1139.04,-310.09 1142.79,-316.01"/>
</g>
<!-- log&#45;&gt;assert -->
<g id="edge29" class="edge">
<title>log&#45;&gt;assert</title>
<path fill="none" stroke="black" d="M666.38,-394.23C672.75,-385.62 681.38,-375.65 691.12,-369 731.86,-341.18 758.92,-365.4 796.12,-333 828.8,-304.55 818.34,-283.46 840.12,-246 846.86,-234.4 854.63,-222.17 862.07,-210.9"/>
<polygon fill="black" stroke="black" points="865.03,-212.77 867.67,-202.5 859.21,-208.88 865.03,-212.77"/>
</g>
<!-- log&#45;&gt;fmt -->
<g id="edge26" class="edge">
<title>log&#45;&gt;fmt</title>
<path fill="none" stroke="black" d="M667.68,-394.42C679.36,-378.55 697.23,-354.25 712.76,-333.14"/>
<polygon fill="black" stroke="black" points="715.7,-335.05 718.8,-324.92 710.06,-330.91 715.7,-335.05"/>
</g>
<!-- log&#45;&gt;fs -->
<g id="edge28" class="edge">
<title>log&#45;&gt;fs</title>
<path fill="none" stroke="black" d="M647.36,-394.42C640.76,-379.91 630.97,-358.36 622,-338.64"/>
<polygon fill="black" stroke="black" points="625.15,-337.1 617.82,-329.44 618.77,-339.99 625.15,-337.1"/>
</g>
<!-- media_\ntypes -->
<g id="node31" class="node">
<title>media_\ntypes</title>
<ellipse fill="none" stroke="black" cx="1855.12" cy="-658.5" rx="39.5" ry="39.5"/>
<ellipse fill="none" stroke="black" cx="1855.12" cy="-658.5" rx="43.5" ry="43.5"/>
<text text-anchor="middle" x="1855.12" y="-662.7" font-family="Times,serif" font-size="14.00">media_</text>
<text text-anchor="middle" x="1855.12" y="-645.9" font-family="Times,serif" font-size="14.00">types</text>
</g>
<!-- msgpack -->
<g id="node32" class="node">
<title>msgpack</title>
<polygon fill="pink" stroke="black" points="1321.89,-307.5 1256.36,-307.5 1256.36,-271.5 1321.89,-271.5 1321.89,-307.5"/>
<text text-anchor="middle" x="1289.12" y="-285.3" font-family="Times,serif" font-size="14.00">msgpack</text>
</g>
<!-- msgpack&#45;&gt;bytes -->
<g id="edge30" class="edge">
<title>msgpack&#45;&gt;bytes</title>
<path fill="none" stroke="black" d="M1291.1,-271.42C1292.66,-257.95 1294.92,-238.42 1297.06,-219.92"/>
<polygon fill="black" stroke="black" points="1300.56,-220.12 1298.23,-209.79 1293.6,-219.32 1300.56,-220.12"/>
</g>
<!-- regexp -->
<g id="node33" class="node">
<title>regexp</title>
<polygon fill="pink" stroke="black" points="1971.21,-676.5 1917.03,-676.5 1917.03,-640.5 1971.21,-640.5 1971.21,-676.5"/>
<text text-anchor="middle" x="1944.12" y="-654.3" font-family="Times,serif" font-size="14.00">regexp</text>
</g>
<!-- semver -->
<g id="node34" class="node">
<title>semver</title>
<polygon fill="pink" stroke="black" points="2045.55,-676.5 1988.69,-676.5 1988.69,-640.5 2045.55,-640.5 2045.55,-676.5"/>
<text text-anchor="middle" x="2017.12" y="-654.3" font-family="Times,serif" font-size="14.00">semver</text>
</g>
<!-- testing -->
<g id="node35" class="node">
<title>testing</title>
<ellipse fill="none" stroke="black" cx="285.12" cy="-412.5" rx="39.5" ry="39.5"/>
<ellipse fill="none" stroke="black" cx="285.12" cy="-412.5" rx="43.5" ry="43.5"/>
<text text-anchor="middle" x="285.12" y="-408.3" font-family="Times,serif" font-size="14.00">testing</text>
</g>
<!-- testing&#45;&gt;assert -->
<g id="edge34" class="edge">
<title>testing&#45;&gt;assert</title>
<path fill="none" stroke="black" d="M316.49,-381.93C322.94,-377.02 329.97,-372.42 337.12,-369 407.59,-335.33 448.52,-382.27 509.12,-333 541.86,-306.38 514.62,-272.9 547.12,-246 591.17,-209.54 753.63,-184.59 838.96,-173.7"/>
<polygon fill="black" stroke="black" points="839.49,-177.16 848.98,-172.44 838.62,-170.21 839.49,-177.16"/>
</g>
<!-- testing&#45;&gt;internal -->
<g id="edge38" class="edge">
<title>testing&#45;&gt;internal</title>
<path fill="none" stroke="black" d="M242.27,-404.72C175.83,-393.23 52.87,-367.75 27.12,-333 -29.88,-256.08 12.74,-195.63 75.12,-123 98.1,-96.25 132.59,-76.48 161.08,-63.48"/>
<polygon fill="black" stroke="black" points="162.76,-66.57 170.49,-59.33 159.93,-60.16 162.76,-66.57"/>
</g>
<!-- testing&#45;&gt;async -->
<g id="edge40" class="edge">
<title>testing&#45;&gt;async</title>
<path fill="none" stroke="black" d="M290.37,-369.18C291.41,-360.76 292.52,-351.81 293.6,-343.09"/>
<polygon fill="black" stroke="black" points="297.1,-343.36 294.85,-333 290.15,-342.49 297.1,-343.36"/>
</g>
<!-- testing&#45;&gt;fmt -->
<g id="edge37" class="edge">
<title>testing&#45;&gt;fmt</title>
<path fill="none" stroke="black" d="M315.96,-381.61C322.52,-376.66 329.71,-372.13 337.12,-369 466.94,-314.19 516.44,-371.03 652.12,-333 667.27,-328.75 683.06,-322.29 697.19,-315.67"/>
<polygon fill="black" stroke="black" points="698.73,-318.82 706.22,-311.33 695.69,-312.51 698.73,-318.82"/>
</g>
<!-- testing&#45;&gt;fs -->
<g id="edge36" class="edge">
<title>testing&#45;&gt;fs</title>
<path fill="none" stroke="black" d="M316.12,-381.96C322.66,-376.98 329.81,-372.35 337.12,-369 421.22,-330.48 457.03,-369.29 542.12,-333 547.85,-330.56 553.54,-327.45 559.01,-324.04"/>
<polygon fill="black" stroke="black" points="560.99,-326.93 567.36,-318.47 557.1,-321.1 560.99,-326.93"/>
</g>
<!-- testing&#45;&gt;path -->
<g id="edge35" class="edge">
<title>testing&#45;&gt;path</title>
<path fill="none" stroke="black" d="M246.32,-392.52C222.52,-379 193.23,-358.7 175.12,-333 151.55,-299.56 139.75,-254.52 133.87,-219.87"/>
<polygon fill="black" stroke="black" points="137.32,-219.26 132.3,-209.93 130.4,-220.36 137.32,-219.26"/>
</g>
<!-- data_structures -->
<g id="node36" class="node">
<title>data_structures</title>
<ellipse fill="none" stroke="black" cx="431.12" cy="-289.5" rx="69.48" ry="18"/>
<text text-anchor="middle" x="431.12" y="-285.3" font-family="Times,serif" font-size="14.00">data_structures</text>
</g>
<!-- testing&#45;&gt;data_structures -->
<g id="edge39" class="edge">
<title>testing&#45;&gt;data_structures</title>
<path fill="none" stroke="black" d="M318.25,-384.04C343.95,-362.74 379.16,-333.56 403.39,-313.49"/>
<polygon fill="black" stroke="black" points="405.68,-316.13 411.15,-307.05 401.22,-310.74 405.68,-316.13"/>
</g>
<!-- text -->
<g id="node37" class="node">
<title>text</title>
<polygon fill="pink" stroke="black" points="1012.12,-307.5 958.12,-307.5 958.12,-271.5 1012.12,-271.5 1012.12,-307.5"/>
<text text-anchor="middle" x="985.12" y="-285.3" font-family="Times,serif" font-size="14.00">text</text>
</g>
<!-- text&#45;&gt;assert -->
<g id="edge41" class="edge">
<title>text&#45;&gt;assert</title>
<path fill="none" stroke="black" d="M971.99,-271.42C959.65,-255.36 940.68,-230.68 924.32,-209.4"/>
<polygon fill="black" stroke="black" points="927.07,-207.23 918.2,-201.43 921.52,-211.49 927.07,-207.23"/>
</g>
<!-- ulid -->
<g id="node38" class="node">
<title>ulid</title>
<polygon fill="pink" stroke="black" points="2117.12,-676.5 2063.12,-676.5 2063.12,-640.5 2117.12,-640.5 2117.12,-676.5"/>
<text text-anchor="middle" x="2090.12" y="-654.3" font-family="Times,serif" font-size="14.00">ulid</text>
</g>
<!-- url -->
<g id="node39" class="node">
<title>url</title>
<polygon fill="pink" stroke="black" points="90.12,-307.5 36.12,-307.5 36.12,-271.5 90.12,-271.5 90.12,-307.5"/>
<text text-anchor="middle" x="63.12" y="-285.3" font-family="Times,serif" font-size="14.00">url</text>
</g>
<!-- url&#45;&gt;path -->
<g id="edge43" class="edge">
<title>url&#45;&gt;path</title>
<path fill="none" stroke="black" d="M72.3,-271.42C80.28,-256.56 92.22,-234.32 103.02,-214.22"/>
<polygon fill="black" stroke="black" points="106.23,-215.64 107.88,-205.17 100.07,-212.33 106.23,-215.64"/>
</g>
<!-- uuid -->
<g id="node40" class="node">
<title>uuid</title>
<ellipse fill="none" stroke="black" cx="1422.12" cy="-289.5" rx="39.5" ry="39.5"/>
<ellipse fill="none" stroke="black" cx="1422.12" cy="-289.5" rx="43.5" ry="43.5"/>
<text text-anchor="middle" x="1422.12" y="-285.3" font-family="Times,serif" font-size="14.00">uuid</text>
</g>
<!-- uuid&#45;&gt;bytes -->
<g id="edge44" class="edge">
<title>uuid&#45;&gt;bytes</title>
<path fill="none" stroke="black" d="M1392.09,-257.97C1376.45,-242.06 1357.17,-222.46 1340.56,-205.57"/>
<polygon fill="black" stroke="black" points="1342.65,-202.7 1333.14,-198.02 1337.66,-207.61 1342.65,-202.7"/>
</g>
<!-- uuid&#45;&gt;crypto -->
<g id="edge45" class="edge">
<title>uuid&#45;&gt;crypto</title>
<path fill="none" stroke="black" d="M1422.12,-245.84C1422.12,-237.62 1422.12,-228.91 1422.12,-220.41"/>
<polygon fill="black" stroke="black" points="1425.62,-220.18 1422.12,-210.18 1418.62,-220.18 1425.62,-220.18"/>
</g>
<!-- webgpu -->
<g id="node41" class="node">
<title>webgpu</title>
<polygon fill="pink" stroke="black" points="1090.44,-307.5 1029.8,-307.5 1029.8,-271.5 1090.44,-271.5 1090.44,-307.5"/>
<text text-anchor="middle" x="1060.12" y="-285.3" font-family="Times,serif" font-size="14.00">webgpu</text>
</g>
<!-- webgpu&#45;&gt;assert -->
<g id="edge46" class="edge">
<title>webgpu&#45;&gt;assert</title>
<path fill="none" stroke="black" d="M1046.3,-271.3C1039.25,-263.11 1030.25,-253.5 1021.12,-246 996.04,-225.4 965.05,-206.37 939.73,-192.2"/>
<polygon fill="black" stroke="black" points="941.13,-188.98 930.68,-187.21 937.74,-195.11 941.13,-188.98"/>
</g>
</g>
</svg>
