<?xml version="1.0" encoding="UTF-8" standalone="no"?>
<!DOCTYPE svg PUBLIC "-//W3C//DTD SVG 1.1//EN"
 "http://www.w3.org/Graphics/SVG/1.1/DTD/svg11.dtd">
<!-- Generated by graphviz version 2.44.0 (20200518.1210)
 -->
<!-- Title: std_deps Pages: 1 -->
<svg width="2078pt" height="620pt"
 viewBox="0.00 0.00 2078.02 620.00" xmlns="http://www.w3.org/2000/svg" xmlns:xlink="http://www.w3.org/1999/xlink">
<g id="graph0" class="graph" transform="scale(1 1) rotate(0) translate(4 616)">
<title>std_deps</title>
<polygon fill="white" stroke="transparent" points="-4,4 -4,-616 2074.02,-616 2074.02,4 -4,4"/>
<!-- archive -->
<g id="node1" class="node">
<title>archive</title>
<ellipse fill="none" stroke="black" cx="1044.02" cy="-360" rx="36" ry="36"/>
<text text-anchor="middle" x="1044.02" y="-355.8" font-family="Times,serif" font-size="14.00">archive</text>
</g>
<!-- io -->
<g id="node2" class="node">
<title>io</title>
<ellipse fill="none" stroke="black" cx="1108.02" cy="-252" rx="36" ry="36"/>
<text text-anchor="middle" x="1108.02" y="-247.8" font-family="Times,serif" font-size="14.00">io</text>
</g>
<!-- archive&#45;&gt;io -->
<g id="edge1" class="edge">
<title>archive&#45;&gt;io</title>
<path fill="none" stroke="black" d="M1062.19,-328.91C1069.14,-317.38 1077.18,-304.07 1084.57,-291.84"/>
<polygon fill="black" stroke="black" points="1087.63,-293.54 1089.8,-283.17 1081.64,-289.92 1087.63,-293.54"/>
</g>
<!-- assert -->
<g id="node3" class="node">
<title>assert</title>
<ellipse fill="lightgreen" stroke="black" cx="826.02" cy="-144" rx="36" ry="36"/>
<text text-anchor="middle" x="826.02" y="-139.8" font-family="Times,serif" font-size="14.00">assert</text>
</g>
<!-- archive&#45;&gt;assert -->
<g id="edge2" class="edge">
<title>archive&#45;&gt;assert</title>
<path fill="none" stroke="black" d="M1048.86,-324.19C1051.26,-292.54 1049.51,-246.28 1025.02,-216 987.81,-170 918.49,-153.78 872.29,-148.07"/>
<polygon fill="black" stroke="black" points="872.55,-144.58 862.23,-146.95 871.78,-151.54 872.55,-144.58"/>
</g>
<!-- io&#45;&gt;assert -->
<g id="edge20" class="edge">
<title>io&#45;&gt;assert</title>
<path fill="none" stroke="black" d="M1080.15,-229.21C1073.18,-224.41 1065.54,-219.67 1058.02,-216 996.17,-185.83 918.77,-165.25 870.86,-154.31"/>
<polygon fill="black" stroke="black" points="871.62,-150.89 861.1,-152.12 870.09,-157.72 871.62,-150.89"/>
</g>
<!-- bytes -->
<g id="node6" class="node">
<title>bytes</title>
<ellipse fill="lightgreen" stroke="black" cx="1242.02" cy="-144" rx="36" ry="36"/>
<text text-anchor="middle" x="1242.02" y="-139.8" font-family="Times,serif" font-size="14.00">bytes</text>
</g>
<!-- io&#45;&gt;bytes -->
<g id="edge21" class="edge">
<title>io&#45;&gt;bytes</title>
<path fill="none" stroke="black" d="M1135.78,-229.04C1156.04,-213.01 1183.68,-191.15 1205.69,-173.73"/>
<polygon fill="black" stroke="black" points="1208.16,-176.25 1213.83,-167.3 1203.81,-170.76 1208.16,-176.25"/>
</g>
<!-- internal -->
<g id="node4" class="node">
<title>internal</title>
<ellipse fill="lightgreen" stroke="black" cx="558.02" cy="-36" rx="36" ry="36"/>
<text text-anchor="middle" x="558.02" y="-31.8" font-family="Times,serif" font-size="14.00">internal</text>
</g>
<!-- assert&#45;&gt;internal -->
<g id="edge3" class="edge">
<title>assert&#45;&gt;internal</title>
<path fill="none" stroke="black" d="M792.89,-129.9C744.5,-110.76 654.47,-75.15 601.03,-54.01"/>
<polygon fill="black" stroke="black" points="602.08,-50.66 591.49,-50.24 599.51,-57.17 602.08,-50.66"/>
</g>
<!-- async -->
<g id="node5" class="node">
<title>async</title>
<ellipse fill="none" stroke="black" cx="56.02" cy="-252" rx="36" ry="36"/>
<text text-anchor="middle" x="56.02" y="-247.8" font-family="Times,serif" font-size="14.00">async</text>
</g>
<!-- cli -->
<g id="node7" class="node">
<title>cli</title>
<ellipse fill="none" stroke="black" cx="634.02" cy="-360" rx="36" ry="36"/>
<text text-anchor="middle" x="634.02" y="-355.8" font-family="Times,serif" font-size="14.00">cli</text>
</g>
<!-- collections -->
<g id="node8" class="node">
<title>collections</title>
<ellipse fill="lightgreen" stroke="black" cx="1224.02" cy="-360" rx="36" ry="36"/>
<text text-anchor="middle" x="1224.02" y="-355.8" font-family="Times,serif" font-size="14.00">collections</text>
</g>
<!-- crypto -->
<g id="node9" class="node">
<title>crypto</title>
<ellipse fill="lightgreen" stroke="black" cx="1364.02" cy="-144" rx="36" ry="36"/>
<text text-anchor="middle" x="1364.02" y="-139.8" font-family="Times,serif" font-size="14.00">crypto</text>
</g>
<!-- csv -->
<g id="node10" class="node">
<title>csv</title>
<ellipse fill="none" stroke="black" cx="935.02" cy="-468" rx="36" ry="36"/>
<text text-anchor="middle" x="935.02" y="-463.8" font-family="Times,serif" font-size="14.00">csv</text>
</g>
<!-- csv&#45;&gt;assert -->
<g id="edge4" class="edge">
<title>csv&#45;&gt;assert</title>
<path fill="none" stroke="black" d="M916.15,-437.27C895.21,-402.77 862.13,-343.51 845.02,-288 835.2,-256.13 830.45,-218.73 828.16,-190.17"/>
<polygon fill="black" stroke="black" points="831.64,-189.8 827.42,-180.08 824.66,-190.31 831.64,-189.8"/>
</g>
<!-- streams -->
<g id="node11" class="node">
<title>streams</title>
<ellipse fill="none" stroke="black" cx="1134.02" cy="-360" rx="36" ry="36"/>
<text text-anchor="middle" x="1134.02" y="-355.8" font-family="Times,serif" font-size="14.00">streams</text>
</g>
<!-- csv&#45;&gt;streams -->
<g id="edge5" class="edge">
<title>csv&#45;&gt;streams</title>
<path fill="none" stroke="black" d="M968.58,-454.14C1000.55,-441.28 1049.53,-420.02 1089.02,-396 1092.16,-394.09 1095.34,-391.99 1098.48,-389.81"/>
<polygon fill="black" stroke="black" points="1100.61,-392.59 1106.64,-383.88 1096.5,-386.92 1100.61,-392.59"/>
</g>
<!-- streams&#45;&gt;io -->
<g id="edge31" class="edge">
<title>streams&#45;&gt;io</title>
<path fill="none" stroke="black" d="M1125.65,-324.88C1123.47,-315.99 1121.09,-306.28 1118.8,-296.96"/>
<polygon fill="black" stroke="black" points="1122.15,-295.94 1116.37,-287.06 1115.35,-297.6 1122.15,-295.94"/>
</g>
<!-- streams&#45;&gt;assert -->
<g id="edge29" class="edge">
<title>streams&#45;&gt;assert</title>
<path fill="none" stroke="black" d="M1150.25,-327.8C1164.2,-296.16 1178.4,-247.49 1153.02,-216 1118.23,-172.84 953.59,-154.58 872.03,-148.07"/>
<polygon fill="black" stroke="black" points="872.28,-144.58 862.04,-147.3 871.74,-151.56 872.28,-144.58"/>
</g>
<!-- streams&#45;&gt;bytes -->
<g id="edge30" class="edge">
<title>streams&#45;&gt;bytes</title>
<path fill="none" stroke="black" d="M1156.52,-331.79C1166.4,-319.01 1177.63,-303.26 1186.02,-288 1203.54,-256.13 1218.29,-217.62 1228.25,-188.59"/>
<polygon fill="black" stroke="black" points="1231.69,-189.34 1231.56,-178.75 1225.05,-187.11 1231.69,-189.34"/>
</g>
<!-- data_\nstructures -->
<g id="node12" class="node">
<title>data_\nstructures</title>
<ellipse fill="none" stroke="black" cx="1314.02" cy="-576" rx="36" ry="36"/>
<text text-anchor="middle" x="1314.02" y="-580.2" font-family="Times,serif" font-size="14.00">data_</text>
<text text-anchor="middle" x="1314.02" y="-563.4" font-family="Times,serif" font-size="14.00">structures</text>
</g>
<!-- datetime -->
<g id="node13" class="node">
<title>datetime</title>
<ellipse fill="none" stroke="black" cx="1404.02" cy="-576" rx="36" ry="36"/>
<text text-anchor="middle" x="1404.02" y="-571.8" font-family="Times,serif" font-size="14.00">datetime</text>
</g>
<!-- dotenv -->
<g id="node14" class="node">
<title>dotenv</title>
<ellipse fill="none" stroke="black" cx="1494.02" cy="-576" rx="36" ry="36"/>
<text text-anchor="middle" x="1494.02" y="-571.8" font-family="Times,serif" font-size="14.00">dotenv</text>
</g>
<!-- encoding -->
<g id="node15" class="node">
<title>encoding</title>
<ellipse fill="lightgreen" stroke="black" cx="724.02" cy="-360" rx="36" ry="36"/>
<text text-anchor="middle" x="724.02" y="-355.8" font-family="Times,serif" font-size="14.00">encoding</text>
</g>
<!-- expect -->
<g id="node16" class="node">
<title>expect</title>
<ellipse fill="none" stroke="black" cx="558.02" cy="-252" rx="36" ry="36"/>
<text text-anchor="middle" x="558.02" y="-247.8" font-family="Times,serif" font-size="14.00">expect</text>
</g>
<!-- expect&#45;&gt;assert -->
<g id="edge6" class="edge">
<title>expect&#45;&gt;assert</title>
<path fill="none" stroke="black" d="M586.19,-229.12C593.09,-224.38 600.62,-219.69 608.02,-216 664.97,-187.58 735.83,-166.97 781,-155.49"/>
<polygon fill="black" stroke="black" points="781.94,-158.86 790.79,-153.04 780.24,-152.07 781.94,-158.86"/>
</g>
<!-- expect&#45;&gt;internal -->
<g id="edge7" class="edge">
<title>expect&#45;&gt;internal</title>
<path fill="none" stroke="black" d="M558.02,-215.66C558.02,-179.16 558.02,-122.05 558.02,-82.26"/>
<polygon fill="black" stroke="black" points="561.52,-82.03 558.02,-72.03 554.52,-82.03 561.52,-82.03"/>
</g>
<!-- fmt -->
<g id="node17" class="node">
<title>fmt</title>
<ellipse fill="none" stroke="black" cx="686.02" cy="-252" rx="36" ry="36"/>
<text text-anchor="middle" x="686.02" y="-247.8" font-family="Times,serif" font-size="14.00">fmt</text>
</g>
<!-- front_\nmatter -->
<g id="node18" class="node">
<title>front_\nmatter</title>
<ellipse fill="none" stroke="black" cx="1224.02" cy="-576" rx="36" ry="36"/>
<text text-anchor="middle" x="1224.02" y="-580.2" font-family="Times,serif" font-size="14.00">front_</text>
<text text-anchor="middle" x="1224.02" y="-563.4" font-family="Times,serif" font-size="14.00">matter</text>
</g>
<!-- toml -->
<g id="node19" class="node">
<title>toml</title>
<ellipse fill="none" stroke="black" cx="1224.02" cy="-468" rx="36" ry="36"/>
<text text-anchor="middle" x="1224.02" y="-463.8" font-family="Times,serif" font-size="14.00">toml</text>
</g>
<!-- front_\nmatter&#45;&gt;toml -->
<g id="edge8" class="edge">
<title>front_\nmatter&#45;&gt;toml</title>
<path fill="none" stroke="black" d="M1224.02,-540C1224.02,-531.85 1224.02,-523.06 1224.02,-514.54"/>
<polygon fill="black" stroke="black" points="1227.52,-514.33 1224.02,-504.33 1220.52,-514.33 1227.52,-514.33"/>
</g>
<!-- yaml -->
<g id="node20" class="node">
<title>yaml</title>
<ellipse fill="none" stroke="black" cx="1314.02" cy="-468" rx="36" ry="36"/>
<text text-anchor="middle" x="1314.02" y="-463.8" font-family="Times,serif" font-size="14.00">yaml</text>
</g>
<!-- front_\nmatter&#45;&gt;yaml -->
<g id="edge9" class="edge">
<title>front_\nmatter&#45;&gt;yaml</title>
<path fill="none" stroke="black" d="M1246.96,-547.98C1258.39,-534.52 1272.33,-518.1 1284.54,-503.72"/>
<polygon fill="black" stroke="black" points="1287.31,-505.86 1291.12,-495.97 1281.98,-501.33 1287.31,-505.86"/>
</g>
<!-- toml&#45;&gt;collections -->
<g id="edge40" class="edge">
<title>toml&#45;&gt;collections</title>
<path fill="none" stroke="black" d="M1224.02,-432C1224.02,-423.85 1224.02,-415.06 1224.02,-406.54"/>
<polygon fill="black" stroke="black" points="1227.52,-406.33 1224.02,-396.33 1220.52,-406.33 1227.52,-406.33"/>
</g>
<!-- fs -->
<g id="node21" class="node">
<title>fs</title>
<ellipse fill="none" stroke="black" cx="468.02" cy="-252" rx="36" ry="36"/>
<text text-anchor="middle" x="468.02" y="-247.8" font-family="Times,serif" font-size="14.00">fs</text>
</g>
<!-- path -->
<g id="node22" class="node">
<title>path</title>
<ellipse fill="lightgreen" stroke="black" cx="216.02" cy="-144" rx="36" ry="36"/>
<text text-anchor="middle" x="216.02" y="-139.8" font-family="Times,serif" font-size="14.00">path</text>
</g>
<!-- fs&#45;&gt;path -->
<g id="edge10" class="edge">
<title>fs&#45;&gt;path</title>
<path fill="none" stroke="black" d="M440.92,-227.64C435.24,-223.41 429.11,-219.3 423.02,-216 370.42,-187.56 304.26,-167.25 261.09,-155.83"/>
<polygon fill="black" stroke="black" points="261.73,-152.38 251.17,-153.25 259.97,-159.15 261.73,-152.38"/>
</g>
<!-- html -->
<g id="node23" class="node">
<title>html</title>
<ellipse fill="lightgreen" stroke="black" cx="1584.02" cy="-576" rx="36" ry="36"/>
<text text-anchor="middle" x="1584.02" y="-571.8" font-family="Times,serif" font-size="14.00">html</text>
</g>
<!-- http -->
<g id="node24" class="node">
<title>http</title>
<ellipse fill="none" stroke="black" cx="454.02" cy="-468" rx="36" ry="36"/>
<text text-anchor="middle" x="454.02" y="-463.8" font-family="Times,serif" font-size="14.00">http</text>
</g>
<!-- http&#45;&gt;assert -->
<g id="edge11" class="edge">
<title>http&#45;&gt;assert</title>
<path fill="none" stroke="black" d="M489.99,-463.67C564.05,-456.08 729.89,-435.06 769.02,-396 797.55,-367.51 814.18,-254.47 821.51,-190.23"/>
<polygon fill="black" stroke="black" points="825.02,-190.31 822.65,-179.98 818.07,-189.53 825.02,-190.31"/>
</g>
<!-- http&#45;&gt;async -->
<g id="edge13" class="edge">
<title>http&#45;&gt;async</title>
<path fill="none" stroke="black" d="M417.73,-467.52C355.62,-466.62 227.49,-456.86 143.02,-396 108.47,-371.11 84.97,-327.86 71.18,-295.42"/>
<polygon fill="black" stroke="black" points="74.42,-294.09 67.39,-286.16 67.94,-296.74 74.42,-294.09"/>
</g>
<!-- http&#45;&gt;cli -->
<g id="edge17" class="edge">
<title>http&#45;&gt;cli</title>
<path fill="none" stroke="black" d="M486.56,-451.9C514.48,-438.47 555.41,-417.67 589.02,-396 592.11,-394.01 595.26,-391.85 598.37,-389.63"/>
<polygon fill="black" stroke="black" points="600.52,-392.39 606.49,-383.64 596.37,-386.76 600.52,-392.39"/>
</g>
<!-- http&#45;&gt;streams -->
<g id="edge16" class="edge">
<title>http&#45;&gt;streams</title>
<path fill="none" stroke="black" d="M489.86,-464.14C615.77,-453.92 1033.27,-418.67 1089.02,-396 1092.52,-394.57 1095.99,-392.79 1099.34,-390.79"/>
<polygon fill="black" stroke="black" points="1101.53,-393.54 1107.92,-385.09 1097.66,-387.71 1101.53,-393.54"/>
</g>
<!-- http&#45;&gt;encoding -->
<g id="edge12" class="edge">
<title>http&#45;&gt;encoding</title>
<path fill="none" stroke="black" d="M489.45,-459.92C535.11,-449.9 616.09,-429.03 679.02,-396 682.28,-394.29 685.54,-392.34 688.73,-390.25"/>
<polygon fill="black" stroke="black" points="690.79,-393.08 696.99,-384.48 686.78,-387.34 690.79,-393.08"/>
</g>
<!-- http&#45;&gt;fmt -->
<g id="edge18" class="edge">
<title>http&#45;&gt;fmt</title>
<path fill="none" stroke="black" d="M418.16,-464.66C374.94,-459.7 304.03,-444.22 271.02,-396 252.94,-369.6 249.53,-347.71 271.02,-324 325.75,-263.61 559.58,-316.29 636.02,-288 640.86,-286.21 645.67,-283.83 650.29,-281.15"/>
<polygon fill="black" stroke="black" points="652.31,-284.02 658.89,-275.71 648.56,-278.1 652.31,-284.02"/>
</g>
<!-- http&#45;&gt;path -->
<g id="edge14" class="edge">
<title>http&#45;&gt;path</title>
<path fill="none" stroke="black" d="M418.22,-463.68C336.31,-455.54 138.07,-432.54 83.02,-396 34.95,-364.1 27.73,-343.21 11.02,-288 1.74,-257.37 -7.54,-242.07 11.02,-216 46.84,-165.69 120.87,-150.7 169.47,-146.42"/>
<polygon fill="black" stroke="black" points="170.03,-149.89 179.73,-145.65 169.5,-142.91 170.03,-149.89"/>
</g>
<!-- media_types -->
<g id="node25" class="node">
<title>media_types</title>
<ellipse fill="none" stroke="black" cx="340.02" cy="-360" rx="59.69" ry="18"/>
<text text-anchor="middle" x="340.02" y="-355.8" font-family="Times,serif" font-size="14.00">media_types</text>
</g>
<!-- http&#45;&gt;media_types -->
<g id="edge15" class="edge">
<title>http&#45;&gt;media_types</title>
<path fill="none" stroke="black" d="M428.15,-442.95C409.3,-425.42 383.89,-401.79 365.2,-384.41"/>
<polygon fill="black" stroke="black" points="367.34,-381.63 357.63,-377.38 362.57,-386.75 367.34,-381.63"/>
</g>
<!-- net -->
<g id="node26" class="node">
<title>net</title>
<ellipse fill="none" stroke="black" cx="454.02" cy="-360" rx="36" ry="36"/>
<text text-anchor="middle" x="454.02" y="-355.8" font-family="Times,serif" font-size="14.00">net</text>
</g>
<!-- http&#45;&gt;net -->
<g id="edge19" class="edge">
<title>http&#45;&gt;net</title>
<path fill="none" stroke="black" d="M454.02,-432C454.02,-423.85 454.02,-415.06 454.02,-406.54"/>
<polygon fill="black" stroke="black" points="457.52,-406.33 454.02,-396.33 450.52,-406.33 457.52,-406.33"/>
</g>
<!-- ini -->
<g id="node27" class="node">
<title>ini</title>
<ellipse fill="none" stroke="black" cx="1674.02" cy="-576" rx="36" ry="36"/>
<text text-anchor="middle" x="1674.02" y="-571.8" font-family="Times,serif" font-size="14.00">ini</text>
</g>
<!-- json -->
<g id="node28" class="node">
<title>json</title>
<ellipse fill="none" stroke="black" cx="1134.02" cy="-468" rx="36" ry="36"/>
<text text-anchor="middle" x="1134.02" y="-463.8" font-family="Times,serif" font-size="14.00">json</text>
</g>
<!-- json&#45;&gt;streams -->
<g id="edge22" class="edge">
<title>json&#45;&gt;streams</title>
<path fill="none" stroke="black" d="M1134.02,-432C1134.02,-423.85 1134.02,-415.06 1134.02,-406.54"/>
<polygon fill="black" stroke="black" points="1137.52,-406.33 1134.02,-396.33 1130.52,-406.33 1137.52,-406.33"/>
</g>
<!-- jsonc -->
<g id="node29" class="node">
<title>jsonc</title>
<ellipse fill="none" stroke="black" cx="1134.02" cy="-576" rx="36" ry="36"/>
<text text-anchor="middle" x="1134.02" y="-571.8" font-family="Times,serif" font-size="14.00">jsonc</text>
</g>
<!-- jsonc&#45;&gt;json -->
<g id="edge23" class="edge">
<title>jsonc&#45;&gt;json</title>
<path fill="none" stroke="black" d="M1134.02,-540C1134.02,-531.85 1134.02,-523.06 1134.02,-514.54"/>
<polygon fill="black" stroke="black" points="1137.52,-514.33 1134.02,-504.33 1130.52,-514.33 1137.52,-514.33"/>
</g>
<!-- log -->
<g id="node30" class="node">
<title>log</title>
<ellipse fill="none" stroke="black" cx="544.02" cy="-360" rx="36" ry="36"/>
<text text-anchor="middle" x="544.02" y="-355.8" font-family="Times,serif" font-size="14.00">log</text>
</g>
<!-- log&#45;&gt;io -->
<g id="edge25" class="edge">
<title>log&#45;&gt;io</title>
<path fill="none" stroke="black" d="M570.05,-334.76C575.91,-330.49 582.38,-326.59 589.02,-324 770.18,-253.38 836.19,-334.35 1025.02,-288 1039.07,-284.55 1053.81,-279.02 1066.9,-273.37"/>
<polygon fill="black" stroke="black" points="1068.41,-276.53 1076.11,-269.25 1065.55,-270.14 1068.41,-276.53"/>
</g>
<!-- log&#45;&gt;assert -->
<g id="edge27" class="edge">
<title>log&#45;&gt;assert</title>
<path fill="none" stroke="black" d="M570.91,-335.24C576.61,-331.04 582.79,-327.04 589.02,-324 647.51,-295.41 678.81,-326.9 731.02,-288 760.91,-265.73 753.43,-247.07 774.02,-216 781.62,-204.53 790.3,-192.35 798.37,-181.37"/>
<polygon fill="black" stroke="black" points="801.26,-183.36 804.4,-173.24 795.63,-179.19 801.26,-183.36"/>
</g>
<!-- log&#45;&gt;fmt -->
<g id="edge24" class="edge">
<title>log&#45;&gt;fmt</title>
<path fill="none" stroke="black" d="M572.01,-337.03C577.62,-332.68 583.49,-328.17 589.02,-324 608.49,-309.31 630.4,-293.23 648.46,-280.1"/>
<polygon fill="black" stroke="black" points="650.96,-282.61 656.99,-273.91 646.84,-276.95 650.96,-282.61"/>
</g>
<!-- log&#45;&gt;fs -->
<g id="edge26" class="edge">
<title>log&#45;&gt;fs</title>
<path fill="none" stroke="black" d="M523.45,-330.31C514.58,-317.94 504.09,-303.31 494.64,-290.13"/>
<polygon fill="black" stroke="black" points="497.27,-287.8 488.6,-281.71 491.58,-291.87 497.27,-287.8"/>
</g>
<!-- media_\ntypes -->
<g id="node31" class="node">
<title>media_\ntypes</title>
<ellipse fill="lightgreen" stroke="black" cx="1764.02" cy="-576" rx="36" ry="36"/>
<text text-anchor="middle" x="1764.02" y="-580.2" font-family="Times,serif" font-size="14.00">media_</text>
<text text-anchor="middle" x="1764.02" y="-563.4" font-family="Times,serif" font-size="14.00">types</text>
</g>
<!-- msgpack -->
<g id="node32" class="node">
<title>msgpack</title>
<ellipse fill="none" stroke="black" cx="1274.02" cy="-252" rx="36" ry="36"/>
<text text-anchor="middle" x="1274.02" y="-247.8" font-family="Times,serif" font-size="14.00">msgpack</text>
</g>
<!-- msgpack&#45;&gt;bytes -->
<g id="edge28" class="edge">
<title>msgpack&#45;&gt;bytes</title>
<path fill="none" stroke="black" d="M1263.8,-217.17C1261.06,-208.09 1258.06,-198.13 1255.18,-188.6"/>
<polygon fill="black" stroke="black" points="1258.48,-187.43 1252.24,-178.87 1251.78,-189.46 1258.48,-187.43"/>
</g>
<!-- regexp -->
<g id="node33" class="node">
<title>regexp</title>
<ellipse fill="none" stroke="black" cx="1854.02" cy="-576" rx="36" ry="36"/>
<text text-anchor="middle" x="1854.02" y="-571.8" font-family="Times,serif" font-size="14.00">regexp</text>
</g>
<!-- semver -->
<g id="node34" class="node">
<title>semver</title>
<ellipse fill="none" stroke="black" cx="1944.02" cy="-576" rx="36" ry="36"/>
<text text-anchor="middle" x="1944.02" y="-571.8" font-family="Times,serif" font-size="14.00">semver</text>
</g>
<!-- testing -->
<g id="node35" class="node">
<title>testing</title>
<ellipse fill="none" stroke="black" cx="188.02" cy="-360" rx="36" ry="36"/>
<text text-anchor="middle" x="188.02" y="-355.8" font-family="Times,serif" font-size="14.00">testing</text>
</g>
<!-- testing&#45;&gt;assert -->
<g id="edge32" class="edge">
<title>testing&#45;&gt;assert</title>
<path fill="none" stroke="black" d="M218.01,-339.68C228.67,-333.68 241.01,-327.69 253.02,-324 327.75,-301.03 538.22,-331.75 603.02,-288 633.01,-267.75 613.95,-240.02 641.02,-216 680.75,-180.74 739.86,-162.19 780.51,-153.01"/>
<polygon fill="black" stroke="black" points="781.39,-156.4 790.43,-150.88 779.92,-149.56 781.39,-156.4"/>
</g>
<!-- testing&#45;&gt;internal -->
<g id="edge36" class="edge">
<title>testing&#45;&gt;internal</title>
<path fill="none" stroke="black" d="M164.2,-332.75C154.37,-320.16 144.1,-304.3 139.02,-288 114.85,-210.42 110.58,-162.31 171.02,-108 220.73,-63.32 420.61,-45.46 512,-39.52"/>
<polygon fill="black" stroke="black" points="512.31,-43.01 522.07,-38.89 511.87,-36.03 512.31,-43.01"/>
</g>
<!-- testing&#45;&gt;async -->
<g id="edge38" class="edge">
<title>testing&#45;&gt;async</title>
<path fill="none" stroke="black" d="M160.35,-336.78C140.37,-320.74 113.22,-298.94 91.63,-281.6"/>
<polygon fill="black" stroke="black" points="93.64,-278.72 83.65,-275.19 89.26,-284.18 93.64,-278.72"/>
</g>
<!-- testing&#45;&gt;fmt -->
<g id="edge35" class="edge">
<title>testing&#45;&gt;fmt</title>
<path fill="none" stroke="black" d="M215.13,-336.24C222.19,-331.42 230.06,-326.91 238.02,-324 404.83,-263.02 469.2,-348.98 636.02,-288 640.87,-286.23 645.69,-283.86 650.31,-281.19"/>
<polygon fill="black" stroke="black" points="652.32,-284.06 658.9,-275.76 648.58,-278.14 652.32,-284.06"/>
</g>
<!-- testing&#45;&gt;fs -->
<g id="edge34" class="edge">
<title>testing&#45;&gt;fs</title>
<path fill="none" stroke="black" d="M215.62,-336.63C222.6,-331.86 230.31,-327.27 238.02,-324 315.12,-291.27 346.76,-322.66 423.02,-288 426.46,-286.43 429.88,-284.55 433.21,-282.49"/>
<polygon fill="black" stroke="black" points="435.45,-285.2 441.75,-276.68 431.51,-279.41 435.45,-285.2"/>
</g>
<!-- testing&#45;&gt;path -->
<g id="edge33" class="edge">
<title>testing&#45;&gt;path</title>
<path fill="none" stroke="black" d="M209.08,-330.48C216.97,-318.08 225,-302.99 229.02,-288 237.72,-255.51 233.64,-217.54 227.83,-188.9"/>
<polygon fill="black" stroke="black" points="231.18,-187.82 225.63,-178.79 224.34,-189.31 231.18,-187.82"/>
</g>
<!-- data_structures -->
<g id="node36" class="node">
<title>data_structures</title>
<ellipse fill="none" stroke="black" cx="345.02" cy="-252" rx="69.48" ry="18"/>
<text text-anchor="middle" x="345.02" y="-247.8" font-family="Times,serif" font-size="14.00">data_structures</text>
</g>
<!-- testing&#45;&gt;data_structures -->
<g id="edge37" class="edge">
<title>testing&#45;&gt;data_structures</title>
<path fill="none" stroke="black" d="M217.02,-338.52C223.88,-333.72 231.19,-328.65 238.02,-324 262.79,-307.11 291.06,-288.38 312.32,-274.39"/>
<polygon fill="black" stroke="black" points="314.24,-277.32 320.68,-268.9 310.4,-271.47 314.24,-277.32"/>
</g>
<!-- text -->
<g id="node37" class="node">
<title>text</title>
<ellipse fill="none" stroke="black" cx="890.02" cy="-252" rx="36" ry="36"/>
<text text-anchor="middle" x="890.02" y="-247.8" font-family="Times,serif" font-size="14.00">text</text>
</g>
<!-- text&#45;&gt;assert -->
<g id="edge39" class="edge">
<title>text&#45;&gt;assert</title>
<path fill="none" stroke="black" d="M871.85,-220.91C864.89,-209.38 856.85,-196.07 849.47,-183.84"/>
<polygon fill="black" stroke="black" points="852.4,-181.92 844.23,-175.17 846.4,-185.54 852.4,-181.92"/>
</g>
<!-- ulid -->
<g id="node38" class="node">
<title>ulid</title>
<ellipse fill="none" stroke="black" cx="2034.02" cy="-576" rx="36" ry="36"/>
<text text-anchor="middle" x="2034.02" y="-571.8" font-family="Times,serif" font-size="14.00">ulid</text>
</g>
<!-- url -->
<g id="node39" class="node">
<title>url</title>
<ellipse fill="none" stroke="black" cx="184.02" cy="-252" rx="36" ry="36"/>
<text text-anchor="middle" x="184.02" y="-247.8" font-family="Times,serif" font-size="14.00">url</text>
</g>
<!-- url&#45;&gt;path -->
<g id="edge41" class="edge">
<title>url&#45;&gt;path</title>
<path fill="none" stroke="black" d="M194.23,-217.17C196.97,-208.09 199.98,-198.13 202.85,-188.6"/>
<polygon fill="black" stroke="black" points="206.25,-189.46 205.79,-178.87 199.55,-187.43 206.25,-189.46"/>
</g>
<!-- uuid -->
<g id="node40" class="node">
<title>uuid</title>
<ellipse fill="lightgreen" stroke="black" cx="1364.02" cy="-252" rx="36" ry="36"/>
<text text-anchor="middle" x="1364.02" y="-247.8" font-family="Times,serif" font-size="14.00">uuid</text>
</g>
<!-- uuid&#45;&gt;bytes -->
<g id="edge42" class="edge">
<title>uuid&#45;&gt;bytes</title>
<path fill="none" stroke="black" d="M1337.24,-227.74C1319.37,-212.2 1295.69,-191.63 1276.42,-174.89"/>
<polygon fill="black" stroke="black" points="1278.57,-172.12 1268.73,-168.21 1273.98,-177.41 1278.57,-172.12"/>
</g>
<!-- uuid&#45;&gt;crypto -->
<g id="edge43" class="edge">
<title>uuid&#45;&gt;crypto</title>
<path fill="none" stroke="black" d="M1364.02,-216C1364.02,-207.85 1364.02,-199.06 1364.02,-190.54"/>
<polygon fill="black" stroke="black" points="1367.52,-190.33 1364.02,-180.33 1360.52,-190.33 1367.52,-190.33"/>
</g>
<!-- webgpu -->
<g id="node41" class="node">
<title>webgpu</title>
<ellipse fill="none" stroke="black" cx="980.02" cy="-252" rx="36" ry="36"/>
<text text-anchor="middle" x="980.02" y="-247.8" font-family="Times,serif" font-size="14.00">webgpu</text>
</g>
<!-- webgpu&#45;&gt;assert -->
<g id="edge44" class="edge">
<title>webgpu&#45;&gt;assert</title>
<path fill="none" stroke="black" d="M952.21,-228.79C946.58,-224.46 940.66,-220.02 935.02,-216 912.33,-199.83 886.19,-182.75 865.2,-169.4"/>
<polygon fill="black" stroke="black" points="866.87,-166.31 856.54,-163.92 863.12,-172.23 866.87,-166.31"/>
</g>
</g>
</svg>
