<?xml version="1.0" encoding="UTF-8" standalone="no"?>
<!DOCTYPE svg PUBLIC "-//W3C//DTD SVG 1.1//EN"
 "http://www.w3.org/Graphics/SVG/1.1/DTD/svg11.dtd">
<!-- Generated by graphviz version 2.44.0 (20200518.1210)
 -->
<!-- Title: std_deps Pages: 1 -->
<svg width="2128pt" height="710pt"
 viewBox="0.00 0.00 2127.53 710.00" xmlns="http://www.w3.org/2000/svg" xmlns:xlink="http://www.w3.org/1999/xlink">
<g id="graph0" class="graph" transform="scale(1 1) rotate(0) translate(4 706)">
<title>std_deps</title>
<polygon fill="white" stroke="transparent" points="-4,4 -4,-706 2123.53,-706 2123.53,4 -4,4"/>
<!-- archive -->
<g id="node1" class="node">
<title>archive</title>
<polygon fill="pink" stroke="black" points="997.22,-430.5 939.83,-430.5 939.83,-394.5 997.22,-394.5 997.22,-430.5"/>
<text text-anchor="middle" x="968.53" y="-408.3" font-family="Times,serif" font-size="14.00">archive</text>
</g>
<!-- io -->
<g id="node2" class="node">
<title>io</title>
<polygon fill="pink" stroke="black" points="1036.53,-307.5 982.53,-307.5 982.53,-271.5 1036.53,-271.5 1036.53,-307.5"/>
<text text-anchor="middle" x="1009.53" y="-285.3" font-family="Times,serif" font-size="14.00">io</text>
</g>
<!-- archive&#45;&gt;io -->
<g id="edge1" class="edge">
<title>archive&#45;&gt;io</title>
<path fill="none" stroke="black" d="M974.32,-394.42C981.08,-374.45 992.38,-341.12 1000.34,-317.61"/>
<polygon fill="black" stroke="black" points="1003.74,-318.48 1003.64,-307.88 997.11,-316.23 1003.74,-318.48"/>
</g>
<!-- assert -->
<g id="node3" class="node">
<title>assert</title>
<ellipse fill="none" stroke="black" cx="819.53" cy="-166.5" rx="39.5" ry="39.5"/>
<ellipse fill="none" stroke="black" cx="819.53" cy="-166.5" rx="43.5" ry="43.5"/>
<text text-anchor="middle" x="819.53" y="-162.3" font-family="Times,serif" font-size="14.00">assert</text>
</g>
<!-- archive&#45;&gt;assert -->
<g id="edge2" class="edge">
<title>archive&#45;&gt;assert</title>
<path fill="none" stroke="black" d="M949.33,-394.2C933.45,-379.16 911.06,-356.2 895.53,-333 882.07,-312.89 857.53,-257.65 839.98,-216.49"/>
<polygon fill="black" stroke="black" points="843.14,-214.99 836.01,-207.15 836.7,-217.72 843.14,-214.99"/>
</g>
<!-- io&#45;&gt;assert -->
<g id="edge21" class="edge">
<title>io&#45;&gt;assert</title>
<path fill="none" stroke="black" d="M997.55,-271.36C991.11,-262.99 982.63,-253.2 973.53,-246 941.97,-221.01 901.21,-200.66 869.55,-186.95"/>
<polygon fill="black" stroke="black" points="870.61,-183.59 860.04,-182.9 867.87,-190.04 870.61,-183.59"/>
</g>
<!-- bytes -->
<g id="node6" class="node">
<title>bytes</title>
<ellipse fill="none" stroke="black" cx="1177.53" cy="-166.5" rx="39.5" ry="39.5"/>
<ellipse fill="none" stroke="black" cx="1177.53" cy="-166.5" rx="43.5" ry="43.5"/>
<text text-anchor="middle" x="1177.53" y="-162.3" font-family="Times,serif" font-size="14.00">bytes</text>
</g>
<!-- io&#45;&gt;bytes -->
<g id="edge22" class="edge">
<title>io&#45;&gt;bytes</title>
<path fill="none" stroke="black" d="M1033.24,-271.42C1059.4,-252.58 1102.03,-221.88 1134.19,-198.72"/>
<polygon fill="black" stroke="black" points="1136.47,-201.39 1142.54,-192.7 1132.38,-195.71 1136.47,-201.39"/>
</g>
<!-- internal -->
<g id="node4" class="node">
<title>internal</title>
<ellipse fill="none" stroke="black" cx="419.53" cy="-43.5" rx="39.5" ry="39.5"/>
<ellipse fill="none" stroke="black" cx="419.53" cy="-43.5" rx="43.5" ry="43.5"/>
<text text-anchor="middle" x="419.53" y="-39.3" font-family="Times,serif" font-size="14.00">internal</text>
</g>
<!-- assert&#45;&gt;internal -->
<g id="edge3" class="edge">
<title>assert&#45;&gt;internal</title>
<path fill="none" stroke="black" d="M777.85,-152.89C704.17,-130.6 551.11,-84.3 470.98,-60.06"/>
<polygon fill="black" stroke="black" points="471.7,-56.62 461.11,-57.08 469.67,-63.32 471.7,-56.62"/>
</g>
<!-- async -->
<g id="node5" class="node">
<title>async</title>
<ellipse fill="none" stroke="black" cx="690.53" cy="-289.5" rx="39.5" ry="39.5"/>
<ellipse fill="none" stroke="black" cx="690.53" cy="-289.5" rx="43.5" ry="43.5"/>
<text text-anchor="middle" x="690.53" y="-285.3" font-family="Times,serif" font-size="14.00">async</text>
</g>
<!-- cli -->
<g id="node7" class="node">
<title>cli</title>
<polygon fill="pink" stroke="black" points="844.53,-430.5 790.53,-430.5 790.53,-394.5 844.53,-394.5 844.53,-430.5"/>
<text text-anchor="middle" x="817.53" y="-408.3" font-family="Times,serif" font-size="14.00">cli</text>
</g>
<!-- cli&#45;&gt;assert -->
<g id="edge4" class="edge">
<title>cli&#45;&gt;assert</title>
<path fill="none" stroke="black" d="M817.67,-394.34C817.96,-358.78 818.64,-275.74 819.09,-220.61"/>
<polygon fill="black" stroke="black" points="822.6,-220.35 819.18,-210.32 815.6,-220.29 822.6,-220.35"/>
</g>
<!-- collections -->
<g id="node8" class="node">
<title>collections</title>
<ellipse fill="none" stroke="black" cx="1241.53" cy="-412.5" rx="39.5" ry="39.5"/>
<ellipse fill="none" stroke="black" cx="1241.53" cy="-412.5" rx="43.5" ry="43.5"/>
<text text-anchor="middle" x="1241.53" y="-408.3" font-family="Times,serif" font-size="14.00">collections</text>
</g>
<!-- crypto -->
<g id="node9" class="node">
<title>crypto</title>
<ellipse fill="none" stroke="black" cx="1296.53" cy="-166.5" rx="39.5" ry="39.5"/>
<ellipse fill="none" stroke="black" cx="1296.53" cy="-166.5" rx="43.5" ry="43.5"/>
<text text-anchor="middle" x="1296.53" y="-162.3" font-family="Times,serif" font-size="14.00">crypto</text>
</g>
<!-- csv -->
<g id="node10" class="node">
<title>csv</title>
<ellipse fill="none" stroke="black" cx="1031.53" cy="-535.5" rx="39.5" ry="39.5"/>
<ellipse fill="none" stroke="black" cx="1031.53" cy="-535.5" rx="43.5" ry="43.5"/>
<text text-anchor="middle" x="1031.53" y="-531.3" font-family="Times,serif" font-size="14.00">csv</text>
</g>
<!-- csv&#45;&gt;assert -->
<g id="edge5" class="edge">
<title>csv&#45;&gt;assert</title>
<path fill="none" stroke="black" d="M1047.62,-494.76C1069.03,-434.81 1098.43,-320.37 1045.53,-246 1006.63,-191.31 926.8,-174.38 873.2,-169.34"/>
<polygon fill="black" stroke="black" points="873.44,-165.85 863.18,-168.5 872.86,-172.82 873.44,-165.85"/>
</g>
<!-- streams -->
<g id="node11" class="node">
<title>streams</title>
<ellipse fill="none" stroke="black" cx="1136.53" cy="-412.5" rx="39.5" ry="39.5"/>
<ellipse fill="none" stroke="black" cx="1136.53" cy="-412.5" rx="43.5" ry="43.5"/>
<text text-anchor="middle" x="1136.53" y="-408.3" font-family="Times,serif" font-size="14.00">streams</text>
</g>
<!-- csv&#45;&gt;streams -->
<g id="edge6" class="edge">
<title>csv&#45;&gt;streams</title>
<path fill="none" stroke="black" d="M1059.67,-502.07C1072.5,-487.29 1087.82,-469.63 1101.4,-453.99"/>
<polygon fill="black" stroke="black" points="1104.4,-455.86 1108.31,-446.02 1099.12,-451.27 1104.4,-455.86"/>
</g>
<!-- streams&#45;&gt;io -->
<g id="edge33" class="edge">
<title>streams&#45;&gt;io</title>
<path fill="none" stroke="black" d="M1105.46,-381.9C1083.84,-361.3 1055.37,-334.17 1035.07,-314.84"/>
<polygon fill="black" stroke="black" points="1037.38,-312.2 1027.72,-307.83 1032.55,-317.27 1037.38,-312.2"/>
</g>
<!-- streams&#45;&gt;assert -->
<g id="edge31" class="edge">
<title>streams&#45;&gt;assert</title>
<path fill="none" stroke="black" d="M1126.53,-369.83C1115.4,-326.72 1096.61,-263.32 1078.53,-246 1022.52,-192.34 931.04,-175.24 873.13,-169.87"/>
<polygon fill="black" stroke="black" points="873.34,-166.37 863.08,-169.02 872.75,-173.35 873.34,-166.37"/>
</g>
<!-- streams&#45;&gt;bytes -->
<g id="edge32" class="edge">
<title>streams&#45;&gt;bytes</title>
<path fill="none" stroke="black" d="M1169.57,-384.06C1183.5,-370.35 1198.17,-352.52 1205.53,-333 1219.8,-295.15 1210.36,-249.7 1198.73,-216.01"/>
<polygon fill="black" stroke="black" points="1201.95,-214.6 1195.25,-206.39 1195.37,-216.99 1201.95,-214.6"/>
</g>
<!-- data_\nstructures -->
<g id="node12" class="node">
<title>data_\nstructures</title>
<polygon fill="pink" stroke="black" points="1425.95,-679.1 1355.11,-679.1 1355.11,-637.9 1425.95,-637.9 1425.95,-679.1"/>
<text text-anchor="middle" x="1390.53" y="-662.7" font-family="Times,serif" font-size="14.00">data_</text>
<text text-anchor="middle" x="1390.53" y="-645.9" font-family="Times,serif" font-size="14.00">structures</text>
</g>
<!-- datetime -->
<g id="node13" class="node">
<title>datetime</title>
<polygon fill="pink" stroke="black" points="1507.74,-676.5 1443.32,-676.5 1443.32,-640.5 1507.74,-640.5 1507.74,-676.5"/>
<text text-anchor="middle" x="1475.53" y="-654.3" font-family="Times,serif" font-size="14.00">datetime</text>
</g>
<!-- dotenv -->
<g id="node14" class="node">
<title>dotenv</title>
<polygon fill="pink" stroke="black" points="1579.63,-676.5 1525.42,-676.5 1525.42,-640.5 1579.63,-640.5 1579.63,-676.5"/>
<text text-anchor="middle" x="1552.53" y="-654.3" font-family="Times,serif" font-size="14.00">dotenv</text>
</g>
<!-- encoding -->
<g id="node15" class="node">
<title>encoding</title>
<ellipse fill="none" stroke="black" cx="690.53" cy="-412.5" rx="39.5" ry="39.5"/>
<ellipse fill="none" stroke="black" cx="690.53" cy="-412.5" rx="43.5" ry="43.5"/>
<text text-anchor="middle" x="690.53" y="-408.3" font-family="Times,serif" font-size="14.00">encoding</text>
</g>
<!-- expect -->
<g id="node16" class="node">
<title>expect</title>
<polygon fill="pink" stroke="black" points="446.53,-307.5 392.53,-307.5 392.53,-271.5 446.53,-271.5 446.53,-307.5"/>
<text text-anchor="middle" x="419.53" y="-285.3" font-family="Times,serif" font-size="14.00">expect</text>
</g>
<!-- expect&#45;&gt;assert -->
<g id="edge7" class="edge">
<title>expect&#45;&gt;assert</title>
<path fill="none" stroke="black" d="M432.14,-271.2C439.46,-262.36 449.43,-252.2 460.53,-246 558.88,-191.08 692.34,-174.57 765.69,-169.62"/>
<polygon fill="black" stroke="black" points="766.31,-173.09 776.07,-168.97 765.87,-166.1 766.31,-173.09"/>
</g>
<!-- expect&#45;&gt;internal -->
<g id="edge8" class="edge">
<title>expect&#45;&gt;internal</title>
<path fill="none" stroke="black" d="M419.53,-271.34C419.53,-235.78 419.53,-152.74 419.53,-97.61"/>
<polygon fill="black" stroke="black" points="423.03,-97.32 419.53,-87.32 416.03,-97.32 423.03,-97.32"/>
</g>
<!-- fmt -->
<g id="node17" class="node">
<title>fmt</title>
<ellipse fill="none" stroke="black" cx="546.53" cy="-289.5" rx="39.5" ry="39.5"/>
<ellipse fill="none" stroke="black" cx="546.53" cy="-289.5" rx="43.5" ry="43.5"/>
<text text-anchor="middle" x="546.53" y="-285.3" font-family="Times,serif" font-size="14.00">fmt</text>
</g>
<!-- front_\nmatter -->
<g id="node18" class="node">
<title>front_\nmatter</title>
<ellipse fill="none" stroke="black" cx="1293.53" cy="-658.5" rx="39.5" ry="39.5"/>
<ellipse fill="none" stroke="black" cx="1293.53" cy="-658.5" rx="43.5" ry="43.5"/>
<text text-anchor="middle" x="1293.53" y="-662.7" font-family="Times,serif" font-size="14.00">front_</text>
<text text-anchor="middle" x="1293.53" y="-645.9" font-family="Times,serif" font-size="14.00">matter</text>
</g>
<!-- toml -->
<g id="node19" class="node">
<title>toml</title>
<ellipse fill="none" stroke="black" cx="1241.53" cy="-535.5" rx="39.5" ry="39.5"/>
<ellipse fill="none" stroke="black" cx="1241.53" cy="-535.5" rx="43.5" ry="43.5"/>
<text text-anchor="middle" x="1241.53" y="-531.3" font-family="Times,serif" font-size="14.00">toml</text>
</g>
<!-- front_\nmatter&#45;&gt;toml -->
<g id="edge9" class="edge">
<title>front_\nmatter&#45;&gt;toml</title>
<path fill="none" stroke="black" d="M1276.65,-618.21C1272.15,-607.75 1267.24,-596.32 1262.55,-585.42"/>
<polygon fill="black" stroke="black" points="1265.67,-583.81 1258.51,-576 1259.24,-586.57 1265.67,-583.81"/>
</g>
<!-- yaml -->
<g id="node20" class="node">
<title>yaml</title>
<ellipse fill="none" stroke="black" cx="1346.53" cy="-535.5" rx="39.5" ry="39.5"/>
<ellipse fill="none" stroke="black" cx="1346.53" cy="-535.5" rx="43.5" ry="43.5"/>
<text text-anchor="middle" x="1346.53" y="-531.3" font-family="Times,serif" font-size="14.00">yaml</text>
</g>
<!-- front_\nmatter&#45;&gt;yaml -->
<g id="edge10" class="edge">
<title>front_\nmatter&#45;&gt;yaml</title>
<path fill="none" stroke="black" d="M1310.74,-618.21C1315.41,-607.54 1320.53,-595.86 1325.4,-584.75"/>
<polygon fill="black" stroke="black" points="1328.6,-586.15 1329.41,-575.59 1322.19,-583.34 1328.6,-586.15"/>
</g>
<!-- toml&#45;&gt;collections -->
<g id="edge41" class="edge">
<title>toml&#45;&gt;collections</title>
<path fill="none" stroke="black" d="M1241.53,-491.84C1241.53,-483.62 1241.53,-474.91 1241.53,-466.41"/>
<polygon fill="black" stroke="black" points="1245.03,-466.18 1241.53,-456.18 1238.03,-466.18 1245.03,-466.18"/>
</g>
<!-- fs -->
<g id="node21" class="node">
<title>fs</title>
<ellipse fill="none" stroke="black" cx="330.53" cy="-289.5" rx="39.5" ry="39.5"/>
<ellipse fill="none" stroke="black" cx="330.53" cy="-289.5" rx="43.5" ry="43.5"/>
<text text-anchor="middle" x="330.53" y="-285.3" font-family="Times,serif" font-size="14.00">fs</text>
</g>
<!-- path -->
<g id="node22" class="node">
<title>path</title>
<ellipse fill="none" stroke="black" cx="74.53" cy="-166.5" rx="39.5" ry="39.5"/>
<ellipse fill="none" stroke="black" cx="74.53" cy="-166.5" rx="43.5" ry="43.5"/>
<text text-anchor="middle" x="74.53" y="-162.3" font-family="Times,serif" font-size="14.00">path</text>
</g>
<!-- fs&#45;&gt;path -->
<g id="edge11" class="edge">
<title>fs&#45;&gt;path</title>
<path fill="none" stroke="black" d="M298.29,-260.1C291.68,-255.02 284.58,-250.06 277.53,-246 228.87,-217.98 168.31,-196.04 126.05,-182.57"/>
<polygon fill="black" stroke="black" points="126.85,-179.15 116.26,-179.49 124.75,-185.82 126.85,-179.15"/>
</g>
<!-- html -->
<g id="node23" class="node">
<title>html</title>
<polygon fill="pink" stroke="black" points="1651.53,-676.5 1597.53,-676.5 1597.53,-640.5 1651.53,-640.5 1651.53,-676.5"/>
<text text-anchor="middle" x="1624.53" y="-654.3" font-family="Times,serif" font-size="14.00">html</text>
</g>
<!-- http -->
<g id="node24" class="node">
<title>http</title>
<polygon fill="pink" stroke="black" points="645.53,-553.5 591.53,-553.5 591.53,-517.5 645.53,-517.5 645.53,-553.5"/>
<text text-anchor="middle" x="618.53" y="-531.3" font-family="Times,serif" font-size="14.00">http</text>
</g>
<!-- http&#45;&gt;assert -->
<g id="edge12" class="edge">
<title>http&#45;&gt;assert</title>
<path fill="none" stroke="black" d="M645.74,-524.31C674.13,-512.28 717.86,-489.57 742.53,-456 770.08,-418.49 796.87,-291.67 810.4,-219.28"/>
<polygon fill="black" stroke="black" points="813.85,-219.91 812.22,-209.44 806.96,-218.64 813.85,-219.91"/>
</g>
<!-- http&#45;&gt;async -->
<g id="edge14" class="edge">
<title>http&#45;&gt;async</title>
<path fill="none" stroke="black" d="M617.87,-517.45C617.24,-486.74 618.48,-420.54 637.53,-369 642.25,-356.22 649.47,-343.48 657.08,-332.11"/>
<polygon fill="black" stroke="black" points="660.1,-333.9 662.93,-323.69 654.35,-329.9 660.1,-333.9"/>
</g>
<!-- http&#45;&gt;cli -->
<g id="edge18" class="edge">
<title>http&#45;&gt;cli</title>
<path fill="none" stroke="black" d="M645.53,-524.41C678.3,-511.44 734.4,-486.86 776.53,-456 783.51,-450.89 790.34,-444.53 796.36,-438.3"/>
<polygon fill="black" stroke="black" points="799.28,-440.3 803.51,-430.58 794.15,-435.54 799.28,-440.3"/>
</g>
<!-- http&#45;&gt;streams -->
<g id="edge17" class="edge">
<title>http&#45;&gt;streams</title>
<path fill="none" stroke="black" d="M645.59,-530.14C709.13,-519.67 872.62,-491.31 1006.53,-456 1033.17,-448.98 1062.36,-439.59 1086.32,-431.43"/>
<polygon fill="black" stroke="black" points="1087.59,-434.69 1095.91,-428.13 1085.31,-428.07 1087.59,-434.69"/>
</g>
<!-- http&#45;&gt;encoding -->
<g id="edge13" class="edge">
<title>http&#45;&gt;encoding</title>
<path fill="none" stroke="black" d="M628.69,-517.42C637.71,-502.27 651.29,-479.44 663.44,-459.03"/>
<polygon fill="black" stroke="black" points="666.61,-460.55 668.71,-450.17 660.59,-456.97 666.61,-460.55"/>
</g>
<!-- http&#45;&gt;fmt -->
<g id="edge19" class="edge">
<title>http&#45;&gt;fmt</title>
<path fill="none" stroke="black" d="M613.47,-517.34C602.83,-481.29 577.8,-396.48 561.54,-341.39"/>
<polygon fill="black" stroke="black" points="564.8,-340.06 558.62,-331.46 558.09,-342.05 564.8,-340.06"/>
</g>
<!-- http&#45;&gt;path -->
<g id="edge15" class="edge">
<title>http&#45;&gt;path</title>
<path fill="none" stroke="black" d="M591.44,-534.1C520,-532.14 321.79,-520.79 173.53,-456 90.69,-419.8 51.72,-413.98 11.53,-333 -5.66,-298.36 -1.3,-282.48 11.53,-246 16.81,-230.99 26.3,-216.73 36.34,-204.58"/>
<polygon fill="black" stroke="black" points="39.08,-206.76 42.98,-196.91 33.79,-202.18 39.08,-206.76"/>
</g>
<!-- media_types -->
<g id="node25" class="node">
<title>media_types</title>
<ellipse fill="none" stroke="black" cx="420.53" cy="-412.5" rx="59.69" ry="18"/>
<text text-anchor="middle" x="420.53" y="-408.3" font-family="Times,serif" font-size="14.00">media_types</text>
</g>
<!-- http&#45;&gt;media_types -->
<g id="edge16" class="edge">
<title>http&#45;&gt;media_types</title>
<path fill="none" stroke="black" d="M591.32,-518C565.2,-502.15 524.63,-477.49 489.53,-456 477.98,-448.93 465.36,-441.17 454.11,-434.23"/>
<polygon fill="black" stroke="black" points="455.77,-431.15 445.42,-428.88 452.1,-437.1 455.77,-431.15"/>
</g>
<!-- net -->
<g id="node26" class="node">
<title>net</title>
<polygon fill="pink" stroke="black" points="552.53,-430.5 498.53,-430.5 498.53,-394.5 552.53,-394.5 552.53,-430.5"/>
<text text-anchor="middle" x="525.53" y="-408.3" font-family="Times,serif" font-size="14.00">net</text>
</g>
<!-- http&#45;&gt;net -->
<g id="edge20" class="edge">
<title>http&#45;&gt;net</title>
<path fill="none" stroke="black" d="M605.4,-517.42C589.71,-497 563.29,-462.62 545.16,-439.04"/>
<polygon fill="black" stroke="black" points="547.76,-436.68 538.89,-430.88 542.21,-440.95 547.76,-436.68"/>
</g>
<!-- ini -->
<g id="node27" class="node">
<title>ini</title>
<polygon fill="pink" stroke="black" points="1723.53,-676.5 1669.53,-676.5 1669.53,-640.5 1723.53,-640.5 1723.53,-676.5"/>
<text text-anchor="middle" x="1696.53" y="-654.3" font-family="Times,serif" font-size="14.00">ini</text>
</g>
<!-- json -->
<g id="node28" class="node">
<title>json</title>
<ellipse fill="none" stroke="black" cx="1136.53" cy="-535.5" rx="39.5" ry="39.5"/>
<ellipse fill="none" stroke="black" cx="1136.53" cy="-535.5" rx="43.5" ry="43.5"/>
<text text-anchor="middle" x="1136.53" y="-531.3" font-family="Times,serif" font-size="14.00">json</text>
</g>
<!-- json&#45;&gt;streams -->
<g id="edge23" class="edge">
<title>json&#45;&gt;streams</title>
<path fill="none" stroke="black" d="M1136.53,-491.84C1136.53,-483.62 1136.53,-474.91 1136.53,-466.41"/>
<polygon fill="black" stroke="black" points="1140.03,-466.18 1136.53,-456.18 1133.03,-466.18 1140.03,-466.18"/>
</g>
<!-- jsonc -->
<g id="node29" class="node">
<title>jsonc</title>
<ellipse fill="none" stroke="black" cx="1004.53" cy="-658.5" rx="39.5" ry="39.5"/>
<ellipse fill="none" stroke="black" cx="1004.53" cy="-658.5" rx="43.5" ry="43.5"/>
<text text-anchor="middle" x="1004.53" y="-654.3" font-family="Times,serif" font-size="14.00">jsonc</text>
</g>
<!-- jsonc&#45;&gt;assert -->
<g id="edge24" class="edge">
<title>jsonc&#45;&gt;assert</title>
<path fill="none" stroke="black" d="M983.43,-620.26C950.81,-561.16 888.16,-441.45 852.53,-333 840.35,-295.92 831.91,-252.61 826.61,-219.6"/>
<polygon fill="black" stroke="black" points="830.07,-219.05 825.07,-209.71 823.15,-220.13 830.07,-219.05"/>
</g>
<!-- jsonc&#45;&gt;json -->
<g id="edge25" class="edge">
<title>jsonc&#45;&gt;json</title>
<path fill="none" stroke="black" d="M1036.15,-628.52C1054.46,-611.73 1077.68,-590.45 1097.17,-572.58"/>
<polygon fill="black" stroke="black" points="1099.71,-575 1104.71,-565.67 1094.98,-569.84 1099.71,-575"/>
</g>
<!-- log -->
<g id="node30" class="node">
<title>log</title>
<polygon fill="pink" stroke="black" points="342.53,-430.5 288.53,-430.5 288.53,-394.5 342.53,-394.5 342.53,-430.5"/>
<text text-anchor="middle" x="315.53" y="-408.3" font-family="Times,serif" font-size="14.00">log</text>
</g>
<!-- log&#45;&gt;io -->
<g id="edge27" class="edge">
<title>log&#45;&gt;io</title>
<path fill="none" stroke="black" d="M325.22,-394.4C331.45,-385.15 340.45,-374.53 351.53,-369 475.41,-307.17 849.65,-394.83 973.53,-333 981.32,-329.11 988.08,-322.71 993.57,-316.03"/>
<polygon fill="black" stroke="black" points="996.68,-317.72 999.84,-307.6 991.06,-313.54 996.68,-317.72"/>
</g>
<!-- log&#45;&gt;assert -->
<g id="edge29" class="edge">
<title>log&#45;&gt;assert</title>
<path fill="none" stroke="black" d="M325.71,-394.32C331.99,-385.3 340.87,-374.91 351.53,-369 448.55,-315.19 510.02,-399.88 598.53,-333 632.34,-307.46 607.35,-275.75 637.53,-246 673.22,-210.81 727.22,-190.25 767.13,-179.07"/>
<polygon fill="black" stroke="black" points="768.21,-182.4 776.96,-176.42 766.39,-175.64 768.21,-182.4"/>
</g>
<!-- log&#45;&gt;fmt -->
<g id="edge26" class="edge">
<title>log&#45;&gt;fmt</title>
<path fill="none" stroke="black" d="M326.28,-394.35C332.62,-385.57 341.39,-375.39 351.53,-369 404.79,-335.43 431.7,-360.08 488.53,-333 494.15,-330.32 499.78,-327.07 505.21,-323.58"/>
<polygon fill="black" stroke="black" points="507.22,-326.44 513.53,-317.93 503.29,-320.65 507.22,-326.44"/>
</g>
<!-- log&#45;&gt;fs -->
<g id="edge28" class="edge">
<title>log&#45;&gt;fs</title>
<path fill="none" stroke="black" d="M317.65,-394.42C319.32,-380.95 321.74,-361.42 324.03,-342.92"/>
<polygon fill="black" stroke="black" points="327.53,-343.14 325.29,-332.79 320.58,-342.28 327.53,-343.14"/>
</g>
<!-- media_\ntypes -->
<g id="node31" class="node">
<title>media_\ntypes</title>
<ellipse fill="none" stroke="black" cx="1785.53" cy="-658.5" rx="39.5" ry="39.5"/>
<ellipse fill="none" stroke="black" cx="1785.53" cy="-658.5" rx="43.5" ry="43.5"/>
<text text-anchor="middle" x="1785.53" y="-662.7" font-family="Times,serif" font-size="14.00">media_</text>
<text text-anchor="middle" x="1785.53" y="-645.9" font-family="Times,serif" font-size="14.00">types</text>
</g>
<!-- msgpack -->
<g id="node32" class="node">
<title>msgpack</title>
<polygon fill="pink" stroke="black" points="1196.29,-307.5 1130.76,-307.5 1130.76,-271.5 1196.29,-271.5 1196.29,-307.5"/>
<text text-anchor="middle" x="1163.53" y="-285.3" font-family="Times,serif" font-size="14.00">msgpack</text>
</g>
<!-- msgpack&#45;&gt;bytes -->
<g id="edge30" class="edge">
<title>msgpack&#45;&gt;bytes</title>
<path fill="none" stroke="black" d="M1165.51,-271.42C1167.06,-257.95 1169.32,-238.42 1171.46,-219.92"/>
<polygon fill="black" stroke="black" points="1174.96,-220.12 1172.64,-209.79 1168.01,-219.32 1174.96,-220.12"/>
</g>
<!-- regexp -->
<g id="node33" class="node">
<title>regexp</title>
<polygon fill="pink" stroke="black" points="1901.62,-676.5 1847.44,-676.5 1847.44,-640.5 1901.62,-640.5 1901.62,-676.5"/>
<text text-anchor="middle" x="1874.53" y="-654.3" font-family="Times,serif" font-size="14.00">regexp</text>
</g>
<!-- semver -->
<g id="node34" class="node">
<title>semver</title>
<polygon fill="pink" stroke="black" points="1975.96,-676.5 1919.1,-676.5 1919.1,-640.5 1975.96,-640.5 1975.96,-676.5"/>
<text text-anchor="middle" x="1947.53" y="-654.3" font-family="Times,serif" font-size="14.00">semver</text>
</g>
<!-- testing -->
<g id="node35" class="node">
<title>testing</title>
<ellipse fill="none" stroke="black" cx="226.53" cy="-412.5" rx="39.5" ry="39.5"/>
<ellipse fill="none" stroke="black" cx="226.53" cy="-412.5" rx="43.5" ry="43.5"/>
<text text-anchor="middle" x="226.53" y="-408.3" font-family="Times,serif" font-size="14.00">testing</text>
</g>
<!-- testing&#45;&gt;assert -->
<g id="edge34" class="edge">
<title>testing&#45;&gt;assert</title>
<path fill="none" stroke="black" d="M257.97,-382.35C264.71,-377.27 272.06,-372.51 279.53,-369 351.81,-335.08 393.47,-383.23 455.53,-333 488.33,-306.46 461.19,-273.11 493.53,-246 534.55,-211.62 684.84,-186.13 766.26,-174.49"/>
<polygon fill="black" stroke="black" points="766.9,-177.94 776.32,-173.08 765.93,-171.01 766.9,-177.94"/>
</g>
<!-- testing&#45;&gt;internal -->
<g id="edge38" class="edge">
<title>testing&#45;&gt;internal</title>
<path fill="none" stroke="black" d="M182.7,-409.57C131.87,-404.71 50.13,-388.19 11.53,-333 -4.57,-309.98 15.15,-130.14 21.53,-123 66.55,-72.55 267.92,-53.62 365.79,-47.31"/>
<polygon fill="black" stroke="black" points="366.3,-50.78 376.06,-46.67 365.86,-43.8 366.3,-50.78"/>
</g>
<!-- testing&#45;&gt;async -->
<g id="edge40" class="edge">
<title>testing&#45;&gt;async</title>
<path fill="none" stroke="black" d="M257.74,-381.82C264.49,-376.78 271.91,-372.17 279.53,-369 411.27,-314.21 461.12,-371.41 598.53,-333 613.68,-328.77 629.47,-322.3 643.61,-315.69"/>
<polygon fill="black" stroke="black" points="645.14,-318.83 652.63,-311.34 642.1,-312.53 645.14,-318.83"/>
</g>
<!-- testing&#45;&gt;fmt -->
<g id="edge37" class="edge">
<title>testing&#45;&gt;fmt</title>
<path fill="none" stroke="black" d="M257.89,-382.17C264.63,-377.1 272,-372.39 279.53,-369 365.47,-330.29 401.77,-369.83 488.53,-333 494.26,-330.57 499.96,-327.47 505.42,-324.06"/>
<polygon fill="black" stroke="black" points="507.4,-326.95 513.78,-318.49 503.52,-321.12 507.4,-326.95"/>
</g>
<!-- testing&#45;&gt;fs -->
<g id="edge36" class="edge">
<title>testing&#45;&gt;fs</title>
<path fill="none" stroke="black" d="M254.4,-379.07C267.11,-364.29 282.28,-346.63 295.73,-330.99"/>
<polygon fill="black" stroke="black" points="298.72,-332.88 302.58,-323.02 293.41,-328.32 298.72,-332.88"/>
</g>
<!-- testing&#45;&gt;path -->
<g id="edge35" class="edge">
<title>testing&#45;&gt;path</title>
<path fill="none" stroke="black" d="M188.22,-391.35C165.74,-377.69 138.5,-357.66 121.53,-333 98.33,-299.3 86.51,-254.28 80.52,-219.7"/>
<polygon fill="black" stroke="black" points="83.97,-219.1 78.91,-209.79 77.06,-220.22 83.97,-219.1"/>
</g>
<!-- data_structures -->
<g id="node36" class="node">
<title>data_structures</title>
<ellipse fill="none" stroke="black" cx="199.53" cy="-289.5" rx="69.48" ry="18"/>
<text text-anchor="middle" x="199.53" y="-285.3" font-family="Times,serif" font-size="14.00">data_structures</text>
</g>
<!-- testing&#45;&gt;data_structures -->
<g id="edge39" class="edge">
<title>testing&#45;&gt;data_structures</title>
<path fill="none" stroke="black" d="M217.24,-369.86C213.37,-352.53 208.99,-332.91 205.56,-317.51"/>
<polygon fill="black" stroke="black" points="208.94,-316.6 203.35,-307.6 202.11,-318.13 208.94,-316.6"/>
</g>
<!-- text -->
<g id="node37" class="node">
<title>text</title>
<polygon fill="pink" stroke="black" points="2047.53,-676.5 1993.53,-676.5 1993.53,-640.5 2047.53,-640.5 2047.53,-676.5"/>
<text text-anchor="middle" x="2020.53" y="-654.3" font-family="Times,serif" font-size="14.00">text</text>
</g>
<!-- ulid -->
<g id="node38" class="node">
<title>ulid</title>
<polygon fill="pink" stroke="black" points="2119.53,-676.5 2065.53,-676.5 2065.53,-640.5 2119.53,-640.5 2119.53,-676.5"/>
<text text-anchor="middle" x="2092.53" y="-654.3" font-family="Times,serif" font-size="14.00">ulid</text>
</g>
<!-- url -->
<g id="node39" class="node">
<title>url</title>
<polygon fill="pink" stroke="black" points="74.53,-307.5 20.53,-307.5 20.53,-271.5 74.53,-271.5 74.53,-307.5"/>
<text text-anchor="middle" x="47.53" y="-285.3" font-family="Times,serif" font-size="14.00">url</text>
</g>
<!-- url&#45;&gt;path -->
<g id="edge42" class="edge">
<title>url&#45;&gt;path</title>
<path fill="none" stroke="black" d="M51.34,-271.42C54.4,-257.73 58.85,-237.76 63.04,-218.98"/>
<polygon fill="black" stroke="black" points="66.5,-219.53 65.27,-209.01 59.67,-218.01 66.5,-219.53"/>
</g>
<!-- uuid -->
<g id="node40" class="node">
<title>uuid</title>
<ellipse fill="none" stroke="black" cx="1296.53" cy="-289.5" rx="39.5" ry="39.5"/>
<ellipse fill="none" stroke="black" cx="1296.53" cy="-289.5" rx="43.5" ry="43.5"/>
<text text-anchor="middle" x="1296.53" y="-285.3" font-family="Times,serif" font-size="14.00">uuid</text>
</g>
<!-- uuid&#45;&gt;bytes -->
<g id="edge43" class="edge">
<title>uuid&#45;&gt;bytes</title>
<path fill="none" stroke="black" d="M1266.5,-257.97C1250.86,-242.06 1231.58,-222.46 1214.97,-205.57"/>
<polygon fill="black" stroke="black" points="1217.06,-202.7 1207.55,-198.02 1212.06,-207.61 1217.06,-202.7"/>
</g>
<!-- uuid&#45;&gt;crypto -->
<g id="edge44" class="edge">
<title>uuid&#45;&gt;crypto</title>
<path fill="none" stroke="black" d="M1296.53,-245.84C1296.53,-237.62 1296.53,-228.91 1296.53,-220.41"/>
<polygon fill="black" stroke="black" points="1300.03,-220.18 1296.53,-210.18 1293.03,-220.18 1300.03,-220.18"/>
</g>
<!-- webgpu -->
<g id="node41" class="node">
<title>webgpu</title>
<polygon fill="pink" stroke="black" points="964.85,-307.5 904.21,-307.5 904.21,-271.5 964.85,-271.5 964.85,-307.5"/>
<text text-anchor="middle" x="934.53" y="-285.3" font-family="Times,serif" font-size="14.00">webgpu</text>
</g>
<!-- webgpu&#45;&gt;assert -->
<g id="edge45" class="edge">
<title>webgpu&#45;&gt;assert</title>
<path fill="none" stroke="black" d="M918.3,-271.42C902.17,-254.45 876.87,-227.84 855.92,-205.79"/>
<polygon fill="black" stroke="black" points="858.43,-203.35 849.01,-198.51 853.36,-208.17 858.43,-203.35"/>
</g>
</g>
</svg>
