<?xml version="1.0" encoding="UTF-8" standalone="no"?>
<!DOCTYPE svg PUBLIC "-//W3C//DTD SVG 1.1//EN"
 "http://www.w3.org/Graphics/SVG/1.1/DTD/svg11.dtd">
<!-- Generated by graphviz version 2.44.0 (20200518.1210)
 -->
<!-- Title: std_deps Pages: 1 -->
<svg width="2392pt" height="404pt"
 viewBox="0.00 0.00 2392.00 404.00" xmlns="http://www.w3.org/2000/svg" xmlns:xlink="http://www.w3.org/1999/xlink">
<g id="graph0" class="graph" transform="scale(1 1) rotate(0) translate(4 400)">
<title>std_deps</title>
<polygon fill="white" stroke="transparent" points="-4,4 -4,-400 2388,-400 2388,4 -4,4"/>
<!-- archive -->
<g id="node1" class="node">
<title>archive</title>
<ellipse fill="none" stroke="black" cx="531" cy="-252" rx="36" ry="36"/>
<text text-anchor="middle" x="531" y="-247.8" font-family="Times,serif" font-size="14.00">archive</text>
</g>
<!-- io -->
<g id="node2" class="node">
<title>io</title>
<ellipse fill="none" stroke="black" cx="531" cy="-144" rx="36" ry="36"/>
<text text-anchor="middle" x="531" y="-139.8" font-family="Times,serif" font-size="14.00">io</text>
</g>
<!-- archive&#45;&gt;io -->
<g id="edge1" class="edge">
<title>archive&#45;&gt;io</title>
<path fill="none" stroke="black" d="M531,-216C531,-207.85 531,-199.06 531,-190.54"/>
<polygon fill="black" stroke="black" points="534.5,-190.33 531,-180.33 527.5,-190.33 534.5,-190.33"/>
</g>
<!-- bytes -->
<g id="node6" class="node">
<title>bytes</title>
<ellipse fill="lightgreen" stroke="black" cx="576" cy="-36" rx="36" ry="36"/>
<text text-anchor="middle" x="576" y="-31.8" font-family="Times,serif" font-size="14.00">bytes</text>
</g>
<!-- io&#45;&gt;bytes -->
<g id="edge17" class="edge">
<title>io&#45;&gt;bytes</title>
<path fill="none" stroke="black" d="M544.75,-110.62C548.98,-100.65 553.71,-89.51 558.17,-78.99"/>
<polygon fill="black" stroke="black" points="561.5,-80.12 562.18,-69.55 555.05,-77.38 561.5,-80.12"/>
</g>
<!-- assert -->
<g id="node3" class="node">
<title>assert</title>
<ellipse fill="lightgreen" stroke="black" cx="1365" cy="-144" rx="36" ry="36"/>
<text text-anchor="middle" x="1365" y="-139.8" font-family="Times,serif" font-size="14.00">assert</text>
</g>
<!-- internal -->
<g id="node4" class="node">
<title>internal</title>
<ellipse fill="lightgreen" stroke="black" cx="1365" cy="-36" rx="36" ry="36"/>
<text text-anchor="middle" x="1365" y="-31.8" font-family="Times,serif" font-size="14.00">internal</text>
</g>
<!-- assert&#45;&gt;internal -->
<g id="edge2" class="edge">
<title>assert&#45;&gt;internal</title>
<path fill="none" stroke="black" d="M1365,-108C1365,-99.85 1365,-91.06 1365,-82.54"/>
<polygon fill="black" stroke="black" points="1368.5,-82.33 1365,-72.33 1361.5,-82.33 1368.5,-82.33"/>
</g>
<!-- async -->
<g id="node5" class="node">
<title>async</title>
<ellipse fill="lightgreen" stroke="black" cx="929" cy="-144" rx="36" ry="36"/>
<text text-anchor="middle" x="929" y="-139.8" font-family="Times,serif" font-size="14.00">async</text>
</g>
<!-- cli -->
<g id="node7" class="node">
<title>cli</title>
<ellipse fill="none" stroke="black" cx="171" cy="-144" rx="36" ry="36"/>
<text text-anchor="middle" x="171" y="-139.8" font-family="Times,serif" font-size="14.00">cli</text>
</g>
<!-- collections -->
<g id="node8" class="node">
<title>collections</title>
<ellipse fill="lightgreen" stroke="black" cx="1493" cy="-144" rx="36" ry="36"/>
<text text-anchor="middle" x="1493" y="-139.8" font-family="Times,serif" font-size="14.00">collections</text>
</g>
<!-- crypto -->
<g id="node9" class="node">
<title>crypto</title>
<ellipse fill="lightgreen" stroke="black" cx="711" cy="-36" rx="36" ry="36"/>
<text text-anchor="middle" x="711" y="-31.8" font-family="Times,serif" font-size="14.00">crypto</text>
</g>
<!-- csv -->
<g id="node10" class="node">
<title>csv</title>
<ellipse fill="none" stroke="black" cx="36" cy="-252" rx="36" ry="36"/>
<text text-anchor="middle" x="36" y="-247.8" font-family="Times,serif" font-size="14.00">csv</text>
</g>
<!-- streams -->
<g id="node11" class="node">
<title>streams</title>
<ellipse fill="none" stroke="black" cx="81" cy="-144" rx="36" ry="36"/>
<text text-anchor="middle" x="81" y="-139.8" font-family="Times,serif" font-size="14.00">streams</text>
</g>
<!-- csv&#45;&gt;streams -->
<g id="edge3" class="edge">
<title>csv&#45;&gt;streams</title>
<path fill="none" stroke="black" d="M49.75,-218.62C53.98,-208.65 58.71,-197.51 63.17,-186.99"/>
<polygon fill="black" stroke="black" points="66.5,-188.12 67.18,-177.55 60.05,-185.38 66.5,-188.12"/>
</g>
<!-- streams&#45;&gt;bytes -->
<g id="edge24" class="edge">
<title>streams&#45;&gt;bytes</title>
<path fill="none" stroke="black" d="M107.19,-119.14C113.04,-114.84 119.46,-110.83 126,-108 264.15,-48.16 445.66,-38.05 529.66,-36.81"/>
<polygon fill="black" stroke="black" points="529.93,-40.3 539.9,-36.69 529.86,-33.3 529.93,-40.3"/>
</g>
<!-- data&#45;\nstructures -->
<g id="node12" class="node">
<title>data&#45;\nstructures</title>
<ellipse fill="lightgreen" stroke="black" cx="1147" cy="-144" rx="36" ry="36"/>
<text text-anchor="middle" x="1147" y="-148.2" font-family="Times,serif" font-size="14.00">data&#45;</text>
<text text-anchor="middle" x="1147" y="-131.4" font-family="Times,serif" font-size="14.00">structures</text>
</g>
<!-- datetime -->
<g id="node13" class="node">
<title>datetime</title>
<ellipse fill="none" stroke="black" cx="1628" cy="-360" rx="36" ry="36"/>
<text text-anchor="middle" x="1628" y="-355.8" font-family="Times,serif" font-size="14.00">datetime</text>
</g>
<!-- dotenv -->
<g id="node14" class="node">
<title>dotenv</title>
<ellipse fill="none" stroke="black" cx="1718" cy="-360" rx="36" ry="36"/>
<text text-anchor="middle" x="1718" y="-355.8" font-family="Times,serif" font-size="14.00">dotenv</text>
</g>
<!-- encoding -->
<g id="node15" class="node">
<title>encoding</title>
<ellipse fill="lightgreen" stroke="black" cx="261" cy="-144" rx="36" ry="36"/>
<text text-anchor="middle" x="261" y="-139.8" font-family="Times,serif" font-size="14.00">encoding</text>
</g>
<!-- expect -->
<g id="node16" class="node">
<title>expect</title>
<ellipse fill="none" stroke="black" cx="1384" cy="-252" rx="36" ry="36"/>
<text text-anchor="middle" x="1384" y="-247.8" font-family="Times,serif" font-size="14.00">expect</text>
</g>
<!-- expect&#45;&gt;assert -->
<g id="edge4" class="edge">
<title>expect&#45;&gt;assert</title>
<path fill="none" stroke="black" d="M1377.78,-216.29C1376.25,-207.78 1374.6,-198.55 1373,-189.65"/>
<polygon fill="black" stroke="black" points="1376.44,-189.01 1371.24,-179.79 1369.55,-190.25 1376.44,-189.01"/>
</g>
<!-- expect&#45;&gt;internal -->
<g id="edge5" class="edge">
<title>expect&#45;&gt;internal</title>
<path fill="none" stroke="black" d="M1398.51,-218.79C1403.15,-206.86 1407.68,-193.05 1410,-180 1415.59,-148.49 1418.92,-138.73 1410,-108 1406.41,-95.61 1399.93,-83.32 1392.99,-72.53"/>
<polygon fill="black" stroke="black" points="1395.87,-70.54 1387.37,-64.22 1390.08,-74.47 1395.87,-70.54"/>
</g>
<!-- fmt -->
<g id="node17" class="node">
<title>fmt</title>
<ellipse fill="none" stroke="black" cx="839" cy="-144" rx="36" ry="36"/>
<text text-anchor="middle" x="839" y="-139.8" font-family="Times,serif" font-size="14.00">fmt</text>
</g>
<!-- front&#45;\nmatter -->
<g id="node18" class="node">
<title>front&#45;\nmatter</title>
<ellipse fill="none" stroke="black" cx="1538" cy="-360" rx="36" ry="36"/>
<text text-anchor="middle" x="1538" y="-364.2" font-family="Times,serif" font-size="14.00">front&#45;</text>
<text text-anchor="middle" x="1538" y="-347.4" font-family="Times,serif" font-size="14.00">matter</text>
</g>
<!-- toml -->
<g id="node19" class="node">
<title>toml</title>
<ellipse fill="lightgreen" stroke="black" cx="1493" cy="-252" rx="36" ry="36"/>
<text text-anchor="middle" x="1493" y="-247.8" font-family="Times,serif" font-size="14.00">toml</text>
</g>
<!-- front&#45;\nmatter&#45;&gt;toml -->
<g id="edge6" class="edge">
<title>front&#45;\nmatter&#45;&gt;toml</title>
<path fill="none" stroke="black" d="M1524.25,-326.62C1520.02,-316.65 1515.29,-305.51 1510.83,-294.99"/>
<polygon fill="black" stroke="black" points="1513.95,-293.38 1506.82,-285.55 1507.5,-296.12 1513.95,-293.38"/>
</g>
<!-- yaml -->
<g id="node20" class="node">
<title>yaml</title>
<ellipse fill="none" stroke="black" cx="1583" cy="-252" rx="36" ry="36"/>
<text text-anchor="middle" x="1583" y="-247.8" font-family="Times,serif" font-size="14.00">yaml</text>
</g>
<!-- front&#45;\nmatter&#45;&gt;yaml -->
<g id="edge7" class="edge">
<title>front&#45;\nmatter&#45;&gt;yaml</title>
<path fill="none" stroke="black" d="M1551.75,-326.62C1555.98,-316.65 1560.71,-305.51 1565.17,-294.99"/>
<polygon fill="black" stroke="black" points="1568.5,-296.12 1569.18,-285.55 1562.05,-293.38 1568.5,-296.12"/>
</g>
<!-- toml&#45;&gt;collections -->
<g id="edge32" class="edge">
<title>toml&#45;&gt;collections</title>
<path fill="none" stroke="black" d="M1493,-216C1493,-207.85 1493,-199.06 1493,-190.54"/>
<polygon fill="black" stroke="black" points="1496.5,-190.33 1493,-180.33 1489.5,-190.33 1496.5,-190.33"/>
</g>
<!-- fs -->
<g id="node21" class="node">
<title>fs</title>
<ellipse fill="none" stroke="black" cx="1019" cy="-144" rx="36" ry="36"/>
<text text-anchor="middle" x="1019" y="-139.8" font-family="Times,serif" font-size="14.00">fs</text>
</g>
<!-- path -->
<g id="node22" class="node">
<title>path</title>
<ellipse fill="lightgreen" stroke="black" cx="1051" cy="-36" rx="36" ry="36"/>
<text text-anchor="middle" x="1051" y="-31.8" font-family="Times,serif" font-size="14.00">path</text>
</g>
<!-- fs&#45;&gt;path -->
<g id="edge8" class="edge">
<title>fs&#45;&gt;path</title>
<path fill="none" stroke="black" d="M1029.21,-109.17C1031.96,-100.09 1034.96,-90.13 1037.84,-80.6"/>
<polygon fill="black" stroke="black" points="1041.23,-81.46 1040.77,-70.87 1034.53,-79.43 1041.23,-81.46"/>
</g>
<!-- html -->
<g id="node23" class="node">
<title>html</title>
<ellipse fill="lightgreen" stroke="black" cx="1808" cy="-360" rx="36" ry="36"/>
<text text-anchor="middle" x="1808" y="-355.8" font-family="Times,serif" font-size="14.00">html</text>
</g>
<!-- http -->
<g id="node24" class="node">
<title>http</title>
<ellipse fill="none" stroke="black" cx="396" cy="-252" rx="36" ry="36"/>
<text text-anchor="middle" x="396" y="-247.8" font-family="Times,serif" font-size="14.00">http</text>
</g>
<!-- http&#45;&gt;async -->
<g id="edge10" class="edge">
<title>http&#45;&gt;async</title>
<path fill="none" stroke="black" d="M428.63,-235.75C445.41,-228.57 466.41,-220.6 486,-216 658.91,-175.41 718.77,-245.16 884,-180 887.52,-178.61 891,-176.86 894.36,-174.88"/>
<polygon fill="black" stroke="black" points="896.53,-177.63 902.95,-169.2 892.68,-171.79 896.53,-177.63"/>
</g>
<!-- http&#45;&gt;cli -->
<g id="edge14" class="edge">
<title>http&#45;&gt;cli</title>
<path fill="none" stroke="black" d="M361.51,-240.66C324.27,-228.76 263.86,-207.3 216,-180 212.8,-178.18 209.59,-176.14 206.42,-174"/>
<polygon fill="black" stroke="black" points="208.39,-171.11 198.22,-168.14 204.32,-176.8 208.39,-171.11"/>
</g>
<!-- http&#45;&gt;streams -->
<g id="edge13" class="edge">
<title>http&#45;&gt;streams</title>
<path fill="none" stroke="black" d="M360.31,-246.3C307.05,-238.27 204.64,-218.88 126,-180 122.7,-178.37 119.41,-176.47 116.2,-174.42"/>
<polygon fill="black" stroke="black" points="118.13,-171.51 107.91,-168.72 114.16,-177.27 118.13,-171.51"/>
</g>
<!-- http&#45;&gt;encoding -->
<g id="edge9" class="edge">
<title>http&#45;&gt;encoding</title>
<path fill="none" stroke="black" d="M368.03,-229.04C347.39,-212.83 319.15,-190.66 296.85,-173.15"/>
<polygon fill="black" stroke="black" points="298.96,-170.36 288.94,-166.94 294.64,-175.86 298.96,-170.36"/>
</g>
<!-- http&#45;&gt;fmt -->
<g id="edge15" class="edge">
<title>http&#45;&gt;fmt</title>
<path fill="none" stroke="black" d="M428.69,-235.99C445.49,-228.87 466.48,-220.87 486,-216 617.58,-183.16 662.3,-228.34 789,-180 793.77,-178.18 798.51,-175.81 803.07,-173.16"/>
<polygon fill="black" stroke="black" points="804.98,-176.08 811.56,-167.78 801.24,-170.17 804.98,-176.08"/>
</g>
<!-- http&#45;&gt;path -->
<g id="edge11" class="edge">
<title>http&#45;&gt;path</title>
<path fill="none" stroke="black" d="M428.72,-236.1C445.52,-229.01 466.52,-221.01 486,-216 603.25,-185.85 656.69,-249.24 756,-180 785.68,-159.31 765.8,-130.68 794,-108 855.5,-58.53 949.09,-43.46 1004.74,-38.92"/>
<polygon fill="black" stroke="black" points="1005.29,-42.38 1015.01,-38.16 1004.78,-35.4 1005.29,-42.38"/>
</g>
<!-- media&#45;\ntypes -->
<g id="node25" class="node">
<title>media&#45;\ntypes</title>
<ellipse fill="lightgreen" stroke="black" cx="351" cy="-144" rx="36" ry="36"/>
<text text-anchor="middle" x="351" y="-148.2" font-family="Times,serif" font-size="14.00">media&#45;</text>
<text text-anchor="middle" x="351" y="-131.4" font-family="Times,serif" font-size="14.00">types</text>
</g>
<!-- http&#45;&gt;media&#45;\ntypes -->
<g id="edge12" class="edge">
<title>http&#45;&gt;media&#45;\ntypes</title>
<path fill="none" stroke="black" d="M382.25,-218.62C378.02,-208.65 373.29,-197.51 368.83,-186.99"/>
<polygon fill="black" stroke="black" points="371.95,-185.38 364.82,-177.55 365.5,-188.12 371.95,-185.38"/>
</g>
<!-- net -->
<g id="node26" class="node">
<title>net</title>
<ellipse fill="none" stroke="black" cx="441" cy="-144" rx="36" ry="36"/>
<text text-anchor="middle" x="441" y="-139.8" font-family="Times,serif" font-size="14.00">net</text>
</g>
<!-- http&#45;&gt;net -->
<g id="edge16" class="edge">
<title>http&#45;&gt;net</title>
<path fill="none" stroke="black" d="M409.75,-218.62C413.98,-208.65 418.71,-197.51 423.17,-186.99"/>
<polygon fill="black" stroke="black" points="426.5,-188.12 427.18,-177.55 420.05,-185.38 426.5,-188.12"/>
</g>
<!-- ini -->
<g id="node27" class="node">
<title>ini</title>
<ellipse fill="none" stroke="black" cx="1898" cy="-360" rx="36" ry="36"/>
<text text-anchor="middle" x="1898" y="-355.8" font-family="Times,serif" font-size="14.00">ini</text>
</g>
<!-- json -->
<g id="node28" class="node">
<title>json</title>
<ellipse fill="none" stroke="black" cx="126" cy="-252" rx="36" ry="36"/>
<text text-anchor="middle" x="126" y="-247.8" font-family="Times,serif" font-size="14.00">json</text>
</g>
<!-- json&#45;&gt;streams -->
<g id="edge18" class="edge">
<title>json&#45;&gt;streams</title>
<path fill="none" stroke="black" d="M112.25,-218.62C108.02,-208.65 103.29,-197.51 98.83,-186.99"/>
<polygon fill="black" stroke="black" points="101.95,-185.38 94.82,-177.55 95.5,-188.12 101.95,-185.38"/>
</g>
<!-- jsonc -->
<g id="node29" class="node">
<title>jsonc</title>
<ellipse fill="none" stroke="black" cx="126" cy="-360" rx="36" ry="36"/>
<text text-anchor="middle" x="126" y="-355.8" font-family="Times,serif" font-size="14.00">jsonc</text>
</g>
<!-- jsonc&#45;&gt;json -->
<g id="edge19" class="edge">
<title>jsonc&#45;&gt;json</title>
<path fill="none" stroke="black" d="M126,-324C126,-315.85 126,-307.06 126,-298.54"/>
<polygon fill="black" stroke="black" points="129.5,-298.33 126,-288.33 122.5,-298.33 129.5,-298.33"/>
</g>
<!-- log -->
<g id="node30" class="node">
<title>log</title>
<ellipse fill="none" stroke="black" cx="839" cy="-252" rx="36" ry="36"/>
<text text-anchor="middle" x="839" y="-247.8" font-family="Times,serif" font-size="14.00">log</text>
</g>
<!-- log&#45;&gt;io -->
<g id="edge21" class="edge">
<title>log&#45;&gt;io</title>
<path fill="none" stroke="black" d="M803.37,-245.98C751.26,-237.65 652.19,-217.97 576,-180 572.71,-178.36 569.42,-176.45 566.21,-174.4"/>
<polygon fill="black" stroke="black" points="568.14,-171.49 557.93,-168.69 564.17,-177.25 568.14,-171.49"/>
</g>
<!-- log&#45;&gt;fmt -->
<g id="edge20" class="edge">
<title>log&#45;&gt;fmt</title>
<path fill="none" stroke="black" d="M839,-216C839,-207.85 839,-199.06 839,-190.54"/>
<polygon fill="black" stroke="black" points="842.5,-190.33 839,-180.33 835.5,-190.33 842.5,-190.33"/>
</g>
<!-- log&#45;&gt;fs -->
<g id="edge22" class="edge">
<title>log&#45;&gt;fs</title>
<path fill="none" stroke="black" d="M871.54,-235.9C899.46,-222.47 940.39,-201.67 974,-180 977.09,-178.01 980.24,-175.85 983.35,-173.63"/>
<polygon fill="black" stroke="black" points="985.51,-176.39 991.48,-167.64 981.35,-170.76 985.51,-176.39"/>
</g>
<!-- msgpack -->
<g id="node31" class="node">
<title>msgpack</title>
<ellipse fill="lightgreen" stroke="black" cx="621" cy="-144" rx="36" ry="36"/>
<text text-anchor="middle" x="621" y="-139.8" font-family="Times,serif" font-size="14.00">msgpack</text>
</g>
<!-- msgpack&#45;&gt;bytes -->
<g id="edge23" class="edge">
<title>msgpack&#45;&gt;bytes</title>
<path fill="none" stroke="black" d="M607.25,-110.62C603.02,-100.65 598.29,-89.51 593.83,-78.99"/>
<polygon fill="black" stroke="black" points="596.95,-77.38 589.82,-69.55 590.5,-80.12 596.95,-77.38"/>
</g>
<!-- regexp -->
<g id="node32" class="node">
<title>regexp</title>
<ellipse fill="lightgreen" stroke="black" cx="1988" cy="-360" rx="36" ry="36"/>
<text text-anchor="middle" x="1988" y="-355.8" font-family="Times,serif" font-size="14.00">regexp</text>
</g>
<!-- semver -->
<g id="node33" class="node">
<title>semver</title>
<ellipse fill="none" stroke="black" cx="2078" cy="-360" rx="36" ry="36"/>
<text text-anchor="middle" x="2078" y="-355.8" font-family="Times,serif" font-size="14.00">semver</text>
</g>
<!-- testing -->
<g id="node34" class="node">
<title>testing</title>
<ellipse fill="none" stroke="black" cx="1083" cy="-252" rx="36" ry="36"/>
<text text-anchor="middle" x="1083" y="-247.8" font-family="Times,serif" font-size="14.00">testing</text>
</g>
<!-- testing&#45;&gt;assert -->
<g id="edge25" class="edge">
<title>testing&#45;&gt;assert</title>
<path fill="none" stroke="black" d="M1118.08,-243.88C1164.66,-233.63 1248.75,-212.32 1315,-180 1319.58,-177.76 1324.21,-175.13 1328.71,-172.33"/>
<polygon fill="black" stroke="black" points="1330.7,-175.21 1337.14,-166.79 1326.86,-169.36 1330.7,-175.21"/>
</g>
<!-- testing&#45;&gt;internal -->
<g id="edge29" class="edge">
<title>testing&#45;&gt;internal</title>
<path fill="none" stroke="black" d="M1118.57,-246.3C1161.73,-238.95 1234.59,-221.07 1282,-180 1309.35,-156.31 1301.86,-139.31 1320,-108 1326.29,-97.15 1333.43,-85.58 1340.13,-75"/>
<polygon fill="black" stroke="black" points="1343.21,-76.7 1345.64,-66.39 1337.31,-72.93 1343.21,-76.7"/>
</g>
<!-- testing&#45;&gt;async -->
<g id="edge31" class="edge">
<title>testing&#45;&gt;async</title>
<path fill="none" stroke="black" d="M1052.47,-232.08C1030.36,-218.14 999.93,-198.48 974,-180 971,-177.86 967.93,-175.61 964.86,-173.32"/>
<polygon fill="black" stroke="black" points="966.89,-170.47 956.81,-167.21 962.66,-176.04 966.89,-170.47"/>
</g>
<!-- testing&#45;&gt;data&#45;\nstructures -->
<g id="edge30" class="edge">
<title>testing&#45;&gt;data&#45;\nstructures</title>
<path fill="none" stroke="black" d="M1101.17,-220.91C1108.13,-209.38 1116.17,-196.07 1123.55,-183.84"/>
<polygon fill="black" stroke="black" points="1126.61,-185.54 1128.79,-175.17 1120.62,-181.92 1126.61,-185.54"/>
</g>
<!-- testing&#45;&gt;fmt -->
<g id="edge28" class="edge">
<title>testing&#45;&gt;fmt</title>
<path fill="none" stroke="black" d="M1048.14,-242.21C1007.25,-231.09 938.19,-209.73 884,-180 880.77,-178.23 877.53,-176.23 874.36,-174.12"/>
<polygon fill="black" stroke="black" points="876.31,-171.22 866.13,-168.3 872.27,-176.93 876.31,-171.22"/>
</g>
<!-- testing&#45;&gt;fs -->
<g id="edge27" class="edge">
<title>testing&#45;&gt;fs</title>
<path fill="none" stroke="black" d="M1064.83,-220.91C1057.87,-209.38 1049.83,-196.07 1042.45,-183.84"/>
<polygon fill="black" stroke="black" points="1045.38,-181.92 1037.21,-175.17 1039.39,-185.54 1045.38,-181.92"/>
</g>
<!-- testing&#45;&gt;path -->
<g id="edge26" class="edge">
<title>testing&#45;&gt;path</title>
<path fill="none" stroke="black" d="M1078.83,-215.96C1075.26,-186.97 1069.8,-144.74 1064,-108 1062.65,-99.46 1061.09,-90.36 1059.52,-81.63"/>
<polygon fill="black" stroke="black" points="1062.93,-80.82 1057.69,-71.61 1056.04,-82.08 1062.93,-80.82"/>
</g>
<!-- text -->
<g id="node35" class="node">
<title>text</title>
<ellipse fill="lightgreen" stroke="black" cx="2168" cy="-360" rx="36" ry="36"/>
<text text-anchor="middle" x="2168" y="-355.8" font-family="Times,serif" font-size="14.00">text</text>
</g>
<!-- ulid -->
<g id="node36" class="node">
<title>ulid</title>
<ellipse fill="lightgreen" stroke="black" cx="2258" cy="-360" rx="36" ry="36"/>
<text text-anchor="middle" x="2258" y="-355.8" font-family="Times,serif" font-size="14.00">ulid</text>
</g>
<!-- url -->
<g id="node37" class="node">
<title>url</title>
<ellipse fill="lightgreen" stroke="black" cx="1237" cy="-144" rx="36" ry="36"/>
<text text-anchor="middle" x="1237" y="-139.8" font-family="Times,serif" font-size="14.00">url</text>
</g>
<!-- url&#45;&gt;path -->
<g id="edge33" class="edge">
<title>url&#45;&gt;path</title>
<path fill="none" stroke="black" d="M1209.53,-120.28C1203.87,-116 1197.86,-111.7 1192,-108 1160.16,-87.87 1121.86,-68.88 1093.21,-55.62"/>
<polygon fill="black" stroke="black" points="1094.44,-52.34 1083.9,-51.35 1091.53,-58.7 1094.44,-52.34"/>
</g>
<!-- uuid -->
<g id="node38" class="node">
<title>uuid</title>
<ellipse fill="lightgreen" stroke="black" cx="711" cy="-144" rx="36" ry="36"/>
<text text-anchor="middle" x="711" y="-139.8" font-family="Times,serif" font-size="14.00">uuid</text>
</g>
<!-- uuid&#45;&gt;bytes -->
<g id="edge34" class="edge">
<title>uuid&#45;&gt;bytes</title>
<path fill="none" stroke="black" d="M683.03,-121.04C662.39,-104.83 634.15,-82.66 611.85,-65.15"/>
<polygon fill="black" stroke="black" points="613.96,-62.36 603.94,-58.94 609.64,-67.86 613.96,-62.36"/>
</g>
<!-- uuid&#45;&gt;crypto -->
<g id="edge35" class="edge">
<title>uuid&#45;&gt;crypto</title>
<path fill="none" stroke="black" d="M711,-108C711,-99.85 711,-91.06 711,-82.54"/>
<polygon fill="black" stroke="black" points="714.5,-82.33 711,-72.33 707.5,-82.33 714.5,-82.33"/>
</g>
<!-- webgpu -->
<g id="node39" class="node">
<title>webgpu</title>
<ellipse fill="none" stroke="black" cx="2348" cy="-360" rx="36" ry="36"/>
<text text-anchor="middle" x="2348" y="-355.8" font-family="Times,serif" font-size="14.00">webgpu</text>
</g>
</g>
</svg>
