<svg fill="none" xmlns="http://www.w3.org/2000/svg" viewBox="0 0 1440 711"><path opacity=".05" fill-rule="evenodd" clip-rule="evenodd" d="M1459.02 83.1091-623.702 72.9906V121.92L1114.7 67.416l-1738.402 102.45v51.67l2082.722-16.115V83.1091Z" fill="url(#a)"/><path fill-rule="evenodd" clip-rule="evenodd" d="M1249.53 140.846 960.486 298.198h-10.537l-241.556-63.451h-8.426l-101.69-62.468-121.42 68.698-5.279.609-63.287 43.753-4.285-1.593-135.829-157.492-4.161.538L162.595.638672h-10.289L68.0267 129.181l-8.695 8.034-62.91464 97.625-138.64406-22.157-3.788-4.779-274.059-87.342-7.411 2.998-74.611 115.098-68.588 29.747-56.662-79.871v251.159l2085.416 40.92V307.591L1278.85 184.95l-8.45-5.691-20.87-38.413Z" fill="#4F06BE"/><path fill-rule="evenodd" clip-rule="evenodd" d="m268.177 126.254 10.062 14.85 42.667 104.043-50.576-48.274-13.891-6.863-2.174 6.558 6.584 22.65-10.538-22.65 13.705-69.775 4.161-.539Z" fill="#fff"/><path fill-rule="evenodd" clip-rule="evenodd" d="m333.845 301.36-64.777-107.907-4.369-15.178 43.061 54.949 96.536 51.108L268.012 126.23l-26.479 16.349 19.937-17.52L162.781.638672h-10.289L126.552 39.5669l20.827-27.5917 7.246-2.85759 8.943 16.09129-19.419 67.7378 8.157-35.0869-19.17 65.0212 15.816-25.9056 14.616 124.8186-52.584 89.286 222.861-9.72Zm-178.91-32.955h-6.645l9.481-8.362 3.81-1.804-6.646 10.166Zm77.365-12.227 4.762-2.389-4.762 41.13h-13.436l13.436-38.741ZM153.341 91.4477l14.45-68.1595 4.472-3.162-5.01 66.1451-13.912 5.1764ZM166.197 226.97l13.167-4.45-25.795 37.851-9.751 5.949 22.379-39.35Z" fill="#fff"/><path fill-rule="evenodd" clip-rule="evenodd" d="m186.693 132.742 8.301 7.167 35.96 90.646-40.7-85.727-3.561-12.086Zm202.718 186.419-68.505-74.015 45.566 57.385-11.324-4.473 9.337 20.002 24.926 1.101Zm87.426-78.16 33.848 83.454 99.02 4.286-38.01-53.778 49.52-29.793 10.269 15.787-17.908-23.376 11.862.304 38.983 28.435-73.1-73.874 6.956-20.144-121.44 68.699Zm123.365-29.513 9.275 3.584 12.773 17.122h-6.832l-15.216-20.706Zm-29.584 76.428 1.864-4.005 5.527 8.033-3.685 1.781-3.706-5.809Zm-22.586-49.047 8.24 5.317 19.419 24.804h-5.073l-22.586-30.121Zm-76.454 2.716 32.648 82.565-77.945-4.989-17.99-33.822 27.514-19.019 20.453 44.76-13.042-49.89 28.362-19.605Zm228.389-6.838L842.151 338.86l19.998.867-153.756-104.98h-8.426Zm260.519 63.451 39.874 47.547 64.67 2.834-45.79-64.669 10.85-1.757 64.07 67.668 140.03 6.113-76.66-158.43 27.68-11.664 100.99 149.88 16.72 1.359-85.31-139.575 6.33-4.052 38.7 32.183-13.09-84.813-289.064 157.376Zm83.554-34.455 4.76-3.537 20.99 23.704 15.41 40.427-41.16-60.594Z" fill="#fff"/><path fill-rule="evenodd" clip-rule="evenodd" d="m1154.12 352.75-12.38-13.023-33.46 4.38-3.27 5.199-3.73-.445-6.58-4.614-16.19 3.279-10.95 1.148-17.64-2.436-2.75-3.466-5.94-1.64-13.05 5.106-3.81-1.546-14.78 1.452 144.53 6.606Zm-377.078-16.724-12.67-7.285h-20.143l-63.619 3.654 96.432 3.631Z" fill="#4F8DF4"/><path fill-rule="evenodd" clip-rule="evenodd" d="m59.311 137.215 14.2225 5.363 30.6805 109.126-32.7714-76.896-3.685.609 49.8104 124.771H98.0452L59.311 137.215Zm211.019 59.658 48.775 46.564-28.279-54.996-23.394-51.225 10.807 3.888-10.062-14.85-4.161.539-10.931 60.406 3.354 2.811 13.891 6.863Zm-224.3099-3.42 38.5892 105.799-29.7493-.843-23.4558-67.855-4.2233-1.195 24.2218 68.956-35.0077-.984-2.1324-50.967 31.7575-52.911Zm575.1949 51.715-21.013-33.681 9.275 3.607 15.961 22.79 12.236.843 5.051 1.476-51.404-47.782 6.956-20.143-58.236 32.815 16.231 39.092-20.992-36.258-15.03 8.502 57.759 96.852 22.193.633-28.507-38.952 35.505-21.361-31.509-42.114 33.848 40.708 11.676-7.027ZM523.5 237.44l-46.663 3.561 27.389 70.08 38.734 1.218-25.547-72.798.787 8.315 32.399 64.483h13.705L523.5 237.44Zm525.68 12.485-.36 10.283 21 23.703 16.72 43.355 18.47.984-28.09-83.384 33.78 83.384h15.22l-40.7-89.052 93.68 91.16h24.61l-118.29-100.061-36.04 19.628Zm-34.89 19.065 4.95 14.92 30.22 42.535-47.8-1.124-12.46-38.483 10.372 38.436-16.79-.492-22.296-26.584 53.804-29.208Z" fill="#fff"/><path fill-rule="evenodd" clip-rule="evenodd" d="m1458.07 341.203-2085.416-66.332v230.477H1458.07V341.203Z" fill="#4F8DF4"/><path fill-rule="evenodd" clip-rule="evenodd" d="m1250.13 332.397-1877.476-57.526 1877.476 81.768v-24.242Z" fill="#7AA9F7"/><path opacity=".2" fill-rule="evenodd" clip-rule="evenodd" d="m276.127 304.711-45.173-74.156 53.475 74.39-8.302-.234Zm388.274-38.413 42.046 50.639-6.48-.187-35.566-50.452Z" fill="#223995"/><path fill-rule="evenodd" clip-rule="evenodd" d="m699.967 248.378-9.875 25.086 16.914 34.876-10.6-29.981 11.863 20.144-4.948-45.604-3.354-4.521Zm-478.639-9.954-15.279 35.93 15.279-8.057v-27.873Zm1078.302 60.829h74.26l77.86 41.926-43.37-.89-67.07-35.368-7.15-.609 34.37 33.658-46.15-2.975-22.75-35.742Zm-50.1-158.431 13.09 84.813-13.09-10.868-30.31-57.432-6.08 3.302 10.78 32.815-6.33 4.052 85.31 139.575-107.05-166.44 53.68-29.817Z" fill="#fff"/><path d="M1463.6 636.843H-623.206l-4.596-362.791 1896.342 38.015h195.06v324.776Z" fill="url(#b)"/><path d="M183.484 388.329c191.311 12.601 374.63-3.303 468.184 0 93.534 3.302 549.632 31.316 620.682 60.664 71.05 29.348-1010.28 103.153-1010.28 103.153h1206.02s-311.55-27.358-296.9-42.863c14.66-15.483 128.92-58.838 127.49-63.991-1.43-5.153-341.32-43.355-342.024-49.538-.704-6.184-396.223-17.544-418.789-18.574-22.565-1.031-305.174-15.483-305.174-15.483l-364.714 16.513-498.658-16.513-10.165 16.513 824.328 10.119Z" fill="#6D63CF"/><path d="M-648.897 415.15s497.872 41.669 685.2074 33.845c187.3356-7.823 810.3126 3.092 815.3226 34.806 5.01 31.691-657.612 84.345-657.612 84.345L-659 560.393l10.103-145.243ZM1477.3 355.984c-164.85-5.223-727.006-22.626-998.248-24.781-319.976-2.553-1103.645 15.529-1103.645 15.529v-27.334l2089.263 3.396 12.63 33.19Z" fill="#6D63CF"/><path d="M861.279 504.502c.02 0 .02-.021 0-.021s-.02.021 0 .021ZM266.914 400.93c1.595 0 1.595-2.787 0-2.787-1.573 0-1.573 2.787 0 2.787Zm223.545 11.455c1.594 0 1.594-2.787 0-2.787-1.574 0-1.574 2.787 0 2.787Zm74.528 1.662c1.594 0 1.594-2.787 0-2.787-1.573 0-1.573 2.787 0 2.787Zm71.403 14.311c1.594 0 1.594-2.787 0-2.787s-1.594 2.787 0 2.787Zm-9.979-19.605c1.594 0 1.594-2.787 0-2.787-1.573 0-1.573 2.787 0 2.787Zm126.285 5.107c1.594 0 1.594-2.787 0-2.787s-1.594 2.787 0 2.787Zm-155.558-6.888c1.594 0 1.594-2.788 0-2.788-1.573 0-1.594 2.788 0 2.788Zm-85.522 6.888c1.595 0 1.595-2.787 0-2.787-1.573 0-1.573 2.787 0 2.787Zm-10.309-7.777c1.594 0 1.594-2.788 0-2.788s-1.594 2.788 0 2.788Zm833.293 111.42c.02 0 .02-.02 0 0-.02 0-.02-.02 0 0ZM170.338 426.415c1.594 0 1.594-2.788 0-2.788-1.574 0-1.574 2.788 0 2.788Zm109.64-22.908c1.594 0 1.594-2.787 0-2.787s-1.594 2.787 0 2.787Zm-244.537 1.781c1.5941 0 1.5941-2.787 0-2.787s-1.5941 2.787 0 2.787Zm193.65.443c1.594 0 1.594-2.787 0-2.787-1.573 0-1.594 2.787 0 2.787ZM74.6513 418.587c1.5941 0 1.5941-2.787 0-2.787-1.5734 0-1.5734 2.787 0 2.787ZM56.371 406.972c1.5941 0 1.5941-2.788 0-2.788-1.594 0-1.594 2.788 0 2.788Zm321.136 14.289c1.594 0 1.594-2.787 0-2.787-1.595 0-1.595 2.787 0 2.787Zm-155.351-63.896c1.594 0 1.594-2.787 0-2.787-1.574-.024-1.574 2.787 0 2.787ZM96.099 403.507c1.5941 0 1.5941-2.787 0-2.787-1.5734 0-1.5734 2.787 0 2.787Zm26.582 1.99c1.594 0 1.594-2.787 0-2.787-1.574 0-1.574 2.787 0 2.787Zm657.942 3.256c1.594 0 1.594-2.787 0-2.787s-1.594 2.787 0 2.787Zm-459.117-1.781c1.595 0 1.595-2.788 0-2.788-1.594 0-1.594 2.788 0 2.788Zm520.417-5.246c1.594 0 1.594-2.787 0-2.787-1.573 0-1.573 2.787 0 2.787Zm76.454 13.914c1.594 0 1.594-2.788 0-2.788s-1.594 2.788 0 2.788Zm409.473 22.18c1.59 0 1.59-2.787 0-2.787-1.57 0-1.57 2.787 0 2.787ZM201.723 406.764c1.594 0 1.594-2.787 0-2.787-1.595 0-1.595 2.787 0 2.787Zm895.957 83.734c1.59 0 1.59-2.787 0-2.787s-1.59 2.787 0 2.787ZM345.314 415.64c1.594 0 1.594-2.788 0-2.788-1.573 0-1.594 2.788 0 2.788Zm-105.955-6.887c1.595 0 1.595-2.787 0-2.787-1.573 0-1.573 2.787 0 2.787Zm1198.791-65.606c1.6 0 1.6-2.787 0-2.787-1.57 0-1.57 2.787 0 2.787Zm-430.88 12.391c1.6 0 1.6-2.787 0-2.787-1.57 0-1.57 2.787 0 2.787Zm-442.283 28.74c1.594 0 1.594-2.787 0-2.787-1.573 0-1.573 2.787 0 2.787Zm-223.834 24.475c1.594 0 1.594-2.787 0-2.787s-1.594 2.787 0 2.787Zm150.113 16.139c1.594 0 1.594-2.787 0-2.787s-1.594 2.787 0 2.787Zm24.118-16.139c1.594 0 1.594-2.787 0-2.787s-1.594 2.787 0 2.787Zm-247.745 4.099c1.594 0 1.594-2.787 0-2.787s-1.594 2.787 0 2.787Zm560.931-.467c1.594 0 1.594-2.787 0-2.787-1.573 0-1.573 2.787 0 2.787Zm425.97-30.287c1.6 0 1.6-2.787 0-2.787-1.59 0-1.59 2.787 0 2.787Zm132.37 3.583c1.6 0 1.6-2.787 0-2.787-1.57-.024-1.57 2.787 0 2.787Zm-229.52-17.05c1.59 0 1.59-2.787 0-2.787-1.58 0-1.58 2.787 0 2.787ZM1308 330.804c1.59 0 1.59-2.787 0-2.787-1.6 0-1.6 2.787 0 2.787Zm17.03 54.877c1.6 0 1.6-2.787 0-2.787-1.57-.024-1.57 2.787 0 2.787Zm-166.24-53.613c1.6 0 1.6-2.787 0-2.787-1.57 0-1.59 2.787 0 2.787Zm-66.7 44.246c1.59 0 1.59-2.788 0-2.788-1.57 0-1.59 2.788 0 2.788Zm-97.052-13.726c1.594 0 1.594-2.787 0-2.787-1.573 0-1.573 2.787 0 2.787Zm-219.984 4.66c1.594 0 1.594-2.787 0-2.787s-1.594 2.787 0 2.787Zm188.164 2.342c1.594 0 1.594-2.787 0-2.787s-1.594 2.787 0 2.787Zm455.682-53.823c1.59 0 1.59-2.787 0-2.787-1.57 0-1.57 2.787 0 2.787Zm-93.87-32.816c1.6 0 1.6-2.787 0-2.787-1.57 0-1.57 2.787 0 2.787ZM25.2347 386.69c1.5941 0 1.5941-2.787 0-2.787s-1.5941 2.787 0 2.787Zm1152.4853-17.1c1.59 0 1.59-2.787 0-2.787-1.58 0-1.58 2.787 0 2.787Zm-544.042 12.508c1.594 0 1.594-2.787 0-2.787s-1.594 2.787 0 2.787Zm187.729-5.784c1.594 0 1.594-2.788 0-2.788s-1.594 2.788 0 2.788Z" fill="#6DCAFF"/><path d="M1439 342.116c1.24 0 1.24-2.178 0-2.178s-1.24 2.178 0 2.178Zm-337.16 9.696c1.24 0 1.24-2.179 0-2.179s-1.24 2.179 0 2.179Zm193.49 20.775c1.24 0 1.24-2.178 0-2.178-1.25 0-1.25 2.178 0 2.178Zm-76.02-10.537c1.24 0 1.24-2.179 0-2.179-1.25 0-1.25 2.179 0 2.179Zm117.83-29.584c1.25 0 1.25-2.179 0-2.179-1.24-.023-1.24 2.179 0 2.179Zm13.34 42.91c1.24 0 1.24-2.178 0-2.178s-1.24 2.178 0 2.178ZM1220.4 333.45c1.25 0 1.25-2.178 0-2.178-1.24-.023-1.24 2.178 0 2.178Zm-52.19 34.596c1.25 0 1.25-2.178 0-2.178-1.24 0-1.24 2.178 0 2.178Zm-75.93-10.729c1.24 0 1.24-2.178 0-2.178s-1.24 2.178 0 2.178Zm-172.164 3.655c1.242 0 1.242-2.178 0-2.178-1.242-.024-1.242 2.178 0 2.178Zm147.254 1.827c1.24 0 1.24-2.178 0-2.178s-1.24 2.178 0 2.178Zm356.56-42.116c1.24 0 1.24-2.178 0-2.178s-1.24 2.178 0 2.178Zm-73.45-25.67c1.24 0 1.24-2.178 0-2.178-1.24-.023-1.24 2.178 0 2.178Zm-115.27 67.786c1.24 0 1.24-2.178 0-2.178-1.25 0-1.25 2.178 0 2.178Zm-278.803 5.247c1.243 0 1.243-2.178 0-2.178-1.242 0-1.242 2.178 0 2.178Z" fill="#6D63CF"/><path d="M834.843 408.753c1.594 0 1.594-2.787 0-2.787-1.574 0-1.574 2.787 0 2.787Zm165.187 12.508c1.59 0 1.59-2.787 0-2.787-1.576 0-1.576 2.787 0 2.787Zm423.8 1.382c1.59 0 1.59-2.787 0-2.787-1.6 0-1.6 2.787 0 2.787ZM315.689 406.972c1.594 0 1.594-2.788 0-2.788s-1.594 2.788 0 2.788Zm50.286 1.781c1.594 0 1.594-2.787 0-2.787s-1.594 2.787 0 2.787Zm423.095 12.508c1.594 0 1.594-2.787 0-2.787s-1.594 2.787 0 2.787Zm-64.819 0c1.594 0 1.594-2.787 0-2.787s-1.594 2.787 0 2.787Zm-34.78-12.508c1.594 0 1.594-2.787 0-2.787-1.574 0-1.574 2.787 0 2.787Zm-135.352 3.632c1.594 0 1.594-2.787 0-2.787-1.595 0-1.595 2.787 0 2.787Zm245.944 14.03c1.594 0 1.594-2.788 0-2.788-1.574 0-1.574 2.788 0 2.788Zm369.107-5.154c1.59 0 1.59-2.787 0-2.787-1.58 0-1.58 2.787 0 2.787ZM185.678 400.93c1.594 0 1.594-2.787 0-2.787s-1.594 2.787 0 2.787Zm392.497 4.358c1.594 0 1.594-2.787 0-2.787-1.574 0-1.574 2.787 0 2.787Zm-435.185 7.564c1.594 0 1.594-2.787 0-2.787s-1.594 2.787 0 2.787Zm101.649-12.741c1.594 0 1.594-2.787 0-2.787s-1.594 2.787 0 2.787Z" fill="#6DCAFF"/><path d="M152.199 746.155h635.376c66.775 7.256 573.015 16.987 817.425 22.242V446.643l-623.143-43.62c-74.835 2.232-231.699 7.947-260.482 12.957-28.783 5.01-225.943 3.527-320.926 2.159L-14.7395 400c-19.1883 3.527-58.4287 11.099-61.8827 13.172-4.3173 2.592-137.4368 7.99-225.9428 2.808-70.805-4.146-149.91-1.728-180.611 0L-576 428.288V787.83l2.246.034c140.229 2.137 208.669 3.18 542.2848-15.222 5.5756-.308 20.2403-1.212 9.3512-3.886-15.8252-3.885-124.302-1.367-178.989-1.007l-227.382 1.08c-49.65 1.079-115.13 1.296-102.178-.864 37.993-8.983 360.262-18.283 516.647-21.81h166.219Z" fill="#170139"/><defs><radialGradient id="b" cx="0" cy="0" r="1" gradientUnits="userSpaceOnUse" gradientTransform="matrix(1005.95 0 0 1138.12 417.895 455.456)"><stop stop-color="#4F06BE"/><stop offset=".2601" stop-color="#004E72"/><stop offset=".9575" stop-color="#4F06BE"/></radialGradient><linearGradient id="a" x1="-623.695" y1="144.479" x2="1459.02" y2="144.479" gradientUnits="userSpaceOnUse"><stop/><stop offset=".2046" stop-color="#000304"/><stop offset=".4089" stop-color="#000B10"/><stop offset=".613" stop-color="#001924"/><stop offset=".816" stop-color="#002D40"/><stop offset="1" stop-color="#004360"/></linearGradient></defs></svg>