<svg fill="none" xmlns="http://www.w3.org/2000/svg" xmlns:xlink="http://www.w3.org/1999/xlink" viewBox="0 0 1440 1171"><path d="M1810.02.130249H-272.702V820.527H1810.02V.130249Z" fill="url(#a)"/><path opacity=".2" fill-rule="evenodd" clip-rule="evenodd" d="m1810.02 616.352-2082.722-10.118v48.929L1465.7 600.659l-1738.402 102.45v51.67l2082.722-16.115V616.352Z" fill="url(#b)"/><path fill="url(#c)" d="M-274.742 146.704h2082.87v598.209h-2082.87z"/><g opacity=".3" fill="#6DCAFF"><path d="M516.158 227.046c1.461 0 1.461-2.553 0-2.553-1.461.024-1.461 2.553 0 2.553Zm77.125 109.336c1.461 0 1.461-2.553 0-2.553-1.46 0-1.46 2.553 0 2.553Zm472.497-136.576c.02-.02.02 0 0 0Zm-14.46 90.926c.02-.019.02 0 0 0ZM762.037 442.44c1.46 0 1.46-2.553 0-2.553-1.461 0-1.461 2.553 0 2.553Zm244.923-94.16c1.46 0 1.46-2.553 0-2.553-1.47 0-1.47 2.553 0 2.553Zm266.64-81.72c1.46 0 1.46-2.553 0-2.553-1.48 0-1.48 2.553 0 2.553Zm-31.83 181.829c1.47 0 1.47-2.553 0-2.553-1.46 0-1.48 2.553 0 2.553Zm-782.517 68.207c1.461 0 1.461-2.553 0-2.553s-1.461 2.553 0 2.553ZM203.254 378.591c1.46 0 1.46-2.553 0-2.553-1.461 0-1.482 2.553 0 2.553Zm-83.908 136.364c1.461 0 1.461-2.553 0-2.553-1.46 0-1.46 2.553 0 2.553Zm-17.34-337.68c1.461 0 1.461-2.553 0-2.553s-1.482 2.553 0 2.553Zm679.792 22.718c1.461 0 1.461-2.553 0-2.553s-1.461 2.553 0 2.553Zm118.609-30.847c1.461 0 1.461-2.553 0-2.553-1.46 0-1.46 2.553 0 2.553Zm245.903 352.297c1.46 0 1.46-2.553 0-2.553-1.46.024-1.46 2.553 0 2.553Zm-243.002 118.52c1.461 0 1.461-2.553 0-2.553-1.461.023-1.461 2.553 0 2.553Zm-43.404 84.436c1.461 0 1.461-2.553 0-2.553s-1.461 2.553 0 2.553Zm-303.743-22.74c1.46 0 1.46-2.553 0-2.553-1.461.024-1.461 2.553 0 2.553Zm274.383 29.791c1.461 0 1.461-2.553 0-2.553s-1.461 2.553 0 2.553ZM358.005 573.418c1.461 0 1.461-2.553 0-2.553s-1.461 2.553 0 2.553Zm66.546-276.01c1.461 0 1.461-2.553 0-2.553s-1.461 2.553 0 2.553ZM65.843 359.103c1.4607 0 1.4607-2.553 0-2.553s-1.4607 2.553 0 2.553Zm52.064-172.085c1.46 0 1.46-2.553 0-2.553-1.461 0-1.461 2.553 0 2.553Zm-31.8229-24.361c1.4607 0 1.4607-2.553 0-2.553s-1.4607 2.553 0 2.553Zm-7.2201 79.544c1.4608 0 1.4608-2.553 0-2.553-1.4815 0-1.4815 2.553 0 2.553Zm54.943-12.977c1.461 0 1.461-2.553 0-2.553-1.46 0-1.46 2.553 0 2.553ZM9.41772 460.122c.0188-.019.0188 0 0 0Zm63.64518 170.12c1.4607 0 1.4607-2.554 0-2.554s-1.4607 2.554 0 2.554ZM287.14 613.986c1.461 0 1.461-2.553 0-2.553-1.461.023-1.461 2.553 0 2.553Zm50.624 97.414c1.461 0 1.461-2.553 0-2.553s-1.461 2.553 0 2.553Zm202.496-11.36c1.46 0 1.46-2.553 0-2.553-1.461 0-1.461 2.553 0 2.553Zm-23.144-106.785c-.018-.02-.018 0 0 0Zm124.392 62.963c1.46 0 1.46-2.553 0-2.553-1.461 0-1.461 2.553 0 2.553Zm402.092 73.967c1.46 0 1.46-2.553 0-2.553s-1.46 2.553 0 2.553Zm-72.473-30.824c1.46 0 1.46-2.553 0-2.553-1.461 0-1.482 2.553 0 2.553Zm-239.953-82.119c1.461 0 1.461-2.554 0-2.554s-1.461 2.554 0 2.554Zm-107.028-240.29c1.461 0 1.461-2.553 0-2.553-1.461.023-1.461 2.553 0 2.553Zm104.148-86.033c1.461 0 1.461-2.553 0-2.553-1.46 0-1.46 2.553 0 2.553Zm250.219 259.756c1.461 0 1.461-2.553 0-2.553-1.46 0-1.46 2.553 0 2.553ZM369.586 149.659c1.461 0 1.461-2.553 0-2.553-1.46.023-1.46 2.553 0 2.553ZM359.466 255.2c1.461 0 1.461-2.553 0-2.553s-1.482 2.553 0 2.553Zm-41.964-51.95c1.461 0 1.461-2.553 0-2.553s-1.461 2.553 0 2.553Zm810.008 4.871c1.46 0 1.46-2.553 0-2.553s-1.46 2.553 0 2.553Zm20.24 105.518c1.46 0 1.46-2.554 0-2.554s-1.46 2.554 0 2.554Zm-65.09 97.416c1.46 0 1.46-2.553 0-2.553s-1.46 2.553 0 2.553Zm-141.749-16.233c1.461 0 1.461-2.553 0-2.553s-1.461 2.553 0 2.553Zm-21.702-116.903c1.46 0 1.46-2.553 0-2.553-1.461 0-1.461 2.553 0 2.553Zm96.911-95.772c1.46 0 1.46-2.553 0-2.553s-1.46 2.553 0 2.553Zm208.29 81.158c1.46 0 1.46-2.553 0-2.553-1.46.024-1.46 2.553 0 2.553Zm59.31-76.287c1.46 0 1.46-2.553 0-2.553s-1.46 2.553 0 2.553Zm148.97-24.361c1.46 0 1.46-2.553 0-2.553s-1.46 2.553 0 2.553Zm-44.84 84.416c1.46 0 1.46-2.553 0-2.553-1.47 0-1.47 2.553 0 2.553Zm-20.25 157.494c1.47 0 1.47-2.553 0-2.553-1.46 0-1.46 2.553 0 2.553Zm14.47 118.517c1.46 0 1.46-2.553 0-2.553-1.47 0-1.47 2.553 0 2.553ZM1250.43 628.6c1.47 0 1.47-2.553 0-2.553-1.46 0-1.46 2.553 0 2.553Zm7.25 61.697c1.46 0 1.46-2.553 0-2.553s-1.46 2.553 0 2.553Zm91.12-33.73c-.02-.019-.02 0 0 0Zm-182.25 33.73c1.46 0 1.46-2.553 0-2.553s-1.46 2.553 0 2.553Z"/><path d="M978.513 550.675c1.461 0 1.461-2.553 0-2.553-1.46 0-1.46 2.553 0 2.553Zm-127.269-86.053c1.461 0 1.461-2.553 0-2.553-1.46.024-1.481 2.553 0 2.553ZM645.848 490.62c1.461 0 1.461-2.553 0-2.553s-1.461 2.553 0 2.553Zm-86.787-77.951c1.461 0 1.461-2.553 0-2.553-1.461.023-1.461 2.553 0 2.553Zm46.284 131.518c1.46 0 1.46-2.553 0-2.553-1.461 0-1.461 2.553 0 2.553Zm5.78-71.438c1.461 0 1.461-2.553 0-2.553s-1.461 2.553 0 2.553ZM502.657 654.577c1.461 0 1.461-2.553 0-2.553s-1.461 2.553 0 2.553Zm63.645-8.103c1.461 0 1.461-2.553 0-2.553s-1.482 2.553 0 2.553Zm-115.73-206.19c1.461 0 1.461-2.553 0-2.553-1.46 0-1.46 2.553 0 2.553Zm-73.765-1.639c1.46 0 1.46-2.553 0-2.553-1.461.023-1.461 2.553 0 2.553Zm350.048-95.772c1.46 0 1.46-2.553 0-2.553-1.482 0-1.482 2.553 0 2.553ZM655.969 219.48c1.46 0 1.46-2.553 0-2.553-1.461 0-1.461 2.553 0 2.553Zm216.956 60.08c1.461 0 1.461-2.553 0-2.553s-1.461 2.553 0 2.553Zm208.295-40.592c1.46 0 1.46-2.553 0-2.553s-1.48 2.553 0 2.553ZM794.11 368.026c1.461 0 1.461-2.553 0-2.553s-1.482 2.553 0 2.553Zm-13.021 21.103c1.46 0 1.46-2.553 0-2.553-1.461 0-1.461 2.553 0 2.553Zm5.78-21.901c1.461 0 1.461-2.553 0-2.553s-1.461 2.553 0 2.553Zm-27.482 20.286c1.46 0 1.46-2.553 0-2.553-1.461 0-1.461 2.553 0 2.553Zm-28.213 30.846c1.461 0 1.461-2.553 0-2.553s-1.461 2.553 0 2.553Zm-2.149-36.537c1.46 0 1.46-2.553 0-2.553-1.482.023-1.482 2.553 0 2.553Zm31.801 25.178c1.461 0 1.461-2.553 0-2.553-1.46 0-1.46 2.553 0 2.553Zm-14.46 15.411c1.46 0 1.46-2.553 0-2.553-1.461 0-1.461 2.553 0 2.553Zm-5.05-16.23c1.46 0 1.46-2.553 0-2.553-1.461 0-1.461 2.553 0 2.553Zm-24.603 42.207c1.461 0 1.461-2.553 0-2.553s-1.461 2.553 0 2.553Zm-39.773 32.488c1.461 0 1.461-2.553 0-2.553-1.46 0-1.46 2.553 0 2.553Zm-77.376 51.948c1.461 0 1.461-2.553 0-2.553-1.46 0-1.46 2.553 0 2.553Zm13.022-25.177c1.46 0 1.46-2.553 0-2.553-1.461 0-1.482 2.553 0 2.553Zm-26.043 13.795c1.461 0 1.461-2.553 0-2.553-1.46.024-1.46 2.553 0 2.553Zm-13.73 22.744c1.46 0 1.46-2.553 0-2.553-1.482 0-1.482 2.553 0 2.553Zm-26.043 4.873c1.461 0 1.461-2.553 0-2.553-1.46 0-1.46 2.553 0 2.553Zm-6.51 15.41c1.46 0 1.46-2.553 0-2.553-1.461 0-1.461 2.553 0 2.553Zm7.241 8.948c1.46 0 1.46-2.553 0-2.553-1.482 0-1.482 2.553 0 2.553Zm8.66-9.744c1.46 0 1.46-2.553 0-2.553-1.461 0-1.461 2.553 0 2.553Zm-6.511-4.074c1.461 0 1.461-2.553 0-2.553s-1.461 2.553 0 2.553Zm-22.411 28.41c1.46 0 1.46-2.553 0-2.553-1.461.023-1.461 2.553 0 2.553Zm-26.043.821c1.461 0 1.461-2.553 0-2.553-1.46 0-1.46 2.553 0 2.553Zm-13 23.539c1.461 0 1.461-2.553 0-2.553s-1.482 2.553 0 2.553Zm-44.844 22.745c1.461 0 1.461-2.553 0-2.553-1.46 0-1.46 2.553 0 2.553Zm-34.723 51.128c1.461 0 1.461-2.553 0-2.553s-1.461 2.553 0 2.553Zm-8.681-15.433c1.461 0 1.461-2.553 0-2.553-1.46.023-1.46 2.553 0 2.553Zm647.492-106.972c1.46 0 1.46-2.553 0-2.553s-1.46 2.553 0 2.553ZM703.087 766.207c1.461 0 1.461-2.553 0-2.553s-1.461 2.553 0 2.553Zm57.03-75.676c1.461 0 1.461-2.553 0-2.553s-1.461 2.553 0 2.553Zm-382.58-5.903c1.461 0 1.461-2.553 0-2.553s-1.461 2.553 0 2.553Zm9.411 33.286c1.461 0 1.461-2.553 0-2.553s-1.482 2.553 0 2.553Zm176.474-4.313c1.461 0 1.461-2.553 0-2.553-1.46 0-1.46 2.553 0 2.553Zm-106.339-39.535c1.461 0 1.461-2.553 0-2.553s-1.461 2.553 0 2.553Zm-44.134 69.07c1.46 0 1.46-2.553 0-2.553-1.461 0-1.461 2.553 0 2.553Zm36.914-145.383c1.461 0 1.461-2.553 0-2.553s-1.461 2.553 0 2.553Zm685.297 66.64c1.46 0 1.46-2.553 0-2.553s-1.46 2.553 0 2.553Zm-802.029-6.911c1.461 0 1.461-2.554 0-2.554-1.46 0-1.46 2.554 0 2.554Zm92.129-34.549c1.461 0 1.461-2.553 0-2.553-1.46 0-1.46 2.553 0 2.553Zm43.404-13c1.461 0 1.461-2.553 0-2.553s-1.461 2.553 0 2.553Zm375.339-302.782c1.461 0 1.461-2.553 0-2.553s-1.461 2.553 0 2.553ZM800.62 279.56c1.461 0 1.461-2.553 0-2.553-1.46 0-1.481 2.553 0 2.553Zm13.731 34.079c1.461 0 1.461-2.554 0-2.554s-1.461 2.554 0 2.554Zm21.702 38.975c1.461 0 1.461-2.553 0-2.553s-1.461 2.553 0 2.553Zm28.922-30.845c1.461 0 1.461-2.554 0-2.554s-1.461 2.554 0 2.554Zm-27.482 4.05c1.46 0 1.46-2.553 0-2.553-1.461 0-1.461 2.553 0 2.553Zm-16.631.819c1.46 0 1.46-2.553 0-2.553-1.461 0-1.461 2.553 0 2.553Zm7.24-112.848c1.461 0 1.461-2.553 0-2.553-1.46 0-1.481 2.553 0 2.553Zm19.511-57.621c1.461 0 1.461-2.553 0-2.553-1.46 0-1.46 2.553 0 2.553Zm52.085 26.773c1.461 0 1.461-2.553 0-2.553s-1.482 2.553 0 2.553Zm-29.652.821c1.46 0 1.46-2.553 0-2.553-1.461 0-1.461 2.553 0 2.553Zm29.652 46.281c1.461 0 1.461-2.553 0-2.553s-1.482 2.553 0 2.553Zm-.73 60.055c1.46 0 1.46-2.553 0-2.553-1.461 0-1.461 2.553 0 2.553Zm37.602-1.615c1.461 0 1.461-2.553 0-2.553-1.46 0-1.46 2.553 0 2.553Zm24.603-88.491c1.461 0 1.461-2.553 0-2.553-1.482 0-1.482 2.553 0 2.553Zm-23.872-32.463c1.46 0 1.46-2.553 0-2.553-1.461 0-1.461 2.553 0 2.553Zm-5.78 44.643c1.46 0 1.46-2.553 0-2.553-1.461 0-1.482 2.553 0 2.553Zm-23.142-8.128c1.461 0 1.461-2.553 0-2.553-1.482.023-1.482 2.553 0 2.553Zm18.801-33.26c1.461 0 1.461-2.553 0-2.553s-1.481 2.553 0 2.553Zm-42.673 39.772c1.46 0 1.46-2.553 0-2.553-1.461 0-1.461 2.553 0 2.553Zm11.56 47.08c1.461 0 1.461-2.553 0-2.553s-1.461 2.553 0 2.553Zm34.723-10.564c1.461 0 1.461-2.553 0-2.553s-1.461 2.553 0 2.553Zm-41.943 3.256c1.461 0 1.461-2.553 0-2.553s-1.461 2.553 0 2.553Zm11.56 64.951c1.461 0 1.461-2.553 0-2.553-1.46 0-1.46 2.553 0 2.553Zm-11.56 29.208c1.461 0 1.461-2.553 0-2.553s-1.461 2.553 0 2.553Zm-26.773 0c1.461 0 1.461-2.553 0-2.553-1.46 0-1.46 2.553 0 2.553Zm-9.39 38.152c1.461 0 1.461-2.553 0-2.553s-1.461 2.553 0 2.553Zm-35.433 2.439c1.461 0 1.461-2.553 0-2.553-1.46 0-1.46 2.553 0 2.553Zm-5.07-14.616c1.46 0 1.46-2.553 0-2.553-1.461 0-1.461 2.553 0 2.553Zm-73.036-95.776c1.461 0 1.461-2.553 0-2.553-1.46 0-1.46 2.553 0 2.553Zm8.681 35.72c1.461 0 1.461-2.553 0-2.553-1.46 0-1.481 2.553 0 2.553Zm-27.482.798c1.461 0 1.461-2.553 0-2.553s-1.482 2.553 0 2.553Zm-26.773 6.51c1.461 0 1.461-2.553 0-2.553-1.46 0-1.46 2.553 0 2.553Zm10.851 47.43c.019-.02.019 0 0 0Zm9.412 14.241c1.46 0 1.46-2.553 0-2.553-1.461.024-1.461 2.553 0 2.553Zm-17.362 17.053c1.461 0 1.461-2.553 0-2.553s-1.461 2.553 0 2.553Zm-21.702-17.053c1.461 0 1.461-2.553 0-2.553-1.461.024-1.461 2.553 0 2.553Zm18.092-28.411c1.461 0 1.461-2.553 0-2.553-1.461.023-1.482 2.553 0 2.553Zm67.964 89.309c1.461 0 1.461-2.553 0-2.553-1.46 0-1.46 2.553 0 2.553Zm-24.581-3.253c1.461 0 1.461-2.553 0-2.553s-1.461 2.553 0 2.553Zm48.454 17.871c1.46 0 1.46-2.553 0-2.553-1.461 0-1.461 2.553 0 2.553Zm10.85-44.666c1.461 0 1.461-2.554 0-2.554-1.46.024-1.46 2.554 0 2.554Zm72.326 6.509c1.461 0 1.461-2.553 0-2.553-1.46 0-1.46 2.553 0 2.553Zm-88.957 61.694c1.461 0 1.461-2.553 0-2.553-1.46 0-1.46 2.553 0 2.553Zm-38.333 17.029c1.461 0 1.461-2.553 0-2.553-1.46.024-1.46 2.553 0 2.553Zm3.61 30.847c1.461 0 1.461-2.553 0-2.553-1.46.024-1.46 2.553 0 2.553Zm29.653.82c1.46 0 1.46-2.553 0-2.553-1.461 0-1.461 2.553 0 2.553Zm48.453-82.799c1.461 0 1.461-2.553 0-2.553-1.46 0-1.46 2.553 0 2.553Zm372.689-130.697c1.46 0 1.46-2.554 0-2.554s-1.46 2.554 0 2.554Zm16.4 43.31c1.46 0 1.46-2.553 0-2.553s-1.46 2.553 0 2.553Zm-52.06 49.771c1.46 0 1.46-2.553 0-2.553s-1.48 2.553 0 2.553Zm-37.63-36.795c1.47 0 1.47-2.553 0-2.553-1.46 0-1.46 2.553 0 2.553Zm41.47 55.208c1.46 0 1.46-2.553 0-2.553s-1.46 2.553 0 2.553Zm9.66-18.413c1.46 0 1.46-2.553 0-2.553s-1.48 2.553 0 2.553Zm18.32 20.565c1.46 0 1.46-2.553 0-2.553s-1.48 2.553 0 2.553Zm218.88-11.898c1.46 0 1.46-2.553 0-2.553s-1.46 2.553 0 2.553Zm-21.2 17.309c1.46 0 1.46-2.553 0-2.553s-1.49 2.553 0 2.553ZM697.578 693.061c1.461 0 1.461-2.553 0-2.553-1.482.023-1.482 2.553 0 2.553ZM448.757 763.28c1.461 0 1.461-2.553 0-2.553-1.461.024-1.461 2.553 0 2.553Zm205.271-20.611c1.461 0 1.461-2.553 0-2.553s-1.461 2.553 0 2.553Zm325.8-91.816c1.461 0 1.461-2.553 0-2.553-1.461.023-1.481 2.553 0 2.553ZM1078.3 699.9c1.46 0 1.46-2.553 0-2.553s-1.46 2.553 0 2.553Zm135.8-192.697c1.47 0 1.47-2.553 0-2.553-1.46 0-1.46 2.553 0 2.553Zm-25.85 77.036c1.46 0 1.46-2.553 0-2.553s-1.46 2.553 0 2.553Zm-76.19-48.718c1.46 0 1.46-2.553 0-2.553s-1.46 2.553 0 2.553Zm-74.24 23.82c1.46 0 1.46-2.553 0-2.553s-1.46 2.553 0 2.553Zm10.62 42.209c1.46 0 1.46-2.553 0-2.553-1.48 0-1.48 2.553 0 2.553Zm-26.04 15.155c1.46 0 1.46-2.553 0-2.553s-1.46 2.553 0 2.553Zm14.46 35.717c1.46 0 1.46-2.553 0-2.553s-1.46 2.553 0 2.553Zm-1.92 20.567c1.46 0 1.46-2.553 0-2.553s-1.48 2.553 0 2.553Zm47.72-101.537c1.46 0 1.46-2.553 0-2.553s-1.46 2.553 0 2.553Zm29.4 23.608c1.46 0 1.46-2.553 0-2.553s-1.46 2.553 0 2.553Zm-31.82-97.413c1.46 0 1.46-2.553 0-2.553s-1.46 2.553 0 2.553Zm-57.84-59.54c1.46 0 1.46-2.553 0-2.553s-1.46 2.553 0 2.553Zm-39.546 38.974c1.461 0 1.461-2.553 0-2.553s-1.461 2.553 0 2.553ZM1006 483.57c1.46 0 1.46-2.553 0-2.553s-1.46 2.553 0 2.553Zm-86.791 61.694c1.46 0 1.46-2.553 0-2.553-1.461 0-1.461 2.553 0 2.553Zm-35.662-9.743c1.46 0 1.46-2.553 0-2.553-1.461 0-1.482 2.553 0 2.553Zm-67.506 9.743c1.461 0 1.461-2.553 0-2.553-1.46 0-1.46 2.553 0 2.553Zm16.402 42.208c1.461 0 1.461-2.554 0-2.554-1.482 0-1.482 2.554 0 2.554Zm-41.484-14.054c1.461 0 1.461-2.553 0-2.553s-1.461 2.553 0 2.553Zm-79.066-31.41c1.461 0 1.461-2.553 0-2.553-1.461.024-1.461 2.553 0 2.553Zm69.425 75.772c1.461 0 1.461-2.553 0-2.553-1.46 0-1.46 2.553 0 2.553Zm37.624 8.669c1.461 0 1.461-2.553 0-2.553s-1.482 2.553 0 2.553Zm69.425 0c1.461 0 1.461-2.553 0-2.553s-1.461 2.553 0 2.553Zm-55.924 58.438c1.461 0 1.461-2.553 0-2.553-1.482 0-1.482 2.553 0 2.553Zm73.265 35.72c1.46 0 1.46-2.553 0-2.553-1.461 0-1.461 2.553 0 2.553Zm67.505-58.441c1.461 0 1.461-2.553 0-2.553-1.46 0-1.46 2.553 0 2.553Zm-13.501-60.616c1.461 0 1.461-2.553 0-2.553s-1.461 2.553 0 2.553Zm-552.523-80.107c1.461 0 1.461-2.553 0-2.553-1.46.024-1.46 2.553 0 2.553Zm13.021 34.104c1.461 0 1.461-2.553 0-2.553-1.46 0-1.46 2.553 0 2.553Zm-65.084-47.078c1.46 0 1.46-2.553 0-2.553-1.461 0-1.482 2.553 0 2.553Zm27.482 76.309c1.46 0 1.46-2.553 0-2.553-1.461 0-1.482 2.553 0 2.553Zm99.787-84.439c1.461 0 1.461-2.553 0-2.553-1.461.024-1.461 2.553 0 2.553Zm41.943-56.823c1.461 0 1.461-2.553 0-2.553-1.461.023-1.461 2.553 0 2.553Zm-244.439-25.974c1.461 0 1.461-2.553 0-2.553s-1.461 2.553 0 2.553Zm-67.985 163.982c1.46 0 1.46-2.554 0-2.554-1.461 0-1.461 2.554 0 2.554Zm4.34-102.288c1.461 0 1.461-2.553 0-2.553s-1.461 2.553 0 2.553Zm36.163-21.103c1.461 0 1.461-2.553 0-2.553s-1.461 2.553 0 2.553Zm-17.341-102.287c1.461 0 1.461-2.553 0-2.553-1.481 0-1.481 2.553 0 2.553Zm-60.765 40.593c1.461 0 1.461-2.553 0-2.553s-1.461 2.553 0 2.553Zm20.262 21.103c1.461 0 1.461-2.553 0-2.553s-1.461 2.553 0 2.553Zm36.163-45.441c1.461 0 1.461-2.553 0-2.553s-1.482 2.553 0 2.553Zm30.362-73.076c1.46 0 1.46-2.553 0-2.553-1.461 0-1.461 2.553 0 2.553Zm-109.929 45.463c1.461 0 1.461-2.553 0-2.553s-1.461 2.553 0 2.553Zm17.362-68.183c1.46 0 1.46-2.553 0-2.553-1.461 0-1.461 2.553 0 2.553Zm-70.8656 4.87c1.4607 0 1.4607-2.553 0-2.553s-1.4816 2.553 0 2.553ZM49.9211 349.36c1.4607 0 1.4607-2.553 0-2.553s-1.4607 2.553 0 2.553Zm-37.6027-90.904c1.4607 0 1.4607-2.553 0-2.553s-1.4607 2.553 0 2.553Zm487.4376 87.669c1.461 0 1.461-2.553 0-2.553-1.46 0-1.46 2.553 0 2.553Zm-143.191 3.235c1.461 0 1.461-2.553 0-2.553-1.46 0-1.46 2.553 0 2.553Zm30.383 17.868c1.461 0 1.461-2.553 0-2.553s-1.482 2.553 0 2.553ZM44.1408 636.729c1.4607 0 1.4607-2.553 0-2.553s-1.4607 2.553 0 2.553ZM1237.43 357.485c1.47 0 1.47-2.553 0-2.553-1.46 0-1.48 2.553 0 2.553Zm13-22.741c1.47 0 1.47-2.553 0-2.553-1.46 0-1.46 2.553 0 2.553Zm-59.28 16.231c1.46 0 1.46-2.553 0-2.553-1.46.023-1.48 2.553 0 2.553Zm17.34 48.719c1.46 0 1.46-2.553 0-2.553s-1.46 2.553 0 2.553Zm49.19 6.488c1.46 0 1.46-2.553 0-2.553s-1.46 2.553 0 2.553Zm44.84-61.323c-.02-.02-.02 0 0 0Zm-17.36-18.221c1.46 0 1.46-2.553 0-2.553s-1.46 2.553 0 2.553Z"/></g><path fill-rule="evenodd" clip-rule="evenodd" d="M1620.68 499.99-83.3582 521.913l640.2832 2.6-108.004 3.888-144.379 4.872 1505.478-1.241-189.34-32.042Z" fill="url(#d)"/><path fill-rule="evenodd" clip-rule="evenodd" d="m605.7 557.281 252.549 7.987 232.921-10.892-485.47 2.905Z" fill="url(#e)"/><path opacity=".5" d="M65.114 611.281c101.683 0 184.114-93.261 184.114-208.305 0-115.043-82.431-208.305-184.114-208.305C-36.5694 194.671-119 287.933-119 402.976c0 115.044 82.4306 208.305 184.114 208.305Z" fill="url(#f)"/><path fill-rule="evenodd" clip-rule="evenodd" d="M192.938 522.22c2.519-1.71 5.191-2.429 7.994-2.181.46 3.469 2.475 4.312.636 7.88-1.358 2.652-2.76 6.295-5.695 6.79-.92.149-2.804-.099-3.592-.669-1.292-.917-1.161-1.412-1.402-3.221-.438-3.024.964-8.376 3.702-9.937l-1.643 1.338Zm14.28-32.611c1.534.768 3.198 2.354 4.447.619.613-.867.635-2.453.635-3.494 0-1.487-.197-3.841-1.665-4.46-.985-.422-1.686.272-2.3 1.139-1.226 1.785-.81 5.105.373 6.766l-1.49-.57Zm-105.461 89.605c1.533.769 3.198 2.355 4.446.62.614-.867.635-2.453.635-3.494 0-1.487-.197-3.841-1.664-4.461-.986-.421-1.709.273-2.3 1.14-1.226 1.785-.81 5.105.372 6.765l-1.489-.57ZM-.112396 566.031c3.854876-1.784 10.841796-5.824 13.689196 0 1.9055 3.866-1.2266 6.938-4.07392 8.376-3.21969 1.635-7.03074 2.825-10.250439.694-1.598891-1.066-2.474991-3.371-2.453091-5.477.0219-4.46 3.329207-6.121 6.63651-7.038l-3.548256 3.445ZM31.756 599.783c-3.0883-1.214-8.1478-3.321-9.3305-7.285-.9199-3.123 1.8836-5.229 4.2929-5.725 3.8549-.768 8.0164-.223 11.8275.57 2.1902.446 4.2929 1.016 6.3955 1.859 1.577.644 3.1978.842 4.7529 1.611 1.6208.793 4.4682 1.982 3.7235 4.658-.6571 2.429-4.0739 3.445-5.8699 4.114-2.9131 1.09-5.9357 2.453-9.0459 2.255-1.9493-.124-3.9862-.521-5.9137-.867-3.373-.595-5.9794-2.231-.8323-1.19ZM-1.44841 520.51c-.35044 1.562-.50374 3.147-.45994 4.758 2.91306.05 2.080739-4.683.45994-5.898v1.14Z" fill="#979AC7"/><path d="M10.2163 345.612c8.4838 0 15.3612-6.889 15.3612-15.388 0-8.499-6.8774-15.389-15.3612-15.389-8.48371 0-15.36114 6.89-15.36114 15.389 0 8.499 6.87743 15.388 15.36114 15.388Z" fill="url(#g)"/><path fill-rule="evenodd" clip-rule="evenodd" d="M3.03265 330.223c0 3.982 3.22957 7.215 7.20445 7.215 3.9748 0 7.2044-3.233 7.2044-7.215 0-3.981-3.2296-7.214-7.2044-7.214-3.99558 0-7.20445 3.233-7.20445 7.214Z" fill="url(#h)"/><path fill-rule="evenodd" clip-rule="evenodd" d="M151.448 617.594c0 8.502 6.873 15.388 15.361 15.388s15.361-6.886 15.361-15.388c0-8.503-6.873-15.389-15.361-15.389s-15.361 6.886-15.361 15.389Z" fill="url(#i)"/><path fill-rule="evenodd" clip-rule="evenodd" d="M159.605 617.593c0 3.982 3.229 7.215 7.204 7.215 3.975 0 7.205-3.233 7.205-7.215 0-3.981-3.23-7.214-7.205-7.214s-7.204 3.233-7.204 7.214Z" fill="url(#j)"/><path fill-rule="evenodd" clip-rule="evenodd" d="M1178.68 236.23c0 8.502 6.87 15.388 15.36 15.388 8.49 0 15.36-6.886 15.36-15.388 0-8.503-6.87-15.389-15.36-15.389-8.49-.023-15.36 6.886-15.36 15.389Z" fill="url(#k)"/><path fill-rule="evenodd" clip-rule="evenodd" d="M1186.84 236.229c0 3.982 3.23 7.214 7.2 7.214 3.98 0 7.21-3.232 7.21-7.214s-3.23-7.214-7.21-7.214c-3.97 0-7.2 3.232-7.2 7.214Z" fill="url(#l)"/><path fill-rule="evenodd" clip-rule="evenodd" d="M555.89 447.664c0 8.503 6.873 15.389 15.361 15.389s15.361-6.886 15.361-15.389c0-8.502-6.873-15.388-15.361-15.388s-15.361 6.886-15.361 15.388Z" fill="url(#m)"/><path d="M571.251 454.878c3.979 0 7.205-3.23 7.205-7.214 0-3.984-3.226-7.214-7.205-7.214s-7.204 3.23-7.204 7.214c0 3.984 3.225 7.214 7.204 7.214Z" fill="url(#n)"/><path d="M1033.72 470.242c5.39 0 9.75-4.373 9.75-9.767 0-5.394-4.36-9.767-9.75-9.767-5.38 0-9.75 4.373-9.75 9.767 0 5.394 4.37 9.767 9.75 9.767Z" fill="url(#o)"/><path fill-rule="evenodd" clip-rule="evenodd" d="M1029.15 460.474c0 2.529 2.05 4.59 4.57 4.59 2.53 0 4.58-2.061 4.58-4.59 0-2.53-2.05-4.591-4.58-4.591-2.52 0-4.57 2.061-4.57 4.591Z" fill="url(#p)"/><path fill-rule="evenodd" clip-rule="evenodd" d="m395.84 454.316 424.875-3.115-102.498-2.038s-23.124-56.799-114.463-6.301c0 0-2.96-12.203-32.13 4.544l-175.784 6.91Z" fill="url(#q)"/><path fill-rule="evenodd" clip-rule="evenodd" d="m776.308 450.569 581.572 1.874-109.99-5.551s-42.84-76.193-100.62-70.127c-57.76 6.066-108.6 65.864-108.6 65.864s-9.88-25.437-44.862 1.288c0 0-40.867-28.997-77.614-17.754-36.746 11.243-53.101 21.572-53.101 21.572l-86.785 2.834Z" fill="url(#r)"/><path fill-rule="evenodd" clip-rule="evenodd" d="m1357.88 452.442-581.572-1.874s387.732 14.007 581.572 1.874Z" fill="#004874"/><g opacity=".3" fill-rule="evenodd" clip-rule="evenodd"><path d="M-112.428 948.559-9.66115 905.79l8.42589-.094L289.737 722.157l83.223 75.749 7.888 3.115 103.926 79.59 7.908 3.115 32.4 18.785 51.362 13.397-139.948-43.566 4.492-.679 69.002-48.742 15.03-7.589 74.28 62.632 4.865-.539 13.311 20.425 18.674 13.913 120.281-174.662h5.734l74.57-125.1 7.143-4.544 46.062 68.863 3.479 1.007 174.171 228.486 5.86 1.171 136.8-63.943 9.48-.89 167.52 139.481 106.7-101.49 6.32.469 156.47-131.447 107.71 63.475v350.421l-1876.878-.51V948.559Z" fill="url(#s)"/><path d="m843.878 607.457 52.625 101.467-44.261-75.538-11.842 4.029 51.756 111.749-33.186-63.475-28.445 45.603 5.921 65.255-5.921 2.694-13.043-29.512-6.873 3.583 22.793 90.645-111.648 104.722-78.627-66.332 113.304-165.246 39.314 99.241-33.58-99.241 74.571-125.1 7.142-4.544Zm155.371 268.165L896.503 708.924l53.744 91.208-2.36 3.583 28.445 57.315 22.917 14.592ZM289.737 722.158l48.05 70.127-48.05-57.432-6.48 2.249 30.433 40.685-23.311-20.565-32.4 25.929 39.894 81.955-24.098-39.936-4.74.446 18.59 29.09-54.136 50.897-62.439-90.27-6.894 5.364 35.898 54.926-114.0286-24.969L289.737 722.158Zm929.993 119.993 23.97 26.819-18.17-13.398-5.8-1.803 32.4 59.915-32.4 9.837-46.89-53.052-4.31.586 7.21 9.088-12.13-12.649-8.53 1.336 28.3 44.245-46.38 2.389-21.59-28.599 94.84-43.824 9.48-.89Z" fill="#fff"/><path opacity=".5" d="M756.431 737.101 813.3 882.812l-56.869 53.333-29.046-137.794 18.508 147.655-9.233 8.69-30.205-145.173 49.976-72.422Z" fill="#fff"/><path d="m836.735 612.002 3.665 25.413 51.756 111.749-33.186-63.475-28.445 45.604-17.225-56.331 23.146 121.586-5.921 2.693-13.043-29.512-22.897-87.015 42.15-70.712Z" fill="#fff"/><path opacity=".5" d="m245.413 750.101 52.46 115.004-24.098-39.935-28.362-43.589 23.621 44.034 18.591 29.091-26.623 25.015-45.711-93.456 39.231 99.546-10.434 9.814-46.725-115.216 48.05-30.308Z" fill="#fff"/><path d="m1429.05 941.886 64.9-61.742 91.28 109.453-84.96-108.984 156.47-131.448 40.04 29.817-10 35.743-39.09-24.781-3.93-.07 65.15 63.006-74.3 54.832-57.83-65.559h-5.83l82.23 114.302-65.98-80.831-34.91-10.517 145.54 182.203-135.1 26.07-102.23-111.234 58.73 74.854-90.18-95.114Z" fill="#fff"/></g><path fill-rule="evenodd" clip-rule="evenodd" d="m1600.53 674.088-289.04 157.353h-10.54l-241.56-63.452h-8.42l-101.693-62.468-121.42 68.698-5.279.609-63.287 43.754-4.285-1.593-135.829-157.493-4.161.539-101.421-126.154h-10.289l-84.279 128.543-8.695 8.034-62.915 97.625-138.644-22.158-3.788-4.778-274.0586-87.343-7.4115 2.998-74.6109 115.099-68.588 29.746-56.662-79.871v251.16l2085.416 40.914V840.833l-179.22-122.64-8.45-5.692-20.87-38.413Z" fill="#00061A"/><path fill-rule="evenodd" clip-rule="evenodd" d="m619.177 659.497 10.062 14.849 42.667 104.043-50.576-48.274-13.891-6.862-2.174 6.558 6.584 22.65-10.538-22.65 13.705-69.776 4.161-.538Z" fill="#fff"/><path fill-rule="evenodd" clip-rule="evenodd" d="m684.845 834.603-64.777-107.908-4.369-15.178 43.061 54.95 96.536 51.107-136.284-158.101-26.479 16.348 19.937-17.52-98.689-124.42h-10.289l-25.94 38.928 20.827-27.591 7.246-2.858 8.943 16.091-19.419 67.738 8.157-35.087-19.17 65.021 15.816-25.905 14.616 124.818-52.584 89.287 222.861-9.72Zm-178.91-32.956h-6.645l9.481-8.362 3.81-1.803-6.646 10.165Zm77.365-12.226 4.762-2.39-4.762 41.13h-13.436l13.436-38.74ZM504.341 624.69l14.45-68.159 4.472-3.162-5.01 66.145-13.912 5.176Zm12.856 135.523 13.167-4.451-25.795 37.851-9.751 5.95 22.379-39.35Z" fill="#fff"/><path fill-rule="evenodd" clip-rule="evenodd" d="m537.693 665.985 8.301 7.167 35.96 90.645-40.7-85.726-3.561-12.086Zm202.718 186.419-68.505-74.015 45.566 57.385-11.324-4.474 9.337 20.003 24.926 1.101Zm87.426-78.161 33.848 83.454 99.02 4.287-38.01-53.778 49.52-29.794 10.269 15.787-17.908-23.376 11.862.305 38.982 28.435-73.099-73.875 6.956-20.143-121.44 68.698Zm123.365-29.512 9.275 3.583 12.773 17.122h-6.832l-15.216-20.705Zm-29.584 76.427 1.864-4.005 5.527 8.034-3.685 1.78-3.706-5.809Zm-22.586-49.046 8.24 5.317 19.419 24.804h-5.073l-22.586-30.121Zm-76.454 2.716 32.648 82.564-77.945-4.989-17.99-33.822 27.514-19.019 20.453 44.761-13.042-49.89 28.362-19.605Zm228.392-6.838 142.18 104.113 20 .866-153.76-104.979h-8.42Zm260.52 63.45 39.87 47.548 64.67 2.834-45.79-64.67 10.85-1.756 64.07 67.667 140.03 6.114-76.66-158.43 27.68-11.665 100.99 149.881 16.72 1.358-85.31-139.574 6.33-4.052 38.7 32.182-13.09-84.813-289.06 157.376Zm83.55-34.454 4.76-3.537 20.99 23.703 15.41 40.428-41.16-60.594ZM208.773 745.924l47.595 53.638-31.219-43.378 7.411 1.358 61.341 57.854 53.516-47.314-138.644-22.158ZM36.4672 687.439l71.7128 87.389-71.7128-63.311-64.2188-20.143L77.6235 824.297l-69.58068-3.795-49.47872-93.807 40.01773 93.386-19.43953-.844-74.0525-120.321-6.6038 4.965 51.6108 113.272L-151.096 771.9l74.611-115.098 7.4114-2.998 105.5408 33.635Z" fill="#fff"/><path fill-rule="evenodd" clip-rule="evenodd" d="m164.677 827.318-56.497-52.49 43.869 51.951 12.628.539ZM97.9119 726.695l10.2681 4.052 35.567 49.914-45.8351-53.966Z" fill="#fff"/><path fill-rule="evenodd" clip-rule="evenodd" d="m1505.12 885.992-12.38-13.023-33.46 4.38-3.27 5.2-3.73-.445-6.58-4.614-16.19 3.279-10.95 1.148-17.64-2.436-2.75-3.467-5.94-1.639-13.05 5.106-3.81-1.546-14.78 1.452 144.53 6.605Zm-377.08-16.724-12.67-7.284h-20.14l-63.62 3.654 96.43 3.63Z" fill="#4F8DF4"/><path fill-rule="evenodd" clip-rule="evenodd" d="m410.311 670.457 14.223 5.364 30.68 109.125-32.771-76.896-3.685.609 49.81 124.772h-19.523l-38.734-162.974Zm211.019 59.658 48.775 46.564-28.279-54.996-23.394-51.225 10.807 3.888-10.062-14.849-4.161.538-10.931 60.407 3.354 2.811 13.891 6.862Zm-224.31-3.42 38.589 105.8-29.749-.844-23.456-67.855-4.223-1.194 24.222 68.956-35.008-.984-2.132-50.967 31.757-52.912Zm575.195 51.716-21.013-33.681 9.275 3.607 15.961 22.79 12.236.843 5.051 1.475-51.404-47.781 6.956-20.144-58.236 32.815 16.231 39.092-20.992-36.258-15.03 8.503 57.759 96.852 22.193.632-28.507-38.952 35.505-21.361-31.509-42.113 33.848 40.708 11.676-7.027Zm-97.715-7.728-46.663 3.56 27.389 70.08 38.734 1.218-25.547-72.797.787 8.315 32.399 64.482h13.705L874.5 770.683Zm525.68 12.485-.36 10.282 21 23.704 16.72 43.355 18.47.984-28.09-83.384 33.78 83.384h15.22l-40.7-89.053 93.68 91.161h24.61L1436.22 763.54l-36.04 19.628Zm-34.89 19.064 4.95 14.92 30.22 42.536-47.8-1.125-12.46-38.483 10.37 38.437-16.79-.492-22.29-26.585 53.8-29.208ZM77.6234 824.297-54.0851 658.582l-14.9886-4.778-7.4114 2.998-22.4621 34.642 78.0894 127.793 7.3493.844-56.1241-119.76 24.5116 31.293 36.35339 88.162 7.34936.305-36.85025-93.386 46.31122 93.807 52.19078 3.795-94.0303-134.375L70.2534 822.118l7.37 2.179Z" fill="#fff"/><path fill-rule="evenodd" clip-rule="evenodd" d="m1809.07 874.446-2085.416-66.333v230.477H1809.07V874.446Z" fill="#4F8DF4"/><path fill-rule="evenodd" clip-rule="evenodd" d="m1601.13 865.639-1877.476-57.526 1877.476 81.768v-24.242Z" fill="#7AA9F7"/><path opacity=".2" fill-rule="evenodd" clip-rule="evenodd" d="m627.127 837.953-45.173-74.156 53.475 74.39-8.302-.234ZM1015.4 799.54l42.05 50.64-6.48-.188-35.57-50.452Z" fill="#223995"/><path fill-rule="evenodd" clip-rule="evenodd" d="m1050.97 781.621-9.88 25.086 16.92 34.876-10.6-29.981 11.86 20.143-4.95-45.603-3.35-4.521Zm-478.642-9.954-15.279 35.93 15.279-8.058v-27.872Zm-441.686-21.244 38.134 56.94 83.7 16.302-78.69-18.059 78.69 12.063-6.646-15.834-115.188-51.412Z" fill="#fff"/><path opacity=".5" d="M730.985 1147.7c545.185 0 987.145-213.695 987.145-477.308 0-263.612-441.96-477.312-987.145-477.312-545.186 0-987.146 213.7-987.146 477.312 0 263.613 441.96 477.308 987.146 477.308Z" fill="url(#t)"/><path d="M1814.6 1170.09H-272.206l-4.596-362.796 1896.342 38.015h195.06v324.781Z" fill="url(#u)"/><path d="M534.484 921.572c191.31 12.601 374.63-3.303 468.186 0 93.53 3.302 549.63 31.315 620.68 60.664 71.05 29.344-1010.28 103.154-1010.28 103.154h1206.02s-311.55-27.36-296.9-42.86c14.66-15.49 128.92-58.842 127.49-63.995-1.43-5.153-341.32-43.355-342.02-49.539-.71-6.183-396.227-17.543-418.793-18.574-22.565-1.03-305.174-15.482-305.174-15.482l-364.714 16.513-498.658-16.513-10.165 16.513 824.328 10.119Z" fill="url(#v)"/><path d="M-297.897 948.392s497.872 41.669 685.207 33.846c187.336-7.823 810.31 3.092 815.32 34.802 5.01 31.69-657.609 84.35-657.609 84.35L-308 1093.64l10.103-145.248Z" fill="url(#w)"/><path d="M1828.3 889.227c-164.85-5.224-727.01-22.627-998.248-24.782-319.976-2.553-1103.645 15.53-1103.645 15.53v-27.334l2089.263 3.396 12.63 33.19Z" fill="url(#x)"/><path fill-rule="evenodd" clip-rule="evenodd" d="m1856 1002.96-40.87 19.51-128.31 61.25H-277.381l12.877-20.23 22.234-35c2.07.26 77.323.96 148.2705 1.71 14.885.12 29.5837.26 43.3508.45h2.8983c7.5357.09 14.7815.19 21.634.26h.1863c27.32719.47 53.3915.89 75.7708 1.26h.7453c17.5349.21 32.7305.35 44.4687.45 23.9523.11 37.2433-.47 44.0963-1.5h.021c.89-.14 1.656-.26 2.36-.42 12.607-2.67-9.337-7.48-6.584-9.96 2.257-2.04 86.66 1.08 164.253 3.66 3.789.14 7.556.25 11.283.39.973.03 1.967.07 2.94.1 1.739.07 3.498.11 5.237.18 1.263.03 2.547.1 3.809.12.973.03 1.967.07 2.899.1.6.02 1.18.02 1.78.07 2.422.09 4.865.14 7.246.21.104.02.228.02.352.02.31 0 .6.02.932.02 1.614.03 3.229.1 4.844.14.393 0 .766.03 1.159.03 1.139.02 2.278.07 3.416.09.352.02.663.02 1.015.02 1.987.07 3.912.12 5.838.19 3.229.1 6.376.19 9.461.26 1.18.02 2.36.07 3.519.09h.062c31.426.8 55.172 1.1 61.383.24 22.979-3.16-53.226-13.21-45.545-17.78 2.111-1.26 15.568-1.1 34.635-.21h.082c16.21 1.05 37.141 2.39 61.818 3.65h.124c41.84 2.72 84.569 5.65 99.206 5.23 31.033-.94 18.922-5.04 29.025-5.04 10.082 0 64.467 7.75 78.172 7.75 13.705 0-6.045-5.92 0-7.75s204.332 17.78 230.914 15.04c26.603-2.74 4.017-6.4 20.972-7.31 10.144-.54 83.821.4 141.061 1.22 38.08.54 68.9 1.05 68.9 1.05v-3.04c105.65.54 191.79.02 217.23-2.42 60.58-5.8 179.95-9.29 286.09-11.36 110.65-2.15 206.94-2.74 206.94-2.74Z" fill="#0A001A"/><path opacity=".4" d="M1081.46 1027.56s215.64 12.34 214.87 25.27c-.79 12.93-82.73 15.93-82.73 15.93l153.33-17.94s-2.65-32.91-7.93-32.91c-5.28 0-277.54 9.65-277.54 9.65Z" fill="#773488"/><path d="m1840.14 1101.67-859.168-11.97s21.698-2.39 53.988-5.98c77.91-8.73 217.42-24.54 261.37-30.96 3.27-.47 6.03-.89 8.18-1.27 2.19-.39 4.31-.74 6.33-1.1.36-.07.71-.14 1.08-.21 8.24-1.52 15.11-3.04 19.73-4.52 4.26-1.33 6.56-2.62 6.21-3.82-1.53-5.17-105.75-6.37-183.17-9.32-22.8-.86-43.25-1.87-58.12-3.23-.39-.02-.78-.07-1.18-.09-.53-.07-1.01-.1-1.49-.12-4.88-.47-9.06-.96-12.42-1.52-9.89-1.6-12.61-3.56-4.7-6.05.6-.21 1.27-.39 2.01-.61 20.14-5.41 157.88-12.22 276.09-17.19 2.67-.09 5.36-.21 8.03-.33 1.12-.02 2.22-.09 3.33-.14 2.43-.09 4.87-.18 7.29-.25 1.12-.07 2.26-.12 3.35-.14 7.33-.31 14.54-.61 21.6-.87 1.82-.09 3.64-.14 5.44-.23.71-.03 1.43-.07 2.11-.07 4.04-.19 8.04-.33 11.97-.47 2.77-.12 5.53-.24 8.24-.33.16 0 .31-.02.48-.02 6.27-.24 12.31-.47 18.19-.68 50.76-1.948 85.9-3.143 85.9-3.143l118.15 8.733 164.72 12.21 1.43 4.54 25.03 79.15Z" fill="#160038"/><path d="M1331.65 1045.66c4.26-1.33 6.56-2.62 6.21-3.81-1.99-6.73-178.12-6.73-242.47-12.65 47.85 3.25 287.52-8.18 292.69-2.3 3.36 3.77-30.99 12.74-56.43 18.76Z" fill="#0A001A"/><path opacity=".6" d="M1380.16 1002.96h10.57l-5.03.61-5.54-.61Z" fill="#773488"/><path d="M629.363 1086.7s-147.174 1.94-322.254 3.49c-14.926.14-30.08.26-45.359.4h-1.594c-25.65.21-51.632.42-77.613.61-18.053.11-36.105.23-54.054.32-206.4443 1.15-397.734.73-395.292-4.82.311-.73.601-1.73.849-3 .849-4.31 1.263-11.57 1.449-20.24.539-30.45-2.298-78.438-2.298-78.438l96.536 10.938c4.803 2.46 10.372 5.32 13.373 6.91.829.42 1.45.75 1.822.94.124.09.269.14.394.21l56.6207 5.53 19.9778 1.96 4.2233.42 1.4284-4.84 2.7948.32 208.742 23.68h.021l162.079 18.37 5.051.61h.207l.125.02 4.306.47 1.304.14 5.838.65 6.086.68 6.335.75h.228l13.063 1.5 24.843 2.81 6.853.78 12.732 1.42 214.766 24.39 26.417 3.02Z" fill="#160038"/><path opacity=".2" d="M308.041 1102.86v.02l-19.647-5.05-28.217-7.24-26.851-6.89-135.9527-34.83-39.024-10.02-105.7478-5.98-3.2503-2.24-26.8717-18.77-.5383-.35 4.244.42 1.4078-4.84 2.8155.32 27.4928 22.47 91.9393 2.27h.7453l28.9212.72 97.8189 23.92v5.97l2.629-8.97 31.737 8.97v11.97l2.629-11.97 80.988 20.94 11.552 3 .248 3.49.932 12.67Z" fill="url(#y)"/><path d="m314.79 1104.64-145.393 11.97s-18.591-11.52-40.887-25.09c-2.257-1.38-4.493-2.74-6.791-4.14-2.008-1.22-4.016-2.41-6.024-3.66-20.9924-12.74-42.7713-25.71-54.344-31.99-3.7057-2.01-6.3349-3.33-7.6184-3.75-.2899-.09-.4969-.14-.6418-.14-.5797 0-2.4843-.12-5.4241-.3l-.2898-.03c-24.3667-1.59-116.1818-8.64-118.5419-8.64-.7659 0-9.9371-3.47-22.814-8.67-17.349-7.02-41.405-17.19-60.679-26.16-.124-.07-.269-.12-.393-.21-.704-.3-1.408-.63-2.091-.96l.269.02 58.8363 6.68 20.5161 2.34 3.3124.4c8.0118 6.46 19.3981 14.55 26.4991 18.36 2.5671 1.41 4.5752 2.25 5.631 2.25 5.2791 0 108.377 3 113.6768 5.97 1.118.64 12.4421 3.89 29.6663 8.62 33.29 9.21 88.606 24.01 134.607 36.26 9.089 2.41 17.784 4.73 25.899 6.89 10.248 2.74 19.584 5.2 27.41 7.31 7.991 2.08 14.429 3.79 18.88 4.96 4.327 1.08 6.729 1.71 6.729 1.71Z" fill="#0A001A"/><path opacity=".2" d="m-179.563 1038.85 235.283 8.97-290.806 20.94 23.787-29.91h31.736Z" fill="url(#z)"/><path opacity=".3" d="M147.866 1064.42c0 .99-1.407 1.78-3.126 1.78-1.718 0-3.126-.79-3.126-1.78 0-.98 1.408-1.78 3.126-1.78 1.719.03 3.126.82 3.126 1.78Zm-6.252 1.97c-.021.31-.724.49-1.594.45-.869-.07-1.553-.35-1.532-.66.021-.3.725-.49 1.594-.44.87.04 1.553.35 1.532.65Zm30.412 3.8c-.041.63-4.451.84-9.854.47-5.404-.38-9.751-1.2-9.731-1.83.042-.63 4.452-.84 9.855-.47 5.403.38 9.771 1.2 9.73 1.83Zm-22.773.04c-.02.31-.724.49-1.594.45-.869-.07-1.552-.35-1.532-.66.021-.3.725-.49 1.594-.44.849.04 1.553.35 1.532.65Zm-20.019-6.34c-.041.6-1.097 1.03-2.401.93-1.284-.09-2.319-.65-2.278-1.26.042-.61 1.098-1.03 2.402-.94 1.283.07 2.298.66 2.277 1.27Zm6.335-1.25c-.021.31-.373.52-.807.5-.435-.03-.766-.31-.746-.61.021-.31.373-.52.808-.49.414.04.745.3.745.6Z" fill="#773488"/><path opacity=".3" d="m289.16 1097.89-167.462-10.51c-22.7308-13.82-47.6979-28.77-60.3884-35.65 8.8606.56 21.0336.84 28.7556-.89 5.1756-1.17 8.7571-2.34 11.1588-3.35 39.873 11.03 111.317 30.05 160.526 43.12 10.268 2.74 19.585 5.18 27.41 7.28Z" fill="#773488"/><path d="M1212.28 1037.75c.02 0 .02-.03 0-.03s-.02.03 0 .03ZM617.915 934.173c1.594 0 1.594-2.787 0-2.787-1.574 0-1.574 2.787 0 2.787Zm223.544 11.455c1.594 0 1.594-2.787 0-2.787-1.574 0-1.574 2.787 0 2.787Zm74.528 1.662c1.595 0 1.595-2.787 0-2.787-1.573 0-1.573 2.787 0 2.787Zm71.403 14.311c1.594 0 1.594-2.787 0-2.787s-1.594 2.787 0 2.787Zm-9.979-19.605c1.594 0 1.594-2.787 0-2.787-1.573 0-1.573 2.787 0 2.787Zm126.289 5.108c1.59 0 1.59-2.788 0-2.788-1.6 0-1.6 2.788 0 2.788Zm-155.562-6.889c1.594 0 1.594-2.787 0-2.787-1.573 0-1.594 2.787 0 2.787Zm-85.522 6.889c1.595 0 1.595-2.788 0-2.788-1.573 0-1.573 2.788 0 2.788Zm-10.309-7.778c1.594 0 1.594-2.788 0-2.788s-1.594 2.788 0 2.788Zm-545.011.889c1.594 0 1.594-2.787 0-2.787-1.574 0-1.574 2.787 0 2.787Zm-55.772-93.992c1.594 0 1.594-2.787 0-2.787-1.595 0-1.595 2.787 0 2.787Zm-34.553 95.773c1.594 0 1.594-2.787 0-2.787-1.573 0-1.573 2.787 0 2.787Zm304.367 17.662c1.594 0 1.594-2.788 0-2.788-1.574 0-1.574 2.788 0 2.788Zm109.64-22.907c1.594 0 1.594-2.788 0-2.788s-1.594 2.788 0 2.788Zm-244.537 1.78c1.594 0 1.594-2.787 0-2.787s-1.594 2.787 0 2.787Zm193.65.444c1.594 0 1.594-2.788 0-2.788-1.573 0-1.594 2.788 0 2.788Zm-250.147 8.129c1.594 0 1.594-2.788 0-2.788-1.573 0-1.573 2.788 0 2.788Zm95.707 4.727c1.594 0 1.594-2.788 0-2.788-1.573 0-1.573 2.788 0 2.788Zm-18.28-11.616c1.594 0 1.594-2.787 0-2.787s-1.594 2.787 0 2.787Zm321.136 14.289c1.594 0 1.594-2.787 0-2.787s-1.594 2.787 0 2.787Zm-155.351-63.896c1.594 0 1.594-2.787 0-2.787-1.573-.024-1.573 2.787 0 2.787Zm-126.057 46.143c1.594 0 1.594-2.788 0-2.788-1.573 0-1.573 2.788 0 2.788Zm26.582 1.989c1.594 0 1.594-2.787 0-2.787-1.573 0-1.573 2.787 0 2.787Zm657.939 3.256c1.6 0 1.6-2.787 0-2.787-1.59 0-1.59 2.787 0 2.787Zm-459.113-1.781c1.594 0 1.594-2.787 0-2.787-1.595 0-1.595 2.787 0 2.787Zm520.413-5.246c1.6 0 1.6-2.787 0-2.787-1.57 0-1.57 2.787 0 2.787Zm76.46 13.914c1.59 0 1.59-2.787 0-2.787-1.6 0-1.6 2.787 0 2.787Zm-716.657-8.875c1.594 0 1.594-2.788 0-2.788s-1.594 2.788 0 2.788Zm143.591 8.875c1.594 0 1.594-2.787 0-2.787-1.573 0-1.594 2.787 0 2.787Zm-105.954-6.887c1.594 0 1.594-2.787 0-2.787-1.574 0-1.574 2.787 0 2.787Zm767.91-53.215c1.6 0 1.6-2.787 0-2.787-1.57 0-1.57 2.787 0 2.787Zm-442.283 28.74c1.595 0 1.595-2.787 0-2.787-1.573 0-1.573 2.787 0 2.787Zm-223.834 24.475c1.594 0 1.594-2.787 0-2.787s-1.594 2.787 0 2.787Zm150.113 16.139c1.594 0 1.594-2.787 0-2.787s-1.594 2.787 0 2.787Zm24.118-16.139c1.594 0 1.594-2.787 0-2.787s-1.594 2.787 0 2.787Zm-247.745 4.099c1.594 0 1.594-2.787 0-2.787s-1.594 2.787 0 2.787Zm560.931-.467c1.59 0 1.59-2.787 0-2.787-1.57 0-1.57 2.787 0 2.787ZM108.719 927.734c1.594 0 1.594-2.788 0-2.788-1.595 0-1.595 2.788 0 2.788Zm108.252-30.005c1.594 0 1.594-2.787 0-2.787-1.573 0-1.573 2.787 0 2.787Zm-76.64-2.999c1.594 0 1.594-2.787 0-2.787s-1.594 2.787 0 2.787Zm1205.709 1.101c1.59 0 1.59-2.787 0-2.787-1.58 0-1.58 2.787 0 2.787Zm-219.99 4.66c1.6 0 1.6-2.787 0-2.787-1.59 0-1.59 2.787 0 2.787Zm188.17 2.342c1.59 0 1.59-2.787 0-2.787-1.6 0-1.6 2.787 0 2.787Zm-1075.698 6.724c1.595 0 1.595-2.788 0-2.788-1.594 0-1.594 2.788 0 2.788Zm137.713 10.376c1.594 0 1.594-2.787 0-2.787s-1.594 2.787 0 2.787Zm-235.904 36.118c1.594 0 1.594-2.788 0-2.788s-1.594 2.788 0 2.788ZM-.383074 891.99c1.594084 0 1.594084-2.787 0-2.787-1.573386 0-1.573386 2.787 0 2.787ZM984.678 915.341c1.594 0 1.594-2.787 0-2.787s-1.594 2.787 0 2.787Zm187.732-5.784c1.59 0 1.59-2.788 0-2.788-1.6 0-1.6 2.788 0 2.788Z" fill="#6DCAFF"/><path d="M1271.12 894.215c1.24 0 1.24-2.178 0-2.178-1.25-.024-1.25 2.178 0 2.178Zm147.25 1.827c1.24 0 1.24-2.178 0-2.178s-1.24 2.178 0 2.178Zm-110.96 5.247c1.24 0 1.24-2.178 0-2.178s-1.24 2.178 0 2.178Z" fill="#6D63CF"/><path d="M253.47 919.3c1.594 0 1.594-2.788 0-2.788s-1.594 2.788 0 2.788Z" fill="#6DCAFF"/><path d="M226.701 868.733c1.16 0 1.18-2.061 0-2.061-1.159 0-1.159 2.061 0 2.061Zm-105.168 60.03c1.16 0 1.18-2.061 0-2.061-1.18.023-1.18 2.061 0 2.061Zm79.746-22.086c1.159 0 1.18-2.062 0-2.062s-1.18 2.062 0 2.062Zm-164.7705 7.189c1.1594 0 1.1801-2.061 0-2.061-1.1593 0-1.1593 2.061 0 2.061Zm108.2945-9.393c1.159 0 1.18-2.061 0-2.061-1.16 0-1.16 2.061 0 2.061Zm72.334 10.916c1.159 0 1.18-2.062 0-2.062-1.159 0-1.159 2.062 0 2.062Zm101.442 7.636c1.159 0 1.18-2.062 0-2.062-1.18.024-1.18 2.062 0 2.062ZM41.1665 902.457c1.1593 0 1.18-2.061 0-2.061-1.1801 0-1.1801 2.061 0 2.061Zm186.9845 20.099c1.159 0 1.18-2.061 0-2.061-1.18.024-1.18 2.061 0 2.061Z" fill="#6D63CF"/><path d="M1185.84 941.996c1.6 0 1.6-2.787 0-2.787-1.57 0-1.57 2.787 0 2.787Zm165.19 12.508c1.59 0 1.59-2.787 0-2.787-1.58 0-1.58 2.787 0 2.787Zm-684.341-14.289c1.594 0 1.594-2.787 0-2.787s-1.594 2.787 0 2.787Zm50.286 1.781c1.594 0 1.594-2.787 0-2.787s-1.594 2.787 0 2.787Zm423.095 12.508c1.59 0 1.59-2.787 0-2.787s-1.59 2.787 0 2.787Zm-64.82 0c1.59 0 1.59-2.787 0-2.787s-1.59 2.787 0 2.787Zm-34.78-12.508c1.59 0 1.59-2.787 0-2.787-1.57 0-1.57 2.787 0 2.787Zm-135.351 3.632c1.594 0 1.594-2.787 0-2.787s-1.594 2.787 0 2.787Zm245.941 14.03c1.6 0 1.6-2.788 0-2.788-1.57 0-1.57 2.788 0 2.788Zm-614.382-25.485c1.594 0 1.594-2.787 0-2.787s-1.594 2.787 0 2.787Zm392.497 4.358c1.594 0 1.594-2.787 0-2.787-1.574 0-1.574 2.787 0 2.787Zm-655.562 10.352c1.594 0 1.594-2.787 0-2.787s-1.594 2.787 0 2.787ZM107.29 981.791c1.594 0 1.594-2.788 0-2.788-1.573 0-1.594 2.788 0 2.788Zm386.7-35.696c1.594 0 1.594-2.787 0-2.787s-1.594 2.787 0 2.787Zm-251.865-6.769c1.594 0 1.594-2.788 0-2.788s-1.594 2.788 0 2.788Zm353.514-5.972c1.594 0 1.594-2.787 0-2.787s-1.594 2.787 0 2.787Z" fill="#6DCAFF"/><path fill-rule="evenodd" clip-rule="evenodd" d="m648.285 861.821-13.332 21.384h246.399l-231.287 7.379 134.835 8.947-175.184 20.729 135.829 10.587-28.466-8.807 183.609-22.509-125.56-8.947 130.632-6.933-23.787-15.904-233.688-5.926Zm57.221 81.087 114.692 4.849-80.74 2.038-33.952-6.887Z" fill="#CFF"/><defs><radialGradient id="a" cx="0" cy="0" r="1" gradientUnits="userSpaceOnUse" gradientTransform="matrix(1748.05 0 0 867.826 731.832 909.199)"><stop stop-color="#00819D"/><stop offset=".2601" stop-color="#004E72"/><stop offset=".5279" stop-color="#001E49"/><stop offset=".6676" stop-color="#00122F"/><stop offset=".8515" stop-color="#000513"/><stop offset=".9575" stop-color="#000008"/></radialGradient><radialGradient id="f" cx="0" cy="0" r="1" gradientUnits="userSpaceOnUse" gradientTransform="matrix(-332.83 0 0 -376.561 145.317 310.708)"><stop offset=".4689"/><stop offset=".5107" stop-color="#071025"/><stop offset=".5601" stop-color="#0E204A"/><stop offset=".6097" stop-color="#132D66"/><stop offset=".659" stop-color="#17367B"/><stop offset=".7078" stop-color="#193B87"/><stop offset=".7557" stop-color="#1A3D8B"/><stop offset=".9916" stop-color="#54E7FF"/></radialGradient><radialGradient id="g" cx="0" cy="0" r="1" gradientUnits="userSpaceOnUse" gradientTransform="matrix(-15.3614 0 0 -15.395 10.2264 330.229)"><stop stop-color="#000D98"/><stop offset=".1367" stop-color="#000B7C"/><stop offset=".4258" stop-color="#000647"/><stop offset=".6764" stop-color="#000320"/><stop offset=".8761" stop-color="#000109"/><stop offset="1"/></radialGradient><radialGradient id="h" cx="0" cy="0" r="1" gradientUnits="userSpaceOnUse" gradientTransform="matrix(-7.20262 0 0 -7.21832 10.2264 330.229)"><stop stop-color="#364EFF"/><stop offset=".1842" stop-color="#293BC1"/><stop offset=".4055" stop-color="#1A267D"/><stop offset=".6059" stop-color="#0F1647"/><stop offset=".778" stop-color="#070A20"/><stop offset=".9151" stop-color="#020309"/><stop offset="1"/></radialGradient><radialGradient id="i" cx="0" cy="0" r="1" gradientUnits="userSpaceOnUse" gradientTransform="matrix(-15.3614 0 0 -15.395 166.808 617.593)"><stop stop-color="#000D98"/><stop offset=".1367" stop-color="#000B7C"/><stop offset=".4258" stop-color="#000647"/><stop offset=".6764" stop-color="#000320"/><stop offset=".8761" stop-color="#000109"/><stop offset="1"/></radialGradient><radialGradient id="j" cx="0" cy="0" r="1" gradientUnits="userSpaceOnUse" gradientTransform="matrix(-7.2026 0 0 -7.21833 166.808 617.592)"><stop stop-color="#364EFF"/><stop offset=".1842" stop-color="#293BC1"/><stop offset=".4055" stop-color="#1A267D"/><stop offset=".6059" stop-color="#0F1647"/><stop offset=".778" stop-color="#070A20"/><stop offset=".9151" stop-color="#020309"/><stop offset="1"/></radialGradient><radialGradient id="k" cx="0" cy="0" r="1" gradientUnits="userSpaceOnUse" gradientTransform="matrix(-15.3611 0 0 -15.3946 1194.04 236.223)"><stop stop-color="#000D98"/><stop offset=".1367" stop-color="#000B7C"/><stop offset=".4258" stop-color="#000647"/><stop offset=".6764" stop-color="#000320"/><stop offset=".8761" stop-color="#000109"/><stop offset="1"/></radialGradient><radialGradient id="l" cx="0" cy="0" r="1" gradientUnits="userSpaceOnUse" gradientTransform="matrix(-7.20257 0 0 -7.21833 1194.04 236.223)"><stop stop-color="#364EFF"/><stop offset=".1842" stop-color="#293BC1"/><stop offset=".4055" stop-color="#1A267D"/><stop offset=".6059" stop-color="#0F1647"/><stop offset=".778" stop-color="#070A20"/><stop offset=".9151" stop-color="#020309"/><stop offset="1"/></radialGradient><radialGradient id="m" cx="0" cy="0" r="1" gradientUnits="userSpaceOnUse" gradientTransform="matrix(-15.3611 0 0 -15.3946 571.254 447.664)"><stop stop-color="#000D98"/><stop offset=".1367" stop-color="#000B7C"/><stop offset=".4258" stop-color="#000647"/><stop offset=".6764" stop-color="#000320"/><stop offset=".8761" stop-color="#000109"/><stop offset="1"/></radialGradient><radialGradient id="n" cx="0" cy="0" r="1" gradientUnits="userSpaceOnUse" gradientTransform="matrix(-7.2026 0 0 -7.21832 571.254 447.664)"><stop stop-color="#364EFF"/><stop offset=".1842" stop-color="#293BC1"/><stop offset=".4055" stop-color="#1A267D"/><stop offset=".6059" stop-color="#0F1647"/><stop offset=".778" stop-color="#070A20"/><stop offset=".9151" stop-color="#020309"/><stop offset="1"/></radialGradient><radialGradient id="o" cx="0" cy="0" r="1" gradientUnits="userSpaceOnUse" gradientTransform="matrix(-9.75477 0 0 -9.77601 1033.72 460.468)"><stop stop-color="#000D98"/><stop offset=".1367" stop-color="#000B7C"/><stop offset=".4258" stop-color="#000647"/><stop offset=".6764" stop-color="#000320"/><stop offset=".8761" stop-color="#000109"/><stop offset="1"/></radialGradient><radialGradient id="p" cx="0" cy="0" r="1" gradientUnits="userSpaceOnUse" gradientTransform="matrix(-4.57416 0 0 -4.58409 1033.72 460.466)"><stop stop-color="#364EFF"/><stop offset=".1842" stop-color="#293BC1"/><stop offset=".4055" stop-color="#1A267D"/><stop offset=".6059" stop-color="#0F1647"/><stop offset=".778" stop-color="#070A20"/><stop offset=".9151" stop-color="#020309"/><stop offset="1"/></radialGradient><radialGradient id="t" cx="0" cy="0" r="1" gradientUnits="userSpaceOnUse" gradientTransform="matrix(987.133 0 0 477.306 730.993 670.407)"><stop stop-color="#582EFF"/><stop offset="1"/></radialGradient><radialGradient id="u" cx="0" cy="0" r="1" gradientUnits="userSpaceOnUse" gradientTransform="matrix(1005.95 0 0 1138.12 768.895 988.699)"><stop stop-color="#00819D"/><stop offset=".2601" stop-color="#004E72"/><stop offset=".5279" stop-color="#001E49"/><stop offset=".6676" stop-color="#00122F"/><stop offset=".8515" stop-color="#000513"/><stop offset=".9575" stop-color="#000008"/></radialGradient><linearGradient id="b" x1="-272.694" y1="677.722" x2="1810.02" y2="677.722" gradientUnits="userSpaceOnUse"><stop/><stop offset=".2046" stop-color="#000304"/><stop offset=".4089" stop-color="#000B10"/><stop offset=".613" stop-color="#001924"/><stop offset=".816" stop-color="#002D40"/><stop offset="1" stop-color="#004360"/></linearGradient><linearGradient id="d" x1="863.332" y1="533.272" x2="863.332" y2="499.99" gradientUnits="userSpaceOnUse"><stop stop-color="#002450"/><stop offset=".1482" stop-color="#041E4E"/><stop offset=".5734" stop-color="#0D124A"/><stop offset="1" stop-color="#100E49"/></linearGradient><linearGradient id="e" x1="848.432" y1="565.269" x2="848.432" y2="554.377" gradientUnits="userSpaceOnUse"><stop stop-color="#103172"/><stop offset=".3433" stop-color="#0E2F6E"/><stop offset=".6855" stop-color="#082B62"/><stop offset="1" stop-color="#002450"/></linearGradient><linearGradient id="q" x1="608.287" y1="454.326" x2="608.287" y2="421.964" gradientUnits="userSpaceOnUse"><stop stop-color="#002450"/><stop offset=".1482" stop-color="#041E4E"/><stop offset=".5734" stop-color="#0D124A"/><stop offset="1" stop-color="#100E49"/></linearGradient><linearGradient id="r" x1="1067.05" y1="455.269" x2="1068.35" y2="375.026" gradientUnits="userSpaceOnUse"><stop stop-color="#002A66"/><stop offset=".2129" stop-color="#001D50"/><stop offset=".4744" stop-color="#00113C"/><stop offset=".737" stop-color="#000A30"/><stop offset="1" stop-color="#00082C"/></linearGradient><linearGradient id="s" x1="826.018" y1="1163.06" x2="826.018" y2="607.452" gradientUnits="userSpaceOnUse"><stop stop-color="#005489"/><stop offset=".1063" stop-color="#02447A"/><stop offset=".3286" stop-color="#052861"/><stop offset=".5522" stop-color="#07144F"/><stop offset=".7759" stop-color="#090844"/><stop offset="1" stop-color="#090440"/></linearGradient><linearGradient id="v" x1="801.966" y1="1194.28" x2="727.505" y2="889.262" gradientUnits="userSpaceOnUse"><stop stop-color="#B3ECFF"/><stop offset=".3713" stop-color="#B8EDFF"/><stop offset=".7852" stop-color="#C5EFFF"/><stop offset="1" stop-color="#CFF0FF"/></linearGradient><linearGradient id="w" x1="498.386" y1="625.135" x2="406.285" y2="1184.8" gradientUnits="userSpaceOnUse"><stop stop-color="#B3ECFF"/><stop offset=".3713" stop-color="#B8EDFF"/><stop offset=".7852" stop-color="#C5EFFF"/><stop offset="1" stop-color="#CFF0FF"/></linearGradient><linearGradient id="x" x1="777.362" y1="815.033" x2="777.362" y2="1119.76" gradientUnits="userSpaceOnUse"><stop stop-color="#B3ECFF"/><stop offset=".3713" stop-color="#B8EDFF"/><stop offset=".7852" stop-color="#C5EFFF"/><stop offset="1" stop-color="#CFF0FF"/></linearGradient><linearGradient id="y" x1="-78.0542" y1="1054.98" x2="308.043" y2="1054.98" gradientUnits="userSpaceOnUse"><stop stop-color="#00439D"/><stop offset=".3606" stop-color="#002960"/><stop offset=".796" stop-color="#000C1B"/><stop offset="1"/></linearGradient><linearGradient id="z" x1="-235.084" y1="1053.8" x2="55.7115" y2="1053.8" gradientUnits="userSpaceOnUse"><stop stop-color="#00439D"/><stop offset=".3606" stop-color="#002960"/><stop offset=".796" stop-color="#000C1B"/><stop offset="1"/></linearGradient><pattern id="c" patternContentUnits="objectBoundingBox" width="1" height="1"><use xlink:href="#A" transform="scale(.00024 .00132)"/></pattern></defs></svg>