<svg width="1440" height="711" fill="none" xmlns="http://www.w3.org/2000/svg"><path opacity=".05" fill-rule="evenodd" clip-rule="evenodd" d="M1459.02 83.11-623.702 72.99v48.93L1114.7 67.416l-1738.402 102.45v51.67l2082.722-16.115V83.109Z" fill="url(#a)"/><path fill-rule="evenodd" clip-rule="evenodd" d="M1249.53 140.846 960.486 298.198h-10.537l-241.556-63.451h-8.426l-101.69-62.468-121.42 68.698-5.279.609-63.287 43.753-4.285-1.593-135.829-157.492-4.161.538L162.595.639h-10.289L68.026 129.18l-8.694 8.034-62.915 97.625-138.644-22.157-3.788-4.779-274.059-87.342-7.411 2.998-74.611 115.098-68.588 29.747-56.662-79.871v251.159l2085.416 40.92V307.591L1278.85 184.95l-8.45-5.691-20.87-38.413Z" fill="#4F06BE"/><path fill-rule="evenodd" clip-rule="evenodd" d="m268.177 126.254 10.062 14.85 42.667 104.043-50.576-48.274-13.891-6.863-2.174 6.558 6.584 22.65-10.538-22.65 13.705-69.775 4.161-.539Z" fill="#fff"/><path fill-rule="evenodd" clip-rule="evenodd" d="m333.845 301.36-64.777-107.907-4.369-15.178 43.061 54.949 96.536 51.108L268.012 126.23l-26.479 16.349 19.937-17.52L162.781.639h-10.289l-25.94 38.928 20.827-27.592 7.246-2.857 8.943 16.09-19.419 67.739 8.157-35.087-19.17 65.021 15.816-25.906 14.616 124.819-52.584 89.286 222.861-9.72Zm-178.91-32.955h-6.645l9.481-8.362 3.81-1.804-6.646 10.166Zm77.365-12.227 4.762-2.389-4.762 41.13h-13.436l13.436-38.741Zm-78.959-164.73 14.45-68.16 4.472-3.162-5.01 66.145-13.912 5.177Zm12.856 135.522 13.167-4.45-25.795 37.851-9.751 5.949 22.379-39.35Z" fill="#fff"/><path fill-rule="evenodd" clip-rule="evenodd" d="m186.693 132.742 8.301 7.167 35.96 90.646-40.7-85.727-3.561-12.086ZM389.411 319.161l-68.505-74.015 45.566 57.385-11.324-4.473 9.337 20.002 24.926 1.101ZM476.837 241.001l33.848 83.454 99.02 4.286-38.01-53.778 49.52-29.793 10.269 15.787-17.908-23.376 11.862.304 38.983 28.435-73.1-73.874 6.956-20.144-121.44 68.699Zm123.365-29.513 9.275 3.584 12.773 17.122h-6.832l-15.216-20.706Zm-29.584 76.428 1.864-4.005 5.527 8.033-3.685 1.781-3.706-5.809Zm-22.586-49.047 8.24 5.317 19.419 24.804h-5.073l-22.586-30.121ZM471.578 241.585l32.648 82.565-77.945-4.989-17.99-33.822 27.514-19.019 20.453 44.76-13.042-49.89 28.362-19.605ZM699.967 234.747 842.151 338.86l19.998.867-153.756-104.98h-8.426ZM960.486 298.198l39.874 47.547 64.67 2.834-45.79-64.669 10.85-1.757 64.07 67.668 140.03 6.113-76.66-158.43 27.68-11.664 100.99 149.88 16.72 1.359-85.31-139.575 6.33-4.052 38.7 32.183-13.09-84.813-289.064 157.376Zm83.554-34.455 4.76-3.537 20.99 23.704 15.41 40.427-41.16-60.594Z" fill="#fff"/><path fill-rule="evenodd" clip-rule="evenodd" d="m1154.12 352.75-12.38-13.023-33.46 4.38-3.27 5.199-3.73-.445-6.58-4.614-16.19 3.279-10.95 1.148-17.64-2.436-2.75-3.466-5.94-1.64-13.05 5.106-3.81-1.546-14.78 1.452 144.53 6.606ZM777.042 336.026l-12.67-7.285h-20.143l-63.619 3.654 96.432 3.631Z" fill="#4F8DF4"/><path fill-rule="evenodd" clip-rule="evenodd" d="m59.311 137.215 14.223 5.363 30.68 109.126-32.771-76.896-3.685.609 49.81 124.771H98.045L59.311 137.215ZM270.33 196.873l48.775 46.564-28.279-54.996-23.394-51.225 10.807 3.888-10.062-14.85-4.161.539-10.931 60.406 3.354 2.811 13.891 6.863ZM46.02 193.453l38.59 105.799-29.75-.843-23.456-67.855-4.223-1.195 24.222 68.956-35.008-.984-2.132-50.967 31.757-52.911ZM621.215 245.168l-21.013-33.681 9.275 3.607 15.961 22.79 12.236.843 5.051 1.476-51.404-47.782 6.956-20.143-58.236 32.815 16.231 39.092-20.992-36.258-15.03 8.502 57.759 96.852 22.193.633-28.507-38.952 35.505-21.361-31.509-42.114 33.848 40.708 11.676-7.027ZM523.5 237.44l-46.663 3.561 27.389 70.08 38.734 1.218-25.547-72.798.787 8.315 32.399 64.483h13.705L523.5 237.44ZM1049.18 249.925l-.36 10.283 21 23.703 16.72 43.355 18.47.984-28.09-83.384 33.78 83.384h15.22l-40.7-89.052 93.68 91.16h24.61l-118.29-100.061-36.04 19.628ZM1014.29 268.99l4.95 14.92 30.22 42.535-47.8-1.124-12.46-38.483 10.372 38.436-16.79-.492-22.296-26.584 53.804-29.208Z" fill="#fff"/><path fill-rule="evenodd" clip-rule="evenodd" d="m1458.07 341.203-2085.416-66.332v230.477H1458.07V341.203Z" fill="#4F8DF4"/><path fill-rule="evenodd" clip-rule="evenodd" d="m1250.13 332.397-1877.476-57.526 1877.476 81.768v-24.242Z" fill="#7AA9F7"/><path opacity=".2" fill-rule="evenodd" clip-rule="evenodd" d="m276.127 304.711-45.173-74.156 53.475 74.39-8.302-.234ZM664.401 266.298l42.046 50.639-6.48-.187-35.566-50.452Z" fill="#223995"/><path fill-rule="evenodd" clip-rule="evenodd" d="m699.967 248.378-9.875 25.086 16.914 34.876-10.6-29.981 11.863 20.144-4.948-45.604-3.354-4.521ZM221.328 238.424l-15.279 35.93 15.279-8.057v-27.873ZM1299.63 299.253h74.26l77.86 41.926-43.37-.89-67.07-35.368-7.15-.609 34.37 33.658-46.15-2.975-22.75-35.742ZM1249.53 140.822l13.09 84.813-13.09-10.868-30.31-57.432-6.08 3.302 10.78 32.815-6.33 4.052 85.31 139.575-107.05-166.44 53.68-29.817Z" fill="#fff"/><path d="M1463.6 636.843H-623.206l-4.596-362.791 1896.342 38.015h195.06v324.776Z" fill="url(#b)"/><path d="M183.484 388.329c191.311 12.601 374.63-3.303 468.184 0 93.534 3.302 549.632 31.316 620.682 60.664 71.05 29.348-1010.28 103.153-1010.28 103.153h1206.02s-311.55-27.358-296.9-42.863c14.66-15.483 128.92-58.838 127.49-63.991-1.43-5.153-341.32-43.355-342.024-49.538-.704-6.184-396.223-17.544-418.789-18.574-22.565-1.031-305.174-15.483-305.174-15.483l-364.714 16.513-498.658-16.513-10.165 16.513 824.328 10.119Z" fill="#6D63CF"/><path d="M-648.897 415.15s497.872 41.669 685.207 33.845c187.336-7.823 810.313 3.092 815.323 34.806 5.01 31.691-657.612 84.345-657.612 84.345L-659 560.393l10.103-145.243ZM1477.3 355.984c-164.85-5.223-727.006-22.626-998.248-24.781-319.976-2.553-1103.645 15.529-1103.645 15.529v-27.334l2089.263 3.396 12.63 33.19Z" fill="#6D63CF"/><path d="M861.279 504.502c.02 0 .02-.021 0-.021s-.02.021 0 .021ZM266.914 400.93c1.595 0 1.595-2.787 0-2.787-1.573 0-1.573 2.787 0 2.787ZM490.459 412.385c1.594 0 1.594-2.787 0-2.787-1.574 0-1.574 2.787 0 2.787ZM564.987 414.047c1.594 0 1.594-2.787 0-2.787-1.573 0-1.573 2.787 0 2.787ZM636.39 428.358c1.594 0 1.594-2.787 0-2.787s-1.594 2.787 0 2.787ZM626.411 408.753c1.594 0 1.594-2.787 0-2.787-1.573 0-1.573 2.787 0 2.787ZM752.696 413.86c1.594 0 1.594-2.787 0-2.787s-1.594 2.787 0 2.787ZM597.138 406.972c1.594 0 1.594-2.788 0-2.788-1.573 0-1.594 2.788 0 2.788ZM511.616 413.86c1.595 0 1.595-2.787 0-2.787-1.573 0-1.573 2.787 0 2.787ZM501.307 406.083c1.594 0 1.594-2.788 0-2.788s-1.594 2.788 0 2.788ZM1334.6 517.503c.02 0 .02-.02 0 0-.02 0-.02-.02 0 0ZM170.338 426.415c1.594 0 1.594-2.788 0-2.788-1.574 0-1.574 2.788 0 2.788ZM279.978 403.507c1.594 0 1.594-2.787 0-2.787s-1.594 2.787 0 2.787ZM35.441 405.288c1.594 0 1.594-2.787 0-2.787s-1.594 2.787 0 2.787ZM229.091 405.731c1.594 0 1.594-2.787 0-2.787-1.573 0-1.594 2.787 0 2.787ZM74.651 418.587c1.594 0 1.594-2.787 0-2.787-1.573 0-1.573 2.787 0 2.787ZM56.371 406.972c1.594 0 1.594-2.788 0-2.788s-1.594 2.788 0 2.788ZM377.507 421.261c1.594 0 1.594-2.787 0-2.787-1.595 0-1.595 2.787 0 2.787ZM222.156 357.365c1.594 0 1.594-2.787 0-2.787-1.574-.024-1.574 2.787 0 2.787ZM96.099 403.507c1.594 0 1.594-2.787 0-2.787-1.573 0-1.573 2.787 0 2.787ZM122.681 405.497c1.594 0 1.594-2.787 0-2.787-1.574 0-1.574 2.787 0 2.787ZM780.623 408.753c1.594 0 1.594-2.787 0-2.787s-1.594 2.787 0 2.787ZM321.506 406.972c1.595 0 1.595-2.788 0-2.788-1.594 0-1.594 2.788 0 2.788ZM841.923 401.726c1.594 0 1.594-2.787 0-2.787-1.573 0-1.573 2.787 0 2.787ZM918.377 415.64c1.594 0 1.594-2.788 0-2.788s-1.594 2.788 0 2.788ZM1327.85 437.82c1.59 0 1.59-2.787 0-2.787-1.57 0-1.57 2.787 0 2.787ZM201.723 406.764c1.594 0 1.594-2.787 0-2.787-1.595 0-1.595 2.787 0 2.787ZM1097.68 490.498c1.59 0 1.59-2.787 0-2.787s-1.59 2.787 0 2.787ZM345.314 415.64c1.594 0 1.594-2.788 0-2.788-1.573 0-1.594 2.788 0 2.788ZM239.359 408.753c1.595 0 1.595-2.787 0-2.787-1.573 0-1.573 2.787 0 2.787ZM1438.15 343.147c1.6 0 1.6-2.787 0-2.787-1.57 0-1.57 2.787 0 2.787ZM1007.27 355.538c1.6 0 1.6-2.787 0-2.787-1.57 0-1.57 2.787 0 2.787ZM564.987 384.278c1.594 0 1.594-2.787 0-2.787-1.573 0-1.573 2.787 0 2.787ZM341.153 408.753c1.594 0 1.594-2.787 0-2.787s-1.594 2.787 0 2.787ZM491.266 424.892c1.594 0 1.594-2.787 0-2.787s-1.594 2.787 0 2.787ZM515.384 408.753c1.594 0 1.594-2.787 0-2.787s-1.594 2.787 0 2.787ZM267.639 412.852c1.594 0 1.594-2.787 0-2.787s-1.594 2.787 0 2.787ZM828.57 412.385c1.594 0 1.594-2.787 0-2.787-1.573 0-1.573 2.787 0 2.787ZM1254.54 382.098c1.6 0 1.6-2.787 0-2.787-1.59 0-1.59 2.787 0 2.787ZM1386.91 385.681c1.6 0 1.6-2.787 0-2.787-1.57-.024-1.57 2.787 0 2.787ZM1157.39 368.631c1.59 0 1.59-2.787 0-2.787-1.58 0-1.58 2.787 0 2.787ZM1308 330.804c1.59 0 1.59-2.787 0-2.787-1.6 0-1.6 2.787 0 2.787ZM1325.03 385.681c1.6 0 1.6-2.787 0-2.787-1.57-.024-1.57 2.787 0 2.787ZM1158.79 332.068c1.6 0 1.6-2.787 0-2.787-1.57 0-1.59 2.787 0 2.787ZM1092.09 376.314c1.59 0 1.59-2.788 0-2.788-1.57 0-1.59 2.788 0 2.788ZM995.038 362.588c1.594 0 1.594-2.787 0-2.787-1.573 0-1.573 2.787 0 2.787ZM775.054 367.248c1.594 0 1.594-2.787 0-2.787s-1.594 2.787 0 2.787ZM963.218 369.59c1.594 0 1.594-2.787 0-2.787s-1.594 2.787 0 2.787ZM1418.9 315.767c1.59 0 1.59-2.787 0-2.787-1.57 0-1.57 2.787 0 2.787ZM1325.03 282.951c1.6 0 1.6-2.787 0-2.787-1.57 0-1.57 2.787 0 2.787ZM25.235 386.69c1.594 0 1.594-2.787 0-2.787s-1.594 2.787 0 2.787ZM1177.72 369.59c1.59 0 1.59-2.787 0-2.787-1.58 0-1.58 2.787 0 2.787ZM633.678 382.098c1.594 0 1.594-2.787 0-2.787s-1.594 2.787 0 2.787ZM821.407 376.314c1.594 0 1.594-2.788 0-2.788s-1.594 2.788 0 2.788Z" fill="#6DCAFF"/><path d="M1439 342.116c1.24 0 1.24-2.178 0-2.178s-1.24 2.178 0 2.178ZM1101.84 351.812c1.24 0 1.24-2.179 0-2.179s-1.24 2.179 0 2.179ZM1295.33 372.587c1.24 0 1.24-2.178 0-2.178-1.25 0-1.25 2.178 0 2.178ZM1219.31 362.05c1.24 0 1.24-2.179 0-2.179-1.25 0-1.25 2.179 0 2.179ZM1337.14 332.466c1.25 0 1.25-2.179 0-2.179-1.24-.023-1.24 2.179 0 2.179ZM1350.48 375.376c1.24 0 1.24-2.178 0-2.178s-1.24 2.178 0 2.178ZM1220.4 333.45c1.25 0 1.25-2.178 0-2.178-1.24-.023-1.24 2.178 0 2.178ZM1168.21 368.046c1.25 0 1.25-2.178 0-2.178-1.24 0-1.24 2.178 0 2.178ZM1092.28 357.317c1.24 0 1.24-2.178 0-2.178s-1.24 2.178 0 2.178ZM920.116 360.972c1.242 0 1.242-2.178 0-2.178-1.242-.024-1.242 2.178 0 2.178ZM1067.37 362.799c1.24 0 1.24-2.178 0-2.178s-1.24 2.178 0 2.178ZM1423.93 320.683c1.24 0 1.24-2.178 0-2.178s-1.24 2.178 0 2.178ZM1350.48 295.013c1.24 0 1.24-2.178 0-2.178-1.24-.023-1.24 2.178 0 2.178ZM1235.21 362.799c1.24 0 1.24-2.178 0-2.178-1.25 0-1.25 2.178 0 2.178ZM956.407 368.046c1.243 0 1.243-2.178 0-2.178-1.242 0-1.242 2.178 0 2.178Z" fill="#6D63CF"/><path d="M834.843 408.753c1.594 0 1.594-2.787 0-2.787-1.574 0-1.574 2.787 0 2.787ZM1000.03 421.261c1.59 0 1.59-2.787 0-2.787-1.576 0-1.576 2.787 0 2.787ZM1423.83 422.643c1.59 0 1.59-2.787 0-2.787-1.6 0-1.6 2.787 0 2.787ZM315.689 406.972c1.594 0 1.594-2.788 0-2.788s-1.594 2.788 0 2.788ZM365.975 408.753c1.594 0 1.594-2.787 0-2.787s-1.594 2.787 0 2.787ZM789.07 421.261c1.594 0 1.594-2.787 0-2.787s-1.594 2.787 0 2.787ZM724.251 421.261c1.594 0 1.594-2.787 0-2.787s-1.594 2.787 0 2.787ZM689.471 408.753c1.594 0 1.594-2.787 0-2.787-1.574 0-1.574 2.787 0 2.787ZM554.119 412.385c1.594 0 1.594-2.787 0-2.787-1.595 0-1.595 2.787 0 2.787ZM800.063 426.415c1.594 0 1.594-2.788 0-2.788-1.574 0-1.574 2.788 0 2.788ZM1169.17 421.261c1.59 0 1.59-2.787 0-2.787-1.58 0-1.58 2.787 0 2.787ZM185.678 400.93c1.594 0 1.594-2.787 0-2.787s-1.594 2.787 0 2.787ZM578.175 405.288c1.594 0 1.594-2.787 0-2.787-1.574 0-1.574 2.787 0 2.787ZM142.99 412.852c1.594 0 1.594-2.787 0-2.787s-1.594 2.787 0 2.787ZM244.639 400.111c1.594 0 1.594-2.787 0-2.787s-1.594 2.787 0 2.787Z" fill="#6DCAFF"/><path d="M152.199 746.155h635.376c66.775 7.256 573.015 16.987 817.425 22.242V446.643l-623.143-43.62c-74.835 2.232-231.699 7.947-260.482 12.957-28.783 5.01-225.943 3.527-320.926 2.159L-14.74 400c-19.188 3.527-58.428 11.099-61.882 13.172-4.317 2.592-137.437 7.99-225.943 2.808-70.805-4.146-149.91-1.728-180.611 0L-576 428.288V787.83l2.246.034c140.229 2.137 208.669 3.18 542.285-15.222 5.575-.308 20.24-1.212 9.351-3.886-15.825-3.885-124.302-1.367-178.989-1.007l-227.382 1.08c-49.65 1.079-115.13 1.296-102.178-.864 37.993-8.983 360.262-18.283 516.647-21.81h166.219Z" fill="#170139"/><defs><radialGradient id="b" cx="0" cy="0" r="1" gradientUnits="userSpaceOnUse" gradientTransform="matrix(1005.95 0 0 1138.12 417.895 455.456)"><stop stop-color="#4F06BE"/><stop offset=".26" stop-color="#004E72"/><stop offset=".958" stop-color="#4F06BE"/></radialGradient><linearGradient id="a" x1="-623.695" y1="144.479" x2="1459.02" y2="144.479" gradientUnits="userSpaceOnUse"><stop/><stop offset=".205" stop-color="#000304"/><stop offset=".409" stop-color="#000B10"/><stop offset=".613" stop-color="#001924"/><stop offset=".816" stop-color="#002D40"/><stop offset="1" stop-color="#004360"/></linearGradient></defs></svg>