<svg width="1440" height="711" viewBox="0 0 1440 711" fill="none" xmlns="http://www.w3.org/2000/svg">
<path opacity="0.05" fill-rule="evenodd" clip-rule="evenodd" d="M1459.02 83.1091L-623.702 72.9906V121.92L1114.7 67.416L-623.702 169.866V221.536L1459.02 205.421V83.1091Z" fill="url(#paint0_linear_31_1128)"/>
<path fill-rule="evenodd" clip-rule="evenodd" d="M1249.53 140.846L960.486 298.198H949.949L708.393 234.747H699.967L598.277 172.279L476.857 240.977L471.578 241.586L408.291 285.339L404.006 283.746L268.177 126.254L264.016 126.792L162.595 0.638672H152.306L68.0267 129.181L59.3317 137.215L-3.58294 234.84L-142.227 212.683L-146.015 207.904L-420.074 120.562L-427.485 123.56L-502.096 238.658L-570.684 268.405L-627.346 188.534V439.693L1458.07 480.613V307.591L1278.85 184.95L1270.4 179.259L1249.53 140.846Z" fill="#4F06BE"/>
<path fill-rule="evenodd" clip-rule="evenodd" d="M268.177 126.254L278.239 141.104L320.906 245.147L270.33 196.873L256.439 190.01L254.265 196.568L260.849 219.218L250.311 196.568L264.016 126.793L268.177 126.254Z" fill="white"/>
<path fill-rule="evenodd" clip-rule="evenodd" d="M333.845 301.36L269.068 193.453L264.699 178.275L307.76 233.224L404.296 284.332L268.012 126.23L241.533 142.579L261.47 125.059L162.781 0.638672H152.492L126.552 39.5669L147.379 11.9752L154.625 9.11761L163.568 25.2089L144.149 92.9467L152.306 57.8598L133.136 122.881L148.952 96.9754L163.568 221.794L110.984 311.08L333.845 301.36ZM154.935 268.405H148.29L157.771 260.043L161.581 258.239L154.935 268.405ZM232.3 256.178L237.062 253.789L232.3 294.919H218.864L232.3 256.178ZM153.341 91.4477L167.791 23.2882L172.263 20.1262L167.253 86.2713L153.341 91.4477ZM166.197 226.97L179.364 222.52L153.569 260.371L143.818 266.32L166.197 226.97Z" fill="white"/>
<path fill-rule="evenodd" clip-rule="evenodd" d="M186.693 132.742L194.994 139.909L230.954 230.555L190.254 144.828L186.693 132.742Z" fill="white"/>
<path fill-rule="evenodd" clip-rule="evenodd" d="M389.411 319.161L320.906 245.146L366.472 302.531L355.148 298.058L364.485 318.06L389.411 319.161Z" fill="white"/>
<path fill-rule="evenodd" clip-rule="evenodd" d="M476.837 241.001L510.685 324.455L609.705 328.741L571.695 274.963L621.215 245.17L631.484 260.957L613.576 237.581L625.438 237.885L664.421 266.32L591.321 192.446L598.277 172.302L476.837 241.001ZM600.202 211.488L609.477 215.072L622.25 232.194H615.418L600.202 211.488ZM570.618 287.916L572.482 283.911L578.009 291.944L574.324 293.725L570.618 287.916ZM548.032 238.869L556.272 244.186L575.691 268.99H570.618L548.032 238.869Z" fill="white"/>
<path fill-rule="evenodd" clip-rule="evenodd" d="M471.578 241.585L504.226 324.15L426.281 319.161L408.291 285.339L435.805 266.32L456.258 311.08L443.216 261.19L471.578 241.585Z" fill="white"/>
<path fill-rule="evenodd" clip-rule="evenodd" d="M699.967 234.747L842.151 338.86L862.149 339.727L708.393 234.747H699.967Z" fill="white"/>
<path fill-rule="evenodd" clip-rule="evenodd" d="M960.486 298.198L1000.36 345.745L1065.03 348.579L1019.24 283.91L1030.09 282.153L1094.16 349.821L1234.19 355.934L1157.53 197.504L1185.21 185.84L1286.2 335.72L1302.92 337.079L1217.61 197.504L1223.94 193.452L1262.64 225.635L1249.55 140.822L960.486 298.198ZM1044.04 263.743L1048.8 260.206L1069.79 283.91L1085.2 324.337L1044.04 263.743Z" fill="white"/>
<path fill-rule="evenodd" clip-rule="evenodd" d="M1154.12 352.75L1141.74 339.727L1108.28 344.107L1105.01 349.306L1101.28 348.861L1094.7 344.247L1078.51 347.526L1067.56 348.674L1049.92 346.238L1047.17 342.772L1041.23 341.132L1028.18 346.238L1024.37 344.692L1009.59 346.144L1154.12 352.75Z" fill="#4F8DF4"/>
<path fill-rule="evenodd" clip-rule="evenodd" d="M777.042 336.026L764.372 328.741H744.229L680.61 332.395L777.042 336.026Z" fill="#4F8DF4"/>
<path fill-rule="evenodd" clip-rule="evenodd" d="M59.311 137.215L73.5335 142.578L104.214 251.704L71.4426 174.808L67.7576 175.417L117.568 300.188H98.0452L59.311 137.215Z" fill="white"/>
<path fill-rule="evenodd" clip-rule="evenodd" d="M270.33 196.873L319.105 243.437L290.826 188.441L267.432 137.216L278.239 141.104L268.177 126.254L264.016 126.793L253.085 187.199L256.439 190.01L270.33 196.873Z" fill="white"/>
<path fill-rule="evenodd" clip-rule="evenodd" d="M46.0201 193.453L84.6093 299.252L54.86 298.409L31.4042 230.554L27.1809 229.359L51.4027 298.315L16.395 297.331L14.2626 246.364L46.0201 193.453Z" fill="white"/>
<path fill-rule="evenodd" clip-rule="evenodd" d="M621.215 245.168L600.202 211.487L609.477 215.094L625.438 237.884L637.674 238.727L642.725 240.203L591.321 192.421L598.277 172.278L540.041 205.093L556.272 244.185L535.28 207.927L520.25 216.429L578.009 313.281L600.202 313.914L571.695 274.962L607.2 253.601L575.691 211.487L609.539 252.195L621.215 245.168Z" fill="white"/>
<path fill-rule="evenodd" clip-rule="evenodd" d="M523.5 237.44L476.837 241.001L504.226 311.081L542.96 312.299L517.413 239.501L518.2 247.816L550.599 312.299H564.304L523.5 237.44Z" fill="white"/>
<path fill-rule="evenodd" clip-rule="evenodd" d="M1049.18 249.925L1048.82 260.208L1069.82 283.911L1086.54 327.266L1105.01 328.25L1076.92 244.866L1110.7 328.25H1125.92L1085.22 239.198L1178.9 330.358H1203.51L1085.22 230.297L1049.18 249.925Z" fill="white"/>
<path fill-rule="evenodd" clip-rule="evenodd" d="M1014.29 268.99L1019.24 283.91L1049.46 326.445L1001.66 325.321L989.2 286.838L999.572 325.274L982.782 324.782L960.486 298.198L1014.29 268.99Z" fill="white"/>
<path fill-rule="evenodd" clip-rule="evenodd" d="M1458.07 341.203L-627.346 274.871V505.348H1458.07V341.203Z" fill="#4F8DF4"/>
<path fill-rule="evenodd" clip-rule="evenodd" d="M1250.13 332.397L-627.346 274.871L1250.13 356.639V332.397Z" fill="#7AA9F7"/>
<path opacity="0.2" fill-rule="evenodd" clip-rule="evenodd" d="M276.127 304.711L230.954 230.555L284.429 304.945L276.127 304.711Z" fill="#223995"/>
<path opacity="0.2" fill-rule="evenodd" clip-rule="evenodd" d="M664.401 266.298L706.447 316.937L699.967 316.75L664.401 266.298Z" fill="#223995"/>
<path fill-rule="evenodd" clip-rule="evenodd" d="M699.967 248.378L690.092 273.464L707.006 308.34L696.406 278.359L708.269 298.503L703.321 252.899L699.967 248.378Z" fill="white"/>
<path fill-rule="evenodd" clip-rule="evenodd" d="M221.328 238.424L206.049 274.354L221.328 266.297V238.424Z" fill="white"/>
<path fill-rule="evenodd" clip-rule="evenodd" d="M1299.63 299.253H1373.89L1451.75 341.179L1408.38 340.289L1341.31 304.921L1334.16 304.312L1368.53 337.97L1322.38 334.995L1299.63 299.253Z" fill="white"/>
<path fill-rule="evenodd" clip-rule="evenodd" d="M1249.53 140.822L1262.62 225.635L1249.53 214.767L1219.22 157.335L1213.14 160.637L1223.92 193.452L1217.59 197.504L1302.9 337.079L1195.85 170.639L1249.53 140.822Z" fill="white"/>
<path d="M1463.6 636.843H-623.206L-627.802 274.052L1268.54 312.067H1463.6V636.843Z" fill="url(#paint1_radial_31_1128)"/>
<path d="M183.484 388.329C374.795 400.93 558.114 385.026 651.668 388.329C745.202 391.631 1201.3 419.645 1272.35 448.993C1343.4 478.341 262.07 552.146 262.07 552.146H1468.09C1468.09 552.146 1156.54 524.788 1171.19 509.283C1185.85 493.8 1300.11 450.445 1298.68 445.292C1297.25 440.139 957.36 401.937 956.656 395.754C955.952 389.57 560.433 378.21 537.867 377.18C515.302 376.149 232.693 361.697 232.693 361.697L-132.021 378.21L-630.679 361.697L-640.844 378.21L183.484 388.329Z" fill="#6D63CF"/>
<path d="M-648.897 415.15C-648.897 415.15 -151.025 456.819 36.3104 448.995C223.646 441.172 846.623 452.087 851.633 483.801C856.643 515.492 194.021 568.146 194.021 568.146L-659 560.393L-648.897 415.15Z" fill="#6D63CF"/>
<path d="M1477.3 355.984C1312.45 350.761 750.294 333.358 479.052 331.203C159.076 328.65 -624.593 346.732 -624.593 346.732V319.398L1464.67 322.794L1477.3 355.984Z" fill="#6D63CF"/>
<path d="M861.279 504.502C861.299 504.502 861.299 504.481 861.279 504.481C861.259 504.481 861.259 504.502 861.279 504.502Z" fill="#6DCAFF"/>
<path d="M266.914 400.93C268.509 400.93 268.509 398.143 266.914 398.143C265.341 398.143 265.341 400.93 266.914 400.93Z" fill="#6DCAFF"/>
<path d="M490.459 412.385C492.053 412.385 492.053 409.598 490.459 409.598C488.885 409.598 488.885 412.385 490.459 412.385Z" fill="#6DCAFF"/>
<path d="M564.987 414.047C566.581 414.047 566.581 411.26 564.987 411.26C563.414 411.26 563.414 414.047 564.987 414.047Z" fill="#6DCAFF"/>
<path d="M636.39 428.358C637.984 428.358 637.984 425.571 636.39 425.571C634.796 425.571 634.796 428.358 636.39 428.358Z" fill="#6DCAFF"/>
<path d="M626.411 408.753C628.005 408.753 628.005 405.966 626.411 405.966C624.838 405.966 624.838 408.753 626.411 408.753Z" fill="#6DCAFF"/>
<path d="M752.696 413.86C754.29 413.86 754.29 411.073 752.696 411.073C751.102 411.073 751.102 413.86 752.696 413.86Z" fill="#6DCAFF"/>
<path d="M597.138 406.972C598.732 406.972 598.732 404.184 597.138 404.184C595.565 404.184 595.544 406.972 597.138 406.972Z" fill="#6DCAFF"/>
<path d="M511.616 413.86C513.211 413.86 513.211 411.073 511.616 411.073C510.043 411.073 510.043 413.86 511.616 413.86Z" fill="#6DCAFF"/>
<path d="M501.307 406.083C502.901 406.083 502.901 403.295 501.307 403.295C499.713 403.295 499.713 406.083 501.307 406.083Z" fill="#6DCAFF"/>
<path d="M1334.6 517.503C1334.62 517.503 1334.62 517.483 1334.6 517.503C1334.58 517.503 1334.58 517.483 1334.6 517.503Z" fill="#6DCAFF"/>
<path d="M170.338 426.415C171.932 426.415 171.932 423.627 170.338 423.627C168.764 423.627 168.764 426.415 170.338 426.415Z" fill="#6DCAFF"/>
<path d="M279.978 403.507C281.572 403.507 281.572 400.72 279.978 400.72C278.384 400.72 278.384 403.507 279.978 403.507Z" fill="#6DCAFF"/>
<path d="M35.441 405.288C37.0351 405.288 37.0351 402.501 35.441 402.501C33.8469 402.501 33.8469 405.288 35.441 405.288Z" fill="#6DCAFF"/>
<path d="M229.091 405.731C230.685 405.731 230.685 402.944 229.091 402.944C227.518 402.944 227.497 405.731 229.091 405.731Z" fill="#6DCAFF"/>
<path d="M74.6513 418.587C76.2454 418.587 76.2454 415.8 74.6513 415.8C73.0779 415.8 73.0779 418.587 74.6513 418.587Z" fill="#6DCAFF"/>
<path d="M56.371 406.972C57.9651 406.972 57.9651 404.184 56.371 404.184C54.777 404.184 54.777 406.972 56.371 406.972Z" fill="#6DCAFF"/>
<path d="M377.507 421.261C379.101 421.261 379.101 418.474 377.507 418.474C375.912 418.474 375.912 421.261 377.507 421.261Z" fill="#6DCAFF"/>
<path d="M222.156 357.365C223.75 357.365 223.75 354.578 222.156 354.578C220.582 354.554 220.582 357.365 222.156 357.365Z" fill="#6DCAFF"/>
<path d="M96.099 403.507C97.6931 403.507 97.6931 400.72 96.099 400.72C94.5256 400.72 94.5256 403.507 96.099 403.507Z" fill="#6DCAFF"/>
<path d="M122.681 405.497C124.275 405.497 124.275 402.71 122.681 402.71C121.107 402.71 121.107 405.497 122.681 405.497Z" fill="#6DCAFF"/>
<path d="M780.623 408.753C782.217 408.753 782.217 405.966 780.623 405.966C779.029 405.966 779.029 408.753 780.623 408.753Z" fill="#6DCAFF"/>
<path d="M321.506 406.972C323.101 406.972 323.101 404.184 321.506 404.184C319.912 404.184 319.912 406.972 321.506 406.972Z" fill="#6DCAFF"/>
<path d="M841.923 401.726C843.517 401.726 843.517 398.939 841.923 398.939C840.35 398.939 840.35 401.726 841.923 401.726Z" fill="#6DCAFF"/>
<path d="M918.377 415.64C919.971 415.64 919.971 412.852 918.377 412.852C916.783 412.852 916.783 415.64 918.377 415.64Z" fill="#6DCAFF"/>
<path d="M1327.85 437.82C1329.44 437.82 1329.44 435.033 1327.85 435.033C1326.28 435.033 1326.28 437.82 1327.85 437.82Z" fill="#6DCAFF"/>
<path d="M201.723 406.764C203.317 406.764 203.317 403.977 201.723 403.977C200.128 403.977 200.128 406.764 201.723 406.764Z" fill="#6DCAFF"/>
<path d="M1097.68 490.498C1099.27 490.498 1099.27 487.711 1097.68 487.711C1096.09 487.711 1096.09 490.498 1097.68 490.498Z" fill="#6DCAFF"/>
<path d="M345.314 415.64C346.908 415.64 346.908 412.852 345.314 412.852C343.741 412.852 343.72 415.64 345.314 415.64Z" fill="#6DCAFF"/>
<path d="M239.359 408.753C240.954 408.753 240.954 405.966 239.359 405.966C237.786 405.966 237.786 408.753 239.359 408.753Z" fill="#6DCAFF"/>
<path d="M1438.15 343.147C1439.75 343.147 1439.75 340.36 1438.15 340.36C1436.58 340.36 1436.58 343.147 1438.15 343.147Z" fill="#6DCAFF"/>
<path d="M1007.27 355.538C1008.87 355.538 1008.87 352.751 1007.27 352.751C1005.7 352.751 1005.7 355.538 1007.27 355.538Z" fill="#6DCAFF"/>
<path d="M564.987 384.278C566.581 384.278 566.581 381.491 564.987 381.491C563.414 381.491 563.414 384.278 564.987 384.278Z" fill="#6DCAFF"/>
<path d="M341.153 408.753C342.747 408.753 342.747 405.966 341.153 405.966C339.559 405.966 339.559 408.753 341.153 408.753Z" fill="#6DCAFF"/>
<path d="M491.266 424.892C492.86 424.892 492.86 422.105 491.266 422.105C489.672 422.105 489.672 424.892 491.266 424.892Z" fill="#6DCAFF"/>
<path d="M515.384 408.753C516.978 408.753 516.978 405.966 515.384 405.966C513.79 405.966 513.79 408.753 515.384 408.753Z" fill="#6DCAFF"/>
<path d="M267.639 412.852C269.233 412.852 269.233 410.065 267.639 410.065C266.045 410.065 266.045 412.852 267.639 412.852Z" fill="#6DCAFF"/>
<path d="M828.57 412.385C830.164 412.385 830.164 409.598 828.57 409.598C826.997 409.598 826.997 412.385 828.57 412.385Z" fill="#6DCAFF"/>
<path d="M1254.54 382.098C1256.14 382.098 1256.14 379.311 1254.54 379.311C1252.95 379.311 1252.95 382.098 1254.54 382.098Z" fill="#6DCAFF"/>
<path d="M1386.91 385.681C1388.51 385.681 1388.51 382.894 1386.91 382.894C1385.34 382.87 1385.34 385.681 1386.91 385.681Z" fill="#6DCAFF"/>
<path d="M1157.39 368.631C1158.98 368.631 1158.98 365.844 1157.39 365.844C1155.81 365.844 1155.81 368.631 1157.39 368.631Z" fill="#6DCAFF"/>
<path d="M1308 330.804C1309.59 330.804 1309.59 328.017 1308 328.017C1306.4 328.017 1306.4 330.804 1308 330.804Z" fill="#6DCAFF"/>
<path d="M1325.03 385.681C1326.63 385.681 1326.63 382.894 1325.03 382.894C1323.46 382.87 1323.46 385.681 1325.03 385.681Z" fill="#6DCAFF"/>
<path d="M1158.79 332.068C1160.39 332.068 1160.39 329.281 1158.79 329.281C1157.22 329.281 1157.2 332.068 1158.79 332.068Z" fill="#6DCAFF"/>
<path d="M1092.09 376.314C1093.68 376.314 1093.68 373.526 1092.09 373.526C1090.52 373.526 1090.5 376.314 1092.09 376.314Z" fill="#6DCAFF"/>
<path d="M995.038 362.588C996.632 362.588 996.632 359.801 995.038 359.801C993.465 359.801 993.465 362.588 995.038 362.588Z" fill="#6DCAFF"/>
<path d="M775.054 367.248C776.648 367.248 776.648 364.461 775.054 364.461C773.46 364.461 773.46 367.248 775.054 367.248Z" fill="#6DCAFF"/>
<path d="M963.218 369.59C964.812 369.59 964.812 366.803 963.218 366.803C961.624 366.803 961.624 369.59 963.218 369.59Z" fill="#6DCAFF"/>
<path d="M1418.9 315.767C1420.49 315.767 1420.49 312.98 1418.9 312.98C1417.33 312.98 1417.33 315.767 1418.9 315.767Z" fill="#6DCAFF"/>
<path d="M1325.03 282.951C1326.63 282.951 1326.63 280.164 1325.03 280.164C1323.46 280.164 1323.46 282.951 1325.03 282.951Z" fill="#6DCAFF"/>
<path d="M25.2347 386.69C26.8288 386.69 26.8288 383.903 25.2347 383.903C23.6406 383.903 23.6406 386.69 25.2347 386.69Z" fill="#6DCAFF"/>
<path d="M1177.72 369.59C1179.31 369.59 1179.31 366.803 1177.72 366.803C1176.14 366.803 1176.14 369.59 1177.72 369.59Z" fill="#6DCAFF"/>
<path d="M633.678 382.098C635.272 382.098 635.272 379.311 633.678 379.311C632.084 379.311 632.084 382.098 633.678 382.098Z" fill="#6DCAFF"/>
<path d="M821.407 376.314C823.001 376.314 823.001 373.526 821.407 373.526C819.813 373.526 819.813 376.314 821.407 376.314Z" fill="#6DCAFF"/>
<path d="M1439 342.116C1440.24 342.116 1440.24 339.938 1439 339.938C1437.76 339.938 1437.76 342.116 1439 342.116Z" fill="#6D63CF"/>
<path d="M1101.84 351.812C1103.08 351.812 1103.08 349.633 1101.84 349.633C1100.6 349.633 1100.6 351.812 1101.84 351.812Z" fill="#6D63CF"/>
<path d="M1295.33 372.587C1296.57 372.587 1296.57 370.409 1295.33 370.409C1294.08 370.409 1294.08 372.587 1295.33 372.587Z" fill="#6D63CF"/>
<path d="M1219.31 362.05C1220.55 362.05 1220.55 359.871 1219.31 359.871C1218.06 359.871 1218.06 362.05 1219.31 362.05Z" fill="#6D63CF"/>
<path d="M1337.14 332.466C1338.39 332.466 1338.39 330.287 1337.14 330.287C1335.9 330.264 1335.9 332.466 1337.14 332.466Z" fill="#6D63CF"/>
<path d="M1350.48 375.376C1351.72 375.376 1351.72 373.198 1350.48 373.198C1349.24 373.198 1349.24 375.376 1350.48 375.376Z" fill="#6D63CF"/>
<path d="M1220.4 333.45C1221.65 333.45 1221.65 331.272 1220.4 331.272C1219.16 331.249 1219.16 333.45 1220.4 333.45Z" fill="#6D63CF"/>
<path d="M1168.21 368.046C1169.46 368.046 1169.46 365.868 1168.21 365.868C1166.97 365.868 1166.97 368.046 1168.21 368.046Z" fill="#6D63CF"/>
<path d="M1092.28 357.317C1093.52 357.317 1093.52 355.139 1092.28 355.139C1091.04 355.139 1091.04 357.317 1092.28 357.317Z" fill="#6D63CF"/>
<path d="M920.116 360.972C921.358 360.972 921.358 358.794 920.116 358.794C918.874 358.77 918.874 360.972 920.116 360.972Z" fill="#6D63CF"/>
<path d="M1067.37 362.799C1068.61 362.799 1068.61 360.621 1067.37 360.621C1066.13 360.621 1066.13 362.799 1067.37 362.799Z" fill="#6D63CF"/>
<path d="M1423.93 320.683C1425.17 320.683 1425.17 318.505 1423.93 318.505C1422.69 318.505 1422.69 320.683 1423.93 320.683Z" fill="#6D63CF"/>
<path d="M1350.48 295.013C1351.72 295.013 1351.72 292.835 1350.48 292.835C1349.24 292.812 1349.24 295.013 1350.48 295.013Z" fill="#6D63CF"/>
<path d="M1235.21 362.799C1236.45 362.799 1236.45 360.621 1235.21 360.621C1233.96 360.621 1233.96 362.799 1235.21 362.799Z" fill="#6D63CF"/>
<path d="M956.407 368.046C957.65 368.046 957.65 365.868 956.407 365.868C955.165 365.868 955.165 368.046 956.407 368.046Z" fill="#6D63CF"/>
<path d="M834.843 408.753C836.437 408.753 836.437 405.966 834.843 405.966C833.269 405.966 833.269 408.753 834.843 408.753Z" fill="#6DCAFF"/>
<path d="M1000.03 421.261C1001.62 421.261 1001.62 418.474 1000.03 418.474C998.454 418.474 998.454 421.261 1000.03 421.261Z" fill="#6DCAFF"/>
<path d="M1423.83 422.643C1425.42 422.643 1425.42 419.856 1423.83 419.856C1422.23 419.856 1422.23 422.643 1423.83 422.643Z" fill="#6DCAFF"/>
<path d="M315.689 406.972C317.283 406.972 317.283 404.184 315.689 404.184C314.095 404.184 314.095 406.972 315.689 406.972Z" fill="#6DCAFF"/>
<path d="M365.975 408.753C367.569 408.753 367.569 405.966 365.975 405.966C364.381 405.966 364.381 408.753 365.975 408.753Z" fill="#6DCAFF"/>
<path d="M789.07 421.261C790.664 421.261 790.664 418.474 789.07 418.474C787.476 418.474 787.476 421.261 789.07 421.261Z" fill="#6DCAFF"/>
<path d="M724.251 421.261C725.845 421.261 725.845 418.474 724.251 418.474C722.657 418.474 722.657 421.261 724.251 421.261Z" fill="#6DCAFF"/>
<path d="M689.471 408.753C691.065 408.753 691.065 405.966 689.471 405.966C687.897 405.966 687.897 408.753 689.471 408.753Z" fill="#6DCAFF"/>
<path d="M554.119 412.385C555.713 412.385 555.713 409.598 554.119 409.598C552.524 409.598 552.524 412.385 554.119 412.385Z" fill="#6DCAFF"/>
<path d="M800.063 426.415C801.657 426.415 801.657 423.627 800.063 423.627C798.489 423.627 798.489 426.415 800.063 426.415Z" fill="#6DCAFF"/>
<path d="M1169.17 421.261C1170.76 421.261 1170.76 418.474 1169.17 418.474C1167.59 418.474 1167.59 421.261 1169.17 421.261Z" fill="#6DCAFF"/>
<path d="M185.678 400.93C187.272 400.93 187.272 398.143 185.678 398.143C184.084 398.143 184.084 400.93 185.678 400.93Z" fill="#6DCAFF"/>
<path d="M578.175 405.288C579.769 405.288 579.769 402.501 578.175 402.501C576.601 402.501 576.601 405.288 578.175 405.288Z" fill="#6DCAFF"/>
<path d="M142.99 412.852C144.584 412.852 144.584 410.065 142.99 410.065C141.396 410.065 141.396 412.852 142.99 412.852Z" fill="#6DCAFF"/>
<path d="M244.639 400.111C246.233 400.111 246.233 397.324 244.639 397.324C243.045 397.324 243.045 400.111 244.639 400.111Z" fill="#6DCAFF"/>
<path d="M152.199 746.155L787.575 746.155C854.35 753.411 1360.59 763.142 1605 768.397L1605 446.643L981.857 403.023C907.022 405.255 750.158 410.97 721.375 415.98C692.592 420.99 495.432 419.507 400.449 418.139L-14.7395 400C-33.9278 403.527 -73.1682 411.099 -76.6222 413.172C-80.9395 415.764 -214.059 421.162 -302.565 415.98C-373.37 411.834 -452.475 414.252 -483.176 415.98L-576 428.288L-576 787.83L-573.754 787.864C-433.525 790.001 -365.085 791.044 -31.4692 772.642C-25.8936 772.334 -11.2289 771.43 -22.118 768.756C-37.9432 764.871 -146.42 767.389 -201.107 767.749L-428.489 768.829C-478.139 769.908 -543.619 770.125 -530.667 767.965C-492.674 758.982 -170.405 749.682 -14.02 746.155L152.199 746.155Z" fill="#170139"/>
<defs>
<linearGradient id="paint0_linear_31_1128" x1="-623.695" y1="144.479" x2="1459.02" y2="144.479" gradientUnits="userSpaceOnUse">
<stop/>
<stop offset="0.2046" stop-color="#000304"/>
<stop offset="0.4089" stop-color="#000B10"/>
<stop offset="0.613" stop-color="#001924"/>
<stop offset="0.816" stop-color="#002D40"/>
<stop offset="1" stop-color="#004360"/>
</linearGradient>
<radialGradient id="paint1_radial_31_1128" cx="0" cy="0" r="1" gradientUnits="userSpaceOnUse" gradientTransform="translate(417.895 455.456) scale(1005.95 1138.12)">
<stop stop-color="#4F06BE"/>
<stop offset="0.2601" stop-color="#004E72"/>
<stop offset="0.9575" stop-color="#4F06BE"/>
</radialGradient>
</defs>
</svg>
