<svg fill="none" xmlns="http://www.w3.org/2000/svg" viewBox="0 0 659 439"><path d="m117.586 98.2655-9.24-5.7334-1.755 2.836c-.517.8341-1.456 1.2818-2.43 1.2028-.536-.0439-1.08-.0614-1.624-.0527-.973.0176-1.886-.4916-2.342-1.3521l-1.5709-2.9325-9.5816 5.1451 1.5706 2.9323c.465.861.386 1.897-.1755 2.704-.3071.448-.5967.905-.8599 1.388-.4738.86-1.3688 1.396-2.3428 1.361l-3.3255-.106-.3334 10.879 3.3431.096c.9827.027 1.8338.632 2.2462 1.519.1141.237.2369.483.3598.72.1228.237.2544.465.3948.694.5001.834.5352 1.87.0175 2.704l-1.7636 2.853 9.2394 5.734 1.7637-2.836c.5177-.834 1.4561-1.282 2.4301-1.194.536.044 1.08.061 1.624.052.974-.017 1.886.492 2.342 1.353l1.571 2.932 9.582-5.145-1.571-2.932c-.465-.861-.386-1.897.176-2.705.307-.448.596-.904.851-1.378.465-.861 1.368-1.396 2.342-1.37l3.335.105.342-10.878-3.334-.105c-.974-.027-1.825-.632-2.238-1.51-.114-.246-.237-.483-.36-.72-.122-.237-.254-.466-.394-.694-.509-.843-.536-1.879-.018-2.713l1.729-2.8535Zm-6.862 9.2105c2.325 4.337.693 9.737-3.641 12.063-4.335 2.327-9.74.703-12.0652-3.635-2.3252-4.337-.6932-9.745 3.6414-12.072 4.3438-2.327 9.7398-.694 12.0648 3.644Z" fill="#C9C9C9"/><path d="m89.2004 150.48-3.8081-6.603-2.0181 1.168c-.5967.342-1.3249.307-1.8953-.061-.3158-.211-.6493-.396-.9827-.571-.6054-.308-1.0003-.931-1.0003-1.607v-2.335h-7.6161v2.335c0 .685-.3949 1.299-1.0003 1.607-.3422.175-.6669.36-.9827.571-.5704.377-1.3074.403-1.8953.061l-2.0181-1.168-3.8081 6.603 2.0269 1.168c.5966.342.9213.992.8862 1.685-.0088.185-.0176.378-.0176.562 0 .185.0088.378.0176.562.0351.685-.2896 1.335-.8775 1.677l-2.0356 1.177 3.8081 6.602 2.0269-1.168c.5966-.342 1.3249-.307 1.8952.071.3159.21.6406.395.9828.57.6054.308 1.0002.922 1.0002 1.607v2.336h7.6162v-2.336c0-.685.3948-1.299 1.0003-1.607.3422-.175.6668-.36.9827-.57.5703-.378 1.3074-.413 1.8953-.071l2.0269 1.168 3.808-6.602-2.0268-1.168c-.5967-.343-.9214-.992-.8863-1.677.0088-.184.0176-.378.0176-.562 0-.184-.0088-.378-.0176-.562-.0351-.685.2896-1.343.8863-1.686l2.0093-1.176Zm-7.2827 3.406c0 3.451-2.7903 6.243-6.2386 6.243-3.4484 0-6.2386-2.792-6.2386-6.243 0-3.45 2.799-6.242 6.2386-6.242 3.4483 0 6.2386 2.801 6.2386 6.242Zm490.7683 43.593-3.808-6.602-2.018 1.167c-.596.343-1.325.308-1.895-.061-.316-.211-.649-.395-.983-.571-.605-.307-1-.922-1-1.607v-2.335h-7.616v2.335c0 .685-.395 1.3-1 1.607-.343.176-.667.36-.983.571-.571.377-1.308.404-1.895.061l-2.019-1.167-3.808 6.602 2.027 1.168c.597.342.922.992.886 1.686-.008.184-.017.377-.017.562 0 .184.009.377.017.562.036.684-.289 1.334-.877 1.676l-2.036 1.177 3.808 6.603 2.027-1.168c.597-.343 1.325-.307 1.896.07.315.211.64.395.982.571.606.307 1.001.93 1.001 1.607v2.335h7.616v-2.335c0-.685.395-1.3 1-1.607.342-.176.667-.36.983-.571.57-.377 1.307-.413 1.895-.07l2.027 1.168 3.808-6.603-2.027-1.168c-.597-.342-.921-.992-.886-1.677.009-.184.017-.377.017-.562 0-.184-.008-.377-.017-.562-.035-.684.289-1.343.886-1.685l2.009-1.177Zm-7.282 3.407c0 3.45-2.791 6.242-6.239 6.242s-6.238-2.792-6.238-6.242c0-3.451 2.799-6.243 6.238-6.243 3.448 0 6.239 2.801 6.239 6.243Z" fill="#EBEBEB"/><path d="M500.938 80.1769c-2.342 5.9616-3.667 12.1164-4.045 18.4907-.087 0-.166.0087-.237.0087h-15.934c-.07 0-.131-.0087-.202-.0087v-.4566c.044-.4214.088-.8341.132-1.2555.202-2.1775.57-4.3286 1.079-6.4533.843-3.4945 2.071-6.8572 3.642-10.0883.087-.1843.193-.237.394-.237 4.967.0088 9.924.0088 14.891.0088h.28v-.0088Zm-.491 41.3101h-.263c-4.923 0-9.854 0-14.776.009-.193 0-.281-.062-.369-.238-1.746-3.626-2.974-7.427-3.729-11.378-.369-1.906-.614-3.829-.737-5.76-.009-.062-.026-.132-.044-.193v-.448c.079-.009.167-.018.246-.018h15.838c.289 0 .28 0 .298.299.096 1.317.184 2.634.316 3.942.202 2.09.553 4.153 1.009 6.199.544 2.502 1.255 4.961 2.141 7.366.017.053.035.123.07.22Zm63.246 4.767c-.053.088-.088.158-.132.22-1.255 1.975-2.72 3.775-4.264 5.531-1.878 2.143-3.975 4.039-6.248 5.76-2.237 1.695-4.606 3.161-7.116 4.408-2.421 1.202-4.922 2.177-7.519 2.923-2.054.597-4.142 1.028-6.265 1.335-.202.026-.413.07-.614.105h-.36c-.105-.07-.211-.132-.351-.219.149-.106.272-.193.395-.281 4.615-3.161 8.572-6.98 11.863-11.511 1.851-2.546 3.466-5.224 4.843-8.051.079-.176.176-.237.377-.228 5.037.008 10.082 0 15.119 0h.272v.008Zm-15.04-27.5955h-21.128V80.1854c.087 0 .166-.0088.245-.0088 5.414 0 10.837 0 16.251-.0088.184 0 .263.0527.333.2195 1.527 3.4857 2.641 7.0943 3.361 10.8258.377 1.9404.658 3.8895.816 5.865.035.518.079 1.0361.122 1.5804Zm-.131 4.9255c-.018.439-.027.869-.062 1.308-.096 1.027-.166 2.064-.307 3.082-.202 1.414-.412 2.827-.693 4.232-.623 3.091-1.553 6.093-2.738 9.017-.079.193-.166.272-.386.272-5.545-.009-11.09-.009-16.636-.009h-.298v-17.902h21.12ZM522.76 80.291v18.4994h-20.628c.026-.4653.043-.9306.087-1.3872.106-1.036.193-2.0721.351-3.0993.255-1.5629.527-3.1345.86-4.6886.676-3.1344 1.694-6.1635 2.984-9.1048.079-.1756.166-.2283.35-.2283 5.248.0088 10.486.0088 15.733.0088h.263Zm.027 23.539c-.009 5.795-.009 11.598-.009 17.393v.263h-.281c-5.405 0-10.801 0-16.206.009-.193 0-.281-.061-.36-.246-1.246-3.011-2.211-6.119-2.808-9.324-.307-1.642-.544-3.301-.754-4.961-.141-1.08-.167-2.177-.246-3.275 0-.026 0-.061.009-.114.079-.009.158-.009.237-.009 6.712 0 13.424 0 20.146-.008.219.008.272.07.272.272Zm48.267-5.0398h-17.311c-.378-6.4006-1.676-12.5993-4.037-18.6136h.272c5.291 0 10.573 0 15.864-.0088.193 0 .29.0527.378.2283 1.851 3.6788 3.185 7.542 3.992 11.5808.43 2.1511.693 4.311.842 6.4972v.3161Zm.009 4.6538c-.017.421-.026.817-.061 1.212-.114 1.563-.299 3.125-.571 4.662-.631 3.6-1.711 7.059-3.185 10.404-.237.536-.491 1.063-.728 1.598-.053.123-.123.167-.254.167-5.3-.009-10.609-.009-15.908-.009-.053 0-.106-.009-.176-.009.193-.553.386-1.088.57-1.633.939-2.757 1.641-5.575 2.141-8.437.36-2.081.623-4.18.746-6.287.027-.491.062-.992.088-1.492.009-.132.044-.202.184-.185.053.009.106 0 .158 0h16.996v.009Zm-7.844-27.9822c-.009.0264-.018.0439-.035.0703h-15.355c-.176 0-.281-.0439-.36-.2108-2.045-4.03-4.519-7.7703-7.52-11.1418-1.746-1.9667-3.685-3.7139-5.765-5.3207-1.035-.7989-2.105-1.5365-3.158-2.3091-.053-.0351-.106-.079-.176-.1317.079-.0527.141-.0966.211-.1405-.027-.0966-.062-.1931-.097-.3248 5.388.6233 10.503 2.1335 15.312 4.6007 6.896 3.5295 12.626 8.4288 16.943 14.9084ZM519.83 146.334c-.185.035-.316.088-.439.07-1.667-.211-3.308-.544-4.931-.957-3.045-.773-5.976-1.861-8.784-3.257-3.22-1.598-6.203-3.565-8.958-5.883-1.948-1.642-3.756-3.424-5.388-5.382-1.219-1.475-2.334-3.038-3.36-4.654-.018-.035-.035-.079-.07-.14h.245c4.703 0 9.398 0 14.101-.009.193 0 .272.07.351.228 1.483 2.968 3.185 5.795 5.177 8.456 1.825 2.423 3.869 4.644 6.071 6.725 1.825 1.721 3.765 3.293 5.844 4.706.035 0 .053.027.141.097Zm-.185-89.9336c-.64.4741-1.404 1.0097-2.132 1.5716-2.483 1.9053-4.72 4.0564-6.826 6.3655-2.834 3.0994-5.23 6.506-7.169 10.2287-.123.2371-.228.4741-.369.7024-.035.0703-.14.1317-.219.1405-.254.0176-.509.0088-.772.0088h-13.785c7.678-10.8521 17.988-17.3669 31.114-19.3599-.026.0614-.061.1141-.087.1756.087.0527.175.1141.245.1668Zm22.7 69.8626c-1.966 3.442-4.282 6.585-6.976 9.447-2.395 2.546-5.01 4.829-7.967 6.77v-16.208h14.943v-.009Zm-19.585.009v15.901c-6.072-4.18-10.792-9.492-14.337-15.901h14.337Zm19.12-50.8801h-14.347V60.2464c2.966 1.9403 5.651 4.1705 8.047 6.743 2.395 2.5638 4.457 5.3734 6.3 8.4025Zm-19.12-14.6716v14.8031h-13.776c3.493-5.9792 7.968-10.9838 13.776-14.8031ZM90.85 294.805c-1.79 12.283-12.3719 21.704-25.1387 21.704-14.0302 0-25.4193-11.387-25.4193-25.435 0-14.04 11.3891-25.427 25.4193-25.427v25.427l25.1387 3.731Z" fill="#C9C9C9"/><path d="M96.3076 285.894c0 1.273-.0965 2.511-.272 3.731l-25.1386-3.731v-25.427c9.4237 0 17.6628 5.145 22.0588 12.783 2.1322 3.732 3.3518 8.052 3.3518 12.644Z" fill="#C9C9C9"/><path d="M105.635 304.718H78.6097v.878h27.0253v-.878Z" fill="#C7C7C7"/><path d="M107.53 307.492c-1.29 0-2.334-1.045-2.334-2.335 0-1.291 1.044-2.336 2.334-2.336s2.334 1.045 2.334 2.336c0 1.29-1.053 2.335-2.334 2.335Zm0-3.793c-.807 0-1.456.65-1.456 1.458 0 .807.649 1.457 1.456 1.457.799 0 1.457-.65 1.457-1.457 0-.799-.658-1.458-1.457-1.458Zm27.859.035H114.4v.949h20.989v-.949Zm-9.108 1.896H114.4v.949h11.881v-.949Z" fill="#C7C7C7"/><path d="M160.606 72.8297h-8.274v58.9133h8.274V72.8297Zm14.215 14.258h-8.274v44.6553h8.274V87.0877Zm14.223 22.3283h-8.274v22.327h8.274v-22.327Zm14.223-12.7485h-8.274v35.0765h8.274V96.6675Zm14.215-13.399h-8.274v48.4745h8.274V83.2685Zm14.223-7.8753h-8.274v56.3498h8.274V75.3932Z" fill="#C9C9C9"/><path d="m147.533 65.3403.096 16.603.044 16.603.07 33.2057-.21-.21c7.607-.018 15.206-.036 22.813-.009l22.813.044 22.814.044 22.813.122-22.813.123-22.814.044-22.813.044c-7.607.026-15.206.018-22.813-.009h-.211v-.21l.07-33.2063.044-16.603.097-16.5854Z" fill="#C9C9C9"/><path d="M145.707 68.668c.606-.1844 1.22-.2283 1.826-.237.605.0087 1.219.0526 1.825.237-.606.1844-1.22.2283-1.825.2371-.606-.0088-1.22-.0527-1.826-.2371Zm0 5.0483c.606-.1844 1.22-.2283 1.826-.2371.605.0088 1.219.0527 1.825.2371-.606.1844-1.22.2283-1.825.237-.606-.0087-1.22-.0526-1.826-.237Zm0 5.0482c.606-.1843 1.22-.2282 1.826-.237.605.0088 1.219.0527 1.825.237-.606.1844-1.22.2283-1.825.2371-.606-.0176-1.22-.0527-1.826-.2371Zm0 5.0401c.606-.1844 1.22-.2283 1.826-.2371.605.0088 1.219.0527 1.825.2371-.606.1843-1.22.2282-1.825.237-.606-.0088-1.22-.0527-1.826-.237Zm0 5.0482c.606-.1844 1.22-.2283 1.826-.237.605.0087 1.219.0526 1.825.237-.606.1844-1.22.2283-1.825.2371-.606-.0088-1.22-.0527-1.826-.2371Zm0 5.0491c.606-.1844 1.22-.2283 1.826-.2371.605.0088 1.219.0527 1.825.2371-.606.1844-1.22.2283-1.825.2371-.606-.0088-1.22-.0527-1.826-.2371Zm0 5.0482c.606-.1843 1.22-.2282 1.826-.237.605.0088 1.219.0527 1.825.237-.606.1844-1.22.2283-1.825.2371-.606-.0088-1.22-.0527-1.826-.2371Zm0 5.0479c.606-.184 1.22-.228 1.826-.237.605.009 1.219.053 1.825.237-.606.185-1.22.229-1.825.237-.606-.008-1.22-.052-1.826-.237Zm0 5.04c.606-.184 1.22-.228 1.826-.237.605.009 1.219.053 1.825.237-.606.185-1.22.229-1.825.237-.606-.008-1.22-.052-1.826-.237Zm0 5.049c.606-.185 1.22-.229 1.826-.237.605.008 1.219.052 1.825.237-.606.184-1.22.228-1.825.237-.606-.009-1.22-.053-1.826-.237Zm0 5.048c.606-.184 1.22-.228 1.826-.237.605.009 1.219.053 1.825.237-.606.184-1.22.228-1.825.237-.606-.009-1.22-.053-1.826-.237Zm0 5.049c.606-.184 1.22-.228 1.826-.237.605.009 1.219.053 1.825.237-.606.184-1.22.228-1.825.237-.606-.009-1.22-.053-1.826-.237Z" fill="#C9C9C9"/><path d="M139.074 410.315c53.635 0 97.115-6.619 97.115-14.785s-43.48-14.786-97.115-14.786c-53.6351 0-97.1149 6.62-97.1149 14.786s43.4798 14.785 97.1149 14.785Z" fill="#EBEBEB"/><path d="m40.836 342.859 72.055-.211 72.047-.079 144.101-.149 144.102.149 72.046.079 72.056.211-72.056.211-72.046.079-144.102.149-144.101-.149-72.047-.079-72.055-.211Z" fill="#263238"/><path d="M521.251 124.799H186.298v224.198h334.953V124.799Z" fill="#DBDBDB"/><path d="M518.82 127.539H188.737v218.727H518.82V127.539Z" fill="#263238"/><path d="M564.868 365.811H142.671v15.391h422.197v-15.391Z" fill="#C7C7C7"/><path d="m142.671 365.811 43.627-16.805h334.953l43.626 16.805H142.671Z" fill="#DBDBDB"/><path d="m190.194 359.849 28.157-10.843h270.847l28.157 10.843H190.194Z" fill="#263238"/><path d="M500.166 144.151H207.391v185.495h292.775V144.151Z" fill="#fff"/><path d="M500.157 144.151h-293.02v7.138h293.02v-7.138Z" fill="#455A64"/><path d="M211.041 149.498c.979 0 1.773-.794 1.773-1.774 0-.979-.794-1.773-1.773-1.773-.978 0-1.772.794-1.772 1.773 0 .98.794 1.774 1.772 1.774Z" fill="#C7C7C7"/><path d="M218.263 149.498c.979 0 1.772-.794 1.772-1.774 0-.979-.793-1.773-1.772-1.773s-1.773.794-1.773 1.773c0 .98.794 1.774 1.773 1.774Z" fill="#fff"/><path d="M225.484 149.498c.979 0 1.772-.794 1.772-1.774 0-.979-.793-1.773-1.772-1.773s-1.772.794-1.772 1.773c0 .98.793 1.774 1.772 1.774Z" fill="#FFC727"/><path d="M264.872 262.831h-44.503v30.475h44.503v-30.475Z" fill="#EBEBEB"/><path d="M220.369 265.061c1.912 1.089 3.79 2.222 5.685 3.328 1.887 1.124 3.765 2.256 5.634 3.406 3.746 2.283 7.467 4.619 11.178 6.954h-.5c3.712-2.344 7.432-4.671 11.179-6.954 1.868-1.15 3.755-2.282 5.633-3.406 1.895-1.106 3.773-2.248 5.685-3.328-1.798 1.265-3.623 2.476-5.44 3.714-1.825 1.221-3.65 2.432-5.492 3.635-3.668 2.415-7.371 4.776-11.074 7.129l-.245.158-.246-.158c-3.703-2.353-7.406-4.723-11.073-7.129-1.834-1.203-3.668-2.414-5.493-3.635-1.799-1.238-3.633-2.449-5.431-3.714Z" fill="#fff"/><path d="M220.474 287.88c1.351-1.176 2.755-2.282 4.177-3.362 1.421-1.08 2.869-2.116 4.325-3.152 1.466-1.019 2.94-2.02 4.44-2.977 1.501-.966 3.019-1.905 4.589-2.766-1.351 1.177-2.755 2.283-4.176 3.363-1.422 1.08-2.87 2.116-4.326 3.152-1.466 1.01-2.94 2.02-4.44 2.977-1.492.965-3.01 1.905-4.589 2.765Zm44.293 0c-1.571-.86-3.089-1.8-4.589-2.765-1.5-.957-2.975-1.967-4.44-2.977-1.456-1.027-2.904-2.063-4.326-3.152-1.421-1.08-2.825-2.186-4.176-3.363 1.57.861 3.088 1.8 4.589 2.766 1.5.957 2.974 1.967 4.44 2.977 1.456 1.027 2.904 2.063 4.325 3.152 1.422 1.08 2.826 2.186 4.177 3.362Z" fill="#fff"/><path d="m267.689 300.182 2.825 6.839-2.825 1.168-2.843-6.883-4.668 3.626v-19.255l13.469 13.618-5.958.887Zm-7.511-16.603c-.132-.325-.167-.65-.175-.966.008-.325.035-.65.175-.966.132.325.167.65.167.966 0 .316-.035.641-.167.966Zm-1.667.685c-.325-.132-.57-.343-.807-.562-.229-.229-.43-.483-.562-.808.325.132.57.342.807.562.22.237.43.483.562.808Zm-.693 1.668c-.325.131-.65.166-.966.166-.324-.008-.649-.035-.965-.166.325-.132.65-.167.965-.167.325 0 .641.035.966.167Zm.693 1.668c-.132.325-.342.571-.562.808-.228.228-.482.43-.807.561.132-.324.342-.57.562-.807.237-.22.482-.431.807-.562Zm4.019-1.668c.324-.132.649-.167.965-.167.324.009.649.035.965.167-.325.131-.649.166-.965.166-.316 0-.641-.026-.965-.166Zm-.685-1.668c.132-.325.342-.571.562-.808.228-.229.482-.43.807-.562-.132.325-.342.571-.562.808-.237.228-.482.43-.807.562Z" fill="#263238"/><path d="m395.628 305.634-33.079-8.499 10.906-42.496 24.56 6.313 6.44 10.29-8.827 34.392Z" fill="#EBEBEB"/><path d="m398.015 260.952 6.44 10.291-8.52-2.195 2.08-8.096Zm-23.455 2.735 18.391 4.725.28-1.088-18.392-4.726-.279 1.089Zm-.702 2.753 18.391 4.725.28-1.088-18.392-4.726-.279 1.089Zm-.713 2.757 18.392 4.726.279-1.089-18.392-4.725-.279 1.088Zm-.704 2.755 26.95 6.924.279-1.089-26.95-6.924-.279 1.089Zm-.711 2.749 26.95 6.924.28-1.088-26.95-6.924-.28 1.088Zm-.704 2.761 26.95 6.924.279-1.089-26.95-6.924-.279 1.089Zm-.711 2.75 26.95 6.924.28-1.089-26.95-6.924-.28 1.089Zm-.701 2.751 26.95 6.924.279-1.088-26.95-6.924-.279 1.088Zm-.712 2.758 26.95 6.924.279-1.088-26.95-6.924-.279 1.088Zm-.703 2.752 26.95 6.924.279-1.088-26.95-6.924-.279 1.088Zm-.711 2.75 26.95 6.924.28-1.088-26.95-6.924-.28 1.088Zm-.704 2.761 26.95 6.924.28-1.089-26.95-6.924-.28 1.089Z" fill="#DBDBDB"/><path d="m293.529 245.667 42.723 1.58 1.026-28.588-42.722-1.58-1.027 28.588Z" fill="#EBEBEB"/><path d="m295.372 243.955 39.169 1.449.895-25.032-39.169-1.449-.895 25.032Z" fill="#fff"/><path d="M299.54 226.86c-.088 2.353 1.755 4.337 4.106 4.425 2.352.088 4.335-1.756 4.423-4.109.087-2.353-1.755-4.337-4.107-4.425-2.36-.088-4.334 1.747-4.422 4.109Zm7.993 17.586 26.982.993-12.811-18.798-14.171 17.805Z" fill="#DBDBDB"/><path d="m296.951 244.06 22.279.825-10.696-12.327-11.583 11.502Z" fill="#EBEBEB"/><path d="m277.376 266.009 41.854-8.736-5.87-28-41.846 8.728 5.862 28.008Z" fill="#EBEBEB"/><path d="m278.753 263.902 38.38-8.008-5.142-24.513-38.379 8.007 5.141 24.514Z" fill="#fff"/><path d="M278.692 246.307c.483 2.309 2.738 3.784 5.045 3.31 2.308-.483 3.782-2.74 3.308-5.049-.482-2.309-2.737-3.784-5.045-3.31-2.308.474-3.791 2.739-3.308 5.049Zm11.986 15.145 26.428-5.514-16.952-15.172-9.476 20.686Z" fill="#DBDBDB"/><path d="m280.315 263.621 21.822-4.548-13.337-9.403-8.485 13.951Z" fill="#EBEBEB"/><path d="M571.616 264.217c6.607-13.601 18.18-20.581 31.219-16.718 13.039 3.855 15.057 22.047 5.326 26.648-9.731 4.592-19.461-8.824-24.603-11.572-5.142-2.766-11.942 1.642-11.942 1.642Z" fill="#FFC727"/><path d="M565.219 300.416c.036-1.642.097-3.275.158-4.917.114-3.275.228-6.55.351-9.816.22-5.988.869-11.861 3.343-17.375 2.22-4.952 5.827-9.281 10.486-12.09 1.737-1.045 3.597-1.853 5.51-2.38 1.615-1.808 4.133-2.976 6.432-3.538 3.018-.729 6.115-.571 9.169-.228.114.008.105.184-.009.175-2.895-.351-5.861-.175-8.678.615-1.202.342-2.386.781-3.492 1.361-.719.377-1.377.816-2.018 1.282 2.606-.527 5.3-.545 7.967.079.948.219 1.869.544 2.764.913.702-.185 1.483-.202 2.176-.185.948.018 1.904.176 2.825.404 1.904.474 3.677 1.379 5.362 2.345.096.052.008.201-.088.149-1.641-.905-3.405-1.563-5.238-1.976-.887-.202-1.782-.333-2.694-.395-.5-.035-1-.009-1.501.009 3.668 1.73 6.757 4.68 8.433 8.402.043.097-.106.185-.15.088-1.956-4.425-6.124-7.436-10.739-8.622-.29-.07-.58-.114-.869-.167.105.422.088.905.14 1.317.088.659.202 1.317.334 1.976.272 1.343.623 2.678 1.061 3.977.448 1.317.966 2.608 1.58 3.863.632 1.274 1.29 2.634 2.202 3.723.079.097-.07.211-.14.106-.781-1.23-1.694-2.362-2.413-3.635-.685-1.221-1.281-2.485-1.773-3.793-.491-1.326-.886-2.687-1.158-4.074-.14-.729-.254-1.466-.342-2.213-.053-.43-.149-.913-.079-1.352-1.527-.237-3.089-.255-4.633-.096.579 3.239 1.202 6.62 3.019 9.438.061.097-.097.184-.15.088-.807-1.528-1.64-3.012-2.237-4.636-.57-1.537-1.009-3.187-1.114-4.829-2.685.351-5.318 1.256-7.652 2.573-4.51 2.537-7.941 6.523-10.187 11.159-2.448 5.031-3.431 10.448-3.782 15.988-.429 6.954-.526 13.943-1.219 20.87-.044.457-.764.606-.851.097-.272-1.563-.141-3.135-.106-4.68Zm15.277-45.295c.368-.545 1-.975 1.5-1.388.544-.447 1.097-.878 1.676-1.273 1.158-.79 2.404-1.378 3.755-1.747.106-.026.15.14.044.167-1.36.29-2.597 1.01-3.711 1.826-.553.404-1.08.843-1.597 1.291-.483.421-.957.983-1.518 1.29-.088.044-.211-.07-.149-.166Z" fill="#263238"/><path d="M601.598 260.046c1.062 1.291 2.141 2.599 3.036 4.013.895 1.422 1.667 2.897 2.255 4.477.017.044-.053.071-.079.036-1.606-2.889-3.211-5.857-5.335-8.403-.07-.088.053-.211.123-.123Zm-14.223-1.343c.14.851.386 1.677.746 2.458.351.755.798 1.484 1.254 2.177.027.044-.044.097-.079.053-1.175-1.255-1.834-2.976-2.097-4.653-.009-.106.158-.15.176-.035Z" fill="#263238"/><path d="M566.141 264.559s-9.363-11.774-27.429-7.603c-17.171 3.968-25.095 35.48-7.748 39.246 17.356 3.767 14.294-25.392 20.62-30.335 4.642-3.635 11.319-2.853 14.557-1.308Z" fill="#FFC727"/><path d="M524.761 274.165c1.184-1.019 2.413-2.002 3.72-2.854 1.228-.799 2.562-1.545 3.966-1.984.711-1.063 1.483-2.09 2.352-3.029 1.614-1.739 3.457-3.196 5.457-4.355-.175-.009-.359-.027-.535-.035-.956-.035-1.913-.035-2.869.026-1.939.132-3.799.588-5.572 1.387-.105.044-.175-.114-.07-.158 1.781-.755 3.659-1.352 5.572-1.677.93-.158 1.877-.254 2.825-.246.509.009 1.018.036 1.518.088.097.009.193.018.29.027 1.649-.835 3.395-1.476 5.211-1.915-.166-.043-.333-.096-.5-.14-.886-.202-1.781-.334-2.676-.439-1.816-.211-3.597-.167-5.405.079-.114.018-.14-.158-.035-.167 1.799-.219 3.65-.29 5.467-.219 1.491.061 3.071.228 4.545.588 1.079-.193 2.184-.325 3.29-.378 6.3-.263 13.17 2.09 17.049 7.27 3.887 5.198 4.641 12.108 5.326 18.359.956 8.71 1.395 17.543.693 26.279-.044.518-.764.421-.781-.07-.237-7.428-.5-14.865-1.211-22.267-.325-3.424-.693-6.866-1.263-10.263-.483-2.907-1.185-5.804-2.492-8.456-1.369-2.765-3.44-4.995-6.099-6.558-2.623-1.545-5.615-2.397-8.634-2.661-2.737-.237-5.483.044-8.107.764.114.518.088 1.063.044 1.598-.053.668-.193 1.335-.395 1.976-.193.606-.456 1.194-.755 1.756-.333.623-.754 1.176-1.132 1.773-.061.097-.21-.008-.14-.096.781-.984 1.176-2.353 1.404-3.565.114-.606.184-1.229.219-1.844.027-.465-.017-.939.009-1.396-2.852.878-5.537 2.283-7.888 4.171-.439.351-.86.729-1.281 1.106.614.509 1.114 1.273 1.535 1.879.615.913 1.159 1.861 1.606 2.862.886 1.985 1.351 4.144 1.667 6.287.018.114-.158.14-.166.035-.29-2.116-1.071-4.074-2.054-5.962-.473-.913-1.009-1.808-1.597-2.651-.307-.439-.623-.87-.947-1.282-.176-.228-.369-.448-.535-.694-2.115 2.072-3.87 4.531-5.125 7.217.009.009.027.009.035.018.895.834 1.527 1.984 2.115 3.047.649 1.159 1.211 2.379 1.693 3.617.931 2.388 1.536 4.89 2.159 7.375.026.105-.149.141-.167.035-.5-2.537-1.456-4.934-2.562-7.261-.535-1.132-1.105-2.247-1.711-3.354-.561-1.036-1.255-2.063-1.693-3.161-1.194 2.643-1.922 5.488-2.062 8.377-.009.114-.185.096-.176-.018.36-4.504 1.694-8.991 4.054-12.854-1.106.474-2.211.922-3.273 1.501-1.351.729-2.623 1.598-3.755 2.643-.132.079-.246-.061-.158-.131Z" fill="#263238"/><path d="M538.01 274.831c.544 1.783 1.228 3.521 1.711 5.321.465 1.73.799 3.512.799 5.312 0 .053-.079.053-.088 0-.527-3.573-1.316-7.2-2.589-10.589-.044-.105.132-.167.167-.044Zm-11.442-4.425c.72-.676 1.509-1.264 2.396-1.712.877-.439 1.834-.693 2.772-.983.106-.035.141.149.035.167-.938.211-1.816.65-2.667 1.097-.851.448-1.685.94-2.457 1.51-.07.044-.131-.035-.079-.079Z" fill="#263238"/><path d="M557.244 248.834s-1.729-21.151-17.444-28.008c-13.118-5.725-20.637 9.026-11.354 18.06 7.502 7.305 19.541 4.013 28.798 9.948Z" fill="#FFC727"/><path d="M531.35 224.926c2.378 1.018 4.738 2.019 6.985 3.31 1.886 1.08 3.685 2.3 5.422 3.6-.263-.536-.491-1.098-.754-1.616-.413-.816-.851-1.615-1.334-2.388-1-1.589-2.097-3.082-3.457-4.381-.079-.079.044-.202.123-.123 1.298 1.326 2.579 2.722 3.641 4.241.535.772 1.044 1.571 1.492 2.397.412.755.877 1.589 1.053 2.432.052.044.114.079.175.123 2.755 2.177 5.247 4.662 7.502 7.349-.044-.211-.088-.413-.14-.606-.299-1.036-.614-2.055-.957-3.073-.71-2.143-1.597-4.276-2.842-6.173-.062-.096.096-.175.149-.087 1.193 1.958 2.378 3.907 3.29 6.014.439 1.01.799 2.063 1.088 3.126.167.632.439 1.396.509 2.124.684.87 1.36 1.748 1.992 2.652 6.747 9.605 10.134 21.23 10.941 32.863.246 3.469.29 6.945.176 10.422-.114 3.477-.246 7.033-.921 10.457-.044.22-.386.15-.378-.061.079-3.056.395-6.102.457-9.158.061-3.064-.044-6.128-.299-9.184-.491-6.084-1.641-12.16-3.431-17.999-1.825-5.961-4.51-11.712-7.993-16.919-.658-.131-1.316-.307-1.965-.483-.781-.202-1.571-.403-2.352-.623-1.5-.421-2.992-.896-4.378-1.607-.097-.052-.009-.202.087-.149 1.369.799 2.896 1.229 4.44 1.537 1.229.245 2.51.403 3.738.684-1.141-1.659-2.351-3.266-3.65-4.802-2.983.289-6.028.026-8.941-.668-1.553-.368-3.089-.851-4.572-1.422-1.57-.606-3.062-1.387-4.615-2.037-.114-.053-.035-.219.07-.158 2.668 1.616 6.011 2.45 9.064 2.968 2.808.474 5.633.649 8.476.702-1.114-1.282-2.272-2.529-3.501-3.705-4.124-3.933-9.029-7.551-14.469-9.43-.079-.026-.017-.193.079-.149Z" fill="#263238"/><path d="M544.143 224.988c.702.895 1.36 1.835 1.931 2.818.596 1.045 1.035 2.125 1.386 3.284.009.035-.044.061-.061.026-.527-1.036-.966-2.116-1.501-3.143-.526-1.019-1.14-1.976-1.877-2.863-.079-.087.052-.21.122-.122Zm-14.618 7.041c1.018.589 2.106.984 3.22 1.344 1.08.351 2.168.658 3.282.878.053.009.035.096-.018.096-1.158-.14-2.298-.36-3.395-.746s-2.141-.913-3.185-1.431c-.088-.044 0-.193.096-.141Z" fill="#263238"/><path d="M569.457 245.024c.097.913 2.378-7.674 15.663-15.304 12.064-6.927 26.463-24.944 14.635-36.332-9.546-9.183-34.702 10.844-30.298 51.636Z" fill="#FFC727"/><path d="M560.315 294.288c.201-8.938.895-17.867 2.105-26.735 1.115-8.148 2.87-16.164 5.616-23.925.991-2.792 2.115-5.549 3.343-8.253-.132-1.028.009-2.169.053-3.161.061-1.352.184-2.705.316-4.057.122-1.352.263-2.695.421-4.047.158-1.335.447-2.687.5-4.03.009-.123.202-.097.167.026-.325 1.379-.369 2.871-.474 4.276-.106 1.308-.176 2.608-.22 3.916-.043 1.308-.035 2.616-.035 3.924 0 .475.027.975.044 1.476 1.246-2.643 2.589-5.242 4.036-7.78-.903-5.513.272-11.273 1.396-16.664.026-.105.184-.061.166.053-.588 2.809-.807 5.68-.877 8.543-.053 2.265.052 4.53.061 6.787.316-.545.641-1.089.965-1.625 1.72-2.818 3.563-5.575 5.519-8.253-.21-1.291-.061-2.651.132-3.925.211-1.448.544-2.888.965-4.293.421-1.405.913-2.792 1.474-4.153.58-1.396 1.343-2.722 1.896-4.127.044-.114.219-.035.158.071-.755 1.264-1.211 2.774-1.668 4.17-.438 1.352-.807 2.74-1.088 4.136-.28 1.396-.509 2.8-.71 4.214-.132.931-.211 1.905-.378 2.853 2.861-3.819 5.949-7.463 9.301-10.834.079-.079.193.044.123.123-5.045 5.733-9.608 11.809-13.504 18.385-.149.246-.28.492-.43.738.729-.457 1.571-.826 2.264-1.203 1.29-.72 2.58-1.431 3.878-2.125 1.255-.676 2.51-1.37 3.765-2.063.64-.36 1.281-.729 1.939-1.063.746-.377 1.579-.746 2.255-1.246.105-.079.21.079.105.14-1.281.703-2.413 1.747-3.641 2.538-1.246.799-2.501 1.554-3.791 2.274-2.36 1.317-4.931 2.265-7.256 3.626-1.615 2.827-3.098 5.724-4.475 8.674 1.413-.904 2.852-1.764 4.317-2.581.939-.527 1.886-1.045 2.843-1.554.921-.483 1.877-.931 2.676-1.616.088-.07.202.044.123.123-1.501 1.475-3.299 2.503-5.107 3.556-1.711 1.001-3.431 1.958-5.203 2.836-1.422 3.117-2.711 6.287-3.843 9.518-5.59 15.848-7.652 32.661-8.626 49.37-.289 4.978-.447 9.956-.508 14.943-.062 4.979.201 9.957.193 14.935 0 .149-.246.184-.264.026-.596-4.416-.702-8.911-.895-13.354-.219-4.504-.219-9.061-.122-13.583Z" fill="#263238"/><path d="M584.453 222.555c2.439-1.001 4.764-2.353 7.063-3.652 2.308-1.308 4.545-2.713 6.704-4.259.035-.026.079.036.044.062-2.045 1.633-4.186 3.169-6.441 4.504-2.334 1.387-4.808 2.415-7.291 3.494-.097.044-.184-.105-.079-.149Zm-3.852-17.91c.193-.773.439-1.537.702-2.283-.026-.018-.053-.044-.035-.088.166-.43.342-.852.517-1.282.018-.061.044-.114.062-.149.035-.079.07-.167.096-.246.009-.026.053-.018.044.009-.044.149-.087.298-.131.439-.027.088-.035.158-.071.246-.903 2.95-1.509 5.979-1.965 9.025-.018.097-.158.097-.158 0 .123-1.922.465-3.81.939-5.671Z" fill="#263238"/><path d="m546.276 297.501.947 11.239 2.904 34.294h31.088l2.904-34.294.948-11.239h-38.791Z" fill="#455A64"/><path d="m546.276 297.501.947 11.239h36.896l.948-11.239h-38.791Z" fill="#263238"/><path d="M543.229 303.773h44.89v-10.79h-44.89v10.79Z" fill="#455A64"/><path d="M422.855 263.655h-14.153v55.252h14.153v-55.252Zm0 57.983h-14.153v9.096h14.153v-9.096Zm0 11.827h-14.153v5.61h14.153v-5.61Zm0 8.341h-14.153v2.783h14.153v-2.783Zm4.712-78.151h-23.586l11.793-16.331 11.793 16.331Zm23.454-17.561h-14.153v72.813h14.153v-72.813Zm0 75.544h-14.153v9.096h14.153v-9.096Zm0 11.826h-14.153v5.611h14.153v-5.611Zm0 8.342h-14.153v2.783h14.153v-2.783Z" fill="#4F06BE"/><path d="M455.741 246.095h-23.585l11.793-16.331 11.792 16.331Zm23.454-17.561h-14.153v90.373h14.153v-90.373Zm0 93.104h-14.153v9.096h14.153v-9.096Zm0 11.826h-14.153v5.61h14.153v-5.61Zm0 8.341h-14.153v2.784h14.153v-2.784Z" fill="#4F06BE"/><path d="M483.907 228.535h-23.585l11.792-16.331 11.793 16.331Zm23.454-17.56h-14.153v107.933h14.153V210.975Zm0 110.663h-14.153v9.097h14.153v-9.097Zm0 11.827h-14.153v5.611h14.153v-5.611Zm0 8.341h-14.153v2.783h14.153v-2.783Zm4.721-130.831h-23.586l11.793-16.33 11.793 16.33Z" fill="#4F06BE"/><path opacity=".6" d="M271.006 307.397c0 3.442-2.791 6.225-6.221 6.225-3.431 0-6.221-2.792-6.221-6.225 0-3.442 2.79-6.225 6.221-6.225 3.43 0 6.221 2.783 6.221 6.225Zm7.563-11.896c0 1.677-1.36 3.038-3.036 3.038s-3.036-1.361-3.036-3.038c0-1.677 1.36-3.038 3.036-3.038 1.685.009 3.036 1.369 3.036 3.038Zm133.169 8.885c0 1.677-1.36 3.038-3.036 3.038s-3.036-1.361-3.036-3.038c0-1.677 1.36-3.038 3.036-3.038s3.036 1.361 3.036 3.038Zm60.745 27.71c0 1.677-1.36 3.038-3.036 3.038s-3.036-1.361-3.036-3.038c0-1.677 1.36-3.038 3.036-3.038s3.036 1.361 3.036 3.038Z" fill="#170139"/><path opacity=".6" d="M467.833 340.972c0 1.993-1.624 3.617-3.616 3.617H238.681c-1.992 0-3.615-1.624-3.615-3.617 0-1.993 1.623-3.617 3.615-3.617.298 0 .588.035.86.105 0-3.942 3.194-7.138 7.133-7.138 1.992 0 3.8.825 5.098 2.151l.062-.026c-.044-.439-.062-.887-.062-1.335 0-7.437 6.028-13.477 13.469-13.477 2.123 0 4.133.492 5.923 1.378.289-5.048 4.466-9.052 9.59-9.052 4.089 0 7.572 2.538 8.959 6.129 2.377-3.785 6.598-6.296 11.397-6.296.887 0 1.747.088 2.571.246-.184-1.018-.272-2.072-.272-3.143 0-10.071 8.161-18.236 18.225-18.236 4.545 0 8.704 1.668 11.889 4.425.597-1.168 1.816-1.958 3.211-1.958.492 0 .966.105 1.387.272l3.387-90.495h19.865l3.387 90.495c.43-.175.895-.272 1.386-.272 1.395 0 2.615.799 3.212 1.958 3.194-2.757 7.344-4.425 11.889-4.425 10.064 0 18.224 8.165 18.224 18.236 0 1.071-.096 2.125-.272 3.143.834-.158 1.694-.246 2.571-.246 4.8 0 9.02 2.511 11.398 6.296 1.386-3.591 4.879-6.129 8.959-6.129 5.124 0 9.301 4.004 9.59 9.052 1.79-.886 3.799-1.378 5.923-1.378 7.441 0 13.469 6.032 13.469 13.477 0 .448-.018.887-.062 1.335l.062.026c1.298-1.326 3.106-2.151 5.097-2.151 3.94 0 7.134 3.196 7.134 7.138.272-.061.562-.105.86-.105 2.009 0 3.633 1.615 3.633 3.617Z" fill="#170139"/><path d="m410.65 311.182-4.694.86-1.045 4.952-1.044-4.952-4.694-.869 4.668-1.141 1.07-4.671 1.071 4.671 4.668 1.15Zm-45.618-39.677-4.694.869-1.045 4.943-1.052-4.943-4.686-.869 4.668-1.15 1.07-4.671 1.071 4.671 4.668 1.15Zm-68.16 49.097-2.623.483-.588 2.766-.579-2.766-2.624-.492 2.606-.632.597-2.616.597 2.616 2.614.641Zm141.049 8.245-2.624.483-.588 2.765-.579-2.765-2.623-.483 2.606-.641.596-2.608.606 2.608 2.606.641Zm-177.129 9.693-2.623.483-.579 2.765-.588-2.765-2.624-.483 2.615-.641.597-2.617.596 2.617 2.606.641Zm114.032-2.3-2.623.483-.588 2.765-.579-2.765-2.624-.483 2.606-.641.597-2.617.605 2.617 2.606.641Zm-19.189-72.259-2.624.482-.588 2.766-.588-2.766-2.615-.482 2.606-.641.597-2.608.597 2.608 2.615.641Zm88.489 70.846c-.974 0-.983 1.518 0 1.518.974 0 .974-1.518 0-1.518Zm-98.641-80.434c-.974 0-.983 1.519 0 1.519.982 0 .982-1.519 0-1.519Zm-64.826 84.147c-.974 0-.982 1.519 0 1.519.974 0 .974-1.519 0-1.519Zm48.163-10.457c-.974 0-.983 1.519 0 1.519.974.009.974-1.519 0-1.519Zm96.264-6.928c-.693 0-.693 1.08 0 1.08.693-.008.693-1.08 0-1.08Zm-66.422-8.069c-.693 0-.693 1.08 0 1.08s.693-1.08 0-1.08Zm-48.628-10.509c-.693 0-.693 1.08 0 1.08.693-.009.693-1.08 0-1.08Zm83.19 2.195c-1.878 0-1.878 2.915 0 2.915s1.878-2.915 0-2.915Zm-76.302-7.138c-1.878 0-1.878 2.915 0 2.915s1.878-2.915 0-2.915Z" fill="#FCFCFC"/><path d="M317.641 129.348c-.71 0-27.218 12.239-28.788 42.381-1.439 27.719 17.706 54.032 20.181 52.294 3.027-2.134-2.124-19.404 3.764-39.15 2.088-7.007 11.214-13.223 11.214-13.223l-6.371-42.302Z" fill="#170139"/><path opacity=".1" d="M324.012 171.65s-3.958 2.696-7.257 6.541c-3.948-8.806-11.292-25.242-16.048-35.901 7.765-8.982 16.522-12.942 16.926-12.942l6.379 42.302Z" fill="#4F06BE"/><path d="M385.09 129.401c.711 0 27.201 12.283 28.728 42.425 1.403 27.718-17.786 54.006-20.252 52.259-3.018-2.143 2.15-19.395-3.702-39.159-2.08-7.007-11.197-13.24-11.197-13.24l6.423-42.285Z" fill="#170139"/><path opacity=".1" d="M402.095 142.474c-4.8 10.738-12.17 27.209-16.066 35.91-3.317-3.924-7.371-6.699-7.371-6.699l6.432-42.293c.404 0 9.24 4.012 17.005 13.082Z" fill="#000"/><path d="m371.402 198.701-39.994-.026s-18.838-33.706-16.609-73.901c1.123-20.063 6.361-40.2566 12.67-56.9737 8.678-23.0826 19.409-39.4573 24.059-39.4486 4.668 0 15.355 16.3923 24.024 39.4837 6.265 16.7171 11.477 36.9286 12.574 56.9906 2.167 40.186-16.724 73.875-16.724 73.875Z" fill="#EBEBEB"/><path d="M375.403 119.619c-.009 12.749-10.345 23.065-23.076 23.056-12.741-.008-23.051-10.351-23.042-23.091.009-12.748 10.345-23.065 23.077-23.0562 12.731.0088 23.05 10.3512 23.041 23.0912Z" fill="#C7C7C7"/><path d="M374.587 117.275c-.009 12.748-10.345 23.065-23.076 23.056-12.741-.009-23.051-10.351-23.042-23.091.009-12.749 10.345-23.0653 23.077-23.0565 12.731 0 23.05 10.3425 23.041 23.0915Z" fill="#FFC727"/><path d="M367.515 117.257c0 8.841-7.16 16.006-15.996 16.006-8.835 0-15.995-7.165-15.995-16.006 0-8.841 7.16-16.006 15.995-16.006 8.836 0 15.996 7.165 15.996 16.006Z" fill="#fff"/><path d="M367.524 117.248c0 2.046-.378 4.004-1.079 5.795l-9.117 9.123c-1.79.702-3.755 1.08-5.791 1.08-1.483 0-2.922-.211-4.282-.589l19.681-19.693c.377 1.369.588 2.801.588 4.284Zm-13.653-15.821-18.172 18.183c-.114-.764-.175-1.554-.175-2.344 0-8.841 7.16-16.006 15.995-16.006.799-.009 1.588.053 2.352.167Zm11.652 8.077-21.734 21.748c-.421-.228-.825-.474-1.228-.755l22.208-22.222c.263.395.509.808.754 1.229Z" fill="#EBEBEB"/><path d="m375.552 67.8354-48.074-.0351c8.677-23.0826 19.408-39.4573 24.059-39.4486 4.668 0 15.355 16.3835 24.015 39.4837Z" fill="#170139"/><path d="M335.752 62.8401c0 .7463-.606 1.3434-1.352 1.3434-.745 0-1.342-.6059-1.342-1.3522 0-.7463.605-1.3433 1.351-1.3433s1.352.6058 1.343 1.3521Zm8.555 0c0 .7463-.606 1.3434-1.351 1.3434-.746 0-1.343-.6059-1.343-1.3522 0-.7463.605-1.3433 1.351-1.3433.746.0088 1.343.6146 1.343 1.3521Zm8.555.0091c0 .7463-.606 1.3433-1.351 1.3433-.746 0-1.343-.6058-1.343-1.3521 0-.7463.606-1.3433 1.351-1.3433.737.0087 1.343.6058 1.343 1.3521Zm8.555.0082c0 .7463-.606 1.3433-1.351 1.3433-.746 0-1.343-.6058-1.343-1.3521 0-.7463.606-1.3433 1.351-1.3433.737 0 1.343.6058 1.343 1.3521Zm8.546 0c0 .7463-.605 1.3433-1.351 1.3433s-1.343-.6058-1.343-1.3521c0-.7463.606-1.3433 1.352-1.3433.745.0088 1.342.6146 1.342 1.3521Z" fill="#fff"/><path d="M335.699 192.52c0 .747-.605 1.344-1.351 1.344s-1.343-.606-1.343-1.353c0-.746.606-1.343 1.352-1.343.745 0 1.342.606 1.342 1.352Zm8.555 0c0 .747-.605 1.344-1.351 1.344s-1.343-.606-1.343-1.352c0-.747.606-1.344 1.352-1.344.737.009 1.342.615 1.342 1.352Zm8.555.009c0 .747-.605 1.344-1.351 1.344s-1.343-.606-1.343-1.352c0-.747.606-1.344 1.352-1.344.737 0 1.342.606 1.342 1.352Zm8.546.009c0 .746-.605 1.343-1.351 1.343s-1.342-.606-1.342-1.352c0-.746.605-1.343 1.351-1.343s1.342.605 1.342 1.352Zm8.555 0c0 .746-.605 1.343-1.351 1.343s-1.342-.606-1.342-1.352c0-.746.605-1.343 1.351-1.343.737.008 1.342.614 1.342 1.352Z" fill="#C7C7C7"/><path d="m367.717 210.73-32.527-.026-1.518-12.028 35.58.026-1.535 12.028Z" fill="#FF00C7"/><path opacity=".1" d="m369.252 198.702-.754 5.856-34.247-1.282-.57-4.6 35.571.026Z" fill="#FF00C7"/><path d="M196.494 389.553c-1.878.632-55.718.825-57.78-.466-.781-.483-1.263-8.332-1.588-17.823-.07-2.055-.123-4.171-.175-6.322l-4.37-28.737 35.992-.228 3.396 28.746-.14 6.321s20.646 9.158 22.752 10.809c2.106 1.659 3.79 7.067 1.913 7.7Z" fill="#D3766A"/><path d="M196.494 389.552c-1.878.633-55.718.826-57.78-.465-.947-.597-1.474-12.055-1.755-24.145l35.028-.228-.141 6.321s20.646 9.158 22.752 10.809c2.089 1.668 3.773 7.076 1.896 7.708Z" fill="#fff"/><path d="M196.494 389.552c-1.878.633-55.718.826-57.78-.465-.781-.483-1.263-8.332-1.588-17.823l34.712-.22s20.646 9.158 22.752 10.808c2.097 1.66 3.781 7.068 1.904 7.7Z" fill="#4F06BE"/><path d="M195.713 387.402c-9.029-.193-45.452-.105-54.384.395-.07 0-.07.053 0 .053 8.941.386 45.364 0 54.392-.307.185 0 .185-.141-.008-.141Zm-20.366-15.479c-3.615-.035-7.8 1.256-10.029 4.214-.088.115.079.237.184.185 3.264-1.695 6.362-2.959 9.907-3.951.254-.07.193-.439-.062-.448Zm2.791 1.08c-3.616-.036-7.801 1.255-10.03 4.214-.087.114.079.237.185.184 3.255-1.694 6.361-2.958 9.906-3.951.254-.07.202-.447-.061-.447Zm2.79 1.08c-3.615-.035-7.801 1.256-10.029 4.214-.088.115.079.237.184.185 3.255-1.695 6.361-2.959 9.906-3.951.255-.07.202-.448-.061-.448Z" fill="#263238"/><path d="M75.679 209.405s47.241 71.153 48.356 76.149c1.719 7.673 10.889 84.665 10.889 84.665l39.405-.781s-8.906-68.019-16.004-90.039c-5.116-15.865-42.003-68.466-42.003-68.466l-40.643-1.528Z" fill="#37474F"/><path d="M173.162 362.677c-6.247-.044-28.376-.298-36.694.483-.061.009-.061.114 0 .123 2.86.413 30.447-.228 36.694-.43.123 0 .115-.176 0-.176Z" fill="#263238"/><path d="M112.637 401.564c-1.983.132-55.4017-13.96-57.0689-15.734-.0526-.061-.0965-.184-.1228-.368-.2106-1.748 2.5182-8.315 4.4398-16.718.1229-.535 1.1232-3.081 2.5358-6.532 3.8783-9.465 10.7925-25.708 10.7925-25.708l34.8786 8.956-12.8461 25.831-1.7373 6.075s17.6364 14.119 19.2514 16.252c1.588 2.151 1.851 7.814-.123 7.946Z" fill="#D3766A"/><path d="M112.637 401.564c-1.983.132-55.4017-13.96-57.0689-15.734-.0526-.061-.0965-.184-.1228-.368-.2106-1.748 2.5182-8.315 4.4398-16.718.1229-.535 1.1232-3.081 2.5358-6.532l32.825 9.079-1.7373 6.075s17.6364 14.119 19.2514 16.252c1.588 2.151 1.851 7.814-.123 7.946Z" fill="#fff"/><path d="M112.628 401.563c-1.983.141-55.4015-13.96-57.0599-15.733-.6317-.668.7546-7.902 4.3083-17.077l33.6234 8.63s17.6362 14.11 19.2512 16.252c1.605 2.134 1.86 7.788-.123 7.928Z" fill="#4F06BE"/><path d="M112.426 399.28c-8.678-2.484-43.9244-11.677-52.6988-13.468-.0702-.018-.0877.035-.0175.052 8.5462 2.652 43.8723 11.555 52.6723 13.565.193.044.228-.096.044-.149Zm-15.7586-20.15c-3.4835-.957-7.8619-.773-10.775 1.519-.114.088.0176.246.1316.219 3.58-.807 6.9055-1.246 10.5907-1.299.2545 0 .2983-.369.0527-.439Zm2.4217 1.756c-3.4834-.957-7.8619-.773-10.775 1.519-.114.088.0176.246.1317.219 3.5799-.807 6.9054-1.246 10.5906-1.299.2633 0 .3071-.378.0527-.439Zm2.4309 1.747c-3.4838-.957-7.8623-.773-10.7753 1.519-.1141.088.0175.246.1316.219 3.5799-.807 6.9054-1.246 10.5907-1.299.254.009.298-.369.053-.439Z" fill="#263238"/><path d="m95.904 377.455-39.0724-10.264s39.1338-81.496 38.8354-86.58c-.272-4.504-27.4023-44.04-28.9115-51.442-2.4569-12.116 3.4395-22.933 9.1604-29.641l40.4151 11.405s-3.22 6.998-9.134 11.414c0 0 25.401 42.443 26.051 56.403.658 14.039-37.344 98.705-37.344 98.705Z" fill="#37474F"/><path d="M96.5357 370.423c-5.6682-1.624-4.0186-1.238-9.7044-2.801-2.7815-.764-21.0761-5.768-23.7962-6.023-.0614-.009-.0877.088-.0351.114 2.492 1.124 20.8655 5.804 23.6645 6.515 5.7122 1.449 4.0889.974 9.8186 2.362.1228.026.1667-.132.0526-.167ZM113.4 220.715c-3.887 1.37-7.625 3.284-11.187 5.286-.141.079-.044.289.105.219 3.773-1.642 7.625-3.222 11.293-5.066.298-.149.087-.544-.211-.439Z" fill="#263238"/><path d="M108.653 219.723c-.289.711-.526 1.44-.719 2.177-.149.571-.36 1.194-.281 1.791.017.114.175.123.237.044.386-.491.544-1.168.754-1.747.246-.676.509-1.343.729-2.028.149-.457-.536-.676-.72-.237Z" fill="#263238"/><path d="M108.662 216.053c.158-.624.325-1.238.491-1.853.176-.641.404-1.273.527-1.923.017-.105.184-.052.158.044-.158.624-.228 1.273-.343 1.905-.114.633-.228 1.265-.359 1.897-.228 1.176-.544 2.353-.895 3.503.623-.088 1.263-.202 1.798-.553.58-.386.869-1.097 1.097-1.73.255-.702.483-1.422.746-2.116.29-.772.623-1.545.781-2.361.018-.106.184-.053.158.043-.369 1.695-.728 3.381-1.439 4.988-.281.632-.483 1.281-1.106 1.589-.666.333-1.439.386-2.167.421-.088.035-.21-.009-.193-.123.193-1.229.43-2.502.746-3.731Zm-.676 7.682c1.536 2.775 3.299 5.444 4.94 8.157 1.606 2.651 3.133 5.356 4.633 8.069 3.027 5.487 5.826 11.115 8.38 16.831 1.263 2.827 2.465 5.689 3.58 8.587 1.123 2.897 2.237 5.83 2.939 8.867.702 3.047.869 6.12.395 9.219-.483 3.135-1.43 6.182-2.387 9.202-2.167 6.892-4.571 13.732-7.633 20.282-.106.219-.466.052-.387-.176 2.133-6.023 4.344-12.028 6.265-18.131 1.861-5.917 4.063-12.055 3.036-18.341-.491-3.029-1.5-5.953-2.571-8.824-1.088-2.932-2.263-5.83-3.509-8.701-2.457-5.654-5.212-11.142-8.029-16.62-1.579-3.065-3.238-6.094-4.826-9.149-1.606-3.082-3.176-6.225-4.975-9.202-.044-.079.097-.158.149-.07ZM78.5482 217.8c.7283-.123 1.7988.132 4.9663-.088.8775-.061 1.7461-.228 2.5973-.421.8511-.193 1.7197-.413 2.4129-.984 1.167-.957 2.0532-2.484 2.7552-3.793.7721-1.44 1.5618-3.081 1.9303-4.688.0264-.097.1667-.053.1492.044-.1667.93-.2632 1.852-.5001 2.774-.2282.861-.5616 1.704-.9214 2.52-.6756 1.519-1.4653 3.152-2.8253 4.179-1.4302 1.08-3.422 1.282-5.1506 1.396-1.0002.071-4.9312-.035-5.4576-.597-.0966-.105-.0878-.324.0438-.342Z" fill="#263238"/><path d="M64.7637 360.519c4.238-11.098 27.183-60.249 31.6755-70.513 1.0705-2.458 2.3603-4.934 2.9219-7.568.6054-2.871-.2808-5.461-1.4829-8.034-2.2199-4.723-4.8084-9.262-7.546-13.705-2.7463-4.452-5.6507-8.806-8.5111-13.179-2.8429-4.337-5.835-8.675-8.1602-13.319-2.2199-4.434-3.4571-9.175-2.8253-14.154.6317-4.943 2.7727-9.57 5.0628-13.942.6054-1.15 1.2284-2.292 1.8338-3.442.0439-.088.1843-.009.1316.079-2.5621 4.574-5.0101 9.377-6.1947 14.513-.5879 2.538-.8423 5.163-.5703 7.762.2808 2.634 1.1056 5.171 2.1936 7.577 2.1234 4.671 5.0891 8.973 7.8794 13.258 2.8604 4.381 5.7735 8.727 8.555 13.161 2.799 4.46 5.4664 9.008 7.7829 13.732 1.0354 2.107 2.1585 4.302 2.4129 6.664.2724 2.59-.658 5.075-1.6583 7.419-4.3433 10.194-32.6495 72.576-33.2725 73.831-.0702.158-.2895.018-.2281-.14Z" fill="#263238"/><path d="M118.875 165.276c6.213 3.512 29.035 16.155 37.528 14.987 13.53-1.861 33.44-21.967 38.362-27.033 2.141-2.213-14.873-20.818-17.329-18.623-1.659 1.476-20.769 22.802-23.06 23.706-2.29.905-21.541-1.676-33.14-3.977-11.056-2.195-15.531 3.495-2.361 10.94Z" fill="#D3766A"/><path d="M201.232 145.512c-2.413 4.654-11.065 12.24-13.855 13.267-2.79 1.027-16.171-13.267-15.68-16.278.483-3.012 9.819-18.052 14.706-20.22 4.887-2.169 17.329 18.411 14.829 23.231Z" fill="#D3766A"/><path d="M179.55 127.118c.184 2.775 3.343.975 3.343.975s-3.922 3.687-2.632 6.471c1.255 2.678 4.993.368 5.265.21-.202.194-3.721 3.679-2.141 6.348 1.649 2.766 5.01-.193 5.22-.386-.131.246-1.877 3.547-.219 5.294 2.86 3.003 7.555-5.303 10.828-6.058 0 0 1.921 5.4 2.009 5.549 0 0 4.624-7.814 3.352-12.169-.676-2.3-2.948-2.125-2.948-2.125s1.772-2.353.587-4.495c-.605-1.098-2.904-1.098-2.904-1.098s1.343-1.94.167-3.775c-.93-1.466-3.089-1.238-3.089-1.238s.421-2.467-1.018-3.652c-2.869-2.415-16.197 4.214-15.82 10.149Z" fill="#D3766A"/><path d="M196.064 120.595c.043-.018.026-.088-.018-.079-4.914 1.115-9.976 3.845-13.328 7.647-.114.123.044.36.193.246 4.203-3.258 8.186-5.821 13.153-7.814Zm3.316 4.978c.053-.017.018-.114-.044-.096-5.062 1.176-10.678 4.407-14.021 9.245-.114.167-.053.43.096.246 2.466-3.047 9.494-7.63 13.969-9.395Zm-10.889 15.576c3.387-4.522 7.88-7.507 12.934-9.904.061-.035.017-.123-.044-.114-2.79.5-5.853 2.361-8.116 4.012-2.168 1.58-3.8 3.451-4.932 5.874-.044.114.088.228.158.132Z" fill="#263238"/><path d="M182.893 128.093c-.684.781-1.307 1.615-1.834 2.502-.509.878-.947 1.861-.93 2.818.009.474.167.922.483 1.256.325.333.728.614 1.158.737.869.272 1.887-.017 2.659-.509l1.921-1.22-1.377 1.817c-.606.79-1.123 1.712-1.439 2.652-.307.939-.369 1.958.087 2.721.466.817 1.29 1.23 2.177.993.895-.194 1.781-.799 2.491-1.449l1.983-1.835-1.263 2.37c-.342.641-.632 1.37-.799 2.09-.166.72-.21 1.466.036 2.081.236.606.807 1.08 1.421 1.115.649.044 1.369-.29 2.009-.676 1.308-.799 2.466-1.888 3.659-2.906.597-.518 1.194-1.036 1.817-1.528.623-.474 1.281-.983 2.062-1.159-.755.255-1.334.817-1.922 1.326-.579.535-1.132 1.089-1.685 1.651-1.114 1.123-2.246 2.238-3.588 3.16-.685.431-1.431.878-2.387.887-.983 0-1.825-.711-2.167-1.563-.351-.869-.281-1.764-.114-2.581.184-.825.465-1.58.851-2.336l.71.536c-.833.781-1.746 1.449-2.93 1.747-.588.141-1.273.114-1.86-.184-.588-.29-1.018-.755-1.317-1.291-.623-1.106-.473-2.405-.105-3.45.377-1.071.93-2.011 1.623-2.898l.544.597c-.991.589-2.184.852-3.316.457-.553-.202-1.018-.553-1.387-.992-.386-.448-.561-1.063-.544-1.625.044-1.141.615-2.098 1.194-2.967.614-.852 1.316-1.642 2.079-2.344Z" fill="#263238"/><path d="M172.838 139.656s1.641-22.178 9.994-17.288c2.483 1.458 10.933 10.387 9.178 12.117-2.273 2.239-6.493-.834-8.845-3.179 0 0 .5 7.621-4.694 9.553-3.273 1.212-5.633-1.203-5.633-1.203Z" fill="#D3766A"/><path d="M182.104 122c1.052.412 1.983 1.097 2.869 1.791.895.702 1.711 1.492 2.5 2.309 1.562 1.659 3.045 3.336 4.326 5.277.316.491.606 1.001.799 1.624.087.307.149.667.087 1.027-.026.185-.061.334-.166.545-.097.175-.211.333-.334.448-.509.518-1.184.728-1.825.781-.64.035-1.254-.079-1.834-.255-1.158-.368-2.158-.992-3.079-1.685-.93-.685-1.764-1.475-2.571-2.283l.667-.316c.035.895-.036 1.747-.167 2.607-.132.852-.342 1.695-.649 2.503-.308.807-.738 1.571-1.264 2.247-.526.685-1.176 1.256-1.913 1.686.667-.527 1.237-1.15 1.685-1.844.456-.693.772-1.466 1.018-2.256.245-.79.403-1.607.482-2.423.079-.817.097-1.66.027-2.459l-.097-1.01.763.694c.825.746 1.641 1.501 2.545 2.125.886.632 1.825 1.211 2.825 1.51.966.298 2.106.325 2.712-.29.588-.491.07-1.624-.474-2.52-.562-.939-1.237-1.826-1.904-2.721-.676-.896-1.36-1.774-2.088-2.626-1.483-1.642-2.993-3.345-4.94-4.486Z" fill="#263238"/><path d="m171.574 140.324 16.294 23.618s-17.496 14.171-31.508 17.516c-5.783 1.379-28.035-9.008-37.765-15.101-9.731-6.094-12.951-14.619 4.229-12.442 17.171 2.178 29.833 4.47 30.956 4.127 1.114-.325 17.794-17.718 17.794-17.718Z" fill="#170139"/><path d="M112.61 155.812c-.175.052-.351.07-.526.105-.176.035-.404.035-.588-.053-.149-.052-.272-.149-.377-.272.079-.105.167-.211.272-.307.061.105.149.202.254.272.132.088.263.132.439.149.175.035.351.062.526.106ZM135.608 170c.184.018.316.053.448.132.245.149.403.413.403.685-.009.421.263.851.658 1.001.185.087.413.087.588.052.176-.035.351-.061.527-.105-.176-.053-.351-.07-.527-.105-.175-.018-.307-.062-.439-.15-.245-.167-.386-.421-.377-.711 0-.439-.298-.852-.693-.983-.193-.079-.421-.07-.588-.035-.175.035-.351.061-.526.105.175.053.351.07.526.114Zm19.313 0c.184.018.315.053.447.132.246.149.404.413.404.685-.009.421.263.851.658 1.001.184.087.412.087.588.052.175-.035.351-.061.526-.105-.175-.053-.351-.07-.526-.105-.176-.018-.308-.062-.439-.15-.246-.167-.386-.421-.377-.711 0-.439-.299-.852-.694-.983-.193-.079-.421-.07-.587-.035-.176.035-.351.061-.527.105.176.053.351.07.527.114Zm-29.904-14.891c.185.018.316.053.448.132.246.149.404.413.404.685-.009.421.263.851.658 1.001.184.088.412.088.588.052.175-.035.35-.061.526-.105-.176-.053-.351-.07-.526-.105-.176-.018-.308-.062-.439-.15-.246-.166-.386-.421-.378-.711 0-.439-.298-.851-.693-.983-.193-.079-.421-.07-.588-.035-.175.035-.351.061-.526.105.175.053.351.079.526.114Zm5.634 9.158c-.15.114-.264.184-.413.219-.281.071-.579-.008-.772-.202-.29-.298-.79-.412-1.176-.245-.193.07-.359.228-.456.377-.097.149-.211.29-.298.448.158-.088.298-.202.447-.299.141-.114.263-.175.413-.202.289-.052.57.027.763.237.307.308.807.387 1.184.211.194-.079.351-.246.439-.386.097-.149.211-.29.299-.448-.141.088-.281.193-.43.29Zm53.357.474c-.15.114-.264.184-.413.219-.281.071-.579-.008-.772-.202-.289-.298-.79-.412-1.176-.245-.193.07-.359.228-.456.377-.096.149-.211.29-.298.448.158-.088.298-.202.447-.299.141-.114.263-.175.413-.201.289-.053.57.026.763.237.307.307.807.386 1.185.21.193-.079.35-.246.438-.386.097-.149.211-.29.299-.448-.141.079-.281.193-.43.29Zm-64.466-2.292c-.017.185-.052.316-.131.448-.15.246-.413.404-.685.404-.421-.009-.851.263-1 .659-.088.184-.088.412-.053.588.035.175.062.351.106.527.052-.176.07-.352.105-.527.017-.176.061-.308.149-.439.167-.246.421-.387.711-.378.438 0 .851-.298.982-.693.079-.194.071-.422.036-.589-.036-.175-.062-.351-.106-.526-.061.175-.079.351-.114.526Zm19.874-4.662c-.017.185-.061.316-.131.448-.15.246-.413.404-.685.404-.421-.009-.851.263-1 .658-.088.185-.088.413-.053.589.035.175.062.351.106.526.052-.175.07-.351.105-.526.017-.176.061-.308.149-.439.167-.246.421-.387.711-.378.438 0 .851-.298.982-.694.079-.193.071-.421.036-.588-.036-.175-.062-.351-.106-.527-.052.176-.079.352-.114.527Zm7.625 18.263c-.017.184-.061.316-.131.447-.15.246-.413.404-.685.404-.421-.009-.851.264-1 .659-.088.184-.088.412-.053.588.035.176.062.351.105.527.053-.176.071-.351.106-.527.017-.176.061-.307.149-.439.167-.246.421-.386.711-.378.438 0 .851-.298.982-.693.079-.193.071-.422.035-.588-.035-.176-.061-.352-.105-.527-.052.175-.079.351-.114.527Zm9.169 3.661c.15-.114.264-.185.413-.22.281-.07.579.009.772.202.289.299.79.413 1.176.246.193-.07.359-.228.456-.377.096-.15.211-.29.298-.448-.158.088-.298.202-.447.298-.141.114-.263.176-.413.202-.289.053-.57-.026-.763-.237-.307-.307-.807-.386-1.185-.211-.193.079-.351.246-.438.387-.097.149-.211.29-.299.448.141-.079.281-.194.43-.29Zm-12.038-12.872c.149-.114.263-.184.412-.219.281-.07.579.009.772.202.29.298.79.412 1.176.246.193-.071.36-.229.456-.378.097-.149.211-.29.299-.448-.158.088-.299.202-.448.299-.14.114-.263.175-.412.202-.29.052-.57-.027-.763-.237-.308-.308-.808-.387-1.185-.211-.193.079-.351.246-.439.386-.096.15-.21.29-.298.448.14-.079.281-.193.43-.29Zm16.952-15.066c.184.017.316.061.448.132.245.149.403.412.403.684-.009.422.263.852.658 1.001.184.088.413.088.588.053.176-.035.351-.061.527-.105-.176-.053-.351-.071-.527-.106-.175-.017-.307-.061-.439-.149-.245-.167-.386-.421-.377-.711 0-.439-.298-.852-.693-.984-.193-.079-.421-.07-.588-.035-.175.035-.351.053-.526.106.175.061.351.079.526.114Zm10.547 14.759c.184.018.316.062.447.132.246.149.404.412.404.685-.009.421.263.851.658 1.001.184.087.412.087.588.052.175-.035.351-.061.526-.105-.175-.053-.351-.07-.526-.106-.176-.017-.307-.061-.439-.149-.246-.167-.386-.421-.377-.711 0-.439-.298-.852-.693-.983-.193-.079-.421-.071-.588-.035-.176.035-.351.052-.527.105.176.053.351.079.527.114Zm8.406-10.395c.184.017.316.052.447.131.246.149.404.413.404.685-.009.422.263.852.658 1.001.184.088.412.088.588.053.175-.035.351-.062.526-.106-.175-.052-.351-.07-.526-.105-.176-.018-.307-.061-.439-.149-.246-.167-.386-.422-.377-.711 0-.439-.299-.852-.693-.984-.193-.079-.422-.07-.588-.035-.176.035-.351.061-.527.105.176.053.351.079.527.115Zm-7.467-.088c-.018.184-.062.316-.132.448-.149.245-.412.403-.684.403-.422-.008-.851.264-1.001.659-.087.184-.087.413-.052.588.035.176.061.351.105.527.053-.176.07-.351.105-.527.018-.175.062-.307.149-.439.167-.246.422-.386.711-.377.439 0 .851-.299.983-.694.079-.193.07-.421.035-.588-.035-.176-.061-.351-.105-.527-.053.176-.079.351-.114.527Zm-18.909 3.046c-.018.185-.062.316-.132.448-.149.246-.412.404-.684.404-.421-.009-.851.263-1 .659-.088.184-.088.412-.053.588.035.175.061.351.105.527.053-.176.07-.352.106-.527.017-.176.061-.307.149-.439.166-.246.421-.386.71-.378.439 0 .852-.298.983-.693.079-.194.07-.422.035-.589-.035-.175-.052-.351-.105-.526-.053.175-.079.351-.114.526Zm13.144 14.408c-.018.185-.062.316-.132.448-.149.246-.412.404-.684.404-.421-.009-.851.263-1 .659-.088.184-.088.412-.053.588.035.175.061.351.105.527.053-.176.07-.352.106-.527.017-.176.061-.308.149-.439.166-.246.421-.387.71-.378.439 0 .852-.298.983-.693.079-.194.07-.422.035-.589-.035-.175-.061-.351-.105-.526-.053.175-.079.351-.114.526Zm3.606-27.288c.149-.114.263-.184.413-.219.28-.071.579.008.772.202.289.298.789.412 1.175.245.194-.07.36-.228.457-.377.096-.149.21-.29.298-.448-.158.088-.298.202-.447.299-.141.114-.264.175-.413.202-.289.052-.57-.027-.763-.238-.307-.307-.807-.386-1.185-.21-.193.079-.351.246-.438.386-.097.149-.211.29-.299.448.141-.079.281-.193.43-.29Zm-9.643 19c.149-.114.263-.184.413-.219.28-.071.579.008.772.201.289.299.789.413 1.175.246.193-.07.36-.228.457-.377.096-.149.21-.29.298-.448-.158.088-.298.202-.447.299-.141.114-.264.175-.413.201-.289.053-.57-.026-.763-.237-.307-.307-.807-.386-1.185-.21-.193.079-.351.246-.438.386-.097.149-.211.29-.299.448.141-.088.281-.193.43-.29Z" fill="#170139"/><path d="M168.688 146.259c.807 1.713 1.886 3.328 2.86 4.944 1.018 1.685 2.088 3.345 3.15 5.004 1.062 1.66 5.528 8.157 6.642 9.781.053.07.158 0 .114-.079-1.018-1.694-5.036-8.394-6.08-10.018-1.053-1.624-2.089-3.257-3.177-4.855-1.105-1.616-2.158-3.328-3.422-4.82-.044-.027-.105 0-.087.043Zm-22.34 33.32c-9.046-3.108-21.225-9.122-27.753-13.213-6.204-3.89-9.766-8.763-7.073-11.221.176-.123.272-.185.272-.185l34.554 24.619Z" fill="#170139"/><path d="M120.999 219.221c-1.053.684-50.3828-12.152-50.5758-12.556-.5089-1.097 26.1477-50.125 40.6168-56.596 3.106-1.396 10.652 2.037 12.135 4.303.93 1.422 1.772 9.412 2.185 15.909.816 13.003-3.449 48.334-4.361 48.94Z" fill="#170139"/><path d="M99.5366 170.158c.1755-.053.351-.07.5264-.105.167-.035.395-.044.588.035.395.14.693.553.693.983-.009.29.132.544.377.711.123.079.255.123.439.15.176.035.351.061.527.105-.176.053-.351.07-.527.105-.175.035-.404.027-.588-.052-.395-.15-.667-.589-.658-1.001 0-.273-.158-.536-.403-.685-.132-.079-.255-.114-.448-.132-.1754-.044-.3509-.07-.5264-.114Zm10.2484 34.909c.184.018.316.053.448.132.245.149.403.413.403.685-.009.421.263.851.658 1.001.185.088.413.088.588.052.176-.035.351-.061.527-.105-.176-.053-.351-.07-.527-.105-.175-.018-.307-.062-.439-.15-.245-.166-.386-.421-.377-.711 0-.439-.298-.851-.693-.983-.193-.079-.421-.07-.588-.035-.175.035-.351.061-.526.105.175.062.351.079.526.114Zm12.109-32.925c.184.018.316.062.447.132.246.149.404.413.404.685-.009.421.263.851.658 1.001.184.088.412.088.588.052.175-.035.351-.061.526-.105-.175-.053-.351-.07-.526-.105-.176-.018-.307-.062-.439-.15-.246-.166-.386-.421-.377-.711 0-.439-.299-.851-.693-.983-.193-.079-.422-.07-.588-.035-.176.035-.351.061-.527.105.176.053.351.079.527.114Zm-11.898-18.104c.184.017.316.061.447.132.246.149.404.412.404.684-.009.422.263.852.658 1.001.184.088.412.088.588.053.175-.035.351-.061.526-.105-.175-.053-.351-.071-.526-.106-.176-.017-.307-.061-.439-.149-.246-.167-.386-.421-.377-.711 0-.439-.299-.852-.693-.983-.194-.079-.422-.071-.588-.036-.176.036-.351.062-.527.106.176.052.351.079.527.114Zm-23.7263 30.791c.1843.018.3159.062.4475.132.2457.149.4036.413.4036.685-.0087.421.2633.852.6581 1.001.1843.088.4124.088.5879.053.1755-.036.351-.062.5264-.106-.1754-.053-.3509-.07-.5264-.105-.1755-.018-.3071-.062-.4387-.149-.2457-.167-.3861-.422-.3773-.712 0-.439-.2984-.851-.6932-.983-.193-.079-.4212-.07-.5879-.035-.1755.035-.351.061-.5265.105.1755.053.351.07.5265.114Zm10.538 14.751c.1843.017.3159.061.4475.131.2457.15.4037.413.4037.685-.0088.422.2632.852.658 1.001.1843.088.4124.088.5879.053.1755-.035.351-.062.5265-.105-.1755-.053-.351-.071-.5265-.106-.1755-.017-.3071-.061-.4387-.149-.2457-.167-.3861-.422-.3773-.711 0-.439-.2983-.852-.6932-.984-.193-.079-.4211-.07-.5879-.035-.1754.035-.3509.062-.5264.106.1755.061.351.079.5264.114Zm-18.9175 3.117c.1842.017.3158.052.4475.131.2456.15.4036.413.4036.685-.0088.422.2632.852.6581 1.001.1842.088.4124.088.5879.053.1754-.035.3509-.062.5264-.106-.1755-.052-.351-.07-.5264-.105-.1755-.017-.3071-.061-.4388-.149-.2456-.167-.386-.422-.3773-.711 0-.439-.2983-.852-.6931-.984-.1931-.079-.4212-.07-.5879-.035-.1755.035-.351.053-.5265.106.1755.061.351.079.5265.114Zm27.6308-17.455c.184.018.316.053.447.132.246.149.404.412.404.685-.009.421.263.851.658 1 .184.088.412.088.588.053.175-.035.351-.061.526-.105-.175-.053-.351-.07-.526-.106-.176-.017-.307-.061-.439-.149-.246-.167-.386-.421-.377-.711 0-.439-.299-.852-.693-.983-.193-.079-.422-.071-.588-.035-.176.035-.351.061-.527.105.176.061.351.079.527.114Zm14.591 9.149c.185.017.316.061.448.131.246.15.404.413.404.685-.009.422.263.852.658 1.001.184.088.412.088.588.053.175-.035.351-.062.526-.105-.175-.053-.351-.071-.526-.106-.176-.017-.308-.061-.439-.149-.246-.167-.386-.421-.377-.711 0-.439-.299-.852-.694-.984-.193-.079-.421-.07-.588-.035-.175.035-.35.062-.526.106.176.052.351.07.526.114Zm-.078-9.404c-.15.115-.264.185-.413.22-.281.07-.579-.009-.772-.202-.29-.299-.79-.413-1.176-.246-.193.07-.36.228-.456.378-.097.149-.211.289-.298.447.158-.087.298-.201.447-.298.141-.114.263-.176.413-.202.289-.053.57.026.763.237.307.307.807.386 1.184.211.193-.079.351-.246.439-.387.097-.149.211-.289.298-.447-.14.087-.28.193-.429.289Zm-17.953-26.656c-.017.185-.061.316-.131.448-.15.246-.413.404-.685.404-.421-.009-.851.263-1 .658-.088.185-.088.413-.053.589.035.175.062.351.105.527.053-.176.071-.352.106-.527.017-.176.061-.308.149-.439.167-.246.421-.387.711-.378.438 0 .851-.298.982-.693.079-.194.071-.422.036-.589-.036-.175-.053-.351-.106-.526-.061.175-.079.351-.114.526Zm-4.3256 30.765c-.0176.185-.0614.317-.1316.448-.1492.246-.4124.404-.6844.404-.4212-.009-.8512.264-1.0003.659-.0878.184-.0878.412-.0527.588.0351.175.0615.351.1053.527.0527-.176.0702-.352.1053-.527.0176-.176.0614-.307.1492-.439.1667-.246.4212-.386.7107-.378.4387 0 .8511-.298.9827-.693.079-.193.0702-.422.0351-.589-.0351-.175-.0614-.351-.1053-.526-.0614.175-.0789.351-.114.526Zm21.7866-26.647c-.017.185-.052.316-.131.448-.15.246-.413.404-.685.404-.421-.009-.851.263-1 .658-.088.185-.088.413-.053.589.035.175.062.351.106.526.052-.175.07-.351.105-.526.017-.176.061-.308.149-.439.167-.246.421-.387.711-.378.438 0 .851-.298.982-.694.079-.193.071-.421.036-.588-.036-.175-.062-.351-.106-.527-.061.176-.079.352-.114.527Zm0 49.669c-.017.184-.061.316-.131.447-.15.246-.413.404-.685.404-.421-.009-.851.264-1 .659-.088.184-.088.412-.053.588.035.176.062.351.106.527.052-.176.07-.351.105-.527.017-.176.061-.307.149-.439.167-.246.421-.386.711-.378.438 0 .851-.298.982-.693.079-.193.071-.422.036-.588-.036-.176-.062-.352-.106-.527-.061.175-.079.351-.114.527Zm-38.8352-21.915c-.0176.184-.0527.316-.1317.448-.1491.245-.4124.403-.6844.403-.4211-.008-.8511.264-1.0002.659-.0878.184-.0878.413-.0527.588.0351.176.0614.351.1053.527.0526-.176.0702-.351.1053-.527.0175-.175.0614-.307.1492-.439.1667-.246.4211-.386.7107-.377.4387 0 .8511-.299.9827-.694.079-.193.0702-.421.0351-.588-.0351-.176-.0614-.351-.1053-.527-.0526.176-.0789.351-.114.527Zm32.7372-14.154c-.018.185-.061.316-.132.448-.149.246-.412.404-.684.404-.421-.009-.851.263-1 .659-.088.184-.088.412-.053.588.035.175.061.351.105.527.053-.176.071-.352.106-.527.017-.176.061-.308.149-.439.166-.246.421-.387.711-.378.438 0 .851-.298.982-.693.079-.194.07-.422.035-.589-.035-.175-.061-.351-.105-.526-.061.175-.079.351-.114.526Zm-22.5414-3.038c-.0176.185-.0527.317-.1316.448-.1492.246-.4124.404-.6844.404-.4212-.009-.8512.264-1.0003.659-.0878.184-.0878.412-.0527.588.0351.176.0615.351.1053.527.0527-.176.0702-.351.1053-.527.0176-.176.0614-.307.1492-.439.1667-.246.4212-.386.7107-.378.4387 0 .8511-.298.9827-.693.079-.193.0702-.422.0351-.589-.0351-.175-.0526-.351-.1052-.526-.0615.175-.079.351-.1141.526Zm0 34.365c-.0176.185-.0527.316-.1316.448-.1492.246-.4124.404-.6844.404-.4212-.009-.8512.263-1.0003.659-.0878.184-.0878.412-.0527.588.0351.175.0615.351.1053.527.0527-.176.0702-.352.1053-.527.0176-.176.0614-.307.1492-.439.1667-.246.4212-.386.7107-.378.4387 0 .8511-.298.9827-.693.079-.193.0702-.422.0351-.589-.0351-.175-.0526-.351-.1052-.526-.0615.175-.079.351-.1141.526ZM108.329 165.9c.149-.114.263-.185.412-.22.281-.07.579.009.772.202.29.299.79.413 1.176.246.193-.07.36-.228.456-.378.097-.149.211-.289.298-.447-.158.087-.298.202-.447.298-.14.114-.263.176-.412.202-.29.053-.571-.026-.764-.237-.307-.307-.807-.386-1.184-.211-.193.079-.351.246-.439.387-.097.149-.211.289-.298.447.14-.079.28-.193.43-.289Zm-12.7409 13.363c.1492-.114.2632-.185.4124-.22.2808-.07.5791.009.7721.202.2896.299.7897.413 1.1758.246.193-.07.3598-.228.4563-.377.0965-.15.2106-.29.2983-.448-.1579.088-.2983.202-.4475.298-.1404.114-.2632.176-.4124.202-.2895.053-.5703-.026-.7634-.237-.3071-.307-.8072-.386-1.1845-.211-.193.08-.351.246-.4387.387-.0965.149-.2106.29-.2983.448.1403-.079.2807-.185.4299-.29Zm-9.643 19c.1491-.114.2632-.185.4124-.22.2807-.07.5791.009.7721.202.2896.299.7897.413 1.1758.246.193-.07.3597-.228.4562-.377.0966-.15.2106-.29.2984-.448-.158.088-.2984.202-.4475.298-.1404.114-.2633.176-.4124.202-.2896.053-.5704-.026-.7634-.237-.3071-.307-.8072-.386-1.1845-.211-.1931.079-.351.246-.4388.387-.0965.149-.2105.289-.2983.448.1492-.08.2808-.194.43-.29Zm22.8219-1.949c.149-.115.263-.185.413-.22.28-.07.579.009.772.202.289.299.789.413 1.176.246.193-.07.359-.228.456-.378.096-.149.21-.289.298-.447-.158.087-.298.202-.447.298-.141.114-.264.176-.413.202-.289.053-.57-.026-.763-.237-.307-.307-.807-.386-1.185-.211-.193.079-.351.246-.438.387-.097.149-.211.289-.299.447.141-.087.281-.193.43-.289Zm-8.757 13.828c.15-.114.264-.184.413-.219.281-.071.579.008.772.202.289.298.79.412 1.176.245.193-.07.359-.228.456-.377.096-.149.211-.29.298-.448-.158.088-.298.202-.447.299-.141.114-.263.175-.413.202-.289.052-.57-.027-.763-.238-.307-.307-.807-.386-1.185-.21-.193.079-.3505.246-.4382.386-.0965.149-.2106.29-.2984.448.1404-.079.2808-.193.4296-.29Zm23.314-6.128c-.088-.044-.167-.097-.237-.167-.307-.307-.807-.395-1.185-.211-.193.079-.351.246-.447.386-.097.15-.202.29-.298.448.166-.088.298-.193.447-.298.149-.114.263-.176.413-.22.28-.061.579.009.772.202.131.141.307.237.491.29l.044-.43Z" fill="#170139"/><path d="M121.078 159.789c-.343 4.934-.781 9.86-1.229 14.786-.447 4.925-.974 9.833-1.456 14.759-.553 4.908-1.071 9.825-1.659 14.733l-.912 7.357c-.334 2.45-.632 4.899-.992 7.349.158-2.467.378-4.934.571-7.393l.658-7.384c.447-4.925.974-9.833 1.465-14.759.553-4.908 1.071-9.825 1.667-14.733.579-4.916 1.185-9.824 1.887-14.715Zm2.035 15.471c-.043.509-.491.887-1 .843-.509-.044-.886-.492-.842-1.001.044-.509.491-.887 1-.843.509.035.886.492.842 1.001Zm-1.193 9.473c-.044.51-.491.887-1 .843-.509-.044-.886-.491-.843-1.001.044-.509.492-.886 1.001-.842.509.043.886.491.842 1Zm-1.193 9.474c-.044.509-.492.887-1.001.843-.508-.044-.886-.492-.842-1.001.044-.509.491-.887 1-.843.509.044.887.492.843 1.001Zm-1.202 9.474c-.044.509-.492.886-1.001.843-.509-.044-.886-.492-.842-1.001.044-.51.491-.887 1-.843.509.044.886.491.843 1.001Zm-1.194 9.473c-.044.51-.491.887-1 .843-.509-.044-.886-.492-.842-1.001.044-.509.491-.887 1-.843.509.044.886.492.842 1.001Z" fill="#170139"/><path d="M118.533 160.659c-3.106-.228-6.66-6.216-7.484-10.413-.053-.29 1.14-2.757 2.448-5.821.789-1.862 1.623-3.96 2.246-5.918l11.371 6.901s-2.518 3.732-3.579 7.164c-.088.29-.141.562-.167.835-.009.035-.009.087-.026.14-.237 1.607-1.808 7.331-4.809 7.112Z" fill="#D3766A"/><path d="M116.278 138.832c-.395 2.573-1.307 11.958 5.774 14.382.456.149.886.263 1.281.333.017-.052.017-.105.026-.14.026-.272.088-.545.167-.834 1.07-3.433 3.58-7.165 3.58-7.165l-10.828-6.576Z" fill="#263238"/><path d="M116.12 126.127c-1.895 4.398-.956 17.832 1.957 21.124 4.22 4.777 11.863 6.041 16.101.799 4.115-5.083 2.58-22.564-.746-25.637-4.887-4.513-14.504-2.784-17.312 3.714Z" fill="#D3766A"/><path d="M128.001 135.592c-.009-.035-.07.044-.062.088.088.904.035 1.949-.763 2.309-.026.009-.018.053.009.053.991-.22 1.044-1.607.816-2.45Z" fill="#263238"/><path d="M127.132 134.697c-1.465-.018-1.386 2.906-.035 2.923 1.334.018 1.263-2.906.035-2.923Zm5.888.789c.008-.035.07.044.07.079-.009.905.14 1.95.965 2.231.026.008.026.052-.009.052-.991-.123-1.175-1.51-1.026-2.362Z" fill="#263238"/><path d="M133.801 134.512c1.456-.149 1.64 2.775.298 2.906-1.325.141-1.509-2.774-.298-2.906Zm-7.853-1.124c.394-.114.745-.281 1.123-.43.43-.167.789-.264 1.061-.659.15-.211.071-.588-.123-.746-.447-.378-1.026-.299-1.553-.114-.57.202-.956.5-1.272 1.009-.307.501.237 1.089.764.94Zm8.949-.377c-.403-.053-.772-.176-1.167-.273-.447-.105-.816-.149-1.14-.5-.176-.193-.149-.571.017-.755.395-.439.974-.439 1.518-.325.588.123 1.018.36 1.395.825.369.448-.087 1.107-.623 1.028Zm-7.783 11.027c.22.211.448.492.773.51.316.017.684-.132.965-.255.026-.009.061.018.044.044-.228.351-.72.588-1.141.518-.412-.061-.623-.413-.737-.781 0-.044.07-.062.096-.036Z" fill="#263238"/><path d="M128.001 141.298c.526.773 1.281 1.186 2.097 1.317.36.062.737.062 1.114.018.07 0 .149-.018.211-.026.061-.009.123-.018.202-.036.105-.017.158-.105.175-.21v-.009c0-.035 0-.062-.009-.097v-.087c0-.703-.096-1.756-.096-1.756.254.122 1.57.676 1.544.307-.254-3.012-.544-6.366-1.439-9.307-.026-.097-.175-.07-.167.026.132 2.907.781 5.769.957 8.684-.421-.149-1.106-.422-1.466-.404-.096.035.22 2.046.193 2.362 0 0 0 .017-.008.035-1.167.184-2.062-.149-3.221-.913-.078-.035-.149.026-.087.096Z" fill="#263238"/><path d="M130.686 142.467s-.667.79-1.518 1.036c-.316.087-.65.114-.992 0-.702-.229-.684-.887-.517-1.449.131-.457.377-.843.377-.843s.983 1.045 2.65 1.256Z" fill="#263238"/><path d="M129.168 143.494c-.316.088-.65.114-.992 0-.702-.228-.684-.887-.517-1.449.763.132 1.491.703 1.509 1.449Z" fill="#F291B8"/><path d="M135.704 127.69c-.008-.018-.008-.035-.017-.044.009.035.017.061.017.061v-.017Z" fill="#263238"/><path d="M135.731 127.716c-4.387 3.293-10.766-1.132-10.766-1.132-1.308 3.599-4.852 3.318-4.852 3.318s-.562 7.692-2.58 7.762c-3.071.114-4.466-10.281-3.58-12.38.877-2.089 3.466-2.73 3.466-2.73s.123-1.598 1.965-3.135c2.027-1.694 9.363.158 9.363.158s.438-1.37 1.746-2.581c.833-.764 1.983-.667 2.746.132-.333.518-.57 1.167-.658 1.914-.272 2.256 1.562 2.177 1.456.14-.043-.904-.359-1.598-.798-2.063.842-1.37 2.299-1.862 3.229-1.186 1.667 1.247 2.913 9.053-.737 11.783Z" fill="#263238"/><path d="M118.63 136.829s-2.589-4.539-4.624-3.652c-2.027.887-.351 7.27 1.842 8.323 2.194 1.054 3.212-.957 3.212-.957l-.43-3.714Z" fill="#D3766A"/><path d="M114.532 135.003c-.035-.009-.044.044-.018.062 1.536.79 2.238 2.344 2.685 3.933-.421-.632-1.035-1.018-1.877-.527-.044.027-.009.097.035.088.667-.079 1.123.079 1.518.641.281.395.447.887.632 1.335.061.149.324.096.289-.071 0-.008-.009-.026-.009-.035.228-2.037-1.088-5.031-3.255-5.426Z" fill="#263238"/><path d="m123.333 153.538-2.641 5.873-9.292-10.395-2.94 2.792s7.678 15.971 7.801 15.295l4.589-6.181 3.158 4.934.72-9.588-1.395-2.73Z" fill="#170139"/><path d="M124.684 160.281c.053-1.879.167-2.011.132-3.89 0-.07-.106-.105-.123-.026-.544 1.765-.72 7.191-.895 8.894-.009-.009-.009-.017-.018-.017-.166-.211-2.878-4.364-2.93-4.303-.773.966-4.37 5.461-4.563 5.874-1.211-2.537-5.905-11.783-7.397-14.215-.044-.07-.149-.026-.114.053 1.035 2.652 7.23 15.102 7.344 15.075.07.07 4.326-5.47 4.765-6.532.588.887 3.299 5.523 3.334 5.242.272-1.862.412-4.276.465-6.155Z" fill="#fff"/><path d="m171.854 233.428-6.893-2.511-53.76 147.809 6.893 2.51 53.76-147.808Z" fill="#DBDBDB"/><path d="m171.846 233.426-4.176 11.467-7.485-.87 4.765-13.108 6.896 2.511Z" fill="#A6A6A6"/><path d="m185.12 204.313-11.626-4.234-12.861 35.362 11.626 4.234 12.861-35.362Z" fill="#FF00C7"/><path d="M167.047 403.557H65.7026l4.3872-8.025h92.5782l4.379 8.025Z" fill="#263238"/><path d="M154.771 399.816H77.9867s5.3699-32.082 38.3963-32.082c33.027 0 38.388 32.082 38.388 32.082Z" fill="#A6A6A6"/><path d="M138.197 399.816H94.5703s3.0535-18.227 21.8127-18.227c18.76 0 21.814 18.227 21.814 18.227Z" fill="#C7C7C7"/><path d="M100.37 167.69c-.6404 7.112.298 37.983 3.22 43.005 5.291 9.096 33.782 21.432 40.424 23.829 2.895 1.045 12.819-22.143 9.818-23.478-2.026-.895-29.324-9.535-31.087-11.256-1.764-1.712-8.748-22.951-11.433-34.47-2.562-10.958-9.591-12.696-10.942 2.37Z" fill="#D3766A"/><path d="M180.55 218.746c.36 2.599-2.088 3.758-2.088 3.758s1.386 1.563 1.299 3.573c-.106 2.301-3.756 3.143-3.756 3.143s1.08 1.879.764 3.987c-.325 2.195-3.887 3.564-3.887 3.564s.044 2.301-1.536 3.934c-2.694 2.792-8.493 1.554-12.188.807-3.694-.746-13.459-6.33-15.434-7.208l4.598-23.75s17.514-1.352 21.726.141c3.553 1.264 10.099 5.136 10.502 8.051Z" fill="#D3766A"/><path d="M178.374 222.1c-3.457-2.248-7.388-3.354-11.248-4.671-.088-.026-.132.105-.044.132 3.852 1.273 7.405 3.292 11.205 4.715.105.035.175-.123.087-.176Zm-2.395 6.805c-.798-.483-1.755-.703-2.641-.957-.956-.273-1.922-.536-2.887-.782-1.93-.491-3.878-.93-5.835-1.317-.088-.017-.131.114-.044.132 1.922.492 3.843 1.01 5.748 1.58.956.29 1.904.58 2.851.878.878.281 1.79.65 2.72.72.141.009.211-.184.088-.254Zm-3.185 7.858c-.676-.448-1.641-.562-2.422-.738-.886-.202-1.772-.413-2.65-.623-1.763-.431-3.527-.861-5.282-1.344-.088-.026-.131.106-.044.132 1.773.509 3.545 1.036 5.326 1.528.878.237 1.746.474 2.624.711.746.193 1.658.527 2.43.43.044-.017.053-.079.018-.096Z" fill="#263238"/><path d="m149.138 208.834-6.616 27.068s-31.763-13.187-40.23-24.856c-3.4924-4.811-4.5804-33.118-2.694-44.444 1.887-11.326 8.125-16.498 12.697.21 4.58 16.709 9.221 31.424 10.292 31.889 1.088.466 26.551 10.133 26.551 10.133Z" fill="#170139"/><path d="M99.5366 170.158c.1755-.053.351-.07.5264-.105.167-.035.395-.044.588.035.395.14.693.553.693.983-.009.29.132.544.377.711.123.079.255.123.439.15.176.035.351.061.527.105-.176.053-.351.07-.527.105-.175.035-.403.027-.588-.052-.395-.15-.667-.589-.658-1.001 0-.273-.158-.536-.403-.685-.132-.079-.255-.114-.448-.132-.1754-.044-.3509-.07-.5264-.114Zm10.2484 34.909c.184.018.316.053.448.132.245.149.403.413.403.685-.009.421.263.851.658 1.001.185.088.413.088.588.052.176-.035.351-.061.527-.105-.176-.053-.351-.07-.527-.105-.175-.018-.307-.062-.439-.15-.245-.166-.386-.421-.377-.711 0-.439-.298-.851-.693-.983-.193-.079-.421-.07-.588-.035-.175.035-.351.061-.526.105.175.062.351.079.526.114Zm27.13 25.875c.185.017.316.061.448.132.246.149.404.412.404.684-.009.422.263.852.658 1.001.184.088.412.088.588.053.175-.035.351-.061.526-.105-.175-.053-.351-.071-.526-.106-.176-.017-.308-.061-.439-.149-.246-.167-.386-.421-.377-.711 0-.439-.299-.852-.694-.983-.193-.079-.421-.071-.588-.036-.175.036-.35.062-.526.106.176.061.351.079.526.114Zm-31.394-45.7c.184.018.316.053.447.132.246.149.404.412.404.685-.009.421.263.851.658 1 .184.088.412.088.588.053.175-.035.351-.061.526-.105-.175-.053-.351-.07-.526-.106-.176-.017-.307-.061-.439-.149-.246-.167-.386-.421-.377-.711 0-.439-.299-.852-.693-.983-.193-.079-.422-.071-.588-.035-.176.035-.351.061-.527.105.176.061.351.079.527.114Zm21.918 40.836c.184.017.316.061.448.132.245.149.403.412.403.684-.008.422.264.852.658 1.001.185.088.413.088.588.053.176-.035.351-.062.527-.105-.176-.053-.351-.071-.527-.106-.175-.017-.307-.061-.438-.149-.246-.167-.387-.421-.378-.711 0-.439-.298-.852-.693-.984-.193-.079-.421-.07-.588-.035-.175.035-.351.062-.526.106.166.052.351.079.526.114Zm5.976-16.392c.184.017.315.061.447.131.246.15.404.413.404.685-.009.422.263.852.658 1.001.184.088.412.088.588.053.175-.035.351-.062.526-.106-.175-.052-.351-.07-.526-.105-.176-.018-.308-.061-.439-.149-.246-.167-.386-.422-.377-.711 0-.439-.299-.852-.694-.984-.193-.079-.421-.07-.587-.035-.176.035-.351.062-.527.105.176.062.351.079.527.115Zm-13.302-15.515c-.176.035-.351.062-.527.106.176.052.351.07.527.114.184.017.315.052.447.131.061.036.114.08.158.132-.053-.149-.105-.316-.158-.474-.158-.035-.316-.026-.447-.009Zm.851 1.133c.017.193.087.386.201.544-.061-.175-.131-.351-.201-.544Zm25.867 14.987c-.15.115-.264.185-.413.22-.281.07-.579-.009-.772-.202-.29-.299-.79-.413-1.176-.246-.193.07-.36.228-.456.378-.097.149-.211.289-.298.447.158-.087.298-.202.447-.298.141-.114.263-.176.413-.202.289-.053.57.026.763.237.307.307.807.386 1.184.211.193-.079.351-.246.439-.387.097-.149.211-.289.298-.447-.14.079-.28.184-.429.289Zm-26.42 11.502c-.149.114-.263.185-.413.22-.28.07-.579-.009-.772-.202-.289-.299-.789-.413-1.175-.246-.193.07-.36.228-.457.377-.096.15-.21.29-.298.448.158-.088.298-.202.447-.298.141-.114.264-.176.413-.202.289-.053.57.026.763.237.307.307.807.386 1.185.211.193-.079.351-.246.438-.387.097-.149.211-.29.299-.448-.141.079-.281.194-.43.29Zm-2.904-36.937c-.115.079-.22.184-.281.281-.097.149-.211.289-.299.447.158-.087.299-.193.448-.298.079-.062.149-.105.219-.141-.026-.096-.052-.193-.087-.289Zm15.039 17.674c-.123.105-.22.237-.281.386-.079.193-.088.422-.053.588.036.176.053.352.106.527.044-.175.07-.351.105-.527.018-.175.07-.307.149-.43.114-.184.29-.307.483-.351-.176-.07-.334-.132-.509-.193Zm-13.004 9.588c-.017.184-.061.316-.131.447-.15.246-.413.404-.685.404-.421-.009-.851.264-1 .659-.088.184-.088.412-.053.588.035.176.062.351.106.527.052-.176.07-.351.105-.527.017-.176.061-.307.149-.439.167-.246.421-.386.711-.378.438 0 .851-.298.982-.693.079-.193.071-.422.036-.588-.036-.176-.062-.352-.106-.527-.061.175-.079.351-.114.527Zm19.874 9.113c-.017.185-.061.316-.131.448-.15.246-.413.404-.685.404-.421-.009-.851.263-1 .658-.088.185-.088.413-.053.589.035.175.062.351.106.526.052-.175.07-.351.105-.526.017-.176.061-.308.149-.439.167-.246.421-.387.711-.378.438 0 .851-.298.982-.693.079-.194.071-.422.036-.589-.036-.175-.062-.351-.106-.527-.052.176-.079.352-.114.527Zm-25.972-45.182c-.018.185-.061.316-.132.448-.149.246-.412.404-.684.404-.421-.009-.851.263-1 .659-.088.184-.088.412-.053.588.035.175.061.351.105.527.053-.176.071-.352.106-.527.017-.176.061-.308.149-.439.167-.246.421-.387.711-.378.438 0 .851-.298.982-.693.079-.194.07-.422.035-.589-.035-.175-.061-.351-.105-.526-.061.175-.079.351-.114.526Zm-5.115-10.149c.149-.114.263-.185.412-.22.281-.07.579.009.772.202.29.299.79.413 1.176.246.193-.07.36-.228.456-.378.097-.149.211-.289.298-.447-.157.087-.298.202-.447.298-.14.114-.263.176-.412.202-.29.053-.571-.026-.764-.237-.307-.307-.807-.386-1.184-.211-.193.079-.351.246-.439.387-.097.149-.211.289-.298.447.14-.079.28-.193.43-.289Zm.438 30.414c.149-.115.264-.185.413-.22.28-.07.579.009.772.202.289.299.79.413 1.176.246.193-.07.359-.228.456-.378.096-.149.21-.289.298-.447-.158.087-.298.202-.447.298-.141.114-.264.176-.413.202-.289.053-.57-.026-.763-.237-.307-.307-.807-.386-1.185-.211-.193.079-.351.246-.438.387-.097.149-.211.289-.299.447.141-.087.281-.193.43-.289Zm12.837 7.858c.149-.114.263-.185.413-.22.28-.07.579.009.772.202.289.299.789.413 1.176.246.193-.07.359-.228.456-.378.096-.149.21-.289.298-.447-.158.087-.298.202-.447.298-.141.114-.264.176-.413.202-.289.053-.57-.026-.763-.237-.307-.307-.807-.386-1.185-.211-.193.079-.351.246-.438.387-.097.149-.211.289-.299.447.149-.079.281-.184.43-.289Zm-18.935 5.672c-.14.114-.263.175-.412.202-.193.043-.386.017-.544-.071.07.167.14.325.219.474.149.009.298-.017.43-.079.193-.07.36-.228.456-.377.097-.149.211-.29.299-.448-.158.088-.299.202-.448.299Zm25.2 8.165c.149-.114.263-.184.412-.22.281-.07.58.009.773.202.289.299.789.413 1.175.246.193-.07.36-.228.457-.377.096-.15.21-.29.298-.448-.158.088-.298.202-.447.298-.141.115-.264.176-.413.202-.289.053-.57-.026-.763-.237-.307-.307-.807-.386-1.185-.21-.193.079-.351.245-.439.386-.096.149-.21.29-.298.448.141-.088.272-.193.43-.29Z" fill="#fff"/><path d="M107.802 216.446c-2.185-1.642-4.554-3.653-5.87-5.997-.755-1.343-.895-2.493-1.132-3.968-.263-1.616-.5-3.231-.711-4.847-.8156-6.304-1.1578-12.617-1.0613-18.956.0526-3.582.2544-7.164.6054-10.729.0088-.053-.0877-.062-.0965-.009-.4563 2.88-.7809 5.777-.9915 8.675-.0351-.422-.0702-.843-.0965-1.265-.0702-1.159-.0965-2.309-.0614-3.468 0-.052-.0878-.052-.0966 0-.0877 1.177-.114 2.362-.0263 3.539.0439.649.1316 1.29.2281 1.931-.2193 3.345-.2895 6.699-.193 10.053.0965 3.293.3159 6.585.7283 9.86.2018 1.598.4299 3.187.7107 4.777.2636 1.519.5176 3.09 1.2106 4.504 1.334 2.695 4.133 4.46 6.774 6.005.062.035.14-.052.079-.105Zm15.373-17.744c-1.009-.185-1.343-1.739-1.632-2.546-.378-1.045-.755-2.09-1.132-3.135-.737-2.063-1.395-4.144-2.053-6.234-.536-1.703-1.036-3.424-1.536-5.145-.158-1.089-.298-2.177-.482-3.266-.009-.061-.123-.044-.115.018.088.755.202 1.519.316 2.274-.631-2.195-1.254-4.399-1.912-6.585-.018-.053-.097-.027-.088.026.754 3.582 1.605 7.129 2.579 10.659.966 3.503 2.027 7.024 3.44 10.378.36.86.711 1.756 1.167 2.564.325.588.746.992 1.421 1.115.079.026.115-.106.027-.123Zm20.637 10.325c-.719 1.747-1.193 3.635-1.728 5.443-.562 1.888-1.062 3.793-1.571 5.699-.509 1.905-2.299 9.579-2.746 11.501-.018.088.105.115.131.036.571-1.888 2.808-9.378 3.299-11.248.492-1.87 1.001-3.74 1.439-5.619.448-1.905 1.001-3.837 1.255-5.777 0-.044-.061-.079-.079-.035Z" fill="#263238"/></svg>