<svg width="659" height="439" fill="none" xmlns="http://www.w3.org/2000/svg"><path d="m117.586 98.266-9.24-5.734-1.755 2.836c-.517.834-1.456 1.282-2.43 1.203a16.667 16.667 0 0 0-1.624-.053c-.973.018-1.886-.491-2.342-1.352l-1.57-2.932-9.582 5.145 1.57 2.932c.465.861.386 1.897-.175 2.704a15.95 15.95 0 0 0-.86 1.388c-.474.86-1.37 1.396-2.343 1.361l-3.326-.106-.333 10.879 3.343.096c.983.027 1.834.632 2.246 1.519.114.237.237.483.36.72s.254.465.395.694c.5.834.535 1.87.017 2.704l-1.763 2.853 9.24 5.734 1.763-2.836a2.568 2.568 0 0 1 2.43-1.194c.536.044 1.08.061 1.624.052.974-.017 1.886.492 2.342 1.353l1.571 2.932 9.582-5.145-1.571-2.932c-.465-.861-.386-1.897.176-2.705.307-.448.596-.904.851-1.378a2.591 2.591 0 0 1 2.342-1.37l3.335.105.342-10.878-3.334-.105c-.974-.027-1.825-.632-2.238-1.51-.114-.246-.237-.483-.36-.72a10.567 10.567 0 0 0-.394-.694c-.509-.843-.536-1.879-.018-2.713l1.729-2.853Zm-6.862 9.21c2.325 4.337.693 9.737-3.641 12.063-4.335 2.327-9.74.703-12.065-3.635-2.325-4.337-.693-9.745 3.641-12.072a8.909 8.909 0 0 1 12.065 3.644Z" fill="#C9C9C9"/><path d="m89.2 150.48-3.808-6.603-2.018 1.168a1.82 1.82 0 0 1-1.895-.061 10.78 10.78 0 0 0-.983-.571c-.605-.308-1-.931-1-1.607v-2.335H71.88v2.335c0 .685-.395 1.299-1 1.607-.343.175-.667.36-.983.571a1.801 1.801 0 0 1-1.896.061l-2.018-1.168-3.808 6.603 2.027 1.168c.597.342.922.992.886 1.685-.008.185-.017.378-.017.562 0 .185.009.378.017.562.036.685-.29 1.335-.877 1.677l-2.036 1.177 3.808 6.602 2.027-1.168a1.8 1.8 0 0 1 1.895.071c.316.21.641.395.983.57.606.308 1 .922 1 1.607v2.336h7.617v-2.336c0-.685.395-1.299 1-1.607.342-.175.667-.36.983-.57a1.8 1.8 0 0 1 1.895-.071l2.027 1.168 3.808-6.602-2.027-1.168c-.597-.343-.921-.992-.886-1.677.009-.184.017-.378.017-.562 0-.184-.008-.378-.017-.562-.035-.685.29-1.343.886-1.686l2.01-1.176Zm-7.282 3.406a6.237 6.237 0 0 1-6.239 6.243 6.237 6.237 0 0 1-6.239-6.243 6.242 6.242 0 0 1 6.24-6.242 6.243 6.243 0 0 1 6.238 6.242ZM572.686 197.479l-3.808-6.602-2.018 1.167a1.815 1.815 0 0 1-1.895-.061 10.967 10.967 0 0 0-.983-.571c-.605-.307-1-.922-1-1.607v-2.335h-7.616v2.335c0 .685-.395 1.3-1 1.607-.343.176-.667.36-.983.571a1.799 1.799 0 0 1-1.895.061l-2.019-1.167-3.808 6.602 2.027 1.168c.597.342.922.992.886 1.686-.008.184-.017.377-.017.562 0 .184.009.377.017.562.036.684-.289 1.334-.877 1.676l-2.036 1.177 3.808 6.603 2.027-1.168a1.8 1.8 0 0 1 1.896.07c.315.211.64.395.982.571.606.307 1.001.93 1.001 1.607v2.335h7.616v-2.335c0-.685.395-1.3 1-1.607.342-.176.667-.36.983-.571a1.8 1.8 0 0 1 1.895-.07l2.027 1.168 3.808-6.603-2.027-1.168c-.597-.342-.921-.992-.886-1.677.009-.184.017-.377.017-.562 0-.184-.008-.377-.017-.562-.035-.684.289-1.343.886-1.685l2.009-1.177Zm-7.282 3.407a6.237 6.237 0 0 1-6.239 6.242 6.236 6.236 0 0 1-6.238-6.242 6.242 6.242 0 0 1 6.238-6.243 6.243 6.243 0 0 1 6.239 6.243Z" fill="#EBEBEB"/><path d="M500.938 80.177c-2.342 5.961-3.667 12.116-4.045 18.49-.087 0-.166.01-.237.01h-15.934c-.07 0-.131-.01-.202-.01v-.456l.132-1.255c.202-2.178.57-4.33 1.079-6.454a49.676 49.676 0 0 1 3.642-10.088c.087-.184.193-.237.394-.237 4.967.009 9.924.009 14.891.009h.28v-.01ZM500.447 121.487h-.263c-4.923 0-9.854 0-14.776.009-.193 0-.281-.062-.369-.238-1.746-3.626-2.974-7.427-3.729-11.378a45.52 45.52 0 0 1-.737-5.76 1.453 1.453 0 0 0-.044-.193v-.448c.079-.009.167-.018.246-.018h15.838c.289 0 .28 0 .298.299.096 1.317.184 2.634.316 3.942.202 2.09.553 4.153 1.009 6.199a55.242 55.242 0 0 0 2.141 7.366c.017.053.035.123.07.22ZM563.693 126.254c-.053.088-.088.158-.132.22-1.255 1.975-2.72 3.775-4.264 5.531-1.878 2.143-3.975 4.039-6.248 5.76a44.619 44.619 0 0 1-7.116 4.408 44.473 44.473 0 0 1-7.519 2.923 45.952 45.952 0 0 1-6.265 1.335c-.202.026-.413.07-.614.105h-.36c-.105-.07-.211-.132-.351-.219l.395-.281c4.615-3.161 8.572-6.98 11.863-11.511a53.503 53.503 0 0 0 4.843-8.051c.079-.176.176-.237.377-.228 5.037.008 10.082 0 15.119 0h.272v.008ZM548.653 98.659h-21.128V80.184c.087 0 .166-.008.245-.008 5.414 0 10.837 0 16.251-.01.184 0 .263.053.333.22a50.93 50.93 0 0 1 3.361 10.826c.377 1.94.658 3.89.816 5.865.035.518.079 1.036.122 1.58ZM548.522 103.584c-.018.439-.027.869-.062 1.308-.096 1.027-.166 2.064-.307 3.082-.202 1.414-.412 2.827-.693 4.232-.623 3.091-1.553 6.093-2.738 9.017-.079.193-.166.272-.386.272-5.545-.009-11.09-.009-16.636-.009h-.298v-17.902h21.12ZM522.76 80.291v18.5h-20.628c.026-.466.043-.931.087-1.388.106-1.036.193-2.072.351-3.1.255-1.562.527-3.134.86-4.688.676-3.134 1.694-6.163 2.984-9.105.079-.175.166-.228.35-.228 5.248.009 10.486.009 15.733.009h.263ZM522.787 103.83c-.009 5.795-.009 11.598-.009 17.393v.263h-.281c-5.405 0-10.801 0-16.206.009-.193 0-.281-.061-.36-.246-1.246-3.011-2.211-6.119-2.808-9.324a85.14 85.14 0 0 1-.754-4.961c-.141-1.08-.167-2.177-.246-3.275 0-.026 0-.061.009-.114.079-.009.158-.009.237-.009 6.712 0 13.424 0 20.146-.008.219.008.272.07.272.272ZM571.054 98.79h-17.311c-.378-6.4-1.676-12.6-4.037-18.613h.272c5.291 0 10.573 0 15.864-.01.193 0 .29.053.378.23a45.499 45.499 0 0 1 3.992 11.58c.43 2.151.693 4.31.842 6.497v.316ZM571.063 103.444c-.017.421-.026.817-.061 1.212a45.992 45.992 0 0 1-.571 4.662c-.631 3.6-1.711 7.059-3.185 10.404-.237.536-.491 1.063-.728 1.598-.053.123-.123.167-.254.167-5.3-.009-10.609-.009-15.908-.009-.053 0-.106-.009-.176-.009.193-.553.386-1.088.57-1.633a56.042 56.042 0 0 0 2.141-8.437c.36-2.081.623-4.18.746-6.287.027-.491.062-.992.088-1.492.009-.132.044-.202.184-.185.053.009.106 0 .158 0h16.996v.009ZM563.219 75.462a.288.288 0 0 1-.035.07h-15.355c-.176 0-.281-.044-.36-.21-2.045-4.03-4.519-7.771-7.52-11.142-1.746-1.967-3.685-3.714-5.765-5.321-1.035-.8-2.105-1.537-3.158-2.31-.053-.034-.106-.078-.176-.131.079-.053.141-.097.211-.14-.027-.097-.062-.194-.097-.325 5.388.623 10.503 2.133 15.312 4.6 6.896 3.53 12.626 8.43 16.943 14.909ZM519.83 146.334c-.185.035-.316.088-.439.07a40.73 40.73 0 0 1-4.931-.957 44.017 44.017 0 0 1-8.784-3.257 44.83 44.83 0 0 1-8.958-5.883 43.343 43.343 0 0 1-5.388-5.382 45.996 45.996 0 0 1-3.36-4.654c-.018-.035-.035-.079-.07-.14h.245c4.703 0 9.398 0 14.101-.009.193 0 .272.07.351.228 1.483 2.968 3.185 5.795 5.177 8.456 1.825 2.423 3.869 4.644 6.071 6.725a47.085 47.085 0 0 0 5.844 4.706c.035 0 .053.027.141.097ZM519.645 56.4c-.64.474-1.404 1.01-2.132 1.572-2.483 1.905-4.72 4.056-6.826 6.366a47.889 47.889 0 0 0-7.169 10.228c-.123.237-.228.474-.369.703-.035.07-.14.131-.219.14-.254.018-.509.009-.772.009h-13.785c7.678-10.852 17.988-17.367 31.114-19.36-.026.061-.061.114-.087.176.087.052.175.114.245.166ZM542.345 126.263a49.595 49.595 0 0 1-6.976 9.447c-2.395 2.546-5.01 4.829-7.967 6.77v-16.208h14.943v-.009ZM522.76 126.272v15.901c-6.072-4.18-10.792-9.492-14.337-15.901h14.337ZM541.88 75.392h-14.347V60.246c2.966 1.94 5.651 4.17 8.047 6.743 2.395 2.564 4.457 5.374 6.3 8.403ZM522.76 60.72v14.803h-13.776c3.493-5.979 7.968-10.983 13.776-14.803ZM90.85 294.805c-1.79 12.283-12.372 21.704-25.139 21.704-14.03 0-25.419-11.387-25.419-25.435 0-14.04 11.39-25.427 25.42-25.427v25.427l25.138 3.731Z" fill="#C9C9C9"/><path d="M96.308 285.894c0 1.273-.097 2.511-.272 3.731l-25.139-3.731v-25.427c9.424 0 17.663 5.145 22.059 12.783a25.422 25.422 0 0 1 3.352 12.644Z" fill="#C9C9C9"/><path d="M105.635 304.718H78.61v.878h27.025v-.878Z" fill="#C7C7C7"/><path d="M107.53 307.492a2.334 2.334 0 0 1-2.334-2.335 2.334 2.334 0 1 1 4.668 0 2.34 2.34 0 0 1-2.334 2.335Zm0-3.793c-.807 0-1.456.65-1.456 1.458 0 .807.649 1.457 1.456 1.457a1.46 1.46 0 0 0 1.457-1.457c0-.799-.658-1.458-1.457-1.458ZM135.389 303.734H114.4v.949h20.989v-.949ZM126.281 305.63H114.4v.949h11.881v-.949Z" fill="#C7C7C7"/><path d="M160.606 72.83h-8.274v58.913h8.274V72.83ZM174.821 87.088h-8.274v44.655h8.274V87.088ZM189.044 109.416h-8.274v22.327h8.274v-22.327ZM203.267 96.668h-8.274v35.076h8.274V96.668ZM217.482 83.269h-8.274v48.474h8.274V83.269ZM231.705 75.393h-8.274v56.35h8.274v-56.35Z" fill="#C9C9C9"/><path d="m147.533 65.34.096 16.603.044 16.603.07 33.206-.21-.21c7.607-.018 15.206-.036 22.813-.009l22.813.044 22.814.044 22.813.122-22.813.123-22.814.044-22.813.044c-7.607.026-15.206.018-22.813-.009h-.211v-.21l.07-33.206.044-16.603.097-16.586Z" fill="#C9C9C9"/><path d="M145.707 68.668c.606-.184 1.22-.228 1.826-.237.605.009 1.219.053 1.825.237-.606.184-1.22.228-1.825.237-.606-.009-1.22-.053-1.826-.237ZM145.707 73.716c.606-.184 1.22-.228 1.826-.237.605.009 1.219.053 1.825.237-.606.185-1.22.229-1.825.237-.606-.008-1.22-.052-1.826-.237ZM145.707 78.764c.606-.184 1.22-.228 1.826-.236.605.008 1.219.052 1.825.236-.606.185-1.22.229-1.825.238-.606-.018-1.22-.053-1.826-.237ZM145.707 83.805c.606-.185 1.22-.229 1.826-.238.605.01 1.219.053 1.825.238-.606.184-1.22.228-1.825.237-.606-.01-1.22-.053-1.826-.237ZM145.707 88.853c.606-.185 1.22-.228 1.826-.237.605.008 1.219.052 1.825.237-.606.184-1.22.228-1.825.237-.606-.009-1.22-.053-1.826-.237ZM145.707 93.902c.606-.184 1.22-.228 1.826-.237.605.009 1.219.052 1.825.237-.606.184-1.22.228-1.825.237-.606-.009-1.22-.053-1.826-.237ZM145.707 98.95c.606-.184 1.22-.228 1.826-.237.605.009 1.219.053 1.825.237-.606.184-1.22.228-1.825.237-.606-.009-1.22-.052-1.826-.237ZM145.707 103.998c.606-.184 1.22-.228 1.826-.237.605.009 1.219.053 1.825.237-.606.185-1.22.229-1.825.237-.606-.008-1.22-.052-1.826-.237ZM145.707 109.038c.606-.184 1.22-.228 1.826-.237.605.009 1.219.053 1.825.237-.606.185-1.22.229-1.825.237-.606-.008-1.22-.052-1.826-.237ZM145.707 114.087c.606-.185 1.22-.229 1.826-.237.605.008 1.219.052 1.825.237-.606.184-1.22.228-1.825.237-.606-.009-1.22-.053-1.826-.237ZM145.707 119.135c.606-.184 1.22-.228 1.826-.237.605.009 1.219.053 1.825.237-.606.184-1.22.228-1.825.237-.606-.009-1.22-.053-1.826-.237ZM145.707 124.184c.606-.184 1.22-.228 1.826-.237.605.009 1.219.053 1.825.237-.606.184-1.22.228-1.825.237-.606-.009-1.22-.053-1.826-.237Z" fill="#C9C9C9"/><path d="M139.074 410.315c53.635 0 97.115-6.619 97.115-14.785s-43.48-14.786-97.115-14.786-97.115 6.62-97.115 14.786 43.48 14.785 97.115 14.785Z" fill="#EBEBEB"/><path d="m40.836 342.859 72.055-.211 72.047-.079 144.101-.149 144.102.149 72.046.079 72.056.211-72.056.211-72.046.079-144.102.149-144.101-.149-72.047-.079-72.055-.211Z" fill="#263238"/><path d="M521.251 124.799H186.298v224.198h334.953V124.799Z" fill="#DBDBDB"/><path d="M518.82 127.539H188.737v218.727H518.82V127.539Z" fill="#263238"/><path d="M564.868 365.811H142.671v15.391h422.197v-15.391Z" fill="#C7C7C7"/><path d="m142.671 365.811 43.627-16.805h334.953l43.626 16.805H142.671Z" fill="#DBDBDB"/><path d="m190.194 359.849 28.157-10.843h270.847l28.157 10.843H190.194Z" fill="#263238"/><path d="M500.166 144.151H207.391v185.495h292.775V144.151Z" fill="#fff"/><path d="M500.157 144.151h-293.02v7.138h293.02v-7.138Z" fill="#455A64"/><path d="M211.041 149.498a1.773 1.773 0 1 0 0-3.547 1.773 1.773 0 0 0 0 3.547Z" fill="#C7C7C7"/><path d="M218.263 149.498a1.773 1.773 0 1 0-.001-3.545 1.773 1.773 0 0 0 .001 3.545Z" fill="#fff"/><path d="M225.484 149.498a1.773 1.773 0 1 0-.001-3.545 1.773 1.773 0 0 0 .001 3.545Z" fill="#FFC727"/><path d="M264.872 262.831h-44.503v30.475h44.503v-30.475Z" fill="#EBEBEB"/><path d="M220.369 265.061c1.912 1.089 3.79 2.222 5.685 3.328a457.753 457.753 0 0 1 5.634 3.406c3.746 2.283 7.467 4.619 11.178 6.954h-.5a822.058 822.058 0 0 1 11.179-6.954 526.706 526.706 0 0 1 5.633-3.406c1.895-1.106 3.773-2.248 5.685-3.328-1.798 1.265-3.623 2.476-5.44 3.714a592.737 592.737 0 0 1-5.492 3.635c-3.668 2.415-7.371 4.776-11.074 7.129l-.245.158-.246-.158a902.597 902.597 0 0 1-11.073-7.129 723.919 723.919 0 0 1-5.493-3.635c-1.799-1.238-3.633-2.449-5.431-3.714Z" fill="#fff"/><path d="M220.474 287.88c1.351-1.176 2.755-2.282 4.177-3.362a169.967 169.967 0 0 1 4.325-3.152c1.466-1.019 2.94-2.02 4.44-2.977 1.501-.966 3.019-1.905 4.589-2.766-1.351 1.177-2.755 2.283-4.176 3.363a171.82 171.82 0 0 1-4.326 3.152c-1.466 1.01-2.94 2.02-4.44 2.977-1.492.965-3.01 1.905-4.589 2.765ZM264.767 287.88c-1.571-.86-3.089-1.8-4.589-2.765-1.5-.957-2.975-1.967-4.44-2.977a136.183 136.183 0 0 1-4.326-3.152c-1.421-1.08-2.825-2.186-4.176-3.363 1.57.861 3.088 1.8 4.589 2.766 1.5.957 2.974 1.967 4.44 2.977a135.01 135.01 0 0 1 4.325 3.152c1.422 1.08 2.826 2.186 4.177 3.362Z" fill="#fff"/><path d="m267.689 300.182 2.825 6.839-2.825 1.168-2.843-6.883-4.668 3.626v-19.255l13.469 13.618-5.958.887ZM260.178 283.579c-.132-.325-.167-.65-.175-.966.008-.325.035-.65.175-.966.132.325.167.65.167.966 0 .316-.035.641-.167.966ZM258.511 284.264c-.325-.132-.57-.343-.807-.562a2.426 2.426 0 0 1-.562-.808c.325.132.57.342.807.562.22.237.43.483.562.808ZM257.818 285.932c-.325.131-.65.166-.966.166-.324-.008-.649-.035-.965-.166.325-.132.65-.167.965-.167.325 0 .641.035.966.167ZM258.511 287.6c-.132.325-.342.571-.562.808a2.41 2.41 0 0 1-.807.561c.132-.324.342-.57.562-.807.237-.22.482-.431.807-.562ZM262.53 285.932c.324-.132.649-.167.965-.167.324.009.649.035.965.167a2.528 2.528 0 0 1-.965.166c-.316 0-.641-.026-.965-.166ZM261.845 284.264c.132-.325.342-.571.562-.808.228-.229.482-.43.807-.562-.132.325-.342.571-.562.808-.237.228-.482.43-.807.562Z" fill="#263238"/><path d="m395.628 305.634-33.079-8.499 10.906-42.496 24.56 6.313 6.44 10.29-8.827 34.392Z" fill="#EBEBEB"/><path d="m398.015 260.952 6.44 10.291-8.52-2.195 2.08-8.096ZM374.56 263.687l18.391 4.725.28-1.088-18.392-4.726-.279 1.089ZM373.858 266.44l18.391 4.725.28-1.088-18.392-4.726-.279 1.089ZM373.145 269.197l18.392 4.726.279-1.089-18.392-4.725-.279 1.088ZM372.441 271.952l26.95 6.924.279-1.089-26.95-6.924-.279 1.089ZM371.73 274.701l26.95 6.924.28-1.088-26.95-6.924-.28 1.088ZM371.026 277.462l26.95 6.924.279-1.089-26.95-6.924-.279 1.089ZM370.315 280.212l26.95 6.924.28-1.089-26.95-6.924-.28 1.089ZM369.614 282.963l26.95 6.924.279-1.088-26.95-6.924-.279 1.088ZM368.902 285.721l26.95 6.924.279-1.088-26.95-6.924-.279 1.088ZM368.199 288.473l26.95 6.924.279-1.088-26.95-6.924-.279 1.088ZM367.488 291.223l26.95 6.924.28-1.088-26.95-6.924-.28 1.088ZM366.784 293.984l26.95 6.924.28-1.089-26.95-6.924-.28 1.089Z" fill="#DBDBDB"/><path d="m293.529 245.667 42.723 1.58 1.026-28.588-42.722-1.58-1.027 28.588Z" fill="#EBEBEB"/><path d="m295.372 243.955 39.169 1.449.895-25.032-39.169-1.449-.895 25.032Z" fill="#fff"/><path d="M299.54 226.86a4.273 4.273 0 0 0 4.106 4.425 4.273 4.273 0 0 0 4.423-4.109 4.274 4.274 0 0 0-4.107-4.425 4.262 4.262 0 0 0-4.422 4.109ZM307.533 244.446l26.982.993-12.811-18.798-14.171 17.805Z" fill="#DBDBDB"/><path d="m296.951 244.06 22.279.825-10.696-12.327-11.583 11.502Z" fill="#EBEBEB"/><path d="m277.376 266.009 41.854-8.736-5.87-28-41.846 8.728 5.862 28.008Z" fill="#EBEBEB"/><path d="m278.753 263.902 38.38-8.008-5.142-24.513-38.379 8.007 5.141 24.514Z" fill="#fff"/><path d="M278.692 246.307a4.271 4.271 0 0 0 5.045 3.31 4.274 4.274 0 0 0 3.308-5.049 4.27 4.27 0 0 0-5.045-3.31 4.262 4.262 0 0 0-3.308 5.049ZM290.678 261.452l26.428-5.514-16.952-15.172-9.476 20.686Z" fill="#DBDBDB"/><path d="m280.315 263.621 21.822-4.548-13.337-9.403-8.485 13.951Z" fill="#EBEBEB"/><path d="M571.616 264.217c6.607-13.601 18.18-20.581 31.219-16.718 13.039 3.855 15.057 22.047 5.326 26.648-9.731 4.592-19.461-8.824-24.603-11.572-5.142-2.766-11.942 1.642-11.942 1.642Z" fill="#FFC727"/><path d="M565.219 300.416c.036-1.642.097-3.275.158-4.917.114-3.275.228-6.55.351-9.816.22-5.988.869-11.861 3.343-17.375 2.22-4.952 5.827-9.281 10.486-12.09a22.122 22.122 0 0 1 5.51-2.38c1.615-1.808 4.133-2.976 6.432-3.538 3.018-.729 6.115-.571 9.169-.228.114.008.105.184-.009.175-2.895-.351-5.861-.175-8.678.615-1.202.342-2.386.781-3.492 1.361-.719.377-1.377.816-2.018 1.282 2.606-.527 5.3-.545 7.967.079.948.219 1.869.544 2.764.913.702-.185 1.483-.202 2.176-.185.948.018 1.904.176 2.825.404 1.904.474 3.677 1.379 5.362 2.345.096.052.008.201-.088.149a19.881 19.881 0 0 0-5.238-1.976 17.412 17.412 0 0 0-2.694-.395c-.5-.035-1-.009-1.501.009 3.668 1.73 6.757 4.68 8.433 8.402.043.097-.106.185-.15.088-1.956-4.425-6.124-7.436-10.739-8.622-.29-.07-.58-.114-.869-.167.105.422.088.905.14 1.317a32.917 32.917 0 0 0 1.395 5.953 32.816 32.816 0 0 0 1.58 3.863c.632 1.274 1.29 2.634 2.202 3.723.079.097-.07.211-.14.106-.781-1.23-1.694-2.362-2.413-3.635a27.645 27.645 0 0 1-1.773-3.793 26.345 26.345 0 0 1-1.158-4.074 30.883 30.883 0 0 1-.342-2.213c-.053-.43-.149-.913-.079-1.352a18.138 18.138 0 0 0-4.633-.096c.579 3.239 1.202 6.62 3.019 9.438.061.097-.097.184-.15.088-.807-1.528-1.64-3.012-2.237-4.636-.57-1.537-1.009-3.187-1.114-4.829-2.685.351-5.318 1.256-7.652 2.573-4.51 2.537-7.941 6.523-10.187 11.159-2.448 5.031-3.431 10.448-3.782 15.988-.429 6.954-.526 13.943-1.219 20.87-.044.457-.764.606-.851.097-.272-1.563-.141-3.135-.106-4.68ZM580.496 255.121c.368-.545 1-.975 1.5-1.388a23.606 23.606 0 0 1 1.676-1.273 12.432 12.432 0 0 1 3.755-1.747c.106-.026.15.14.044.167-1.36.29-2.597 1.01-3.711 1.826-.553.404-1.08.843-1.597 1.291-.483.421-.957.983-1.518 1.29-.088.044-.211-.07-.149-.166Z" fill="#263238"/><path d="M601.598 260.046c1.062 1.291 2.141 2.599 3.036 4.013.895 1.422 1.667 2.897 2.255 4.477.017.044-.053.071-.079.036-1.606-2.889-3.211-5.857-5.335-8.403-.07-.088.053-.211.123-.123ZM587.375 258.703a9.57 9.57 0 0 0 .746 2.458c.351.755.798 1.484 1.254 2.177.027.044-.044.097-.079.053-1.175-1.255-1.834-2.976-2.097-4.653-.009-.106.158-.15.176-.035Z" fill="#263238"/><path d="M566.141 264.559s-9.363-11.774-27.429-7.603c-17.171 3.968-25.095 35.48-7.748 39.246 17.356 3.767 14.294-25.392 20.62-30.335 4.642-3.635 11.319-2.853 14.557-1.308Z" fill="#FFC727"/><path d="M524.761 274.165c1.184-1.019 2.413-2.002 3.72-2.854 1.228-.799 2.562-1.545 3.966-1.984.711-1.063 1.483-2.09 2.352-3.029a23.538 23.538 0 0 1 5.457-4.355c-.175-.009-.359-.027-.535-.035a28.602 28.602 0 0 0-2.869.026 16.118 16.118 0 0 0-5.572 1.387c-.105.044-.175-.114-.07-.158 1.781-.755 3.659-1.352 5.572-1.677.93-.158 1.877-.254 2.825-.246.509.009 1.018.036 1.518.088l.29.027a24.012 24.012 0 0 1 5.211-1.915c-.166-.043-.333-.096-.5-.14a25.242 25.242 0 0 0-2.676-.439c-1.816-.211-3.597-.167-5.405.079-.114.018-.14-.158-.035-.167 1.799-.219 3.65-.29 5.467-.219 1.491.061 3.071.228 4.545.588a25.74 25.74 0 0 1 3.29-.378c6.3-.263 13.17 2.09 17.049 7.27 3.887 5.198 4.641 12.108 5.326 18.359.956 8.71 1.395 17.543.693 26.279-.044.518-.764.421-.781-.07-.237-7.428-.5-14.865-1.211-22.267-.325-3.424-.693-6.866-1.263-10.263-.483-2.907-1.185-5.804-2.492-8.456a15.493 15.493 0 0 0-6.099-6.558c-2.623-1.545-5.615-2.397-8.634-2.661-2.737-.237-5.483.044-8.107.764.114.518.088 1.063.044 1.598a8.968 8.968 0 0 1-.395 1.976 10.634 10.634 0 0 1-.755 1.756c-.333.623-.754 1.176-1.132 1.773-.061.097-.21-.008-.14-.096.781-.984 1.176-2.353 1.404-3.565.114-.606.184-1.229.219-1.844.027-.465-.017-.939.009-1.396a23.759 23.759 0 0 0-7.888 4.171c-.439.351-.86.729-1.281 1.106.614.509 1.114 1.273 1.535 1.879a18.973 18.973 0 0 1 1.606 2.862c.886 1.985 1.351 4.144 1.667 6.287.018.114-.158.14-.166.035-.29-2.116-1.071-4.074-2.054-5.962a23.74 23.74 0 0 0-1.597-2.651 28.5 28.5 0 0 0-.947-1.282c-.176-.228-.369-.448-.535-.694a24.914 24.914 0 0 0-5.125 7.217c.009.009.027.009.035.018.895.834 1.527 1.984 2.115 3.047a28.812 28.812 0 0 1 1.693 3.617c.931 2.388 1.536 4.89 2.159 7.375.026.105-.149.141-.167.035-.5-2.537-1.456-4.934-2.562-7.261a63.354 63.354 0 0 0-1.711-3.354c-.561-1.036-1.255-2.063-1.693-3.161-1.194 2.643-1.922 5.488-2.062 8.377-.009.114-.185.096-.176-.018.36-4.504 1.694-8.991 4.054-12.854-1.106.474-2.211.922-3.273 1.501-1.351.729-2.623 1.598-3.755 2.643-.132.079-.246-.061-.158-.131Z" fill="#263238"/><path d="M538.01 274.831c.544 1.783 1.228 3.521 1.711 5.321.465 1.73.799 3.512.799 5.312 0 .053-.079.053-.088 0-.527-3.573-1.316-7.2-2.589-10.589-.044-.105.132-.167.167-.044ZM526.568 270.406c.72-.676 1.509-1.264 2.396-1.712.877-.439 1.834-.693 2.772-.983.106-.035.141.149.035.167-.938.211-1.816.65-2.667 1.097-.851.448-1.685.94-2.457 1.51-.07.044-.131-.035-.079-.079Z" fill="#263238"/><path d="M557.244 248.834s-1.729-21.151-17.444-28.008c-13.118-5.725-20.637 9.026-11.354 18.06 7.502 7.305 19.541 4.013 28.798 9.948Z" fill="#FFC727"/><path d="M531.35 224.926c2.378 1.018 4.738 2.019 6.985 3.31 1.886 1.08 3.685 2.3 5.422 3.6-.263-.536-.491-1.098-.754-1.616a30.4 30.4 0 0 0-1.334-2.388c-1-1.589-2.097-3.082-3.457-4.381-.079-.079.044-.202.123-.123 1.298 1.326 2.579 2.722 3.641 4.241a25.97 25.97 0 0 1 1.492 2.397c.412.755.877 1.589 1.053 2.432.052.044.114.079.175.123 2.755 2.177 5.247 4.662 7.502 7.349a10.883 10.883 0 0 0-.14-.606 72.917 72.917 0 0 0-.957-3.073c-.71-2.143-1.597-4.276-2.842-6.173-.062-.096.096-.175.149-.087 1.193 1.958 2.378 3.907 3.29 6.014.439 1.01.799 2.063 1.088 3.126.167.632.439 1.396.509 2.124a59.16 59.16 0 0 1 1.992 2.652c6.747 9.605 10.134 21.23 10.941 32.863.246 3.469.29 6.945.176 10.422-.114 3.477-.246 7.033-.921 10.457-.044.22-.386.15-.378-.061.079-3.056.395-6.102.457-9.158a89.1 89.1 0 0 0-.299-9.184 84.908 84.908 0 0 0-3.431-17.999c-1.825-5.961-4.51-11.712-7.993-16.919a29.778 29.778 0 0 1-1.965-.483c-.781-.202-1.571-.403-2.352-.623-1.5-.421-2.992-.896-4.378-1.607-.097-.052-.009-.202.087-.149 1.369.799 2.896 1.229 4.44 1.537 1.229.245 2.51.403 3.738.684a60.607 60.607 0 0 0-3.65-4.802c-2.983.289-6.028.026-8.941-.668a35.645 35.645 0 0 1-4.572-1.422c-1.57-.606-3.062-1.387-4.615-2.037-.114-.053-.035-.219.07-.158 2.668 1.616 6.011 2.45 9.064 2.968 2.808.474 5.633.649 8.476.702a55.413 55.413 0 0 0-3.501-3.705c-4.124-3.933-9.029-7.551-14.469-9.43-.079-.026-.017-.193.079-.149Z" fill="#263238"/><path d="M544.143 224.988a24.68 24.68 0 0 1 1.931 2.818c.596 1.045 1.035 2.125 1.386 3.284.009.035-.044.061-.061.026-.527-1.036-.966-2.116-1.501-3.143a15.747 15.747 0 0 0-1.877-2.863c-.079-.087.052-.21.122-.122ZM529.525 232.029c1.018.589 2.106.984 3.22 1.344 1.08.351 2.168.658 3.282.878.053.009.035.096-.018.096-1.158-.14-2.298-.36-3.395-.746s-2.141-.913-3.185-1.431c-.088-.044 0-.193.096-.141Z" fill="#263238"/><path d="M569.457 245.024c.097.913 2.378-7.674 15.663-15.304 12.064-6.927 26.463-24.944 14.635-36.332-9.546-9.183-34.702 10.844-30.298 51.636Z" fill="#FFC727"/><path d="M560.315 294.288c.201-8.938.895-17.867 2.105-26.735 1.115-8.148 2.87-16.164 5.616-23.925a104.634 104.634 0 0 1 3.343-8.253c-.132-1.028.009-2.169.053-3.161a77.99 77.99 0 0 1 .316-4.057c.122-1.352.263-2.695.421-4.047.158-1.335.447-2.687.5-4.03.009-.123.202-.097.167.026-.325 1.379-.369 2.871-.474 4.276a82.849 82.849 0 0 0-.22 3.916c-.043 1.308-.035 2.616-.035 3.924 0 .475.027.975.044 1.476a112.957 112.957 0 0 1 4.036-7.78c-.903-5.513.272-11.273 1.396-16.664.026-.105.184-.061.166.053-.588 2.809-.807 5.68-.877 8.543-.053 2.265.052 4.53.061 6.787.316-.545.641-1.089.965-1.625a119.967 119.967 0 0 1 5.519-8.253c-.21-1.291-.061-2.651.132-3.925.211-1.448.544-2.888.965-4.293a44.168 44.168 0 0 1 1.474-4.153c.58-1.396 1.343-2.722 1.896-4.127.044-.114.219-.035.158.071-.755 1.264-1.211 2.774-1.668 4.17a37.427 37.427 0 0 0-1.088 4.136c-.28 1.396-.509 2.8-.71 4.214-.132.931-.211 1.905-.378 2.853 2.861-3.819 5.949-7.463 9.301-10.834.079-.079.193.044.123.123-5.045 5.733-9.608 11.809-13.504 18.385-.149.246-.28.492-.43.738.729-.457 1.571-.826 2.264-1.203 1.29-.72 2.58-1.431 3.878-2.125 1.255-.676 2.51-1.37 3.765-2.063.64-.36 1.281-.729 1.939-1.063.746-.377 1.579-.746 2.255-1.246.105-.079.21.079.105.14-1.281.703-2.413 1.747-3.641 2.538a72.093 72.093 0 0 1-3.791 2.274c-2.36 1.317-4.931 2.265-7.256 3.626a118.58 118.58 0 0 0-4.475 8.674 83.218 83.218 0 0 1 4.317-2.581 143.25 143.25 0 0 1 2.843-1.554c.921-.483 1.877-.931 2.676-1.616.088-.07.202.044.123.123-1.501 1.475-3.299 2.503-5.107 3.556a85.341 85.341 0 0 1-5.203 2.836 112.772 112.772 0 0 0-3.843 9.518c-5.59 15.848-7.652 32.661-8.626 49.37a326.623 326.623 0 0 0-.508 14.943c-.062 4.979.201 9.957.193 14.935 0 .149-.246.184-.264.026-.596-4.416-.702-8.911-.895-13.354-.219-4.504-.219-9.061-.122-13.583Z" fill="#263238"/><path d="M584.453 222.555c2.439-1.001 4.764-2.353 7.063-3.652a74.94 74.94 0 0 0 6.704-4.259c.035-.026.079.036.044.062-2.045 1.633-4.186 3.169-6.441 4.504-2.334 1.387-4.808 2.415-7.291 3.494-.097.044-.184-.105-.079-.149ZM580.601 204.645c.193-.773.439-1.537.702-2.283-.026-.018-.053-.044-.035-.088.166-.43.342-.852.517-1.282a.86.86 0 0 1 .062-.149c.035-.079.07-.167.096-.246.009-.026.053-.018.044.009-.044.149-.087.298-.131.439-.027.088-.035.158-.071.246-.903 2.95-1.509 5.979-1.965 9.025-.018.097-.158.097-.158 0 .123-1.922.465-3.81.939-5.671Z" fill="#263238"/><path d="m546.276 297.501.947 11.239 2.904 34.294h31.088l2.904-34.294.948-11.239h-38.791Z" fill="#455A64"/><path d="m546.276 297.501.947 11.239h36.896l.948-11.239h-38.791Z" fill="#263238"/><path d="M543.229 303.773h44.89v-10.79h-44.89v10.79Z" fill="#455A64"/><path d="M422.855 263.655h-14.153v55.252h14.153v-55.252ZM422.855 321.638h-14.153v9.096h14.153v-9.096ZM422.855 333.465h-14.153v5.61h14.153v-5.61ZM422.855 341.806h-14.153v2.783h14.153v-2.783ZM427.567 263.655h-23.586l11.793-16.331 11.793 16.331ZM451.021 246.094h-14.153v72.813h14.153v-72.813ZM451.021 321.638h-14.153v9.096h14.153v-9.096ZM451.021 333.464h-14.153v5.611h14.153v-5.611ZM451.021 341.806h-14.153v2.783h14.153v-2.783Z" fill="#4F06BE"/><path d="M455.741 246.095h-23.585l11.793-16.331 11.792 16.331ZM479.195 228.534h-14.153v90.373h14.153v-90.373ZM479.195 321.638h-14.153v9.096h14.153v-9.096ZM479.195 333.464h-14.153v5.61h14.153v-5.61ZM479.195 341.805h-14.153v2.784h14.153v-2.784Z" fill="#4F06BE"/><path d="M483.907 228.535h-23.585l11.792-16.331 11.793 16.331ZM507.361 210.975h-14.153v107.933h14.153V210.975ZM507.361 321.638h-14.153v9.097h14.153v-9.097ZM507.361 333.465h-14.153v5.611h14.153v-5.611ZM507.361 341.806h-14.153v2.783h14.153v-2.783ZM512.082 210.975h-23.586l11.793-16.33 11.793 16.33Z" fill="#4F06BE"/><path opacity=".6" d="M271.006 307.397a6.224 6.224 0 0 1-6.221 6.225 6.23 6.23 0 0 1-6.221-6.225 6.223 6.223 0 0 1 6.221-6.225 6.224 6.224 0 0 1 6.221 6.225ZM278.569 295.501a3.038 3.038 0 0 1-3.036 3.038 3.038 3.038 0 0 1 0-6.076 3.043 3.043 0 0 1 3.036 3.038ZM411.738 304.386a3.038 3.038 0 0 1-3.036 3.038 3.038 3.038 0 0 1 0-6.076 3.038 3.038 0 0 1 3.036 3.038ZM472.483 332.096a3.038 3.038 0 0 1-3.036 3.038 3.038 3.038 0 0 1 0-6.076 3.038 3.038 0 0 1 3.036 3.038Z" fill="#170139"/><path opacity=".6" d="M467.833 340.972a3.623 3.623 0 0 1-3.616 3.617H238.681a3.622 3.622 0 0 1-3.615-3.617 3.622 3.622 0 0 1 3.615-3.617c.298 0 .588.035.86.105a7.136 7.136 0 0 1 7.133-7.138c1.992 0 3.8.825 5.098 2.151l.062-.026a13.426 13.426 0 0 1-.062-1.335c0-7.437 6.028-13.477 13.469-13.477 2.123 0 4.133.492 5.923 1.378.289-5.048 4.466-9.052 9.59-9.052a9.589 9.589 0 0 1 8.959 6.129 13.44 13.44 0 0 1 11.397-6.296c.887 0 1.747.088 2.571.246a17.69 17.69 0 0 1-.272-3.143c0-10.071 8.161-18.236 18.225-18.236 4.545 0 8.704 1.668 11.889 4.425a3.602 3.602 0 0 1 3.211-1.958c.492 0 .966.105 1.387.272l3.387-90.495h19.865l3.387 90.495a3.62 3.62 0 0 1 4.598 1.686 18.126 18.126 0 0 1 11.889-4.425c10.064 0 18.224 8.165 18.224 18.236 0 1.071-.096 2.125-.272 3.143a13.808 13.808 0 0 1 2.571-.246c4.8 0 9.02 2.511 11.398 6.296a9.597 9.597 0 0 1 8.959-6.129c5.124 0 9.301 4.004 9.59 9.052a13.306 13.306 0 0 1 5.923-1.378c7.441 0 13.469 6.032 13.469 13.477 0 .448-.018.887-.062 1.335l.062.026a7.12 7.12 0 0 1 5.097-2.151 7.136 7.136 0 0 1 7.134 7.138 3.62 3.62 0 0 1 4.493 3.512Z" fill="#170139"/><path d="m410.65 311.182-4.694.86-1.045 4.952-1.044-4.952-4.694-.869 4.668-1.141 1.07-4.671 1.071 4.671 4.668 1.15ZM365.032 271.505l-4.694.869-1.045 4.943-1.052-4.943-4.686-.869 4.668-1.15 1.07-4.671 1.071 4.671 4.668 1.15ZM296.872 320.602l-2.623.483-.588 2.766-.579-2.766-2.624-.492 2.606-.632.597-2.616.597 2.616 2.614.641ZM437.921 328.847l-2.624.483-.588 2.765-.579-2.765-2.623-.483 2.606-.641.596-2.608.606 2.608 2.606.641ZM260.792 338.54l-2.623.483-.579 2.765-.588-2.765-2.624-.483 2.615-.641.597-2.617.596 2.617 2.606.641ZM374.824 336.24l-2.623.483-.588 2.765-.579-2.765-2.624-.483 2.606-.641.597-2.617.605 2.617 2.606.641ZM355.635 263.981l-2.624.482-.588 2.766-.588-2.766-2.615-.482 2.606-.641.597-2.608.597 2.608 2.615.641ZM444.124 334.827c-.974 0-.983 1.518 0 1.518.974 0 .974-1.518 0-1.518ZM345.483 254.393c-.974 0-.983 1.519 0 1.519.982 0 .982-1.519 0-1.519ZM280.657 338.54c-.974 0-.982 1.519 0 1.519.974 0 .974-1.519 0-1.519ZM328.82 328.083c-.974 0-.983 1.519 0 1.519.974.009.974-1.519 0-1.519ZM425.084 321.155c-.693 0-.693 1.08 0 1.08.693-.008.693-1.08 0-1.08ZM358.662 313.086c-.693 0-.693 1.08 0 1.08s.693-1.08 0-1.08ZM310.034 302.577c-.693 0-.693 1.08 0 1.08.693-.009.693-1.08 0-1.08ZM393.224 304.772c-1.878 0-1.878 2.915 0 2.915s1.878-2.915 0-2.915ZM316.922 297.634c-1.878 0-1.878 2.915 0 2.915s1.878-2.915 0-2.915Z" fill="#FCFCFC"/><path d="M317.641 129.348c-.71 0-27.218 12.239-28.788 42.381-1.439 27.719 17.706 54.032 20.181 52.294 3.027-2.134-2.124-19.404 3.764-39.15 2.088-7.007 11.214-13.223 11.214-13.223l-6.371-42.302Z" fill="#170139"/><path opacity=".1" d="M324.012 171.65s-3.958 2.696-7.257 6.541a27767.364 27767.364 0 0 1-16.048-35.901c7.765-8.982 16.522-12.942 16.926-12.942l6.379 42.302Z" fill="#4F06BE"/><path d="M385.09 129.401c.711 0 27.201 12.283 28.728 42.425 1.403 27.718-17.786 54.006-20.252 52.259-3.018-2.143 2.15-19.395-3.702-39.159-2.08-7.007-11.197-13.24-11.197-13.24l6.423-42.285Z" fill="#170139"/><path opacity=".1" d="M402.095 142.474c-4.8 10.738-12.17 27.209-16.066 35.91-3.317-3.924-7.371-6.699-7.371-6.699l6.432-42.293c.404 0 9.24 4.012 17.005 13.082Z" fill="#000"/><path d="m371.402 198.701-39.994-.026s-18.838-33.706-16.609-73.901c1.123-20.063 6.361-40.257 12.67-56.974 8.678-23.082 19.409-39.457 24.059-39.448 4.668 0 15.355 16.392 24.024 39.483 6.265 16.718 11.477 36.929 12.574 56.991 2.167 40.186-16.724 73.875-16.724 73.875Z" fill="#EBEBEB"/><path d="M375.403 119.619c-.009 12.749-10.345 23.065-23.076 23.056-12.741-.008-23.051-10.351-23.042-23.091.009-12.748 10.345-23.065 23.077-23.056 12.731.009 23.05 10.351 23.041 23.091Z" fill="#C7C7C7"/><path d="M374.587 117.275c-.009 12.748-10.345 23.065-23.076 23.056-12.741-.009-23.051-10.351-23.042-23.091.009-12.749 10.345-23.065 23.077-23.056 12.731 0 23.05 10.342 23.041 23.091Z" fill="#FFC727"/><path d="M367.515 117.257c0 8.841-7.16 16.006-15.996 16.006-8.835 0-15.995-7.165-15.995-16.006 0-8.841 7.16-16.006 15.995-16.006 8.836 0 15.996 7.165 15.996 16.006Z" fill="#fff"/><path d="M367.524 117.248c0 2.046-.378 4.004-1.079 5.795l-9.117 9.123a15.988 15.988 0 0 1-10.073.491l19.681-19.693c.377 1.369.588 2.801.588 4.284ZM353.871 101.427l-18.172 18.183a15.95 15.95 0 0 1-.175-2.344c0-8.841 7.16-16.006 15.995-16.006.799-.009 1.588.053 2.352.167ZM365.523 109.504l-21.734 21.748a12.701 12.701 0 0 1-1.228-.755l22.208-22.222c.263.395.509.808.754 1.229Z" fill="#EBEBEB"/><path d="m375.552 67.835-48.074-.035c8.677-23.082 19.408-39.457 24.059-39.448 4.668 0 15.355 16.383 24.015 39.483Z" fill="#170139"/><path d="M335.752 62.84c0 .746-.606 1.343-1.352 1.343a1.345 1.345 0 0 1-1.342-1.352c0-.746.605-1.343 1.351-1.343a1.34 1.34 0 0 1 1.343 1.352ZM344.307 62.84c0 .746-.606 1.343-1.351 1.343a1.345 1.345 0 0 1-1.343-1.352c0-.746.605-1.343 1.351-1.343a1.356 1.356 0 0 1 1.343 1.352ZM352.862 62.85c0 .745-.606 1.342-1.351 1.342a1.345 1.345 0 0 1-1.343-1.352c0-.746.606-1.343 1.351-1.343a1.357 1.357 0 0 1 1.343 1.352ZM361.417 62.857c0 .747-.606 1.344-1.351 1.344a1.345 1.345 0 0 1-1.343-1.352c0-.747.606-1.344 1.351-1.344a1.35 1.35 0 0 1 1.343 1.352ZM369.963 62.857c0 .747-.605 1.344-1.351 1.344a1.345 1.345 0 0 1-1.343-1.352c0-.747.606-1.344 1.352-1.344a1.356 1.356 0 0 1 1.342 1.352Z" fill="#fff"/><path d="M335.699 192.52c0 .747-.605 1.344-1.351 1.344a1.345 1.345 0 0 1-1.343-1.353c0-.746.606-1.343 1.352-1.343.745 0 1.342.606 1.342 1.352ZM344.254 192.52c0 .747-.605 1.344-1.351 1.344a1.345 1.345 0 0 1-1.343-1.352c0-.747.606-1.344 1.352-1.344a1.362 1.362 0 0 1 1.342 1.352ZM352.809 192.529c0 .747-.605 1.344-1.351 1.344a1.345 1.345 0 0 1-1.343-1.352c0-.747.606-1.344 1.352-1.344a1.35 1.35 0 0 1 1.342 1.352ZM361.355 192.538c0 .746-.605 1.343-1.351 1.343a1.344 1.344 0 0 1-1.342-1.352c0-.746.605-1.343 1.351-1.343s1.342.605 1.342 1.352ZM369.91 192.538c0 .746-.605 1.343-1.351 1.343a1.344 1.344 0 0 1-1.342-1.352c0-.746.605-1.343 1.351-1.343a1.36 1.36 0 0 1 1.342 1.352Z" fill="#C7C7C7"/><path d="m367.717 210.73-32.527-.026-1.518-12.028 35.58.026-1.535 12.028Z" fill="#FF00C7"/><path opacity=".1" d="m369.252 198.702-.754 5.856-34.247-1.282-.57-4.6 35.571.026Z" fill="#FF00C7"/><path d="M196.494 389.553c-1.878.632-55.718.825-57.78-.466-.781-.483-1.263-8.332-1.588-17.823-.07-2.055-.123-4.171-.175-6.322l-4.37-28.737 35.992-.228 3.396 28.746-.14 6.321s20.646 9.158 22.752 10.809c2.106 1.659 3.79 7.067 1.913 7.7Z" fill="#D3766A"/><path d="M196.494 389.552c-1.878.633-55.718.826-57.78-.465-.947-.597-1.474-12.055-1.755-24.145l35.028-.228-.141 6.321s20.646 9.158 22.752 10.809c2.089 1.668 3.773 7.076 1.896 7.708Z" fill="#fff"/><path d="M196.494 389.552c-1.878.633-55.718.826-57.78-.465-.781-.483-1.263-8.332-1.588-17.823l34.712-.22s20.646 9.158 22.752 10.808c2.097 1.66 3.781 7.068 1.904 7.7Z" fill="#4F06BE"/><path d="M195.713 387.402c-9.029-.193-45.452-.105-54.384.395-.07 0-.07.053 0 .053 8.941.386 45.364 0 54.392-.307.185 0 .185-.141-.008-.141ZM175.347 371.923c-3.615-.035-7.8 1.256-10.029 4.214-.088.115.079.237.184.185 3.264-1.695 6.362-2.959 9.907-3.951.254-.07.193-.439-.062-.448ZM178.138 373.003c-3.616-.036-7.801 1.255-10.03 4.214-.087.114.079.237.185.184 3.255-1.694 6.361-2.958 9.906-3.951.254-.07.202-.447-.061-.447ZM180.928 374.083c-3.615-.035-7.801 1.256-10.029 4.214-.088.115.079.237.184.185 3.255-1.695 6.361-2.959 9.906-3.951.255-.07.202-.448-.061-.448Z" fill="#263238"/><path d="M75.679 209.405s47.241 71.153 48.356 76.149c1.719 7.673 10.889 84.665 10.889 84.665l39.405-.781s-8.906-68.019-16.004-90.039c-5.116-15.865-42.003-68.466-42.003-68.466l-40.643-1.528Z" fill="#37474F"/><path d="M173.162 362.677c-6.247-.044-28.376-.298-36.694.483-.061.009-.061.114 0 .123 2.86.413 30.447-.228 36.694-.43.123 0 .115-.176 0-.176Z" fill="#263238"/><path d="M112.637 401.564c-1.983.132-55.402-13.96-57.069-15.734-.052-.061-.096-.184-.123-.368-.21-1.748 2.519-8.315 4.44-16.718.123-.535 1.123-3.081 2.536-6.532 3.878-9.465 10.792-25.708 10.792-25.708l34.879 8.956-12.846 25.831-1.737 6.075s17.636 14.119 19.251 16.252c1.588 2.151 1.851 7.814-.123 7.946Z" fill="#D3766A"/><path d="M112.637 401.564c-1.983.132-55.402-13.96-57.069-15.734-.052-.061-.096-.184-.123-.368-.21-1.748 2.519-8.315 4.44-16.718.123-.535 1.123-3.081 2.536-6.532l32.825 9.079-1.737 6.075s17.636 14.119 19.251 16.252c1.588 2.151 1.851 7.814-.123 7.946Z" fill="#fff"/><path d="M112.628 401.563c-1.983.141-55.401-13.96-57.06-15.733-.632-.668.755-7.902 4.308-17.077l33.624 8.63s17.636 14.11 19.251 16.252c1.605 2.134 1.86 7.788-.123 7.928Z" fill="#4F06BE"/><path d="M112.426 399.28c-8.678-2.484-43.924-11.677-52.699-13.468-.07-.018-.087.035-.017.052 8.546 2.652 43.872 11.555 52.672 13.565.193.044.228-.096.044-.149ZM96.667 379.13c-3.483-.957-7.862-.773-10.775 1.519-.114.088.018.246.132.219 3.58-.807 6.906-1.246 10.59-1.299.255 0 .299-.369.053-.439ZM99.09 380.886c-3.484-.957-7.863-.773-10.776 1.519-.114.088.018.246.132.219 3.58-.807 6.905-1.246 10.59-1.299.264 0 .308-.378.053-.439ZM101.52 382.633c-3.484-.957-7.862-.773-10.775 1.519-.114.088.017.246.131.219 3.58-.807 6.906-1.246 10.591-1.299.254.009.298-.369.053-.439Z" fill="#263238"/><path d="m95.904 377.455-39.072-10.264s39.133-81.496 38.835-86.58c-.272-4.504-27.402-44.04-28.912-51.442-2.456-12.116 3.44-22.933 9.16-29.641l40.416 11.405s-3.22 6.998-9.134 11.414c0 0 25.401 42.443 26.051 56.403.658 14.039-37.344 98.705-37.344 98.705Z" fill="#37474F"/><path d="M96.536 370.423c-5.668-1.624-4.019-1.238-9.705-2.801-2.781-.764-21.076-5.768-23.796-6.023-.061-.009-.088.088-.035.114 2.492 1.124 20.865 5.804 23.665 6.515 5.712 1.449 4.088.974 9.818 2.362.123.026.167-.132.053-.167ZM113.4 220.715c-3.887 1.37-7.625 3.284-11.187 5.286-.141.079-.044.289.105.219 3.773-1.642 7.625-3.222 11.293-5.066.298-.149.087-.544-.211-.439Z" fill="#263238"/><path d="M108.653 219.723c-.289.711-.526 1.44-.719 2.177-.149.571-.36 1.194-.281 1.791.017.114.175.123.237.044.386-.491.544-1.168.754-1.747.246-.676.509-1.343.729-2.028.149-.457-.536-.676-.72-.237Z" fill="#263238"/><path d="M108.662 216.053c.158-.624.325-1.238.491-1.853.176-.641.404-1.273.527-1.923.017-.105.184-.052.158.044-.158.624-.228 1.273-.343 1.905a73.57 73.57 0 0 1-.359 1.897 34.714 34.714 0 0 1-.895 3.503c.623-.088 1.263-.202 1.798-.553.58-.386.869-1.097 1.097-1.73.255-.702.483-1.422.746-2.116.29-.772.623-1.545.781-2.361.018-.106.184-.053.158.043-.369 1.695-.728 3.381-1.439 4.988-.281.632-.483 1.281-1.106 1.589-.666.333-1.439.386-2.167.421-.088.035-.21-.009-.193-.123.193-1.229.43-2.502.746-3.731ZM107.986 223.735c1.536 2.775 3.299 5.444 4.94 8.157 1.606 2.651 3.133 5.356 4.633 8.069a224.34 224.34 0 0 1 8.38 16.831 176.032 176.032 0 0 1 3.58 8.587c1.123 2.897 2.237 5.83 2.939 8.867.702 3.047.869 6.12.395 9.219-.483 3.135-1.43 6.182-2.387 9.202-2.167 6.892-4.571 13.732-7.633 20.282-.106.219-.466.052-.387-.176 2.133-6.023 4.344-12.028 6.265-18.131 1.861-5.917 4.063-12.055 3.036-18.341-.491-3.029-1.5-5.953-2.571-8.824a173.286 173.286 0 0 0-3.509-8.701c-2.457-5.654-5.212-11.142-8.029-16.62-1.579-3.065-3.238-6.094-4.826-9.149-1.606-3.082-3.176-6.225-4.975-9.202-.044-.079.097-.158.149-.07ZM78.548 217.8c.728-.123 1.799.132 4.966-.088.878-.061 1.747-.228 2.598-.421.85-.193 1.72-.413 2.413-.984 1.167-.957 2.053-2.484 2.755-3.793.772-1.44 1.562-3.081 1.93-4.688.027-.097.167-.053.15.044-.167.93-.264 1.852-.5 2.774-.229.861-.562 1.704-.922 2.52-.676 1.519-1.465 3.152-2.825 4.179-1.43 1.08-3.422 1.282-5.151 1.396-1 .071-4.931-.035-5.458-.597-.096-.105-.087-.324.044-.342Z" fill="#263238"/><path d="M64.764 360.519c4.238-11.098 27.183-60.249 31.675-70.513 1.07-2.458 2.36-4.934 2.922-7.568.605-2.871-.28-5.461-1.483-8.034-2.22-4.723-4.808-9.262-7.546-13.705-2.746-4.452-5.65-8.806-8.51-13.179-2.844-4.337-5.836-8.675-8.161-13.319-2.22-4.434-3.457-9.175-2.825-14.154.631-4.943 2.772-9.57 5.062-13.942.606-1.15 1.229-2.292 1.834-3.442.044-.088.184-.009.132.079-2.562 4.574-5.01 9.377-6.195 14.513-.588 2.538-.842 5.163-.57 7.762.28 2.634 1.105 5.171 2.193 7.577 2.124 4.671 5.09 8.973 7.88 13.258 2.86 4.381 5.773 8.727 8.555 13.161 2.799 4.46 5.466 9.008 7.783 13.732 1.035 2.107 2.158 4.302 2.413 6.664.272 2.59-.658 5.075-1.659 7.419-4.343 10.194-32.65 72.576-33.272 73.831-.07.158-.29.018-.228-.14Z" fill="#263238"/><path d="M118.875 165.276c6.213 3.512 29.035 16.155 37.528 14.987 13.53-1.861 33.44-21.967 38.362-27.033 2.141-2.213-14.873-20.818-17.329-18.623-1.659 1.476-20.769 22.802-23.06 23.706-2.29.905-21.541-1.676-33.14-3.977-11.056-2.195-15.531 3.495-2.361 10.94Z" fill="#D3766A"/><path d="M201.232 145.512c-2.413 4.654-11.065 12.24-13.855 13.267-2.79 1.027-16.171-13.267-15.68-16.278.483-3.012 9.819-18.052 14.706-20.22 4.887-2.169 17.329 18.411 14.829 23.231Z" fill="#D3766A"/><path d="M179.55 127.118c.184 2.775 3.343.975 3.343.975s-3.922 3.687-2.632 6.471c1.255 2.678 4.993.368 5.265.21-.202.194-3.721 3.679-2.141 6.348 1.649 2.766 5.01-.193 5.22-.386-.131.246-1.877 3.547-.219 5.294 2.86 3.003 7.555-5.303 10.828-6.058 0 0 1.921 5.4 2.009 5.549 0 0 4.624-7.814 3.352-12.169-.676-2.3-2.948-2.125-2.948-2.125s1.772-2.353.587-4.495c-.605-1.098-2.904-1.098-2.904-1.098s1.343-1.94.167-3.775c-.93-1.466-3.089-1.238-3.089-1.238s.421-2.467-1.018-3.652c-2.869-2.415-16.197 4.214-15.82 10.149Z" fill="#D3766A"/><path d="M196.064 120.595c.043-.018.026-.088-.018-.079-4.914 1.115-9.976 3.845-13.328 7.647-.114.123.044.36.193.246 4.203-3.258 8.186-5.821 13.153-7.814ZM199.38 125.573c.053-.017.018-.114-.044-.096-5.062 1.176-10.678 4.407-14.021 9.245-.114.167-.053.43.096.246 2.466-3.047 9.494-7.63 13.969-9.395ZM188.491 141.149c3.387-4.522 7.88-7.507 12.934-9.904.061-.035.017-.123-.044-.114-2.79.5-5.853 2.361-8.116 4.012-2.168 1.58-3.8 3.451-4.932 5.874-.044.114.088.228.158.132Z" fill="#263238"/><path d="M182.893 128.093a16.982 16.982 0 0 0-1.834 2.502c-.509.878-.947 1.861-.93 2.818.009.474.167.922.483 1.256.325.333.728.614 1.158.737.869.272 1.887-.017 2.659-.509l1.921-1.22-1.377 1.817c-.606.79-1.123 1.712-1.439 2.652-.307.939-.369 1.958.087 2.721.466.817 1.29 1.23 2.177.993.895-.194 1.781-.799 2.491-1.449l1.983-1.835-1.263 2.37a8.743 8.743 0 0 0-.799 2.09c-.166.72-.21 1.466.036 2.081.236.606.807 1.08 1.421 1.115.649.044 1.369-.29 2.009-.676 1.308-.799 2.466-1.888 3.659-2.906a51.293 51.293 0 0 1 1.817-1.528c.623-.474 1.281-.983 2.062-1.159-.755.255-1.334.817-1.922 1.326a49.498 49.498 0 0 0-1.685 1.651c-1.114 1.123-2.246 2.238-3.588 3.16-.685.431-1.431.878-2.387.887-.983 0-1.825-.711-2.167-1.563-.351-.869-.281-1.764-.114-2.581.184-.825.465-1.58.851-2.336l.71.536c-.833.781-1.746 1.449-2.93 1.747-.588.141-1.273.114-1.86-.184-.588-.29-1.018-.755-1.317-1.291-.623-1.106-.473-2.405-.105-3.45.377-1.071.93-2.011 1.623-2.898l.544.597c-.991.589-2.184.852-3.316.457a3.29 3.29 0 0 1-1.387-.992c-.386-.448-.561-1.063-.544-1.625.044-1.141.615-2.098 1.194-2.967a15.547 15.547 0 0 1 2.079-2.344Z" fill="#263238"/><path d="M172.838 139.656s1.641-22.178 9.994-17.288c2.483 1.458 10.933 10.387 9.178 12.117-2.273 2.239-6.493-.834-8.845-3.179 0 0 .5 7.621-4.694 9.553-3.273 1.212-5.633-1.203-5.633-1.203Z" fill="#D3766A"/><path d="M182.104 122c1.052.412 1.983 1.097 2.869 1.791.895.702 1.711 1.492 2.5 2.309 1.562 1.659 3.045 3.336 4.326 5.277.316.491.606 1.001.799 1.624.087.307.149.667.087 1.027a1.598 1.598 0 0 1-.166.545 1.843 1.843 0 0 1-.334.448c-.509.518-1.184.728-1.825.781-.64.035-1.254-.079-1.834-.255-1.158-.368-2.158-.992-3.079-1.685-.93-.685-1.764-1.475-2.571-2.283l.667-.316a13.58 13.58 0 0 1-.167 2.607 12.385 12.385 0 0 1-.649 2.503 8.763 8.763 0 0 1-1.264 2.247 6.614 6.614 0 0 1-1.913 1.686 7.633 7.633 0 0 0 1.685-1.844c.456-.693.772-1.466 1.018-2.256.245-.79.403-1.607.482-2.423.079-.817.097-1.66.027-2.459l-.097-1.01.763.694c.825.746 1.641 1.501 2.545 2.125.886.632 1.825 1.211 2.825 1.51.966.298 2.106.325 2.712-.29.588-.491.07-1.624-.474-2.52-.562-.939-1.237-1.826-1.904-2.721a55.118 55.118 0 0 0-2.088-2.626c-1.483-1.642-2.993-3.345-4.94-4.486Z" fill="#263238"/><path d="m171.574 140.324 16.294 23.618s-17.496 14.171-31.508 17.516c-5.783 1.379-28.035-9.008-37.765-15.101-9.731-6.094-12.951-14.619 4.229-12.442 17.171 2.178 29.833 4.47 30.956 4.127 1.114-.325 17.794-17.718 17.794-17.718Z" fill="#170139"/><path d="M112.61 155.812c-.175.052-.351.07-.526.105a.976.976 0 0 1-.588-.053.88.88 0 0 1-.377-.272 2.21 2.21 0 0 1 .272-.307.834.834 0 0 0 .254.272.895.895 0 0 0 .439.149c.175.035.351.062.526.106ZM135.608 170c.184.018.316.053.448.132a.82.82 0 0 1 .403.685c-.009.421.263.851.658 1.001a.985.985 0 0 0 .588.052c.176-.035.351-.061.527-.105-.176-.053-.351-.07-.527-.105a.91.91 0 0 1-.439-.15.818.818 0 0 1-.377-.711c0-.439-.298-.852-.693-.983a1.05 1.05 0 0 0-.588-.035c-.175.035-.351.061-.526.105.175.053.351.07.526.114Zm19.313 0a1 1 0 0 1 .447.132.82.82 0 0 1 .404.685c-.009.421.263.851.658 1.001a.983.983 0 0 0 .588.052c.175-.035.351-.061.526-.105-.175-.053-.351-.07-.526-.105a.902.902 0 0 1-.439-.15.816.816 0 0 1-.377-.711 1.047 1.047 0 0 0-1.281-1.018c-.176.035-.351.061-.527.105.176.053.351.07.527.114Zm-29.904-14.891a1 1 0 0 1 .448.132.82.82 0 0 1 .404.685c-.009.421.263.851.658 1.001a.968.968 0 0 0 .588.052c.175-.035.35-.061.526-.105-.176-.053-.351-.07-.526-.105a.902.902 0 0 1-.439-.15.818.818 0 0 1-.378-.711c0-.439-.298-.851-.693-.983a1.05 1.05 0 0 0-.588-.035c-.175.035-.351.061-.526.105.175.053.351.079.526.114Zm5.634 9.158c-.15.114-.264.184-.413.219a.814.814 0 0 1-.772-.202c-.29-.298-.79-.412-1.176-.245a.978.978 0 0 0-.456.377c-.097.149-.211.29-.298.448.158-.088.298-.202.447-.299a.872.872 0 0 1 .413-.202.816.816 0 0 1 .763.237c.307.308.807.387 1.184.211.194-.079.351-.246.439-.386.097-.149.211-.29.299-.448-.141.088-.281.193-.43.29Zm53.357.474c-.15.114-.264.184-.413.219a.814.814 0 0 1-.772-.202c-.289-.298-.79-.412-1.176-.245a.978.978 0 0 0-.456.377c-.096.149-.211.29-.298.448.158-.088.298-.202.447-.299a.86.86 0 0 1 .413-.201.81.81 0 0 1 .763.237 1.08 1.08 0 0 0 1.185.21c.193-.079.35-.246.438-.386.097-.149.211-.29.299-.448-.141.079-.281.193-.43.29Zm-64.466-2.292a.988.988 0 0 1-.131.448.82.82 0 0 1-.685.404c-.421-.009-.851.263-1 .659a.976.976 0 0 0-.053.588c.035.175.062.351.106.527.052-.176.07-.352.105-.527a.891.891 0 0 1 .149-.439.817.817 0 0 1 .711-.378c.438 0 .851-.298.982-.693.079-.194.071-.422.036-.589-.036-.175-.062-.351-.106-.526-.061.175-.079.351-.114.526Zm19.874-4.662a1.113 1.113 0 0 1-.131.448.82.82 0 0 1-.685.404c-.421-.009-.851.263-1 .658a.98.98 0 0 0-.053.589c.035.175.062.351.106.526.052-.175.07-.351.105-.526a.891.891 0 0 1 .149-.439.817.817 0 0 1 .711-.378 1.05 1.05 0 0 0 1.018-1.282c-.036-.175-.062-.351-.106-.527-.052.176-.079.352-.114.527Zm7.625 18.263a1.108 1.108 0 0 1-.131.447.82.82 0 0 1-.685.404c-.421-.009-.851.264-1 .659a.976.976 0 0 0-.053.588c.035.176.062.351.105.527.053-.176.071-.351.106-.527a.895.895 0 0 1 .149-.439.82.82 0 0 1 .711-.378c.438 0 .851-.298.982-.693.079-.193.071-.422.035-.588-.035-.176-.061-.352-.105-.527-.052.175-.079.351-.114.527Zm9.169 3.661c.15-.114.264-.185.413-.22a.819.819 0 0 1 .772.202c.289.299.79.413 1.176.246a.978.978 0 0 0 .456-.377c.096-.15.211-.29.298-.448-.158.088-.298.202-.447.298a.862.862 0 0 1-.413.202.81.81 0 0 1-.763-.237 1.083 1.083 0 0 0-1.185-.211.996.996 0 0 0-.438.387c-.097.149-.211.29-.299.448.141-.079.281-.194.43-.29Zm-12.038-12.872c.149-.114.263-.184.412-.219a.819.819 0 0 1 .772.202c.29.298.79.412 1.176.246a.98.98 0 0 0 .456-.378c.097-.149.211-.29.299-.448-.158.088-.299.202-.448.299a.868.868 0 0 1-.412.202.815.815 0 0 1-.763-.237 1.08 1.08 0 0 0-1.185-.211 1.009 1.009 0 0 0-.439.386c-.096.15-.21.29-.298.448.14-.079.281-.193.43-.29Zm16.952-15.066c.184.017.316.061.448.132a.82.82 0 0 1 .403.684c-.009.422.263.852.658 1.001a.977.977 0 0 0 .588.053c.176-.035.351-.061.527-.105-.176-.053-.351-.071-.527-.106a.898.898 0 0 1-.439-.149.818.818 0 0 1-.377-.711 1.06 1.06 0 0 0-.693-.984 1.05 1.05 0 0 0-.588-.035c-.175.035-.351.053-.526.106.175.061.351.079.526.114Zm10.547 14.759c.184.018.316.062.447.132a.818.818 0 0 1 .404.685c-.009.421.263.851.658 1.001a.983.983 0 0 0 .588.052c.175-.035.351-.061.526-.105-.175-.053-.351-.07-.526-.106a.895.895 0 0 1-.439-.149.816.816 0 0 1-.377-.711c0-.439-.298-.852-.693-.983a1.04 1.04 0 0 0-.588-.035c-.176.035-.351.052-.527.105.176.053.351.079.527.114Zm8.406-10.395a.983.983 0 0 1 .447.131.82.82 0 0 1 .404.685c-.009.422.263.852.658 1.001a.976.976 0 0 0 .588.053c.175-.035.351-.062.526-.106-.175-.052-.351-.07-.526-.105a.905.905 0 0 1-.439-.149.817.817 0 0 1-.377-.711c0-.439-.299-.852-.693-.984a1.05 1.05 0 0 0-.588-.035c-.176.035-.351.061-.527.105.176.053.351.079.527.115Zm-7.467-.088a1.135 1.135 0 0 1-.132.448.82.82 0 0 1-.684.403c-.422-.008-.851.264-1.001.659a.984.984 0 0 0-.052.588c.035.176.061.351.105.527.053-.176.07-.351.105-.527a.92.92 0 0 1 .149-.439.817.817 0 0 1 .711-.377c.439 0 .851-.299.983-.694a1.05 1.05 0 0 0 .035-.588c-.035-.176-.061-.351-.105-.527-.053.176-.079.351-.114.527Zm-18.909 3.046a1.13 1.13 0 0 1-.132.448.818.818 0 0 1-.684.404c-.421-.009-.851.263-1 .659a.976.976 0 0 0-.053.588c.035.175.061.351.105.527.053-.176.07-.352.106-.527a.895.895 0 0 1 .149-.439.818.818 0 0 1 .71-.378c.439 0 .852-.298.983-.693.079-.194.07-.422.035-.589-.035-.175-.052-.351-.105-.526-.053.175-.079.351-.114.526Zm13.144 14.408a1.13 1.13 0 0 1-.132.448.818.818 0 0 1-.684.404c-.421-.009-.851.263-1 .659a.976.976 0 0 0-.053.588c.035.175.061.351.105.527.053-.176.07-.352.106-.527a.891.891 0 0 1 .149-.439.815.815 0 0 1 .71-.378c.439 0 .852-.298.983-.693.079-.194.07-.422.035-.589-.035-.175-.061-.351-.105-.526-.053.175-.079.351-.114.526Zm3.606-27.288c.149-.114.263-.184.413-.219a.814.814 0 0 1 .772.202c.289.298.789.412 1.175.245a.976.976 0 0 0 .457-.377c.096-.149.21-.29.298-.448-.158.088-.298.202-.447.299a.876.876 0 0 1-.413.202.814.814 0 0 1-.763-.238 1.08 1.08 0 0 0-1.185-.21 1 1 0 0 0-.438.386c-.097.149-.211.29-.299.448.141-.079.281-.193.43-.29Zm-9.643 19c.149-.114.263-.184.413-.219a.817.817 0 0 1 .772.201c.289.299.789.413 1.175.246a.98.98 0 0 0 .457-.377c.096-.149.21-.29.298-.448-.158.088-.298.202-.447.299a.864.864 0 0 1-.413.201.81.81 0 0 1-.763-.237 1.08 1.08 0 0 0-1.185-.21 1 1 0 0 0-.438.386c-.097.149-.211.29-.299.448.141-.088.281-.193.43-.29Z" fill="#170139"/><path d="M168.688 146.259c.807 1.713 1.886 3.328 2.86 4.944 1.018 1.685 2.088 3.345 3.15 5.004 1.062 1.66 5.528 8.157 6.642 9.781.053.07.158 0 .114-.079-1.018-1.694-5.036-8.394-6.08-10.018-1.053-1.624-2.089-3.257-3.177-4.855-1.105-1.616-2.158-3.328-3.422-4.82-.044-.027-.105 0-.087.043ZM146.348 179.579c-9.046-3.108-21.225-9.122-27.753-13.213-6.204-3.89-9.766-8.763-7.073-11.221.176-.123.272-.185.272-.185l34.554 24.619Z" fill="#170139"/><path d="M120.999 219.221c-1.053.684-50.383-12.152-50.576-12.556-.509-1.097 26.148-50.125 40.617-56.596 3.106-1.396 10.652 2.037 12.135 4.303.93 1.422 1.772 9.412 2.185 15.909.816 13.003-3.449 48.334-4.361 48.94Z" fill="#170139"/><path d="M99.537 170.158c.175-.053.35-.07.526-.105a1.05 1.05 0 0 1 .588.035c.395.14.693.553.693.983a.818.818 0 0 0 .377.711c.123.079.255.123.439.15.176.035.351.061.527.105-.176.053-.351.07-.527.105a1.05 1.05 0 0 1-.588-.052c-.395-.15-.667-.589-.658-1.001a.82.82 0 0 0-.403-.685.97.97 0 0 0-.448-.132c-.175-.044-.35-.07-.526-.114Zm10.248 34.909c.184.018.316.053.448.132a.82.82 0 0 1 .403.685c-.009.421.263.851.658 1.001a.97.97 0 0 0 .588.052c.176-.035.351-.061.527-.105-.176-.053-.351-.07-.527-.105a.91.91 0 0 1-.439-.15.817.817 0 0 1-.377-.711c0-.439-.298-.851-.693-.983a1.05 1.05 0 0 0-.588-.035c-.175.035-.351.061-.526.105.175.062.351.079.526.114Zm12.109-32.925c.184.018.316.062.447.132a.82.82 0 0 1 .404.685c-.009.421.263.851.658 1.001a.968.968 0 0 0 .588.052c.175-.035.351-.061.526-.105-.175-.053-.351-.07-.526-.105a.906.906 0 0 1-.439-.15.815.815 0 0 1-.377-.711 1.06 1.06 0 0 0-.693-.983 1.05 1.05 0 0 0-.588-.035c-.176.035-.351.061-.527.105.176.053.351.079.527.114Zm-11.898-18.104c.184.017.316.061.447.132a.818.818 0 0 1 .404.684c-.009.422.263.852.658 1.001a.976.976 0 0 0 .588.053c.175-.035.351-.061.526-.105-.175-.053-.351-.071-.526-.106a.895.895 0 0 1-.439-.149.816.816 0 0 1-.377-.711c0-.439-.299-.852-.693-.983a1.051 1.051 0 0 0-.588-.036c-.176.036-.351.062-.527.106.176.052.351.079.527.114ZM86.27 184.829c.184.018.316.062.447.132a.82.82 0 0 1 .404.685c-.009.421.263.852.658 1.001a.976.976 0 0 0 .588.053c.175-.036.35-.062.526-.106-.175-.053-.35-.07-.526-.105a.915.915 0 0 1-.439-.149.82.82 0 0 1-.377-.712c0-.439-.299-.851-.693-.983a1.05 1.05 0 0 0-.588-.035c-.176.035-.351.061-.527.105.176.053.351.07.527.114Zm10.538 14.751c.184.017.316.061.447.131.246.15.404.413.404.685-.009.422.263.852.658 1.001a.976.976 0 0 0 .588.053c.175-.035.35-.062.526-.105-.175-.053-.35-.071-.526-.106a.894.894 0 0 1-.439-.149.819.819 0 0 1-.377-.711 1.06 1.06 0 0 0-.693-.984 1.05 1.05 0 0 0-.588-.035c-.176.035-.351.062-.527.106.176.061.351.079.527.114Zm-18.918 3.117a.987.987 0 0 1 .448.131c.245.15.403.413.403.685-.008.422.263.852.658 1.001a.976.976 0 0 0 .588.053c.176-.035.351-.062.527-.106-.176-.052-.351-.07-.527-.105a.895.895 0 0 1-.438-.149.82.82 0 0 1-.378-.711 1.06 1.06 0 0 0-.693-.984 1.05 1.05 0 0 0-.588-.035c-.175.035-.35.053-.526.106.175.061.35.079.526.114Zm27.631-17.455a.996.996 0 0 1 .447.132.818.818 0 0 1 .404.685c-.009.421.263.851.658 1a.976.976 0 0 0 .588.053c.175-.035.351-.061.526-.105-.175-.053-.351-.07-.526-.106a.895.895 0 0 1-.439-.149.816.816 0 0 1-.377-.711c0-.439-.299-.852-.693-.983a1.041 1.041 0 0 0-.588-.035c-.176.035-.351.061-.527.105.176.061.351.079.527.114Zm14.591 9.149c.185.017.316.061.448.131a.82.82 0 0 1 .404.685c-.009.422.263.852.658 1.001a.976.976 0 0 0 .588.053c.175-.035.351-.062.526-.105-.175-.053-.351-.071-.526-.106a.891.891 0 0 1-.439-.149.816.816 0 0 1-.377-.711 1.06 1.06 0 0 0-.694-.984 1.05 1.05 0 0 0-.588-.035c-.175.035-.35.062-.526.106.176.052.351.07.526.114Zm-.078-9.404c-.15.115-.264.185-.413.22a.819.819 0 0 1-.772-.202c-.29-.299-.79-.413-1.176-.246a.97.97 0 0 0-.456.378c-.097.149-.211.289-.298.447.158-.087.298-.201.447-.298a.862.862 0 0 1 .413-.202.81.81 0 0 1 .763.237c.307.307.807.386 1.184.211.193-.079.351-.246.439-.387.097-.149.211-.289.298-.447-.14.087-.28.193-.429.289Zm-17.953-26.656a1.113 1.113 0 0 1-.131.448.82.82 0 0 1-.685.404c-.421-.009-.851.263-1 .658a.98.98 0 0 0-.053.589c.035.175.062.351.105.527.053-.176.071-.352.106-.527a.891.891 0 0 1 .149-.439.817.817 0 0 1 .711-.378c.438 0 .851-.298.982-.693.079-.194.071-.422.036-.589-.036-.175-.053-.351-.106-.526-.061.175-.079.351-.114.526Zm-4.326 30.765a1.115 1.115 0 0 1-.131.448.819.819 0 0 1-.685.404c-.42-.009-.85.264-1 .659a.977.977 0 0 0-.053.588c.035.175.062.351.106.527.052-.176.07-.352.105-.527a.903.903 0 0 1 .15-.439.819.819 0 0 1 .71-.378c.439 0 .851-.298.983-.693.079-.193.07-.422.035-.589-.035-.175-.062-.351-.106-.526-.061.175-.079.351-.114.526Zm21.787-26.647a.988.988 0 0 1-.131.448.82.82 0 0 1-.685.404c-.421-.009-.851.263-1 .658a.98.98 0 0 0-.053.589c.035.175.062.351.106.526.052-.175.07-.351.105-.526a.891.891 0 0 1 .149-.439.817.817 0 0 1 .711-.378 1.05 1.05 0 0 0 1.018-1.282c-.036-.175-.062-.351-.106-.527-.061.176-.079.352-.114.527Zm0 49.669a1.108 1.108 0 0 1-.131.447.82.82 0 0 1-.685.404c-.421-.009-.851.264-1 .659a.976.976 0 0 0-.053.588c.035.176.062.351.106.527.052-.176.07-.351.105-.527a.895.895 0 0 1 .149-.439.82.82 0 0 1 .711-.378c.438 0 .851-.298.982-.693a1.05 1.05 0 0 0 .036-.588c-.036-.176-.062-.352-.106-.527-.061.175-.079.351-.114.527Zm-38.835-21.915a1 1 0 0 1-.132.448.82.82 0 0 1-.684.403c-.421-.008-.851.264-1 .659a.978.978 0 0 0-.053.588c.035.176.061.351.105.527.053-.176.07-.351.105-.527a.906.906 0 0 1 .15-.439.816.816 0 0 1 .71-.377c.439 0 .851-.299.983-.694.079-.193.07-.421.035-.588-.035-.176-.061-.351-.105-.527-.053.176-.08.351-.114.527Zm32.737-14.154a1.113 1.113 0 0 1-.132.448.818.818 0 0 1-.684.404c-.421-.009-.851.263-1 .659a.976.976 0 0 0-.053.588c.035.175.061.351.105.527.053-.176.071-.352.106-.527a.891.891 0 0 1 .149-.439.816.816 0 0 1 .711-.378c.438 0 .851-.298.982-.693.079-.194.07-.422.035-.589-.035-.175-.061-.351-.105-.526-.061.175-.079.351-.114.526Zm-22.541-3.038a.993.993 0 0 1-.132.448.819.819 0 0 1-.684.404c-.422-.009-.852.264-1 .659a.977.977 0 0 0-.053.588c.035.176.061.351.105.527.053-.176.07-.351.105-.527a.903.903 0 0 1 .15-.439.819.819 0 0 1 .71-.378c.439 0 .851-.298.983-.693.079-.193.07-.422.035-.589-.035-.175-.053-.351-.105-.526-.062.175-.08.351-.114.526Zm0 34.365a.996.996 0 0 1-.132.448.819.819 0 0 1-.684.404c-.422-.009-.852.263-1 .659a.977.977 0 0 0-.053.588c.035.175.061.351.105.527.053-.176.07-.352.105-.527a.903.903 0 0 1 .15-.439.819.819 0 0 1 .71-.378c.439 0 .851-.298.983-.693.079-.193.07-.422.035-.589-.035-.175-.053-.351-.105-.526-.062.175-.08.351-.114.526Zm17.426-41.476c.149-.114.263-.185.412-.22a.819.819 0 0 1 .772.202c.29.299.79.413 1.176.246a.97.97 0 0 0 .456-.378c.097-.149.211-.289.298-.447-.158.087-.298.202-.447.298a.86.86 0 0 1-.412.202.812.812 0 0 1-.764-.237 1.082 1.082 0 0 0-1.184-.211 1.004 1.004 0 0 0-.439.387c-.097.149-.211.289-.298.447.14-.079.28-.193.43-.289Zm-12.74 13.363c.148-.114.262-.185.412-.22a.82.82 0 0 1 .772.202c.29.299.79.413 1.175.246a.976.976 0 0 0 .457-.377c.096-.15.21-.29.298-.448-.158.088-.298.202-.448.298a.861.861 0 0 1-.412.202.811.811 0 0 1-.763-.237 1.082 1.082 0 0 0-1.185-.211c-.193.08-.35.246-.438.387-.097.149-.211.29-.299.448.14-.079.28-.185.43-.29Zm-9.644 19c.15-.114.263-.185.413-.22a.82.82 0 0 1 .772.202c.29.299.79.413 1.175.246a.976.976 0 0 0 .457-.377c.096-.15.21-.29.298-.448-.158.088-.298.202-.448.298a.862.862 0 0 1-.412.202.811.811 0 0 1-.763-.237 1.082 1.082 0 0 0-1.185-.211 1.002 1.002 0 0 0-.439.387c-.096.149-.21.289-.298.448.15-.08.28-.194.43-.29Zm22.822-1.949c.149-.115.263-.185.413-.22a.82.82 0 0 1 .772.202c.289.299.789.413 1.176.246a.974.974 0 0 0 .456-.378c.096-.149.21-.289.298-.447-.158.087-.298.202-.447.298a.867.867 0 0 1-.413.202.81.81 0 0 1-.763-.237 1.083 1.083 0 0 0-1.185-.211.996.996 0 0 0-.438.387c-.097.149-.211.289-.299.447.141-.087.281-.193.43-.289Zm-8.757 13.828c.15-.114.264-.184.413-.219a.814.814 0 0 1 .772.202c.289.298.79.412 1.176.245a.978.978 0 0 0 .456-.377c.096-.149.211-.29.298-.448-.158.088-.298.202-.447.299a.872.872 0 0 1-.413.202.814.814 0 0 1-.763-.238 1.08 1.08 0 0 0-1.185-.21c-.193.079-.35.246-.438.386-.097.149-.21.29-.299.448.14-.079.281-.193.43-.29Zm23.314-6.128a.892.892 0 0 1-.237-.167 1.067 1.067 0 0 0-1.185-.211 1.08 1.08 0 0 0-.447.386c-.097.15-.202.29-.298.448.166-.088.298-.193.447-.298.149-.114.263-.176.413-.22.28-.061.579.009.772.202.131.141.307.237.491.29l.044-.43Z" fill="#170139"/><path d="M121.078 159.789c-.343 4.934-.781 9.86-1.229 14.786-.447 4.925-.974 9.833-1.456 14.759-.553 4.908-1.071 9.825-1.659 14.733l-.912 7.357c-.334 2.45-.632 4.899-.992 7.349.158-2.467.378-4.934.571-7.393l.658-7.384c.447-4.925.974-9.833 1.465-14.759.553-4.908 1.071-9.825 1.667-14.733.579-4.916 1.185-9.824 1.887-14.715ZM123.113 175.26a.924.924 0 1 1-1.842-.158.925.925 0 0 1 1-.843.92.92 0 0 1 .842 1.001ZM121.92 184.733a.924.924 0 1 1-1.841-.155.924.924 0 0 1 1.841.155ZM120.727 194.207a.926.926 0 1 1-1.844-.158.926.926 0 0 1 1.844.158ZM119.525 203.681a.925.925 0 1 1-1.843-.157.925.925 0 0 1 1.843.157ZM118.331 213.154a.924.924 0 1 1-1.842-.158.925.925 0 1 1 1.842.158Z" fill="#170139"/><path d="M118.533 160.659c-3.106-.228-6.66-6.216-7.484-10.413-.053-.29 1.14-2.757 2.448-5.821.789-1.862 1.623-3.96 2.246-5.918l11.371 6.901s-2.518 3.732-3.579 7.164c-.088.29-.141.562-.167.835-.009.035-.009.087-.026.14-.237 1.607-1.808 7.331-4.809 7.112Z" fill="#D3766A"/><path d="M116.278 138.832c-.395 2.573-1.307 11.958 5.774 14.382.456.149.886.263 1.281.333.017-.052.017-.105.026-.14.026-.272.088-.545.167-.834 1.07-3.433 3.58-7.165 3.58-7.165l-10.828-6.576Z" fill="#263238"/><path d="M116.12 126.127c-1.895 4.398-.956 17.832 1.957 21.124 4.22 4.777 11.863 6.041 16.101.799 4.115-5.083 2.58-22.564-.746-25.637-4.887-4.513-14.504-2.784-17.312 3.714Z" fill="#D3766A"/><path d="M128.001 135.592c-.009-.035-.07.044-.062.088.088.904.035 1.949-.763 2.309-.026.009-.018.053.009.053.991-.22 1.044-1.607.816-2.45Z" fill="#263238"/><path d="M127.132 134.697c-1.465-.018-1.386 2.906-.035 2.923 1.334.018 1.263-2.906.035-2.923ZM133.02 135.486c.008-.035.07.044.07.079-.009.905.14 1.95.965 2.231.026.008.026.052-.009.052-.991-.123-1.175-1.51-1.026-2.362Z" fill="#263238"/><path d="M133.801 134.512c1.456-.149 1.64 2.775.298 2.906-1.325.141-1.509-2.774-.298-2.906ZM125.948 133.388c.394-.114.745-.281 1.123-.43.43-.167.789-.264 1.061-.659.15-.211.071-.588-.123-.746-.447-.378-1.026-.299-1.553-.114-.57.202-.956.5-1.272 1.009-.307.501.237 1.089.764.94ZM134.897 133.011c-.403-.053-.772-.176-1.167-.273-.447-.105-.816-.149-1.14-.5-.176-.193-.149-.571.017-.755.395-.439.974-.439 1.518-.325.588.123 1.018.36 1.395.825.369.448-.087 1.107-.623 1.028ZM127.114 144.038c.22.211.448.492.773.51.316.017.684-.132.965-.255.026-.009.061.018.044.044-.228.351-.72.588-1.141.518-.412-.061-.623-.413-.737-.781 0-.044.07-.062.096-.036Z" fill="#263238"/><path d="M128.001 141.298c.526.773 1.281 1.186 2.097 1.317.36.062.737.062 1.114.018.07 0 .149-.018.211-.026.061-.009.123-.018.202-.036.105-.017.158-.105.175-.21v-.009c0-.035 0-.062-.009-.097v-.087c0-.703-.096-1.756-.096-1.756.254.122 1.57.676 1.544.307-.254-3.012-.544-6.366-1.439-9.307-.026-.097-.175-.07-.167.026.132 2.907.781 5.769.957 8.684-.421-.149-1.106-.422-1.466-.404-.096.035.22 2.046.193 2.362 0 0 0 .017-.008.035-1.167.184-2.062-.149-3.221-.913-.078-.035-.149.026-.087.096Z" fill="#263238"/><path d="M130.686 142.467s-.667.79-1.518 1.036c-.316.087-.65.114-.992 0-.702-.229-.684-.887-.517-1.449a3.64 3.64 0 0 1 .377-.843s.983 1.045 2.65 1.256Z" fill="#263238"/><path d="M129.168 143.494c-.316.088-.65.114-.992 0-.702-.228-.684-.887-.517-1.449.763.132 1.491.703 1.509 1.449Z" fill="#F291B8"/><path d="M135.704 127.69c-.008-.018-.008-.035-.017-.044l.017.061v-.017Z" fill="#263238"/><path d="M135.731 127.716c-4.387 3.293-10.766-1.132-10.766-1.132-1.308 3.599-4.852 3.318-4.852 3.318s-.562 7.692-2.58 7.762c-3.071.114-4.466-10.281-3.58-12.38.877-2.089 3.466-2.73 3.466-2.73s.123-1.598 1.965-3.135c2.027-1.694 9.363.158 9.363.158s.438-1.37 1.746-2.581c.833-.764 1.983-.667 2.746.132-.333.518-.57 1.167-.658 1.914-.272 2.256 1.562 2.177 1.456.14-.043-.904-.359-1.598-.798-2.063.842-1.37 2.299-1.862 3.229-1.186 1.667 1.247 2.913 9.053-.737 11.783Z" fill="#263238"/><path d="M118.63 136.829s-2.589-4.539-4.624-3.652c-2.027.887-.351 7.27 1.842 8.323 2.194 1.054 3.212-.957 3.212-.957l-.43-3.714Z" fill="#D3766A"/><path d="M114.532 135.003c-.035-.009-.044.044-.018.062 1.536.79 2.238 2.344 2.685 3.933-.421-.632-1.035-1.018-1.877-.527-.044.027-.009.097.035.088.667-.079 1.123.079 1.518.641.281.395.447.887.632 1.335.061.149.324.096.289-.071 0-.008-.009-.026-.009-.035.228-2.037-1.088-5.031-3.255-5.426Z" fill="#263238"/><path d="m123.333 153.538-2.641 5.873-9.292-10.395-2.94 2.792s7.678 15.971 7.801 15.295l4.589-6.181 3.158 4.934.72-9.588-1.395-2.73Z" fill="#170139"/><path d="M124.684 160.281c.053-1.879.167-2.011.132-3.89 0-.07-.106-.105-.123-.026-.544 1.765-.72 7.191-.895 8.894-.009-.009-.009-.017-.018-.017-.166-.211-2.878-4.364-2.93-4.303-.773.966-4.37 5.461-4.563 5.874-1.211-2.537-5.905-11.783-7.397-14.215-.044-.07-.149-.026-.114.053 1.035 2.652 7.23 15.102 7.344 15.075.07.07 4.326-5.47 4.765-6.532.588.887 3.299 5.523 3.334 5.242.272-1.862.412-4.276.465-6.155Z" fill="#fff"/><path d="m171.854 233.428-6.893-2.511-53.76 147.809 6.893 2.51 53.76-147.808Z" fill="#DBDBDB"/><path d="m171.846 233.426-4.176 11.467-7.485-.87 4.765-13.108 6.896 2.511Z" fill="#A6A6A6"/><path d="m185.12 204.313-11.626-4.234-12.861 35.362 11.626 4.234 12.861-35.362Z" fill="#FF00C7"/><path d="M167.047 403.557H65.703l4.387-8.025h92.578l4.379 8.025Z" fill="#263238"/><path d="M154.771 399.816H77.987s5.37-32.082 38.396-32.082c33.027 0 38.388 32.082 38.388 32.082Z" fill="#A6A6A6"/><path d="M138.197 399.816H94.57s3.054-18.227 21.813-18.227c18.76 0 21.814 18.227 21.814 18.227Z" fill="#C7C7C7"/><path d="M100.37 167.69c-.64 7.112.298 37.983 3.22 43.005 5.291 9.096 33.782 21.432 40.424 23.829 2.895 1.045 12.819-22.143 9.818-23.478-2.026-.895-29.324-9.535-31.087-11.256-1.764-1.712-8.748-22.951-11.433-34.47-2.562-10.958-9.591-12.696-10.942 2.37Z" fill="#D3766A"/><path d="M180.55 218.746c.36 2.599-2.088 3.758-2.088 3.758s1.386 1.563 1.299 3.573c-.106 2.301-3.756 3.143-3.756 3.143s1.08 1.879.764 3.987c-.325 2.195-3.887 3.564-3.887 3.564s.044 2.301-1.536 3.934c-2.694 2.792-8.493 1.554-12.188.807-3.694-.746-13.459-6.33-15.434-7.208l4.598-23.75s17.514-1.352 21.726.141c3.553 1.264 10.099 5.136 10.502 8.051Z" fill="#D3766A"/><path d="M178.374 222.1c-3.457-2.248-7.388-3.354-11.248-4.671-.088-.026-.132.105-.044.132 3.852 1.273 7.405 3.292 11.205 4.715.105.035.175-.123.087-.176ZM175.979 228.905c-.798-.483-1.755-.703-2.641-.957a104.957 104.957 0 0 0-8.722-2.099c-.088-.017-.131.114-.044.132 1.922.492 3.843 1.01 5.748 1.58.956.29 1.904.58 2.851.878.878.281 1.79.65 2.72.72.141.009.211-.184.088-.254ZM172.794 236.763c-.676-.448-1.641-.562-2.422-.738a256.82 256.82 0 0 1-2.65-.623c-1.763-.431-3.527-.861-5.282-1.344-.088-.026-.131.106-.044.132 1.773.509 3.545 1.036 5.326 1.528l2.624.711c.746.193 1.658.527 2.43.43.044-.017.053-.079.018-.096Z" fill="#263238"/><path d="m149.138 208.834-6.616 27.068s-31.763-13.187-40.23-24.856c-3.492-4.811-4.58-33.118-2.694-44.444 1.887-11.326 8.125-16.498 12.697.21 4.58 16.709 9.221 31.424 10.292 31.889 1.088.466 26.551 10.133 26.551 10.133Z" fill="#170139"/><path d="M99.537 170.158c.175-.053.35-.07.526-.105a1.05 1.05 0 0 1 .588.035c.395.14.693.553.693.983a.818.818 0 0 0 .377.711c.123.079.255.123.439.15.176.035.351.061.527.105-.176.053-.351.07-.527.105a1.051 1.051 0 0 1-.588-.052c-.395-.15-.667-.589-.658-1.001a.82.82 0 0 0-.403-.685.97.97 0 0 0-.448-.132c-.175-.044-.35-.07-.526-.114Zm10.248 34.909c.184.018.316.053.448.132a.82.82 0 0 1 .403.685c-.009.421.263.851.658 1.001a.97.97 0 0 0 .588.052c.176-.035.351-.061.527-.105-.176-.053-.351-.07-.527-.105a.91.91 0 0 1-.439-.15.817.817 0 0 1-.377-.711c0-.439-.298-.851-.693-.983a1.05 1.05 0 0 0-.588-.035c-.175.035-.351.061-.526.105.175.062.351.079.526.114Zm27.13 25.875c.185.017.316.061.448.132a.818.818 0 0 1 .404.684c-.009.422.263.852.658 1.001a.976.976 0 0 0 .588.053c.175-.035.351-.061.526-.105-.175-.053-.351-.071-.526-.106a.891.891 0 0 1-.439-.149.816.816 0 0 1-.377-.711 1.05 1.05 0 0 0-1.282-1.019c-.175.036-.35.062-.526.106.176.061.351.079.526.114Zm-31.394-45.7a.996.996 0 0 1 .447.132.818.818 0 0 1 .404.685c-.009.421.263.851.658 1a.976.976 0 0 0 .588.053c.175-.035.351-.061.526-.105-.175-.053-.351-.07-.526-.106a.895.895 0 0 1-.439-.149.816.816 0 0 1-.377-.711c0-.439-.299-.852-.693-.983a1.041 1.041 0 0 0-.588-.035c-.176.035-.351.061-.527.105.176.061.351.079.527.114Zm21.918 40.836c.184.017.316.061.448.132a.82.82 0 0 1 .403.684c-.008.422.264.852.658 1.001a.978.978 0 0 0 .588.053c.176-.035.351-.062.527-.105-.176-.053-.351-.071-.527-.106a.891.891 0 0 1-.438-.149.817.817 0 0 1-.378-.711 1.06 1.06 0 0 0-.693-.984 1.05 1.05 0 0 0-.588-.035c-.175.035-.351.062-.526.106.166.052.351.079.526.114Zm5.976-16.392c.184.017.315.061.447.131a.82.82 0 0 1 .404.685c-.009.422.263.852.658 1.001a.976.976 0 0 0 .588.053c.175-.035.351-.062.526-.106-.175-.052-.351-.07-.526-.105a.901.901 0 0 1-.439-.149.817.817 0 0 1-.377-.711 1.06 1.06 0 0 0-.694-.984 1.047 1.047 0 0 0-.587-.035c-.176.035-.351.062-.527.105.176.062.351.079.527.115Zm-13.302-15.515c-.176.035-.351.062-.527.106.176.052.351.07.527.114a.987.987 0 0 1 .447.131c.061.036.114.08.158.132-.053-.149-.105-.316-.158-.474a1.302 1.302 0 0 0-.447-.009Zm.851 1.133c.017.193.087.386.201.544-.061-.175-.131-.351-.201-.544Zm25.867 14.987c-.15.115-.264.185-.413.22a.819.819 0 0 1-.772-.202c-.29-.299-.79-.413-1.176-.246a.97.97 0 0 0-.456.378c-.097.149-.211.289-.298.447.158-.087.298-.202.447-.298a.862.862 0 0 1 .413-.202.81.81 0 0 1 .763.237c.307.307.807.386 1.184.211.193-.079.351-.246.439-.387.097-.149.211-.289.298-.447-.14.079-.28.184-.429.289Zm-26.42 11.502c-.149.114-.263.185-.413.22a.82.82 0 0 1-.772-.202c-.289-.299-.789-.413-1.175-.246a.98.98 0 0 0-.457.377c-.096.15-.21.29-.298.448.158-.088.298-.202.447-.298a.867.867 0 0 1 .413-.202.81.81 0 0 1 .763.237c.307.307.807.386 1.185.211a.996.996 0 0 0 .438-.387c.097-.149.211-.29.299-.448-.141.079-.281.194-.43.29Zm-2.904-36.937c-.115.079-.22.184-.281.281-.097.149-.211.289-.299.447.158-.087.299-.193.448-.298a1.33 1.33 0 0 1 .219-.141c-.026-.096-.052-.193-.087-.289Zm15.039 17.674c-.123.105-.22.237-.281.386a1.064 1.064 0 0 0-.053.588c.036.176.053.352.106.527.044-.175.07-.351.105-.527a.937.937 0 0 1 .149-.43.774.774 0 0 1 .483-.351c-.176-.07-.334-.132-.509-.193Zm-13.004 9.588a1.108 1.108 0 0 1-.131.447.82.82 0 0 1-.685.404c-.421-.009-.851.264-1 .659a.976.976 0 0 0-.053.588c.035.176.062.351.106.527.052-.176.07-.351.105-.527a.895.895 0 0 1 .149-.439.82.82 0 0 1 .711-.378c.438 0 .851-.298.982-.693a1.05 1.05 0 0 0 .036-.588c-.036-.176-.062-.352-.106-.527-.061.175-.079.351-.114.527Zm19.874 9.113a1.113 1.113 0 0 1-.131.448.82.82 0 0 1-.685.404c-.421-.009-.851.263-1 .658a.98.98 0 0 0-.053.589c.035.175.062.351.106.526.052-.175.07-.351.105-.526a.891.891 0 0 1 .149-.439.817.817 0 0 1 .711-.378c.438 0 .851-.298.982-.693.079-.194.071-.422.036-.589-.036-.175-.062-.351-.106-.527-.052.176-.079.352-.114.527Zm-25.972-45.182a1.113 1.113 0 0 1-.132.448.818.818 0 0 1-.684.404c-.421-.009-.851.263-1 .659a.976.976 0 0 0-.053.588c.035.175.061.351.105.527.053-.176.071-.352.106-.527a.891.891 0 0 1 .149-.439.817.817 0 0 1 .711-.378c.438 0 .851-.298.982-.693.079-.194.07-.422.035-.589-.035-.175-.061-.351-.105-.526-.061.175-.079.351-.114.526Zm-5.115-10.149c.149-.114.263-.185.412-.22a.819.819 0 0 1 .772.202c.29.299.79.413 1.176.246a.97.97 0 0 0 .456-.378c.097-.149.211-.289.298-.447-.157.087-.298.202-.447.298a.86.86 0 0 1-.412.202.812.812 0 0 1-.764-.237 1.082 1.082 0 0 0-1.184-.211 1.004 1.004 0 0 0-.439.387c-.097.149-.211.289-.298.447.14-.079.28-.193.43-.289Zm.438 30.414c.149-.115.264-.185.413-.22a.82.82 0 0 1 .772.202c.289.299.79.413 1.176.246a.974.974 0 0 0 .456-.378c.096-.149.21-.289.298-.447-.158.087-.298.202-.447.298a.867.867 0 0 1-.413.202.81.81 0 0 1-.763-.237 1.083 1.083 0 0 0-1.185-.211.996.996 0 0 0-.438.387c-.097.149-.211.289-.299.447.141-.087.281-.193.43-.289Zm12.837 7.858c.149-.114.263-.185.413-.22a.82.82 0 0 1 .772.202c.289.299.789.413 1.176.246a.974.974 0 0 0 .456-.378c.096-.149.21-.289.298-.447-.158.087-.298.202-.447.298a.867.867 0 0 1-.413.202.81.81 0 0 1-.763-.237 1.083 1.083 0 0 0-1.185-.211.996.996 0 0 0-.438.387c-.097.149-.211.289-.299.447.149-.079.281-.184.43-.289Zm-18.935 5.672a.868.868 0 0 1-.412.202.771.771 0 0 1-.544-.071c.07.167.14.325.219.474a.888.888 0 0 0 .43-.079.973.973 0 0 0 .456-.377c.097-.149.211-.29.299-.448-.158.088-.299.202-.448.299Zm25.2 8.165c.149-.114.263-.184.412-.22a.82.82 0 0 1 .773.202c.289.299.789.413 1.175.246a.98.98 0 0 0 .457-.377c.096-.15.21-.29.298-.448-.158.088-.298.202-.447.298a.858.858 0 0 1-.413.202.81.81 0 0 1-.763-.237 1.08 1.08 0 0 0-1.185-.21 1.002 1.002 0 0 0-.439.386c-.096.149-.21.29-.298.448.141-.088.272-.193.43-.29Z" fill="#fff"/><path d="M107.802 216.446c-2.185-1.642-4.554-3.653-5.87-5.997-.755-1.343-.895-2.493-1.132-3.968-.263-1.616-.5-3.231-.711-4.847a131.826 131.826 0 0 1-1.061-18.956c.052-3.582.254-7.164.605-10.729.009-.053-.088-.062-.096-.009-.457 2.88-.781 5.777-.992 8.675-.035-.422-.07-.843-.096-1.265a38.11 38.11 0 0 1-.062-3.468c0-.052-.088-.052-.096 0a23.837 23.837 0 0 0-.027 3.539c.044.649.132 1.29.228 1.931-.219 3.345-.29 6.699-.193 10.053.097 3.293.316 6.585.729 9.86.201 1.598.43 3.187.71 4.777.264 1.519.518 3.09 1.211 4.504 1.334 2.695 4.133 4.46 6.774 6.005.062.035.14-.052.079-.105ZM123.175 198.702c-1.009-.185-1.343-1.739-1.632-2.546l-1.132-3.135c-.737-2.063-1.395-4.144-2.053-6.234a242.413 242.413 0 0 1-1.536-5.145c-.158-1.089-.298-2.177-.482-3.266-.009-.061-.123-.044-.115.018.088.755.202 1.519.316 2.274-.631-2.195-1.254-4.399-1.912-6.585-.018-.053-.097-.027-.088.026a177.379 177.379 0 0 0 2.579 10.659c.966 3.503 2.027 7.024 3.44 10.378.36.86.711 1.756 1.167 2.564.325.588.746.992 1.421 1.115.079.026.115-.106.027-.123ZM143.812 209.027c-.719 1.747-1.193 3.635-1.728 5.443-.562 1.888-1.062 3.793-1.571 5.699-.509 1.905-2.299 9.579-2.746 11.501-.018.088.105.115.131.036.571-1.888 2.808-9.378 3.299-11.248.492-1.87 1.001-3.74 1.439-5.619.448-1.905 1.001-3.837 1.255-5.777 0-.044-.061-.079-.079-.035Z" fill="#263238"/></svg>