<svg width="1440" height="551" viewBox="0 0 1440 551" fill="none" xmlns="http://www.w3.org/2000/svg">
<path d="M943.833 60.9938H502.187C455.772 50.723 103.889 36.9468 -66 29.5085V484.973L367.143 546.72C419.16 543.562 528.196 535.471 548.203 528.379C568.209 521.288 705.254 523.387 771.276 525.323L1059.87 551C1073.21 546.007 1100.48 535.288 1102.89 532.353C1105.89 528.685 1198.42 521.043 1259.94 528.379C1309.15 534.249 1364.14 530.825 1385.48 528.379L1450 510.956V1.99984L1448.44 1.9514C1350.97 -1.07347 1303.39 -2.54977 1071.5 23.4999C1067.62 23.9352 1057.43 25.2155 1065 29C1076 34.5 1151.4 30.935 1189.41 30.4255L1347.47 28.8973C1381.98 27.3691 1427.49 27.0629 1418.49 30.12C1392.08 42.8363 1168.07 56.001 1059.37 60.9938H943.833Z" fill="#170139"/>
</svg>
