<svg width="1440" height="551" fill="none" xmlns="http://www.w3.org/2000/svg"><path d="M943.833 60.994H502.187C455.772 50.723 103.889 36.947-66 29.509v455.464l433.143 61.747c52.017-3.158 161.053-11.249 181.06-18.341 20.006-7.091 157.051-4.992 223.073-3.056L1059.87 551c13.34-4.993 40.61-15.712 43.02-18.647 3-3.668 95.53-11.31 157.05-3.974 49.21 5.87 104.2 2.446 125.54 0l64.52-17.423V2l-1.56-.049c-97.47-3.024-145.05-4.5-376.94 21.549-3.88.435-14.07 1.715-6.5 5.5 11 5.5 86.4 1.935 124.41 1.425l158.06-1.528c34.51-1.528 80.02-1.834 71.02 1.223-26.41 12.716-250.42 25.881-359.12 30.874H943.833Z" fill="#170139"/></svg>